%TF.GenerationSoftware,KiCad,Pcbnew,8.0.5*%
%TF.CreationDate,2025-01-15T23:09:15-08:00*%
%TF.ProjectId,Accumulator_Board,41636375-6d75-46c6-9174-6f725f426f61,V1.2*%
%TF.SameCoordinates,Original*%
%TF.FileFunction,Drillmap*%
%TF.FilePolarity,Positive*%
%FSLAX45Y45*%
G04 Gerber Fmt 4.5, Leading zero omitted, Abs format (unit mm)*
G04 Created by KiCad (PCBNEW 8.0.5) date 2025-01-15 23:09:15*
%MOMM*%
%LPD*%
G01*
G04 APERTURE LIST*
%ADD10C,0.200000*%
%ADD11C,0.100000*%
%ADD12C,0.102000*%
%ADD13C,0.109220*%
%ADD14C,0.110000*%
%ADD15C,0.114300*%
%ADD16C,0.120000*%
%ADD17C,0.130000*%
%ADD18C,0.320000*%
G04 APERTURE END LIST*
D10*
D11*
X6575750Y-9751670D02*
X6605750Y-9781670D01*
X6605750Y-9751670D02*
X6575750Y-9781670D01*
X7161936Y-13785865D02*
X7191936Y-13815865D01*
X7191936Y-13785865D02*
X7161936Y-13815865D01*
X7205750Y-8081670D02*
X7235750Y-8111670D01*
X7235750Y-8081670D02*
X7205750Y-8111670D01*
X7215750Y-13726670D02*
X7245750Y-13756670D01*
X7245750Y-13726670D02*
X7215750Y-13756670D01*
X7255750Y-13561670D02*
X7285750Y-13591670D01*
X7285750Y-13561670D02*
X7255750Y-13591670D01*
X7704750Y-13085670D02*
X7734750Y-13115670D01*
X7734750Y-13085670D02*
X7704750Y-13115670D01*
X7745750Y-11241670D02*
X7775750Y-11271670D01*
X7775750Y-11241670D02*
X7745750Y-11271670D01*
X7765750Y-12331670D02*
X7795750Y-12361670D01*
X7795750Y-12331670D02*
X7765750Y-12361670D01*
X7805750Y-10851670D02*
X7835750Y-10881670D01*
X7835750Y-10851670D02*
X7805750Y-10881670D01*
X8185750Y-13011670D02*
X8215750Y-13041670D01*
X8215750Y-13011670D02*
X8185750Y-13041670D01*
X8465750Y-8391670D02*
X8495750Y-8421670D01*
X8495750Y-8391670D02*
X8465750Y-8421670D01*
X8495750Y-13131670D02*
X8525750Y-13161670D01*
X8525750Y-13131670D02*
X8495750Y-13161670D01*
X8795750Y-10081670D02*
X8825750Y-10111670D01*
X8825750Y-10081670D02*
X8795750Y-10111670D01*
X8795750Y-13351670D02*
X8825750Y-13381670D01*
X8825750Y-13351670D02*
X8795750Y-13381670D01*
X9131500Y-12534420D02*
X9161500Y-12564420D01*
X9161500Y-12534420D02*
X9131500Y-12564420D01*
X9595750Y-13011670D02*
X9625750Y-13041670D01*
X9625750Y-13011670D02*
X9595750Y-13041670D01*
X9645750Y-9911670D02*
X9675750Y-9941670D01*
X9675750Y-9911670D02*
X9645750Y-9941670D01*
X9665750Y-12461670D02*
X9695750Y-12491670D01*
X9695750Y-12461670D02*
X9665750Y-12491670D01*
X9779736Y-10415656D02*
X9809736Y-10445656D01*
X9809736Y-10415656D02*
X9779736Y-10445656D01*
X9910547Y-10366873D02*
X9940547Y-10396873D01*
X9940547Y-10366873D02*
X9910547Y-10396873D01*
X10015750Y-10501670D02*
X10045750Y-10531670D01*
X10045750Y-10501670D02*
X10015750Y-10531670D01*
X10039883Y-9985803D02*
X10069883Y-10015803D01*
X10069883Y-9985803D02*
X10039883Y-10015803D01*
X10072615Y-10444089D02*
X10102615Y-10474089D01*
X10102615Y-10444089D02*
X10072615Y-10474089D01*
X10555750Y-12501670D02*
X10585750Y-12531670D01*
X10585750Y-12501670D02*
X10555750Y-12531670D01*
X10675750Y-12046523D02*
X10705750Y-12076523D01*
X10705750Y-12046523D02*
X10675750Y-12076523D01*
X10753941Y-12063442D02*
X10783941Y-12093442D01*
X10783941Y-12063442D02*
X10753941Y-12093442D01*
X10775750Y-11391670D02*
X10805750Y-11421670D01*
X10805750Y-11391670D02*
X10775750Y-11421670D01*
X10995750Y-7531670D02*
X11025750Y-7561670D01*
X11025750Y-7531670D02*
X10995750Y-7561670D01*
X11435750Y-7541670D02*
X11465750Y-7571670D01*
X11465750Y-7541670D02*
X11435750Y-7571670D01*
X12115750Y-9231670D02*
X12145750Y-9261670D01*
X12145750Y-9231670D02*
X12115750Y-9261670D01*
X12805750Y-11101670D02*
X12835750Y-11131670D01*
X12835750Y-11101670D02*
X12805750Y-11131670D01*
X13025750Y-10141670D02*
X13055750Y-10171670D01*
X13055750Y-10141670D02*
X13025750Y-10171670D01*
X13355750Y-9241670D02*
X13385750Y-9271670D01*
X13385750Y-9241670D02*
X13355750Y-9271670D01*
X13413710Y-9993710D02*
X13443710Y-10023710D01*
X13443710Y-9993710D02*
X13413710Y-10023710D01*
X13565750Y-6251670D02*
X13595750Y-6281670D01*
X13595750Y-6251670D02*
X13565750Y-6281670D01*
X13765750Y-10241670D02*
X13795750Y-10271670D01*
X13795750Y-10241670D02*
X13765750Y-10271670D01*
X13925750Y-7201670D02*
X13955750Y-7231670D01*
X13955750Y-7201670D02*
X13925750Y-7231670D01*
X14015750Y-6261670D02*
X14045750Y-6291670D01*
X14045750Y-6261670D02*
X14015750Y-6291670D01*
X14065750Y-10751670D02*
X14095750Y-10781670D01*
X14095750Y-10751670D02*
X14065750Y-10781670D01*
X14198133Y-10930505D02*
X14228133Y-10960505D01*
X14228133Y-10930505D02*
X14198133Y-10960505D01*
X14245750Y-7211670D02*
X14275750Y-7241670D01*
X14275750Y-7211670D02*
X14245750Y-7241670D01*
X14254702Y-10987073D02*
X14284702Y-11017073D01*
X14284702Y-10987073D02*
X14254702Y-11017073D01*
X14255750Y-11401670D02*
X14285750Y-11431670D01*
X14285750Y-11401670D02*
X14255750Y-11431670D01*
X14305750Y-10691670D02*
X14335750Y-10721670D01*
X14335750Y-10691670D02*
X14305750Y-10721670D01*
X14445750Y-7211670D02*
X14475750Y-7241670D01*
X14475750Y-7211670D02*
X14445750Y-7241670D01*
X14495750Y-9051670D02*
X14525750Y-9081670D01*
X14525750Y-9051670D02*
X14495750Y-9081670D01*
X14495750Y-9711670D02*
X14525750Y-9741670D01*
X14525750Y-9711670D02*
X14495750Y-9741670D01*
X14495750Y-11251670D02*
X14525750Y-11281670D01*
X14525750Y-11251670D02*
X14495750Y-11281670D01*
X14505750Y-11151670D02*
X14535750Y-11181670D01*
X14535750Y-11151670D02*
X14505750Y-11181670D01*
X14625750Y-8861670D02*
X14655750Y-8891670D01*
X14655750Y-8861670D02*
X14625750Y-8891670D01*
X15165750Y-8631670D02*
X15195750Y-8661670D01*
X15195750Y-8631670D02*
X15165750Y-8661670D01*
X15265750Y-6381670D02*
X15295750Y-6411670D01*
X15295750Y-6381670D02*
X15265750Y-6411670D01*
X15307750Y-6677670D02*
X15337750Y-6707670D01*
X15337750Y-6677670D02*
X15307750Y-6707670D01*
X15395750Y-6789670D02*
X15425750Y-6819670D01*
X15425750Y-6789670D02*
X15395750Y-6819670D01*
X15885750Y-5691670D02*
X15915750Y-5721670D01*
X15915750Y-5691670D02*
X15885750Y-5721670D01*
X15965750Y-6201670D02*
X15995750Y-6231670D01*
X15995750Y-6201670D02*
X15965750Y-6231670D01*
X15985750Y-8141670D02*
X16015750Y-8171670D01*
X16015750Y-8141670D02*
X15985750Y-8171670D01*
X16405750Y-8541670D02*
X16435750Y-8571670D01*
X16435750Y-8541670D02*
X16405750Y-8571670D01*
X16415750Y-7519670D02*
X16445750Y-7549670D01*
X16445750Y-7519670D02*
X16415750Y-7549670D01*
X16545750Y-6231670D02*
X16575750Y-6261670D01*
X16575750Y-6231670D02*
X16545750Y-6261670D01*
X16965750Y-9151670D02*
X16995750Y-9181670D01*
X16995750Y-9151670D02*
X16965750Y-9181670D01*
X17335750Y-8581670D02*
X17365750Y-8611670D01*
X17365750Y-8581670D02*
X17335750Y-8611670D01*
X17445750Y-11171670D02*
X17475750Y-11201670D01*
X17475750Y-11171670D02*
X17445750Y-11201670D01*
X17496195Y-10361670D02*
X17526195Y-10391670D01*
X17526195Y-10361670D02*
X17496195Y-10391670D01*
X17565750Y-9681670D02*
X17595750Y-9711670D01*
X17595750Y-9681670D02*
X17565750Y-9711670D01*
X17596750Y-7156670D02*
X17626750Y-7186670D01*
X17626750Y-7156670D02*
X17596750Y-7186670D01*
X17725750Y-7661670D02*
X17755750Y-7691670D01*
X17755750Y-7661670D02*
X17725750Y-7691670D01*
X17875750Y-7971670D02*
X17905750Y-8001670D01*
X17905750Y-7971670D02*
X17875750Y-8001670D01*
X17916500Y-6911190D02*
X17946500Y-6941190D01*
X17946500Y-6911190D02*
X17916500Y-6941190D01*
X17955750Y-8041670D02*
X17985750Y-8071670D01*
X17985750Y-8041670D02*
X17955750Y-8071670D01*
X19965750Y-10911300D02*
X19995750Y-10941300D01*
X19995750Y-10911300D02*
X19965750Y-10941300D01*
X20245750Y-10851300D02*
X20275750Y-10881300D01*
X20275750Y-10851300D02*
X20245750Y-10881300D01*
X20335750Y-10851670D02*
X20365750Y-10881670D01*
X20365750Y-10851670D02*
X20335750Y-10881670D01*
X20425750Y-10301670D02*
X20455750Y-10331670D01*
X20455750Y-10301670D02*
X20425750Y-10331670D01*
X20849500Y-11085420D02*
X20879500Y-11115420D01*
X20879500Y-11085420D02*
X20849500Y-11115420D01*
X15788750Y-6582670D02*
G75*
G02*
X15708750Y-6582670I-40000J0D01*
G01*
X15708750Y-6582670D02*
G75*
G02*
X15788750Y-6582670I40000J0D01*
G01*
X15788750Y-6836670D02*
G75*
G02*
X15708750Y-6836670I-40000J0D01*
G01*
X15708750Y-6836670D02*
G75*
G02*
X15788750Y-6836670I40000J0D01*
G01*
X15788750Y-7090670D02*
G75*
G02*
X15708750Y-7090670I-40000J0D01*
G01*
X15708750Y-7090670D02*
G75*
G02*
X15788750Y-7090670I40000J0D01*
G01*
X15788750Y-7344670D02*
G75*
G02*
X15708750Y-7344670I-40000J0D01*
G01*
X15708750Y-7344670D02*
G75*
G02*
X15788750Y-7344670I40000J0D01*
G01*
X16550750Y-6582670D02*
G75*
G02*
X16470750Y-6582670I-40000J0D01*
G01*
X16470750Y-6582670D02*
G75*
G02*
X16550750Y-6582670I40000J0D01*
G01*
X16550750Y-6836670D02*
G75*
G02*
X16470750Y-6836670I-40000J0D01*
G01*
X16470750Y-6836670D02*
G75*
G02*
X16550750Y-6836670I40000J0D01*
G01*
X16550750Y-7090670D02*
G75*
G02*
X16470750Y-7090670I-40000J0D01*
G01*
X16470750Y-7090670D02*
G75*
G02*
X16550750Y-7090670I40000J0D01*
G01*
X16550750Y-7344670D02*
G75*
G02*
X16470750Y-7344670I-40000J0D01*
G01*
X16470750Y-7344670D02*
G75*
G02*
X16550750Y-7344670I40000J0D01*
G01*
X17870750Y-5180670D02*
X17870750Y-5280670D01*
X17820750Y-5230670D02*
X17920750Y-5230670D01*
X17870750Y-5930670D02*
X17870750Y-6030670D01*
X17820750Y-5980670D02*
X17920750Y-5980670D01*
X21720750Y-6986670D02*
X21720750Y-7086670D01*
X21670750Y-7036670D02*
X21770750Y-7036670D01*
X21720750Y-8106670D02*
X21720750Y-8206670D01*
X21670750Y-8156670D02*
X21770750Y-8156670D01*
D12*
X6360813Y-4908733D02*
X6360813Y-4836607D01*
X6288687Y-4836607D01*
X6288687Y-4908733D01*
X6360813Y-4908733D01*
X6360813Y-5162733D02*
X6360813Y-5090607D01*
X6288687Y-5090607D01*
X6288687Y-5162733D01*
X6360813Y-5162733D01*
X6360813Y-5416733D02*
X6360813Y-5344607D01*
X6288687Y-5344607D01*
X6288687Y-5416733D01*
X6360813Y-5416733D01*
X6360813Y-5670733D02*
X6360813Y-5598607D01*
X6288687Y-5598607D01*
X6288687Y-5670733D01*
X6360813Y-5670733D01*
X6360813Y-5924733D02*
X6360813Y-5852607D01*
X6288687Y-5852607D01*
X6288687Y-5924733D01*
X6360813Y-5924733D01*
X6360813Y-6178733D02*
X6360813Y-6106607D01*
X6288687Y-6106607D01*
X6288687Y-6178733D01*
X6360813Y-6178733D01*
X6360813Y-6432733D02*
X6360813Y-6360607D01*
X6288687Y-6360607D01*
X6288687Y-6432733D01*
X6360813Y-6432733D01*
X6360813Y-6686733D02*
X6360813Y-6614607D01*
X6288687Y-6614607D01*
X6288687Y-6686733D01*
X6360813Y-6686733D01*
X6360813Y-6940733D02*
X6360813Y-6868607D01*
X6288687Y-6868607D01*
X6288687Y-6940733D01*
X6360813Y-6940733D01*
X6360813Y-7194733D02*
X6360813Y-7122607D01*
X6288687Y-7122607D01*
X6288687Y-7194733D01*
X6360813Y-7194733D01*
X6360813Y-7448733D02*
X6360813Y-7376607D01*
X6288687Y-7376607D01*
X6288687Y-7448733D01*
X6360813Y-7448733D01*
X6360813Y-7702733D02*
X6360813Y-7630607D01*
X6288687Y-7630607D01*
X6288687Y-7702733D01*
X6360813Y-7702733D01*
X6360813Y-7956733D02*
X6360813Y-7884607D01*
X6288687Y-7884607D01*
X6288687Y-7956733D01*
X6360813Y-7956733D01*
X6360813Y-8210733D02*
X6360813Y-8138607D01*
X6288687Y-8138607D01*
X6288687Y-8210733D01*
X6360813Y-8210733D01*
X6360813Y-8464733D02*
X6360813Y-8392607D01*
X6288687Y-8392607D01*
X6288687Y-8464733D01*
X6360813Y-8464733D01*
X6360813Y-8718733D02*
X6360813Y-8646607D01*
X6288687Y-8646607D01*
X6288687Y-8718733D01*
X6360813Y-8718733D01*
X6360813Y-8972733D02*
X6360813Y-8900607D01*
X6288687Y-8900607D01*
X6288687Y-8972733D01*
X6360813Y-8972733D01*
X6360813Y-9226733D02*
X6360813Y-9154607D01*
X6288687Y-9154607D01*
X6288687Y-9226733D01*
X6360813Y-9226733D01*
X6360813Y-9480733D02*
X6360813Y-9408607D01*
X6288687Y-9408607D01*
X6288687Y-9480733D01*
X6360813Y-9480733D01*
X6614813Y-4908733D02*
X6614813Y-4836607D01*
X6542687Y-4836607D01*
X6542687Y-4908733D01*
X6614813Y-4908733D01*
X6614813Y-5162733D02*
X6614813Y-5090607D01*
X6542687Y-5090607D01*
X6542687Y-5162733D01*
X6614813Y-5162733D01*
X6614813Y-5416733D02*
X6614813Y-5344607D01*
X6542687Y-5344607D01*
X6542687Y-5416733D01*
X6614813Y-5416733D01*
X6614813Y-5670733D02*
X6614813Y-5598607D01*
X6542687Y-5598607D01*
X6542687Y-5670733D01*
X6614813Y-5670733D01*
X6614813Y-5924733D02*
X6614813Y-5852607D01*
X6542687Y-5852607D01*
X6542687Y-5924733D01*
X6614813Y-5924733D01*
X6614813Y-6178733D02*
X6614813Y-6106607D01*
X6542687Y-6106607D01*
X6542687Y-6178733D01*
X6614813Y-6178733D01*
X6614813Y-6432733D02*
X6614813Y-6360607D01*
X6542687Y-6360607D01*
X6542687Y-6432733D01*
X6614813Y-6432733D01*
X6614813Y-6686733D02*
X6614813Y-6614607D01*
X6542687Y-6614607D01*
X6542687Y-6686733D01*
X6614813Y-6686733D01*
X6614813Y-6940733D02*
X6614813Y-6868607D01*
X6542687Y-6868607D01*
X6542687Y-6940733D01*
X6614813Y-6940733D01*
X6614813Y-7194733D02*
X6614813Y-7122607D01*
X6542687Y-7122607D01*
X6542687Y-7194733D01*
X6614813Y-7194733D01*
X6614813Y-7448733D02*
X6614813Y-7376607D01*
X6542687Y-7376607D01*
X6542687Y-7448733D01*
X6614813Y-7448733D01*
X6614813Y-7702733D02*
X6614813Y-7630607D01*
X6542687Y-7630607D01*
X6542687Y-7702733D01*
X6614813Y-7702733D01*
X6614813Y-7956733D02*
X6614813Y-7884607D01*
X6542687Y-7884607D01*
X6542687Y-7956733D01*
X6614813Y-7956733D01*
X6614813Y-8210733D02*
X6614813Y-8138607D01*
X6542687Y-8138607D01*
X6542687Y-8210733D01*
X6614813Y-8210733D01*
X6614813Y-8464733D02*
X6614813Y-8392607D01*
X6542687Y-8392607D01*
X6542687Y-8464733D01*
X6614813Y-8464733D01*
X6614813Y-8718733D02*
X6614813Y-8646607D01*
X6542687Y-8646607D01*
X6542687Y-8718733D01*
X6614813Y-8718733D01*
X6614813Y-8972733D02*
X6614813Y-8900607D01*
X6542687Y-8900607D01*
X6542687Y-8972733D01*
X6614813Y-8972733D01*
X6614813Y-9226733D02*
X6614813Y-9154607D01*
X6542687Y-9154607D01*
X6542687Y-9226733D01*
X6614813Y-9226733D01*
X6614813Y-9480733D02*
X6614813Y-9408607D01*
X6542687Y-9408607D01*
X6542687Y-9480733D01*
X6614813Y-9480733D01*
X12456813Y-4908733D02*
X12456813Y-4836607D01*
X12384687Y-4836607D01*
X12384687Y-4908733D01*
X12456813Y-4908733D01*
X12456813Y-5162733D02*
X12456813Y-5090607D01*
X12384687Y-5090607D01*
X12384687Y-5162733D01*
X12456813Y-5162733D01*
X12456813Y-5416733D02*
X12456813Y-5344607D01*
X12384687Y-5344607D01*
X12384687Y-5416733D01*
X12456813Y-5416733D01*
X12456813Y-5670733D02*
X12456813Y-5598607D01*
X12384687Y-5598607D01*
X12384687Y-5670733D01*
X12456813Y-5670733D01*
X12456813Y-5924733D02*
X12456813Y-5852607D01*
X12384687Y-5852607D01*
X12384687Y-5924733D01*
X12456813Y-5924733D01*
X12456813Y-6178733D02*
X12456813Y-6106607D01*
X12384687Y-6106607D01*
X12384687Y-6178733D01*
X12456813Y-6178733D01*
X12456813Y-6432733D02*
X12456813Y-6360607D01*
X12384687Y-6360607D01*
X12384687Y-6432733D01*
X12456813Y-6432733D01*
X12456813Y-6686733D02*
X12456813Y-6614607D01*
X12384687Y-6614607D01*
X12384687Y-6686733D01*
X12456813Y-6686733D01*
X12456813Y-6940733D02*
X12456813Y-6868607D01*
X12384687Y-6868607D01*
X12384687Y-6940733D01*
X12456813Y-6940733D01*
X12456813Y-7194733D02*
X12456813Y-7122607D01*
X12384687Y-7122607D01*
X12384687Y-7194733D01*
X12456813Y-7194733D01*
X12456813Y-7448733D02*
X12456813Y-7376607D01*
X12384687Y-7376607D01*
X12384687Y-7448733D01*
X12456813Y-7448733D01*
X12456813Y-7702733D02*
X12456813Y-7630607D01*
X12384687Y-7630607D01*
X12384687Y-7702733D01*
X12456813Y-7702733D01*
X12456813Y-7956733D02*
X12456813Y-7884607D01*
X12384687Y-7884607D01*
X12384687Y-7956733D01*
X12456813Y-7956733D01*
X12456813Y-8210733D02*
X12456813Y-8138607D01*
X12384687Y-8138607D01*
X12384687Y-8210733D01*
X12456813Y-8210733D01*
X12456813Y-8464733D02*
X12456813Y-8392607D01*
X12384687Y-8392607D01*
X12384687Y-8464733D01*
X12456813Y-8464733D01*
X12456813Y-8718733D02*
X12456813Y-8646607D01*
X12384687Y-8646607D01*
X12384687Y-8718733D01*
X12456813Y-8718733D01*
X12456813Y-8972733D02*
X12456813Y-8900607D01*
X12384687Y-8900607D01*
X12384687Y-8972733D01*
X12456813Y-8972733D01*
X12456813Y-9226733D02*
X12456813Y-9154607D01*
X12384687Y-9154607D01*
X12384687Y-9226733D01*
X12456813Y-9226733D01*
X12456813Y-9480733D02*
X12456813Y-9408607D01*
X12384687Y-9408607D01*
X12384687Y-9480733D01*
X12456813Y-9480733D01*
X12710813Y-4908733D02*
X12710813Y-4836607D01*
X12638687Y-4836607D01*
X12638687Y-4908733D01*
X12710813Y-4908733D01*
X12710813Y-5162733D02*
X12710813Y-5090607D01*
X12638687Y-5090607D01*
X12638687Y-5162733D01*
X12710813Y-5162733D01*
X12710813Y-5416733D02*
X12710813Y-5344607D01*
X12638687Y-5344607D01*
X12638687Y-5416733D01*
X12710813Y-5416733D01*
X12710813Y-5670733D02*
X12710813Y-5598607D01*
X12638687Y-5598607D01*
X12638687Y-5670733D01*
X12710813Y-5670733D01*
X12710813Y-5924733D02*
X12710813Y-5852607D01*
X12638687Y-5852607D01*
X12638687Y-5924733D01*
X12710813Y-5924733D01*
X12710813Y-6178733D02*
X12710813Y-6106607D01*
X12638687Y-6106607D01*
X12638687Y-6178733D01*
X12710813Y-6178733D01*
X12710813Y-6432733D02*
X12710813Y-6360607D01*
X12638687Y-6360607D01*
X12638687Y-6432733D01*
X12710813Y-6432733D01*
X12710813Y-6686733D02*
X12710813Y-6614607D01*
X12638687Y-6614607D01*
X12638687Y-6686733D01*
X12710813Y-6686733D01*
X12710813Y-6940733D02*
X12710813Y-6868607D01*
X12638687Y-6868607D01*
X12638687Y-6940733D01*
X12710813Y-6940733D01*
X12710813Y-7194733D02*
X12710813Y-7122607D01*
X12638687Y-7122607D01*
X12638687Y-7194733D01*
X12710813Y-7194733D01*
X12710813Y-7448733D02*
X12710813Y-7376607D01*
X12638687Y-7376607D01*
X12638687Y-7448733D01*
X12710813Y-7448733D01*
X12710813Y-7702733D02*
X12710813Y-7630607D01*
X12638687Y-7630607D01*
X12638687Y-7702733D01*
X12710813Y-7702733D01*
X12710813Y-7956733D02*
X12710813Y-7884607D01*
X12638687Y-7884607D01*
X12638687Y-7956733D01*
X12710813Y-7956733D01*
X12710813Y-8210733D02*
X12710813Y-8138607D01*
X12638687Y-8138607D01*
X12638687Y-8210733D01*
X12710813Y-8210733D01*
X12710813Y-8464733D02*
X12710813Y-8392607D01*
X12638687Y-8392607D01*
X12638687Y-8464733D01*
X12710813Y-8464733D01*
X12710813Y-8718733D02*
X12710813Y-8646607D01*
X12638687Y-8646607D01*
X12638687Y-8718733D01*
X12710813Y-8718733D01*
X12710813Y-8972733D02*
X12710813Y-8900607D01*
X12638687Y-8900607D01*
X12638687Y-8972733D01*
X12710813Y-8972733D01*
X12710813Y-9226733D02*
X12710813Y-9154607D01*
X12638687Y-9154607D01*
X12638687Y-9226733D01*
X12710813Y-9226733D01*
X12710813Y-9480733D02*
X12710813Y-9408607D01*
X12638687Y-9408607D01*
X12638687Y-9480733D01*
X12710813Y-9480733D01*
D13*
X14759750Y-9312880D02*
X14814360Y-9258270D01*
X14759750Y-9203660D01*
X14705140Y-9258270D01*
X14759750Y-9312880D01*
X14759750Y-9566880D02*
X14814360Y-9512270D01*
X14759750Y-9457660D01*
X14705140Y-9512270D01*
X14759750Y-9566880D01*
X15521750Y-7788880D02*
X15576360Y-7734270D01*
X15521750Y-7679660D01*
X15467140Y-7734270D01*
X15521750Y-7788880D01*
X15521750Y-8550880D02*
X15576360Y-8496270D01*
X15521750Y-8441660D01*
X15467140Y-8496270D01*
X15521750Y-8550880D01*
X15521750Y-9312880D02*
X15576360Y-9258270D01*
X15521750Y-9203660D01*
X15467140Y-9258270D01*
X15521750Y-9312880D01*
X15521750Y-9566880D02*
X15576360Y-9512270D01*
X15521750Y-9457660D01*
X15467140Y-9512270D01*
X15521750Y-9566880D01*
D14*
X9396500Y-10815920D02*
X9506500Y-10925920D01*
X9506500Y-10815920D02*
X9396500Y-10925920D01*
X9506500Y-10870920D02*
G75*
G02*
X9396500Y-10870920I-55000J0D01*
G01*
X9396500Y-10870920D02*
G75*
G02*
X9506500Y-10870920I55000J0D01*
G01*
X9396500Y-11069920D02*
X9506500Y-11179920D01*
X9506500Y-11069920D02*
X9396500Y-11179920D01*
X9506500Y-11124920D02*
G75*
G02*
X9396500Y-11124920I-55000J0D01*
G01*
X9396500Y-11124920D02*
G75*
G02*
X9506500Y-11124920I55000J0D01*
G01*
X9396500Y-11323920D02*
X9506500Y-11433920D01*
X9506500Y-11323920D02*
X9396500Y-11433920D01*
X9506500Y-11378920D02*
G75*
G02*
X9396500Y-11378920I-55000J0D01*
G01*
X9396500Y-11378920D02*
G75*
G02*
X9506500Y-11378920I55000J0D01*
G01*
X10171000Y-10815920D02*
X10281000Y-10925920D01*
X10281000Y-10815920D02*
X10171000Y-10925920D01*
X10281000Y-10870920D02*
G75*
G02*
X10171000Y-10870920I-55000J0D01*
G01*
X10171000Y-10870920D02*
G75*
G02*
X10281000Y-10870920I55000J0D01*
G01*
X10171000Y-11069920D02*
X10281000Y-11179920D01*
X10281000Y-11069920D02*
X10171000Y-11179920D01*
X10281000Y-11124920D02*
G75*
G02*
X10171000Y-11124920I-55000J0D01*
G01*
X10171000Y-11124920D02*
G75*
G02*
X10281000Y-11124920I55000J0D01*
G01*
X10171000Y-11323920D02*
X10281000Y-11433920D01*
X10281000Y-11323920D02*
X10171000Y-11433920D01*
X10281000Y-11378920D02*
G75*
G02*
X10171000Y-11378920I-55000J0D01*
G01*
X10171000Y-11378920D02*
G75*
G02*
X10281000Y-11378920I55000J0D01*
G01*
X20808375Y-6099545D02*
X20918375Y-6209545D01*
X20918375Y-6099545D02*
X20808375Y-6209545D01*
X20918375Y-6154545D02*
G75*
G02*
X20808375Y-6154545I-55000J0D01*
G01*
X20808375Y-6154545D02*
G75*
G02*
X20918375Y-6154545I55000J0D01*
G01*
X20808375Y-6353545D02*
X20918375Y-6463545D01*
X20918375Y-6353545D02*
X20808375Y-6463545D01*
X20918375Y-6408545D02*
G75*
G02*
X20808375Y-6408545I-55000J0D01*
G01*
X20808375Y-6408545D02*
G75*
G02*
X20918375Y-6408545I55000J0D01*
G01*
X20808375Y-6607545D02*
X20918375Y-6717545D01*
X20918375Y-6607545D02*
X20808375Y-6717545D01*
X20918375Y-6662545D02*
G75*
G02*
X20808375Y-6662545I-55000J0D01*
G01*
X20808375Y-6662545D02*
G75*
G02*
X20918375Y-6662545I55000J0D01*
G01*
D15*
X13176600Y-7650850D02*
X13290900Y-7765150D01*
X13290900Y-7650850D02*
X13176600Y-7765150D01*
X13233750Y-7650850D02*
X13233750Y-7765150D01*
X13176600Y-7708000D02*
X13290900Y-7708000D01*
X13176600Y-8412850D02*
X13290900Y-8527150D01*
X13290900Y-8412850D02*
X13176600Y-8527150D01*
X13233750Y-8412850D02*
X13233750Y-8527150D01*
X13176600Y-8470000D02*
X13290900Y-8470000D01*
X13176600Y-9428850D02*
X13290900Y-9543150D01*
X13290900Y-9428850D02*
X13176600Y-9543150D01*
X13233750Y-9428850D02*
X13233750Y-9543150D01*
X13176600Y-9486000D02*
X13290900Y-9486000D01*
X14192600Y-7650850D02*
X14306900Y-7765150D01*
X14306900Y-7650850D02*
X14192600Y-7765150D01*
X14249750Y-7650850D02*
X14249750Y-7765150D01*
X14192600Y-7708000D02*
X14306900Y-7708000D01*
X14192600Y-8412850D02*
X14306900Y-8527150D01*
X14306900Y-8412850D02*
X14192600Y-8527150D01*
X14249750Y-8412850D02*
X14249750Y-8527150D01*
X14192600Y-8470000D02*
X14306900Y-8470000D01*
X14192600Y-9428850D02*
X14306900Y-9543150D01*
X14306900Y-9428850D02*
X14192600Y-9543150D01*
X14249750Y-9428850D02*
X14249750Y-9543150D01*
X14192600Y-9486000D02*
X14306900Y-9486000D01*
X16165600Y-9289250D02*
X16279900Y-9403550D01*
X16279900Y-9289250D02*
X16165600Y-9403550D01*
X16222750Y-9289250D02*
X16222750Y-9403550D01*
X16165600Y-9346400D02*
X16279900Y-9346400D01*
X16165600Y-10051250D02*
X16279900Y-10165550D01*
X16279900Y-10051250D02*
X16165600Y-10165550D01*
X16222750Y-10051250D02*
X16222750Y-10165550D01*
X16165600Y-10108400D02*
X16279900Y-10108400D01*
X16165600Y-11067250D02*
X16279900Y-11181550D01*
X16279900Y-11067250D02*
X16165600Y-11181550D01*
X16222750Y-11067250D02*
X16222750Y-11181550D01*
X16165600Y-11124400D02*
X16279900Y-11124400D01*
X17181600Y-9289250D02*
X17295900Y-9403550D01*
X17295900Y-9289250D02*
X17181600Y-9403550D01*
X17238750Y-9289250D02*
X17238750Y-9403550D01*
X17181600Y-9346400D02*
X17295900Y-9346400D01*
X17181600Y-10051250D02*
X17295900Y-10165550D01*
X17295900Y-10051250D02*
X17181600Y-10165550D01*
X17238750Y-10051250D02*
X17238750Y-10165550D01*
X17181600Y-10108400D02*
X17295900Y-10108400D01*
X17181600Y-11067250D02*
X17295900Y-11181550D01*
X17295900Y-11067250D02*
X17181600Y-11181550D01*
X17238750Y-11067250D02*
X17238750Y-11181550D01*
X17181600Y-11124400D02*
X17295900Y-11124400D01*
D16*
X6580750Y-9916670D02*
X6700750Y-10036670D01*
X6700750Y-9916670D02*
X6580750Y-10036670D01*
X6683177Y-10019097D02*
X6683177Y-9934243D01*
X6598323Y-9934243D01*
X6598323Y-10019097D01*
X6683177Y-10019097D01*
X6580750Y-10166670D02*
X6700750Y-10286670D01*
X6700750Y-10166670D02*
X6580750Y-10286670D01*
X6683177Y-10269097D02*
X6683177Y-10184243D01*
X6598323Y-10184243D01*
X6598323Y-10269097D01*
X6683177Y-10269097D01*
X6580750Y-10416670D02*
X6700750Y-10536670D01*
X6700750Y-10416670D02*
X6580750Y-10536670D01*
X6683177Y-10519097D02*
X6683177Y-10434243D01*
X6598323Y-10434243D01*
X6598323Y-10519097D01*
X6683177Y-10519097D01*
X6580750Y-10666670D02*
X6700750Y-10786670D01*
X6700750Y-10666670D02*
X6580750Y-10786670D01*
X6683177Y-10769097D02*
X6683177Y-10684243D01*
X6598323Y-10684243D01*
X6598323Y-10769097D01*
X6683177Y-10769097D01*
X6580750Y-10916670D02*
X6700750Y-11036670D01*
X6700750Y-10916670D02*
X6580750Y-11036670D01*
X6683177Y-11019097D02*
X6683177Y-10934243D01*
X6598323Y-10934243D01*
X6598323Y-11019097D01*
X6683177Y-11019097D01*
X6580750Y-11166670D02*
X6700750Y-11286670D01*
X6700750Y-11166670D02*
X6580750Y-11286670D01*
X6683177Y-11269097D02*
X6683177Y-11184243D01*
X6598323Y-11184243D01*
X6598323Y-11269097D01*
X6683177Y-11269097D01*
X6580750Y-11416670D02*
X6700750Y-11536670D01*
X6700750Y-11416670D02*
X6580750Y-11536670D01*
X6683177Y-11519097D02*
X6683177Y-11434243D01*
X6598323Y-11434243D01*
X6598323Y-11519097D01*
X6683177Y-11519097D01*
X6580750Y-11666670D02*
X6700750Y-11786670D01*
X6700750Y-11666670D02*
X6580750Y-11786670D01*
X6683177Y-11769097D02*
X6683177Y-11684243D01*
X6598323Y-11684243D01*
X6598323Y-11769097D01*
X6683177Y-11769097D01*
X6580750Y-12256670D02*
X6700750Y-12376670D01*
X6700750Y-12256670D02*
X6580750Y-12376670D01*
X6683177Y-12359097D02*
X6683177Y-12274243D01*
X6598323Y-12274243D01*
X6598323Y-12359097D01*
X6683177Y-12359097D01*
X6580750Y-12506670D02*
X6700750Y-12626670D01*
X6700750Y-12506670D02*
X6580750Y-12626670D01*
X6683177Y-12609097D02*
X6683177Y-12524243D01*
X6598323Y-12524243D01*
X6598323Y-12609097D01*
X6683177Y-12609097D01*
X6580750Y-12756670D02*
X6700750Y-12876670D01*
X6700750Y-12756670D02*
X6580750Y-12876670D01*
X6683177Y-12859097D02*
X6683177Y-12774243D01*
X6598323Y-12774243D01*
X6598323Y-12859097D01*
X6683177Y-12859097D01*
X6580750Y-13006670D02*
X6700750Y-13126670D01*
X6700750Y-13006670D02*
X6580750Y-13126670D01*
X6683177Y-13109097D02*
X6683177Y-13024243D01*
X6598323Y-13024243D01*
X6598323Y-13109097D01*
X6683177Y-13109097D01*
X6580750Y-13256670D02*
X6700750Y-13376670D01*
X6700750Y-13256670D02*
X6580750Y-13376670D01*
X6683177Y-13359097D02*
X6683177Y-13274243D01*
X6598323Y-13274243D01*
X6598323Y-13359097D01*
X6683177Y-13359097D01*
X6580750Y-13506670D02*
X6700750Y-13626670D01*
X6700750Y-13506670D02*
X6580750Y-13626670D01*
X6683177Y-13609097D02*
X6683177Y-13524243D01*
X6598323Y-13524243D01*
X6598323Y-13609097D01*
X6683177Y-13609097D01*
X6830750Y-9916670D02*
X6950750Y-10036670D01*
X6950750Y-9916670D02*
X6830750Y-10036670D01*
X6933177Y-10019097D02*
X6933177Y-9934243D01*
X6848323Y-9934243D01*
X6848323Y-10019097D01*
X6933177Y-10019097D01*
X6830750Y-10166670D02*
X6950750Y-10286670D01*
X6950750Y-10166670D02*
X6830750Y-10286670D01*
X6933177Y-10269097D02*
X6933177Y-10184243D01*
X6848323Y-10184243D01*
X6848323Y-10269097D01*
X6933177Y-10269097D01*
X6830750Y-10416670D02*
X6950750Y-10536670D01*
X6950750Y-10416670D02*
X6830750Y-10536670D01*
X6933177Y-10519097D02*
X6933177Y-10434243D01*
X6848323Y-10434243D01*
X6848323Y-10519097D01*
X6933177Y-10519097D01*
X6830750Y-10666670D02*
X6950750Y-10786670D01*
X6950750Y-10666670D02*
X6830750Y-10786670D01*
X6933177Y-10769097D02*
X6933177Y-10684243D01*
X6848323Y-10684243D01*
X6848323Y-10769097D01*
X6933177Y-10769097D01*
X6830750Y-10916670D02*
X6950750Y-11036670D01*
X6950750Y-10916670D02*
X6830750Y-11036670D01*
X6933177Y-11019097D02*
X6933177Y-10934243D01*
X6848323Y-10934243D01*
X6848323Y-11019097D01*
X6933177Y-11019097D01*
X6830750Y-11166670D02*
X6950750Y-11286670D01*
X6950750Y-11166670D02*
X6830750Y-11286670D01*
X6933177Y-11269097D02*
X6933177Y-11184243D01*
X6848323Y-11184243D01*
X6848323Y-11269097D01*
X6933177Y-11269097D01*
X6830750Y-11416670D02*
X6950750Y-11536670D01*
X6950750Y-11416670D02*
X6830750Y-11536670D01*
X6933177Y-11519097D02*
X6933177Y-11434243D01*
X6848323Y-11434243D01*
X6848323Y-11519097D01*
X6933177Y-11519097D01*
X6830750Y-11666670D02*
X6950750Y-11786670D01*
X6950750Y-11666670D02*
X6830750Y-11786670D01*
X6933177Y-11769097D02*
X6933177Y-11684243D01*
X6848323Y-11684243D01*
X6848323Y-11769097D01*
X6933177Y-11769097D01*
X6830750Y-12256670D02*
X6950750Y-12376670D01*
X6950750Y-12256670D02*
X6830750Y-12376670D01*
X6933177Y-12359097D02*
X6933177Y-12274243D01*
X6848323Y-12274243D01*
X6848323Y-12359097D01*
X6933177Y-12359097D01*
X6830750Y-12506670D02*
X6950750Y-12626670D01*
X6950750Y-12506670D02*
X6830750Y-12626670D01*
X6933177Y-12609097D02*
X6933177Y-12524243D01*
X6848323Y-12524243D01*
X6848323Y-12609097D01*
X6933177Y-12609097D01*
X6830750Y-12756670D02*
X6950750Y-12876670D01*
X6950750Y-12756670D02*
X6830750Y-12876670D01*
X6933177Y-12859097D02*
X6933177Y-12774243D01*
X6848323Y-12774243D01*
X6848323Y-12859097D01*
X6933177Y-12859097D01*
X6830750Y-13006670D02*
X6950750Y-13126670D01*
X6950750Y-13006670D02*
X6830750Y-13126670D01*
X6933177Y-13109097D02*
X6933177Y-13024243D01*
X6848323Y-13024243D01*
X6848323Y-13109097D01*
X6933177Y-13109097D01*
X6830750Y-13256670D02*
X6950750Y-13376670D01*
X6950750Y-13256670D02*
X6830750Y-13376670D01*
X6933177Y-13359097D02*
X6933177Y-13274243D01*
X6848323Y-13274243D01*
X6848323Y-13359097D01*
X6933177Y-13359097D01*
X6830750Y-13506670D02*
X6950750Y-13626670D01*
X6950750Y-13506670D02*
X6830750Y-13626670D01*
X6933177Y-13609097D02*
X6933177Y-13524243D01*
X6848323Y-13524243D01*
X6848323Y-13609097D01*
X6933177Y-13609097D01*
X8230750Y-10806670D02*
X8350750Y-10926670D01*
X8350750Y-10806670D02*
X8230750Y-10926670D01*
X8333177Y-10909097D02*
X8333177Y-10824243D01*
X8248323Y-10824243D01*
X8248323Y-10909097D01*
X8333177Y-10909097D01*
X8230750Y-11060670D02*
X8350750Y-11180670D01*
X8350750Y-11060670D02*
X8230750Y-11180670D01*
X8333177Y-11163097D02*
X8333177Y-11078243D01*
X8248323Y-11078243D01*
X8248323Y-11163097D01*
X8333177Y-11163097D01*
X8230750Y-11314670D02*
X8350750Y-11434670D01*
X8350750Y-11314670D02*
X8230750Y-11434670D01*
X8333177Y-11417097D02*
X8333177Y-11332243D01*
X8248323Y-11332243D01*
X8248323Y-11417097D01*
X8333177Y-11417097D01*
X13200750Y-4966670D02*
X13320750Y-5086670D01*
X13320750Y-4966670D02*
X13200750Y-5086670D01*
X13303177Y-5069097D02*
X13303177Y-4984243D01*
X13218323Y-4984243D01*
X13218323Y-5069097D01*
X13303177Y-5069097D01*
X13450750Y-4966670D02*
X13570750Y-5086670D01*
X13570750Y-4966670D02*
X13450750Y-5086670D01*
X13553177Y-5069097D02*
X13553177Y-4984243D01*
X13468323Y-4984243D01*
X13468323Y-5069097D01*
X13553177Y-5069097D01*
X13700750Y-4966670D02*
X13820750Y-5086670D01*
X13820750Y-4966670D02*
X13700750Y-5086670D01*
X13803177Y-5069097D02*
X13803177Y-4984243D01*
X13718323Y-4984243D01*
X13718323Y-5069097D01*
X13803177Y-5069097D01*
X13950750Y-4966670D02*
X14070750Y-5086670D01*
X14070750Y-4966670D02*
X13950750Y-5086670D01*
X14053177Y-5069097D02*
X14053177Y-4984243D01*
X13968323Y-4984243D01*
X13968323Y-5069097D01*
X14053177Y-5069097D01*
X14520750Y-4966670D02*
X14640750Y-5086670D01*
X14640750Y-4966670D02*
X14520750Y-5086670D01*
X14623177Y-5069097D02*
X14623177Y-4984243D01*
X14538323Y-4984243D01*
X14538323Y-5069097D01*
X14623177Y-5069097D01*
X14770750Y-4966670D02*
X14890750Y-5086670D01*
X14890750Y-4966670D02*
X14770750Y-5086670D01*
X14873177Y-5069097D02*
X14873177Y-4984243D01*
X14788323Y-4984243D01*
X14788323Y-5069097D01*
X14873177Y-5069097D01*
X15340750Y-4966670D02*
X15460750Y-5086670D01*
X15460750Y-4966670D02*
X15340750Y-5086670D01*
X15443177Y-5069097D02*
X15443177Y-4984243D01*
X15358323Y-4984243D01*
X15358323Y-5069097D01*
X15443177Y-5069097D01*
X15590750Y-4966670D02*
X15710750Y-5086670D01*
X15710750Y-4966670D02*
X15590750Y-5086670D01*
X15693177Y-5069097D02*
X15693177Y-4984243D01*
X15608323Y-4984243D01*
X15608323Y-5069097D01*
X15693177Y-5069097D01*
X15840750Y-4966670D02*
X15960750Y-5086670D01*
X15960750Y-4966670D02*
X15840750Y-5086670D01*
X15943177Y-5069097D02*
X15943177Y-4984243D01*
X15858323Y-4984243D01*
X15858323Y-5069097D01*
X15943177Y-5069097D01*
X16090750Y-4966670D02*
X16210750Y-5086670D01*
X16210750Y-4966670D02*
X16090750Y-5086670D01*
X16193177Y-5069097D02*
X16193177Y-4984243D01*
X16108323Y-4984243D01*
X16108323Y-5069097D01*
X16193177Y-5069097D01*
X16660750Y-4966670D02*
X16780750Y-5086670D01*
X16780750Y-4966670D02*
X16660750Y-5086670D01*
X16763177Y-5069097D02*
X16763177Y-4984243D01*
X16678323Y-4984243D01*
X16678323Y-5069097D01*
X16763177Y-5069097D01*
X16910750Y-4966670D02*
X17030750Y-5086670D01*
X17030750Y-4966670D02*
X16910750Y-5086670D01*
X17013177Y-5069097D02*
X17013177Y-4984243D01*
X16928323Y-4984243D01*
X16928323Y-5069097D01*
X17013177Y-5069097D01*
X17160750Y-4966670D02*
X17280750Y-5086670D01*
X17280750Y-4966670D02*
X17160750Y-5086670D01*
X17263177Y-5069097D02*
X17263177Y-4984243D01*
X17178323Y-4984243D01*
X17178323Y-5069097D01*
X17263177Y-5069097D01*
X20635750Y-5123670D02*
X20755750Y-5243670D01*
X20755750Y-5123670D02*
X20635750Y-5243670D01*
X20738177Y-5226097D02*
X20738177Y-5141243D01*
X20653323Y-5141243D01*
X20653323Y-5226097D01*
X20738177Y-5226097D01*
X20885750Y-5123670D02*
X21005750Y-5243670D01*
X21005750Y-5123670D02*
X20885750Y-5243670D01*
X20988177Y-5226097D02*
X20988177Y-5141243D01*
X20903323Y-5141243D01*
X20903323Y-5226097D01*
X20988177Y-5226097D01*
X21603750Y-5711670D02*
X21723750Y-5831670D01*
X21723750Y-5711670D02*
X21603750Y-5831670D01*
X21706177Y-5814097D02*
X21706177Y-5729243D01*
X21621323Y-5729243D01*
X21621323Y-5814097D01*
X21706177Y-5814097D01*
X21603750Y-5961670D02*
X21723750Y-6081670D01*
X21723750Y-5961670D02*
X21603750Y-6081670D01*
X21706177Y-6064097D02*
X21706177Y-5979243D01*
X21621323Y-5979243D01*
X21621323Y-6064097D01*
X21706177Y-6064097D01*
X21610750Y-4886670D02*
X21730750Y-5006670D01*
X21730750Y-4886670D02*
X21610750Y-5006670D01*
X21713177Y-4989097D02*
X21713177Y-4904243D01*
X21628323Y-4904243D01*
X21628323Y-4989097D01*
X21713177Y-4989097D01*
X21610750Y-5136670D02*
X21730750Y-5256670D01*
X21730750Y-5136670D02*
X21610750Y-5256670D01*
X21713177Y-5239097D02*
X21713177Y-5154243D01*
X21628323Y-5154243D01*
X21628323Y-5239097D01*
X21713177Y-5239097D01*
X21657750Y-7401670D02*
X21777750Y-7521670D01*
X21777750Y-7401670D02*
X21657750Y-7521670D01*
X21760177Y-7504097D02*
X21760177Y-7419243D01*
X21675323Y-7419243D01*
X21675323Y-7504097D01*
X21760177Y-7504097D01*
X21657750Y-7651670D02*
X21777750Y-7771670D01*
X21777750Y-7651670D02*
X21657750Y-7771670D01*
X21760177Y-7754097D02*
X21760177Y-7669243D01*
X21675323Y-7669243D01*
X21675323Y-7754097D01*
X21760177Y-7754097D01*
D17*
X19455750Y-5915670D02*
X19585750Y-6045670D01*
X19585750Y-5915670D02*
X19455750Y-6045670D01*
X19520750Y-6045670D02*
X19585750Y-5980670D01*
X19520750Y-5915670D01*
X19455750Y-5980670D01*
X19520750Y-6045670D01*
X19805750Y-5165670D02*
X19935750Y-5295670D01*
X19935750Y-5165670D02*
X19805750Y-5295670D01*
X19870750Y-5295670D02*
X19935750Y-5230670D01*
X19870750Y-5165670D01*
X19805750Y-5230670D01*
X19870750Y-5295670D01*
D18*
X5560750Y-4946670D02*
X5560750Y-5266670D01*
X5400750Y-5106670D02*
X5720750Y-5106670D01*
X5720750Y-5106670D02*
G75*
G02*
X5400750Y-5106670I-160000J0D01*
G01*
X5400750Y-5106670D02*
G75*
G02*
X5720750Y-5106670I160000J0D01*
G01*
X5560750Y-13398670D02*
X5560750Y-13718670D01*
X5400750Y-13558670D02*
X5720750Y-13558670D01*
X5720750Y-13558670D02*
G75*
G02*
X5400750Y-13558670I-160000J0D01*
G01*
X5400750Y-13558670D02*
G75*
G02*
X5720750Y-13558670I160000J0D01*
G01*
X22784750Y-13398670D02*
X22784750Y-13718670D01*
X22624750Y-13558670D02*
X22944750Y-13558670D01*
X22944750Y-13558670D02*
G75*
G02*
X22624750Y-13558670I-160000J0D01*
G01*
X22624750Y-13558670D02*
G75*
G02*
X22944750Y-13558670I160000J0D01*
G01*
X22785750Y-4944670D02*
X22785750Y-5264670D01*
X22625750Y-5104670D02*
X22945750Y-5104670D01*
X22945750Y-5104670D02*
G75*
G02*
X22625750Y-5104670I-160000J0D01*
G01*
X22625750Y-5104670D02*
G75*
G02*
X22945750Y-5104670I160000J0D01*
G01*
D10*
X260777Y-311484D02*
X260777Y-111484D01*
X260777Y-111484D02*
X308396Y-111484D01*
X308396Y-111484D02*
X336967Y-121008D01*
X336967Y-121008D02*
X356015Y-140055D01*
X356015Y-140055D02*
X365539Y-159103D01*
X365539Y-159103D02*
X375062Y-197198D01*
X375062Y-197198D02*
X375062Y-225769D01*
X375062Y-225769D02*
X365539Y-263865D01*
X365539Y-263865D02*
X356015Y-282912D01*
X356015Y-282912D02*
X336967Y-301960D01*
X336967Y-301960D02*
X308396Y-311484D01*
X308396Y-311484D02*
X260777Y-311484D01*
X460777Y-311484D02*
X460777Y-178150D01*
X460777Y-216246D02*
X470301Y-197198D01*
X470301Y-197198D02*
X479824Y-187674D01*
X479824Y-187674D02*
X498872Y-178150D01*
X498872Y-178150D02*
X517920Y-178150D01*
X584586Y-311484D02*
X584586Y-178150D01*
X584586Y-111484D02*
X575063Y-121008D01*
X575063Y-121008D02*
X584586Y-130531D01*
X584586Y-130531D02*
X594110Y-121008D01*
X594110Y-121008D02*
X584586Y-111484D01*
X584586Y-111484D02*
X584586Y-130531D01*
X708396Y-311484D02*
X689348Y-301960D01*
X689348Y-301960D02*
X679824Y-282912D01*
X679824Y-282912D02*
X679824Y-111484D01*
X813158Y-311484D02*
X794110Y-301960D01*
X794110Y-301960D02*
X784586Y-282912D01*
X784586Y-282912D02*
X784586Y-111484D01*
X1041729Y-311484D02*
X1041729Y-111484D01*
X1041729Y-111484D02*
X1108396Y-254341D01*
X1108396Y-254341D02*
X1175063Y-111484D01*
X1175063Y-111484D02*
X1175063Y-311484D01*
X1356015Y-311484D02*
X1356015Y-206722D01*
X1356015Y-206722D02*
X1346491Y-187674D01*
X1346491Y-187674D02*
X1327444Y-178150D01*
X1327444Y-178150D02*
X1289348Y-178150D01*
X1289348Y-178150D02*
X1270301Y-187674D01*
X1356015Y-301960D02*
X1336967Y-311484D01*
X1336967Y-311484D02*
X1289348Y-311484D01*
X1289348Y-311484D02*
X1270301Y-301960D01*
X1270301Y-301960D02*
X1260777Y-282912D01*
X1260777Y-282912D02*
X1260777Y-263865D01*
X1260777Y-263865D02*
X1270301Y-244817D01*
X1270301Y-244817D02*
X1289348Y-235293D01*
X1289348Y-235293D02*
X1336967Y-235293D01*
X1336967Y-235293D02*
X1356015Y-225769D01*
X1451253Y-178150D02*
X1451253Y-378150D01*
X1451253Y-187674D02*
X1470301Y-178150D01*
X1470301Y-178150D02*
X1508396Y-178150D01*
X1508396Y-178150D02*
X1527443Y-187674D01*
X1527443Y-187674D02*
X1536967Y-197198D01*
X1536967Y-197198D02*
X1546491Y-216246D01*
X1546491Y-216246D02*
X1546491Y-273389D01*
X1546491Y-273389D02*
X1536967Y-292436D01*
X1536967Y-292436D02*
X1527443Y-301960D01*
X1527443Y-301960D02*
X1508396Y-311484D01*
X1508396Y-311484D02*
X1470301Y-311484D01*
X1470301Y-311484D02*
X1451253Y-301960D01*
X1632205Y-292436D02*
X1641729Y-301960D01*
X1641729Y-301960D02*
X1632205Y-311484D01*
X1632205Y-311484D02*
X1622682Y-301960D01*
X1622682Y-301960D02*
X1632205Y-292436D01*
X1632205Y-292436D02*
X1632205Y-311484D01*
X1632205Y-187674D02*
X1641729Y-197198D01*
X1641729Y-197198D02*
X1632205Y-206722D01*
X1632205Y-206722D02*
X1622682Y-197198D01*
X1622682Y-197198D02*
X1632205Y-187674D01*
X1632205Y-187674D02*
X1632205Y-206722D01*
D11*
X-30000Y-625000D02*
X0Y-655000D01*
X0Y-625000D02*
X-30000Y-655000D01*
D10*
X298872Y-531484D02*
X317920Y-531484D01*
X317920Y-531484D02*
X336967Y-541008D01*
X336967Y-541008D02*
X346491Y-550531D01*
X346491Y-550531D02*
X356015Y-569579D01*
X356015Y-569579D02*
X365539Y-607674D01*
X365539Y-607674D02*
X365539Y-655293D01*
X365539Y-655293D02*
X356015Y-693389D01*
X356015Y-693389D02*
X346491Y-712436D01*
X346491Y-712436D02*
X336967Y-721960D01*
X336967Y-721960D02*
X317920Y-731484D01*
X317920Y-731484D02*
X298872Y-731484D01*
X298872Y-731484D02*
X279824Y-721960D01*
X279824Y-721960D02*
X270301Y-712436D01*
X270301Y-712436D02*
X260777Y-693389D01*
X260777Y-693389D02*
X251253Y-655293D01*
X251253Y-655293D02*
X251253Y-607674D01*
X251253Y-607674D02*
X260777Y-569579D01*
X260777Y-569579D02*
X270301Y-550531D01*
X270301Y-550531D02*
X279824Y-541008D01*
X279824Y-541008D02*
X298872Y-531484D01*
X451253Y-712436D02*
X460777Y-721960D01*
X460777Y-721960D02*
X451253Y-731484D01*
X451253Y-731484D02*
X441729Y-721960D01*
X441729Y-721960D02*
X451253Y-712436D01*
X451253Y-712436D02*
X451253Y-731484D01*
X527444Y-531484D02*
X651253Y-531484D01*
X651253Y-531484D02*
X584586Y-607674D01*
X584586Y-607674D02*
X613158Y-607674D01*
X613158Y-607674D02*
X632205Y-617198D01*
X632205Y-617198D02*
X641729Y-626722D01*
X641729Y-626722D02*
X651253Y-645770D01*
X651253Y-645770D02*
X651253Y-693389D01*
X651253Y-693389D02*
X641729Y-712436D01*
X641729Y-712436D02*
X632205Y-721960D01*
X632205Y-721960D02*
X613158Y-731484D01*
X613158Y-731484D02*
X556015Y-731484D01*
X556015Y-731484D02*
X536967Y-721960D01*
X536967Y-721960D02*
X527444Y-712436D01*
X775062Y-531484D02*
X794110Y-531484D01*
X794110Y-531484D02*
X813158Y-541008D01*
X813158Y-541008D02*
X822682Y-550531D01*
X822682Y-550531D02*
X832205Y-569579D01*
X832205Y-569579D02*
X841729Y-607674D01*
X841729Y-607674D02*
X841729Y-655293D01*
X841729Y-655293D02*
X832205Y-693389D01*
X832205Y-693389D02*
X822682Y-712436D01*
X822682Y-712436D02*
X813158Y-721960D01*
X813158Y-721960D02*
X794110Y-731484D01*
X794110Y-731484D02*
X775062Y-731484D01*
X775062Y-731484D02*
X756015Y-721960D01*
X756015Y-721960D02*
X746491Y-712436D01*
X746491Y-712436D02*
X736967Y-693389D01*
X736967Y-693389D02*
X727443Y-655293D01*
X727443Y-655293D02*
X727443Y-607674D01*
X727443Y-607674D02*
X736967Y-569579D01*
X736967Y-569579D02*
X746491Y-550531D01*
X746491Y-550531D02*
X756015Y-541008D01*
X756015Y-541008D02*
X775062Y-531484D01*
X965539Y-531484D02*
X984586Y-531484D01*
X984586Y-531484D02*
X1003634Y-541008D01*
X1003634Y-541008D02*
X1013158Y-550531D01*
X1013158Y-550531D02*
X1022682Y-569579D01*
X1022682Y-569579D02*
X1032205Y-607674D01*
X1032205Y-607674D02*
X1032205Y-655293D01*
X1032205Y-655293D02*
X1022682Y-693389D01*
X1022682Y-693389D02*
X1013158Y-712436D01*
X1013158Y-712436D02*
X1003634Y-721960D01*
X1003634Y-721960D02*
X984586Y-731484D01*
X984586Y-731484D02*
X965539Y-731484D01*
X965539Y-731484D02*
X946491Y-721960D01*
X946491Y-721960D02*
X936967Y-712436D01*
X936967Y-712436D02*
X927443Y-693389D01*
X927443Y-693389D02*
X917920Y-655293D01*
X917920Y-655293D02*
X917920Y-607674D01*
X917920Y-607674D02*
X927443Y-569579D01*
X927443Y-569579D02*
X936967Y-550531D01*
X936967Y-550531D02*
X946491Y-541008D01*
X946491Y-541008D02*
X965539Y-531484D01*
X1117920Y-731484D02*
X1117920Y-598150D01*
X1117920Y-617198D02*
X1127444Y-607674D01*
X1127444Y-607674D02*
X1146491Y-598150D01*
X1146491Y-598150D02*
X1175063Y-598150D01*
X1175063Y-598150D02*
X1194110Y-607674D01*
X1194110Y-607674D02*
X1203634Y-626722D01*
X1203634Y-626722D02*
X1203634Y-731484D01*
X1203634Y-626722D02*
X1213158Y-607674D01*
X1213158Y-607674D02*
X1232205Y-598150D01*
X1232205Y-598150D02*
X1260777Y-598150D01*
X1260777Y-598150D02*
X1279825Y-607674D01*
X1279825Y-607674D02*
X1289348Y-626722D01*
X1289348Y-626722D02*
X1289348Y-731484D01*
X1384586Y-731484D02*
X1384586Y-598150D01*
X1384586Y-617198D02*
X1394110Y-607674D01*
X1394110Y-607674D02*
X1413158Y-598150D01*
X1413158Y-598150D02*
X1441729Y-598150D01*
X1441729Y-598150D02*
X1460777Y-607674D01*
X1460777Y-607674D02*
X1470301Y-626722D01*
X1470301Y-626722D02*
X1470301Y-731484D01*
X1470301Y-626722D02*
X1479824Y-607674D01*
X1479824Y-607674D02*
X1498872Y-598150D01*
X1498872Y-598150D02*
X1527443Y-598150D01*
X1527443Y-598150D02*
X1546491Y-607674D01*
X1546491Y-607674D02*
X1556015Y-626722D01*
X1556015Y-626722D02*
X1556015Y-731484D01*
X1946491Y-521960D02*
X1775063Y-779103D01*
X2203634Y-531484D02*
X2222682Y-531484D01*
X2222682Y-531484D02*
X2241729Y-541008D01*
X2241729Y-541008D02*
X2251253Y-550531D01*
X2251253Y-550531D02*
X2260777Y-569579D01*
X2260777Y-569579D02*
X2270301Y-607674D01*
X2270301Y-607674D02*
X2270301Y-655293D01*
X2270301Y-655293D02*
X2260777Y-693389D01*
X2260777Y-693389D02*
X2251253Y-712436D01*
X2251253Y-712436D02*
X2241729Y-721960D01*
X2241729Y-721960D02*
X2222682Y-731484D01*
X2222682Y-731484D02*
X2203634Y-731484D01*
X2203634Y-731484D02*
X2184587Y-721960D01*
X2184587Y-721960D02*
X2175063Y-712436D01*
X2175063Y-712436D02*
X2165539Y-693389D01*
X2165539Y-693389D02*
X2156015Y-655293D01*
X2156015Y-655293D02*
X2156015Y-607674D01*
X2156015Y-607674D02*
X2165539Y-569579D01*
X2165539Y-569579D02*
X2175063Y-550531D01*
X2175063Y-550531D02*
X2184587Y-541008D01*
X2184587Y-541008D02*
X2203634Y-531484D01*
X2356015Y-712436D02*
X2365539Y-721960D01*
X2365539Y-721960D02*
X2356015Y-731484D01*
X2356015Y-731484D02*
X2346491Y-721960D01*
X2346491Y-721960D02*
X2356015Y-712436D01*
X2356015Y-712436D02*
X2356015Y-731484D01*
X2489348Y-531484D02*
X2508396Y-531484D01*
X2508396Y-531484D02*
X2527444Y-541008D01*
X2527444Y-541008D02*
X2536968Y-550531D01*
X2536968Y-550531D02*
X2546491Y-569579D01*
X2546491Y-569579D02*
X2556015Y-607674D01*
X2556015Y-607674D02*
X2556015Y-655293D01*
X2556015Y-655293D02*
X2546491Y-693389D01*
X2546491Y-693389D02*
X2536968Y-712436D01*
X2536968Y-712436D02*
X2527444Y-721960D01*
X2527444Y-721960D02*
X2508396Y-731484D01*
X2508396Y-731484D02*
X2489348Y-731484D01*
X2489348Y-731484D02*
X2470301Y-721960D01*
X2470301Y-721960D02*
X2460777Y-712436D01*
X2460777Y-712436D02*
X2451253Y-693389D01*
X2451253Y-693389D02*
X2441729Y-655293D01*
X2441729Y-655293D02*
X2441729Y-607674D01*
X2441729Y-607674D02*
X2451253Y-569579D01*
X2451253Y-569579D02*
X2460777Y-550531D01*
X2460777Y-550531D02*
X2470301Y-541008D01*
X2470301Y-541008D02*
X2489348Y-531484D01*
X2746491Y-731484D02*
X2632206Y-731484D01*
X2689348Y-731484D02*
X2689348Y-531484D01*
X2689348Y-531484D02*
X2670301Y-560055D01*
X2670301Y-560055D02*
X2651253Y-579103D01*
X2651253Y-579103D02*
X2632206Y-588627D01*
X2936967Y-731484D02*
X2822682Y-731484D01*
X2879825Y-731484D02*
X2879825Y-531484D01*
X2879825Y-531484D02*
X2860777Y-560055D01*
X2860777Y-560055D02*
X2841729Y-579103D01*
X2841729Y-579103D02*
X2822682Y-588627D01*
X3051253Y-617198D02*
X3032206Y-607674D01*
X3032206Y-607674D02*
X3022682Y-598150D01*
X3022682Y-598150D02*
X3013158Y-579103D01*
X3013158Y-579103D02*
X3013158Y-569579D01*
X3013158Y-569579D02*
X3022682Y-550531D01*
X3022682Y-550531D02*
X3032206Y-541008D01*
X3032206Y-541008D02*
X3051253Y-531484D01*
X3051253Y-531484D02*
X3089348Y-531484D01*
X3089348Y-531484D02*
X3108396Y-541008D01*
X3108396Y-541008D02*
X3117920Y-550531D01*
X3117920Y-550531D02*
X3127444Y-569579D01*
X3127444Y-569579D02*
X3127444Y-579103D01*
X3127444Y-579103D02*
X3117920Y-598150D01*
X3117920Y-598150D02*
X3108396Y-607674D01*
X3108396Y-607674D02*
X3089348Y-617198D01*
X3089348Y-617198D02*
X3051253Y-617198D01*
X3051253Y-617198D02*
X3032206Y-626722D01*
X3032206Y-626722D02*
X3022682Y-636246D01*
X3022682Y-636246D02*
X3013158Y-655293D01*
X3013158Y-655293D02*
X3013158Y-693389D01*
X3013158Y-693389D02*
X3022682Y-712436D01*
X3022682Y-712436D02*
X3032206Y-721960D01*
X3032206Y-721960D02*
X3051253Y-731484D01*
X3051253Y-731484D02*
X3089348Y-731484D01*
X3089348Y-731484D02*
X3108396Y-721960D01*
X3108396Y-721960D02*
X3117920Y-712436D01*
X3117920Y-712436D02*
X3127444Y-693389D01*
X3127444Y-693389D02*
X3127444Y-655293D01*
X3127444Y-655293D02*
X3117920Y-636246D01*
X3117920Y-636246D02*
X3108396Y-626722D01*
X3108396Y-626722D02*
X3089348Y-617198D01*
X3203634Y-531484D02*
X3203634Y-569579D01*
X3279825Y-531484D02*
X3279825Y-569579D01*
X3575063Y-807674D02*
X3565539Y-798150D01*
X3565539Y-798150D02*
X3546491Y-769579D01*
X3546491Y-769579D02*
X3536968Y-750531D01*
X3536968Y-750531D02*
X3527444Y-721960D01*
X3527444Y-721960D02*
X3517920Y-674341D01*
X3517920Y-674341D02*
X3517920Y-636246D01*
X3517920Y-636246D02*
X3527444Y-588627D01*
X3527444Y-588627D02*
X3536968Y-560055D01*
X3536968Y-560055D02*
X3546491Y-541008D01*
X3546491Y-541008D02*
X3565539Y-512436D01*
X3565539Y-512436D02*
X3575063Y-502912D01*
X3632206Y-531484D02*
X3765539Y-531484D01*
X3765539Y-531484D02*
X3679825Y-731484D01*
X3936968Y-531484D02*
X3841729Y-531484D01*
X3841729Y-531484D02*
X3832206Y-626722D01*
X3832206Y-626722D02*
X3841729Y-617198D01*
X3841729Y-617198D02*
X3860777Y-607674D01*
X3860777Y-607674D02*
X3908396Y-607674D01*
X3908396Y-607674D02*
X3927444Y-617198D01*
X3927444Y-617198D02*
X3936968Y-626722D01*
X3936968Y-626722D02*
X3946491Y-645770D01*
X3946491Y-645770D02*
X3946491Y-693389D01*
X3946491Y-693389D02*
X3936968Y-712436D01*
X3936968Y-712436D02*
X3927444Y-721960D01*
X3927444Y-721960D02*
X3908396Y-731484D01*
X3908396Y-731484D02*
X3860777Y-731484D01*
X3860777Y-731484D02*
X3841729Y-721960D01*
X3841729Y-721960D02*
X3832206Y-712436D01*
X4184587Y-731484D02*
X4184587Y-531484D01*
X4270301Y-731484D02*
X4270301Y-626722D01*
X4270301Y-626722D02*
X4260777Y-607674D01*
X4260777Y-607674D02*
X4241730Y-598150D01*
X4241730Y-598150D02*
X4213158Y-598150D01*
X4213158Y-598150D02*
X4194110Y-607674D01*
X4194110Y-607674D02*
X4184587Y-617198D01*
X4394111Y-731484D02*
X4375063Y-721960D01*
X4375063Y-721960D02*
X4365539Y-712436D01*
X4365539Y-712436D02*
X4356015Y-693389D01*
X4356015Y-693389D02*
X4356015Y-636246D01*
X4356015Y-636246D02*
X4365539Y-617198D01*
X4365539Y-617198D02*
X4375063Y-607674D01*
X4375063Y-607674D02*
X4394111Y-598150D01*
X4394111Y-598150D02*
X4422682Y-598150D01*
X4422682Y-598150D02*
X4441730Y-607674D01*
X4441730Y-607674D02*
X4451253Y-617198D01*
X4451253Y-617198D02*
X4460777Y-636246D01*
X4460777Y-636246D02*
X4460777Y-693389D01*
X4460777Y-693389D02*
X4451253Y-712436D01*
X4451253Y-712436D02*
X4441730Y-721960D01*
X4441730Y-721960D02*
X4422682Y-731484D01*
X4422682Y-731484D02*
X4394111Y-731484D01*
X4575063Y-731484D02*
X4556015Y-721960D01*
X4556015Y-721960D02*
X4546492Y-702912D01*
X4546492Y-702912D02*
X4546492Y-531484D01*
X4727444Y-721960D02*
X4708396Y-731484D01*
X4708396Y-731484D02*
X4670301Y-731484D01*
X4670301Y-731484D02*
X4651253Y-721960D01*
X4651253Y-721960D02*
X4641730Y-702912D01*
X4641730Y-702912D02*
X4641730Y-626722D01*
X4641730Y-626722D02*
X4651253Y-607674D01*
X4651253Y-607674D02*
X4670301Y-598150D01*
X4670301Y-598150D02*
X4708396Y-598150D01*
X4708396Y-598150D02*
X4727444Y-607674D01*
X4727444Y-607674D02*
X4736968Y-626722D01*
X4736968Y-626722D02*
X4736968Y-645770D01*
X4736968Y-645770D02*
X4641730Y-664817D01*
X4813158Y-721960D02*
X4832206Y-731484D01*
X4832206Y-731484D02*
X4870301Y-731484D01*
X4870301Y-731484D02*
X4889349Y-721960D01*
X4889349Y-721960D02*
X4898873Y-702912D01*
X4898873Y-702912D02*
X4898873Y-693389D01*
X4898873Y-693389D02*
X4889349Y-674341D01*
X4889349Y-674341D02*
X4870301Y-664817D01*
X4870301Y-664817D02*
X4841730Y-664817D01*
X4841730Y-664817D02*
X4822682Y-655293D01*
X4822682Y-655293D02*
X4813158Y-636246D01*
X4813158Y-636246D02*
X4813158Y-626722D01*
X4813158Y-626722D02*
X4822682Y-607674D01*
X4822682Y-607674D02*
X4841730Y-598150D01*
X4841730Y-598150D02*
X4870301Y-598150D01*
X4870301Y-598150D02*
X4889349Y-607674D01*
X4965539Y-807674D02*
X4975063Y-798150D01*
X4975063Y-798150D02*
X4994111Y-769579D01*
X4994111Y-769579D02*
X5003634Y-750531D01*
X5003634Y-750531D02*
X5013158Y-721960D01*
X5013158Y-721960D02*
X5022682Y-674341D01*
X5022682Y-674341D02*
X5022682Y-636246D01*
X5022682Y-636246D02*
X5013158Y-588627D01*
X5013158Y-588627D02*
X5003634Y-560055D01*
X5003634Y-560055D02*
X4994111Y-541008D01*
X4994111Y-541008D02*
X4975063Y-512436D01*
X4975063Y-512436D02*
X4965539Y-502912D01*
D11*
X0Y-904000D02*
G75*
G02*
X-80000Y-904000I-40000J0D01*
G01*
X-80000Y-904000D02*
G75*
G02*
X0Y-904000I40000J0D01*
G01*
D10*
X298872Y-795484D02*
X317920Y-795484D01*
X317920Y-795484D02*
X336967Y-805008D01*
X336967Y-805008D02*
X346491Y-814531D01*
X346491Y-814531D02*
X356015Y-833579D01*
X356015Y-833579D02*
X365539Y-871674D01*
X365539Y-871674D02*
X365539Y-919293D01*
X365539Y-919293D02*
X356015Y-957388D01*
X356015Y-957388D02*
X346491Y-976436D01*
X346491Y-976436D02*
X336967Y-985960D01*
X336967Y-985960D02*
X317920Y-995484D01*
X317920Y-995484D02*
X298872Y-995484D01*
X298872Y-995484D02*
X279824Y-985960D01*
X279824Y-985960D02*
X270301Y-976436D01*
X270301Y-976436D02*
X260777Y-957388D01*
X260777Y-957388D02*
X251253Y-919293D01*
X251253Y-919293D02*
X251253Y-871674D01*
X251253Y-871674D02*
X260777Y-833579D01*
X260777Y-833579D02*
X270301Y-814531D01*
X270301Y-814531D02*
X279824Y-805008D01*
X279824Y-805008D02*
X298872Y-795484D01*
X451253Y-976436D02*
X460777Y-985960D01*
X460777Y-985960D02*
X451253Y-995484D01*
X451253Y-995484D02*
X441729Y-985960D01*
X441729Y-985960D02*
X451253Y-976436D01*
X451253Y-976436D02*
X451253Y-995484D01*
X575063Y-881198D02*
X556015Y-871674D01*
X556015Y-871674D02*
X546491Y-862150D01*
X546491Y-862150D02*
X536967Y-843103D01*
X536967Y-843103D02*
X536967Y-833579D01*
X536967Y-833579D02*
X546491Y-814531D01*
X546491Y-814531D02*
X556015Y-805008D01*
X556015Y-805008D02*
X575063Y-795484D01*
X575063Y-795484D02*
X613158Y-795484D01*
X613158Y-795484D02*
X632205Y-805008D01*
X632205Y-805008D02*
X641729Y-814531D01*
X641729Y-814531D02*
X651253Y-833579D01*
X651253Y-833579D02*
X651253Y-843103D01*
X651253Y-843103D02*
X641729Y-862150D01*
X641729Y-862150D02*
X632205Y-871674D01*
X632205Y-871674D02*
X613158Y-881198D01*
X613158Y-881198D02*
X575063Y-881198D01*
X575063Y-881198D02*
X556015Y-890722D01*
X556015Y-890722D02*
X546491Y-900246D01*
X546491Y-900246D02*
X536967Y-919293D01*
X536967Y-919293D02*
X536967Y-957388D01*
X536967Y-957388D02*
X546491Y-976436D01*
X546491Y-976436D02*
X556015Y-985960D01*
X556015Y-985960D02*
X575063Y-995484D01*
X575063Y-995484D02*
X613158Y-995484D01*
X613158Y-995484D02*
X632205Y-985960D01*
X632205Y-985960D02*
X641729Y-976436D01*
X641729Y-976436D02*
X651253Y-957388D01*
X651253Y-957388D02*
X651253Y-919293D01*
X651253Y-919293D02*
X641729Y-900246D01*
X641729Y-900246D02*
X632205Y-890722D01*
X632205Y-890722D02*
X613158Y-881198D01*
X775062Y-795484D02*
X794110Y-795484D01*
X794110Y-795484D02*
X813158Y-805008D01*
X813158Y-805008D02*
X822682Y-814531D01*
X822682Y-814531D02*
X832205Y-833579D01*
X832205Y-833579D02*
X841729Y-871674D01*
X841729Y-871674D02*
X841729Y-919293D01*
X841729Y-919293D02*
X832205Y-957388D01*
X832205Y-957388D02*
X822682Y-976436D01*
X822682Y-976436D02*
X813158Y-985960D01*
X813158Y-985960D02*
X794110Y-995484D01*
X794110Y-995484D02*
X775062Y-995484D01*
X775062Y-995484D02*
X756015Y-985960D01*
X756015Y-985960D02*
X746491Y-976436D01*
X746491Y-976436D02*
X736967Y-957388D01*
X736967Y-957388D02*
X727443Y-919293D01*
X727443Y-919293D02*
X727443Y-871674D01*
X727443Y-871674D02*
X736967Y-833579D01*
X736967Y-833579D02*
X746491Y-814531D01*
X746491Y-814531D02*
X756015Y-805008D01*
X756015Y-805008D02*
X775062Y-795484D01*
X965539Y-795484D02*
X984586Y-795484D01*
X984586Y-795484D02*
X1003634Y-805008D01*
X1003634Y-805008D02*
X1013158Y-814531D01*
X1013158Y-814531D02*
X1022682Y-833579D01*
X1022682Y-833579D02*
X1032205Y-871674D01*
X1032205Y-871674D02*
X1032205Y-919293D01*
X1032205Y-919293D02*
X1022682Y-957388D01*
X1022682Y-957388D02*
X1013158Y-976436D01*
X1013158Y-976436D02*
X1003634Y-985960D01*
X1003634Y-985960D02*
X984586Y-995484D01*
X984586Y-995484D02*
X965539Y-995484D01*
X965539Y-995484D02*
X946491Y-985960D01*
X946491Y-985960D02*
X936967Y-976436D01*
X936967Y-976436D02*
X927443Y-957388D01*
X927443Y-957388D02*
X917920Y-919293D01*
X917920Y-919293D02*
X917920Y-871674D01*
X917920Y-871674D02*
X927443Y-833579D01*
X927443Y-833579D02*
X936967Y-814531D01*
X936967Y-814531D02*
X946491Y-805008D01*
X946491Y-805008D02*
X965539Y-795484D01*
X1117920Y-995484D02*
X1117920Y-862150D01*
X1117920Y-881198D02*
X1127444Y-871674D01*
X1127444Y-871674D02*
X1146491Y-862150D01*
X1146491Y-862150D02*
X1175063Y-862150D01*
X1175063Y-862150D02*
X1194110Y-871674D01*
X1194110Y-871674D02*
X1203634Y-890722D01*
X1203634Y-890722D02*
X1203634Y-995484D01*
X1203634Y-890722D02*
X1213158Y-871674D01*
X1213158Y-871674D02*
X1232205Y-862150D01*
X1232205Y-862150D02*
X1260777Y-862150D01*
X1260777Y-862150D02*
X1279825Y-871674D01*
X1279825Y-871674D02*
X1289348Y-890722D01*
X1289348Y-890722D02*
X1289348Y-995484D01*
X1384586Y-995484D02*
X1384586Y-862150D01*
X1384586Y-881198D02*
X1394110Y-871674D01*
X1394110Y-871674D02*
X1413158Y-862150D01*
X1413158Y-862150D02*
X1441729Y-862150D01*
X1441729Y-862150D02*
X1460777Y-871674D01*
X1460777Y-871674D02*
X1470301Y-890722D01*
X1470301Y-890722D02*
X1470301Y-995484D01*
X1470301Y-890722D02*
X1479824Y-871674D01*
X1479824Y-871674D02*
X1498872Y-862150D01*
X1498872Y-862150D02*
X1527443Y-862150D01*
X1527443Y-862150D02*
X1546491Y-871674D01*
X1546491Y-871674D02*
X1556015Y-890722D01*
X1556015Y-890722D02*
X1556015Y-995484D01*
X1946491Y-785960D02*
X1775063Y-1043103D01*
X2203634Y-795484D02*
X2222682Y-795484D01*
X2222682Y-795484D02*
X2241729Y-805008D01*
X2241729Y-805008D02*
X2251253Y-814531D01*
X2251253Y-814531D02*
X2260777Y-833579D01*
X2260777Y-833579D02*
X2270301Y-871674D01*
X2270301Y-871674D02*
X2270301Y-919293D01*
X2270301Y-919293D02*
X2260777Y-957388D01*
X2260777Y-957388D02*
X2251253Y-976436D01*
X2251253Y-976436D02*
X2241729Y-985960D01*
X2241729Y-985960D02*
X2222682Y-995484D01*
X2222682Y-995484D02*
X2203634Y-995484D01*
X2203634Y-995484D02*
X2184587Y-985960D01*
X2184587Y-985960D02*
X2175063Y-976436D01*
X2175063Y-976436D02*
X2165539Y-957388D01*
X2165539Y-957388D02*
X2156015Y-919293D01*
X2156015Y-919293D02*
X2156015Y-871674D01*
X2156015Y-871674D02*
X2165539Y-833579D01*
X2165539Y-833579D02*
X2175063Y-814531D01*
X2175063Y-814531D02*
X2184587Y-805008D01*
X2184587Y-805008D02*
X2203634Y-795484D01*
X2356015Y-976436D02*
X2365539Y-985960D01*
X2365539Y-985960D02*
X2356015Y-995484D01*
X2356015Y-995484D02*
X2346491Y-985960D01*
X2346491Y-985960D02*
X2356015Y-976436D01*
X2356015Y-976436D02*
X2356015Y-995484D01*
X2489348Y-795484D02*
X2508396Y-795484D01*
X2508396Y-795484D02*
X2527444Y-805008D01*
X2527444Y-805008D02*
X2536968Y-814531D01*
X2536968Y-814531D02*
X2546491Y-833579D01*
X2546491Y-833579D02*
X2556015Y-871674D01*
X2556015Y-871674D02*
X2556015Y-919293D01*
X2556015Y-919293D02*
X2546491Y-957388D01*
X2546491Y-957388D02*
X2536968Y-976436D01*
X2536968Y-976436D02*
X2527444Y-985960D01*
X2527444Y-985960D02*
X2508396Y-995484D01*
X2508396Y-995484D02*
X2489348Y-995484D01*
X2489348Y-995484D02*
X2470301Y-985960D01*
X2470301Y-985960D02*
X2460777Y-976436D01*
X2460777Y-976436D02*
X2451253Y-957388D01*
X2451253Y-957388D02*
X2441729Y-919293D01*
X2441729Y-919293D02*
X2441729Y-871674D01*
X2441729Y-871674D02*
X2451253Y-833579D01*
X2451253Y-833579D02*
X2460777Y-814531D01*
X2460777Y-814531D02*
X2470301Y-805008D01*
X2470301Y-805008D02*
X2489348Y-795484D01*
X2622682Y-795484D02*
X2746491Y-795484D01*
X2746491Y-795484D02*
X2679825Y-871674D01*
X2679825Y-871674D02*
X2708396Y-871674D01*
X2708396Y-871674D02*
X2727444Y-881198D01*
X2727444Y-881198D02*
X2736968Y-890722D01*
X2736968Y-890722D02*
X2746491Y-909769D01*
X2746491Y-909769D02*
X2746491Y-957388D01*
X2746491Y-957388D02*
X2736968Y-976436D01*
X2736968Y-976436D02*
X2727444Y-985960D01*
X2727444Y-985960D02*
X2708396Y-995484D01*
X2708396Y-995484D02*
X2651253Y-995484D01*
X2651253Y-995484D02*
X2632206Y-985960D01*
X2632206Y-985960D02*
X2622682Y-976436D01*
X2936967Y-995484D02*
X2822682Y-995484D01*
X2879825Y-995484D02*
X2879825Y-795484D01*
X2879825Y-795484D02*
X2860777Y-824055D01*
X2860777Y-824055D02*
X2841729Y-843103D01*
X2841729Y-843103D02*
X2822682Y-852627D01*
X3117920Y-795484D02*
X3022682Y-795484D01*
X3022682Y-795484D02*
X3013158Y-890722D01*
X3013158Y-890722D02*
X3022682Y-881198D01*
X3022682Y-881198D02*
X3041729Y-871674D01*
X3041729Y-871674D02*
X3089348Y-871674D01*
X3089348Y-871674D02*
X3108396Y-881198D01*
X3108396Y-881198D02*
X3117920Y-890722D01*
X3117920Y-890722D02*
X3127444Y-909769D01*
X3127444Y-909769D02*
X3127444Y-957388D01*
X3127444Y-957388D02*
X3117920Y-976436D01*
X3117920Y-976436D02*
X3108396Y-985960D01*
X3108396Y-985960D02*
X3089348Y-995484D01*
X3089348Y-995484D02*
X3041729Y-995484D01*
X3041729Y-995484D02*
X3022682Y-985960D01*
X3022682Y-985960D02*
X3013158Y-976436D01*
X3203634Y-795484D02*
X3203634Y-833579D01*
X3279825Y-795484D02*
X3279825Y-833579D01*
X3575063Y-1071674D02*
X3565539Y-1062150D01*
X3565539Y-1062150D02*
X3546491Y-1033579D01*
X3546491Y-1033579D02*
X3536968Y-1014531D01*
X3536968Y-1014531D02*
X3527444Y-985960D01*
X3527444Y-985960D02*
X3517920Y-938341D01*
X3517920Y-938341D02*
X3517920Y-900246D01*
X3517920Y-900246D02*
X3527444Y-852627D01*
X3527444Y-852627D02*
X3536968Y-824055D01*
X3536968Y-824055D02*
X3546491Y-805008D01*
X3546491Y-805008D02*
X3565539Y-776436D01*
X3565539Y-776436D02*
X3575063Y-766912D01*
X3679825Y-881198D02*
X3660777Y-871674D01*
X3660777Y-871674D02*
X3651253Y-862150D01*
X3651253Y-862150D02*
X3641729Y-843103D01*
X3641729Y-843103D02*
X3641729Y-833579D01*
X3641729Y-833579D02*
X3651253Y-814531D01*
X3651253Y-814531D02*
X3660777Y-805008D01*
X3660777Y-805008D02*
X3679825Y-795484D01*
X3679825Y-795484D02*
X3717920Y-795484D01*
X3717920Y-795484D02*
X3736968Y-805008D01*
X3736968Y-805008D02*
X3746491Y-814531D01*
X3746491Y-814531D02*
X3756015Y-833579D01*
X3756015Y-833579D02*
X3756015Y-843103D01*
X3756015Y-843103D02*
X3746491Y-862150D01*
X3746491Y-862150D02*
X3736968Y-871674D01*
X3736968Y-871674D02*
X3717920Y-881198D01*
X3717920Y-881198D02*
X3679825Y-881198D01*
X3679825Y-881198D02*
X3660777Y-890722D01*
X3660777Y-890722D02*
X3651253Y-900246D01*
X3651253Y-900246D02*
X3641729Y-919293D01*
X3641729Y-919293D02*
X3641729Y-957388D01*
X3641729Y-957388D02*
X3651253Y-976436D01*
X3651253Y-976436D02*
X3660777Y-985960D01*
X3660777Y-985960D02*
X3679825Y-995484D01*
X3679825Y-995484D02*
X3717920Y-995484D01*
X3717920Y-995484D02*
X3736968Y-985960D01*
X3736968Y-985960D02*
X3746491Y-976436D01*
X3746491Y-976436D02*
X3756015Y-957388D01*
X3756015Y-957388D02*
X3756015Y-919293D01*
X3756015Y-919293D02*
X3746491Y-900246D01*
X3746491Y-900246D02*
X3736968Y-890722D01*
X3736968Y-890722D02*
X3717920Y-881198D01*
X3994110Y-995484D02*
X3994110Y-795484D01*
X4079825Y-995484D02*
X4079825Y-890722D01*
X4079825Y-890722D02*
X4070301Y-871674D01*
X4070301Y-871674D02*
X4051253Y-862150D01*
X4051253Y-862150D02*
X4022682Y-862150D01*
X4022682Y-862150D02*
X4003634Y-871674D01*
X4003634Y-871674D02*
X3994110Y-881198D01*
X4203634Y-995484D02*
X4184587Y-985960D01*
X4184587Y-985960D02*
X4175063Y-976436D01*
X4175063Y-976436D02*
X4165539Y-957388D01*
X4165539Y-957388D02*
X4165539Y-900246D01*
X4165539Y-900246D02*
X4175063Y-881198D01*
X4175063Y-881198D02*
X4184587Y-871674D01*
X4184587Y-871674D02*
X4203634Y-862150D01*
X4203634Y-862150D02*
X4232206Y-862150D01*
X4232206Y-862150D02*
X4251253Y-871674D01*
X4251253Y-871674D02*
X4260777Y-881198D01*
X4260777Y-881198D02*
X4270301Y-900246D01*
X4270301Y-900246D02*
X4270301Y-957388D01*
X4270301Y-957388D02*
X4260777Y-976436D01*
X4260777Y-976436D02*
X4251253Y-985960D01*
X4251253Y-985960D02*
X4232206Y-995484D01*
X4232206Y-995484D02*
X4203634Y-995484D01*
X4384587Y-995484D02*
X4365539Y-985960D01*
X4365539Y-985960D02*
X4356015Y-966912D01*
X4356015Y-966912D02*
X4356015Y-795484D01*
X4536968Y-985960D02*
X4517920Y-995484D01*
X4517920Y-995484D02*
X4479825Y-995484D01*
X4479825Y-995484D02*
X4460777Y-985960D01*
X4460777Y-985960D02*
X4451253Y-966912D01*
X4451253Y-966912D02*
X4451253Y-890722D01*
X4451253Y-890722D02*
X4460777Y-871674D01*
X4460777Y-871674D02*
X4479825Y-862150D01*
X4479825Y-862150D02*
X4517920Y-862150D01*
X4517920Y-862150D02*
X4536968Y-871674D01*
X4536968Y-871674D02*
X4546492Y-890722D01*
X4546492Y-890722D02*
X4546492Y-909769D01*
X4546492Y-909769D02*
X4451253Y-928817D01*
X4622682Y-985960D02*
X4641730Y-995484D01*
X4641730Y-995484D02*
X4679825Y-995484D01*
X4679825Y-995484D02*
X4698873Y-985960D01*
X4698873Y-985960D02*
X4708396Y-966912D01*
X4708396Y-966912D02*
X4708396Y-957388D01*
X4708396Y-957388D02*
X4698873Y-938341D01*
X4698873Y-938341D02*
X4679825Y-928817D01*
X4679825Y-928817D02*
X4651253Y-928817D01*
X4651253Y-928817D02*
X4632206Y-919293D01*
X4632206Y-919293D02*
X4622682Y-900246D01*
X4622682Y-900246D02*
X4622682Y-890722D01*
X4622682Y-890722D02*
X4632206Y-871674D01*
X4632206Y-871674D02*
X4651253Y-862150D01*
X4651253Y-862150D02*
X4679825Y-862150D01*
X4679825Y-862150D02*
X4698873Y-871674D01*
X4775063Y-1071674D02*
X4784587Y-1062150D01*
X4784587Y-1062150D02*
X4803634Y-1033579D01*
X4803634Y-1033579D02*
X4813158Y-1014531D01*
X4813158Y-1014531D02*
X4822682Y-985960D01*
X4822682Y-985960D02*
X4832206Y-938341D01*
X4832206Y-938341D02*
X4832206Y-900246D01*
X4832206Y-900246D02*
X4822682Y-852627D01*
X4822682Y-852627D02*
X4813158Y-824055D01*
X4813158Y-824055D02*
X4803634Y-805008D01*
X4803634Y-805008D02*
X4784587Y-776436D01*
X4784587Y-776436D02*
X4775063Y-766912D01*
D11*
X-50000Y-1118000D02*
X-50000Y-1218000D01*
X-100000Y-1168000D02*
X0Y-1168000D01*
D10*
X365539Y-1259484D02*
X251253Y-1259484D01*
X308396Y-1259484D02*
X308396Y-1059484D01*
X308396Y-1059484D02*
X289348Y-1088055D01*
X289348Y-1088055D02*
X270301Y-1107103D01*
X270301Y-1107103D02*
X251253Y-1116627D01*
X451253Y-1240436D02*
X460777Y-1249960D01*
X460777Y-1249960D02*
X451253Y-1259484D01*
X451253Y-1259484D02*
X441729Y-1249960D01*
X441729Y-1249960D02*
X451253Y-1240436D01*
X451253Y-1240436D02*
X451253Y-1259484D01*
X584586Y-1059484D02*
X603634Y-1059484D01*
X603634Y-1059484D02*
X622682Y-1069008D01*
X622682Y-1069008D02*
X632205Y-1078531D01*
X632205Y-1078531D02*
X641729Y-1097579D01*
X641729Y-1097579D02*
X651253Y-1135674D01*
X651253Y-1135674D02*
X651253Y-1183293D01*
X651253Y-1183293D02*
X641729Y-1221389D01*
X641729Y-1221389D02*
X632205Y-1240436D01*
X632205Y-1240436D02*
X622682Y-1249960D01*
X622682Y-1249960D02*
X603634Y-1259484D01*
X603634Y-1259484D02*
X584586Y-1259484D01*
X584586Y-1259484D02*
X565539Y-1249960D01*
X565539Y-1249960D02*
X556015Y-1240436D01*
X556015Y-1240436D02*
X546491Y-1221389D01*
X546491Y-1221389D02*
X536967Y-1183293D01*
X536967Y-1183293D02*
X536967Y-1135674D01*
X536967Y-1135674D02*
X546491Y-1097579D01*
X546491Y-1097579D02*
X556015Y-1078531D01*
X556015Y-1078531D02*
X565539Y-1069008D01*
X565539Y-1069008D02*
X584586Y-1059484D01*
X775062Y-1059484D02*
X794110Y-1059484D01*
X794110Y-1059484D02*
X813158Y-1069008D01*
X813158Y-1069008D02*
X822682Y-1078531D01*
X822682Y-1078531D02*
X832205Y-1097579D01*
X832205Y-1097579D02*
X841729Y-1135674D01*
X841729Y-1135674D02*
X841729Y-1183293D01*
X841729Y-1183293D02*
X832205Y-1221389D01*
X832205Y-1221389D02*
X822682Y-1240436D01*
X822682Y-1240436D02*
X813158Y-1249960D01*
X813158Y-1249960D02*
X794110Y-1259484D01*
X794110Y-1259484D02*
X775062Y-1259484D01*
X775062Y-1259484D02*
X756015Y-1249960D01*
X756015Y-1249960D02*
X746491Y-1240436D01*
X746491Y-1240436D02*
X736967Y-1221389D01*
X736967Y-1221389D02*
X727443Y-1183293D01*
X727443Y-1183293D02*
X727443Y-1135674D01*
X727443Y-1135674D02*
X736967Y-1097579D01*
X736967Y-1097579D02*
X746491Y-1078531D01*
X746491Y-1078531D02*
X756015Y-1069008D01*
X756015Y-1069008D02*
X775062Y-1059484D01*
X965539Y-1059484D02*
X984586Y-1059484D01*
X984586Y-1059484D02*
X1003634Y-1069008D01*
X1003634Y-1069008D02*
X1013158Y-1078531D01*
X1013158Y-1078531D02*
X1022682Y-1097579D01*
X1022682Y-1097579D02*
X1032205Y-1135674D01*
X1032205Y-1135674D02*
X1032205Y-1183293D01*
X1032205Y-1183293D02*
X1022682Y-1221389D01*
X1022682Y-1221389D02*
X1013158Y-1240436D01*
X1013158Y-1240436D02*
X1003634Y-1249960D01*
X1003634Y-1249960D02*
X984586Y-1259484D01*
X984586Y-1259484D02*
X965539Y-1259484D01*
X965539Y-1259484D02*
X946491Y-1249960D01*
X946491Y-1249960D02*
X936967Y-1240436D01*
X936967Y-1240436D02*
X927443Y-1221389D01*
X927443Y-1221389D02*
X917920Y-1183293D01*
X917920Y-1183293D02*
X917920Y-1135674D01*
X917920Y-1135674D02*
X927443Y-1097579D01*
X927443Y-1097579D02*
X936967Y-1078531D01*
X936967Y-1078531D02*
X946491Y-1069008D01*
X946491Y-1069008D02*
X965539Y-1059484D01*
X1117920Y-1259484D02*
X1117920Y-1126150D01*
X1117920Y-1145198D02*
X1127444Y-1135674D01*
X1127444Y-1135674D02*
X1146491Y-1126150D01*
X1146491Y-1126150D02*
X1175063Y-1126150D01*
X1175063Y-1126150D02*
X1194110Y-1135674D01*
X1194110Y-1135674D02*
X1203634Y-1154722D01*
X1203634Y-1154722D02*
X1203634Y-1259484D01*
X1203634Y-1154722D02*
X1213158Y-1135674D01*
X1213158Y-1135674D02*
X1232205Y-1126150D01*
X1232205Y-1126150D02*
X1260777Y-1126150D01*
X1260777Y-1126150D02*
X1279825Y-1135674D01*
X1279825Y-1135674D02*
X1289348Y-1154722D01*
X1289348Y-1154722D02*
X1289348Y-1259484D01*
X1384586Y-1259484D02*
X1384586Y-1126150D01*
X1384586Y-1145198D02*
X1394110Y-1135674D01*
X1394110Y-1135674D02*
X1413158Y-1126150D01*
X1413158Y-1126150D02*
X1441729Y-1126150D01*
X1441729Y-1126150D02*
X1460777Y-1135674D01*
X1460777Y-1135674D02*
X1470301Y-1154722D01*
X1470301Y-1154722D02*
X1470301Y-1259484D01*
X1470301Y-1154722D02*
X1479824Y-1135674D01*
X1479824Y-1135674D02*
X1498872Y-1126150D01*
X1498872Y-1126150D02*
X1527443Y-1126150D01*
X1527443Y-1126150D02*
X1546491Y-1135674D01*
X1546491Y-1135674D02*
X1556015Y-1154722D01*
X1556015Y-1154722D02*
X1556015Y-1259484D01*
X1946491Y-1049960D02*
X1775063Y-1307103D01*
X2203634Y-1059484D02*
X2222682Y-1059484D01*
X2222682Y-1059484D02*
X2241729Y-1069008D01*
X2241729Y-1069008D02*
X2251253Y-1078531D01*
X2251253Y-1078531D02*
X2260777Y-1097579D01*
X2260777Y-1097579D02*
X2270301Y-1135674D01*
X2270301Y-1135674D02*
X2270301Y-1183293D01*
X2270301Y-1183293D02*
X2260777Y-1221389D01*
X2260777Y-1221389D02*
X2251253Y-1240436D01*
X2251253Y-1240436D02*
X2241729Y-1249960D01*
X2241729Y-1249960D02*
X2222682Y-1259484D01*
X2222682Y-1259484D02*
X2203634Y-1259484D01*
X2203634Y-1259484D02*
X2184587Y-1249960D01*
X2184587Y-1249960D02*
X2175063Y-1240436D01*
X2175063Y-1240436D02*
X2165539Y-1221389D01*
X2165539Y-1221389D02*
X2156015Y-1183293D01*
X2156015Y-1183293D02*
X2156015Y-1135674D01*
X2156015Y-1135674D02*
X2165539Y-1097579D01*
X2165539Y-1097579D02*
X2175063Y-1078531D01*
X2175063Y-1078531D02*
X2184587Y-1069008D01*
X2184587Y-1069008D02*
X2203634Y-1059484D01*
X2356015Y-1240436D02*
X2365539Y-1249960D01*
X2365539Y-1249960D02*
X2356015Y-1259484D01*
X2356015Y-1259484D02*
X2346491Y-1249960D01*
X2346491Y-1249960D02*
X2356015Y-1240436D01*
X2356015Y-1240436D02*
X2356015Y-1259484D01*
X2489348Y-1059484D02*
X2508396Y-1059484D01*
X2508396Y-1059484D02*
X2527444Y-1069008D01*
X2527444Y-1069008D02*
X2536968Y-1078531D01*
X2536968Y-1078531D02*
X2546491Y-1097579D01*
X2546491Y-1097579D02*
X2556015Y-1135674D01*
X2556015Y-1135674D02*
X2556015Y-1183293D01*
X2556015Y-1183293D02*
X2546491Y-1221389D01*
X2546491Y-1221389D02*
X2536968Y-1240436D01*
X2536968Y-1240436D02*
X2527444Y-1249960D01*
X2527444Y-1249960D02*
X2508396Y-1259484D01*
X2508396Y-1259484D02*
X2489348Y-1259484D01*
X2489348Y-1259484D02*
X2470301Y-1249960D01*
X2470301Y-1249960D02*
X2460777Y-1240436D01*
X2460777Y-1240436D02*
X2451253Y-1221389D01*
X2451253Y-1221389D02*
X2441729Y-1183293D01*
X2441729Y-1183293D02*
X2441729Y-1135674D01*
X2441729Y-1135674D02*
X2451253Y-1097579D01*
X2451253Y-1097579D02*
X2460777Y-1078531D01*
X2460777Y-1078531D02*
X2470301Y-1069008D01*
X2470301Y-1069008D02*
X2489348Y-1059484D01*
X2622682Y-1059484D02*
X2746491Y-1059484D01*
X2746491Y-1059484D02*
X2679825Y-1135674D01*
X2679825Y-1135674D02*
X2708396Y-1135674D01*
X2708396Y-1135674D02*
X2727444Y-1145198D01*
X2727444Y-1145198D02*
X2736968Y-1154722D01*
X2736968Y-1154722D02*
X2746491Y-1173770D01*
X2746491Y-1173770D02*
X2746491Y-1221389D01*
X2746491Y-1221389D02*
X2736968Y-1240436D01*
X2736968Y-1240436D02*
X2727444Y-1249960D01*
X2727444Y-1249960D02*
X2708396Y-1259484D01*
X2708396Y-1259484D02*
X2651253Y-1259484D01*
X2651253Y-1259484D02*
X2632206Y-1249960D01*
X2632206Y-1249960D02*
X2622682Y-1240436D01*
X2841729Y-1259484D02*
X2879825Y-1259484D01*
X2879825Y-1259484D02*
X2898872Y-1249960D01*
X2898872Y-1249960D02*
X2908396Y-1240436D01*
X2908396Y-1240436D02*
X2927444Y-1211865D01*
X2927444Y-1211865D02*
X2936967Y-1173770D01*
X2936967Y-1173770D02*
X2936967Y-1097579D01*
X2936967Y-1097579D02*
X2927444Y-1078531D01*
X2927444Y-1078531D02*
X2917920Y-1069008D01*
X2917920Y-1069008D02*
X2898872Y-1059484D01*
X2898872Y-1059484D02*
X2860777Y-1059484D01*
X2860777Y-1059484D02*
X2841729Y-1069008D01*
X2841729Y-1069008D02*
X2832206Y-1078531D01*
X2832206Y-1078531D02*
X2822682Y-1097579D01*
X2822682Y-1097579D02*
X2822682Y-1145198D01*
X2822682Y-1145198D02*
X2832206Y-1164246D01*
X2832206Y-1164246D02*
X2841729Y-1173770D01*
X2841729Y-1173770D02*
X2860777Y-1183293D01*
X2860777Y-1183293D02*
X2898872Y-1183293D01*
X2898872Y-1183293D02*
X2917920Y-1173770D01*
X2917920Y-1173770D02*
X2927444Y-1164246D01*
X2927444Y-1164246D02*
X2936967Y-1145198D01*
X3108396Y-1126150D02*
X3108396Y-1259484D01*
X3060777Y-1049960D02*
X3013158Y-1192817D01*
X3013158Y-1192817D02*
X3136967Y-1192817D01*
X3203634Y-1059484D02*
X3203634Y-1097579D01*
X3279825Y-1059484D02*
X3279825Y-1097579D01*
X3575063Y-1335674D02*
X3565539Y-1326150D01*
X3565539Y-1326150D02*
X3546491Y-1297579D01*
X3546491Y-1297579D02*
X3536968Y-1278531D01*
X3536968Y-1278531D02*
X3527444Y-1249960D01*
X3527444Y-1249960D02*
X3517920Y-1202341D01*
X3517920Y-1202341D02*
X3517920Y-1164246D01*
X3517920Y-1164246D02*
X3527444Y-1116627D01*
X3527444Y-1116627D02*
X3536968Y-1088055D01*
X3536968Y-1088055D02*
X3546491Y-1069008D01*
X3546491Y-1069008D02*
X3565539Y-1040436D01*
X3565539Y-1040436D02*
X3575063Y-1030912D01*
X3736968Y-1126150D02*
X3736968Y-1259484D01*
X3689348Y-1049960D02*
X3641729Y-1192817D01*
X3641729Y-1192817D02*
X3765539Y-1192817D01*
X3994110Y-1259484D02*
X3994110Y-1059484D01*
X4079825Y-1259484D02*
X4079825Y-1154722D01*
X4079825Y-1154722D02*
X4070301Y-1135674D01*
X4070301Y-1135674D02*
X4051253Y-1126150D01*
X4051253Y-1126150D02*
X4022682Y-1126150D01*
X4022682Y-1126150D02*
X4003634Y-1135674D01*
X4003634Y-1135674D02*
X3994110Y-1145198D01*
X4203634Y-1259484D02*
X4184587Y-1249960D01*
X4184587Y-1249960D02*
X4175063Y-1240436D01*
X4175063Y-1240436D02*
X4165539Y-1221389D01*
X4165539Y-1221389D02*
X4165539Y-1164246D01*
X4165539Y-1164246D02*
X4175063Y-1145198D01*
X4175063Y-1145198D02*
X4184587Y-1135674D01*
X4184587Y-1135674D02*
X4203634Y-1126150D01*
X4203634Y-1126150D02*
X4232206Y-1126150D01*
X4232206Y-1126150D02*
X4251253Y-1135674D01*
X4251253Y-1135674D02*
X4260777Y-1145198D01*
X4260777Y-1145198D02*
X4270301Y-1164246D01*
X4270301Y-1164246D02*
X4270301Y-1221389D01*
X4270301Y-1221389D02*
X4260777Y-1240436D01*
X4260777Y-1240436D02*
X4251253Y-1249960D01*
X4251253Y-1249960D02*
X4232206Y-1259484D01*
X4232206Y-1259484D02*
X4203634Y-1259484D01*
X4384587Y-1259484D02*
X4365539Y-1249960D01*
X4365539Y-1249960D02*
X4356015Y-1230912D01*
X4356015Y-1230912D02*
X4356015Y-1059484D01*
X4536968Y-1249960D02*
X4517920Y-1259484D01*
X4517920Y-1259484D02*
X4479825Y-1259484D01*
X4479825Y-1259484D02*
X4460777Y-1249960D01*
X4460777Y-1249960D02*
X4451253Y-1230912D01*
X4451253Y-1230912D02*
X4451253Y-1154722D01*
X4451253Y-1154722D02*
X4460777Y-1135674D01*
X4460777Y-1135674D02*
X4479825Y-1126150D01*
X4479825Y-1126150D02*
X4517920Y-1126150D01*
X4517920Y-1126150D02*
X4536968Y-1135674D01*
X4536968Y-1135674D02*
X4546492Y-1154722D01*
X4546492Y-1154722D02*
X4546492Y-1173770D01*
X4546492Y-1173770D02*
X4451253Y-1192817D01*
X4622682Y-1249960D02*
X4641730Y-1259484D01*
X4641730Y-1259484D02*
X4679825Y-1259484D01*
X4679825Y-1259484D02*
X4698873Y-1249960D01*
X4698873Y-1249960D02*
X4708396Y-1230912D01*
X4708396Y-1230912D02*
X4708396Y-1221389D01*
X4708396Y-1221389D02*
X4698873Y-1202341D01*
X4698873Y-1202341D02*
X4679825Y-1192817D01*
X4679825Y-1192817D02*
X4651253Y-1192817D01*
X4651253Y-1192817D02*
X4632206Y-1183293D01*
X4632206Y-1183293D02*
X4622682Y-1164246D01*
X4622682Y-1164246D02*
X4622682Y-1154722D01*
X4622682Y-1154722D02*
X4632206Y-1135674D01*
X4632206Y-1135674D02*
X4651253Y-1126150D01*
X4651253Y-1126150D02*
X4679825Y-1126150D01*
X4679825Y-1126150D02*
X4698873Y-1135674D01*
X4775063Y-1335674D02*
X4784587Y-1326150D01*
X4784587Y-1326150D02*
X4803634Y-1297579D01*
X4803634Y-1297579D02*
X4813158Y-1278531D01*
X4813158Y-1278531D02*
X4822682Y-1249960D01*
X4822682Y-1249960D02*
X4832206Y-1202341D01*
X4832206Y-1202341D02*
X4832206Y-1164246D01*
X4832206Y-1164246D02*
X4822682Y-1116627D01*
X4822682Y-1116627D02*
X4813158Y-1088055D01*
X4813158Y-1088055D02*
X4803634Y-1069008D01*
X4803634Y-1069008D02*
X4784587Y-1040436D01*
X4784587Y-1040436D02*
X4775063Y-1030912D01*
D12*
X-14937Y-1468063D02*
X-14937Y-1395937D01*
X-87063Y-1395937D01*
X-87063Y-1468063D01*
X-14937Y-1468063D01*
D10*
X365539Y-1523484D02*
X251253Y-1523484D01*
X308396Y-1523484D02*
X308396Y-1323484D01*
X308396Y-1323484D02*
X289348Y-1352055D01*
X289348Y-1352055D02*
X270301Y-1371103D01*
X270301Y-1371103D02*
X251253Y-1380627D01*
X451253Y-1504436D02*
X460777Y-1513960D01*
X460777Y-1513960D02*
X451253Y-1523484D01*
X451253Y-1523484D02*
X441729Y-1513960D01*
X441729Y-1513960D02*
X451253Y-1504436D01*
X451253Y-1504436D02*
X451253Y-1523484D01*
X584586Y-1323484D02*
X603634Y-1323484D01*
X603634Y-1323484D02*
X622682Y-1333008D01*
X622682Y-1333008D02*
X632205Y-1342531D01*
X632205Y-1342531D02*
X641729Y-1361579D01*
X641729Y-1361579D02*
X651253Y-1399674D01*
X651253Y-1399674D02*
X651253Y-1447293D01*
X651253Y-1447293D02*
X641729Y-1485388D01*
X641729Y-1485388D02*
X632205Y-1504436D01*
X632205Y-1504436D02*
X622682Y-1513960D01*
X622682Y-1513960D02*
X603634Y-1523484D01*
X603634Y-1523484D02*
X584586Y-1523484D01*
X584586Y-1523484D02*
X565539Y-1513960D01*
X565539Y-1513960D02*
X556015Y-1504436D01*
X556015Y-1504436D02*
X546491Y-1485388D01*
X546491Y-1485388D02*
X536967Y-1447293D01*
X536967Y-1447293D02*
X536967Y-1399674D01*
X536967Y-1399674D02*
X546491Y-1361579D01*
X546491Y-1361579D02*
X556015Y-1342531D01*
X556015Y-1342531D02*
X565539Y-1333008D01*
X565539Y-1333008D02*
X584586Y-1323484D01*
X727443Y-1342531D02*
X736967Y-1333008D01*
X736967Y-1333008D02*
X756015Y-1323484D01*
X756015Y-1323484D02*
X803634Y-1323484D01*
X803634Y-1323484D02*
X822682Y-1333008D01*
X822682Y-1333008D02*
X832205Y-1342531D01*
X832205Y-1342531D02*
X841729Y-1361579D01*
X841729Y-1361579D02*
X841729Y-1380627D01*
X841729Y-1380627D02*
X832205Y-1409198D01*
X832205Y-1409198D02*
X717920Y-1523484D01*
X717920Y-1523484D02*
X841729Y-1523484D01*
X965539Y-1323484D02*
X984586Y-1323484D01*
X984586Y-1323484D02*
X1003634Y-1333008D01*
X1003634Y-1333008D02*
X1013158Y-1342531D01*
X1013158Y-1342531D02*
X1022682Y-1361579D01*
X1022682Y-1361579D02*
X1032205Y-1399674D01*
X1032205Y-1399674D02*
X1032205Y-1447293D01*
X1032205Y-1447293D02*
X1022682Y-1485388D01*
X1022682Y-1485388D02*
X1013158Y-1504436D01*
X1013158Y-1504436D02*
X1003634Y-1513960D01*
X1003634Y-1513960D02*
X984586Y-1523484D01*
X984586Y-1523484D02*
X965539Y-1523484D01*
X965539Y-1523484D02*
X946491Y-1513960D01*
X946491Y-1513960D02*
X936967Y-1504436D01*
X936967Y-1504436D02*
X927443Y-1485388D01*
X927443Y-1485388D02*
X917920Y-1447293D01*
X917920Y-1447293D02*
X917920Y-1399674D01*
X917920Y-1399674D02*
X927443Y-1361579D01*
X927443Y-1361579D02*
X936967Y-1342531D01*
X936967Y-1342531D02*
X946491Y-1333008D01*
X946491Y-1333008D02*
X965539Y-1323484D01*
X1117920Y-1523484D02*
X1117920Y-1390150D01*
X1117920Y-1409198D02*
X1127444Y-1399674D01*
X1127444Y-1399674D02*
X1146491Y-1390150D01*
X1146491Y-1390150D02*
X1175063Y-1390150D01*
X1175063Y-1390150D02*
X1194110Y-1399674D01*
X1194110Y-1399674D02*
X1203634Y-1418722D01*
X1203634Y-1418722D02*
X1203634Y-1523484D01*
X1203634Y-1418722D02*
X1213158Y-1399674D01*
X1213158Y-1399674D02*
X1232205Y-1390150D01*
X1232205Y-1390150D02*
X1260777Y-1390150D01*
X1260777Y-1390150D02*
X1279825Y-1399674D01*
X1279825Y-1399674D02*
X1289348Y-1418722D01*
X1289348Y-1418722D02*
X1289348Y-1523484D01*
X1384586Y-1523484D02*
X1384586Y-1390150D01*
X1384586Y-1409198D02*
X1394110Y-1399674D01*
X1394110Y-1399674D02*
X1413158Y-1390150D01*
X1413158Y-1390150D02*
X1441729Y-1390150D01*
X1441729Y-1390150D02*
X1460777Y-1399674D01*
X1460777Y-1399674D02*
X1470301Y-1418722D01*
X1470301Y-1418722D02*
X1470301Y-1523484D01*
X1470301Y-1418722D02*
X1479824Y-1399674D01*
X1479824Y-1399674D02*
X1498872Y-1390150D01*
X1498872Y-1390150D02*
X1527443Y-1390150D01*
X1527443Y-1390150D02*
X1546491Y-1399674D01*
X1546491Y-1399674D02*
X1556015Y-1418722D01*
X1556015Y-1418722D02*
X1556015Y-1523484D01*
X1946491Y-1313960D02*
X1775063Y-1571103D01*
X2203634Y-1323484D02*
X2222682Y-1323484D01*
X2222682Y-1323484D02*
X2241729Y-1333008D01*
X2241729Y-1333008D02*
X2251253Y-1342531D01*
X2251253Y-1342531D02*
X2260777Y-1361579D01*
X2260777Y-1361579D02*
X2270301Y-1399674D01*
X2270301Y-1399674D02*
X2270301Y-1447293D01*
X2270301Y-1447293D02*
X2260777Y-1485388D01*
X2260777Y-1485388D02*
X2251253Y-1504436D01*
X2251253Y-1504436D02*
X2241729Y-1513960D01*
X2241729Y-1513960D02*
X2222682Y-1523484D01*
X2222682Y-1523484D02*
X2203634Y-1523484D01*
X2203634Y-1523484D02*
X2184587Y-1513960D01*
X2184587Y-1513960D02*
X2175063Y-1504436D01*
X2175063Y-1504436D02*
X2165539Y-1485388D01*
X2165539Y-1485388D02*
X2156015Y-1447293D01*
X2156015Y-1447293D02*
X2156015Y-1399674D01*
X2156015Y-1399674D02*
X2165539Y-1361579D01*
X2165539Y-1361579D02*
X2175063Y-1342531D01*
X2175063Y-1342531D02*
X2184587Y-1333008D01*
X2184587Y-1333008D02*
X2203634Y-1323484D01*
X2356015Y-1504436D02*
X2365539Y-1513960D01*
X2365539Y-1513960D02*
X2356015Y-1523484D01*
X2356015Y-1523484D02*
X2346491Y-1513960D01*
X2346491Y-1513960D02*
X2356015Y-1504436D01*
X2356015Y-1504436D02*
X2356015Y-1523484D01*
X2489348Y-1323484D02*
X2508396Y-1323484D01*
X2508396Y-1323484D02*
X2527444Y-1333008D01*
X2527444Y-1333008D02*
X2536968Y-1342531D01*
X2536968Y-1342531D02*
X2546491Y-1361579D01*
X2546491Y-1361579D02*
X2556015Y-1399674D01*
X2556015Y-1399674D02*
X2556015Y-1447293D01*
X2556015Y-1447293D02*
X2546491Y-1485388D01*
X2546491Y-1485388D02*
X2536968Y-1504436D01*
X2536968Y-1504436D02*
X2527444Y-1513960D01*
X2527444Y-1513960D02*
X2508396Y-1523484D01*
X2508396Y-1523484D02*
X2489348Y-1523484D01*
X2489348Y-1523484D02*
X2470301Y-1513960D01*
X2470301Y-1513960D02*
X2460777Y-1504436D01*
X2460777Y-1504436D02*
X2451253Y-1485388D01*
X2451253Y-1485388D02*
X2441729Y-1447293D01*
X2441729Y-1447293D02*
X2441729Y-1399674D01*
X2441729Y-1399674D02*
X2451253Y-1361579D01*
X2451253Y-1361579D02*
X2460777Y-1342531D01*
X2460777Y-1342531D02*
X2470301Y-1333008D01*
X2470301Y-1333008D02*
X2489348Y-1323484D01*
X2727444Y-1390150D02*
X2727444Y-1523484D01*
X2679825Y-1313960D02*
X2632206Y-1456817D01*
X2632206Y-1456817D02*
X2756015Y-1456817D01*
X2870301Y-1323484D02*
X2889348Y-1323484D01*
X2889348Y-1323484D02*
X2908396Y-1333008D01*
X2908396Y-1333008D02*
X2917920Y-1342531D01*
X2917920Y-1342531D02*
X2927444Y-1361579D01*
X2927444Y-1361579D02*
X2936967Y-1399674D01*
X2936967Y-1399674D02*
X2936967Y-1447293D01*
X2936967Y-1447293D02*
X2927444Y-1485388D01*
X2927444Y-1485388D02*
X2917920Y-1504436D01*
X2917920Y-1504436D02*
X2908396Y-1513960D01*
X2908396Y-1513960D02*
X2889348Y-1523484D01*
X2889348Y-1523484D02*
X2870301Y-1523484D01*
X2870301Y-1523484D02*
X2851253Y-1513960D01*
X2851253Y-1513960D02*
X2841729Y-1504436D01*
X2841729Y-1504436D02*
X2832206Y-1485388D01*
X2832206Y-1485388D02*
X2822682Y-1447293D01*
X2822682Y-1447293D02*
X2822682Y-1399674D01*
X2822682Y-1399674D02*
X2832206Y-1361579D01*
X2832206Y-1361579D02*
X2841729Y-1342531D01*
X2841729Y-1342531D02*
X2851253Y-1333008D01*
X2851253Y-1333008D02*
X2870301Y-1323484D01*
X3013158Y-1342531D02*
X3022682Y-1333008D01*
X3022682Y-1333008D02*
X3041729Y-1323484D01*
X3041729Y-1323484D02*
X3089348Y-1323484D01*
X3089348Y-1323484D02*
X3108396Y-1333008D01*
X3108396Y-1333008D02*
X3117920Y-1342531D01*
X3117920Y-1342531D02*
X3127444Y-1361579D01*
X3127444Y-1361579D02*
X3127444Y-1380627D01*
X3127444Y-1380627D02*
X3117920Y-1409198D01*
X3117920Y-1409198D02*
X3003634Y-1523484D01*
X3003634Y-1523484D02*
X3127444Y-1523484D01*
X3203634Y-1323484D02*
X3203634Y-1361579D01*
X3279825Y-1323484D02*
X3279825Y-1361579D01*
X3575063Y-1599674D02*
X3565539Y-1590150D01*
X3565539Y-1590150D02*
X3546491Y-1561579D01*
X3546491Y-1561579D02*
X3536968Y-1542531D01*
X3536968Y-1542531D02*
X3527444Y-1513960D01*
X3527444Y-1513960D02*
X3517920Y-1466341D01*
X3517920Y-1466341D02*
X3517920Y-1428246D01*
X3517920Y-1428246D02*
X3527444Y-1380627D01*
X3527444Y-1380627D02*
X3536968Y-1352055D01*
X3536968Y-1352055D02*
X3546491Y-1333008D01*
X3546491Y-1333008D02*
X3565539Y-1304436D01*
X3565539Y-1304436D02*
X3575063Y-1294912D01*
X3632206Y-1323484D02*
X3765539Y-1323484D01*
X3765539Y-1323484D02*
X3679825Y-1523484D01*
X3927444Y-1323484D02*
X3889348Y-1323484D01*
X3889348Y-1323484D02*
X3870301Y-1333008D01*
X3870301Y-1333008D02*
X3860777Y-1342531D01*
X3860777Y-1342531D02*
X3841729Y-1371103D01*
X3841729Y-1371103D02*
X3832206Y-1409198D01*
X3832206Y-1409198D02*
X3832206Y-1485388D01*
X3832206Y-1485388D02*
X3841729Y-1504436D01*
X3841729Y-1504436D02*
X3851253Y-1513960D01*
X3851253Y-1513960D02*
X3870301Y-1523484D01*
X3870301Y-1523484D02*
X3908396Y-1523484D01*
X3908396Y-1523484D02*
X3927444Y-1513960D01*
X3927444Y-1513960D02*
X3936968Y-1504436D01*
X3936968Y-1504436D02*
X3946491Y-1485388D01*
X3946491Y-1485388D02*
X3946491Y-1437769D01*
X3946491Y-1437769D02*
X3936968Y-1418722D01*
X3936968Y-1418722D02*
X3927444Y-1409198D01*
X3927444Y-1409198D02*
X3908396Y-1399674D01*
X3908396Y-1399674D02*
X3870301Y-1399674D01*
X3870301Y-1399674D02*
X3851253Y-1409198D01*
X3851253Y-1409198D02*
X3841729Y-1418722D01*
X3841729Y-1418722D02*
X3832206Y-1437769D01*
X4184587Y-1523484D02*
X4184587Y-1323484D01*
X4270301Y-1523484D02*
X4270301Y-1418722D01*
X4270301Y-1418722D02*
X4260777Y-1399674D01*
X4260777Y-1399674D02*
X4241730Y-1390150D01*
X4241730Y-1390150D02*
X4213158Y-1390150D01*
X4213158Y-1390150D02*
X4194110Y-1399674D01*
X4194110Y-1399674D02*
X4184587Y-1409198D01*
X4394111Y-1523484D02*
X4375063Y-1513960D01*
X4375063Y-1513960D02*
X4365539Y-1504436D01*
X4365539Y-1504436D02*
X4356015Y-1485388D01*
X4356015Y-1485388D02*
X4356015Y-1428246D01*
X4356015Y-1428246D02*
X4365539Y-1409198D01*
X4365539Y-1409198D02*
X4375063Y-1399674D01*
X4375063Y-1399674D02*
X4394111Y-1390150D01*
X4394111Y-1390150D02*
X4422682Y-1390150D01*
X4422682Y-1390150D02*
X4441730Y-1399674D01*
X4441730Y-1399674D02*
X4451253Y-1409198D01*
X4451253Y-1409198D02*
X4460777Y-1428246D01*
X4460777Y-1428246D02*
X4460777Y-1485388D01*
X4460777Y-1485388D02*
X4451253Y-1504436D01*
X4451253Y-1504436D02*
X4441730Y-1513960D01*
X4441730Y-1513960D02*
X4422682Y-1523484D01*
X4422682Y-1523484D02*
X4394111Y-1523484D01*
X4575063Y-1523484D02*
X4556015Y-1513960D01*
X4556015Y-1513960D02*
X4546492Y-1494912D01*
X4546492Y-1494912D02*
X4546492Y-1323484D01*
X4727444Y-1513960D02*
X4708396Y-1523484D01*
X4708396Y-1523484D02*
X4670301Y-1523484D01*
X4670301Y-1523484D02*
X4651253Y-1513960D01*
X4651253Y-1513960D02*
X4641730Y-1494912D01*
X4641730Y-1494912D02*
X4641730Y-1418722D01*
X4641730Y-1418722D02*
X4651253Y-1399674D01*
X4651253Y-1399674D02*
X4670301Y-1390150D01*
X4670301Y-1390150D02*
X4708396Y-1390150D01*
X4708396Y-1390150D02*
X4727444Y-1399674D01*
X4727444Y-1399674D02*
X4736968Y-1418722D01*
X4736968Y-1418722D02*
X4736968Y-1437769D01*
X4736968Y-1437769D02*
X4641730Y-1456817D01*
X4813158Y-1513960D02*
X4832206Y-1523484D01*
X4832206Y-1523484D02*
X4870301Y-1523484D01*
X4870301Y-1523484D02*
X4889349Y-1513960D01*
X4889349Y-1513960D02*
X4898873Y-1494912D01*
X4898873Y-1494912D02*
X4898873Y-1485388D01*
X4898873Y-1485388D02*
X4889349Y-1466341D01*
X4889349Y-1466341D02*
X4870301Y-1456817D01*
X4870301Y-1456817D02*
X4841730Y-1456817D01*
X4841730Y-1456817D02*
X4822682Y-1447293D01*
X4822682Y-1447293D02*
X4813158Y-1428246D01*
X4813158Y-1428246D02*
X4813158Y-1418722D01*
X4813158Y-1418722D02*
X4822682Y-1399674D01*
X4822682Y-1399674D02*
X4841730Y-1390150D01*
X4841730Y-1390150D02*
X4870301Y-1390150D01*
X4870301Y-1390150D02*
X4889349Y-1399674D01*
X4965539Y-1599674D02*
X4975063Y-1590150D01*
X4975063Y-1590150D02*
X4994111Y-1561579D01*
X4994111Y-1561579D02*
X5003634Y-1542531D01*
X5003634Y-1542531D02*
X5013158Y-1513960D01*
X5013158Y-1513960D02*
X5022682Y-1466341D01*
X5022682Y-1466341D02*
X5022682Y-1428246D01*
X5022682Y-1428246D02*
X5013158Y-1380627D01*
X5013158Y-1380627D02*
X5003634Y-1352055D01*
X5003634Y-1352055D02*
X4994111Y-1333008D01*
X4994111Y-1333008D02*
X4975063Y-1304436D01*
X4975063Y-1304436D02*
X4965539Y-1294912D01*
D13*
X-54610Y-1750610D02*
X0Y-1696000D01*
X-54610Y-1641390D01*
X-109220Y-1696000D01*
X-54610Y-1750610D01*
D10*
X365539Y-1787484D02*
X251253Y-1787484D01*
X308396Y-1787484D02*
X308396Y-1587484D01*
X308396Y-1587484D02*
X289348Y-1616055D01*
X289348Y-1616055D02*
X270301Y-1635103D01*
X270301Y-1635103D02*
X251253Y-1644627D01*
X451253Y-1768436D02*
X460777Y-1777960D01*
X460777Y-1777960D02*
X451253Y-1787484D01*
X451253Y-1787484D02*
X441729Y-1777960D01*
X441729Y-1777960D02*
X451253Y-1768436D01*
X451253Y-1768436D02*
X451253Y-1787484D01*
X584586Y-1587484D02*
X603634Y-1587484D01*
X603634Y-1587484D02*
X622682Y-1597008D01*
X622682Y-1597008D02*
X632205Y-1606531D01*
X632205Y-1606531D02*
X641729Y-1625579D01*
X641729Y-1625579D02*
X651253Y-1663674D01*
X651253Y-1663674D02*
X651253Y-1711293D01*
X651253Y-1711293D02*
X641729Y-1749388D01*
X641729Y-1749388D02*
X632205Y-1768436D01*
X632205Y-1768436D02*
X622682Y-1777960D01*
X622682Y-1777960D02*
X603634Y-1787484D01*
X603634Y-1787484D02*
X584586Y-1787484D01*
X584586Y-1787484D02*
X565539Y-1777960D01*
X565539Y-1777960D02*
X556015Y-1768436D01*
X556015Y-1768436D02*
X546491Y-1749388D01*
X546491Y-1749388D02*
X536967Y-1711293D01*
X536967Y-1711293D02*
X536967Y-1663674D01*
X536967Y-1663674D02*
X546491Y-1625579D01*
X546491Y-1625579D02*
X556015Y-1606531D01*
X556015Y-1606531D02*
X565539Y-1597008D01*
X565539Y-1597008D02*
X584586Y-1587484D01*
X746491Y-1787484D02*
X784586Y-1787484D01*
X784586Y-1787484D02*
X803634Y-1777960D01*
X803634Y-1777960D02*
X813158Y-1768436D01*
X813158Y-1768436D02*
X832205Y-1739865D01*
X832205Y-1739865D02*
X841729Y-1701769D01*
X841729Y-1701769D02*
X841729Y-1625579D01*
X841729Y-1625579D02*
X832205Y-1606531D01*
X832205Y-1606531D02*
X822682Y-1597008D01*
X822682Y-1597008D02*
X803634Y-1587484D01*
X803634Y-1587484D02*
X765539Y-1587484D01*
X765539Y-1587484D02*
X746491Y-1597008D01*
X746491Y-1597008D02*
X736967Y-1606531D01*
X736967Y-1606531D02*
X727443Y-1625579D01*
X727443Y-1625579D02*
X727443Y-1673198D01*
X727443Y-1673198D02*
X736967Y-1692246D01*
X736967Y-1692246D02*
X746491Y-1701769D01*
X746491Y-1701769D02*
X765539Y-1711293D01*
X765539Y-1711293D02*
X803634Y-1711293D01*
X803634Y-1711293D02*
X822682Y-1701769D01*
X822682Y-1701769D02*
X832205Y-1692246D01*
X832205Y-1692246D02*
X841729Y-1673198D01*
X917920Y-1606531D02*
X927443Y-1597008D01*
X927443Y-1597008D02*
X946491Y-1587484D01*
X946491Y-1587484D02*
X994110Y-1587484D01*
X994110Y-1587484D02*
X1013158Y-1597008D01*
X1013158Y-1597008D02*
X1022682Y-1606531D01*
X1022682Y-1606531D02*
X1032205Y-1625579D01*
X1032205Y-1625579D02*
X1032205Y-1644627D01*
X1032205Y-1644627D02*
X1022682Y-1673198D01*
X1022682Y-1673198D02*
X908396Y-1787484D01*
X908396Y-1787484D02*
X1032205Y-1787484D01*
X1117920Y-1787484D02*
X1117920Y-1654150D01*
X1117920Y-1673198D02*
X1127444Y-1663674D01*
X1127444Y-1663674D02*
X1146491Y-1654150D01*
X1146491Y-1654150D02*
X1175063Y-1654150D01*
X1175063Y-1654150D02*
X1194110Y-1663674D01*
X1194110Y-1663674D02*
X1203634Y-1682722D01*
X1203634Y-1682722D02*
X1203634Y-1787484D01*
X1203634Y-1682722D02*
X1213158Y-1663674D01*
X1213158Y-1663674D02*
X1232205Y-1654150D01*
X1232205Y-1654150D02*
X1260777Y-1654150D01*
X1260777Y-1654150D02*
X1279825Y-1663674D01*
X1279825Y-1663674D02*
X1289348Y-1682722D01*
X1289348Y-1682722D02*
X1289348Y-1787484D01*
X1384586Y-1787484D02*
X1384586Y-1654150D01*
X1384586Y-1673198D02*
X1394110Y-1663674D01*
X1394110Y-1663674D02*
X1413158Y-1654150D01*
X1413158Y-1654150D02*
X1441729Y-1654150D01*
X1441729Y-1654150D02*
X1460777Y-1663674D01*
X1460777Y-1663674D02*
X1470301Y-1682722D01*
X1470301Y-1682722D02*
X1470301Y-1787484D01*
X1470301Y-1682722D02*
X1479824Y-1663674D01*
X1479824Y-1663674D02*
X1498872Y-1654150D01*
X1498872Y-1654150D02*
X1527443Y-1654150D01*
X1527443Y-1654150D02*
X1546491Y-1663674D01*
X1546491Y-1663674D02*
X1556015Y-1682722D01*
X1556015Y-1682722D02*
X1556015Y-1787484D01*
X1946491Y-1577960D02*
X1775063Y-1835103D01*
X2203634Y-1587484D02*
X2222682Y-1587484D01*
X2222682Y-1587484D02*
X2241729Y-1597008D01*
X2241729Y-1597008D02*
X2251253Y-1606531D01*
X2251253Y-1606531D02*
X2260777Y-1625579D01*
X2260777Y-1625579D02*
X2270301Y-1663674D01*
X2270301Y-1663674D02*
X2270301Y-1711293D01*
X2270301Y-1711293D02*
X2260777Y-1749388D01*
X2260777Y-1749388D02*
X2251253Y-1768436D01*
X2251253Y-1768436D02*
X2241729Y-1777960D01*
X2241729Y-1777960D02*
X2222682Y-1787484D01*
X2222682Y-1787484D02*
X2203634Y-1787484D01*
X2203634Y-1787484D02*
X2184587Y-1777960D01*
X2184587Y-1777960D02*
X2175063Y-1768436D01*
X2175063Y-1768436D02*
X2165539Y-1749388D01*
X2165539Y-1749388D02*
X2156015Y-1711293D01*
X2156015Y-1711293D02*
X2156015Y-1663674D01*
X2156015Y-1663674D02*
X2165539Y-1625579D01*
X2165539Y-1625579D02*
X2175063Y-1606531D01*
X2175063Y-1606531D02*
X2184587Y-1597008D01*
X2184587Y-1597008D02*
X2203634Y-1587484D01*
X2356015Y-1768436D02*
X2365539Y-1777960D01*
X2365539Y-1777960D02*
X2356015Y-1787484D01*
X2356015Y-1787484D02*
X2346491Y-1777960D01*
X2346491Y-1777960D02*
X2356015Y-1768436D01*
X2356015Y-1768436D02*
X2356015Y-1787484D01*
X2489348Y-1587484D02*
X2508396Y-1587484D01*
X2508396Y-1587484D02*
X2527444Y-1597008D01*
X2527444Y-1597008D02*
X2536968Y-1606531D01*
X2536968Y-1606531D02*
X2546491Y-1625579D01*
X2546491Y-1625579D02*
X2556015Y-1663674D01*
X2556015Y-1663674D02*
X2556015Y-1711293D01*
X2556015Y-1711293D02*
X2546491Y-1749388D01*
X2546491Y-1749388D02*
X2536968Y-1768436D01*
X2536968Y-1768436D02*
X2527444Y-1777960D01*
X2527444Y-1777960D02*
X2508396Y-1787484D01*
X2508396Y-1787484D02*
X2489348Y-1787484D01*
X2489348Y-1787484D02*
X2470301Y-1777960D01*
X2470301Y-1777960D02*
X2460777Y-1768436D01*
X2460777Y-1768436D02*
X2451253Y-1749388D01*
X2451253Y-1749388D02*
X2441729Y-1711293D01*
X2441729Y-1711293D02*
X2441729Y-1663674D01*
X2441729Y-1663674D02*
X2451253Y-1625579D01*
X2451253Y-1625579D02*
X2460777Y-1606531D01*
X2460777Y-1606531D02*
X2470301Y-1597008D01*
X2470301Y-1597008D02*
X2489348Y-1587484D01*
X2727444Y-1654150D02*
X2727444Y-1787484D01*
X2679825Y-1577960D02*
X2632206Y-1720817D01*
X2632206Y-1720817D02*
X2756015Y-1720817D01*
X2813158Y-1587484D02*
X2936967Y-1587484D01*
X2936967Y-1587484D02*
X2870301Y-1663674D01*
X2870301Y-1663674D02*
X2898872Y-1663674D01*
X2898872Y-1663674D02*
X2917920Y-1673198D01*
X2917920Y-1673198D02*
X2927444Y-1682722D01*
X2927444Y-1682722D02*
X2936967Y-1701769D01*
X2936967Y-1701769D02*
X2936967Y-1749388D01*
X2936967Y-1749388D02*
X2927444Y-1768436D01*
X2927444Y-1768436D02*
X2917920Y-1777960D01*
X2917920Y-1777960D02*
X2898872Y-1787484D01*
X2898872Y-1787484D02*
X2841729Y-1787484D01*
X2841729Y-1787484D02*
X2822682Y-1777960D01*
X2822682Y-1777960D02*
X2813158Y-1768436D01*
X3060777Y-1587484D02*
X3079825Y-1587484D01*
X3079825Y-1587484D02*
X3098872Y-1597008D01*
X3098872Y-1597008D02*
X3108396Y-1606531D01*
X3108396Y-1606531D02*
X3117920Y-1625579D01*
X3117920Y-1625579D02*
X3127444Y-1663674D01*
X3127444Y-1663674D02*
X3127444Y-1711293D01*
X3127444Y-1711293D02*
X3117920Y-1749388D01*
X3117920Y-1749388D02*
X3108396Y-1768436D01*
X3108396Y-1768436D02*
X3098872Y-1777960D01*
X3098872Y-1777960D02*
X3079825Y-1787484D01*
X3079825Y-1787484D02*
X3060777Y-1787484D01*
X3060777Y-1787484D02*
X3041729Y-1777960D01*
X3041729Y-1777960D02*
X3032206Y-1768436D01*
X3032206Y-1768436D02*
X3022682Y-1749388D01*
X3022682Y-1749388D02*
X3013158Y-1711293D01*
X3013158Y-1711293D02*
X3013158Y-1663674D01*
X3013158Y-1663674D02*
X3022682Y-1625579D01*
X3022682Y-1625579D02*
X3032206Y-1606531D01*
X3032206Y-1606531D02*
X3041729Y-1597008D01*
X3041729Y-1597008D02*
X3060777Y-1587484D01*
X3203634Y-1587484D02*
X3203634Y-1625579D01*
X3279825Y-1587484D02*
X3279825Y-1625579D01*
X3575063Y-1863674D02*
X3565539Y-1854150D01*
X3565539Y-1854150D02*
X3546491Y-1825579D01*
X3546491Y-1825579D02*
X3536968Y-1806531D01*
X3536968Y-1806531D02*
X3527444Y-1777960D01*
X3527444Y-1777960D02*
X3517920Y-1730341D01*
X3517920Y-1730341D02*
X3517920Y-1692246D01*
X3517920Y-1692246D02*
X3527444Y-1644627D01*
X3527444Y-1644627D02*
X3536968Y-1616055D01*
X3536968Y-1616055D02*
X3546491Y-1597008D01*
X3546491Y-1597008D02*
X3565539Y-1568436D01*
X3565539Y-1568436D02*
X3575063Y-1558912D01*
X3736968Y-1587484D02*
X3698872Y-1587484D01*
X3698872Y-1587484D02*
X3679825Y-1597008D01*
X3679825Y-1597008D02*
X3670301Y-1606531D01*
X3670301Y-1606531D02*
X3651253Y-1635103D01*
X3651253Y-1635103D02*
X3641729Y-1673198D01*
X3641729Y-1673198D02*
X3641729Y-1749388D01*
X3641729Y-1749388D02*
X3651253Y-1768436D01*
X3651253Y-1768436D02*
X3660777Y-1777960D01*
X3660777Y-1777960D02*
X3679825Y-1787484D01*
X3679825Y-1787484D02*
X3717920Y-1787484D01*
X3717920Y-1787484D02*
X3736968Y-1777960D01*
X3736968Y-1777960D02*
X3746491Y-1768436D01*
X3746491Y-1768436D02*
X3756015Y-1749388D01*
X3756015Y-1749388D02*
X3756015Y-1701769D01*
X3756015Y-1701769D02*
X3746491Y-1682722D01*
X3746491Y-1682722D02*
X3736968Y-1673198D01*
X3736968Y-1673198D02*
X3717920Y-1663674D01*
X3717920Y-1663674D02*
X3679825Y-1663674D01*
X3679825Y-1663674D02*
X3660777Y-1673198D01*
X3660777Y-1673198D02*
X3651253Y-1682722D01*
X3651253Y-1682722D02*
X3641729Y-1701769D01*
X3994110Y-1787484D02*
X3994110Y-1587484D01*
X4079825Y-1787484D02*
X4079825Y-1682722D01*
X4079825Y-1682722D02*
X4070301Y-1663674D01*
X4070301Y-1663674D02*
X4051253Y-1654150D01*
X4051253Y-1654150D02*
X4022682Y-1654150D01*
X4022682Y-1654150D02*
X4003634Y-1663674D01*
X4003634Y-1663674D02*
X3994110Y-1673198D01*
X4203634Y-1787484D02*
X4184587Y-1777960D01*
X4184587Y-1777960D02*
X4175063Y-1768436D01*
X4175063Y-1768436D02*
X4165539Y-1749388D01*
X4165539Y-1749388D02*
X4165539Y-1692246D01*
X4165539Y-1692246D02*
X4175063Y-1673198D01*
X4175063Y-1673198D02*
X4184587Y-1663674D01*
X4184587Y-1663674D02*
X4203634Y-1654150D01*
X4203634Y-1654150D02*
X4232206Y-1654150D01*
X4232206Y-1654150D02*
X4251253Y-1663674D01*
X4251253Y-1663674D02*
X4260777Y-1673198D01*
X4260777Y-1673198D02*
X4270301Y-1692246D01*
X4270301Y-1692246D02*
X4270301Y-1749388D01*
X4270301Y-1749388D02*
X4260777Y-1768436D01*
X4260777Y-1768436D02*
X4251253Y-1777960D01*
X4251253Y-1777960D02*
X4232206Y-1787484D01*
X4232206Y-1787484D02*
X4203634Y-1787484D01*
X4384587Y-1787484D02*
X4365539Y-1777960D01*
X4365539Y-1777960D02*
X4356015Y-1758912D01*
X4356015Y-1758912D02*
X4356015Y-1587484D01*
X4536968Y-1777960D02*
X4517920Y-1787484D01*
X4517920Y-1787484D02*
X4479825Y-1787484D01*
X4479825Y-1787484D02*
X4460777Y-1777960D01*
X4460777Y-1777960D02*
X4451253Y-1758912D01*
X4451253Y-1758912D02*
X4451253Y-1682722D01*
X4451253Y-1682722D02*
X4460777Y-1663674D01*
X4460777Y-1663674D02*
X4479825Y-1654150D01*
X4479825Y-1654150D02*
X4517920Y-1654150D01*
X4517920Y-1654150D02*
X4536968Y-1663674D01*
X4536968Y-1663674D02*
X4546492Y-1682722D01*
X4546492Y-1682722D02*
X4546492Y-1701769D01*
X4546492Y-1701769D02*
X4451253Y-1720817D01*
X4622682Y-1777960D02*
X4641730Y-1787484D01*
X4641730Y-1787484D02*
X4679825Y-1787484D01*
X4679825Y-1787484D02*
X4698873Y-1777960D01*
X4698873Y-1777960D02*
X4708396Y-1758912D01*
X4708396Y-1758912D02*
X4708396Y-1749388D01*
X4708396Y-1749388D02*
X4698873Y-1730341D01*
X4698873Y-1730341D02*
X4679825Y-1720817D01*
X4679825Y-1720817D02*
X4651253Y-1720817D01*
X4651253Y-1720817D02*
X4632206Y-1711293D01*
X4632206Y-1711293D02*
X4622682Y-1692246D01*
X4622682Y-1692246D02*
X4622682Y-1682722D01*
X4622682Y-1682722D02*
X4632206Y-1663674D01*
X4632206Y-1663674D02*
X4651253Y-1654150D01*
X4651253Y-1654150D02*
X4679825Y-1654150D01*
X4679825Y-1654150D02*
X4698873Y-1663674D01*
X4775063Y-1863674D02*
X4784587Y-1854150D01*
X4784587Y-1854150D02*
X4803634Y-1825579D01*
X4803634Y-1825579D02*
X4813158Y-1806531D01*
X4813158Y-1806531D02*
X4822682Y-1777960D01*
X4822682Y-1777960D02*
X4832206Y-1730341D01*
X4832206Y-1730341D02*
X4832206Y-1692246D01*
X4832206Y-1692246D02*
X4822682Y-1644627D01*
X4822682Y-1644627D02*
X4813158Y-1616055D01*
X4813158Y-1616055D02*
X4803634Y-1597008D01*
X4803634Y-1597008D02*
X4784587Y-1568436D01*
X4784587Y-1568436D02*
X4775063Y-1558912D01*
D14*
X-110000Y-1905000D02*
X0Y-2015000D01*
X0Y-1905000D02*
X-110000Y-2015000D01*
X0Y-1960000D02*
G75*
G02*
X-110000Y-1960000I-55000J0D01*
G01*
X-110000Y-1960000D02*
G75*
G02*
X0Y-1960000I55000J0D01*
G01*
D10*
X365539Y-2051484D02*
X251253Y-2051484D01*
X308396Y-2051484D02*
X308396Y-1851484D01*
X308396Y-1851484D02*
X289348Y-1880055D01*
X289348Y-1880055D02*
X270301Y-1899103D01*
X270301Y-1899103D02*
X251253Y-1908627D01*
X451253Y-2032436D02*
X460777Y-2041960D01*
X460777Y-2041960D02*
X451253Y-2051484D01*
X451253Y-2051484D02*
X441729Y-2041960D01*
X441729Y-2041960D02*
X451253Y-2032436D01*
X451253Y-2032436D02*
X451253Y-2051484D01*
X651253Y-2051484D02*
X536967Y-2051484D01*
X594110Y-2051484D02*
X594110Y-1851484D01*
X594110Y-1851484D02*
X575063Y-1880055D01*
X575063Y-1880055D02*
X556015Y-1899103D01*
X556015Y-1899103D02*
X536967Y-1908627D01*
X775062Y-1851484D02*
X794110Y-1851484D01*
X794110Y-1851484D02*
X813158Y-1861008D01*
X813158Y-1861008D02*
X822682Y-1870531D01*
X822682Y-1870531D02*
X832205Y-1889579D01*
X832205Y-1889579D02*
X841729Y-1927674D01*
X841729Y-1927674D02*
X841729Y-1975293D01*
X841729Y-1975293D02*
X832205Y-2013388D01*
X832205Y-2013388D02*
X822682Y-2032436D01*
X822682Y-2032436D02*
X813158Y-2041960D01*
X813158Y-2041960D02*
X794110Y-2051484D01*
X794110Y-2051484D02*
X775062Y-2051484D01*
X775062Y-2051484D02*
X756015Y-2041960D01*
X756015Y-2041960D02*
X746491Y-2032436D01*
X746491Y-2032436D02*
X736967Y-2013388D01*
X736967Y-2013388D02*
X727443Y-1975293D01*
X727443Y-1975293D02*
X727443Y-1927674D01*
X727443Y-1927674D02*
X736967Y-1889579D01*
X736967Y-1889579D02*
X746491Y-1870531D01*
X746491Y-1870531D02*
X756015Y-1861008D01*
X756015Y-1861008D02*
X775062Y-1851484D01*
X965539Y-1851484D02*
X984586Y-1851484D01*
X984586Y-1851484D02*
X1003634Y-1861008D01*
X1003634Y-1861008D02*
X1013158Y-1870531D01*
X1013158Y-1870531D02*
X1022682Y-1889579D01*
X1022682Y-1889579D02*
X1032205Y-1927674D01*
X1032205Y-1927674D02*
X1032205Y-1975293D01*
X1032205Y-1975293D02*
X1022682Y-2013388D01*
X1022682Y-2013388D02*
X1013158Y-2032436D01*
X1013158Y-2032436D02*
X1003634Y-2041960D01*
X1003634Y-2041960D02*
X984586Y-2051484D01*
X984586Y-2051484D02*
X965539Y-2051484D01*
X965539Y-2051484D02*
X946491Y-2041960D01*
X946491Y-2041960D02*
X936967Y-2032436D01*
X936967Y-2032436D02*
X927443Y-2013388D01*
X927443Y-2013388D02*
X917920Y-1975293D01*
X917920Y-1975293D02*
X917920Y-1927674D01*
X917920Y-1927674D02*
X927443Y-1889579D01*
X927443Y-1889579D02*
X936967Y-1870531D01*
X936967Y-1870531D02*
X946491Y-1861008D01*
X946491Y-1861008D02*
X965539Y-1851484D01*
X1117920Y-2051484D02*
X1117920Y-1918150D01*
X1117920Y-1937198D02*
X1127444Y-1927674D01*
X1127444Y-1927674D02*
X1146491Y-1918150D01*
X1146491Y-1918150D02*
X1175063Y-1918150D01*
X1175063Y-1918150D02*
X1194110Y-1927674D01*
X1194110Y-1927674D02*
X1203634Y-1946722D01*
X1203634Y-1946722D02*
X1203634Y-2051484D01*
X1203634Y-1946722D02*
X1213158Y-1927674D01*
X1213158Y-1927674D02*
X1232205Y-1918150D01*
X1232205Y-1918150D02*
X1260777Y-1918150D01*
X1260777Y-1918150D02*
X1279825Y-1927674D01*
X1279825Y-1927674D02*
X1289348Y-1946722D01*
X1289348Y-1946722D02*
X1289348Y-2051484D01*
X1384586Y-2051484D02*
X1384586Y-1918150D01*
X1384586Y-1937198D02*
X1394110Y-1927674D01*
X1394110Y-1927674D02*
X1413158Y-1918150D01*
X1413158Y-1918150D02*
X1441729Y-1918150D01*
X1441729Y-1918150D02*
X1460777Y-1927674D01*
X1460777Y-1927674D02*
X1470301Y-1946722D01*
X1470301Y-1946722D02*
X1470301Y-2051484D01*
X1470301Y-1946722D02*
X1479824Y-1927674D01*
X1479824Y-1927674D02*
X1498872Y-1918150D01*
X1498872Y-1918150D02*
X1527443Y-1918150D01*
X1527443Y-1918150D02*
X1546491Y-1927674D01*
X1546491Y-1927674D02*
X1556015Y-1946722D01*
X1556015Y-1946722D02*
X1556015Y-2051484D01*
X1946491Y-1841960D02*
X1775063Y-2099103D01*
X2203634Y-1851484D02*
X2222682Y-1851484D01*
X2222682Y-1851484D02*
X2241729Y-1861008D01*
X2241729Y-1861008D02*
X2251253Y-1870531D01*
X2251253Y-1870531D02*
X2260777Y-1889579D01*
X2260777Y-1889579D02*
X2270301Y-1927674D01*
X2270301Y-1927674D02*
X2270301Y-1975293D01*
X2270301Y-1975293D02*
X2260777Y-2013388D01*
X2260777Y-2013388D02*
X2251253Y-2032436D01*
X2251253Y-2032436D02*
X2241729Y-2041960D01*
X2241729Y-2041960D02*
X2222682Y-2051484D01*
X2222682Y-2051484D02*
X2203634Y-2051484D01*
X2203634Y-2051484D02*
X2184587Y-2041960D01*
X2184587Y-2041960D02*
X2175063Y-2032436D01*
X2175063Y-2032436D02*
X2165539Y-2013388D01*
X2165539Y-2013388D02*
X2156015Y-1975293D01*
X2156015Y-1975293D02*
X2156015Y-1927674D01*
X2156015Y-1927674D02*
X2165539Y-1889579D01*
X2165539Y-1889579D02*
X2175063Y-1870531D01*
X2175063Y-1870531D02*
X2184587Y-1861008D01*
X2184587Y-1861008D02*
X2203634Y-1851484D01*
X2356015Y-2032436D02*
X2365539Y-2041960D01*
X2365539Y-2041960D02*
X2356015Y-2051484D01*
X2356015Y-2051484D02*
X2346491Y-2041960D01*
X2346491Y-2041960D02*
X2356015Y-2032436D01*
X2356015Y-2032436D02*
X2356015Y-2051484D01*
X2489348Y-1851484D02*
X2508396Y-1851484D01*
X2508396Y-1851484D02*
X2527444Y-1861008D01*
X2527444Y-1861008D02*
X2536968Y-1870531D01*
X2536968Y-1870531D02*
X2546491Y-1889579D01*
X2546491Y-1889579D02*
X2556015Y-1927674D01*
X2556015Y-1927674D02*
X2556015Y-1975293D01*
X2556015Y-1975293D02*
X2546491Y-2013388D01*
X2546491Y-2013388D02*
X2536968Y-2032436D01*
X2536968Y-2032436D02*
X2527444Y-2041960D01*
X2527444Y-2041960D02*
X2508396Y-2051484D01*
X2508396Y-2051484D02*
X2489348Y-2051484D01*
X2489348Y-2051484D02*
X2470301Y-2041960D01*
X2470301Y-2041960D02*
X2460777Y-2032436D01*
X2460777Y-2032436D02*
X2451253Y-2013388D01*
X2451253Y-2013388D02*
X2441729Y-1975293D01*
X2441729Y-1975293D02*
X2441729Y-1927674D01*
X2441729Y-1927674D02*
X2451253Y-1889579D01*
X2451253Y-1889579D02*
X2460777Y-1870531D01*
X2460777Y-1870531D02*
X2470301Y-1861008D01*
X2470301Y-1861008D02*
X2489348Y-1851484D01*
X2727444Y-1918150D02*
X2727444Y-2051484D01*
X2679825Y-1841960D02*
X2632206Y-1984817D01*
X2632206Y-1984817D02*
X2756015Y-1984817D01*
X2813158Y-1851484D02*
X2936967Y-1851484D01*
X2936967Y-1851484D02*
X2870301Y-1927674D01*
X2870301Y-1927674D02*
X2898872Y-1927674D01*
X2898872Y-1927674D02*
X2917920Y-1937198D01*
X2917920Y-1937198D02*
X2927444Y-1946722D01*
X2927444Y-1946722D02*
X2936967Y-1965769D01*
X2936967Y-1965769D02*
X2936967Y-2013388D01*
X2936967Y-2013388D02*
X2927444Y-2032436D01*
X2927444Y-2032436D02*
X2917920Y-2041960D01*
X2917920Y-2041960D02*
X2898872Y-2051484D01*
X2898872Y-2051484D02*
X2841729Y-2051484D01*
X2841729Y-2051484D02*
X2822682Y-2041960D01*
X2822682Y-2041960D02*
X2813158Y-2032436D01*
X3003634Y-1851484D02*
X3127444Y-1851484D01*
X3127444Y-1851484D02*
X3060777Y-1927674D01*
X3060777Y-1927674D02*
X3089348Y-1927674D01*
X3089348Y-1927674D02*
X3108396Y-1937198D01*
X3108396Y-1937198D02*
X3117920Y-1946722D01*
X3117920Y-1946722D02*
X3127444Y-1965769D01*
X3127444Y-1965769D02*
X3127444Y-2013388D01*
X3127444Y-2013388D02*
X3117920Y-2032436D01*
X3117920Y-2032436D02*
X3108396Y-2041960D01*
X3108396Y-2041960D02*
X3089348Y-2051484D01*
X3089348Y-2051484D02*
X3032206Y-2051484D01*
X3032206Y-2051484D02*
X3013158Y-2041960D01*
X3013158Y-2041960D02*
X3003634Y-2032436D01*
X3203634Y-1851484D02*
X3203634Y-1889579D01*
X3279825Y-1851484D02*
X3279825Y-1889579D01*
X3575063Y-2127674D02*
X3565539Y-2118150D01*
X3565539Y-2118150D02*
X3546491Y-2089579D01*
X3546491Y-2089579D02*
X3536968Y-2070531D01*
X3536968Y-2070531D02*
X3527444Y-2041960D01*
X3527444Y-2041960D02*
X3517920Y-1994341D01*
X3517920Y-1994341D02*
X3517920Y-1956246D01*
X3517920Y-1956246D02*
X3527444Y-1908627D01*
X3527444Y-1908627D02*
X3536968Y-1880055D01*
X3536968Y-1880055D02*
X3546491Y-1861008D01*
X3546491Y-1861008D02*
X3565539Y-1832436D01*
X3565539Y-1832436D02*
X3575063Y-1822912D01*
X3660777Y-2051484D02*
X3698872Y-2051484D01*
X3698872Y-2051484D02*
X3717920Y-2041960D01*
X3717920Y-2041960D02*
X3727444Y-2032436D01*
X3727444Y-2032436D02*
X3746491Y-2003865D01*
X3746491Y-2003865D02*
X3756015Y-1965769D01*
X3756015Y-1965769D02*
X3756015Y-1889579D01*
X3756015Y-1889579D02*
X3746491Y-1870531D01*
X3746491Y-1870531D02*
X3736968Y-1861008D01*
X3736968Y-1861008D02*
X3717920Y-1851484D01*
X3717920Y-1851484D02*
X3679825Y-1851484D01*
X3679825Y-1851484D02*
X3660777Y-1861008D01*
X3660777Y-1861008D02*
X3651253Y-1870531D01*
X3651253Y-1870531D02*
X3641729Y-1889579D01*
X3641729Y-1889579D02*
X3641729Y-1937198D01*
X3641729Y-1937198D02*
X3651253Y-1956246D01*
X3651253Y-1956246D02*
X3660777Y-1965769D01*
X3660777Y-1965769D02*
X3679825Y-1975293D01*
X3679825Y-1975293D02*
X3717920Y-1975293D01*
X3717920Y-1975293D02*
X3736968Y-1965769D01*
X3736968Y-1965769D02*
X3746491Y-1956246D01*
X3746491Y-1956246D02*
X3756015Y-1937198D01*
X3994110Y-2051484D02*
X3994110Y-1851484D01*
X4079825Y-2051484D02*
X4079825Y-1946722D01*
X4079825Y-1946722D02*
X4070301Y-1927674D01*
X4070301Y-1927674D02*
X4051253Y-1918150D01*
X4051253Y-1918150D02*
X4022682Y-1918150D01*
X4022682Y-1918150D02*
X4003634Y-1927674D01*
X4003634Y-1927674D02*
X3994110Y-1937198D01*
X4203634Y-2051484D02*
X4184587Y-2041960D01*
X4184587Y-2041960D02*
X4175063Y-2032436D01*
X4175063Y-2032436D02*
X4165539Y-2013388D01*
X4165539Y-2013388D02*
X4165539Y-1956246D01*
X4165539Y-1956246D02*
X4175063Y-1937198D01*
X4175063Y-1937198D02*
X4184587Y-1927674D01*
X4184587Y-1927674D02*
X4203634Y-1918150D01*
X4203634Y-1918150D02*
X4232206Y-1918150D01*
X4232206Y-1918150D02*
X4251253Y-1927674D01*
X4251253Y-1927674D02*
X4260777Y-1937198D01*
X4260777Y-1937198D02*
X4270301Y-1956246D01*
X4270301Y-1956246D02*
X4270301Y-2013388D01*
X4270301Y-2013388D02*
X4260777Y-2032436D01*
X4260777Y-2032436D02*
X4251253Y-2041960D01*
X4251253Y-2041960D02*
X4232206Y-2051484D01*
X4232206Y-2051484D02*
X4203634Y-2051484D01*
X4384587Y-2051484D02*
X4365539Y-2041960D01*
X4365539Y-2041960D02*
X4356015Y-2022912D01*
X4356015Y-2022912D02*
X4356015Y-1851484D01*
X4536968Y-2041960D02*
X4517920Y-2051484D01*
X4517920Y-2051484D02*
X4479825Y-2051484D01*
X4479825Y-2051484D02*
X4460777Y-2041960D01*
X4460777Y-2041960D02*
X4451253Y-2022912D01*
X4451253Y-2022912D02*
X4451253Y-1946722D01*
X4451253Y-1946722D02*
X4460777Y-1927674D01*
X4460777Y-1927674D02*
X4479825Y-1918150D01*
X4479825Y-1918150D02*
X4517920Y-1918150D01*
X4517920Y-1918150D02*
X4536968Y-1927674D01*
X4536968Y-1927674D02*
X4546492Y-1946722D01*
X4546492Y-1946722D02*
X4546492Y-1965769D01*
X4546492Y-1965769D02*
X4451253Y-1984817D01*
X4622682Y-2041960D02*
X4641730Y-2051484D01*
X4641730Y-2051484D02*
X4679825Y-2051484D01*
X4679825Y-2051484D02*
X4698873Y-2041960D01*
X4698873Y-2041960D02*
X4708396Y-2022912D01*
X4708396Y-2022912D02*
X4708396Y-2013388D01*
X4708396Y-2013388D02*
X4698873Y-1994341D01*
X4698873Y-1994341D02*
X4679825Y-1984817D01*
X4679825Y-1984817D02*
X4651253Y-1984817D01*
X4651253Y-1984817D02*
X4632206Y-1975293D01*
X4632206Y-1975293D02*
X4622682Y-1956246D01*
X4622682Y-1956246D02*
X4622682Y-1946722D01*
X4622682Y-1946722D02*
X4632206Y-1927674D01*
X4632206Y-1927674D02*
X4651253Y-1918150D01*
X4651253Y-1918150D02*
X4679825Y-1918150D01*
X4679825Y-1918150D02*
X4698873Y-1927674D01*
X4775063Y-2127674D02*
X4784587Y-2118150D01*
X4784587Y-2118150D02*
X4803634Y-2089579D01*
X4803634Y-2089579D02*
X4813158Y-2070531D01*
X4813158Y-2070531D02*
X4822682Y-2041960D01*
X4822682Y-2041960D02*
X4832206Y-1994341D01*
X4832206Y-1994341D02*
X4832206Y-1956246D01*
X4832206Y-1956246D02*
X4822682Y-1908627D01*
X4822682Y-1908627D02*
X4813158Y-1880055D01*
X4813158Y-1880055D02*
X4803634Y-1861008D01*
X4803634Y-1861008D02*
X4784587Y-1832436D01*
X4784587Y-1832436D02*
X4775063Y-1822912D01*
D15*
X-114300Y-2166850D02*
X0Y-2281150D01*
X0Y-2166850D02*
X-114300Y-2281150D01*
X-57150Y-2166850D02*
X-57150Y-2281150D01*
X-114300Y-2224000D02*
X0Y-2224000D01*
D10*
X365539Y-2315484D02*
X251253Y-2315484D01*
X308396Y-2315484D02*
X308396Y-2115484D01*
X308396Y-2115484D02*
X289348Y-2144055D01*
X289348Y-2144055D02*
X270301Y-2163103D01*
X270301Y-2163103D02*
X251253Y-2172627D01*
X451253Y-2296436D02*
X460777Y-2305960D01*
X460777Y-2305960D02*
X451253Y-2315484D01*
X451253Y-2315484D02*
X441729Y-2305960D01*
X441729Y-2305960D02*
X451253Y-2296436D01*
X451253Y-2296436D02*
X451253Y-2315484D01*
X651253Y-2315484D02*
X536967Y-2315484D01*
X594110Y-2315484D02*
X594110Y-2115484D01*
X594110Y-2115484D02*
X575063Y-2144055D01*
X575063Y-2144055D02*
X556015Y-2163103D01*
X556015Y-2163103D02*
X536967Y-2172627D01*
X822682Y-2182150D02*
X822682Y-2315484D01*
X775062Y-2105960D02*
X727443Y-2248817D01*
X727443Y-2248817D02*
X851253Y-2248817D01*
X908396Y-2115484D02*
X1032205Y-2115484D01*
X1032205Y-2115484D02*
X965539Y-2191674D01*
X965539Y-2191674D02*
X994110Y-2191674D01*
X994110Y-2191674D02*
X1013158Y-2201198D01*
X1013158Y-2201198D02*
X1022682Y-2210722D01*
X1022682Y-2210722D02*
X1032205Y-2229770D01*
X1032205Y-2229770D02*
X1032205Y-2277389D01*
X1032205Y-2277389D02*
X1022682Y-2296436D01*
X1022682Y-2296436D02*
X1013158Y-2305960D01*
X1013158Y-2305960D02*
X994110Y-2315484D01*
X994110Y-2315484D02*
X936967Y-2315484D01*
X936967Y-2315484D02*
X917920Y-2305960D01*
X917920Y-2305960D02*
X908396Y-2296436D01*
X1117920Y-2315484D02*
X1117920Y-2182150D01*
X1117920Y-2201198D02*
X1127444Y-2191674D01*
X1127444Y-2191674D02*
X1146491Y-2182150D01*
X1146491Y-2182150D02*
X1175063Y-2182150D01*
X1175063Y-2182150D02*
X1194110Y-2191674D01*
X1194110Y-2191674D02*
X1203634Y-2210722D01*
X1203634Y-2210722D02*
X1203634Y-2315484D01*
X1203634Y-2210722D02*
X1213158Y-2191674D01*
X1213158Y-2191674D02*
X1232205Y-2182150D01*
X1232205Y-2182150D02*
X1260777Y-2182150D01*
X1260777Y-2182150D02*
X1279825Y-2191674D01*
X1279825Y-2191674D02*
X1289348Y-2210722D01*
X1289348Y-2210722D02*
X1289348Y-2315484D01*
X1384586Y-2315484D02*
X1384586Y-2182150D01*
X1384586Y-2201198D02*
X1394110Y-2191674D01*
X1394110Y-2191674D02*
X1413158Y-2182150D01*
X1413158Y-2182150D02*
X1441729Y-2182150D01*
X1441729Y-2182150D02*
X1460777Y-2191674D01*
X1460777Y-2191674D02*
X1470301Y-2210722D01*
X1470301Y-2210722D02*
X1470301Y-2315484D01*
X1470301Y-2210722D02*
X1479824Y-2191674D01*
X1479824Y-2191674D02*
X1498872Y-2182150D01*
X1498872Y-2182150D02*
X1527443Y-2182150D01*
X1527443Y-2182150D02*
X1546491Y-2191674D01*
X1546491Y-2191674D02*
X1556015Y-2210722D01*
X1556015Y-2210722D02*
X1556015Y-2315484D01*
X1946491Y-2105960D02*
X1775063Y-2363103D01*
X2203634Y-2115484D02*
X2222682Y-2115484D01*
X2222682Y-2115484D02*
X2241729Y-2125008D01*
X2241729Y-2125008D02*
X2251253Y-2134531D01*
X2251253Y-2134531D02*
X2260777Y-2153579D01*
X2260777Y-2153579D02*
X2270301Y-2191674D01*
X2270301Y-2191674D02*
X2270301Y-2239293D01*
X2270301Y-2239293D02*
X2260777Y-2277389D01*
X2260777Y-2277389D02*
X2251253Y-2296436D01*
X2251253Y-2296436D02*
X2241729Y-2305960D01*
X2241729Y-2305960D02*
X2222682Y-2315484D01*
X2222682Y-2315484D02*
X2203634Y-2315484D01*
X2203634Y-2315484D02*
X2184587Y-2305960D01*
X2184587Y-2305960D02*
X2175063Y-2296436D01*
X2175063Y-2296436D02*
X2165539Y-2277389D01*
X2165539Y-2277389D02*
X2156015Y-2239293D01*
X2156015Y-2239293D02*
X2156015Y-2191674D01*
X2156015Y-2191674D02*
X2165539Y-2153579D01*
X2165539Y-2153579D02*
X2175063Y-2134531D01*
X2175063Y-2134531D02*
X2184587Y-2125008D01*
X2184587Y-2125008D02*
X2203634Y-2115484D01*
X2356015Y-2296436D02*
X2365539Y-2305960D01*
X2365539Y-2305960D02*
X2356015Y-2315484D01*
X2356015Y-2315484D02*
X2346491Y-2305960D01*
X2346491Y-2305960D02*
X2356015Y-2296436D01*
X2356015Y-2296436D02*
X2356015Y-2315484D01*
X2489348Y-2115484D02*
X2508396Y-2115484D01*
X2508396Y-2115484D02*
X2527444Y-2125008D01*
X2527444Y-2125008D02*
X2536968Y-2134531D01*
X2536968Y-2134531D02*
X2546491Y-2153579D01*
X2546491Y-2153579D02*
X2556015Y-2191674D01*
X2556015Y-2191674D02*
X2556015Y-2239293D01*
X2556015Y-2239293D02*
X2546491Y-2277389D01*
X2546491Y-2277389D02*
X2536968Y-2296436D01*
X2536968Y-2296436D02*
X2527444Y-2305960D01*
X2527444Y-2305960D02*
X2508396Y-2315484D01*
X2508396Y-2315484D02*
X2489348Y-2315484D01*
X2489348Y-2315484D02*
X2470301Y-2305960D01*
X2470301Y-2305960D02*
X2460777Y-2296436D01*
X2460777Y-2296436D02*
X2451253Y-2277389D01*
X2451253Y-2277389D02*
X2441729Y-2239293D01*
X2441729Y-2239293D02*
X2441729Y-2191674D01*
X2441729Y-2191674D02*
X2451253Y-2153579D01*
X2451253Y-2153579D02*
X2460777Y-2134531D01*
X2460777Y-2134531D02*
X2470301Y-2125008D01*
X2470301Y-2125008D02*
X2489348Y-2115484D01*
X2727444Y-2182150D02*
X2727444Y-2315484D01*
X2679825Y-2105960D02*
X2632206Y-2248817D01*
X2632206Y-2248817D02*
X2756015Y-2248817D01*
X2927444Y-2115484D02*
X2832206Y-2115484D01*
X2832206Y-2115484D02*
X2822682Y-2210722D01*
X2822682Y-2210722D02*
X2832206Y-2201198D01*
X2832206Y-2201198D02*
X2851253Y-2191674D01*
X2851253Y-2191674D02*
X2898872Y-2191674D01*
X2898872Y-2191674D02*
X2917920Y-2201198D01*
X2917920Y-2201198D02*
X2927444Y-2210722D01*
X2927444Y-2210722D02*
X2936967Y-2229770D01*
X2936967Y-2229770D02*
X2936967Y-2277389D01*
X2936967Y-2277389D02*
X2927444Y-2296436D01*
X2927444Y-2296436D02*
X2917920Y-2305960D01*
X2917920Y-2305960D02*
X2898872Y-2315484D01*
X2898872Y-2315484D02*
X2851253Y-2315484D01*
X2851253Y-2315484D02*
X2832206Y-2305960D01*
X2832206Y-2305960D02*
X2822682Y-2296436D01*
X3060777Y-2115484D02*
X3079825Y-2115484D01*
X3079825Y-2115484D02*
X3098872Y-2125008D01*
X3098872Y-2125008D02*
X3108396Y-2134531D01*
X3108396Y-2134531D02*
X3117920Y-2153579D01*
X3117920Y-2153579D02*
X3127444Y-2191674D01*
X3127444Y-2191674D02*
X3127444Y-2239293D01*
X3127444Y-2239293D02*
X3117920Y-2277389D01*
X3117920Y-2277389D02*
X3108396Y-2296436D01*
X3108396Y-2296436D02*
X3098872Y-2305960D01*
X3098872Y-2305960D02*
X3079825Y-2315484D01*
X3079825Y-2315484D02*
X3060777Y-2315484D01*
X3060777Y-2315484D02*
X3041729Y-2305960D01*
X3041729Y-2305960D02*
X3032206Y-2296436D01*
X3032206Y-2296436D02*
X3022682Y-2277389D01*
X3022682Y-2277389D02*
X3013158Y-2239293D01*
X3013158Y-2239293D02*
X3013158Y-2191674D01*
X3013158Y-2191674D02*
X3022682Y-2153579D01*
X3022682Y-2153579D02*
X3032206Y-2134531D01*
X3032206Y-2134531D02*
X3041729Y-2125008D01*
X3041729Y-2125008D02*
X3060777Y-2115484D01*
X3203634Y-2115484D02*
X3203634Y-2153579D01*
X3279825Y-2115484D02*
X3279825Y-2153579D01*
X3575063Y-2391674D02*
X3565539Y-2382150D01*
X3565539Y-2382150D02*
X3546491Y-2353579D01*
X3546491Y-2353579D02*
X3536968Y-2334531D01*
X3536968Y-2334531D02*
X3527444Y-2305960D01*
X3527444Y-2305960D02*
X3517920Y-2258341D01*
X3517920Y-2258341D02*
X3517920Y-2220246D01*
X3517920Y-2220246D02*
X3527444Y-2172627D01*
X3527444Y-2172627D02*
X3536968Y-2144055D01*
X3536968Y-2144055D02*
X3546491Y-2125008D01*
X3546491Y-2125008D02*
X3565539Y-2096436D01*
X3565539Y-2096436D02*
X3575063Y-2086912D01*
X3756015Y-2315484D02*
X3641729Y-2315484D01*
X3698872Y-2315484D02*
X3698872Y-2115484D01*
X3698872Y-2115484D02*
X3679825Y-2144055D01*
X3679825Y-2144055D02*
X3660777Y-2163103D01*
X3660777Y-2163103D02*
X3641729Y-2172627D01*
X3832206Y-2134531D02*
X3841729Y-2125008D01*
X3841729Y-2125008D02*
X3860777Y-2115484D01*
X3860777Y-2115484D02*
X3908396Y-2115484D01*
X3908396Y-2115484D02*
X3927444Y-2125008D01*
X3927444Y-2125008D02*
X3936968Y-2134531D01*
X3936968Y-2134531D02*
X3946491Y-2153579D01*
X3946491Y-2153579D02*
X3946491Y-2172627D01*
X3946491Y-2172627D02*
X3936968Y-2201198D01*
X3936968Y-2201198D02*
X3822682Y-2315484D01*
X3822682Y-2315484D02*
X3946491Y-2315484D01*
X4184587Y-2315484D02*
X4184587Y-2115484D01*
X4270301Y-2315484D02*
X4270301Y-2210722D01*
X4270301Y-2210722D02*
X4260777Y-2191674D01*
X4260777Y-2191674D02*
X4241730Y-2182150D01*
X4241730Y-2182150D02*
X4213158Y-2182150D01*
X4213158Y-2182150D02*
X4194110Y-2191674D01*
X4194110Y-2191674D02*
X4184587Y-2201198D01*
X4394111Y-2315484D02*
X4375063Y-2305960D01*
X4375063Y-2305960D02*
X4365539Y-2296436D01*
X4365539Y-2296436D02*
X4356015Y-2277389D01*
X4356015Y-2277389D02*
X4356015Y-2220246D01*
X4356015Y-2220246D02*
X4365539Y-2201198D01*
X4365539Y-2201198D02*
X4375063Y-2191674D01*
X4375063Y-2191674D02*
X4394111Y-2182150D01*
X4394111Y-2182150D02*
X4422682Y-2182150D01*
X4422682Y-2182150D02*
X4441730Y-2191674D01*
X4441730Y-2191674D02*
X4451253Y-2201198D01*
X4451253Y-2201198D02*
X4460777Y-2220246D01*
X4460777Y-2220246D02*
X4460777Y-2277389D01*
X4460777Y-2277389D02*
X4451253Y-2296436D01*
X4451253Y-2296436D02*
X4441730Y-2305960D01*
X4441730Y-2305960D02*
X4422682Y-2315484D01*
X4422682Y-2315484D02*
X4394111Y-2315484D01*
X4575063Y-2315484D02*
X4556015Y-2305960D01*
X4556015Y-2305960D02*
X4546492Y-2286912D01*
X4546492Y-2286912D02*
X4546492Y-2115484D01*
X4727444Y-2305960D02*
X4708396Y-2315484D01*
X4708396Y-2315484D02*
X4670301Y-2315484D01*
X4670301Y-2315484D02*
X4651253Y-2305960D01*
X4651253Y-2305960D02*
X4641730Y-2286912D01*
X4641730Y-2286912D02*
X4641730Y-2210722D01*
X4641730Y-2210722D02*
X4651253Y-2191674D01*
X4651253Y-2191674D02*
X4670301Y-2182150D01*
X4670301Y-2182150D02*
X4708396Y-2182150D01*
X4708396Y-2182150D02*
X4727444Y-2191674D01*
X4727444Y-2191674D02*
X4736968Y-2210722D01*
X4736968Y-2210722D02*
X4736968Y-2229770D01*
X4736968Y-2229770D02*
X4641730Y-2248817D01*
X4813158Y-2305960D02*
X4832206Y-2315484D01*
X4832206Y-2315484D02*
X4870301Y-2315484D01*
X4870301Y-2315484D02*
X4889349Y-2305960D01*
X4889349Y-2305960D02*
X4898873Y-2286912D01*
X4898873Y-2286912D02*
X4898873Y-2277389D01*
X4898873Y-2277389D02*
X4889349Y-2258341D01*
X4889349Y-2258341D02*
X4870301Y-2248817D01*
X4870301Y-2248817D02*
X4841730Y-2248817D01*
X4841730Y-2248817D02*
X4822682Y-2239293D01*
X4822682Y-2239293D02*
X4813158Y-2220246D01*
X4813158Y-2220246D02*
X4813158Y-2210722D01*
X4813158Y-2210722D02*
X4822682Y-2191674D01*
X4822682Y-2191674D02*
X4841730Y-2182150D01*
X4841730Y-2182150D02*
X4870301Y-2182150D01*
X4870301Y-2182150D02*
X4889349Y-2191674D01*
X4965539Y-2391674D02*
X4975063Y-2382150D01*
X4975063Y-2382150D02*
X4994111Y-2353579D01*
X4994111Y-2353579D02*
X5003634Y-2334531D01*
X5003634Y-2334531D02*
X5013158Y-2305960D01*
X5013158Y-2305960D02*
X5022682Y-2258341D01*
X5022682Y-2258341D02*
X5022682Y-2220246D01*
X5022682Y-2220246D02*
X5013158Y-2172627D01*
X5013158Y-2172627D02*
X5003634Y-2144055D01*
X5003634Y-2144055D02*
X4994111Y-2125008D01*
X4994111Y-2125008D02*
X4975063Y-2096436D01*
X4975063Y-2096436D02*
X4965539Y-2086912D01*
D16*
X-120000Y-2428000D02*
X0Y-2548000D01*
X0Y-2428000D02*
X-120000Y-2548000D01*
X-17573Y-2530427D02*
X-17573Y-2445573D01*
X-102427Y-2445573D01*
X-102427Y-2530427D01*
X-17573Y-2530427D01*
D10*
X365539Y-2579484D02*
X251253Y-2579484D01*
X308396Y-2579484D02*
X308396Y-2379484D01*
X308396Y-2379484D02*
X289348Y-2408055D01*
X289348Y-2408055D02*
X270301Y-2427103D01*
X270301Y-2427103D02*
X251253Y-2436627D01*
X451253Y-2560436D02*
X460777Y-2569960D01*
X460777Y-2569960D02*
X451253Y-2579484D01*
X451253Y-2579484D02*
X441729Y-2569960D01*
X441729Y-2569960D02*
X451253Y-2560436D01*
X451253Y-2560436D02*
X451253Y-2579484D01*
X536967Y-2398531D02*
X546491Y-2389008D01*
X546491Y-2389008D02*
X565539Y-2379484D01*
X565539Y-2379484D02*
X613158Y-2379484D01*
X613158Y-2379484D02*
X632205Y-2389008D01*
X632205Y-2389008D02*
X641729Y-2398531D01*
X641729Y-2398531D02*
X651253Y-2417579D01*
X651253Y-2417579D02*
X651253Y-2436627D01*
X651253Y-2436627D02*
X641729Y-2465198D01*
X641729Y-2465198D02*
X527444Y-2579484D01*
X527444Y-2579484D02*
X651253Y-2579484D01*
X775062Y-2379484D02*
X794110Y-2379484D01*
X794110Y-2379484D02*
X813158Y-2389008D01*
X813158Y-2389008D02*
X822682Y-2398531D01*
X822682Y-2398531D02*
X832205Y-2417579D01*
X832205Y-2417579D02*
X841729Y-2455674D01*
X841729Y-2455674D02*
X841729Y-2503293D01*
X841729Y-2503293D02*
X832205Y-2541389D01*
X832205Y-2541389D02*
X822682Y-2560436D01*
X822682Y-2560436D02*
X813158Y-2569960D01*
X813158Y-2569960D02*
X794110Y-2579484D01*
X794110Y-2579484D02*
X775062Y-2579484D01*
X775062Y-2579484D02*
X756015Y-2569960D01*
X756015Y-2569960D02*
X746491Y-2560436D01*
X746491Y-2560436D02*
X736967Y-2541389D01*
X736967Y-2541389D02*
X727443Y-2503293D01*
X727443Y-2503293D02*
X727443Y-2455674D01*
X727443Y-2455674D02*
X736967Y-2417579D01*
X736967Y-2417579D02*
X746491Y-2398531D01*
X746491Y-2398531D02*
X756015Y-2389008D01*
X756015Y-2389008D02*
X775062Y-2379484D01*
X965539Y-2379484D02*
X984586Y-2379484D01*
X984586Y-2379484D02*
X1003634Y-2389008D01*
X1003634Y-2389008D02*
X1013158Y-2398531D01*
X1013158Y-2398531D02*
X1022682Y-2417579D01*
X1022682Y-2417579D02*
X1032205Y-2455674D01*
X1032205Y-2455674D02*
X1032205Y-2503293D01*
X1032205Y-2503293D02*
X1022682Y-2541389D01*
X1022682Y-2541389D02*
X1013158Y-2560436D01*
X1013158Y-2560436D02*
X1003634Y-2569960D01*
X1003634Y-2569960D02*
X984586Y-2579484D01*
X984586Y-2579484D02*
X965539Y-2579484D01*
X965539Y-2579484D02*
X946491Y-2569960D01*
X946491Y-2569960D02*
X936967Y-2560436D01*
X936967Y-2560436D02*
X927443Y-2541389D01*
X927443Y-2541389D02*
X917920Y-2503293D01*
X917920Y-2503293D02*
X917920Y-2455674D01*
X917920Y-2455674D02*
X927443Y-2417579D01*
X927443Y-2417579D02*
X936967Y-2398531D01*
X936967Y-2398531D02*
X946491Y-2389008D01*
X946491Y-2389008D02*
X965539Y-2379484D01*
X1117920Y-2579484D02*
X1117920Y-2446150D01*
X1117920Y-2465198D02*
X1127444Y-2455674D01*
X1127444Y-2455674D02*
X1146491Y-2446150D01*
X1146491Y-2446150D02*
X1175063Y-2446150D01*
X1175063Y-2446150D02*
X1194110Y-2455674D01*
X1194110Y-2455674D02*
X1203634Y-2474722D01*
X1203634Y-2474722D02*
X1203634Y-2579484D01*
X1203634Y-2474722D02*
X1213158Y-2455674D01*
X1213158Y-2455674D02*
X1232205Y-2446150D01*
X1232205Y-2446150D02*
X1260777Y-2446150D01*
X1260777Y-2446150D02*
X1279825Y-2455674D01*
X1279825Y-2455674D02*
X1289348Y-2474722D01*
X1289348Y-2474722D02*
X1289348Y-2579484D01*
X1384586Y-2579484D02*
X1384586Y-2446150D01*
X1384586Y-2465198D02*
X1394110Y-2455674D01*
X1394110Y-2455674D02*
X1413158Y-2446150D01*
X1413158Y-2446150D02*
X1441729Y-2446150D01*
X1441729Y-2446150D02*
X1460777Y-2455674D01*
X1460777Y-2455674D02*
X1470301Y-2474722D01*
X1470301Y-2474722D02*
X1470301Y-2579484D01*
X1470301Y-2474722D02*
X1479824Y-2455674D01*
X1479824Y-2455674D02*
X1498872Y-2446150D01*
X1498872Y-2446150D02*
X1527443Y-2446150D01*
X1527443Y-2446150D02*
X1546491Y-2455674D01*
X1546491Y-2455674D02*
X1556015Y-2474722D01*
X1556015Y-2474722D02*
X1556015Y-2579484D01*
X1946491Y-2369960D02*
X1775063Y-2627103D01*
X2203634Y-2379484D02*
X2222682Y-2379484D01*
X2222682Y-2379484D02*
X2241729Y-2389008D01*
X2241729Y-2389008D02*
X2251253Y-2398531D01*
X2251253Y-2398531D02*
X2260777Y-2417579D01*
X2260777Y-2417579D02*
X2270301Y-2455674D01*
X2270301Y-2455674D02*
X2270301Y-2503293D01*
X2270301Y-2503293D02*
X2260777Y-2541389D01*
X2260777Y-2541389D02*
X2251253Y-2560436D01*
X2251253Y-2560436D02*
X2241729Y-2569960D01*
X2241729Y-2569960D02*
X2222682Y-2579484D01*
X2222682Y-2579484D02*
X2203634Y-2579484D01*
X2203634Y-2579484D02*
X2184587Y-2569960D01*
X2184587Y-2569960D02*
X2175063Y-2560436D01*
X2175063Y-2560436D02*
X2165539Y-2541389D01*
X2165539Y-2541389D02*
X2156015Y-2503293D01*
X2156015Y-2503293D02*
X2156015Y-2455674D01*
X2156015Y-2455674D02*
X2165539Y-2417579D01*
X2165539Y-2417579D02*
X2175063Y-2398531D01*
X2175063Y-2398531D02*
X2184587Y-2389008D01*
X2184587Y-2389008D02*
X2203634Y-2379484D01*
X2356015Y-2560436D02*
X2365539Y-2569960D01*
X2365539Y-2569960D02*
X2356015Y-2579484D01*
X2356015Y-2579484D02*
X2346491Y-2569960D01*
X2346491Y-2569960D02*
X2356015Y-2560436D01*
X2356015Y-2560436D02*
X2356015Y-2579484D01*
X2489348Y-2379484D02*
X2508396Y-2379484D01*
X2508396Y-2379484D02*
X2527444Y-2389008D01*
X2527444Y-2389008D02*
X2536968Y-2398531D01*
X2536968Y-2398531D02*
X2546491Y-2417579D01*
X2546491Y-2417579D02*
X2556015Y-2455674D01*
X2556015Y-2455674D02*
X2556015Y-2503293D01*
X2556015Y-2503293D02*
X2546491Y-2541389D01*
X2546491Y-2541389D02*
X2536968Y-2560436D01*
X2536968Y-2560436D02*
X2527444Y-2569960D01*
X2527444Y-2569960D02*
X2508396Y-2579484D01*
X2508396Y-2579484D02*
X2489348Y-2579484D01*
X2489348Y-2579484D02*
X2470301Y-2569960D01*
X2470301Y-2569960D02*
X2460777Y-2560436D01*
X2460777Y-2560436D02*
X2451253Y-2541389D01*
X2451253Y-2541389D02*
X2441729Y-2503293D01*
X2441729Y-2503293D02*
X2441729Y-2455674D01*
X2441729Y-2455674D02*
X2451253Y-2417579D01*
X2451253Y-2417579D02*
X2460777Y-2398531D01*
X2460777Y-2398531D02*
X2470301Y-2389008D01*
X2470301Y-2389008D02*
X2489348Y-2379484D01*
X2727444Y-2446150D02*
X2727444Y-2579484D01*
X2679825Y-2369960D02*
X2632206Y-2512817D01*
X2632206Y-2512817D02*
X2756015Y-2512817D01*
X2813158Y-2379484D02*
X2946491Y-2379484D01*
X2946491Y-2379484D02*
X2860777Y-2579484D01*
X3013158Y-2398531D02*
X3022682Y-2389008D01*
X3022682Y-2389008D02*
X3041729Y-2379484D01*
X3041729Y-2379484D02*
X3089348Y-2379484D01*
X3089348Y-2379484D02*
X3108396Y-2389008D01*
X3108396Y-2389008D02*
X3117920Y-2398531D01*
X3117920Y-2398531D02*
X3127444Y-2417579D01*
X3127444Y-2417579D02*
X3127444Y-2436627D01*
X3127444Y-2436627D02*
X3117920Y-2465198D01*
X3117920Y-2465198D02*
X3003634Y-2579484D01*
X3003634Y-2579484D02*
X3127444Y-2579484D01*
X3203634Y-2379484D02*
X3203634Y-2417579D01*
X3279825Y-2379484D02*
X3279825Y-2417579D01*
X3575063Y-2655674D02*
X3565539Y-2646150D01*
X3565539Y-2646150D02*
X3546491Y-2617579D01*
X3546491Y-2617579D02*
X3536968Y-2598531D01*
X3536968Y-2598531D02*
X3527444Y-2569960D01*
X3527444Y-2569960D02*
X3517920Y-2522341D01*
X3517920Y-2522341D02*
X3517920Y-2484246D01*
X3517920Y-2484246D02*
X3527444Y-2436627D01*
X3527444Y-2436627D02*
X3536968Y-2408055D01*
X3536968Y-2408055D02*
X3546491Y-2389008D01*
X3546491Y-2389008D02*
X3565539Y-2360436D01*
X3565539Y-2360436D02*
X3575063Y-2350912D01*
X3746491Y-2379484D02*
X3651253Y-2379484D01*
X3651253Y-2379484D02*
X3641729Y-2474722D01*
X3641729Y-2474722D02*
X3651253Y-2465198D01*
X3651253Y-2465198D02*
X3670301Y-2455674D01*
X3670301Y-2455674D02*
X3717920Y-2455674D01*
X3717920Y-2455674D02*
X3736968Y-2465198D01*
X3736968Y-2465198D02*
X3746491Y-2474722D01*
X3746491Y-2474722D02*
X3756015Y-2493770D01*
X3756015Y-2493770D02*
X3756015Y-2541389D01*
X3756015Y-2541389D02*
X3746491Y-2560436D01*
X3746491Y-2560436D02*
X3736968Y-2569960D01*
X3736968Y-2569960D02*
X3717920Y-2579484D01*
X3717920Y-2579484D02*
X3670301Y-2579484D01*
X3670301Y-2579484D02*
X3651253Y-2569960D01*
X3651253Y-2569960D02*
X3641729Y-2560436D01*
X3832206Y-2398531D02*
X3841729Y-2389008D01*
X3841729Y-2389008D02*
X3860777Y-2379484D01*
X3860777Y-2379484D02*
X3908396Y-2379484D01*
X3908396Y-2379484D02*
X3927444Y-2389008D01*
X3927444Y-2389008D02*
X3936968Y-2398531D01*
X3936968Y-2398531D02*
X3946491Y-2417579D01*
X3946491Y-2417579D02*
X3946491Y-2436627D01*
X3946491Y-2436627D02*
X3936968Y-2465198D01*
X3936968Y-2465198D02*
X3822682Y-2579484D01*
X3822682Y-2579484D02*
X3946491Y-2579484D01*
X4184587Y-2579484D02*
X4184587Y-2379484D01*
X4270301Y-2579484D02*
X4270301Y-2474722D01*
X4270301Y-2474722D02*
X4260777Y-2455674D01*
X4260777Y-2455674D02*
X4241730Y-2446150D01*
X4241730Y-2446150D02*
X4213158Y-2446150D01*
X4213158Y-2446150D02*
X4194110Y-2455674D01*
X4194110Y-2455674D02*
X4184587Y-2465198D01*
X4394111Y-2579484D02*
X4375063Y-2569960D01*
X4375063Y-2569960D02*
X4365539Y-2560436D01*
X4365539Y-2560436D02*
X4356015Y-2541389D01*
X4356015Y-2541389D02*
X4356015Y-2484246D01*
X4356015Y-2484246D02*
X4365539Y-2465198D01*
X4365539Y-2465198D02*
X4375063Y-2455674D01*
X4375063Y-2455674D02*
X4394111Y-2446150D01*
X4394111Y-2446150D02*
X4422682Y-2446150D01*
X4422682Y-2446150D02*
X4441730Y-2455674D01*
X4441730Y-2455674D02*
X4451253Y-2465198D01*
X4451253Y-2465198D02*
X4460777Y-2484246D01*
X4460777Y-2484246D02*
X4460777Y-2541389D01*
X4460777Y-2541389D02*
X4451253Y-2560436D01*
X4451253Y-2560436D02*
X4441730Y-2569960D01*
X4441730Y-2569960D02*
X4422682Y-2579484D01*
X4422682Y-2579484D02*
X4394111Y-2579484D01*
X4575063Y-2579484D02*
X4556015Y-2569960D01*
X4556015Y-2569960D02*
X4546492Y-2550912D01*
X4546492Y-2550912D02*
X4546492Y-2379484D01*
X4727444Y-2569960D02*
X4708396Y-2579484D01*
X4708396Y-2579484D02*
X4670301Y-2579484D01*
X4670301Y-2579484D02*
X4651253Y-2569960D01*
X4651253Y-2569960D02*
X4641730Y-2550912D01*
X4641730Y-2550912D02*
X4641730Y-2474722D01*
X4641730Y-2474722D02*
X4651253Y-2455674D01*
X4651253Y-2455674D02*
X4670301Y-2446150D01*
X4670301Y-2446150D02*
X4708396Y-2446150D01*
X4708396Y-2446150D02*
X4727444Y-2455674D01*
X4727444Y-2455674D02*
X4736968Y-2474722D01*
X4736968Y-2474722D02*
X4736968Y-2493770D01*
X4736968Y-2493770D02*
X4641730Y-2512817D01*
X4813158Y-2569960D02*
X4832206Y-2579484D01*
X4832206Y-2579484D02*
X4870301Y-2579484D01*
X4870301Y-2579484D02*
X4889349Y-2569960D01*
X4889349Y-2569960D02*
X4898873Y-2550912D01*
X4898873Y-2550912D02*
X4898873Y-2541389D01*
X4898873Y-2541389D02*
X4889349Y-2522341D01*
X4889349Y-2522341D02*
X4870301Y-2512817D01*
X4870301Y-2512817D02*
X4841730Y-2512817D01*
X4841730Y-2512817D02*
X4822682Y-2503293D01*
X4822682Y-2503293D02*
X4813158Y-2484246D01*
X4813158Y-2484246D02*
X4813158Y-2474722D01*
X4813158Y-2474722D02*
X4822682Y-2455674D01*
X4822682Y-2455674D02*
X4841730Y-2446150D01*
X4841730Y-2446150D02*
X4870301Y-2446150D01*
X4870301Y-2446150D02*
X4889349Y-2455674D01*
X4965539Y-2655674D02*
X4975063Y-2646150D01*
X4975063Y-2646150D02*
X4994111Y-2617579D01*
X4994111Y-2617579D02*
X5003634Y-2598531D01*
X5003634Y-2598531D02*
X5013158Y-2569960D01*
X5013158Y-2569960D02*
X5022682Y-2522341D01*
X5022682Y-2522341D02*
X5022682Y-2484246D01*
X5022682Y-2484246D02*
X5013158Y-2436627D01*
X5013158Y-2436627D02*
X5003634Y-2408055D01*
X5003634Y-2408055D02*
X4994111Y-2389008D01*
X4994111Y-2389008D02*
X4975063Y-2360436D01*
X4975063Y-2360436D02*
X4965539Y-2350912D01*
D17*
X-130000Y-2687000D02*
X0Y-2817000D01*
X0Y-2687000D02*
X-130000Y-2817000D01*
X-65000Y-2817000D02*
X0Y-2752000D01*
X-65000Y-2687000D01*
X-130000Y-2752000D01*
X-65000Y-2817000D01*
D10*
X365539Y-2843484D02*
X251253Y-2843484D01*
X308396Y-2843484D02*
X308396Y-2643484D01*
X308396Y-2643484D02*
X289348Y-2672055D01*
X289348Y-2672055D02*
X270301Y-2691103D01*
X270301Y-2691103D02*
X251253Y-2700627D01*
X451253Y-2824436D02*
X460777Y-2833960D01*
X460777Y-2833960D02*
X451253Y-2843484D01*
X451253Y-2843484D02*
X441729Y-2833960D01*
X441729Y-2833960D02*
X451253Y-2824436D01*
X451253Y-2824436D02*
X451253Y-2843484D01*
X527444Y-2643484D02*
X651253Y-2643484D01*
X651253Y-2643484D02*
X584586Y-2719674D01*
X584586Y-2719674D02*
X613158Y-2719674D01*
X613158Y-2719674D02*
X632205Y-2729198D01*
X632205Y-2729198D02*
X641729Y-2738722D01*
X641729Y-2738722D02*
X651253Y-2757770D01*
X651253Y-2757770D02*
X651253Y-2805388D01*
X651253Y-2805388D02*
X641729Y-2824436D01*
X641729Y-2824436D02*
X632205Y-2833960D01*
X632205Y-2833960D02*
X613158Y-2843484D01*
X613158Y-2843484D02*
X556015Y-2843484D01*
X556015Y-2843484D02*
X536967Y-2833960D01*
X536967Y-2833960D02*
X527444Y-2824436D01*
X775062Y-2643484D02*
X794110Y-2643484D01*
X794110Y-2643484D02*
X813158Y-2653008D01*
X813158Y-2653008D02*
X822682Y-2662531D01*
X822682Y-2662531D02*
X832205Y-2681579D01*
X832205Y-2681579D02*
X841729Y-2719674D01*
X841729Y-2719674D02*
X841729Y-2767293D01*
X841729Y-2767293D02*
X832205Y-2805388D01*
X832205Y-2805388D02*
X822682Y-2824436D01*
X822682Y-2824436D02*
X813158Y-2833960D01*
X813158Y-2833960D02*
X794110Y-2843484D01*
X794110Y-2843484D02*
X775062Y-2843484D01*
X775062Y-2843484D02*
X756015Y-2833960D01*
X756015Y-2833960D02*
X746491Y-2824436D01*
X746491Y-2824436D02*
X736967Y-2805388D01*
X736967Y-2805388D02*
X727443Y-2767293D01*
X727443Y-2767293D02*
X727443Y-2719674D01*
X727443Y-2719674D02*
X736967Y-2681579D01*
X736967Y-2681579D02*
X746491Y-2662531D01*
X746491Y-2662531D02*
X756015Y-2653008D01*
X756015Y-2653008D02*
X775062Y-2643484D01*
X965539Y-2643484D02*
X984586Y-2643484D01*
X984586Y-2643484D02*
X1003634Y-2653008D01*
X1003634Y-2653008D02*
X1013158Y-2662531D01*
X1013158Y-2662531D02*
X1022682Y-2681579D01*
X1022682Y-2681579D02*
X1032205Y-2719674D01*
X1032205Y-2719674D02*
X1032205Y-2767293D01*
X1032205Y-2767293D02*
X1022682Y-2805388D01*
X1022682Y-2805388D02*
X1013158Y-2824436D01*
X1013158Y-2824436D02*
X1003634Y-2833960D01*
X1003634Y-2833960D02*
X984586Y-2843484D01*
X984586Y-2843484D02*
X965539Y-2843484D01*
X965539Y-2843484D02*
X946491Y-2833960D01*
X946491Y-2833960D02*
X936967Y-2824436D01*
X936967Y-2824436D02*
X927443Y-2805388D01*
X927443Y-2805388D02*
X917920Y-2767293D01*
X917920Y-2767293D02*
X917920Y-2719674D01*
X917920Y-2719674D02*
X927443Y-2681579D01*
X927443Y-2681579D02*
X936967Y-2662531D01*
X936967Y-2662531D02*
X946491Y-2653008D01*
X946491Y-2653008D02*
X965539Y-2643484D01*
X1117920Y-2843484D02*
X1117920Y-2710150D01*
X1117920Y-2729198D02*
X1127444Y-2719674D01*
X1127444Y-2719674D02*
X1146491Y-2710150D01*
X1146491Y-2710150D02*
X1175063Y-2710150D01*
X1175063Y-2710150D02*
X1194110Y-2719674D01*
X1194110Y-2719674D02*
X1203634Y-2738722D01*
X1203634Y-2738722D02*
X1203634Y-2843484D01*
X1203634Y-2738722D02*
X1213158Y-2719674D01*
X1213158Y-2719674D02*
X1232205Y-2710150D01*
X1232205Y-2710150D02*
X1260777Y-2710150D01*
X1260777Y-2710150D02*
X1279825Y-2719674D01*
X1279825Y-2719674D02*
X1289348Y-2738722D01*
X1289348Y-2738722D02*
X1289348Y-2843484D01*
X1384586Y-2843484D02*
X1384586Y-2710150D01*
X1384586Y-2729198D02*
X1394110Y-2719674D01*
X1394110Y-2719674D02*
X1413158Y-2710150D01*
X1413158Y-2710150D02*
X1441729Y-2710150D01*
X1441729Y-2710150D02*
X1460777Y-2719674D01*
X1460777Y-2719674D02*
X1470301Y-2738722D01*
X1470301Y-2738722D02*
X1470301Y-2843484D01*
X1470301Y-2738722D02*
X1479824Y-2719674D01*
X1479824Y-2719674D02*
X1498872Y-2710150D01*
X1498872Y-2710150D02*
X1527443Y-2710150D01*
X1527443Y-2710150D02*
X1546491Y-2719674D01*
X1546491Y-2719674D02*
X1556015Y-2738722D01*
X1556015Y-2738722D02*
X1556015Y-2843484D01*
X1946491Y-2633960D02*
X1775063Y-2891103D01*
X2203634Y-2643484D02*
X2222682Y-2643484D01*
X2222682Y-2643484D02*
X2241729Y-2653008D01*
X2241729Y-2653008D02*
X2251253Y-2662531D01*
X2251253Y-2662531D02*
X2260777Y-2681579D01*
X2260777Y-2681579D02*
X2270301Y-2719674D01*
X2270301Y-2719674D02*
X2270301Y-2767293D01*
X2270301Y-2767293D02*
X2260777Y-2805388D01*
X2260777Y-2805388D02*
X2251253Y-2824436D01*
X2251253Y-2824436D02*
X2241729Y-2833960D01*
X2241729Y-2833960D02*
X2222682Y-2843484D01*
X2222682Y-2843484D02*
X2203634Y-2843484D01*
X2203634Y-2843484D02*
X2184587Y-2833960D01*
X2184587Y-2833960D02*
X2175063Y-2824436D01*
X2175063Y-2824436D02*
X2165539Y-2805388D01*
X2165539Y-2805388D02*
X2156015Y-2767293D01*
X2156015Y-2767293D02*
X2156015Y-2719674D01*
X2156015Y-2719674D02*
X2165539Y-2681579D01*
X2165539Y-2681579D02*
X2175063Y-2662531D01*
X2175063Y-2662531D02*
X2184587Y-2653008D01*
X2184587Y-2653008D02*
X2203634Y-2643484D01*
X2356015Y-2824436D02*
X2365539Y-2833960D01*
X2365539Y-2833960D02*
X2356015Y-2843484D01*
X2356015Y-2843484D02*
X2346491Y-2833960D01*
X2346491Y-2833960D02*
X2356015Y-2824436D01*
X2356015Y-2824436D02*
X2356015Y-2843484D01*
X2489348Y-2643484D02*
X2508396Y-2643484D01*
X2508396Y-2643484D02*
X2527444Y-2653008D01*
X2527444Y-2653008D02*
X2536968Y-2662531D01*
X2536968Y-2662531D02*
X2546491Y-2681579D01*
X2546491Y-2681579D02*
X2556015Y-2719674D01*
X2556015Y-2719674D02*
X2556015Y-2767293D01*
X2556015Y-2767293D02*
X2546491Y-2805388D01*
X2546491Y-2805388D02*
X2536968Y-2824436D01*
X2536968Y-2824436D02*
X2527444Y-2833960D01*
X2527444Y-2833960D02*
X2508396Y-2843484D01*
X2508396Y-2843484D02*
X2489348Y-2843484D01*
X2489348Y-2843484D02*
X2470301Y-2833960D01*
X2470301Y-2833960D02*
X2460777Y-2824436D01*
X2460777Y-2824436D02*
X2451253Y-2805388D01*
X2451253Y-2805388D02*
X2441729Y-2767293D01*
X2441729Y-2767293D02*
X2441729Y-2719674D01*
X2441729Y-2719674D02*
X2451253Y-2681579D01*
X2451253Y-2681579D02*
X2460777Y-2662531D01*
X2460777Y-2662531D02*
X2470301Y-2653008D01*
X2470301Y-2653008D02*
X2489348Y-2643484D01*
X2736968Y-2643484D02*
X2641729Y-2643484D01*
X2641729Y-2643484D02*
X2632206Y-2738722D01*
X2632206Y-2738722D02*
X2641729Y-2729198D01*
X2641729Y-2729198D02*
X2660777Y-2719674D01*
X2660777Y-2719674D02*
X2708396Y-2719674D01*
X2708396Y-2719674D02*
X2727444Y-2729198D01*
X2727444Y-2729198D02*
X2736968Y-2738722D01*
X2736968Y-2738722D02*
X2746491Y-2757770D01*
X2746491Y-2757770D02*
X2746491Y-2805388D01*
X2746491Y-2805388D02*
X2736968Y-2824436D01*
X2736968Y-2824436D02*
X2727444Y-2833960D01*
X2727444Y-2833960D02*
X2708396Y-2843484D01*
X2708396Y-2843484D02*
X2660777Y-2843484D01*
X2660777Y-2843484D02*
X2641729Y-2833960D01*
X2641729Y-2833960D02*
X2632206Y-2824436D01*
X2936967Y-2843484D02*
X2822682Y-2843484D01*
X2879825Y-2843484D02*
X2879825Y-2643484D01*
X2879825Y-2643484D02*
X2860777Y-2672055D01*
X2860777Y-2672055D02*
X2841729Y-2691103D01*
X2841729Y-2691103D02*
X2822682Y-2700627D01*
X3013158Y-2662531D02*
X3022682Y-2653008D01*
X3022682Y-2653008D02*
X3041729Y-2643484D01*
X3041729Y-2643484D02*
X3089348Y-2643484D01*
X3089348Y-2643484D02*
X3108396Y-2653008D01*
X3108396Y-2653008D02*
X3117920Y-2662531D01*
X3117920Y-2662531D02*
X3127444Y-2681579D01*
X3127444Y-2681579D02*
X3127444Y-2700627D01*
X3127444Y-2700627D02*
X3117920Y-2729198D01*
X3117920Y-2729198D02*
X3003634Y-2843484D01*
X3003634Y-2843484D02*
X3127444Y-2843484D01*
X3203634Y-2643484D02*
X3203634Y-2681579D01*
X3279825Y-2643484D02*
X3279825Y-2681579D01*
X3575063Y-2919674D02*
X3565539Y-2910150D01*
X3565539Y-2910150D02*
X3546491Y-2881579D01*
X3546491Y-2881579D02*
X3536968Y-2862531D01*
X3536968Y-2862531D02*
X3527444Y-2833960D01*
X3527444Y-2833960D02*
X3517920Y-2786341D01*
X3517920Y-2786341D02*
X3517920Y-2748246D01*
X3517920Y-2748246D02*
X3527444Y-2700627D01*
X3527444Y-2700627D02*
X3536968Y-2672055D01*
X3536968Y-2672055D02*
X3546491Y-2653008D01*
X3546491Y-2653008D02*
X3565539Y-2624436D01*
X3565539Y-2624436D02*
X3575063Y-2614912D01*
X3641729Y-2662531D02*
X3651253Y-2653008D01*
X3651253Y-2653008D02*
X3670301Y-2643484D01*
X3670301Y-2643484D02*
X3717920Y-2643484D01*
X3717920Y-2643484D02*
X3736968Y-2653008D01*
X3736968Y-2653008D02*
X3746491Y-2662531D01*
X3746491Y-2662531D02*
X3756015Y-2681579D01*
X3756015Y-2681579D02*
X3756015Y-2700627D01*
X3756015Y-2700627D02*
X3746491Y-2729198D01*
X3746491Y-2729198D02*
X3632206Y-2843484D01*
X3632206Y-2843484D02*
X3756015Y-2843484D01*
X3994110Y-2843484D02*
X3994110Y-2643484D01*
X4079825Y-2843484D02*
X4079825Y-2738722D01*
X4079825Y-2738722D02*
X4070301Y-2719674D01*
X4070301Y-2719674D02*
X4051253Y-2710150D01*
X4051253Y-2710150D02*
X4022682Y-2710150D01*
X4022682Y-2710150D02*
X4003634Y-2719674D01*
X4003634Y-2719674D02*
X3994110Y-2729198D01*
X4203634Y-2843484D02*
X4184587Y-2833960D01*
X4184587Y-2833960D02*
X4175063Y-2824436D01*
X4175063Y-2824436D02*
X4165539Y-2805388D01*
X4165539Y-2805388D02*
X4165539Y-2748246D01*
X4165539Y-2748246D02*
X4175063Y-2729198D01*
X4175063Y-2729198D02*
X4184587Y-2719674D01*
X4184587Y-2719674D02*
X4203634Y-2710150D01*
X4203634Y-2710150D02*
X4232206Y-2710150D01*
X4232206Y-2710150D02*
X4251253Y-2719674D01*
X4251253Y-2719674D02*
X4260777Y-2729198D01*
X4260777Y-2729198D02*
X4270301Y-2748246D01*
X4270301Y-2748246D02*
X4270301Y-2805388D01*
X4270301Y-2805388D02*
X4260777Y-2824436D01*
X4260777Y-2824436D02*
X4251253Y-2833960D01*
X4251253Y-2833960D02*
X4232206Y-2843484D01*
X4232206Y-2843484D02*
X4203634Y-2843484D01*
X4384587Y-2843484D02*
X4365539Y-2833960D01*
X4365539Y-2833960D02*
X4356015Y-2814912D01*
X4356015Y-2814912D02*
X4356015Y-2643484D01*
X4536968Y-2833960D02*
X4517920Y-2843484D01*
X4517920Y-2843484D02*
X4479825Y-2843484D01*
X4479825Y-2843484D02*
X4460777Y-2833960D01*
X4460777Y-2833960D02*
X4451253Y-2814912D01*
X4451253Y-2814912D02*
X4451253Y-2738722D01*
X4451253Y-2738722D02*
X4460777Y-2719674D01*
X4460777Y-2719674D02*
X4479825Y-2710150D01*
X4479825Y-2710150D02*
X4517920Y-2710150D01*
X4517920Y-2710150D02*
X4536968Y-2719674D01*
X4536968Y-2719674D02*
X4546492Y-2738722D01*
X4546492Y-2738722D02*
X4546492Y-2757770D01*
X4546492Y-2757770D02*
X4451253Y-2776817D01*
X4622682Y-2833960D02*
X4641730Y-2843484D01*
X4641730Y-2843484D02*
X4679825Y-2843484D01*
X4679825Y-2843484D02*
X4698873Y-2833960D01*
X4698873Y-2833960D02*
X4708396Y-2814912D01*
X4708396Y-2814912D02*
X4708396Y-2805388D01*
X4708396Y-2805388D02*
X4698873Y-2786341D01*
X4698873Y-2786341D02*
X4679825Y-2776817D01*
X4679825Y-2776817D02*
X4651253Y-2776817D01*
X4651253Y-2776817D02*
X4632206Y-2767293D01*
X4632206Y-2767293D02*
X4622682Y-2748246D01*
X4622682Y-2748246D02*
X4622682Y-2738722D01*
X4622682Y-2738722D02*
X4632206Y-2719674D01*
X4632206Y-2719674D02*
X4651253Y-2710150D01*
X4651253Y-2710150D02*
X4679825Y-2710150D01*
X4679825Y-2710150D02*
X4698873Y-2719674D01*
X4775063Y-2919674D02*
X4784587Y-2910150D01*
X4784587Y-2910150D02*
X4803634Y-2881579D01*
X4803634Y-2881579D02*
X4813158Y-2862531D01*
X4813158Y-2862531D02*
X4822682Y-2833960D01*
X4822682Y-2833960D02*
X4832206Y-2786341D01*
X4832206Y-2786341D02*
X4832206Y-2748246D01*
X4832206Y-2748246D02*
X4822682Y-2700627D01*
X4822682Y-2700627D02*
X4813158Y-2672055D01*
X4813158Y-2672055D02*
X4803634Y-2653008D01*
X4803634Y-2653008D02*
X4784587Y-2624436D01*
X4784587Y-2624436D02*
X4775063Y-2614912D01*
X-100000Y-2916000D02*
X-100000Y-3116000D01*
X-200000Y-3016000D02*
X0Y-3016000D01*
X0Y-3016000D02*
G75*
G02*
X-200000Y-3016000I-100000J0D01*
G01*
X-200000Y-3016000D02*
G75*
G02*
X0Y-3016000I100000J0D01*
G01*
X241729Y-2907484D02*
X365539Y-2907484D01*
X365539Y-2907484D02*
X298872Y-2983674D01*
X298872Y-2983674D02*
X327444Y-2983674D01*
X327444Y-2983674D02*
X346491Y-2993198D01*
X346491Y-2993198D02*
X356015Y-3002722D01*
X356015Y-3002722D02*
X365539Y-3021769D01*
X365539Y-3021769D02*
X365539Y-3069388D01*
X365539Y-3069388D02*
X356015Y-3088436D01*
X356015Y-3088436D02*
X346491Y-3097960D01*
X346491Y-3097960D02*
X327444Y-3107484D01*
X327444Y-3107484D02*
X270301Y-3107484D01*
X270301Y-3107484D02*
X251253Y-3097960D01*
X251253Y-3097960D02*
X241729Y-3088436D01*
X451253Y-3088436D02*
X460777Y-3097960D01*
X460777Y-3097960D02*
X451253Y-3107484D01*
X451253Y-3107484D02*
X441729Y-3097960D01*
X441729Y-3097960D02*
X451253Y-3088436D01*
X451253Y-3088436D02*
X451253Y-3107484D01*
X536967Y-2926531D02*
X546491Y-2917008D01*
X546491Y-2917008D02*
X565539Y-2907484D01*
X565539Y-2907484D02*
X613158Y-2907484D01*
X613158Y-2907484D02*
X632205Y-2917008D01*
X632205Y-2917008D02*
X641729Y-2926531D01*
X641729Y-2926531D02*
X651253Y-2945579D01*
X651253Y-2945579D02*
X651253Y-2964627D01*
X651253Y-2964627D02*
X641729Y-2993198D01*
X641729Y-2993198D02*
X527444Y-3107484D01*
X527444Y-3107484D02*
X651253Y-3107484D01*
X775062Y-2907484D02*
X794110Y-2907484D01*
X794110Y-2907484D02*
X813158Y-2917008D01*
X813158Y-2917008D02*
X822682Y-2926531D01*
X822682Y-2926531D02*
X832205Y-2945579D01*
X832205Y-2945579D02*
X841729Y-2983674D01*
X841729Y-2983674D02*
X841729Y-3031293D01*
X841729Y-3031293D02*
X832205Y-3069388D01*
X832205Y-3069388D02*
X822682Y-3088436D01*
X822682Y-3088436D02*
X813158Y-3097960D01*
X813158Y-3097960D02*
X794110Y-3107484D01*
X794110Y-3107484D02*
X775062Y-3107484D01*
X775062Y-3107484D02*
X756015Y-3097960D01*
X756015Y-3097960D02*
X746491Y-3088436D01*
X746491Y-3088436D02*
X736967Y-3069388D01*
X736967Y-3069388D02*
X727443Y-3031293D01*
X727443Y-3031293D02*
X727443Y-2983674D01*
X727443Y-2983674D02*
X736967Y-2945579D01*
X736967Y-2945579D02*
X746491Y-2926531D01*
X746491Y-2926531D02*
X756015Y-2917008D01*
X756015Y-2917008D02*
X775062Y-2907484D01*
X965539Y-2907484D02*
X984586Y-2907484D01*
X984586Y-2907484D02*
X1003634Y-2917008D01*
X1003634Y-2917008D02*
X1013158Y-2926531D01*
X1013158Y-2926531D02*
X1022682Y-2945579D01*
X1022682Y-2945579D02*
X1032205Y-2983674D01*
X1032205Y-2983674D02*
X1032205Y-3031293D01*
X1032205Y-3031293D02*
X1022682Y-3069388D01*
X1022682Y-3069388D02*
X1013158Y-3088436D01*
X1013158Y-3088436D02*
X1003634Y-3097960D01*
X1003634Y-3097960D02*
X984586Y-3107484D01*
X984586Y-3107484D02*
X965539Y-3107484D01*
X965539Y-3107484D02*
X946491Y-3097960D01*
X946491Y-3097960D02*
X936967Y-3088436D01*
X936967Y-3088436D02*
X927443Y-3069388D01*
X927443Y-3069388D02*
X917920Y-3031293D01*
X917920Y-3031293D02*
X917920Y-2983674D01*
X917920Y-2983674D02*
X927443Y-2945579D01*
X927443Y-2945579D02*
X936967Y-2926531D01*
X936967Y-2926531D02*
X946491Y-2917008D01*
X946491Y-2917008D02*
X965539Y-2907484D01*
X1117920Y-3107484D02*
X1117920Y-2974150D01*
X1117920Y-2993198D02*
X1127444Y-2983674D01*
X1127444Y-2983674D02*
X1146491Y-2974150D01*
X1146491Y-2974150D02*
X1175063Y-2974150D01*
X1175063Y-2974150D02*
X1194110Y-2983674D01*
X1194110Y-2983674D02*
X1203634Y-3002722D01*
X1203634Y-3002722D02*
X1203634Y-3107484D01*
X1203634Y-3002722D02*
X1213158Y-2983674D01*
X1213158Y-2983674D02*
X1232205Y-2974150D01*
X1232205Y-2974150D02*
X1260777Y-2974150D01*
X1260777Y-2974150D02*
X1279825Y-2983674D01*
X1279825Y-2983674D02*
X1289348Y-3002722D01*
X1289348Y-3002722D02*
X1289348Y-3107484D01*
X1384586Y-3107484D02*
X1384586Y-2974150D01*
X1384586Y-2993198D02*
X1394110Y-2983674D01*
X1394110Y-2983674D02*
X1413158Y-2974150D01*
X1413158Y-2974150D02*
X1441729Y-2974150D01*
X1441729Y-2974150D02*
X1460777Y-2983674D01*
X1460777Y-2983674D02*
X1470301Y-3002722D01*
X1470301Y-3002722D02*
X1470301Y-3107484D01*
X1470301Y-3002722D02*
X1479824Y-2983674D01*
X1479824Y-2983674D02*
X1498872Y-2974150D01*
X1498872Y-2974150D02*
X1527443Y-2974150D01*
X1527443Y-2974150D02*
X1546491Y-2983674D01*
X1546491Y-2983674D02*
X1556015Y-3002722D01*
X1556015Y-3002722D02*
X1556015Y-3107484D01*
X1946491Y-2897960D02*
X1775063Y-3155103D01*
X2203634Y-2907484D02*
X2222682Y-2907484D01*
X2222682Y-2907484D02*
X2241729Y-2917008D01*
X2241729Y-2917008D02*
X2251253Y-2926531D01*
X2251253Y-2926531D02*
X2260777Y-2945579D01*
X2260777Y-2945579D02*
X2270301Y-2983674D01*
X2270301Y-2983674D02*
X2270301Y-3031293D01*
X2270301Y-3031293D02*
X2260777Y-3069388D01*
X2260777Y-3069388D02*
X2251253Y-3088436D01*
X2251253Y-3088436D02*
X2241729Y-3097960D01*
X2241729Y-3097960D02*
X2222682Y-3107484D01*
X2222682Y-3107484D02*
X2203634Y-3107484D01*
X2203634Y-3107484D02*
X2184587Y-3097960D01*
X2184587Y-3097960D02*
X2175063Y-3088436D01*
X2175063Y-3088436D02*
X2165539Y-3069388D01*
X2165539Y-3069388D02*
X2156015Y-3031293D01*
X2156015Y-3031293D02*
X2156015Y-2983674D01*
X2156015Y-2983674D02*
X2165539Y-2945579D01*
X2165539Y-2945579D02*
X2175063Y-2926531D01*
X2175063Y-2926531D02*
X2184587Y-2917008D01*
X2184587Y-2917008D02*
X2203634Y-2907484D01*
X2356015Y-3088436D02*
X2365539Y-3097960D01*
X2365539Y-3097960D02*
X2356015Y-3107484D01*
X2356015Y-3107484D02*
X2346491Y-3097960D01*
X2346491Y-3097960D02*
X2356015Y-3088436D01*
X2356015Y-3088436D02*
X2356015Y-3107484D01*
X2556015Y-3107484D02*
X2441729Y-3107484D01*
X2498872Y-3107484D02*
X2498872Y-2907484D01*
X2498872Y-2907484D02*
X2479825Y-2936055D01*
X2479825Y-2936055D02*
X2460777Y-2955103D01*
X2460777Y-2955103D02*
X2441729Y-2964627D01*
X2632206Y-2926531D02*
X2641729Y-2917008D01*
X2641729Y-2917008D02*
X2660777Y-2907484D01*
X2660777Y-2907484D02*
X2708396Y-2907484D01*
X2708396Y-2907484D02*
X2727444Y-2917008D01*
X2727444Y-2917008D02*
X2736968Y-2926531D01*
X2736968Y-2926531D02*
X2746491Y-2945579D01*
X2746491Y-2945579D02*
X2746491Y-2964627D01*
X2746491Y-2964627D02*
X2736968Y-2993198D01*
X2736968Y-2993198D02*
X2622682Y-3107484D01*
X2622682Y-3107484D02*
X2746491Y-3107484D01*
X2917920Y-2907484D02*
X2879825Y-2907484D01*
X2879825Y-2907484D02*
X2860777Y-2917008D01*
X2860777Y-2917008D02*
X2851253Y-2926531D01*
X2851253Y-2926531D02*
X2832206Y-2955103D01*
X2832206Y-2955103D02*
X2822682Y-2993198D01*
X2822682Y-2993198D02*
X2822682Y-3069388D01*
X2822682Y-3069388D02*
X2832206Y-3088436D01*
X2832206Y-3088436D02*
X2841729Y-3097960D01*
X2841729Y-3097960D02*
X2860777Y-3107484D01*
X2860777Y-3107484D02*
X2898872Y-3107484D01*
X2898872Y-3107484D02*
X2917920Y-3097960D01*
X2917920Y-3097960D02*
X2927444Y-3088436D01*
X2927444Y-3088436D02*
X2936967Y-3069388D01*
X2936967Y-3069388D02*
X2936967Y-3021769D01*
X2936967Y-3021769D02*
X2927444Y-3002722D01*
X2927444Y-3002722D02*
X2917920Y-2993198D01*
X2917920Y-2993198D02*
X2898872Y-2983674D01*
X2898872Y-2983674D02*
X2860777Y-2983674D01*
X2860777Y-2983674D02*
X2841729Y-2993198D01*
X2841729Y-2993198D02*
X2832206Y-3002722D01*
X2832206Y-3002722D02*
X2822682Y-3021769D01*
X3060777Y-2907484D02*
X3079825Y-2907484D01*
X3079825Y-2907484D02*
X3098872Y-2917008D01*
X3098872Y-2917008D02*
X3108396Y-2926531D01*
X3108396Y-2926531D02*
X3117920Y-2945579D01*
X3117920Y-2945579D02*
X3127444Y-2983674D01*
X3127444Y-2983674D02*
X3127444Y-3031293D01*
X3127444Y-3031293D02*
X3117920Y-3069388D01*
X3117920Y-3069388D02*
X3108396Y-3088436D01*
X3108396Y-3088436D02*
X3098872Y-3097960D01*
X3098872Y-3097960D02*
X3079825Y-3107484D01*
X3079825Y-3107484D02*
X3060777Y-3107484D01*
X3060777Y-3107484D02*
X3041729Y-3097960D01*
X3041729Y-3097960D02*
X3032206Y-3088436D01*
X3032206Y-3088436D02*
X3022682Y-3069388D01*
X3022682Y-3069388D02*
X3013158Y-3031293D01*
X3013158Y-3031293D02*
X3013158Y-2983674D01*
X3013158Y-2983674D02*
X3022682Y-2945579D01*
X3022682Y-2945579D02*
X3032206Y-2926531D01*
X3032206Y-2926531D02*
X3041729Y-2917008D01*
X3041729Y-2917008D02*
X3060777Y-2907484D01*
X3203634Y-2907484D02*
X3203634Y-2945579D01*
X3279825Y-2907484D02*
X3279825Y-2945579D01*
X3575063Y-3183674D02*
X3565539Y-3174150D01*
X3565539Y-3174150D02*
X3546491Y-3145579D01*
X3546491Y-3145579D02*
X3536968Y-3126531D01*
X3536968Y-3126531D02*
X3527444Y-3097960D01*
X3527444Y-3097960D02*
X3517920Y-3050341D01*
X3517920Y-3050341D02*
X3517920Y-3012246D01*
X3517920Y-3012246D02*
X3527444Y-2964627D01*
X3527444Y-2964627D02*
X3536968Y-2936055D01*
X3536968Y-2936055D02*
X3546491Y-2917008D01*
X3546491Y-2917008D02*
X3565539Y-2888436D01*
X3565539Y-2888436D02*
X3575063Y-2878912D01*
X3736968Y-2974150D02*
X3736968Y-3107484D01*
X3689348Y-2897960D02*
X3641729Y-3040817D01*
X3641729Y-3040817D02*
X3765539Y-3040817D01*
X3994110Y-3107484D02*
X3994110Y-2907484D01*
X4079825Y-3107484D02*
X4079825Y-3002722D01*
X4079825Y-3002722D02*
X4070301Y-2983674D01*
X4070301Y-2983674D02*
X4051253Y-2974150D01*
X4051253Y-2974150D02*
X4022682Y-2974150D01*
X4022682Y-2974150D02*
X4003634Y-2983674D01*
X4003634Y-2983674D02*
X3994110Y-2993198D01*
X4203634Y-3107484D02*
X4184587Y-3097960D01*
X4184587Y-3097960D02*
X4175063Y-3088436D01*
X4175063Y-3088436D02*
X4165539Y-3069388D01*
X4165539Y-3069388D02*
X4165539Y-3012246D01*
X4165539Y-3012246D02*
X4175063Y-2993198D01*
X4175063Y-2993198D02*
X4184587Y-2983674D01*
X4184587Y-2983674D02*
X4203634Y-2974150D01*
X4203634Y-2974150D02*
X4232206Y-2974150D01*
X4232206Y-2974150D02*
X4251253Y-2983674D01*
X4251253Y-2983674D02*
X4260777Y-2993198D01*
X4260777Y-2993198D02*
X4270301Y-3012246D01*
X4270301Y-3012246D02*
X4270301Y-3069388D01*
X4270301Y-3069388D02*
X4260777Y-3088436D01*
X4260777Y-3088436D02*
X4251253Y-3097960D01*
X4251253Y-3097960D02*
X4232206Y-3107484D01*
X4232206Y-3107484D02*
X4203634Y-3107484D01*
X4384587Y-3107484D02*
X4365539Y-3097960D01*
X4365539Y-3097960D02*
X4356015Y-3078912D01*
X4356015Y-3078912D02*
X4356015Y-2907484D01*
X4536968Y-3097960D02*
X4517920Y-3107484D01*
X4517920Y-3107484D02*
X4479825Y-3107484D01*
X4479825Y-3107484D02*
X4460777Y-3097960D01*
X4460777Y-3097960D02*
X4451253Y-3078912D01*
X4451253Y-3078912D02*
X4451253Y-3002722D01*
X4451253Y-3002722D02*
X4460777Y-2983674D01*
X4460777Y-2983674D02*
X4479825Y-2974150D01*
X4479825Y-2974150D02*
X4517920Y-2974150D01*
X4517920Y-2974150D02*
X4536968Y-2983674D01*
X4536968Y-2983674D02*
X4546492Y-3002722D01*
X4546492Y-3002722D02*
X4546492Y-3021769D01*
X4546492Y-3021769D02*
X4451253Y-3040817D01*
X4622682Y-3097960D02*
X4641730Y-3107484D01*
X4641730Y-3107484D02*
X4679825Y-3107484D01*
X4679825Y-3107484D02*
X4698873Y-3097960D01*
X4698873Y-3097960D02*
X4708396Y-3078912D01*
X4708396Y-3078912D02*
X4708396Y-3069388D01*
X4708396Y-3069388D02*
X4698873Y-3050341D01*
X4698873Y-3050341D02*
X4679825Y-3040817D01*
X4679825Y-3040817D02*
X4651253Y-3040817D01*
X4651253Y-3040817D02*
X4632206Y-3031293D01*
X4632206Y-3031293D02*
X4622682Y-3012246D01*
X4622682Y-3012246D02*
X4622682Y-3002722D01*
X4622682Y-3002722D02*
X4632206Y-2983674D01*
X4632206Y-2983674D02*
X4651253Y-2974150D01*
X4651253Y-2974150D02*
X4679825Y-2974150D01*
X4679825Y-2974150D02*
X4698873Y-2983674D01*
X4775063Y-3183674D02*
X4784587Y-3174150D01*
X4784587Y-3174150D02*
X4803634Y-3145579D01*
X4803634Y-3145579D02*
X4813158Y-3126531D01*
X4813158Y-3126531D02*
X4822682Y-3097960D01*
X4822682Y-3097960D02*
X4832206Y-3050341D01*
X4832206Y-3050341D02*
X4832206Y-3012246D01*
X4832206Y-3012246D02*
X4822682Y-2964627D01*
X4822682Y-2964627D02*
X4813158Y-2936055D01*
X4813158Y-2936055D02*
X4803634Y-2917008D01*
X4803634Y-2917008D02*
X4784587Y-2888436D01*
X4784587Y-2888436D02*
X4775063Y-2878912D01*
M02*
