%TF.GenerationSoftware,KiCad,Pcbnew,8.0.5*%
%TF.CreationDate,2025-02-24T01:44:01-08:00*%
%TF.ProjectId,BSPD,42535044-2e6b-4696-9361-645f70636258,rev?*%
%TF.SameCoordinates,Original*%
%TF.FileFunction,Copper,L2,Bot*%
%TF.FilePolarity,Positive*%
%FSLAX46Y46*%
G04 Gerber Fmt 4.6, Leading zero omitted, Abs format (unit mm)*
G04 Created by KiCad (PCBNEW 8.0.5) date 2025-02-24 01:44:01*
%MOMM*%
%LPD*%
G01*
G04 APERTURE LIST*
G04 Aperture macros list*
%AMRoundRect*
0 Rectangle with rounded corners*
0 $1 Rounding radius*
0 $2 $3 $4 $5 $6 $7 $8 $9 X,Y pos of 4 corners*
0 Add a 4 corners polygon primitive as box body*
4,1,4,$2,$3,$4,$5,$6,$7,$8,$9,$2,$3,0*
0 Add four circle primitives for the rounded corners*
1,1,$1+$1,$2,$3*
1,1,$1+$1,$4,$5*
1,1,$1+$1,$6,$7*
1,1,$1+$1,$8,$9*
0 Add four rect primitives between the rounded corners*
20,1,$1+$1,$2,$3,$4,$5,0*
20,1,$1+$1,$4,$5,$6,$7,0*
20,1,$1+$1,$6,$7,$8,$9,0*
20,1,$1+$1,$8,$9,$2,$3,0*%
G04 Aperture macros list end*
%TA.AperFunction,ComponentPad*%
%ADD10RoundRect,0.250000X-0.600000X-0.600000X0.600000X-0.600000X0.600000X0.600000X-0.600000X0.600000X0*%
%TD*%
%TA.AperFunction,ComponentPad*%
%ADD11C,1.700000*%
%TD*%
%TA.AperFunction,ComponentPad*%
%ADD12C,1.440000*%
%TD*%
%TA.AperFunction,ComponentPad*%
%ADD13R,1.700000X1.700000*%
%TD*%
%TA.AperFunction,ComponentPad*%
%ADD14C,1.651000*%
%TD*%
%TA.AperFunction,ViaPad*%
%ADD15C,0.600000*%
%TD*%
%TA.AperFunction,Conductor*%
%ADD16C,0.200000*%
%TD*%
G04 APERTURE END LIST*
D10*
%TO.P,J2,1,Pin_1*%
%TO.N,+12V*%
X42445574Y-58516455D03*
D11*
%TO.P,J2,2,Pin_2*%
%TO.N,GND*%
X42445574Y-61016455D03*
%TO.P,J2,3,Pin_3*%
%TO.N,/Rear_Brake_Sensor*%
X42445574Y-63516455D03*
%TO.P,J2,4,Pin_4*%
%TO.N,/Front_Brake_Sensor*%
X42445574Y-66016455D03*
%TO.P,J2,5,Pin_5*%
%TO.N,/Current_Sensor_Output*%
X42445574Y-68516455D03*
%TO.P,J2,6,Pin_6*%
%TO.N,/Current_Sensor_VREF*%
X42445574Y-71016455D03*
%TO.P,J2,7,Pin_7*%
%TO.N,/Shutdown_In*%
X44945574Y-58516455D03*
%TO.P,J2,8,Pin_8*%
%TO.N,/Shutdown_Out*%
X44945574Y-61016455D03*
%TO.P,J2,9,Pin_9*%
%TO.N,/BSPD_Fault_LOW*%
X44945574Y-63516455D03*
%TO.P,J2,10,Pin_10*%
%TO.N,unconnected-(J2-Pin_10-Pad10)*%
X44945574Y-66016455D03*
%TO.P,J2,11,Pin_11*%
%TO.N,unconnected-(J2-Pin_11-Pad11)*%
X44945574Y-68516455D03*
%TO.P,J2,12,Pin_12*%
%TO.N,unconnected-(J2-Pin_12-Pad12)*%
X44945574Y-71016455D03*
%TD*%
D12*
%TO.P,RV2,1,1*%
%TO.N,+5V*%
X65765574Y-60016455D03*
%TO.P,RV2,2,2*%
%TO.N,/rear_braking_threshhold*%
X63225574Y-60016455D03*
%TO.P,RV2,3,3*%
%TO.N,GND*%
X60685574Y-60016455D03*
%TD*%
%TO.P,RV1,1,1*%
%TO.N,+5V*%
X106265574Y-31766455D03*
%TO.P,RV1,2,2*%
%TO.N,/front_braking_threshhold*%
X106265574Y-34306455D03*
%TO.P,RV1,3,3*%
%TO.N,GND*%
X106265574Y-36846455D03*
%TD*%
D13*
%TO.P,TP2,1,1*%
%TO.N,/front_braking_threshhold*%
X106265574Y-42516455D03*
%TD*%
%TO.P,TP1,1,1*%
%TO.N,/rear_braking_threshhold*%
X72015574Y-60016455D03*
%TD*%
D14*
%TO.P,K2,1,-*%
%TO.N,Net-(D4-A)*%
X66925574Y-65016455D03*
%TO.P,K2,3*%
%TO.N,/Shutdown_Out*%
X56765574Y-65016455D03*
%TO.P,K2,4*%
%TO.N,/Shutdown_In*%
X49145574Y-65016455D03*
%TO.P,K2,5*%
%TO.N,unconnected-(K2-Pad5)*%
X49145574Y-75176455D03*
%TO.P,K2,6*%
%TO.N,unconnected-(K2-Pad6)*%
X56765574Y-75176455D03*
%TO.P,K2,8,+*%
%TO.N,+12V*%
X66925574Y-75176455D03*
%TD*%
D15*
%TO.N,/Current_Sensor_Output*%
X60265574Y-33516455D03*
X58999559Y-31000441D03*
%TO.N,GND*%
X90515574Y-58400000D03*
X85000000Y-56000000D03*
X85000000Y-63000000D03*
X76000000Y-41000000D03*
X46000000Y-42000000D03*
X91000000Y-44000000D03*
X50000000Y-38000000D03*
X40000000Y-59000000D03*
X93000000Y-52000000D03*
X92000000Y-41000000D03*
X91480810Y-49519190D03*
X64000000Y-35716455D03*
X84600000Y-55000000D03*
X104200000Y-43200000D03*
X63968546Y-30772088D03*
X84365574Y-44000000D03*
X101600000Y-44200000D03*
X79000000Y-37000000D03*
X77338549Y-44390903D03*
%TO.N,/Front_Brake_Sensor*%
X51765574Y-38266455D03*
X49015574Y-31916455D03*
%TO.N,/Rear_Brake_Sensor*%
X51265574Y-32516455D03*
X54765574Y-33266455D03*
%TO.N,+5V*%
X76015574Y-31266455D03*
X70901030Y-46098970D03*
X89765574Y-63016455D03*
X79265574Y-36016455D03*
X89000000Y-38000000D03*
X72314839Y-36065720D03*
X76765574Y-51516455D03*
X85265574Y-64766455D03*
X95200295Y-36799705D03*
X89765574Y-58766455D03*
%TO.N,/Current_Sensor_VREF*%
X60115574Y-37000000D03*
X60282029Y-30000000D03*
%TO.N,/BSPD_Fault_LOW*%
X79515574Y-53266455D03*
%TO.N,Net-(D4-A)*%
X95515574Y-61016455D03*
%TO.N,/Current_Sensor_Output_Buffered*%
X76365574Y-35016455D03*
X79265574Y-34766455D03*
%TO.N,/Rear_Brake_Buffered*%
X59515574Y-42000000D03*
X59015574Y-33766455D03*
%TO.N,/Front_Brake_Buffered*%
X71265574Y-44766455D03*
X82765574Y-37656455D03*
X72397950Y-38256455D03*
%TO.N,/high_current_threshhold*%
X100265574Y-32266455D03*
X95765574Y-32266455D03*
%TO.N,/open_circuit_threshhold*%
X68515574Y-41016455D03*
X72545574Y-36986455D03*
%TO.N,/short_circuit_threshhold*%
X84365574Y-37586455D03*
X84294723Y-33176455D03*
%TO.N,/current_sensor_open*%
X72765574Y-31766455D03*
X77265574Y-49766455D03*
%TO.N,/rear_brake_open*%
X88265574Y-43766455D03*
X71265574Y-31976455D03*
%TO.N,/current_sensor_short*%
X83265574Y-46266455D03*
X82544380Y-32534675D03*
%TO.N,/rear_brake_short*%
X84765574Y-46266455D03*
X83765574Y-32576455D03*
%TO.N,/high_current*%
X94915574Y-47000000D03*
X91515574Y-33266455D03*
X93999835Y-42000165D03*
X91265574Y-36766455D03*
%TO.N,/front_braking_threshhold*%
X94765574Y-39016455D03*
%TO.N,/front_hard_braking*%
X95515574Y-42766455D03*
X94765574Y-73016455D03*
%TO.N,/logic/hard_braking*%
X91865574Y-42266455D03*
X82515574Y-64266455D03*
%TO.N,/logic/brake_opens_shorts*%
X83890574Y-70641455D03*
X87265574Y-52266455D03*
%TO.N,/logic/hard_braking_high_current*%
X88765574Y-71016455D03*
X95515574Y-46046455D03*
%TO.N,/non_inv_front_brake_output*%
X73865574Y-41766455D03*
X91765574Y-38016455D03*
%TO.N,Net-(U4C--)*%
X96765574Y-37516455D03*
X55000000Y-44000000D03*
%TD*%
D16*
%TO.N,/Current_Sensor_Output*%
X58999559Y-31000441D02*
X58999560Y-31000441D01*
X60265574Y-32266455D02*
X60265574Y-33516455D01*
X58999560Y-31000441D02*
X60265574Y-32266455D01*
%TO.N,GND*%
X107333545Y-43666455D02*
X107415574Y-43584426D01*
X85000000Y-63000000D02*
X85000000Y-56000000D01*
X92000000Y-49000000D02*
X92000000Y-45000000D01*
X79866455Y-46866455D02*
X85448417Y-46866455D01*
X79000000Y-37000000D02*
X79130558Y-37000000D01*
X79130558Y-37000000D02*
X81944380Y-34186178D01*
X81944380Y-32286146D02*
X82295851Y-31934675D01*
X85448417Y-46866455D02*
X85448417Y-46100769D01*
X107415574Y-37996455D02*
X106265574Y-36846455D01*
X91480810Y-49519190D02*
X92000000Y-49000000D01*
X92000000Y-45000000D02*
X91000000Y-44000000D01*
X41295574Y-59866455D02*
X42445574Y-61016455D01*
X82295851Y-31934675D02*
X83972323Y-31934675D01*
X85448417Y-46100769D02*
X84365574Y-45017926D01*
X83972323Y-31934675D02*
X85000000Y-32962352D01*
X50000000Y-38000000D02*
X46000000Y-42000000D01*
X46000000Y-42000000D02*
X41295574Y-46704426D01*
X84365574Y-45017926D02*
X84365574Y-44000000D01*
X81944380Y-34186178D02*
X81944380Y-32286146D01*
X97264103Y-43666455D02*
X107333545Y-43666455D01*
X90515574Y-58400000D02*
X92800000Y-58400000D01*
X94597648Y-41000000D02*
X97264103Y-43666455D01*
X63968546Y-30772088D02*
X64000000Y-30803542D01*
X77338549Y-44390903D02*
X77390903Y-44390903D01*
X92800000Y-58400000D02*
X93000000Y-58200000D01*
X85000000Y-32962352D02*
X85000000Y-43365574D01*
X75000000Y-42000000D02*
X76000000Y-41000000D01*
X85000000Y-43365574D02*
X84365574Y-44000000D01*
X64000000Y-30803542D02*
X64000000Y-35716455D01*
X93000000Y-58200000D02*
X93000000Y-52000000D01*
X107415574Y-43584426D02*
X107415574Y-37996455D01*
X77338549Y-44338549D02*
X75000000Y-42000000D01*
X92000000Y-41000000D02*
X94597648Y-41000000D01*
X77390903Y-44390903D02*
X79866455Y-46866455D01*
X77338549Y-44390903D02*
X77338549Y-44338549D01*
X41295574Y-46704426D02*
X41295574Y-59866455D01*
%TO.N,/Front_Brake_Sensor*%
X49015574Y-35516455D02*
X51765574Y-38266455D01*
X49015574Y-31916455D02*
X49015574Y-35516455D01*
%TO.N,/Rear_Brake_Sensor*%
X54015574Y-32516455D02*
X54765574Y-33266455D01*
X51265574Y-32516455D02*
X54015574Y-32516455D01*
%TO.N,+5V*%
X76015574Y-32266455D02*
X75765574Y-32516455D01*
X70901030Y-46098970D02*
X70901030Y-46901911D01*
X79216309Y-36065720D02*
X79265574Y-36016455D01*
X85165574Y-64866455D02*
X70615574Y-64866455D01*
X75765574Y-36065720D02*
X79216309Y-36065720D01*
X76015574Y-31266455D02*
X76015574Y-32266455D01*
X89000000Y-38000000D02*
X90880558Y-38000000D01*
X70901030Y-46901911D02*
X75515574Y-51516455D01*
X90880558Y-38000000D02*
X92080853Y-36799705D01*
X75765574Y-32516455D02*
X75765574Y-36065720D01*
X72314839Y-36065720D02*
X75765574Y-36065720D01*
X70615574Y-64866455D02*
X65765574Y-60016455D01*
X89765574Y-63016455D02*
X89765574Y-58766455D01*
X75515574Y-51516455D02*
X76765574Y-51516455D01*
X92080853Y-36799705D02*
X95200295Y-36799705D01*
X85265574Y-64766455D02*
X85165574Y-64866455D01*
%TO.N,/Current_Sensor_VREF*%
X60865574Y-33764984D02*
X60865574Y-30583545D01*
X60115574Y-37000000D02*
X60000000Y-36884426D01*
X60000000Y-36884426D02*
X60000000Y-34630558D01*
X60865574Y-30583545D02*
X60282029Y-30000000D01*
X60000000Y-34630558D02*
X60865574Y-33764984D01*
%TO.N,/BSPD_Fault_LOW*%
X43795574Y-58040109D02*
X43795574Y-62366455D01*
X46069228Y-55766455D02*
X43795574Y-58040109D01*
X74515574Y-55766455D02*
X46069228Y-55766455D01*
X43795574Y-62366455D02*
X44945574Y-63516455D01*
X77015574Y-53266455D02*
X74515574Y-55766455D01*
X79515574Y-53266455D02*
X77015574Y-53266455D01*
%TO.N,Net-(D4-A)*%
X95515574Y-61016455D02*
X95515574Y-65114984D01*
X88114103Y-72516455D02*
X74425574Y-72516455D01*
X74425574Y-72516455D02*
X66925574Y-65016455D01*
X95515574Y-65114984D02*
X88114103Y-72516455D01*
%TO.N,/Shutdown_Out*%
X56765574Y-65016455D02*
X55640074Y-66141955D01*
X55640074Y-66141955D02*
X48641074Y-66141955D01*
X48641074Y-66141955D02*
X46265574Y-63766455D01*
X46265574Y-63766455D02*
X46265574Y-62336455D01*
X46265574Y-62336455D02*
X44945574Y-61016455D01*
%TO.N,/Shutdown_In*%
X49145574Y-62716455D02*
X44945574Y-58516455D01*
X49145574Y-65016455D02*
X49145574Y-62716455D01*
%TO.N,/Current_Sensor_Output_Buffered*%
X76365574Y-35016455D02*
X79015574Y-35016455D01*
X79015574Y-35016455D02*
X79265574Y-34766455D01*
%TO.N,/Rear_Brake_Buffered*%
X59515574Y-42000000D02*
X59515574Y-34266455D01*
X59515574Y-34266455D02*
X59015574Y-33766455D01*
%TO.N,/Front_Brake_Buffered*%
X80000000Y-38766455D02*
X74265574Y-38766455D01*
X73265574Y-39766455D02*
X74265574Y-38766455D01*
X82765574Y-37656455D02*
X81110000Y-37656455D01*
X73265574Y-42766455D02*
X73265574Y-39766455D01*
X73755574Y-38256455D02*
X74265574Y-38766455D01*
X81110000Y-37656455D02*
X80000000Y-38766455D01*
X73265574Y-42766455D02*
X71265574Y-44766455D01*
X72397950Y-38256455D02*
X73755574Y-38256455D01*
%TO.N,/high_current_threshhold*%
X95765574Y-32266455D02*
X100265574Y-32266455D01*
%TO.N,/open_circuit_threshhold*%
X68515574Y-41016455D02*
X72545574Y-36986455D01*
%TO.N,/short_circuit_threshhold*%
X84265574Y-33205604D02*
X84265574Y-37486455D01*
X84294723Y-33176455D02*
X84265574Y-33205604D01*
X84265574Y-37486455D02*
X84365574Y-37586455D01*
%TO.N,/current_sensor_open*%
X75417045Y-49766455D02*
X77265574Y-49766455D01*
X67915574Y-42264984D02*
X75417045Y-49766455D01*
X67915574Y-39616455D02*
X67915574Y-42264984D01*
X72765574Y-34766455D02*
X67915574Y-39616455D01*
X72765574Y-31766455D02*
X72765574Y-34766455D01*
%TO.N,/rear_brake_open*%
X88265574Y-43766455D02*
X88265574Y-30266455D01*
X74475574Y-28766455D02*
X71265574Y-31976455D01*
X88265574Y-30266455D02*
X86765574Y-28766455D01*
X86765574Y-28766455D02*
X74475574Y-28766455D01*
%TO.N,/current_sensor_short*%
X82544380Y-35196732D02*
X83365574Y-36017926D01*
X83365574Y-46166455D02*
X83265574Y-46266455D01*
X82544380Y-32534675D02*
X82544380Y-35196732D01*
X83365574Y-36017926D02*
X83365574Y-46166455D01*
%TO.N,/rear_brake_short*%
X83765574Y-35852240D02*
X83765574Y-45266455D01*
X83265574Y-33076455D02*
X83265574Y-35352240D01*
X83265574Y-35352240D02*
X83765574Y-35852240D01*
X83765574Y-32576455D02*
X83265574Y-33076455D01*
X83765574Y-45266455D02*
X84765574Y-46266455D01*
%TO.N,/high_current*%
X94915574Y-42915904D02*
X93999835Y-42000165D01*
X94915574Y-47000000D02*
X94915574Y-42915904D01*
X91265574Y-33516455D02*
X91515574Y-33266455D01*
X91265574Y-36766455D02*
X91265574Y-33516455D01*
%TO.N,/front_braking_threshhold*%
X95015574Y-39266455D02*
X101305574Y-39266455D01*
X102410574Y-38661455D02*
X102410574Y-38161455D01*
X101305574Y-39266455D02*
X102410574Y-38161455D01*
X94765574Y-39016455D02*
X95015574Y-39266455D01*
X106265574Y-34306455D02*
X102410574Y-38161455D01*
X106265574Y-42516455D02*
X102410574Y-38661455D01*
%TO.N,/front_hard_braking*%
X96115574Y-43366455D02*
X96115574Y-71666455D01*
X96115574Y-71666455D02*
X94765574Y-73016455D01*
X95515574Y-42766455D02*
X96115574Y-43366455D01*
%TO.N,/logic/hard_braking*%
X83765574Y-50266455D02*
X83765574Y-63016455D01*
X83765574Y-63016455D02*
X82515574Y-64266455D01*
X91765574Y-42266455D02*
X83765574Y-50266455D01*
X91865574Y-42266455D02*
X91765574Y-42266455D01*
%TO.N,/logic/brake_opens_shorts*%
X83890574Y-69891455D02*
X87265574Y-66516455D01*
X83890574Y-70641455D02*
X83890574Y-69891455D01*
X87265574Y-66516455D02*
X87265574Y-52266455D01*
%TO.N,/logic/hard_braking_high_current*%
X95515574Y-48016455D02*
X88765574Y-54766455D01*
X95515574Y-46046455D02*
X95515574Y-48016455D01*
X88765574Y-54766455D02*
X88765574Y-71016455D01*
%TO.N,/non_inv_front_brake_output*%
X83714103Y-49166455D02*
X81265574Y-49166455D01*
X91265574Y-41614984D02*
X83714103Y-49166455D01*
X81265574Y-49166455D02*
X73865574Y-41766455D01*
X91765574Y-38016455D02*
X91265574Y-38516455D01*
X91265574Y-38516455D02*
X91265574Y-41614984D01*
%TO.N,Net-(U4C--)*%
X74027045Y-28366455D02*
X87615574Y-28366455D01*
X67265574Y-41466757D02*
X67265574Y-35127926D01*
X55000000Y-47000000D02*
X56586455Y-48586455D01*
X55000000Y-44000000D02*
X55000000Y-47000000D01*
X56586455Y-48586455D02*
X60145876Y-48586455D01*
X67265574Y-35127926D02*
X74027045Y-28366455D01*
X60145876Y-48586455D02*
X67265574Y-41466757D01*
X87615574Y-28366455D02*
X96765574Y-37516455D01*
%TD*%
%TA.AperFunction,Conductor*%
%TO.N,GND*%
G36*
X95434408Y-49049370D02*
G01*
X95490341Y-49091242D01*
X95514758Y-49156706D01*
X95515074Y-49165552D01*
X95515074Y-60100132D01*
X95495389Y-60167171D01*
X95442585Y-60212926D01*
X95404958Y-60223352D01*
X95336324Y-60231085D01*
X95166052Y-60290665D01*
X95013311Y-60386639D01*
X94885758Y-60514192D01*
X94789785Y-60666931D01*
X94730205Y-60837200D01*
X94730204Y-60837205D01*
X94710009Y-61016451D01*
X94710009Y-61016458D01*
X94730204Y-61195704D01*
X94730205Y-61195709D01*
X94789785Y-61365978D01*
X94885759Y-61518718D01*
X94888019Y-61521552D01*
X94888908Y-61523730D01*
X94889463Y-61524613D01*
X94889308Y-61524710D01*
X94914429Y-61586238D01*
X94915074Y-61598867D01*
X94915074Y-64814886D01*
X94895389Y-64881925D01*
X94878755Y-64902567D01*
X89577755Y-70203567D01*
X89516432Y-70237052D01*
X89446740Y-70232068D01*
X89390807Y-70190196D01*
X89366390Y-70124732D01*
X89366074Y-70115886D01*
X89366074Y-63899517D01*
X89385759Y-63832478D01*
X89438563Y-63786723D01*
X89507721Y-63776779D01*
X89531022Y-63782473D01*
X89586319Y-63801823D01*
X89586322Y-63801823D01*
X89586324Y-63801824D01*
X89765570Y-63822020D01*
X89765574Y-63822020D01*
X89765578Y-63822020D01*
X89944823Y-63801824D01*
X89944826Y-63801823D01*
X89944829Y-63801823D01*
X90115096Y-63742244D01*
X90267836Y-63646271D01*
X90395390Y-63518717D01*
X90491363Y-63365977D01*
X90550942Y-63195710D01*
X90550943Y-63195704D01*
X90571139Y-63016458D01*
X90571139Y-63016451D01*
X90550943Y-62837205D01*
X90550942Y-62837200D01*
X90491362Y-62666931D01*
X90395387Y-62514189D01*
X90393124Y-62511351D01*
X90392233Y-62509170D01*
X90391685Y-62508297D01*
X90391838Y-62508200D01*
X90366718Y-62446664D01*
X90366074Y-62434042D01*
X90366074Y-59348867D01*
X90385759Y-59281828D01*
X90393129Y-59271552D01*
X90395384Y-59268722D01*
X90395390Y-59268717D01*
X90491363Y-59115977D01*
X90550942Y-58945710D01*
X90558322Y-58880212D01*
X90571139Y-58766458D01*
X90571139Y-58766451D01*
X90550943Y-58587205D01*
X90550942Y-58587200D01*
X90491362Y-58416931D01*
X90452156Y-58354535D01*
X90395390Y-58264193D01*
X90267836Y-58136639D01*
X90134406Y-58052799D01*
X90115097Y-58040666D01*
X89944828Y-57981086D01*
X89944823Y-57981085D01*
X89765578Y-57960890D01*
X89765570Y-57960890D01*
X89586324Y-57981085D01*
X89586313Y-57981088D01*
X89531027Y-58000433D01*
X89461248Y-58003994D01*
X89400621Y-57969264D01*
X89368395Y-57907271D01*
X89366074Y-57883391D01*
X89366074Y-55066552D01*
X89385759Y-54999513D01*
X89402393Y-54978871D01*
X95303393Y-49077871D01*
X95364716Y-49044386D01*
X95434408Y-49049370D01*
G37*
%TD.AperFunction*%
%TA.AperFunction,Conductor*%
G36*
X82250201Y-38276640D02*
G01*
X82260477Y-38284010D01*
X82263310Y-38286269D01*
X82263312Y-38286271D01*
X82416052Y-38382244D01*
X82586319Y-38441823D01*
X82654958Y-38449556D01*
X82719370Y-38476621D01*
X82758926Y-38534215D01*
X82765074Y-38572776D01*
X82765074Y-45583514D01*
X82745389Y-45650553D01*
X82728756Y-45671195D01*
X82635757Y-45764194D01*
X82539785Y-45916931D01*
X82480205Y-46087200D01*
X82480204Y-46087205D01*
X82460009Y-46266451D01*
X82460009Y-46266458D01*
X82480204Y-46445704D01*
X82480205Y-46445709D01*
X82539785Y-46615978D01*
X82609081Y-46726261D01*
X82635758Y-46768717D01*
X82763312Y-46896271D01*
X82853654Y-46953037D01*
X82898101Y-46980965D01*
X82916052Y-46992244D01*
X83032986Y-47033161D01*
X83086319Y-47051823D01*
X83086324Y-47051824D01*
X83265570Y-47072020D01*
X83265574Y-47072020D01*
X83265578Y-47072020D01*
X83444823Y-47051824D01*
X83444826Y-47051823D01*
X83444829Y-47051823D01*
X83615096Y-46992244D01*
X83767836Y-46896271D01*
X83895390Y-46768717D01*
X83910581Y-46744539D01*
X83962913Y-46698251D01*
X84031967Y-46687601D01*
X84095816Y-46715976D01*
X84120564Y-46744537D01*
X84135758Y-46768717D01*
X84263312Y-46896271D01*
X84353654Y-46953037D01*
X84398101Y-46980965D01*
X84416052Y-46992244D01*
X84532986Y-47033161D01*
X84586319Y-47051823D01*
X84586323Y-47051824D01*
X84683814Y-47062808D01*
X84748228Y-47089874D01*
X84787783Y-47147469D01*
X84789921Y-47217306D01*
X84757612Y-47273709D01*
X83501687Y-48529636D01*
X83440364Y-48563121D01*
X83414006Y-48565955D01*
X81565671Y-48565955D01*
X81498632Y-48546270D01*
X81477990Y-48529636D01*
X74696274Y-41747920D01*
X74662789Y-41686597D01*
X74660737Y-41674141D01*
X74650942Y-41587200D01*
X74591363Y-41416933D01*
X74495390Y-41264193D01*
X74367836Y-41136639D01*
X74356691Y-41129636D01*
X74215095Y-41040665D01*
X74044823Y-40981085D01*
X73976190Y-40973352D01*
X73911776Y-40946285D01*
X73872221Y-40888690D01*
X73866074Y-40850132D01*
X73866074Y-40066552D01*
X73885759Y-39999513D01*
X73902393Y-39978871D01*
X74477991Y-39403274D01*
X74539314Y-39369789D01*
X74565672Y-39366955D01*
X79913331Y-39366955D01*
X79913347Y-39366956D01*
X79920943Y-39366956D01*
X80079054Y-39366956D01*
X80079057Y-39366956D01*
X80231785Y-39326032D01*
X80281904Y-39297094D01*
X80368716Y-39246975D01*
X80480520Y-39135171D01*
X80480520Y-39135169D01*
X80490728Y-39124962D01*
X80490729Y-39124959D01*
X81322416Y-38293274D01*
X81383739Y-38259789D01*
X81410097Y-38256955D01*
X82183162Y-38256955D01*
X82250201Y-38276640D01*
G37*
%TD.AperFunction*%
%TA.AperFunction,Conductor*%
G36*
X86532516Y-29386640D02*
G01*
X86553158Y-29403274D01*
X87628755Y-30478871D01*
X87662240Y-30540194D01*
X87665074Y-30566552D01*
X87665074Y-43184042D01*
X87645389Y-43251081D01*
X87638024Y-43261351D01*
X87635760Y-43264189D01*
X87539785Y-43416931D01*
X87480205Y-43587200D01*
X87480204Y-43587205D01*
X87460009Y-43766451D01*
X87460009Y-43766458D01*
X87480204Y-43945704D01*
X87480205Y-43945709D01*
X87539785Y-44115978D01*
X87632094Y-44262886D01*
X87651094Y-44330123D01*
X87630726Y-44396958D01*
X87614781Y-44416539D01*
X85772828Y-46258493D01*
X85711505Y-46291978D01*
X85641813Y-46286994D01*
X85585880Y-46245122D01*
X85561927Y-46184695D01*
X85550943Y-46087204D01*
X85550942Y-46087200D01*
X85491362Y-45916931D01*
X85452156Y-45854535D01*
X85395390Y-45764193D01*
X85267836Y-45636639D01*
X85266073Y-45635531D01*
X85115095Y-45540665D01*
X84944823Y-45481085D01*
X84857904Y-45471292D01*
X84793490Y-45444225D01*
X84784107Y-45435753D01*
X84402393Y-45054038D01*
X84368908Y-44992715D01*
X84366074Y-44966357D01*
X84366074Y-38502776D01*
X84385759Y-38435737D01*
X84438563Y-38389982D01*
X84476186Y-38379556D01*
X84544829Y-38371823D01*
X84715096Y-38312244D01*
X84867836Y-38216271D01*
X84995390Y-38088717D01*
X85091363Y-37935977D01*
X85150942Y-37765710D01*
X85155440Y-37725788D01*
X85171139Y-37586458D01*
X85171139Y-37586451D01*
X85150943Y-37407205D01*
X85150942Y-37407200D01*
X85137990Y-37370185D01*
X85091363Y-37236933D01*
X85068161Y-37200008D01*
X85047129Y-37166535D01*
X84995390Y-37084193D01*
X84902392Y-36991195D01*
X84868908Y-36929871D01*
X84866074Y-36903514D01*
X84866074Y-33788544D01*
X84885759Y-33721505D01*
X84902393Y-33700863D01*
X84909382Y-33693874D01*
X84924539Y-33678717D01*
X85020512Y-33525977D01*
X85080091Y-33355710D01*
X85083887Y-33322020D01*
X85100288Y-33176458D01*
X85100288Y-33176451D01*
X85080092Y-32997205D01*
X85080091Y-32997200D01*
X85052932Y-32919585D01*
X85020512Y-32826933D01*
X84924539Y-32674193D01*
X84796985Y-32546639D01*
X84748952Y-32516458D01*
X84644244Y-32450665D01*
X84615607Y-32440645D01*
X84558831Y-32399923D01*
X84539521Y-32364560D01*
X84491363Y-32226933D01*
X84395390Y-32074193D01*
X84267836Y-31946639D01*
X84266348Y-31945704D01*
X84115097Y-31850666D01*
X83944828Y-31791086D01*
X83944823Y-31791085D01*
X83765578Y-31770890D01*
X83765570Y-31770890D01*
X83586324Y-31791085D01*
X83586319Y-31791086D01*
X83416050Y-31850666D01*
X83263308Y-31946641D01*
X83257864Y-31950983D01*
X83257045Y-31949956D01*
X83202211Y-31979890D01*
X83132520Y-31974898D01*
X83088185Y-31946402D01*
X83046642Y-31904859D01*
X82893903Y-31808886D01*
X82723634Y-31749306D01*
X82723629Y-31749305D01*
X82544384Y-31729110D01*
X82544376Y-31729110D01*
X82365130Y-31749305D01*
X82365125Y-31749306D01*
X82194856Y-31808886D01*
X82042117Y-31904859D01*
X81914564Y-32032412D01*
X81818591Y-32185151D01*
X81759011Y-32355420D01*
X81759010Y-32355425D01*
X81738815Y-32534671D01*
X81738815Y-32534678D01*
X81759010Y-32713924D01*
X81759011Y-32713929D01*
X81818591Y-32884198D01*
X81866780Y-32960890D01*
X81900270Y-33014189D01*
X81914565Y-33036938D01*
X81916825Y-33039772D01*
X81917714Y-33041950D01*
X81918269Y-33042833D01*
X81918114Y-33042930D01*
X81943235Y-33104458D01*
X81943880Y-33117087D01*
X81943880Y-35110062D01*
X81943879Y-35110080D01*
X81943879Y-35275786D01*
X81943878Y-35275786D01*
X81943879Y-35275789D01*
X81984803Y-35428517D01*
X81989814Y-35437196D01*
X82001669Y-35457731D01*
X82001670Y-35457732D01*
X82063855Y-35565441D01*
X82063861Y-35565449D01*
X82182729Y-35684317D01*
X82182735Y-35684322D01*
X82728755Y-36230342D01*
X82762240Y-36291665D01*
X82765074Y-36318023D01*
X82765074Y-36740132D01*
X82745389Y-36807171D01*
X82692585Y-36852926D01*
X82654958Y-36863352D01*
X82586324Y-36871085D01*
X82416052Y-36930665D01*
X82263310Y-37026640D01*
X82260477Y-37028900D01*
X82258298Y-37029789D01*
X82257416Y-37030344D01*
X82257318Y-37030189D01*
X82195791Y-37055310D01*
X82183162Y-37055955D01*
X81030943Y-37055955D01*
X80878214Y-37096878D01*
X80844730Y-37116211D01*
X80844729Y-37116211D01*
X80741287Y-37175932D01*
X80741282Y-37175936D01*
X80680288Y-37236931D01*
X80629480Y-37287739D01*
X80629478Y-37287741D01*
X80191430Y-37725790D01*
X79787584Y-38129636D01*
X79726261Y-38163121D01*
X79699903Y-38165955D01*
X74565671Y-38165955D01*
X74498632Y-38146270D01*
X74477990Y-38129636D01*
X74243164Y-37894810D01*
X74243162Y-37894807D01*
X74124291Y-37775936D01*
X74124290Y-37775935D01*
X74037434Y-37725789D01*
X73987359Y-37696878D01*
X73834631Y-37655954D01*
X73676517Y-37655954D01*
X73668921Y-37655954D01*
X73668905Y-37655955D01*
X73294669Y-37655955D01*
X73227630Y-37636270D01*
X73181875Y-37583466D01*
X73171931Y-37514308D01*
X73189675Y-37465983D01*
X73243818Y-37379815D01*
X73271363Y-37335977D01*
X73330942Y-37165710D01*
X73330943Y-37165704D01*
X73351139Y-36986458D01*
X73351139Y-36986451D01*
X73330594Y-36804103D01*
X73342649Y-36735281D01*
X73389998Y-36683902D01*
X73453814Y-36666220D01*
X75686517Y-36666220D01*
X75844631Y-36666220D01*
X78759337Y-36666220D01*
X78825310Y-36685227D01*
X78916049Y-36742243D01*
X79086319Y-36801823D01*
X79086324Y-36801824D01*
X79265570Y-36822020D01*
X79265574Y-36822020D01*
X79265578Y-36822020D01*
X79444823Y-36801824D01*
X79444826Y-36801823D01*
X79444829Y-36801823D01*
X79615096Y-36742244D01*
X79767836Y-36646271D01*
X79895390Y-36518717D01*
X79991363Y-36365977D01*
X80050942Y-36195710D01*
X80059637Y-36118539D01*
X80071139Y-36016458D01*
X80071139Y-36016451D01*
X80050943Y-35837205D01*
X80050942Y-35837200D01*
X80019814Y-35748241D01*
X79991363Y-35666933D01*
X79987083Y-35660122D01*
X79895389Y-35514192D01*
X79860333Y-35479136D01*
X79826848Y-35417813D01*
X79831832Y-35348121D01*
X79860333Y-35303774D01*
X79895390Y-35268717D01*
X79991363Y-35115977D01*
X80050942Y-34945710D01*
X80050943Y-34945704D01*
X80071139Y-34766458D01*
X80071139Y-34766451D01*
X80050943Y-34587205D01*
X80050942Y-34587200D01*
X80027146Y-34519196D01*
X79991363Y-34416933D01*
X79990748Y-34415955D01*
X79952156Y-34354535D01*
X79895390Y-34264193D01*
X79767836Y-34136639D01*
X79763159Y-34133700D01*
X79615097Y-34040666D01*
X79444828Y-33981086D01*
X79444823Y-33981085D01*
X79265578Y-33960890D01*
X79265570Y-33960890D01*
X79086324Y-33981085D01*
X79086319Y-33981086D01*
X78916050Y-34040666D01*
X78763311Y-34136639D01*
X78635758Y-34264192D01*
X78576861Y-34357927D01*
X78524526Y-34404218D01*
X78471867Y-34415955D01*
X76947986Y-34415955D01*
X76880947Y-34396270D01*
X76870671Y-34388900D01*
X76867837Y-34386640D01*
X76867836Y-34386639D01*
X76740221Y-34306453D01*
X76715095Y-34290665D01*
X76544823Y-34231085D01*
X76476190Y-34223352D01*
X76411776Y-34196285D01*
X76372221Y-34138690D01*
X76366074Y-34100132D01*
X76366074Y-32816553D01*
X76385759Y-32749514D01*
X76402393Y-32728872D01*
X76435561Y-32695704D01*
X76496094Y-32635171D01*
X76575151Y-32498239D01*
X76605108Y-32386436D01*
X76616074Y-32345513D01*
X76616074Y-32187398D01*
X76616074Y-31848867D01*
X76635759Y-31781828D01*
X76643129Y-31771552D01*
X76645384Y-31768722D01*
X76645390Y-31768717D01*
X76741363Y-31615977D01*
X76800942Y-31445710D01*
X76800943Y-31445704D01*
X76821139Y-31266458D01*
X76821139Y-31266451D01*
X76800943Y-31087205D01*
X76800942Y-31087200D01*
X76741362Y-30916931D01*
X76667901Y-30800019D01*
X76645390Y-30764193D01*
X76517836Y-30636639D01*
X76483678Y-30615176D01*
X76365097Y-30540666D01*
X76194828Y-30481086D01*
X76194823Y-30481085D01*
X76015578Y-30460890D01*
X76015570Y-30460890D01*
X75836324Y-30481085D01*
X75836319Y-30481086D01*
X75666050Y-30540666D01*
X75513311Y-30636639D01*
X75385758Y-30764192D01*
X75289785Y-30916931D01*
X75230205Y-31087200D01*
X75230204Y-31087205D01*
X75210009Y-31266451D01*
X75210009Y-31266458D01*
X75230204Y-31445704D01*
X75230205Y-31445709D01*
X75289785Y-31615978D01*
X75308819Y-31646270D01*
X75384337Y-31766456D01*
X75385759Y-31768718D01*
X75388019Y-31771552D01*
X75388908Y-31773730D01*
X75389463Y-31774613D01*
X75389308Y-31774710D01*
X75414429Y-31836238D01*
X75415074Y-31848867D01*
X75415074Y-31966357D01*
X75395389Y-32033396D01*
X75378755Y-32054038D01*
X75285055Y-32147737D01*
X75285051Y-32147742D01*
X75242770Y-32220977D01*
X75205998Y-32284666D01*
X75205997Y-32284667D01*
X75184591Y-32364557D01*
X75165073Y-32437398D01*
X75165073Y-32437400D01*
X75165073Y-32605501D01*
X75165074Y-32605514D01*
X75165074Y-35341220D01*
X75145389Y-35408259D01*
X75092585Y-35454014D01*
X75041074Y-35465220D01*
X73215407Y-35465220D01*
X73148368Y-35445535D01*
X73102613Y-35392731D01*
X73092669Y-35323573D01*
X73121694Y-35260017D01*
X73127726Y-35253539D01*
X73174282Y-35206983D01*
X73246094Y-35135171D01*
X73325151Y-34998239D01*
X73366075Y-34845512D01*
X73366075Y-34687397D01*
X73366075Y-34679802D01*
X73366074Y-34679784D01*
X73366074Y-32348867D01*
X73385759Y-32281828D01*
X73393129Y-32271552D01*
X73395384Y-32268722D01*
X73395390Y-32268717D01*
X73491363Y-32115977D01*
X73550942Y-31945710D01*
X73550943Y-31945704D01*
X73571139Y-31766458D01*
X73571139Y-31766451D01*
X73550943Y-31587205D01*
X73550942Y-31587200D01*
X73539223Y-31553708D01*
X73491363Y-31416933D01*
X73489641Y-31414193D01*
X73447687Y-31347423D01*
X73395390Y-31264193D01*
X73267836Y-31136639D01*
X73259000Y-31131087D01*
X73207143Y-31098502D01*
X73160852Y-31046167D01*
X73150205Y-30977113D01*
X73178581Y-30913265D01*
X73185422Y-30905841D01*
X74687991Y-29403274D01*
X74749314Y-29369789D01*
X74775672Y-29366955D01*
X86465477Y-29366955D01*
X86532516Y-29386640D01*
G37*
%TD.AperFunction*%
%TA.AperFunction,Conductor*%
G36*
X118793077Y-22019685D02*
G01*
X118838832Y-22072489D01*
X118850038Y-22123704D01*
X118994873Y-82850500D01*
X118999704Y-84875704D01*
X118980179Y-84942790D01*
X118927484Y-84988671D01*
X118875704Y-85000000D01*
X35974049Y-85000000D01*
X35907010Y-84980315D01*
X35861255Y-84927511D01*
X35850049Y-84875694D01*
X35855272Y-82756052D01*
X35859898Y-80878711D01*
X38149500Y-80878711D01*
X38149500Y-81121288D01*
X38181161Y-81361785D01*
X38243947Y-81596104D01*
X38336773Y-81820205D01*
X38336776Y-81820212D01*
X38458064Y-82030289D01*
X38458066Y-82030292D01*
X38458067Y-82030293D01*
X38605733Y-82222736D01*
X38605739Y-82222743D01*
X38777256Y-82394260D01*
X38777262Y-82394265D01*
X38969711Y-82541936D01*
X39179788Y-82663224D01*
X39403900Y-82756054D01*
X39638211Y-82818838D01*
X39818586Y-82842584D01*
X39878711Y-82850500D01*
X39878712Y-82850500D01*
X40121289Y-82850500D01*
X40169388Y-82844167D01*
X40361789Y-82818838D01*
X40596100Y-82756054D01*
X40820212Y-82663224D01*
X41030289Y-82541936D01*
X41222738Y-82394265D01*
X41394265Y-82222738D01*
X41541936Y-82030289D01*
X41663224Y-81820212D01*
X41756054Y-81596100D01*
X41818838Y-81361789D01*
X41850500Y-81121288D01*
X41850500Y-80878712D01*
X41850500Y-80878711D01*
X113149500Y-80878711D01*
X113149500Y-81121288D01*
X113181161Y-81361785D01*
X113243947Y-81596104D01*
X113336773Y-81820205D01*
X113336776Y-81820212D01*
X113458064Y-82030289D01*
X113458066Y-82030292D01*
X113458067Y-82030293D01*
X113605733Y-82222736D01*
X113605739Y-82222743D01*
X113777256Y-82394260D01*
X113777262Y-82394265D01*
X113969711Y-82541936D01*
X114179788Y-82663224D01*
X114403900Y-82756054D01*
X114638211Y-82818838D01*
X114818586Y-82842584D01*
X114878711Y-82850500D01*
X114878712Y-82850500D01*
X115121289Y-82850500D01*
X115169388Y-82844167D01*
X115361789Y-82818838D01*
X115596100Y-82756054D01*
X115820212Y-82663224D01*
X116030289Y-82541936D01*
X116222738Y-82394265D01*
X116394265Y-82222738D01*
X116541936Y-82030289D01*
X116663224Y-81820212D01*
X116756054Y-81596100D01*
X116818838Y-81361789D01*
X116850500Y-81121288D01*
X116850500Y-80878712D01*
X116818838Y-80638211D01*
X116756054Y-80403900D01*
X116663224Y-80179788D01*
X116541936Y-79969711D01*
X116394265Y-79777262D01*
X116394260Y-79777256D01*
X116222743Y-79605739D01*
X116222736Y-79605733D01*
X116030293Y-79458067D01*
X116030292Y-79458066D01*
X116030289Y-79458064D01*
X115820212Y-79336776D01*
X115820205Y-79336773D01*
X115596104Y-79243947D01*
X115361785Y-79181161D01*
X115121289Y-79149500D01*
X115121288Y-79149500D01*
X114878712Y-79149500D01*
X114878711Y-79149500D01*
X114638214Y-79181161D01*
X114403895Y-79243947D01*
X114179794Y-79336773D01*
X114179785Y-79336777D01*
X113969706Y-79458067D01*
X113777263Y-79605733D01*
X113777256Y-79605739D01*
X113605739Y-79777256D01*
X113605733Y-79777263D01*
X113458067Y-79969706D01*
X113336777Y-80179785D01*
X113336773Y-80179794D01*
X113243947Y-80403895D01*
X113181161Y-80638214D01*
X113149500Y-80878711D01*
X41850500Y-80878711D01*
X41818838Y-80638211D01*
X41756054Y-80403900D01*
X41663224Y-80179788D01*
X41541936Y-79969711D01*
X41394265Y-79777262D01*
X41394260Y-79777256D01*
X41222743Y-79605739D01*
X41222736Y-79605733D01*
X41030293Y-79458067D01*
X41030292Y-79458066D01*
X41030289Y-79458064D01*
X40820212Y-79336776D01*
X40820205Y-79336773D01*
X40596104Y-79243947D01*
X40361785Y-79181161D01*
X40121289Y-79149500D01*
X40121288Y-79149500D01*
X39878712Y-79149500D01*
X39878711Y-79149500D01*
X39638214Y-79181161D01*
X39403895Y-79243947D01*
X39179794Y-79336773D01*
X39179785Y-79336777D01*
X38969706Y-79458067D01*
X38777263Y-79605733D01*
X38777256Y-79605739D01*
X38605739Y-79777256D01*
X38605733Y-79777263D01*
X38458067Y-79969706D01*
X38336777Y-80179785D01*
X38336773Y-80179794D01*
X38243947Y-80403895D01*
X38181161Y-80638214D01*
X38149500Y-80878711D01*
X35859898Y-80878711D01*
X35873948Y-75176454D01*
X47814509Y-75176454D01*
X47814509Y-75176455D01*
X47834730Y-75407587D01*
X47834732Y-75407597D01*
X47894779Y-75631698D01*
X47894781Y-75631702D01*
X47894782Y-75631706D01*
X47943810Y-75736847D01*
X47992837Y-75841987D01*
X47992838Y-75841988D01*
X48125919Y-76032047D01*
X48289982Y-76196110D01*
X48480041Y-76329191D01*
X48690323Y-76427247D01*
X48914437Y-76487298D01*
X49099346Y-76503475D01*
X49145573Y-76507520D01*
X49145574Y-76507520D01*
X49145575Y-76507520D01*
X49184096Y-76504149D01*
X49376711Y-76487298D01*
X49600825Y-76427247D01*
X49811107Y-76329191D01*
X50001166Y-76196110D01*
X50165229Y-76032047D01*
X50298310Y-75841988D01*
X50396366Y-75631706D01*
X50456417Y-75407592D01*
X50476639Y-75176455D01*
X50476639Y-75176454D01*
X55434509Y-75176454D01*
X55434509Y-75176455D01*
X55454730Y-75407587D01*
X55454732Y-75407597D01*
X55514779Y-75631698D01*
X55514781Y-75631702D01*
X55514782Y-75631706D01*
X55563810Y-75736847D01*
X55612837Y-75841987D01*
X55612838Y-75841988D01*
X55745919Y-76032047D01*
X55909982Y-76196110D01*
X56100041Y-76329191D01*
X56310323Y-76427247D01*
X56534437Y-76487298D01*
X56719346Y-76503475D01*
X56765573Y-76507520D01*
X56765574Y-76507520D01*
X56765575Y-76507520D01*
X56804096Y-76504149D01*
X56996711Y-76487298D01*
X57220825Y-76427247D01*
X57431107Y-76329191D01*
X57621166Y-76196110D01*
X57785229Y-76032047D01*
X57918310Y-75841988D01*
X58016366Y-75631706D01*
X58076417Y-75407592D01*
X58096639Y-75176455D01*
X58096639Y-75176454D01*
X65594509Y-75176454D01*
X65594509Y-75176455D01*
X65614730Y-75407587D01*
X65614732Y-75407597D01*
X65674779Y-75631698D01*
X65674781Y-75631702D01*
X65674782Y-75631706D01*
X65723810Y-75736847D01*
X65772837Y-75841987D01*
X65772838Y-75841988D01*
X65905919Y-76032047D01*
X66069982Y-76196110D01*
X66260041Y-76329191D01*
X66470323Y-76427247D01*
X66694437Y-76487298D01*
X66879346Y-76503475D01*
X66925573Y-76507520D01*
X66925574Y-76507520D01*
X66925575Y-76507520D01*
X66964096Y-76504149D01*
X67156711Y-76487298D01*
X67380825Y-76427247D01*
X67591107Y-76329191D01*
X67781166Y-76196110D01*
X67945229Y-76032047D01*
X68078310Y-75841988D01*
X68176366Y-75631706D01*
X68236417Y-75407592D01*
X68256639Y-75176455D01*
X68236417Y-74945318D01*
X68176366Y-74721204D01*
X68078310Y-74510923D01*
X68078308Y-74510920D01*
X68078307Y-74510918D01*
X67945228Y-74320861D01*
X67781170Y-74156804D01*
X67781166Y-74156800D01*
X67591107Y-74023719D01*
X67591108Y-74023719D01*
X67591106Y-74023718D01*
X67485966Y-73974691D01*
X67380825Y-73925663D01*
X67380821Y-73925662D01*
X67380817Y-73925660D01*
X67156716Y-73865613D01*
X67156706Y-73865611D01*
X66925575Y-73845390D01*
X66925573Y-73845390D01*
X66694441Y-73865611D01*
X66694431Y-73865613D01*
X66470330Y-73925660D01*
X66470321Y-73925664D01*
X66260041Y-74023719D01*
X66260037Y-74023721D01*
X66069980Y-74156800D01*
X65905919Y-74320861D01*
X65772840Y-74510918D01*
X65772838Y-74510922D01*
X65674783Y-74721202D01*
X65674779Y-74721211D01*
X65614732Y-74945312D01*
X65614730Y-74945322D01*
X65594509Y-75176454D01*
X58096639Y-75176454D01*
X58076417Y-74945318D01*
X58016366Y-74721204D01*
X57918310Y-74510923D01*
X57918308Y-74510920D01*
X57918307Y-74510918D01*
X57785228Y-74320861D01*
X57621170Y-74156804D01*
X57621166Y-74156800D01*
X57431107Y-74023719D01*
X57431108Y-74023719D01*
X57431106Y-74023718D01*
X57325966Y-73974691D01*
X57220825Y-73925663D01*
X57220821Y-73925662D01*
X57220817Y-73925660D01*
X56996716Y-73865613D01*
X56996706Y-73865611D01*
X56765575Y-73845390D01*
X56765573Y-73845390D01*
X56534441Y-73865611D01*
X56534431Y-73865613D01*
X56310330Y-73925660D01*
X56310321Y-73925664D01*
X56100041Y-74023719D01*
X56100037Y-74023721D01*
X55909980Y-74156800D01*
X55745919Y-74320861D01*
X55612840Y-74510918D01*
X55612838Y-74510922D01*
X55514783Y-74721202D01*
X55514779Y-74721211D01*
X55454732Y-74945312D01*
X55454730Y-74945322D01*
X55434509Y-75176454D01*
X50476639Y-75176454D01*
X50456417Y-74945318D01*
X50396366Y-74721204D01*
X50298310Y-74510923D01*
X50298308Y-74510920D01*
X50298307Y-74510918D01*
X50165228Y-74320861D01*
X50001170Y-74156804D01*
X50001166Y-74156800D01*
X49811107Y-74023719D01*
X49811108Y-74023719D01*
X49811106Y-74023718D01*
X49705966Y-73974691D01*
X49600825Y-73925663D01*
X49600821Y-73925662D01*
X49600817Y-73925660D01*
X49376716Y-73865613D01*
X49376706Y-73865611D01*
X49145575Y-73845390D01*
X49145573Y-73845390D01*
X48914441Y-73865611D01*
X48914431Y-73865613D01*
X48690330Y-73925660D01*
X48690321Y-73925664D01*
X48480041Y-74023719D01*
X48480037Y-74023721D01*
X48289980Y-74156800D01*
X48125919Y-74320861D01*
X47992840Y-74510918D01*
X47992838Y-74510922D01*
X47894783Y-74721202D01*
X47894779Y-74721211D01*
X47834732Y-74945312D01*
X47834730Y-74945322D01*
X47814509Y-75176454D01*
X35873948Y-75176454D01*
X35899815Y-64677759D01*
X40205074Y-64677759D01*
X40205074Y-64855150D01*
X40239677Y-65029113D01*
X40239680Y-65029122D01*
X40307557Y-65192995D01*
X40307564Y-65193008D01*
X40406109Y-65340489D01*
X40406112Y-65340493D01*
X40531535Y-65465916D01*
X40531539Y-65465919D01*
X40679020Y-65564464D01*
X40679033Y-65564471D01*
X40801937Y-65615378D01*
X40842908Y-65632349D01*
X40842910Y-65632349D01*
X40842915Y-65632351D01*
X40967043Y-65657041D01*
X41009695Y-65665525D01*
X41071606Y-65697909D01*
X41106180Y-65758625D01*
X41109032Y-65797950D01*
X41089915Y-66016454D01*
X41089915Y-66016455D01*
X41110510Y-66251858D01*
X41110512Y-66251868D01*
X41171668Y-66480110D01*
X41171670Y-66480114D01*
X41171671Y-66480118D01*
X41261424Y-66672594D01*
X41271539Y-66694285D01*
X41271541Y-66694289D01*
X41309322Y-66748245D01*
X41407075Y-66887851D01*
X41407080Y-66887857D01*
X41574171Y-67054948D01*
X41574177Y-67054953D01*
X41731169Y-67164880D01*
X41774794Y-67219457D01*
X41781988Y-67288955D01*
X41750465Y-67351310D01*
X41731169Y-67368030D01*
X41574171Y-67477960D01*
X41407079Y-67645052D01*
X41271539Y-67838624D01*
X41271538Y-67838626D01*
X41171672Y-68052790D01*
X41171668Y-68052799D01*
X41110512Y-68281041D01*
X41110510Y-68281051D01*
X41089915Y-68516454D01*
X41089915Y-68516455D01*
X41110510Y-68751858D01*
X41110512Y-68751868D01*
X41171668Y-68980110D01*
X41171670Y-68980114D01*
X41171671Y-68980118D01*
X41195574Y-69031378D01*
X41271539Y-69194285D01*
X41271541Y-69194289D01*
X41297149Y-69230860D01*
X41407075Y-69387851D01*
X41407080Y-69387857D01*
X41574171Y-69554948D01*
X41574177Y-69554953D01*
X41731169Y-69664880D01*
X41774794Y-69719457D01*
X41781988Y-69788955D01*
X41750465Y-69851310D01*
X41731169Y-69868030D01*
X41574171Y-69977960D01*
X41407079Y-70145052D01*
X41271539Y-70338624D01*
X41271538Y-70338626D01*
X41171672Y-70552790D01*
X41171668Y-70552799D01*
X41110512Y-70781041D01*
X41110510Y-70781051D01*
X41089915Y-71016454D01*
X41089915Y-71016455D01*
X41110510Y-71251858D01*
X41110512Y-71251868D01*
X41171668Y-71480110D01*
X41171670Y-71480114D01*
X41171671Y-71480118D01*
X41219245Y-71582140D01*
X41271539Y-71694285D01*
X41271541Y-71694289D01*
X41307409Y-71745513D01*
X41407079Y-71887856D01*
X41574173Y-72054950D01*
X41670958Y-72122720D01*
X41767739Y-72190487D01*
X41767741Y-72190488D01*
X41767744Y-72190490D01*
X41981911Y-72290358D01*
X41981917Y-72290359D01*
X41981918Y-72290360D01*
X41983060Y-72290666D01*
X42210166Y-72351518D01*
X42398492Y-72367994D01*
X42445573Y-72372114D01*
X42445574Y-72372114D01*
X42445575Y-72372114D01*
X42484808Y-72368681D01*
X42680982Y-72351518D01*
X42909237Y-72290358D01*
X43123404Y-72190490D01*
X43316975Y-72054950D01*
X43484069Y-71887856D01*
X43593999Y-71730860D01*
X43648576Y-71687235D01*
X43718074Y-71680041D01*
X43780429Y-71711564D01*
X43797149Y-71730860D01*
X43907074Y-71887850D01*
X43907079Y-71887856D01*
X44074173Y-72054950D01*
X44170958Y-72122720D01*
X44267739Y-72190487D01*
X44267741Y-72190488D01*
X44267744Y-72190490D01*
X44481911Y-72290358D01*
X44481917Y-72290359D01*
X44481918Y-72290360D01*
X44483060Y-72290666D01*
X44710166Y-72351518D01*
X44898492Y-72367994D01*
X44945573Y-72372114D01*
X44945574Y-72372114D01*
X44945575Y-72372114D01*
X44984808Y-72368681D01*
X45180982Y-72351518D01*
X45409237Y-72290358D01*
X45623404Y-72190490D01*
X45816975Y-72054950D01*
X45984069Y-71887856D01*
X46119609Y-71694285D01*
X46219477Y-71480118D01*
X46280637Y-71251863D01*
X46301233Y-71016455D01*
X46280637Y-70781047D01*
X46219477Y-70552792D01*
X46119609Y-70338626D01*
X46107510Y-70321346D01*
X45984068Y-70145052D01*
X45816976Y-69977961D01*
X45816970Y-69977956D01*
X45659979Y-69868030D01*
X45616354Y-69813453D01*
X45609160Y-69743955D01*
X45640683Y-69681600D01*
X45659979Y-69664880D01*
X45689209Y-69644412D01*
X45816975Y-69554950D01*
X45984069Y-69387856D01*
X46119609Y-69194285D01*
X46219477Y-68980118D01*
X46280637Y-68751863D01*
X46301233Y-68516455D01*
X46280637Y-68281047D01*
X46219477Y-68052792D01*
X46119609Y-67838626D01*
X46107510Y-67821346D01*
X45984068Y-67645052D01*
X45816976Y-67477961D01*
X45816970Y-67477956D01*
X45659979Y-67368030D01*
X45616354Y-67313453D01*
X45609160Y-67243955D01*
X45640683Y-67181600D01*
X45659979Y-67164880D01*
X45689209Y-67144412D01*
X45816975Y-67054950D01*
X45984069Y-66887856D01*
X46119609Y-66694285D01*
X46219477Y-66480118D01*
X46280637Y-66251863D01*
X46301233Y-66016455D01*
X46280637Y-65781047D01*
X46222606Y-65564468D01*
X46219479Y-65552799D01*
X46219478Y-65552798D01*
X46219477Y-65552792D01*
X46119609Y-65338626D01*
X46107510Y-65321346D01*
X45984068Y-65145052D01*
X45816976Y-64977961D01*
X45816970Y-64977956D01*
X45659979Y-64868030D01*
X45616354Y-64813453D01*
X45609160Y-64743955D01*
X45640683Y-64681600D01*
X45659979Y-64664880D01*
X45808046Y-64561202D01*
X45816975Y-64554950D01*
X45923226Y-64448698D01*
X45984545Y-64415216D01*
X46054237Y-64420200D01*
X46098585Y-64448701D01*
X48156213Y-66506329D01*
X48156223Y-66506340D01*
X48160553Y-66510670D01*
X48160554Y-66510671D01*
X48272358Y-66622475D01*
X48359169Y-66672594D01*
X48359171Y-66672596D01*
X48396737Y-66694285D01*
X48409289Y-66701532D01*
X48562016Y-66742455D01*
X48562017Y-66742455D01*
X55553405Y-66742455D01*
X55553421Y-66742456D01*
X55561017Y-66742456D01*
X55719128Y-66742456D01*
X55719131Y-66742456D01*
X55871859Y-66701532D01*
X55921978Y-66672594D01*
X56008790Y-66622475D01*
X56120594Y-66510671D01*
X56120594Y-66510669D01*
X56130802Y-66500462D01*
X56130804Y-66500459D01*
X56302048Y-66329214D01*
X56363369Y-66295731D01*
X56421820Y-66297121D01*
X56534437Y-66327298D01*
X56719346Y-66343475D01*
X56765573Y-66347520D01*
X56765574Y-66347520D01*
X56765575Y-66347520D01*
X56804096Y-66344149D01*
X56996711Y-66327298D01*
X57220825Y-66267247D01*
X57431107Y-66169191D01*
X57621166Y-66036110D01*
X57785229Y-65872047D01*
X57918310Y-65681988D01*
X58016366Y-65471706D01*
X58076417Y-65247592D01*
X58096639Y-65016455D01*
X58096639Y-65016454D01*
X65594509Y-65016454D01*
X65594509Y-65016455D01*
X65614730Y-65247587D01*
X65614732Y-65247597D01*
X65674779Y-65471698D01*
X65674781Y-65471702D01*
X65674782Y-65471706D01*
X65712141Y-65551823D01*
X65772837Y-65681987D01*
X65772838Y-65681988D01*
X65905919Y-65872047D01*
X66069982Y-66036110D01*
X66260041Y-66169191D01*
X66470323Y-66267247D01*
X66470329Y-66267248D01*
X66470330Y-66267249D01*
X66512667Y-66278593D01*
X66694437Y-66327298D01*
X66879346Y-66343475D01*
X66925573Y-66347520D01*
X66925574Y-66347520D01*
X66925575Y-66347520D01*
X66941592Y-66346118D01*
X67156711Y-66327298D01*
X67269326Y-66297122D01*
X67339174Y-66298785D01*
X67389099Y-66329215D01*
X74056858Y-72996975D01*
X74056860Y-72996976D01*
X74056864Y-72996979D01*
X74175842Y-73065670D01*
X74193790Y-73076032D01*
X74346517Y-73116956D01*
X74346519Y-73116956D01*
X74512228Y-73116956D01*
X74512244Y-73116955D01*
X88027434Y-73116955D01*
X88027450Y-73116956D01*
X88035046Y-73116956D01*
X88193157Y-73116956D01*
X88193160Y-73116956D01*
X88345888Y-73076032D01*
X88396007Y-73047094D01*
X88482819Y-72996975D01*
X88594623Y-72885171D01*
X88594623Y-72885169D01*
X88604831Y-72874962D01*
X88604832Y-72874959D01*
X95303395Y-66176397D01*
X95364716Y-66142914D01*
X95434408Y-66147898D01*
X95490341Y-66189770D01*
X95514758Y-66255234D01*
X95515074Y-66264080D01*
X95515074Y-71366357D01*
X95495389Y-71433396D01*
X95478755Y-71454038D01*
X94747039Y-72185753D01*
X94685716Y-72219238D01*
X94673242Y-72221292D01*
X94586324Y-72231085D01*
X94416052Y-72290665D01*
X94263311Y-72386639D01*
X94135758Y-72514192D01*
X94039785Y-72666931D01*
X93980205Y-72837200D01*
X93980204Y-72837205D01*
X93960009Y-73016451D01*
X93960009Y-73016458D01*
X93980204Y-73195704D01*
X93980205Y-73195709D01*
X94039785Y-73365978D01*
X94135758Y-73518717D01*
X94263312Y-73646271D01*
X94416052Y-73742244D01*
X94586319Y-73801823D01*
X94586324Y-73801824D01*
X94765570Y-73822020D01*
X94765574Y-73822020D01*
X94765578Y-73822020D01*
X94944823Y-73801824D01*
X94944826Y-73801823D01*
X94944829Y-73801823D01*
X95115096Y-73742244D01*
X95267836Y-73646271D01*
X95395390Y-73518717D01*
X95491363Y-73365977D01*
X95550942Y-73195710D01*
X95560735Y-73108784D01*
X95587800Y-73044373D01*
X95596264Y-73034998D01*
X96474080Y-72157183D01*
X96474085Y-72157179D01*
X96484288Y-72146975D01*
X96484290Y-72146975D01*
X96596094Y-72035171D01*
X96664923Y-71915955D01*
X96675151Y-71898240D01*
X96716074Y-71745513D01*
X96716074Y-71587398D01*
X96716074Y-43287398D01*
X96699937Y-43227172D01*
X96675151Y-43134670D01*
X96627319Y-43051823D01*
X96596384Y-42998241D01*
X96596095Y-42997740D01*
X96479959Y-42881604D01*
X96479948Y-42881594D01*
X96346274Y-42747920D01*
X96312789Y-42686597D01*
X96310737Y-42674141D01*
X96300942Y-42587200D01*
X96241363Y-42416933D01*
X96145390Y-42264193D01*
X96017836Y-42136639D01*
X95865097Y-42040666D01*
X95694828Y-41981086D01*
X95694823Y-41981085D01*
X95515578Y-41960890D01*
X95515570Y-41960890D01*
X95336324Y-41981085D01*
X95336319Y-41981086D01*
X95166050Y-42040666D01*
X95079989Y-42094743D01*
X95012753Y-42113743D01*
X94945917Y-42093375D01*
X94926339Y-42077433D01*
X94830533Y-41981628D01*
X94797050Y-41920308D01*
X94794998Y-41907851D01*
X94785203Y-41820910D01*
X94725624Y-41650643D01*
X94629651Y-41497903D01*
X94502097Y-41370349D01*
X94469922Y-41350132D01*
X94349358Y-41274376D01*
X94179089Y-41214796D01*
X94179084Y-41214795D01*
X93999839Y-41194600D01*
X93999831Y-41194600D01*
X93820585Y-41214795D01*
X93820580Y-41214796D01*
X93650311Y-41274376D01*
X93497572Y-41370349D01*
X93370019Y-41497902D01*
X93274046Y-41650641D01*
X93214466Y-41820910D01*
X93214465Y-41820915D01*
X93194270Y-42000161D01*
X93194270Y-42000168D01*
X93214465Y-42179414D01*
X93214466Y-42179419D01*
X93274046Y-42349688D01*
X93334381Y-42445710D01*
X93370019Y-42502427D01*
X93497573Y-42629981D01*
X93650313Y-42725954D01*
X93820580Y-42785533D01*
X93907504Y-42795326D01*
X93971915Y-42822391D01*
X93981300Y-42830865D01*
X94278755Y-43128320D01*
X94312240Y-43189643D01*
X94315074Y-43216001D01*
X94315074Y-46417587D01*
X94295389Y-46484626D01*
X94288024Y-46494896D01*
X94285760Y-46497734D01*
X94189785Y-46650476D01*
X94130205Y-46820745D01*
X94130204Y-46820750D01*
X94110009Y-46999996D01*
X94110009Y-47000003D01*
X94130204Y-47179249D01*
X94130205Y-47179254D01*
X94189785Y-47349523D01*
X94272097Y-47480521D01*
X94285758Y-47502262D01*
X94413312Y-47629816D01*
X94566052Y-47725789D01*
X94669392Y-47761949D01*
X94726168Y-47802671D01*
X94751916Y-47867623D01*
X94738460Y-47936185D01*
X94716119Y-47966672D01*
X88396860Y-54285933D01*
X88285055Y-54397737D01*
X88285053Y-54397740D01*
X88234935Y-54484549D01*
X88234933Y-54484551D01*
X88205999Y-54534664D01*
X88205998Y-54534665D01*
X88205997Y-54534670D01*
X88165073Y-54687398D01*
X88165073Y-54687400D01*
X88165073Y-54855501D01*
X88165074Y-54855514D01*
X88165074Y-70434042D01*
X88145389Y-70501081D01*
X88138024Y-70511351D01*
X88135760Y-70514189D01*
X88039785Y-70666931D01*
X87980205Y-70837200D01*
X87980204Y-70837205D01*
X87960009Y-71016451D01*
X87960009Y-71016458D01*
X87980204Y-71195704D01*
X87980205Y-71195709D01*
X88039785Y-71365978D01*
X88132094Y-71512886D01*
X88151094Y-71580123D01*
X88130726Y-71646958D01*
X88114782Y-71666539D01*
X87901687Y-71879636D01*
X87840364Y-71913121D01*
X87814005Y-71915955D01*
X74725672Y-71915955D01*
X74658633Y-71896270D01*
X74637991Y-71879636D01*
X73399806Y-70641451D01*
X83085009Y-70641451D01*
X83085009Y-70641458D01*
X83105204Y-70820704D01*
X83105205Y-70820709D01*
X83164785Y-70990978D01*
X83260758Y-71143717D01*
X83388312Y-71271271D01*
X83478654Y-71328037D01*
X83539035Y-71365977D01*
X83541052Y-71367244D01*
X83685304Y-71417720D01*
X83711319Y-71426823D01*
X83711324Y-71426824D01*
X83890570Y-71447020D01*
X83890574Y-71447020D01*
X83890578Y-71447020D01*
X84069823Y-71426824D01*
X84069826Y-71426823D01*
X84069829Y-71426823D01*
X84240096Y-71367244D01*
X84392836Y-71271271D01*
X84520390Y-71143717D01*
X84616363Y-70990977D01*
X84675942Y-70820710D01*
X84675943Y-70820704D01*
X84696139Y-70641458D01*
X84696139Y-70641451D01*
X84675943Y-70462205D01*
X84675942Y-70462200D01*
X84616362Y-70291930D01*
X84562073Y-70205531D01*
X84543072Y-70138294D01*
X84563439Y-70071459D01*
X84579380Y-70051882D01*
X87746094Y-66885171D01*
X87825151Y-66748239D01*
X87866075Y-66595512D01*
X87866075Y-66437397D01*
X87866075Y-66429802D01*
X87866074Y-66429784D01*
X87866074Y-52848867D01*
X87885759Y-52781828D01*
X87893129Y-52771552D01*
X87895384Y-52768722D01*
X87895390Y-52768717D01*
X87991363Y-52615977D01*
X88050942Y-52445710D01*
X88050943Y-52445704D01*
X88071139Y-52266458D01*
X88071139Y-52266451D01*
X88050943Y-52087205D01*
X88050942Y-52087200D01*
X87991362Y-51916931D01*
X87895389Y-51764192D01*
X87767836Y-51636639D01*
X87615097Y-51540666D01*
X87444828Y-51481086D01*
X87444823Y-51481085D01*
X87265578Y-51460890D01*
X87265570Y-51460890D01*
X87086324Y-51481085D01*
X87086319Y-51481086D01*
X86916050Y-51540666D01*
X86763311Y-51636639D01*
X86635758Y-51764192D01*
X86539785Y-51916931D01*
X86480205Y-52087200D01*
X86480204Y-52087205D01*
X86460009Y-52266451D01*
X86460009Y-52266458D01*
X86480204Y-52445704D01*
X86480205Y-52445709D01*
X86539785Y-52615978D01*
X86571188Y-52665955D01*
X86632915Y-52764193D01*
X86635759Y-52768718D01*
X86638019Y-52771552D01*
X86638908Y-52773730D01*
X86639463Y-52774613D01*
X86639308Y-52774710D01*
X86664429Y-52836238D01*
X86665074Y-52848867D01*
X86665074Y-66216357D01*
X86645389Y-66283396D01*
X86628755Y-66304038D01*
X83410055Y-69522737D01*
X83410051Y-69522742D01*
X83371304Y-69589856D01*
X83371304Y-69589857D01*
X83330997Y-69659669D01*
X83330997Y-69659670D01*
X83290073Y-69812398D01*
X83290073Y-69812400D01*
X83290073Y-69980501D01*
X83290074Y-69980514D01*
X83290074Y-70059042D01*
X83270389Y-70126081D01*
X83263024Y-70136351D01*
X83260760Y-70139189D01*
X83164785Y-70291931D01*
X83105205Y-70462200D01*
X83105204Y-70462205D01*
X83085009Y-70641451D01*
X73399806Y-70641451D01*
X68238335Y-65479981D01*
X68204850Y-65418658D01*
X68206240Y-65360208D01*
X68236417Y-65247592D01*
X68256639Y-65016455D01*
X68236417Y-64785318D01*
X68176366Y-64561204D01*
X68078310Y-64350923D01*
X68078308Y-64350920D01*
X68078307Y-64350918D01*
X67945228Y-64160861D01*
X67781170Y-63996804D01*
X67781166Y-63996800D01*
X67629118Y-63890335D01*
X67591106Y-63863718D01*
X67461879Y-63803459D01*
X67380825Y-63765663D01*
X67380821Y-63765662D01*
X67380817Y-63765660D01*
X67156716Y-63705613D01*
X67156706Y-63705611D01*
X66925575Y-63685390D01*
X66925573Y-63685390D01*
X66694441Y-63705611D01*
X66694431Y-63705613D01*
X66470330Y-63765660D01*
X66470321Y-63765664D01*
X66260041Y-63863719D01*
X66260037Y-63863721D01*
X66069980Y-63996800D01*
X65905919Y-64160861D01*
X65772840Y-64350918D01*
X65772838Y-64350922D01*
X65742058Y-64416931D01*
X65679482Y-64551126D01*
X65674783Y-64561202D01*
X65674779Y-64561211D01*
X65614732Y-64785312D01*
X65614730Y-64785322D01*
X65594509Y-65016454D01*
X58096639Y-65016454D01*
X58076417Y-64785318D01*
X58016366Y-64561204D01*
X57918310Y-64350923D01*
X57918308Y-64350920D01*
X57918307Y-64350918D01*
X57785228Y-64160861D01*
X57621170Y-63996804D01*
X57621166Y-63996800D01*
X57469118Y-63890335D01*
X57431106Y-63863718D01*
X57301879Y-63803459D01*
X57220825Y-63765663D01*
X57220821Y-63765662D01*
X57220817Y-63765660D01*
X56996716Y-63705613D01*
X56996706Y-63705611D01*
X56765575Y-63685390D01*
X56765573Y-63685390D01*
X56534441Y-63705611D01*
X56534431Y-63705613D01*
X56310330Y-63765660D01*
X56310321Y-63765664D01*
X56100041Y-63863719D01*
X56100037Y-63863721D01*
X55909980Y-63996800D01*
X55745919Y-64160861D01*
X55612840Y-64350918D01*
X55612838Y-64350922D01*
X55582058Y-64416931D01*
X55519482Y-64551126D01*
X55514783Y-64561202D01*
X55514779Y-64561211D01*
X55454732Y-64785312D01*
X55454730Y-64785322D01*
X55434509Y-65016454D01*
X55434509Y-65016455D01*
X55454730Y-65247587D01*
X55454732Y-65247597D01*
X55484905Y-65360206D01*
X55483242Y-65430056D01*
X55452815Y-65479977D01*
X55427661Y-65505133D01*
X55366339Y-65538620D01*
X55339976Y-65541455D01*
X50539277Y-65541455D01*
X50472238Y-65521770D01*
X50426483Y-65468966D01*
X50416539Y-65399808D01*
X50419502Y-65385362D01*
X50441825Y-65302050D01*
X50456417Y-65247592D01*
X50476639Y-65016455D01*
X50456417Y-64785318D01*
X50396366Y-64561204D01*
X50298310Y-64350923D01*
X50298308Y-64350920D01*
X50298307Y-64350918D01*
X50165228Y-64160861D01*
X50001170Y-63996804D01*
X50001166Y-63996800D01*
X49811107Y-63863719D01*
X49811105Y-63863718D01*
X49811098Y-63863713D01*
X49808067Y-63861963D01*
X49806999Y-63860843D01*
X49806672Y-63860614D01*
X49806718Y-63860548D01*
X49759855Y-63811393D01*
X49746074Y-63754580D01*
X49746074Y-62805514D01*
X49746075Y-62805501D01*
X49746075Y-62637400D01*
X49746075Y-62637398D01*
X49705151Y-62484670D01*
X49665478Y-62415955D01*
X49626094Y-62347739D01*
X49514290Y-62235935D01*
X49509959Y-62231604D01*
X49509948Y-62231594D01*
X46278340Y-58999986D01*
X46244855Y-58938663D01*
X46246246Y-58880212D01*
X46265084Y-58809906D01*
X46280637Y-58751863D01*
X46301233Y-58516455D01*
X46280637Y-58281047D01*
X46219477Y-58052792D01*
X46119609Y-57838626D01*
X45984069Y-57645054D01*
X45984068Y-57645052D01*
X45816976Y-57477961D01*
X45816969Y-57477956D01*
X45623406Y-57342421D01*
X45592326Y-57327928D01*
X45539887Y-57281755D01*
X45520736Y-57214561D01*
X45540952Y-57147680D01*
X45557046Y-57127871D01*
X46281644Y-56403274D01*
X46342967Y-56369789D01*
X46369325Y-56366955D01*
X74428905Y-56366955D01*
X74428921Y-56366956D01*
X74436517Y-56366956D01*
X74594628Y-56366956D01*
X74594631Y-56366956D01*
X74747359Y-56326032D01*
X74797478Y-56297094D01*
X74884290Y-56246975D01*
X74996094Y-56135171D01*
X74996094Y-56135169D01*
X75006302Y-56124962D01*
X75006303Y-56124959D01*
X77227990Y-53903274D01*
X77289313Y-53869789D01*
X77315671Y-53866955D01*
X78933162Y-53866955D01*
X79000201Y-53886640D01*
X79010477Y-53894010D01*
X79013310Y-53896269D01*
X79013312Y-53896271D01*
X79166052Y-53992244D01*
X79336319Y-54051823D01*
X79336324Y-54051824D01*
X79515570Y-54072020D01*
X79515574Y-54072020D01*
X79515578Y-54072020D01*
X79694823Y-54051824D01*
X79694826Y-54051823D01*
X79694829Y-54051823D01*
X79865096Y-53992244D01*
X80017836Y-53896271D01*
X80145390Y-53768717D01*
X80241363Y-53615977D01*
X80300942Y-53445710D01*
X80321139Y-53266455D01*
X80300942Y-53087200D01*
X80241363Y-52916933D01*
X80145390Y-52764193D01*
X80017836Y-52636639D01*
X79984953Y-52615977D01*
X79865097Y-52540666D01*
X79694828Y-52481086D01*
X79694823Y-52481085D01*
X79515578Y-52460890D01*
X79515570Y-52460890D01*
X79336324Y-52481085D01*
X79336319Y-52481086D01*
X79166050Y-52540666D01*
X79013310Y-52636640D01*
X79010477Y-52638900D01*
X79008298Y-52639789D01*
X79007416Y-52640344D01*
X79007318Y-52640189D01*
X78945791Y-52665310D01*
X78933162Y-52665955D01*
X77102243Y-52665955D01*
X77102227Y-52665954D01*
X77094631Y-52665954D01*
X76936517Y-52665954D01*
X76829161Y-52694720D01*
X76783784Y-52706879D01*
X76783783Y-52706880D01*
X76748640Y-52727171D01*
X76748638Y-52727172D01*
X76646864Y-52785930D01*
X76646856Y-52785936D01*
X76535052Y-52897741D01*
X74303158Y-55129636D01*
X74241835Y-55163121D01*
X74215477Y-55165955D01*
X46148285Y-55165955D01*
X45990170Y-55165955D01*
X45837443Y-55206878D01*
X45837442Y-55206878D01*
X45837440Y-55206879D01*
X45837437Y-55206880D01*
X45787324Y-55235814D01*
X45787323Y-55235815D01*
X45743917Y-55260875D01*
X45700513Y-55285934D01*
X45700510Y-55285936D01*
X45588706Y-55397741D01*
X43675173Y-57311273D01*
X43613850Y-57344758D01*
X43544158Y-57339774D01*
X43520907Y-57326674D01*
X43520377Y-57327535D01*
X43514231Y-57323744D01*
X43514230Y-57323743D01*
X43364908Y-57231641D01*
X43198371Y-57176456D01*
X43198369Y-57176455D01*
X43095584Y-57165955D01*
X41795572Y-57165955D01*
X41795555Y-57165956D01*
X41692777Y-57176455D01*
X41692774Y-57176456D01*
X41526242Y-57231640D01*
X41526237Y-57231642D01*
X41376916Y-57323744D01*
X41252863Y-57447797D01*
X41160761Y-57597118D01*
X41160759Y-57597123D01*
X41132923Y-57681125D01*
X41105575Y-57763658D01*
X41105575Y-57763659D01*
X41105574Y-57763659D01*
X41095074Y-57866438D01*
X41095074Y-59166456D01*
X41095075Y-59166473D01*
X41105574Y-59269251D01*
X41105575Y-59269254D01*
X41150184Y-59403874D01*
X41160760Y-59435789D01*
X41252862Y-59585111D01*
X41376918Y-59709167D01*
X41526240Y-59801269D01*
X41595205Y-59824121D01*
X41652649Y-59863894D01*
X41656978Y-59874307D01*
X42234514Y-60451842D01*
X42213983Y-60457344D01*
X42077166Y-60536336D01*
X41965455Y-60648047D01*
X41886463Y-60784864D01*
X41880961Y-60805395D01*
X41330646Y-60255080D01*
X41271975Y-60338874D01*
X41172144Y-60552962D01*
X41172140Y-60552971D01*
X41111006Y-60781128D01*
X41111004Y-60781139D01*
X41090417Y-61016453D01*
X41090417Y-61016456D01*
X41111004Y-61251770D01*
X41111006Y-61251781D01*
X41172140Y-61479938D01*
X41172144Y-61479947D01*
X41271974Y-61694034D01*
X41271976Y-61694038D01*
X41330646Y-61777828D01*
X41330647Y-61777828D01*
X41880961Y-61227514D01*
X41886463Y-61248046D01*
X41965455Y-61384863D01*
X42077166Y-61496574D01*
X42213983Y-61575566D01*
X42234512Y-61581066D01*
X41684199Y-62131380D01*
X41731605Y-62164574D01*
X41775230Y-62219151D01*
X41782424Y-62288649D01*
X41750901Y-62351004D01*
X41731606Y-62367724D01*
X41574168Y-62477963D01*
X41407079Y-62645052D01*
X41271539Y-62838624D01*
X41271538Y-62838626D01*
X41171672Y-63052790D01*
X41171668Y-63052799D01*
X41110512Y-63281041D01*
X41110510Y-63281051D01*
X41089915Y-63516454D01*
X41089915Y-63516455D01*
X41109032Y-63734959D01*
X41095265Y-63803459D01*
X41046650Y-63853643D01*
X41009696Y-63867384D01*
X40842914Y-63900559D01*
X40842906Y-63900561D01*
X40679033Y-63968438D01*
X40679020Y-63968445D01*
X40531539Y-64066990D01*
X40531535Y-64066993D01*
X40406112Y-64192416D01*
X40406109Y-64192420D01*
X40307564Y-64339901D01*
X40307557Y-64339914D01*
X40239680Y-64503787D01*
X40239677Y-64503796D01*
X40205074Y-64677759D01*
X35899815Y-64677759D01*
X35950763Y-43999996D01*
X54194435Y-43999996D01*
X54194435Y-44000003D01*
X54214630Y-44179249D01*
X54214631Y-44179254D01*
X54274211Y-44349523D01*
X54370185Y-44502263D01*
X54372445Y-44505097D01*
X54373334Y-44507275D01*
X54373889Y-44508158D01*
X54373734Y-44508255D01*
X54398855Y-44569783D01*
X54399500Y-44582412D01*
X54399500Y-46913330D01*
X54399499Y-46913348D01*
X54399499Y-47079054D01*
X54399498Y-47079054D01*
X54420336Y-47156819D01*
X54440423Y-47231785D01*
X54462849Y-47270627D01*
X54500603Y-47336019D01*
X54519479Y-47368715D01*
X54638349Y-47487585D01*
X54638355Y-47487590D01*
X56101594Y-48950829D01*
X56101604Y-48950840D01*
X56105934Y-48955170D01*
X56105935Y-48955171D01*
X56217739Y-49066975D01*
X56302576Y-49115955D01*
X56354670Y-49146032D01*
X56507398Y-49186955D01*
X60059207Y-49186955D01*
X60059223Y-49186956D01*
X60066819Y-49186956D01*
X60224930Y-49186956D01*
X60224933Y-49186956D01*
X60377661Y-49146032D01*
X60429755Y-49115955D01*
X60514592Y-49066975D01*
X60626396Y-48955171D01*
X60626396Y-48955169D01*
X60636600Y-48944966D01*
X60636603Y-48944961D01*
X67146819Y-42434746D01*
X67208140Y-42401263D01*
X67277832Y-42406247D01*
X67333765Y-42448119D01*
X67354272Y-42490333D01*
X67355995Y-42496764D01*
X67355996Y-42496766D01*
X67355997Y-42496769D01*
X67380543Y-42539283D01*
X67424945Y-42616190D01*
X67435053Y-42633698D01*
X67435055Y-42633701D01*
X67553923Y-42752569D01*
X67553929Y-42752574D01*
X70250238Y-45448883D01*
X70283723Y-45510206D01*
X70278739Y-45579898D01*
X70267551Y-45602536D01*
X70175241Y-45749446D01*
X70115661Y-45919715D01*
X70115660Y-45919720D01*
X70095465Y-46098966D01*
X70095465Y-46098973D01*
X70115660Y-46278219D01*
X70115661Y-46278224D01*
X70175241Y-46448493D01*
X70271215Y-46601233D01*
X70273475Y-46604067D01*
X70274364Y-46606245D01*
X70274919Y-46607128D01*
X70274764Y-46607225D01*
X70299885Y-46668753D01*
X70300530Y-46681382D01*
X70300530Y-46815241D01*
X70300529Y-46815259D01*
X70300529Y-46980965D01*
X70300528Y-46980965D01*
X70300529Y-46980968D01*
X70341453Y-47133696D01*
X70341454Y-47133698D01*
X70341453Y-47133698D01*
X70354803Y-47156819D01*
X70354804Y-47156821D01*
X70420505Y-47270620D01*
X70420510Y-47270627D01*
X70539379Y-47389496D01*
X70539384Y-47389500D01*
X75146858Y-51996975D01*
X75146860Y-51996976D01*
X75146864Y-51996979D01*
X75283783Y-52076028D01*
X75283790Y-52076032D01*
X75436517Y-52116956D01*
X75436519Y-52116956D01*
X75602228Y-52116956D01*
X75602244Y-52116955D01*
X76183162Y-52116955D01*
X76250201Y-52136640D01*
X76260477Y-52144010D01*
X76263310Y-52146269D01*
X76263312Y-52146271D01*
X76416052Y-52242244D01*
X76485252Y-52266458D01*
X76586319Y-52301823D01*
X76586324Y-52301824D01*
X76765570Y-52322020D01*
X76765574Y-52322020D01*
X76765578Y-52322020D01*
X76944823Y-52301824D01*
X76944826Y-52301823D01*
X76944829Y-52301823D01*
X77115096Y-52242244D01*
X77267836Y-52146271D01*
X77395390Y-52018717D01*
X77491363Y-51865977D01*
X77550942Y-51695710D01*
X77571139Y-51516455D01*
X77564878Y-51460890D01*
X77550943Y-51337205D01*
X77550942Y-51337200D01*
X77491362Y-51166931D01*
X77395389Y-51014192D01*
X77267836Y-50886639D01*
X77118221Y-50792629D01*
X77071930Y-50740294D01*
X77061282Y-50671240D01*
X77089657Y-50607392D01*
X77148047Y-50569020D01*
X77198077Y-50564415D01*
X77265571Y-50572020D01*
X77265574Y-50572020D01*
X77265578Y-50572020D01*
X77444823Y-50551824D01*
X77444826Y-50551823D01*
X77444829Y-50551823D01*
X77615096Y-50492244D01*
X77767836Y-50396271D01*
X77895390Y-50268717D01*
X77991363Y-50115977D01*
X78050942Y-49945710D01*
X78056347Y-49897739D01*
X78071139Y-49766458D01*
X78071139Y-49766451D01*
X78050943Y-49587205D01*
X78050942Y-49587200D01*
X77991362Y-49416931D01*
X77895389Y-49264192D01*
X77767836Y-49136639D01*
X77615097Y-49040666D01*
X77444828Y-48981086D01*
X77444823Y-48981085D01*
X77265578Y-48960890D01*
X77265570Y-48960890D01*
X77086324Y-48981085D01*
X77086319Y-48981086D01*
X76916050Y-49040666D01*
X76763310Y-49136640D01*
X76760477Y-49138900D01*
X76758298Y-49139789D01*
X76757416Y-49140344D01*
X76757318Y-49140189D01*
X76695791Y-49165310D01*
X76683162Y-49165955D01*
X75717142Y-49165955D01*
X75650103Y-49146270D01*
X75629461Y-49129636D01*
X71916365Y-45416540D01*
X71882880Y-45355217D01*
X71887864Y-45285525D01*
X71899049Y-45262892D01*
X71991363Y-45115977D01*
X72050942Y-44945710D01*
X72060735Y-44858784D01*
X72087800Y-44794373D01*
X72096264Y-44784998D01*
X73624080Y-43257183D01*
X73624085Y-43257179D01*
X73634288Y-43246975D01*
X73634290Y-43246975D01*
X73746094Y-43135171D01*
X73800656Y-43040666D01*
X73825151Y-42998240D01*
X73858948Y-42872104D01*
X73895312Y-42812447D01*
X73958158Y-42781917D01*
X74027534Y-42790211D01*
X74066403Y-42816519D01*
X80780713Y-49530829D01*
X80780723Y-49530840D01*
X80785053Y-49535170D01*
X80785054Y-49535171D01*
X80896858Y-49646975D01*
X80896860Y-49646976D01*
X80896864Y-49646979D01*
X81033783Y-49726028D01*
X81033790Y-49726032D01*
X81145593Y-49755989D01*
X81186516Y-49766955D01*
X81186517Y-49766955D01*
X83145788Y-49766955D01*
X83212827Y-49786640D01*
X83258582Y-49839444D01*
X83268526Y-49908602D01*
X83253176Y-49952954D01*
X83234935Y-49984549D01*
X83234933Y-49984551D01*
X83205999Y-50034664D01*
X83205998Y-50034665D01*
X83205997Y-50034670D01*
X83165073Y-50187398D01*
X83165073Y-50187400D01*
X83165073Y-50355501D01*
X83165074Y-50355514D01*
X83165074Y-62716357D01*
X83145389Y-62783396D01*
X83128755Y-62804038D01*
X82497039Y-63435753D01*
X82435716Y-63469238D01*
X82423242Y-63471292D01*
X82336324Y-63481085D01*
X82166052Y-63540665D01*
X82013311Y-63636639D01*
X81885758Y-63764192D01*
X81789784Y-63916933D01*
X81730204Y-64087205D01*
X81722472Y-64155838D01*
X81695406Y-64220252D01*
X81637811Y-64259807D01*
X81599252Y-64265955D01*
X70915672Y-64265955D01*
X70848633Y-64246270D01*
X70827991Y-64229636D01*
X66992195Y-60393841D01*
X66958710Y-60332518D01*
X66960100Y-60274068D01*
X66972123Y-60229202D01*
X66990736Y-60016455D01*
X66972123Y-59803708D01*
X66918113Y-59602140D01*
X66916852Y-59597432D01*
X66916851Y-59597431D01*
X66916850Y-59597425D01*
X66826595Y-59403874D01*
X66704103Y-59228936D01*
X66704101Y-59228933D01*
X66593758Y-59118590D01*
X70665074Y-59118590D01*
X70665074Y-60914325D01*
X70665075Y-60914331D01*
X70671482Y-60973938D01*
X70721776Y-61108783D01*
X70721780Y-61108790D01*
X70808026Y-61223999D01*
X70808029Y-61224002D01*
X70923238Y-61310248D01*
X70923245Y-61310252D01*
X71058091Y-61360546D01*
X71058090Y-61360546D01*
X71065018Y-61361290D01*
X71117701Y-61366955D01*
X72913446Y-61366954D01*
X72973057Y-61360546D01*
X73107905Y-61310251D01*
X73223120Y-61224001D01*
X73309370Y-61108786D01*
X73359665Y-60973938D01*
X73366074Y-60914328D01*
X73366073Y-59118583D01*
X73359665Y-59058972D01*
X73321209Y-58955867D01*
X73309371Y-58924126D01*
X73309367Y-58924119D01*
X73223121Y-58808910D01*
X73223118Y-58808907D01*
X73107909Y-58722661D01*
X73107902Y-58722657D01*
X72973056Y-58672363D01*
X72973057Y-58672363D01*
X72913457Y-58665956D01*
X72913455Y-58665955D01*
X72913447Y-58665955D01*
X72913438Y-58665955D01*
X71117703Y-58665955D01*
X71117697Y-58665956D01*
X71058090Y-58672363D01*
X70923245Y-58722657D01*
X70923238Y-58722661D01*
X70808029Y-58808907D01*
X70808026Y-58808910D01*
X70721780Y-58924119D01*
X70721776Y-58924126D01*
X70671482Y-59058972D01*
X70665354Y-59115977D01*
X70665075Y-59118578D01*
X70665074Y-59118590D01*
X66593758Y-59118590D01*
X66553095Y-59077927D01*
X66378152Y-58955432D01*
X66378153Y-58955432D01*
X66216842Y-58880212D01*
X66184604Y-58865179D01*
X66184600Y-58865178D01*
X66184596Y-58865176D01*
X65978326Y-58809907D01*
X65978322Y-58809906D01*
X65978321Y-58809906D01*
X65978320Y-58809905D01*
X65978315Y-58809905D01*
X65765576Y-58791293D01*
X65765572Y-58791293D01*
X65552832Y-58809905D01*
X65552821Y-58809907D01*
X65346551Y-58865176D01*
X65346542Y-58865180D01*
X65152995Y-58955432D01*
X64978052Y-59077927D01*
X64827046Y-59228933D01*
X64704551Y-59403876D01*
X64614299Y-59597423D01*
X64612444Y-59602519D01*
X64610323Y-59601747D01*
X64578980Y-59653165D01*
X64516132Y-59683692D01*
X64446757Y-59675394D01*
X64392881Y-59630907D01*
X64379743Y-59602140D01*
X64378704Y-59602519D01*
X64376853Y-59597438D01*
X64376850Y-59597425D01*
X64286595Y-59403874D01*
X64164103Y-59228936D01*
X64164101Y-59228933D01*
X64013095Y-59077927D01*
X63838152Y-58955432D01*
X63838153Y-58955432D01*
X63676842Y-58880212D01*
X63644604Y-58865179D01*
X63644600Y-58865178D01*
X63644596Y-58865176D01*
X63438326Y-58809907D01*
X63438322Y-58809906D01*
X63438321Y-58809906D01*
X63438320Y-58809905D01*
X63438315Y-58809905D01*
X63225576Y-58791293D01*
X63225572Y-58791293D01*
X63012832Y-58809905D01*
X63012821Y-58809907D01*
X62806551Y-58865176D01*
X62806542Y-58865180D01*
X62612995Y-58955432D01*
X62438052Y-59077927D01*
X62287046Y-59228933D01*
X62164551Y-59403876D01*
X62074299Y-59597423D01*
X62072444Y-59602519D01*
X62070605Y-59601849D01*
X62038678Y-59654170D01*
X61975816Y-59684667D01*
X61906444Y-59676338D01*
X61852589Y-59631826D01*
X61839145Y-59602358D01*
X61838232Y-59602691D01*
X61836376Y-59597595D01*
X61746160Y-59404124D01*
X61746156Y-59404118D01*
X61707158Y-59348423D01*
X61085574Y-59970007D01*
X61085574Y-59963794D01*
X61058315Y-59862061D01*
X61005654Y-59770849D01*
X60931180Y-59696375D01*
X60839968Y-59643714D01*
X60738235Y-59616455D01*
X60732021Y-59616455D01*
X61353604Y-58994870D01*
X61297903Y-58955868D01*
X61104433Y-58865652D01*
X61104427Y-58865649D01*
X60898236Y-58810400D01*
X60898228Y-58810399D01*
X60685576Y-58791795D01*
X60685572Y-58791795D01*
X60472919Y-58810399D01*
X60472911Y-58810400D01*
X60266720Y-58865649D01*
X60266714Y-58865652D01*
X60073245Y-58955867D01*
X60073243Y-58955868D01*
X60017543Y-58994870D01*
X60017542Y-58994870D01*
X60639128Y-59616455D01*
X60632913Y-59616455D01*
X60531180Y-59643714D01*
X60439968Y-59696375D01*
X60365494Y-59770849D01*
X60312833Y-59862061D01*
X60285574Y-59963794D01*
X60285574Y-59970008D01*
X59663989Y-59348423D01*
X59663989Y-59348424D01*
X59624987Y-59404124D01*
X59624986Y-59404126D01*
X59534771Y-59597595D01*
X59534768Y-59597601D01*
X59479519Y-59803792D01*
X59479518Y-59803800D01*
X59460914Y-60016452D01*
X59460914Y-60016457D01*
X59479518Y-60229109D01*
X59479519Y-60229117D01*
X59534768Y-60435308D01*
X59534771Y-60435314D01*
X59624987Y-60628784D01*
X59663989Y-60684485D01*
X60285574Y-60062900D01*
X60285574Y-60069116D01*
X60312833Y-60170849D01*
X60365494Y-60262061D01*
X60439968Y-60336535D01*
X60531180Y-60389196D01*
X60632913Y-60416455D01*
X60639127Y-60416455D01*
X60017542Y-61038039D01*
X60073237Y-61077037D01*
X60073243Y-61077041D01*
X60266714Y-61167257D01*
X60266720Y-61167260D01*
X60472911Y-61222509D01*
X60472919Y-61222510D01*
X60685572Y-61241115D01*
X60685576Y-61241115D01*
X60898228Y-61222510D01*
X60898236Y-61222509D01*
X61104427Y-61167260D01*
X61104438Y-61167256D01*
X61297899Y-61077044D01*
X61353604Y-61038038D01*
X60732022Y-60416455D01*
X60738235Y-60416455D01*
X60839968Y-60389196D01*
X60931180Y-60336535D01*
X61005654Y-60262061D01*
X61058315Y-60170849D01*
X61085574Y-60069116D01*
X61085574Y-60062901D01*
X61707157Y-60684484D01*
X61746163Y-60628780D01*
X61836375Y-60435319D01*
X61838232Y-60430219D01*
X61840141Y-60430913D01*
X61871865Y-60378817D01*
X61934699Y-60348261D01*
X62004078Y-60356526D01*
X62057975Y-60400988D01*
X62071563Y-60430711D01*
X62072444Y-60430391D01*
X62074296Y-60435478D01*
X62074298Y-60435485D01*
X62111000Y-60514192D01*
X62164551Y-60629033D01*
X62287046Y-60803976D01*
X62438052Y-60954982D01*
X62438055Y-60954984D01*
X62612993Y-61077476D01*
X62612995Y-61077477D01*
X62612994Y-61077477D01*
X62651529Y-61095446D01*
X62806544Y-61167731D01*
X63012827Y-61223004D01*
X63164789Y-61236299D01*
X63225572Y-61241617D01*
X63225574Y-61241617D01*
X63225576Y-61241617D01*
X63278760Y-61236963D01*
X63438321Y-61223004D01*
X63644604Y-61167731D01*
X63838155Y-61077476D01*
X64013093Y-60954984D01*
X64164103Y-60803974D01*
X64286595Y-60629036D01*
X64376850Y-60435485D01*
X64376854Y-60435468D01*
X64378704Y-60430391D01*
X64380827Y-60431164D01*
X64412150Y-60379760D01*
X64474993Y-60349221D01*
X64544370Y-60357505D01*
X64598254Y-60401983D01*
X64611401Y-60430770D01*
X64612444Y-60430391D01*
X64614296Y-60435478D01*
X64614298Y-60435485D01*
X64651000Y-60514192D01*
X64704551Y-60629033D01*
X64827046Y-60803976D01*
X64978052Y-60954982D01*
X64978055Y-60954984D01*
X65152993Y-61077476D01*
X65152995Y-61077477D01*
X65152994Y-61077477D01*
X65191529Y-61095446D01*
X65346544Y-61167731D01*
X65552827Y-61223004D01*
X65704789Y-61236299D01*
X65765572Y-61241617D01*
X65765574Y-61241617D01*
X65765576Y-61241617D01*
X65818760Y-61236963D01*
X65978321Y-61223004D01*
X66023186Y-61210982D01*
X66093035Y-61212645D01*
X66142959Y-61243075D01*
X70246858Y-65346975D01*
X70246860Y-65346976D01*
X70246864Y-65346979D01*
X70332240Y-65396270D01*
X70383790Y-65426032D01*
X70536517Y-65466956D01*
X70536519Y-65466956D01*
X70702228Y-65466956D01*
X70702244Y-65466955D01*
X84840080Y-65466955D01*
X84906051Y-65485961D01*
X84916048Y-65492242D01*
X84916049Y-65492242D01*
X84916052Y-65492244D01*
X85048587Y-65538620D01*
X85086319Y-65551823D01*
X85086324Y-65551824D01*
X85265570Y-65572020D01*
X85265574Y-65572020D01*
X85265578Y-65572020D01*
X85444823Y-65551824D01*
X85444826Y-65551823D01*
X85444829Y-65551823D01*
X85615096Y-65492244D01*
X85767836Y-65396271D01*
X85895390Y-65268717D01*
X85991363Y-65115977D01*
X86050942Y-64945710D01*
X86058129Y-64881925D01*
X86071139Y-64766458D01*
X86071139Y-64766451D01*
X86050943Y-64587205D01*
X86050942Y-64587200D01*
X86039657Y-64554950D01*
X85991363Y-64416933D01*
X85895390Y-64264193D01*
X85767836Y-64136639D01*
X85748211Y-64124308D01*
X85615097Y-64040666D01*
X85444828Y-63981086D01*
X85444823Y-63981085D01*
X85265578Y-63960890D01*
X85265570Y-63960890D01*
X85086324Y-63981085D01*
X85086319Y-63981086D01*
X84916050Y-64040666D01*
X84763313Y-64136638D01*
X84670314Y-64229637D01*
X84608990Y-64263121D01*
X84582633Y-64265955D01*
X83664671Y-64265955D01*
X83597632Y-64246270D01*
X83551877Y-64193466D01*
X83541933Y-64124308D01*
X83570958Y-64060752D01*
X83576990Y-64054274D01*
X83693864Y-63937399D01*
X84124080Y-63507182D01*
X84124085Y-63507179D01*
X84134288Y-63496975D01*
X84134290Y-63496975D01*
X84246094Y-63385171D01*
X84304117Y-63284671D01*
X84325151Y-63248240D01*
X84366075Y-63095512D01*
X84366075Y-62937398D01*
X84366075Y-62929803D01*
X84366074Y-62929785D01*
X84366074Y-50566551D01*
X84385759Y-50499512D01*
X84402388Y-50478875D01*
X91772924Y-43108338D01*
X91834247Y-43074854D01*
X91860605Y-43072020D01*
X91865577Y-43072020D01*
X92044823Y-43051824D01*
X92044826Y-43051823D01*
X92044829Y-43051823D01*
X92215096Y-42992244D01*
X92367836Y-42896271D01*
X92495390Y-42768717D01*
X92591363Y-42615977D01*
X92650942Y-42445710D01*
X92652177Y-42434748D01*
X92671139Y-42266458D01*
X92671139Y-42266451D01*
X92650943Y-42087205D01*
X92650942Y-42087200D01*
X92626115Y-42016249D01*
X92591363Y-41916933D01*
X92495390Y-41764193D01*
X92367836Y-41636639D01*
X92339092Y-41618578D01*
X92215095Y-41540665D01*
X92044823Y-41481085D01*
X91976190Y-41473352D01*
X91911776Y-41446285D01*
X91872221Y-41388690D01*
X91866074Y-41350132D01*
X91866074Y-39016451D01*
X93960009Y-39016451D01*
X93960009Y-39016458D01*
X93980204Y-39195704D01*
X93980205Y-39195709D01*
X94039785Y-39365978D01*
X94135758Y-39518717D01*
X94263312Y-39646271D01*
X94416052Y-39742244D01*
X94572804Y-39797094D01*
X94586319Y-39801823D01*
X94586323Y-39801824D01*
X94666825Y-39810893D01*
X94761940Y-39821610D01*
X94780142Y-39825054D01*
X94783788Y-39826030D01*
X94783790Y-39826032D01*
X94866672Y-39848240D01*
X94936516Y-39866955D01*
X94936517Y-39866955D01*
X101218905Y-39866955D01*
X101218921Y-39866956D01*
X101226517Y-39866956D01*
X101384628Y-39866956D01*
X101384631Y-39866956D01*
X101537359Y-39826032D01*
X101587478Y-39797094D01*
X101674290Y-39746975D01*
X101786094Y-39635171D01*
X101786094Y-39635169D01*
X101796302Y-39624962D01*
X101796303Y-39624959D01*
X102072895Y-39348367D01*
X102134215Y-39314885D01*
X102203907Y-39319869D01*
X102248254Y-39348370D01*
X104878755Y-41978871D01*
X104912240Y-42040194D01*
X104915074Y-42066552D01*
X104915074Y-43414325D01*
X104915075Y-43414331D01*
X104921482Y-43473938D01*
X104971776Y-43608783D01*
X104971780Y-43608790D01*
X105058026Y-43723999D01*
X105058029Y-43724002D01*
X105173238Y-43810248D01*
X105173245Y-43810252D01*
X105308091Y-43860546D01*
X105308090Y-43860546D01*
X105315018Y-43861290D01*
X105367701Y-43866955D01*
X107163446Y-43866954D01*
X107223057Y-43860546D01*
X107357905Y-43810251D01*
X107473120Y-43724001D01*
X107559370Y-43608786D01*
X107609665Y-43473938D01*
X107616074Y-43414328D01*
X107616073Y-41618583D01*
X107609665Y-41558972D01*
X107602837Y-41540666D01*
X107559371Y-41424126D01*
X107559367Y-41424119D01*
X107473121Y-41308910D01*
X107473118Y-41308907D01*
X107357909Y-41222661D01*
X107357902Y-41222657D01*
X107223056Y-41172363D01*
X107223057Y-41172363D01*
X107163457Y-41165956D01*
X107163455Y-41165955D01*
X107163447Y-41165955D01*
X107163439Y-41165955D01*
X105815671Y-41165955D01*
X105748632Y-41146270D01*
X105727990Y-41129636D01*
X103097489Y-38499135D01*
X103064004Y-38437812D01*
X103068988Y-38368120D01*
X103097485Y-38323778D01*
X104844705Y-36576558D01*
X104906023Y-36543076D01*
X104975715Y-36548060D01*
X105031648Y-36589932D01*
X105056065Y-36655396D01*
X105055909Y-36675049D01*
X105040914Y-36846452D01*
X105040914Y-36846457D01*
X105059518Y-37059109D01*
X105059519Y-37059117D01*
X105114768Y-37265308D01*
X105114771Y-37265314D01*
X105204987Y-37458784D01*
X105243989Y-37514485D01*
X105865574Y-36892901D01*
X105865574Y-36899116D01*
X105892833Y-37000849D01*
X105945494Y-37092061D01*
X106019968Y-37166535D01*
X106111180Y-37219196D01*
X106212913Y-37246455D01*
X106219127Y-37246455D01*
X105597542Y-37868039D01*
X105653237Y-37907037D01*
X105653243Y-37907041D01*
X105846714Y-37997257D01*
X105846720Y-37997260D01*
X106052911Y-38052509D01*
X106052919Y-38052510D01*
X106265572Y-38071115D01*
X106265576Y-38071115D01*
X106478228Y-38052510D01*
X106478236Y-38052509D01*
X106684427Y-37997260D01*
X106684438Y-37997256D01*
X106877899Y-37907044D01*
X106933604Y-37868038D01*
X106312022Y-37246455D01*
X106318235Y-37246455D01*
X106419968Y-37219196D01*
X106511180Y-37166535D01*
X106585654Y-37092061D01*
X106638315Y-37000849D01*
X106665574Y-36899116D01*
X106665574Y-36892901D01*
X107287157Y-37514484D01*
X107326163Y-37458780D01*
X107416375Y-37265319D01*
X107416379Y-37265308D01*
X107471628Y-37059117D01*
X107471629Y-37059109D01*
X107490234Y-36846457D01*
X107490234Y-36846452D01*
X107471629Y-36633800D01*
X107471628Y-36633792D01*
X107416379Y-36427601D01*
X107416376Y-36427595D01*
X107326160Y-36234124D01*
X107326156Y-36234118D01*
X107287158Y-36178423D01*
X106665574Y-36800007D01*
X106665574Y-36793794D01*
X106638315Y-36692061D01*
X106585654Y-36600849D01*
X106511180Y-36526375D01*
X106419968Y-36473714D01*
X106318235Y-36446455D01*
X106312021Y-36446455D01*
X106933604Y-35824870D01*
X106877903Y-35785868D01*
X106684433Y-35695652D01*
X106679338Y-35693797D01*
X106680029Y-35691898D01*
X106627899Y-35660122D01*
X106597371Y-35597275D01*
X106605667Y-35527899D01*
X106650153Y-35474022D01*
X106679831Y-35460469D01*
X106679510Y-35459585D01*
X106684587Y-35457735D01*
X106684604Y-35457731D01*
X106878155Y-35367476D01*
X107053093Y-35244984D01*
X107204103Y-35093974D01*
X107326595Y-34919036D01*
X107416850Y-34725485D01*
X107472123Y-34519202D01*
X107490736Y-34306455D01*
X107487038Y-34264192D01*
X107472123Y-34093713D01*
X107472123Y-34093708D01*
X107416850Y-33887425D01*
X107326595Y-33693874D01*
X107204103Y-33518936D01*
X107204101Y-33518933D01*
X107053095Y-33367927D01*
X106878152Y-33245432D01*
X106878153Y-33245432D01*
X106749121Y-33185264D01*
X106684604Y-33155179D01*
X106684597Y-33155177D01*
X106679510Y-33153325D01*
X106680283Y-33151201D01*
X106628879Y-33119879D01*
X106598340Y-33057036D01*
X106606624Y-32987659D01*
X106651102Y-32933775D01*
X106679889Y-32920627D01*
X106679510Y-32919585D01*
X106684587Y-32917735D01*
X106684604Y-32917731D01*
X106878155Y-32827476D01*
X107053093Y-32704984D01*
X107204103Y-32553974D01*
X107326595Y-32379036D01*
X107416850Y-32185485D01*
X107472123Y-31979202D01*
X107490736Y-31766455D01*
X107472123Y-31553708D01*
X107416850Y-31347425D01*
X107326595Y-31153874D01*
X107204103Y-30978936D01*
X107204101Y-30978933D01*
X107053095Y-30827927D01*
X106878152Y-30705432D01*
X106878153Y-30705432D01*
X106743867Y-30642814D01*
X106684604Y-30615179D01*
X106684600Y-30615178D01*
X106684596Y-30615176D01*
X106478326Y-30559907D01*
X106478322Y-30559906D01*
X106478321Y-30559906D01*
X106478320Y-30559905D01*
X106478315Y-30559905D01*
X106265576Y-30541293D01*
X106265572Y-30541293D01*
X106052832Y-30559905D01*
X106052821Y-30559907D01*
X105846551Y-30615176D01*
X105846542Y-30615180D01*
X105652995Y-30705432D01*
X105478052Y-30827927D01*
X105327046Y-30978933D01*
X105204551Y-31153876D01*
X105114299Y-31347423D01*
X105114295Y-31347432D01*
X105059026Y-31553702D01*
X105059024Y-31553713D01*
X105040412Y-31766453D01*
X105040412Y-31766456D01*
X105059024Y-31979196D01*
X105059026Y-31979207D01*
X105114295Y-32185477D01*
X105114297Y-32185481D01*
X105114298Y-32185485D01*
X105154432Y-32271552D01*
X105204551Y-32379033D01*
X105204552Y-32379035D01*
X105204553Y-32379036D01*
X105219178Y-32399923D01*
X105327046Y-32553976D01*
X105478052Y-32704982D01*
X105478055Y-32704984D01*
X105652993Y-32827476D01*
X105652995Y-32827477D01*
X105652994Y-32827477D01*
X105717510Y-32857561D01*
X105846544Y-32917731D01*
X105846557Y-32917734D01*
X105851638Y-32919585D01*
X105850866Y-32921705D01*
X105902284Y-32953049D01*
X105932811Y-33015897D01*
X105924513Y-33085272D01*
X105880026Y-33139148D01*
X105851259Y-33152285D01*
X105851638Y-33153325D01*
X105846546Y-33155178D01*
X105846544Y-33155179D01*
X105846542Y-33155180D01*
X105652995Y-33245432D01*
X105478052Y-33367927D01*
X105327046Y-33518933D01*
X105204551Y-33693876D01*
X105114299Y-33887423D01*
X105114295Y-33887432D01*
X105059026Y-34093702D01*
X105059024Y-34093713D01*
X105040412Y-34306453D01*
X105040412Y-34306456D01*
X105059024Y-34519196D01*
X105059026Y-34519207D01*
X105071046Y-34564066D01*
X105069383Y-34633916D01*
X105038952Y-34683840D01*
X103538751Y-36184042D01*
X102041860Y-37680933D01*
X102041858Y-37680935D01*
X101930054Y-37792739D01*
X101930052Y-37792741D01*
X101506523Y-38216271D01*
X101093158Y-38629636D01*
X101031835Y-38663121D01*
X101005477Y-38665955D01*
X95559281Y-38665955D01*
X95492242Y-38646270D01*
X95454287Y-38607927D01*
X95429941Y-38569181D01*
X95395390Y-38514193D01*
X95267836Y-38386639D01*
X95256562Y-38379555D01*
X95115097Y-38290666D01*
X94944828Y-38231086D01*
X94944823Y-38231085D01*
X94765578Y-38210890D01*
X94765570Y-38210890D01*
X94586324Y-38231085D01*
X94586319Y-38231086D01*
X94416050Y-38290666D01*
X94263311Y-38386639D01*
X94135758Y-38514192D01*
X94039785Y-38666931D01*
X93980205Y-38837200D01*
X93980204Y-38837205D01*
X93960009Y-39016451D01*
X91866074Y-39016451D01*
X91866074Y-38917363D01*
X91885759Y-38850324D01*
X91938563Y-38804569D01*
X91949110Y-38800324D01*
X92115096Y-38742244D01*
X92267836Y-38646271D01*
X92395390Y-38518717D01*
X92491363Y-38365977D01*
X92550942Y-38195710D01*
X92554614Y-38163121D01*
X92571139Y-38016458D01*
X92571139Y-38016451D01*
X92550943Y-37837205D01*
X92550942Y-37837200D01*
X92529504Y-37775934D01*
X92491363Y-37666933D01*
X92484464Y-37655954D01*
X92443134Y-37590177D01*
X92424134Y-37522941D01*
X92444502Y-37456105D01*
X92497769Y-37410891D01*
X92548128Y-37400205D01*
X94617883Y-37400205D01*
X94684922Y-37419890D01*
X94695198Y-37427260D01*
X94698031Y-37429519D01*
X94698033Y-37429521D01*
X94780097Y-37481085D01*
X94836387Y-37516455D01*
X94850773Y-37525494D01*
X95016447Y-37583466D01*
X95021040Y-37585073D01*
X95021045Y-37585074D01*
X95200291Y-37605270D01*
X95200295Y-37605270D01*
X95200299Y-37605270D01*
X95379544Y-37585074D01*
X95379547Y-37585073D01*
X95379550Y-37585073D01*
X95549817Y-37525494D01*
X95564203Y-37516455D01*
X95620493Y-37481085D01*
X95696728Y-37433183D01*
X95763963Y-37414183D01*
X95830798Y-37434550D01*
X95850380Y-37450496D01*
X95934872Y-37534988D01*
X95968357Y-37596311D01*
X95970411Y-37608785D01*
X95980204Y-37695704D01*
X96039784Y-37865976D01*
X96122273Y-37997256D01*
X96135758Y-38018717D01*
X96263312Y-38146271D01*
X96290129Y-38163121D01*
X96398295Y-38231087D01*
X96416052Y-38242244D01*
X96541868Y-38286269D01*
X96586319Y-38301823D01*
X96586324Y-38301824D01*
X96765570Y-38322020D01*
X96765574Y-38322020D01*
X96765578Y-38322020D01*
X96944823Y-38301824D01*
X96944826Y-38301823D01*
X96944829Y-38301823D01*
X97115096Y-38242244D01*
X97267836Y-38146271D01*
X97395390Y-38018717D01*
X97491363Y-37865977D01*
X97550942Y-37695710D01*
X97552607Y-37680933D01*
X97571139Y-37516458D01*
X97571139Y-37516451D01*
X97550943Y-37337205D01*
X97550942Y-37337200D01*
X97549172Y-37332141D01*
X97491363Y-37166933D01*
X97395390Y-37014193D01*
X97267836Y-36886639D01*
X97164996Y-36822020D01*
X97115095Y-36790665D01*
X96944823Y-36731085D01*
X96857904Y-36721292D01*
X96793490Y-36694225D01*
X96784107Y-36685753D01*
X92364805Y-32266451D01*
X94960009Y-32266451D01*
X94960009Y-32266458D01*
X94980204Y-32445704D01*
X94980205Y-32445709D01*
X95039785Y-32615978D01*
X95122097Y-32746976D01*
X95135758Y-32768717D01*
X95263312Y-32896271D01*
X95303790Y-32921705D01*
X95398295Y-32981087D01*
X95416052Y-32992244D01*
X95543777Y-33036937D01*
X95586319Y-33051823D01*
X95586324Y-33051824D01*
X95765570Y-33072020D01*
X95765574Y-33072020D01*
X95765578Y-33072020D01*
X95944823Y-33051824D01*
X95944826Y-33051823D01*
X95944829Y-33051823D01*
X96115096Y-32992244D01*
X96267836Y-32896271D01*
X96267841Y-32896265D01*
X96270671Y-32894010D01*
X96272849Y-32893120D01*
X96273732Y-32892566D01*
X96273829Y-32892720D01*
X96335357Y-32867600D01*
X96347986Y-32866955D01*
X99683162Y-32866955D01*
X99750201Y-32886640D01*
X99760477Y-32894010D01*
X99763310Y-32896269D01*
X99763312Y-32896271D01*
X99876844Y-32967607D01*
X99898292Y-32981085D01*
X99916052Y-32992244D01*
X100043777Y-33036937D01*
X100086319Y-33051823D01*
X100086324Y-33051824D01*
X100265570Y-33072020D01*
X100265574Y-33072020D01*
X100265578Y-33072020D01*
X100444823Y-33051824D01*
X100444826Y-33051823D01*
X100444829Y-33051823D01*
X100615096Y-32992244D01*
X100767836Y-32896271D01*
X100895390Y-32768717D01*
X100991363Y-32615977D01*
X101050942Y-32445710D01*
X101050943Y-32445704D01*
X101071139Y-32266458D01*
X101071139Y-32266451D01*
X101050943Y-32087205D01*
X101050942Y-32087200D01*
X101025395Y-32014192D01*
X100991363Y-31916933D01*
X100990748Y-31915955D01*
X100932132Y-31822667D01*
X100895390Y-31764193D01*
X100767836Y-31636639D01*
X100734953Y-31615977D01*
X100615097Y-31540666D01*
X100444828Y-31481086D01*
X100444823Y-31481085D01*
X100265578Y-31460890D01*
X100265570Y-31460890D01*
X100086324Y-31481085D01*
X100086319Y-31481086D01*
X99916050Y-31540666D01*
X99763310Y-31636640D01*
X99760477Y-31638900D01*
X99758298Y-31639789D01*
X99757416Y-31640344D01*
X99757318Y-31640189D01*
X99695791Y-31665310D01*
X99683162Y-31665955D01*
X96347986Y-31665955D01*
X96280947Y-31646270D01*
X96270671Y-31638900D01*
X96267837Y-31636640D01*
X96267836Y-31636639D01*
X96211070Y-31600970D01*
X96115097Y-31540666D01*
X95944828Y-31481086D01*
X95944823Y-31481085D01*
X95765578Y-31460890D01*
X95765570Y-31460890D01*
X95586324Y-31481085D01*
X95586319Y-31481086D01*
X95416050Y-31540666D01*
X95263311Y-31636639D01*
X95135758Y-31764192D01*
X95039785Y-31916931D01*
X94980205Y-32087200D01*
X94980204Y-32087205D01*
X94960009Y-32266451D01*
X92364805Y-32266451D01*
X88103164Y-28004810D01*
X88103162Y-28004807D01*
X87984291Y-27885936D01*
X87984286Y-27885932D01*
X87868074Y-27818838D01*
X87847359Y-27806878D01*
X87694631Y-27765954D01*
X87536517Y-27765954D01*
X87528921Y-27765954D01*
X87528905Y-27765955D01*
X74113714Y-27765955D01*
X74113698Y-27765954D01*
X74106102Y-27765954D01*
X73947988Y-27765954D01*
X73833442Y-27796647D01*
X73795259Y-27806878D01*
X73774545Y-27818838D01*
X73774544Y-27818838D01*
X73658332Y-27885932D01*
X73658327Y-27885936D01*
X66785055Y-34759208D01*
X66785049Y-34759216D01*
X66746475Y-34826030D01*
X66746475Y-34826032D01*
X66705997Y-34896140D01*
X66705997Y-34896141D01*
X66665073Y-35048869D01*
X66665073Y-35048871D01*
X66665073Y-35216972D01*
X66665074Y-35216985D01*
X66665074Y-41166660D01*
X66645389Y-41233699D01*
X66628755Y-41254341D01*
X59933460Y-47949636D01*
X59872137Y-47983121D01*
X59845779Y-47985955D01*
X56886552Y-47985955D01*
X56819513Y-47966270D01*
X56798871Y-47949636D01*
X55636819Y-46787584D01*
X55603334Y-46726261D01*
X55600500Y-46699903D01*
X55600500Y-44582412D01*
X55620185Y-44515373D01*
X55627555Y-44505097D01*
X55629810Y-44502267D01*
X55629816Y-44502262D01*
X55725789Y-44349522D01*
X55785368Y-44179255D01*
X55790170Y-44136639D01*
X55805565Y-44000003D01*
X55805565Y-43999996D01*
X55785369Y-43820750D01*
X55785368Y-43820745D01*
X55725788Y-43650476D01*
X55629815Y-43497737D01*
X55502262Y-43370184D01*
X55349523Y-43274211D01*
X55179254Y-43214631D01*
X55179249Y-43214630D01*
X55000004Y-43194435D01*
X54999996Y-43194435D01*
X54820750Y-43214630D01*
X54820745Y-43214631D01*
X54650476Y-43274211D01*
X54497737Y-43370184D01*
X54370184Y-43497737D01*
X54274211Y-43650476D01*
X54214631Y-43820745D01*
X54214630Y-43820750D01*
X54194435Y-43999996D01*
X35950763Y-43999996D01*
X35980536Y-31916451D01*
X48210009Y-31916451D01*
X48210009Y-31916458D01*
X48230204Y-32095704D01*
X48230205Y-32095709D01*
X48289785Y-32265978D01*
X48339759Y-32345510D01*
X48382768Y-32413959D01*
X48385759Y-32418718D01*
X48388019Y-32421552D01*
X48388908Y-32423730D01*
X48389463Y-32424613D01*
X48389308Y-32424710D01*
X48414429Y-32486238D01*
X48415074Y-32498867D01*
X48415074Y-35429785D01*
X48415073Y-35429803D01*
X48415073Y-35595509D01*
X48415072Y-35595509D01*
X48436976Y-35677253D01*
X48455997Y-35748240D01*
X48455998Y-35748241D01*
X48460658Y-35756313D01*
X48535051Y-35885167D01*
X48535055Y-35885172D01*
X48653923Y-36004040D01*
X48653929Y-36004045D01*
X50934872Y-38284988D01*
X50968357Y-38346311D01*
X50970411Y-38358785D01*
X50980204Y-38445704D01*
X50980205Y-38445709D01*
X50980206Y-38445710D01*
X50985893Y-38461963D01*
X51039784Y-38615976D01*
X51117789Y-38740119D01*
X51135758Y-38768717D01*
X51263312Y-38896271D01*
X51353654Y-38953037D01*
X51400135Y-38982243D01*
X51416052Y-38992244D01*
X51586319Y-39051823D01*
X51586324Y-39051824D01*
X51765570Y-39072020D01*
X51765574Y-39072020D01*
X51765578Y-39072020D01*
X51944823Y-39051824D01*
X51944826Y-39051823D01*
X51944829Y-39051823D01*
X52115096Y-38992244D01*
X52267836Y-38896271D01*
X52395390Y-38768717D01*
X52491363Y-38615977D01*
X52550942Y-38445710D01*
X52559267Y-38371822D01*
X52571139Y-38266458D01*
X52571139Y-38266451D01*
X52550943Y-38087205D01*
X52550942Y-38087200D01*
X52526186Y-38016451D01*
X52491363Y-37916933D01*
X52490978Y-37916321D01*
X52448855Y-37849282D01*
X52395390Y-37764193D01*
X52267836Y-37636639D01*
X52217913Y-37605270D01*
X52115095Y-37540665D01*
X51944823Y-37481085D01*
X51857904Y-37471292D01*
X51793490Y-37444225D01*
X51784107Y-37435753D01*
X49652393Y-35304039D01*
X49618908Y-35242716D01*
X49616074Y-35216358D01*
X49616074Y-32516451D01*
X50460009Y-32516451D01*
X50460009Y-32516458D01*
X50480204Y-32695704D01*
X50480205Y-32695709D01*
X50539785Y-32865978D01*
X50631130Y-33011351D01*
X50635758Y-33018717D01*
X50763312Y-33146271D01*
X50916052Y-33242244D01*
X51086319Y-33301823D01*
X51086324Y-33301824D01*
X51265570Y-33322020D01*
X51265574Y-33322020D01*
X51265578Y-33322020D01*
X51444823Y-33301824D01*
X51444826Y-33301823D01*
X51444829Y-33301823D01*
X51615096Y-33242244D01*
X51767836Y-33146271D01*
X51767841Y-33146265D01*
X51770671Y-33144010D01*
X51772849Y-33143120D01*
X51773732Y-33142566D01*
X51773829Y-33142720D01*
X51835357Y-33117600D01*
X51847986Y-33116955D01*
X53715477Y-33116955D01*
X53782516Y-33136640D01*
X53803158Y-33153274D01*
X53934872Y-33284988D01*
X53968357Y-33346311D01*
X53970411Y-33358785D01*
X53980204Y-33445704D01*
X54039784Y-33615976D01*
X54088731Y-33693874D01*
X54135758Y-33768717D01*
X54263312Y-33896271D01*
X54341984Y-33945704D01*
X54398295Y-33981087D01*
X54416052Y-33992244D01*
X54554434Y-34040666D01*
X54586319Y-34051823D01*
X54586324Y-34051824D01*
X54765570Y-34072020D01*
X54765574Y-34072020D01*
X54765578Y-34072020D01*
X54944823Y-34051824D01*
X54944826Y-34051823D01*
X54944829Y-34051823D01*
X55115096Y-33992244D01*
X55267836Y-33896271D01*
X55395390Y-33768717D01*
X55491363Y-33615977D01*
X55550942Y-33445710D01*
X55551879Y-33437398D01*
X55571139Y-33266458D01*
X55571139Y-33266451D01*
X55550943Y-33087205D01*
X55550942Y-33087200D01*
X55534346Y-33039772D01*
X55491363Y-32916933D01*
X55395390Y-32764193D01*
X55267836Y-32636639D01*
X55199596Y-32593761D01*
X55115095Y-32540665D01*
X54944823Y-32481085D01*
X54857904Y-32471292D01*
X54793490Y-32444225D01*
X54784107Y-32435753D01*
X54503164Y-32154810D01*
X54503162Y-32154807D01*
X54384291Y-32035936D01*
X54384290Y-32035935D01*
X54280399Y-31975954D01*
X54280398Y-31975953D01*
X54247357Y-31956877D01*
X54191455Y-31941898D01*
X54094631Y-31915954D01*
X53936517Y-31915954D01*
X53928921Y-31915954D01*
X53928905Y-31915955D01*
X51847986Y-31915955D01*
X51780947Y-31896270D01*
X51770671Y-31888900D01*
X51767837Y-31886640D01*
X51767836Y-31886639D01*
X51707722Y-31848867D01*
X51615097Y-31790666D01*
X51444828Y-31731086D01*
X51444823Y-31731085D01*
X51265578Y-31710890D01*
X51265570Y-31710890D01*
X51086324Y-31731085D01*
X51086319Y-31731086D01*
X50916050Y-31790666D01*
X50763311Y-31886639D01*
X50635758Y-32014192D01*
X50539785Y-32166931D01*
X50480205Y-32337200D01*
X50480204Y-32337205D01*
X50460009Y-32516451D01*
X49616074Y-32516451D01*
X49616074Y-32498867D01*
X49635759Y-32431828D01*
X49643129Y-32421552D01*
X49645384Y-32418722D01*
X49645390Y-32418717D01*
X49741363Y-32265977D01*
X49800942Y-32095710D01*
X49800943Y-32095704D01*
X49821139Y-31916458D01*
X49821139Y-31916451D01*
X49800943Y-31737205D01*
X49800942Y-31737200D01*
X49776012Y-31665955D01*
X49741363Y-31566933D01*
X49733056Y-31553713D01*
X49665193Y-31445709D01*
X49645390Y-31414193D01*
X49517836Y-31286639D01*
X49485718Y-31266458D01*
X49365097Y-31190666D01*
X49194828Y-31131086D01*
X49194823Y-31131085D01*
X49015578Y-31110890D01*
X49015570Y-31110890D01*
X48836324Y-31131085D01*
X48836319Y-31131086D01*
X48666050Y-31190666D01*
X48513311Y-31286639D01*
X48385758Y-31414192D01*
X48289785Y-31566931D01*
X48230205Y-31737200D01*
X48230204Y-31737205D01*
X48210009Y-31916451D01*
X35980536Y-31916451D01*
X35982793Y-31000437D01*
X58193994Y-31000437D01*
X58193994Y-31000444D01*
X58214189Y-31179690D01*
X58214190Y-31179695D01*
X58273770Y-31349964D01*
X58315850Y-31416933D01*
X58369743Y-31502703D01*
X58497297Y-31630257D01*
X58650037Y-31726230D01*
X58820304Y-31785809D01*
X58907229Y-31795602D01*
X58971640Y-31822667D01*
X58981025Y-31831141D01*
X59628755Y-32478871D01*
X59662240Y-32540194D01*
X59665074Y-32566552D01*
X59665074Y-32934042D01*
X59645389Y-33001081D01*
X59638024Y-33011351D01*
X59635760Y-33014189D01*
X59613190Y-33050109D01*
X59560854Y-33096399D01*
X59491801Y-33107046D01*
X59442225Y-33089129D01*
X59365097Y-33040666D01*
X59194828Y-32981086D01*
X59194823Y-32981085D01*
X59015578Y-32960890D01*
X59015570Y-32960890D01*
X58836324Y-32981085D01*
X58836319Y-32981086D01*
X58666050Y-33040666D01*
X58513311Y-33136639D01*
X58385758Y-33264192D01*
X58289785Y-33416931D01*
X58230205Y-33587200D01*
X58230204Y-33587205D01*
X58210009Y-33766451D01*
X58210009Y-33766458D01*
X58230204Y-33945704D01*
X58230205Y-33945709D01*
X58289785Y-34115978D01*
X58340246Y-34196285D01*
X58385758Y-34268717D01*
X58513312Y-34396271D01*
X58666052Y-34492244D01*
X58832029Y-34550322D01*
X58888804Y-34591043D01*
X58914552Y-34655995D01*
X58915074Y-34667363D01*
X58915074Y-41417587D01*
X58895389Y-41484626D01*
X58888024Y-41494896D01*
X58885760Y-41497734D01*
X58789785Y-41650476D01*
X58730205Y-41820745D01*
X58730204Y-41820750D01*
X58710009Y-41999996D01*
X58710009Y-42000003D01*
X58730204Y-42179249D01*
X58730205Y-42179254D01*
X58789785Y-42349523D01*
X58885758Y-42502262D01*
X59013312Y-42629816D01*
X59019495Y-42633701D01*
X59152444Y-42717239D01*
X59166052Y-42725789D01*
X59288733Y-42768717D01*
X59336319Y-42785368D01*
X59336324Y-42785369D01*
X59515570Y-42805565D01*
X59515574Y-42805565D01*
X59515578Y-42805565D01*
X59694823Y-42785369D01*
X59694826Y-42785368D01*
X59694829Y-42785368D01*
X59865096Y-42725789D01*
X60017836Y-42629816D01*
X60145390Y-42502262D01*
X60241363Y-42349522D01*
X60300942Y-42179255D01*
X60300943Y-42179249D01*
X60321139Y-42000003D01*
X60321139Y-41999996D01*
X60300943Y-41820750D01*
X60300942Y-41820745D01*
X60294321Y-41801822D01*
X60241363Y-41650478D01*
X60232667Y-41636639D01*
X60201603Y-41587200D01*
X60145390Y-41497738D01*
X60145388Y-41497736D01*
X60145387Y-41497734D01*
X60143124Y-41494896D01*
X60142233Y-41492715D01*
X60141685Y-41491842D01*
X60141838Y-41491745D01*
X60116718Y-41430209D01*
X60116074Y-41417587D01*
X60116074Y-37916321D01*
X60135759Y-37849282D01*
X60188563Y-37803527D01*
X60226186Y-37793101D01*
X60294829Y-37785368D01*
X60465096Y-37725789D01*
X60617836Y-37629816D01*
X60745390Y-37502262D01*
X60841363Y-37349522D01*
X60900942Y-37179255D01*
X60901316Y-37175935D01*
X60921139Y-37000003D01*
X60921139Y-36999996D01*
X60900943Y-36820750D01*
X60900942Y-36820745D01*
X60890417Y-36790666D01*
X60841363Y-36650478D01*
X60830878Y-36633792D01*
X60745389Y-36497737D01*
X60636819Y-36389167D01*
X60603334Y-36327844D01*
X60600500Y-36301486D01*
X60600500Y-34930654D01*
X60620185Y-34863615D01*
X60636815Y-34842977D01*
X61224080Y-34255711D01*
X61224085Y-34255708D01*
X61234288Y-34245504D01*
X61234290Y-34245504D01*
X61346094Y-34133700D01*
X61425151Y-33996768D01*
X61455108Y-33884965D01*
X61466074Y-33844042D01*
X61466074Y-33685927D01*
X61466074Y-30504488D01*
X61425151Y-30351761D01*
X61425151Y-30351760D01*
X61425151Y-30351759D01*
X61396213Y-30301640D01*
X61396211Y-30301637D01*
X61380283Y-30274048D01*
X61346094Y-30214829D01*
X61234290Y-30103025D01*
X61234289Y-30103024D01*
X61229959Y-30098694D01*
X61229948Y-30098684D01*
X61112729Y-29981465D01*
X61079244Y-29920142D01*
X61077192Y-29907686D01*
X61067397Y-29820745D01*
X61007818Y-29650478D01*
X60911845Y-29497738D01*
X60784291Y-29370184D01*
X60779152Y-29366955D01*
X60631552Y-29274211D01*
X60461283Y-29214631D01*
X60461278Y-29214630D01*
X60282033Y-29194435D01*
X60282025Y-29194435D01*
X60102779Y-29214630D01*
X60102774Y-29214631D01*
X59932505Y-29274211D01*
X59779766Y-29370184D01*
X59652213Y-29497737D01*
X59556240Y-29650476D01*
X59496660Y-29820745D01*
X59496659Y-29820750D01*
X59476464Y-29999996D01*
X59476464Y-30000004D01*
X59491811Y-30136223D01*
X59479756Y-30205045D01*
X59432407Y-30256424D01*
X59364796Y-30274048D01*
X59327636Y-30267148D01*
X59178813Y-30215072D01*
X59178808Y-30215071D01*
X58999563Y-30194876D01*
X58999555Y-30194876D01*
X58820309Y-30215071D01*
X58820304Y-30215072D01*
X58650035Y-30274652D01*
X58497296Y-30370625D01*
X58369743Y-30498178D01*
X58273770Y-30650917D01*
X58214190Y-30821186D01*
X58214189Y-30821191D01*
X58193994Y-31000437D01*
X35982793Y-31000437D01*
X35995412Y-25878711D01*
X38149500Y-25878711D01*
X38149500Y-26121288D01*
X38181161Y-26361785D01*
X38243947Y-26596104D01*
X38336773Y-26820205D01*
X38336776Y-26820212D01*
X38458064Y-27030289D01*
X38458066Y-27030292D01*
X38458067Y-27030293D01*
X38605733Y-27222736D01*
X38605739Y-27222743D01*
X38777256Y-27394260D01*
X38777262Y-27394265D01*
X38969711Y-27541936D01*
X39179788Y-27663224D01*
X39403900Y-27756054D01*
X39638211Y-27818838D01*
X39818586Y-27842584D01*
X39878711Y-27850500D01*
X39878712Y-27850500D01*
X40121289Y-27850500D01*
X40169388Y-27844167D01*
X40361789Y-27818838D01*
X40596100Y-27756054D01*
X40820212Y-27663224D01*
X41030289Y-27541936D01*
X41222738Y-27394265D01*
X41394265Y-27222738D01*
X41541936Y-27030289D01*
X41663224Y-26820212D01*
X41756054Y-26596100D01*
X41818838Y-26361789D01*
X41850500Y-26121288D01*
X41850500Y-25878712D01*
X41850500Y-25878711D01*
X113149500Y-25878711D01*
X113149500Y-26121288D01*
X113181161Y-26361785D01*
X113243947Y-26596104D01*
X113336773Y-26820205D01*
X113336776Y-26820212D01*
X113458064Y-27030289D01*
X113458066Y-27030292D01*
X113458067Y-27030293D01*
X113605733Y-27222736D01*
X113605739Y-27222743D01*
X113777256Y-27394260D01*
X113777262Y-27394265D01*
X113969711Y-27541936D01*
X114179788Y-27663224D01*
X114403900Y-27756054D01*
X114638211Y-27818838D01*
X114818586Y-27842584D01*
X114878711Y-27850500D01*
X114878712Y-27850500D01*
X115121289Y-27850500D01*
X115169388Y-27844167D01*
X115361789Y-27818838D01*
X115596100Y-27756054D01*
X115820212Y-27663224D01*
X116030289Y-27541936D01*
X116222738Y-27394265D01*
X116394265Y-27222738D01*
X116541936Y-27030289D01*
X116663224Y-26820212D01*
X116756054Y-26596100D01*
X116818838Y-26361789D01*
X116850500Y-26121288D01*
X116850500Y-25878712D01*
X116818838Y-25638211D01*
X116756054Y-25403900D01*
X116663224Y-25179788D01*
X116541936Y-24969711D01*
X116394265Y-24777262D01*
X116394260Y-24777256D01*
X116222743Y-24605739D01*
X116222736Y-24605733D01*
X116030293Y-24458067D01*
X116030292Y-24458066D01*
X116030289Y-24458064D01*
X115820212Y-24336776D01*
X115820205Y-24336773D01*
X115596104Y-24243947D01*
X115361785Y-24181161D01*
X115121289Y-24149500D01*
X115121288Y-24149500D01*
X114878712Y-24149500D01*
X114878711Y-24149500D01*
X114638214Y-24181161D01*
X114403895Y-24243947D01*
X114179794Y-24336773D01*
X114179785Y-24336777D01*
X113969706Y-24458067D01*
X113777263Y-24605733D01*
X113777256Y-24605739D01*
X113605739Y-24777256D01*
X113605733Y-24777263D01*
X113458067Y-24969706D01*
X113336777Y-25179785D01*
X113336773Y-25179794D01*
X113243947Y-25403895D01*
X113181161Y-25638214D01*
X113149500Y-25878711D01*
X41850500Y-25878711D01*
X41818838Y-25638211D01*
X41756054Y-25403900D01*
X41663224Y-25179788D01*
X41541936Y-24969711D01*
X41394265Y-24777262D01*
X41394260Y-24777256D01*
X41222743Y-24605739D01*
X41222736Y-24605733D01*
X41030293Y-24458067D01*
X41030292Y-24458066D01*
X41030289Y-24458064D01*
X40820212Y-24336776D01*
X40820205Y-24336773D01*
X40596104Y-24243947D01*
X40361785Y-24181161D01*
X40121289Y-24149500D01*
X40121288Y-24149500D01*
X39878712Y-24149500D01*
X39878711Y-24149500D01*
X39638214Y-24181161D01*
X39403895Y-24243947D01*
X39179794Y-24336773D01*
X39179785Y-24336777D01*
X38969706Y-24458067D01*
X38777263Y-24605733D01*
X38777256Y-24605739D01*
X38605739Y-24777256D01*
X38605733Y-24777263D01*
X38458067Y-24969706D01*
X38336777Y-25179785D01*
X38336773Y-25179794D01*
X38243947Y-25403895D01*
X38181161Y-25638214D01*
X38149500Y-25878711D01*
X35995412Y-25878711D01*
X36000000Y-24016455D01*
X36000000Y-22124000D01*
X36019685Y-22056961D01*
X36072489Y-22011206D01*
X36124000Y-22000000D01*
X118726038Y-22000000D01*
X118793077Y-22019685D01*
G37*
%TD.AperFunction*%
%TD*%
M02*
