%TF.GenerationSoftware,KiCad,Pcbnew,8.0.5*%
%TF.CreationDate,2025-02-24T01:44:01-08:00*%
%TF.ProjectId,BSPD,42535044-2e6b-4696-9361-645f70636258,rev?*%
%TF.SameCoordinates,Original*%
%TF.FileFunction,Legend,Top*%
%TF.FilePolarity,Positive*%
%FSLAX46Y46*%
G04 Gerber Fmt 4.6, Leading zero omitted, Abs format (unit mm)*
G04 Created by KiCad (PCBNEW 8.0.5) date 2025-02-24 01:44:01*
%MOMM*%
%LPD*%
G01*
G04 APERTURE LIST*
%ADD10C,0.200000*%
%ADD11C,0.100000*%
%ADD12C,0.150000*%
%ADD13C,0.120000*%
%ADD14C,0.000000*%
%ADD15C,0.152400*%
G04 APERTURE END LIST*
D10*
X70560426Y-78059921D02*
X70227093Y-78059921D01*
X70227093Y-78583731D02*
X70227093Y-77583731D01*
X70227093Y-77583731D02*
X70703283Y-77583731D01*
X71036617Y-78536112D02*
X71179474Y-78583731D01*
X71179474Y-78583731D02*
X71417569Y-78583731D01*
X71417569Y-78583731D02*
X71512807Y-78536112D01*
X71512807Y-78536112D02*
X71560426Y-78488492D01*
X71560426Y-78488492D02*
X71608045Y-78393254D01*
X71608045Y-78393254D02*
X71608045Y-78298016D01*
X71608045Y-78298016D02*
X71560426Y-78202778D01*
X71560426Y-78202778D02*
X71512807Y-78155159D01*
X71512807Y-78155159D02*
X71417569Y-78107540D01*
X71417569Y-78107540D02*
X71227093Y-78059921D01*
X71227093Y-78059921D02*
X71131855Y-78012302D01*
X71131855Y-78012302D02*
X71084236Y-77964683D01*
X71084236Y-77964683D02*
X71036617Y-77869445D01*
X71036617Y-77869445D02*
X71036617Y-77774207D01*
X71036617Y-77774207D02*
X71084236Y-77678969D01*
X71084236Y-77678969D02*
X71131855Y-77631350D01*
X71131855Y-77631350D02*
X71227093Y-77583731D01*
X71227093Y-77583731D02*
X71465188Y-77583731D01*
X71465188Y-77583731D02*
X71608045Y-77631350D01*
X72036617Y-78202778D02*
X72798522Y-78202778D01*
X73179474Y-77583731D02*
X73798521Y-77583731D01*
X73798521Y-77583731D02*
X73465188Y-77964683D01*
X73465188Y-77964683D02*
X73608045Y-77964683D01*
X73608045Y-77964683D02*
X73703283Y-78012302D01*
X73703283Y-78012302D02*
X73750902Y-78059921D01*
X73750902Y-78059921D02*
X73798521Y-78155159D01*
X73798521Y-78155159D02*
X73798521Y-78393254D01*
X73798521Y-78393254D02*
X73750902Y-78488492D01*
X73750902Y-78488492D02*
X73703283Y-78536112D01*
X73703283Y-78536112D02*
X73608045Y-78583731D01*
X73608045Y-78583731D02*
X73322331Y-78583731D01*
X73322331Y-78583731D02*
X73227093Y-78536112D01*
X73227093Y-78536112D02*
X73179474Y-78488492D01*
X74227093Y-78488492D02*
X74274712Y-78536112D01*
X74274712Y-78536112D02*
X74227093Y-78583731D01*
X74227093Y-78583731D02*
X74179474Y-78536112D01*
X74179474Y-78536112D02*
X74227093Y-78488492D01*
X74227093Y-78488492D02*
X74227093Y-78583731D01*
X74227093Y-77964683D02*
X74274712Y-78012302D01*
X74274712Y-78012302D02*
X74227093Y-78059921D01*
X74227093Y-78059921D02*
X74179474Y-78012302D01*
X74179474Y-78012302D02*
X74227093Y-77964683D01*
X74227093Y-77964683D02*
X74227093Y-78059921D01*
X75798521Y-78059921D02*
X75941378Y-78107540D01*
X75941378Y-78107540D02*
X75988997Y-78155159D01*
X75988997Y-78155159D02*
X76036616Y-78250397D01*
X76036616Y-78250397D02*
X76036616Y-78393254D01*
X76036616Y-78393254D02*
X75988997Y-78488492D01*
X75988997Y-78488492D02*
X75941378Y-78536112D01*
X75941378Y-78536112D02*
X75846140Y-78583731D01*
X75846140Y-78583731D02*
X75465188Y-78583731D01*
X75465188Y-78583731D02*
X75465188Y-77583731D01*
X75465188Y-77583731D02*
X75798521Y-77583731D01*
X75798521Y-77583731D02*
X75893759Y-77631350D01*
X75893759Y-77631350D02*
X75941378Y-77678969D01*
X75941378Y-77678969D02*
X75988997Y-77774207D01*
X75988997Y-77774207D02*
X75988997Y-77869445D01*
X75988997Y-77869445D02*
X75941378Y-77964683D01*
X75941378Y-77964683D02*
X75893759Y-78012302D01*
X75893759Y-78012302D02*
X75798521Y-78059921D01*
X75798521Y-78059921D02*
X75465188Y-78059921D01*
X76417569Y-78536112D02*
X76560426Y-78583731D01*
X76560426Y-78583731D02*
X76798521Y-78583731D01*
X76798521Y-78583731D02*
X76893759Y-78536112D01*
X76893759Y-78536112D02*
X76941378Y-78488492D01*
X76941378Y-78488492D02*
X76988997Y-78393254D01*
X76988997Y-78393254D02*
X76988997Y-78298016D01*
X76988997Y-78298016D02*
X76941378Y-78202778D01*
X76941378Y-78202778D02*
X76893759Y-78155159D01*
X76893759Y-78155159D02*
X76798521Y-78107540D01*
X76798521Y-78107540D02*
X76608045Y-78059921D01*
X76608045Y-78059921D02*
X76512807Y-78012302D01*
X76512807Y-78012302D02*
X76465188Y-77964683D01*
X76465188Y-77964683D02*
X76417569Y-77869445D01*
X76417569Y-77869445D02*
X76417569Y-77774207D01*
X76417569Y-77774207D02*
X76465188Y-77678969D01*
X76465188Y-77678969D02*
X76512807Y-77631350D01*
X76512807Y-77631350D02*
X76608045Y-77583731D01*
X76608045Y-77583731D02*
X76846140Y-77583731D01*
X76846140Y-77583731D02*
X76988997Y-77631350D01*
X77417569Y-78583731D02*
X77417569Y-77583731D01*
X77417569Y-77583731D02*
X77798521Y-77583731D01*
X77798521Y-77583731D02*
X77893759Y-77631350D01*
X77893759Y-77631350D02*
X77941378Y-77678969D01*
X77941378Y-77678969D02*
X77988997Y-77774207D01*
X77988997Y-77774207D02*
X77988997Y-77917064D01*
X77988997Y-77917064D02*
X77941378Y-78012302D01*
X77941378Y-78012302D02*
X77893759Y-78059921D01*
X77893759Y-78059921D02*
X77798521Y-78107540D01*
X77798521Y-78107540D02*
X77417569Y-78107540D01*
X78417569Y-78583731D02*
X78417569Y-77583731D01*
X78417569Y-77583731D02*
X78655664Y-77583731D01*
X78655664Y-77583731D02*
X78798521Y-77631350D01*
X78798521Y-77631350D02*
X78893759Y-77726588D01*
X78893759Y-77726588D02*
X78941378Y-77821826D01*
X78941378Y-77821826D02*
X78988997Y-78012302D01*
X78988997Y-78012302D02*
X78988997Y-78155159D01*
X78988997Y-78155159D02*
X78941378Y-78345635D01*
X78941378Y-78345635D02*
X78893759Y-78440873D01*
X78893759Y-78440873D02*
X78798521Y-78536112D01*
X78798521Y-78536112D02*
X78655664Y-78583731D01*
X78655664Y-78583731D02*
X78417569Y-78583731D01*
X70084236Y-79193675D02*
X70417569Y-80193675D01*
X70417569Y-80193675D02*
X70750902Y-79193675D01*
X71465188Y-80146056D02*
X71369950Y-80193675D01*
X71369950Y-80193675D02*
X71179474Y-80193675D01*
X71179474Y-80193675D02*
X71084236Y-80146056D01*
X71084236Y-80146056D02*
X71036617Y-80050817D01*
X71036617Y-80050817D02*
X71036617Y-79669865D01*
X71036617Y-79669865D02*
X71084236Y-79574627D01*
X71084236Y-79574627D02*
X71179474Y-79527008D01*
X71179474Y-79527008D02*
X71369950Y-79527008D01*
X71369950Y-79527008D02*
X71465188Y-79574627D01*
X71465188Y-79574627D02*
X71512807Y-79669865D01*
X71512807Y-79669865D02*
X71512807Y-79765103D01*
X71512807Y-79765103D02*
X71036617Y-79860341D01*
X71941379Y-80193675D02*
X71941379Y-79527008D01*
X71941379Y-79717484D02*
X71988998Y-79622246D01*
X71988998Y-79622246D02*
X72036617Y-79574627D01*
X72036617Y-79574627D02*
X72131855Y-79527008D01*
X72131855Y-79527008D02*
X72227093Y-79527008D01*
X72512808Y-80146056D02*
X72608046Y-80193675D01*
X72608046Y-80193675D02*
X72798522Y-80193675D01*
X72798522Y-80193675D02*
X72893760Y-80146056D01*
X72893760Y-80146056D02*
X72941379Y-80050817D01*
X72941379Y-80050817D02*
X72941379Y-80003198D01*
X72941379Y-80003198D02*
X72893760Y-79907960D01*
X72893760Y-79907960D02*
X72798522Y-79860341D01*
X72798522Y-79860341D02*
X72655665Y-79860341D01*
X72655665Y-79860341D02*
X72560427Y-79812722D01*
X72560427Y-79812722D02*
X72512808Y-79717484D01*
X72512808Y-79717484D02*
X72512808Y-79669865D01*
X72512808Y-79669865D02*
X72560427Y-79574627D01*
X72560427Y-79574627D02*
X72655665Y-79527008D01*
X72655665Y-79527008D02*
X72798522Y-79527008D01*
X72798522Y-79527008D02*
X72893760Y-79574627D01*
X73369951Y-80193675D02*
X73369951Y-79527008D01*
X73369951Y-79193675D02*
X73322332Y-79241294D01*
X73322332Y-79241294D02*
X73369951Y-79288913D01*
X73369951Y-79288913D02*
X73417570Y-79241294D01*
X73417570Y-79241294D02*
X73369951Y-79193675D01*
X73369951Y-79193675D02*
X73369951Y-79288913D01*
X73988998Y-80193675D02*
X73893760Y-80146056D01*
X73893760Y-80146056D02*
X73846141Y-80098436D01*
X73846141Y-80098436D02*
X73798522Y-80003198D01*
X73798522Y-80003198D02*
X73798522Y-79717484D01*
X73798522Y-79717484D02*
X73846141Y-79622246D01*
X73846141Y-79622246D02*
X73893760Y-79574627D01*
X73893760Y-79574627D02*
X73988998Y-79527008D01*
X73988998Y-79527008D02*
X74131855Y-79527008D01*
X74131855Y-79527008D02*
X74227093Y-79574627D01*
X74227093Y-79574627D02*
X74274712Y-79622246D01*
X74274712Y-79622246D02*
X74322331Y-79717484D01*
X74322331Y-79717484D02*
X74322331Y-80003198D01*
X74322331Y-80003198D02*
X74274712Y-80098436D01*
X74274712Y-80098436D02*
X74227093Y-80146056D01*
X74227093Y-80146056D02*
X74131855Y-80193675D01*
X74131855Y-80193675D02*
X73988998Y-80193675D01*
X74750903Y-79527008D02*
X74750903Y-80193675D01*
X74750903Y-79622246D02*
X74798522Y-79574627D01*
X74798522Y-79574627D02*
X74893760Y-79527008D01*
X74893760Y-79527008D02*
X75036617Y-79527008D01*
X75036617Y-79527008D02*
X75131855Y-79574627D01*
X75131855Y-79574627D02*
X75179474Y-79669865D01*
X75179474Y-79669865D02*
X75179474Y-80193675D01*
X76369951Y-79288913D02*
X76417570Y-79241294D01*
X76417570Y-79241294D02*
X76512808Y-79193675D01*
X76512808Y-79193675D02*
X76750903Y-79193675D01*
X76750903Y-79193675D02*
X76846141Y-79241294D01*
X76846141Y-79241294D02*
X76893760Y-79288913D01*
X76893760Y-79288913D02*
X76941379Y-79384151D01*
X76941379Y-79384151D02*
X76941379Y-79479389D01*
X76941379Y-79479389D02*
X76893760Y-79622246D01*
X76893760Y-79622246D02*
X76322332Y-80193675D01*
X76322332Y-80193675D02*
X76941379Y-80193675D01*
X77369951Y-80098436D02*
X77417570Y-80146056D01*
X77417570Y-80146056D02*
X77369951Y-80193675D01*
X77369951Y-80193675D02*
X77322332Y-80146056D01*
X77322332Y-80146056D02*
X77369951Y-80098436D01*
X77369951Y-80098436D02*
X77369951Y-80193675D01*
X78036617Y-79193675D02*
X78131855Y-79193675D01*
X78131855Y-79193675D02*
X78227093Y-79241294D01*
X78227093Y-79241294D02*
X78274712Y-79288913D01*
X78274712Y-79288913D02*
X78322331Y-79384151D01*
X78322331Y-79384151D02*
X78369950Y-79574627D01*
X78369950Y-79574627D02*
X78369950Y-79812722D01*
X78369950Y-79812722D02*
X78322331Y-80003198D01*
X78322331Y-80003198D02*
X78274712Y-80098436D01*
X78274712Y-80098436D02*
X78227093Y-80146056D01*
X78227093Y-80146056D02*
X78131855Y-80193675D01*
X78131855Y-80193675D02*
X78036617Y-80193675D01*
X78036617Y-80193675D02*
X77941379Y-80146056D01*
X77941379Y-80146056D02*
X77893760Y-80098436D01*
X77893760Y-80098436D02*
X77846141Y-80003198D01*
X77846141Y-80003198D02*
X77798522Y-79812722D01*
X77798522Y-79812722D02*
X77798522Y-79574627D01*
X77798522Y-79574627D02*
X77846141Y-79384151D01*
X77846141Y-79384151D02*
X77893760Y-79288913D01*
X77893760Y-79288913D02*
X77941379Y-79241294D01*
X77941379Y-79241294D02*
X78036617Y-79193675D01*
X70227093Y-81803619D02*
X70227093Y-80803619D01*
X70227093Y-80803619D02*
X70465188Y-80803619D01*
X70465188Y-80803619D02*
X70608045Y-80851238D01*
X70608045Y-80851238D02*
X70703283Y-80946476D01*
X70703283Y-80946476D02*
X70750902Y-81041714D01*
X70750902Y-81041714D02*
X70798521Y-81232190D01*
X70798521Y-81232190D02*
X70798521Y-81375047D01*
X70798521Y-81375047D02*
X70750902Y-81565523D01*
X70750902Y-81565523D02*
X70703283Y-81660761D01*
X70703283Y-81660761D02*
X70608045Y-81756000D01*
X70608045Y-81756000D02*
X70465188Y-81803619D01*
X70465188Y-81803619D02*
X70227093Y-81803619D01*
X71608045Y-81756000D02*
X71512807Y-81803619D01*
X71512807Y-81803619D02*
X71322331Y-81803619D01*
X71322331Y-81803619D02*
X71227093Y-81756000D01*
X71227093Y-81756000D02*
X71179474Y-81660761D01*
X71179474Y-81660761D02*
X71179474Y-81279809D01*
X71179474Y-81279809D02*
X71227093Y-81184571D01*
X71227093Y-81184571D02*
X71322331Y-81136952D01*
X71322331Y-81136952D02*
X71512807Y-81136952D01*
X71512807Y-81136952D02*
X71608045Y-81184571D01*
X71608045Y-81184571D02*
X71655664Y-81279809D01*
X71655664Y-81279809D02*
X71655664Y-81375047D01*
X71655664Y-81375047D02*
X71179474Y-81470285D01*
X72036617Y-81756000D02*
X72131855Y-81803619D01*
X72131855Y-81803619D02*
X72322331Y-81803619D01*
X72322331Y-81803619D02*
X72417569Y-81756000D01*
X72417569Y-81756000D02*
X72465188Y-81660761D01*
X72465188Y-81660761D02*
X72465188Y-81613142D01*
X72465188Y-81613142D02*
X72417569Y-81517904D01*
X72417569Y-81517904D02*
X72322331Y-81470285D01*
X72322331Y-81470285D02*
X72179474Y-81470285D01*
X72179474Y-81470285D02*
X72084236Y-81422666D01*
X72084236Y-81422666D02*
X72036617Y-81327428D01*
X72036617Y-81327428D02*
X72036617Y-81279809D01*
X72036617Y-81279809D02*
X72084236Y-81184571D01*
X72084236Y-81184571D02*
X72179474Y-81136952D01*
X72179474Y-81136952D02*
X72322331Y-81136952D01*
X72322331Y-81136952D02*
X72417569Y-81184571D01*
X72893760Y-81803619D02*
X72893760Y-81136952D01*
X72893760Y-80803619D02*
X72846141Y-80851238D01*
X72846141Y-80851238D02*
X72893760Y-80898857D01*
X72893760Y-80898857D02*
X72941379Y-80851238D01*
X72941379Y-80851238D02*
X72893760Y-80803619D01*
X72893760Y-80803619D02*
X72893760Y-80898857D01*
X73798521Y-81136952D02*
X73798521Y-81946476D01*
X73798521Y-81946476D02*
X73750902Y-82041714D01*
X73750902Y-82041714D02*
X73703283Y-82089333D01*
X73703283Y-82089333D02*
X73608045Y-82136952D01*
X73608045Y-82136952D02*
X73465188Y-82136952D01*
X73465188Y-82136952D02*
X73369950Y-82089333D01*
X73798521Y-81756000D02*
X73703283Y-81803619D01*
X73703283Y-81803619D02*
X73512807Y-81803619D01*
X73512807Y-81803619D02*
X73417569Y-81756000D01*
X73417569Y-81756000D02*
X73369950Y-81708380D01*
X73369950Y-81708380D02*
X73322331Y-81613142D01*
X73322331Y-81613142D02*
X73322331Y-81327428D01*
X73322331Y-81327428D02*
X73369950Y-81232190D01*
X73369950Y-81232190D02*
X73417569Y-81184571D01*
X73417569Y-81184571D02*
X73512807Y-81136952D01*
X73512807Y-81136952D02*
X73703283Y-81136952D01*
X73703283Y-81136952D02*
X73798521Y-81184571D01*
X74274712Y-81136952D02*
X74274712Y-81803619D01*
X74274712Y-81232190D02*
X74322331Y-81184571D01*
X74322331Y-81184571D02*
X74417569Y-81136952D01*
X74417569Y-81136952D02*
X74560426Y-81136952D01*
X74560426Y-81136952D02*
X74655664Y-81184571D01*
X74655664Y-81184571D02*
X74703283Y-81279809D01*
X74703283Y-81279809D02*
X74703283Y-81803619D01*
X75560426Y-81756000D02*
X75465188Y-81803619D01*
X75465188Y-81803619D02*
X75274712Y-81803619D01*
X75274712Y-81803619D02*
X75179474Y-81756000D01*
X75179474Y-81756000D02*
X75131855Y-81660761D01*
X75131855Y-81660761D02*
X75131855Y-81279809D01*
X75131855Y-81279809D02*
X75179474Y-81184571D01*
X75179474Y-81184571D02*
X75274712Y-81136952D01*
X75274712Y-81136952D02*
X75465188Y-81136952D01*
X75465188Y-81136952D02*
X75560426Y-81184571D01*
X75560426Y-81184571D02*
X75608045Y-81279809D01*
X75608045Y-81279809D02*
X75608045Y-81375047D01*
X75608045Y-81375047D02*
X75131855Y-81470285D01*
X76465188Y-81803619D02*
X76465188Y-80803619D01*
X76465188Y-81756000D02*
X76369950Y-81803619D01*
X76369950Y-81803619D02*
X76179474Y-81803619D01*
X76179474Y-81803619D02*
X76084236Y-81756000D01*
X76084236Y-81756000D02*
X76036617Y-81708380D01*
X76036617Y-81708380D02*
X75988998Y-81613142D01*
X75988998Y-81613142D02*
X75988998Y-81327428D01*
X75988998Y-81327428D02*
X76036617Y-81232190D01*
X76036617Y-81232190D02*
X76084236Y-81184571D01*
X76084236Y-81184571D02*
X76179474Y-81136952D01*
X76179474Y-81136952D02*
X76369950Y-81136952D01*
X76369950Y-81136952D02*
X76465188Y-81184571D01*
X77703284Y-81803619D02*
X77703284Y-80803619D01*
X77703284Y-81184571D02*
X77798522Y-81136952D01*
X77798522Y-81136952D02*
X77988998Y-81136952D01*
X77988998Y-81136952D02*
X78084236Y-81184571D01*
X78084236Y-81184571D02*
X78131855Y-81232190D01*
X78131855Y-81232190D02*
X78179474Y-81327428D01*
X78179474Y-81327428D02*
X78179474Y-81613142D01*
X78179474Y-81613142D02*
X78131855Y-81708380D01*
X78131855Y-81708380D02*
X78084236Y-81756000D01*
X78084236Y-81756000D02*
X77988998Y-81803619D01*
X77988998Y-81803619D02*
X77798522Y-81803619D01*
X77798522Y-81803619D02*
X77703284Y-81756000D01*
X78512808Y-81136952D02*
X78750903Y-81803619D01*
X78988998Y-81136952D02*
X78750903Y-81803619D01*
X78750903Y-81803619D02*
X78655665Y-82041714D01*
X78655665Y-82041714D02*
X78608046Y-82089333D01*
X78608046Y-82089333D02*
X78512808Y-82136952D01*
X79369951Y-81708380D02*
X79417570Y-81756000D01*
X79417570Y-81756000D02*
X79369951Y-81803619D01*
X79369951Y-81803619D02*
X79322332Y-81756000D01*
X79322332Y-81756000D02*
X79369951Y-81708380D01*
X79369951Y-81708380D02*
X79369951Y-81803619D01*
X79369951Y-81184571D02*
X79417570Y-81232190D01*
X79417570Y-81232190D02*
X79369951Y-81279809D01*
X79369951Y-81279809D02*
X79322332Y-81232190D01*
X79322332Y-81232190D02*
X79369951Y-81184571D01*
X79369951Y-81184571D02*
X79369951Y-81279809D01*
X80608046Y-81803619D02*
X80608046Y-80803619D01*
X80608046Y-80803619D02*
X80941379Y-81517904D01*
X80941379Y-81517904D02*
X81274712Y-80803619D01*
X81274712Y-80803619D02*
X81274712Y-81803619D01*
X82179474Y-81803619D02*
X82179474Y-81279809D01*
X82179474Y-81279809D02*
X82131855Y-81184571D01*
X82131855Y-81184571D02*
X82036617Y-81136952D01*
X82036617Y-81136952D02*
X81846141Y-81136952D01*
X81846141Y-81136952D02*
X81750903Y-81184571D01*
X82179474Y-81756000D02*
X82084236Y-81803619D01*
X82084236Y-81803619D02*
X81846141Y-81803619D01*
X81846141Y-81803619D02*
X81750903Y-81756000D01*
X81750903Y-81756000D02*
X81703284Y-81660761D01*
X81703284Y-81660761D02*
X81703284Y-81565523D01*
X81703284Y-81565523D02*
X81750903Y-81470285D01*
X81750903Y-81470285D02*
X81846141Y-81422666D01*
X81846141Y-81422666D02*
X82084236Y-81422666D01*
X82084236Y-81422666D02*
X82179474Y-81375047D01*
X83084236Y-81136952D02*
X83084236Y-81946476D01*
X83084236Y-81946476D02*
X83036617Y-82041714D01*
X83036617Y-82041714D02*
X82988998Y-82089333D01*
X82988998Y-82089333D02*
X82893760Y-82136952D01*
X82893760Y-82136952D02*
X82750903Y-82136952D01*
X82750903Y-82136952D02*
X82655665Y-82089333D01*
X83084236Y-81756000D02*
X82988998Y-81803619D01*
X82988998Y-81803619D02*
X82798522Y-81803619D01*
X82798522Y-81803619D02*
X82703284Y-81756000D01*
X82703284Y-81756000D02*
X82655665Y-81708380D01*
X82655665Y-81708380D02*
X82608046Y-81613142D01*
X82608046Y-81613142D02*
X82608046Y-81327428D01*
X82608046Y-81327428D02*
X82655665Y-81232190D01*
X82655665Y-81232190D02*
X82703284Y-81184571D01*
X82703284Y-81184571D02*
X82798522Y-81136952D01*
X82798522Y-81136952D02*
X82988998Y-81136952D01*
X82988998Y-81136952D02*
X83084236Y-81184571D01*
X83988998Y-81136952D02*
X83988998Y-81946476D01*
X83988998Y-81946476D02*
X83941379Y-82041714D01*
X83941379Y-82041714D02*
X83893760Y-82089333D01*
X83893760Y-82089333D02*
X83798522Y-82136952D01*
X83798522Y-82136952D02*
X83655665Y-82136952D01*
X83655665Y-82136952D02*
X83560427Y-82089333D01*
X83988998Y-81756000D02*
X83893760Y-81803619D01*
X83893760Y-81803619D02*
X83703284Y-81803619D01*
X83703284Y-81803619D02*
X83608046Y-81756000D01*
X83608046Y-81756000D02*
X83560427Y-81708380D01*
X83560427Y-81708380D02*
X83512808Y-81613142D01*
X83512808Y-81613142D02*
X83512808Y-81327428D01*
X83512808Y-81327428D02*
X83560427Y-81232190D01*
X83560427Y-81232190D02*
X83608046Y-81184571D01*
X83608046Y-81184571D02*
X83703284Y-81136952D01*
X83703284Y-81136952D02*
X83893760Y-81136952D01*
X83893760Y-81136952D02*
X83988998Y-81184571D01*
X84465189Y-81803619D02*
X84465189Y-81136952D01*
X84465189Y-80803619D02*
X84417570Y-80851238D01*
X84417570Y-80851238D02*
X84465189Y-80898857D01*
X84465189Y-80898857D02*
X84512808Y-80851238D01*
X84512808Y-80851238D02*
X84465189Y-80803619D01*
X84465189Y-80803619D02*
X84465189Y-80898857D01*
X85322331Y-81756000D02*
X85227093Y-81803619D01*
X85227093Y-81803619D02*
X85036617Y-81803619D01*
X85036617Y-81803619D02*
X84941379Y-81756000D01*
X84941379Y-81756000D02*
X84893760Y-81660761D01*
X84893760Y-81660761D02*
X84893760Y-81279809D01*
X84893760Y-81279809D02*
X84941379Y-81184571D01*
X84941379Y-81184571D02*
X85036617Y-81136952D01*
X85036617Y-81136952D02*
X85227093Y-81136952D01*
X85227093Y-81136952D02*
X85322331Y-81184571D01*
X85322331Y-81184571D02*
X85369950Y-81279809D01*
X85369950Y-81279809D02*
X85369950Y-81375047D01*
X85369950Y-81375047D02*
X84893760Y-81470285D01*
X86846141Y-80803619D02*
X86846141Y-81517904D01*
X86846141Y-81517904D02*
X86798522Y-81660761D01*
X86798522Y-81660761D02*
X86703284Y-81756000D01*
X86703284Y-81756000D02*
X86560427Y-81803619D01*
X86560427Y-81803619D02*
X86465189Y-81803619D01*
X87703284Y-81756000D02*
X87608046Y-81803619D01*
X87608046Y-81803619D02*
X87417570Y-81803619D01*
X87417570Y-81803619D02*
X87322332Y-81756000D01*
X87322332Y-81756000D02*
X87274713Y-81660761D01*
X87274713Y-81660761D02*
X87274713Y-81279809D01*
X87274713Y-81279809D02*
X87322332Y-81184571D01*
X87322332Y-81184571D02*
X87417570Y-81136952D01*
X87417570Y-81136952D02*
X87608046Y-81136952D01*
X87608046Y-81136952D02*
X87703284Y-81184571D01*
X87703284Y-81184571D02*
X87750903Y-81279809D01*
X87750903Y-81279809D02*
X87750903Y-81375047D01*
X87750903Y-81375047D02*
X87274713Y-81470285D01*
X88179475Y-81136952D02*
X88179475Y-81803619D01*
X88179475Y-81232190D02*
X88227094Y-81184571D01*
X88227094Y-81184571D02*
X88322332Y-81136952D01*
X88322332Y-81136952D02*
X88465189Y-81136952D01*
X88465189Y-81136952D02*
X88560427Y-81184571D01*
X88560427Y-81184571D02*
X88608046Y-81279809D01*
X88608046Y-81279809D02*
X88608046Y-81803619D01*
X89084237Y-81803619D02*
X89084237Y-80803619D01*
X89179475Y-81422666D02*
X89465189Y-81803619D01*
X89465189Y-81136952D02*
X89084237Y-81517904D01*
X89893761Y-81803619D02*
X89893761Y-81136952D01*
X89893761Y-80803619D02*
X89846142Y-80851238D01*
X89846142Y-80851238D02*
X89893761Y-80898857D01*
X89893761Y-80898857D02*
X89941380Y-80851238D01*
X89941380Y-80851238D02*
X89893761Y-80803619D01*
X89893761Y-80803619D02*
X89893761Y-80898857D01*
X90369951Y-81136952D02*
X90369951Y-81803619D01*
X90369951Y-81232190D02*
X90417570Y-81184571D01*
X90417570Y-81184571D02*
X90512808Y-81136952D01*
X90512808Y-81136952D02*
X90655665Y-81136952D01*
X90655665Y-81136952D02*
X90750903Y-81184571D01*
X90750903Y-81184571D02*
X90798522Y-81279809D01*
X90798522Y-81279809D02*
X90798522Y-81803619D01*
X91227094Y-81756000D02*
X91322332Y-81803619D01*
X91322332Y-81803619D02*
X91512808Y-81803619D01*
X91512808Y-81803619D02*
X91608046Y-81756000D01*
X91608046Y-81756000D02*
X91655665Y-81660761D01*
X91655665Y-81660761D02*
X91655665Y-81613142D01*
X91655665Y-81613142D02*
X91608046Y-81517904D01*
X91608046Y-81517904D02*
X91512808Y-81470285D01*
X91512808Y-81470285D02*
X91369951Y-81470285D01*
X91369951Y-81470285D02*
X91274713Y-81422666D01*
X91274713Y-81422666D02*
X91227094Y-81327428D01*
X91227094Y-81327428D02*
X91227094Y-81279809D01*
X91227094Y-81279809D02*
X91274713Y-81184571D01*
X91274713Y-81184571D02*
X91369951Y-81136952D01*
X91369951Y-81136952D02*
X91512808Y-81136952D01*
X91512808Y-81136952D02*
X91608046Y-81184571D01*
D11*
X70486124Y-62450064D02*
X70319458Y-62211969D01*
X70200410Y-62450064D02*
X70200410Y-61950064D01*
X70200410Y-61950064D02*
X70390886Y-61950064D01*
X70390886Y-61950064D02*
X70438505Y-61973874D01*
X70438505Y-61973874D02*
X70462315Y-61997683D01*
X70462315Y-61997683D02*
X70486124Y-62045302D01*
X70486124Y-62045302D02*
X70486124Y-62116731D01*
X70486124Y-62116731D02*
X70462315Y-62164350D01*
X70462315Y-62164350D02*
X70438505Y-62188159D01*
X70438505Y-62188159D02*
X70390886Y-62211969D01*
X70390886Y-62211969D02*
X70200410Y-62211969D01*
X70700410Y-62402445D02*
X70724220Y-62426255D01*
X70724220Y-62426255D02*
X70700410Y-62450064D01*
X70700410Y-62450064D02*
X70676601Y-62426255D01*
X70676601Y-62426255D02*
X70700410Y-62402445D01*
X70700410Y-62402445D02*
X70700410Y-62450064D01*
X71105172Y-62188159D02*
X71176600Y-62211969D01*
X71176600Y-62211969D02*
X71200410Y-62235778D01*
X71200410Y-62235778D02*
X71224219Y-62283397D01*
X71224219Y-62283397D02*
X71224219Y-62354826D01*
X71224219Y-62354826D02*
X71200410Y-62402445D01*
X71200410Y-62402445D02*
X71176600Y-62426255D01*
X71176600Y-62426255D02*
X71128981Y-62450064D01*
X71128981Y-62450064D02*
X70938505Y-62450064D01*
X70938505Y-62450064D02*
X70938505Y-61950064D01*
X70938505Y-61950064D02*
X71105172Y-61950064D01*
X71105172Y-61950064D02*
X71152791Y-61973874D01*
X71152791Y-61973874D02*
X71176600Y-61997683D01*
X71176600Y-61997683D02*
X71200410Y-62045302D01*
X71200410Y-62045302D02*
X71200410Y-62092921D01*
X71200410Y-62092921D02*
X71176600Y-62140540D01*
X71176600Y-62140540D02*
X71152791Y-62164350D01*
X71152791Y-62164350D02*
X71105172Y-62188159D01*
X71105172Y-62188159D02*
X70938505Y-62188159D01*
X71438505Y-62402445D02*
X71462315Y-62426255D01*
X71462315Y-62426255D02*
X71438505Y-62450064D01*
X71438505Y-62450064D02*
X71414696Y-62426255D01*
X71414696Y-62426255D02*
X71438505Y-62402445D01*
X71438505Y-62402445D02*
X71438505Y-62450064D01*
X71605172Y-61950064D02*
X71890886Y-61950064D01*
X71748029Y-62450064D02*
X71748029Y-61950064D01*
X72438504Y-62259588D02*
X72819457Y-62259588D01*
X73367076Y-61950064D02*
X73652790Y-61950064D01*
X73509933Y-62450064D02*
X73509933Y-61950064D01*
X73819456Y-62450064D02*
X73819456Y-61950064D01*
X73819456Y-61950064D02*
X74009932Y-61950064D01*
X74009932Y-61950064D02*
X74057551Y-61973874D01*
X74057551Y-61973874D02*
X74081361Y-61997683D01*
X74081361Y-61997683D02*
X74105170Y-62045302D01*
X74105170Y-62045302D02*
X74105170Y-62116731D01*
X74105170Y-62116731D02*
X74081361Y-62164350D01*
X74081361Y-62164350D02*
X74057551Y-62188159D01*
X74057551Y-62188159D02*
X74009932Y-62211969D01*
X74009932Y-62211969D02*
X73819456Y-62211969D01*
D12*
X101221400Y-71166869D02*
X100971400Y-70809726D01*
X100792829Y-71166869D02*
X100792829Y-70416869D01*
X100792829Y-70416869D02*
X101078543Y-70416869D01*
X101078543Y-70416869D02*
X101149972Y-70452583D01*
X101149972Y-70452583D02*
X101185686Y-70488297D01*
X101185686Y-70488297D02*
X101221400Y-70559726D01*
X101221400Y-70559726D02*
X101221400Y-70666869D01*
X101221400Y-70666869D02*
X101185686Y-70738297D01*
X101185686Y-70738297D02*
X101149972Y-70774012D01*
X101149972Y-70774012D02*
X101078543Y-70809726D01*
X101078543Y-70809726D02*
X100792829Y-70809726D01*
X101828543Y-71131155D02*
X101757115Y-71166869D01*
X101757115Y-71166869D02*
X101614258Y-71166869D01*
X101614258Y-71166869D02*
X101542829Y-71131155D01*
X101542829Y-71131155D02*
X101507115Y-71059726D01*
X101507115Y-71059726D02*
X101507115Y-70774012D01*
X101507115Y-70774012D02*
X101542829Y-70702583D01*
X101542829Y-70702583D02*
X101614258Y-70666869D01*
X101614258Y-70666869D02*
X101757115Y-70666869D01*
X101757115Y-70666869D02*
X101828543Y-70702583D01*
X101828543Y-70702583D02*
X101864258Y-70774012D01*
X101864258Y-70774012D02*
X101864258Y-70845440D01*
X101864258Y-70845440D02*
X101507115Y-70916869D01*
X102507115Y-71166869D02*
X102507115Y-70774012D01*
X102507115Y-70774012D02*
X102471400Y-70702583D01*
X102471400Y-70702583D02*
X102399972Y-70666869D01*
X102399972Y-70666869D02*
X102257115Y-70666869D01*
X102257115Y-70666869D02*
X102185686Y-70702583D01*
X102507115Y-71131155D02*
X102435686Y-71166869D01*
X102435686Y-71166869D02*
X102257115Y-71166869D01*
X102257115Y-71166869D02*
X102185686Y-71131155D01*
X102185686Y-71131155D02*
X102149972Y-71059726D01*
X102149972Y-71059726D02*
X102149972Y-70988297D01*
X102149972Y-70988297D02*
X102185686Y-70916869D01*
X102185686Y-70916869D02*
X102257115Y-70881155D01*
X102257115Y-70881155D02*
X102435686Y-70881155D01*
X102435686Y-70881155D02*
X102507115Y-70845440D01*
X102864257Y-71166869D02*
X102864257Y-70666869D01*
X102864257Y-70809726D02*
X102899971Y-70738297D01*
X102899971Y-70738297D02*
X102935686Y-70702583D01*
X102935686Y-70702583D02*
X103007114Y-70666869D01*
X103007114Y-70666869D02*
X103078543Y-70666869D01*
X103899972Y-71166869D02*
X103899972Y-70416869D01*
X103899972Y-70774012D02*
X104328543Y-70774012D01*
X104328543Y-71166869D02*
X104328543Y-70416869D01*
X105007115Y-71166869D02*
X105007115Y-70774012D01*
X105007115Y-70774012D02*
X104971400Y-70702583D01*
X104971400Y-70702583D02*
X104899972Y-70666869D01*
X104899972Y-70666869D02*
X104757115Y-70666869D01*
X104757115Y-70666869D02*
X104685686Y-70702583D01*
X105007115Y-71131155D02*
X104935686Y-71166869D01*
X104935686Y-71166869D02*
X104757115Y-71166869D01*
X104757115Y-71166869D02*
X104685686Y-71131155D01*
X104685686Y-71131155D02*
X104649972Y-71059726D01*
X104649972Y-71059726D02*
X104649972Y-70988297D01*
X104649972Y-70988297D02*
X104685686Y-70916869D01*
X104685686Y-70916869D02*
X104757115Y-70881155D01*
X104757115Y-70881155D02*
X104935686Y-70881155D01*
X104935686Y-70881155D02*
X105007115Y-70845440D01*
X105364257Y-71166869D02*
X105364257Y-70666869D01*
X105364257Y-70809726D02*
X105399971Y-70738297D01*
X105399971Y-70738297D02*
X105435686Y-70702583D01*
X105435686Y-70702583D02*
X105507114Y-70666869D01*
X105507114Y-70666869D02*
X105578543Y-70666869D01*
X106149972Y-71166869D02*
X106149972Y-70416869D01*
X106149972Y-71131155D02*
X106078543Y-71166869D01*
X106078543Y-71166869D02*
X105935686Y-71166869D01*
X105935686Y-71166869D02*
X105864257Y-71131155D01*
X105864257Y-71131155D02*
X105828543Y-71095440D01*
X105828543Y-71095440D02*
X105792829Y-71024012D01*
X105792829Y-71024012D02*
X105792829Y-70809726D01*
X105792829Y-70809726D02*
X105828543Y-70738297D01*
X105828543Y-70738297D02*
X105864257Y-70702583D01*
X105864257Y-70702583D02*
X105935686Y-70666869D01*
X105935686Y-70666869D02*
X106078543Y-70666869D01*
X106078543Y-70666869D02*
X106149972Y-70702583D01*
X107328543Y-70774012D02*
X107435686Y-70809726D01*
X107435686Y-70809726D02*
X107471400Y-70845440D01*
X107471400Y-70845440D02*
X107507114Y-70916869D01*
X107507114Y-70916869D02*
X107507114Y-71024012D01*
X107507114Y-71024012D02*
X107471400Y-71095440D01*
X107471400Y-71095440D02*
X107435686Y-71131155D01*
X107435686Y-71131155D02*
X107364257Y-71166869D01*
X107364257Y-71166869D02*
X107078543Y-71166869D01*
X107078543Y-71166869D02*
X107078543Y-70416869D01*
X107078543Y-70416869D02*
X107328543Y-70416869D01*
X107328543Y-70416869D02*
X107399972Y-70452583D01*
X107399972Y-70452583D02*
X107435686Y-70488297D01*
X107435686Y-70488297D02*
X107471400Y-70559726D01*
X107471400Y-70559726D02*
X107471400Y-70631155D01*
X107471400Y-70631155D02*
X107435686Y-70702583D01*
X107435686Y-70702583D02*
X107399972Y-70738297D01*
X107399972Y-70738297D02*
X107328543Y-70774012D01*
X107328543Y-70774012D02*
X107078543Y-70774012D01*
X107828543Y-71166869D02*
X107828543Y-70666869D01*
X107828543Y-70809726D02*
X107864257Y-70738297D01*
X107864257Y-70738297D02*
X107899972Y-70702583D01*
X107899972Y-70702583D02*
X107971400Y-70666869D01*
X107971400Y-70666869D02*
X108042829Y-70666869D01*
X108614258Y-71166869D02*
X108614258Y-70774012D01*
X108614258Y-70774012D02*
X108578543Y-70702583D01*
X108578543Y-70702583D02*
X108507115Y-70666869D01*
X108507115Y-70666869D02*
X108364258Y-70666869D01*
X108364258Y-70666869D02*
X108292829Y-70702583D01*
X108614258Y-71131155D02*
X108542829Y-71166869D01*
X108542829Y-71166869D02*
X108364258Y-71166869D01*
X108364258Y-71166869D02*
X108292829Y-71131155D01*
X108292829Y-71131155D02*
X108257115Y-71059726D01*
X108257115Y-71059726D02*
X108257115Y-70988297D01*
X108257115Y-70988297D02*
X108292829Y-70916869D01*
X108292829Y-70916869D02*
X108364258Y-70881155D01*
X108364258Y-70881155D02*
X108542829Y-70881155D01*
X108542829Y-70881155D02*
X108614258Y-70845440D01*
X108971400Y-71166869D02*
X108971400Y-70416869D01*
X109042829Y-70881155D02*
X109257114Y-71166869D01*
X109257114Y-70666869D02*
X108971400Y-70952583D01*
X109578543Y-71166869D02*
X109578543Y-70666869D01*
X109578543Y-70416869D02*
X109542829Y-70452583D01*
X109542829Y-70452583D02*
X109578543Y-70488297D01*
X109578543Y-70488297D02*
X109614257Y-70452583D01*
X109614257Y-70452583D02*
X109578543Y-70416869D01*
X109578543Y-70416869D02*
X109578543Y-70488297D01*
X109935686Y-70666869D02*
X109935686Y-71166869D01*
X109935686Y-70738297D02*
X109971400Y-70702583D01*
X109971400Y-70702583D02*
X110042829Y-70666869D01*
X110042829Y-70666869D02*
X110149972Y-70666869D01*
X110149972Y-70666869D02*
X110221400Y-70702583D01*
X110221400Y-70702583D02*
X110257115Y-70774012D01*
X110257115Y-70774012D02*
X110257115Y-71166869D01*
X110935686Y-70666869D02*
X110935686Y-71274012D01*
X110935686Y-71274012D02*
X110899971Y-71345440D01*
X110899971Y-71345440D02*
X110864257Y-71381155D01*
X110864257Y-71381155D02*
X110792828Y-71416869D01*
X110792828Y-71416869D02*
X110685686Y-71416869D01*
X110685686Y-71416869D02*
X110614257Y-71381155D01*
X110935686Y-71131155D02*
X110864257Y-71166869D01*
X110864257Y-71166869D02*
X110721400Y-71166869D01*
X110721400Y-71166869D02*
X110649971Y-71131155D01*
X110649971Y-71131155D02*
X110614257Y-71095440D01*
X110614257Y-71095440D02*
X110578543Y-71024012D01*
X110578543Y-71024012D02*
X110578543Y-70809726D01*
X110578543Y-70809726D02*
X110614257Y-70738297D01*
X110614257Y-70738297D02*
X110649971Y-70702583D01*
X110649971Y-70702583D02*
X110721400Y-70666869D01*
X110721400Y-70666869D02*
X110864257Y-70666869D01*
X110864257Y-70666869D02*
X110935686Y-70702583D01*
X100542829Y-62274012D02*
X100649972Y-62309726D01*
X100649972Y-62309726D02*
X100685686Y-62345440D01*
X100685686Y-62345440D02*
X100721400Y-62416869D01*
X100721400Y-62416869D02*
X100721400Y-62524012D01*
X100721400Y-62524012D02*
X100685686Y-62595440D01*
X100685686Y-62595440D02*
X100649972Y-62631155D01*
X100649972Y-62631155D02*
X100578543Y-62666869D01*
X100578543Y-62666869D02*
X100292829Y-62666869D01*
X100292829Y-62666869D02*
X100292829Y-61916869D01*
X100292829Y-61916869D02*
X100542829Y-61916869D01*
X100542829Y-61916869D02*
X100614258Y-61952583D01*
X100614258Y-61952583D02*
X100649972Y-61988297D01*
X100649972Y-61988297D02*
X100685686Y-62059726D01*
X100685686Y-62059726D02*
X100685686Y-62131155D01*
X100685686Y-62131155D02*
X100649972Y-62202583D01*
X100649972Y-62202583D02*
X100614258Y-62238297D01*
X100614258Y-62238297D02*
X100542829Y-62274012D01*
X100542829Y-62274012D02*
X100292829Y-62274012D01*
X101007115Y-62631155D02*
X101114258Y-62666869D01*
X101114258Y-62666869D02*
X101292829Y-62666869D01*
X101292829Y-62666869D02*
X101364258Y-62631155D01*
X101364258Y-62631155D02*
X101399972Y-62595440D01*
X101399972Y-62595440D02*
X101435686Y-62524012D01*
X101435686Y-62524012D02*
X101435686Y-62452583D01*
X101435686Y-62452583D02*
X101399972Y-62381155D01*
X101399972Y-62381155D02*
X101364258Y-62345440D01*
X101364258Y-62345440D02*
X101292829Y-62309726D01*
X101292829Y-62309726D02*
X101149972Y-62274012D01*
X101149972Y-62274012D02*
X101078543Y-62238297D01*
X101078543Y-62238297D02*
X101042829Y-62202583D01*
X101042829Y-62202583D02*
X101007115Y-62131155D01*
X101007115Y-62131155D02*
X101007115Y-62059726D01*
X101007115Y-62059726D02*
X101042829Y-61988297D01*
X101042829Y-61988297D02*
X101078543Y-61952583D01*
X101078543Y-61952583D02*
X101149972Y-61916869D01*
X101149972Y-61916869D02*
X101328543Y-61916869D01*
X101328543Y-61916869D02*
X101435686Y-61952583D01*
X101757115Y-62666869D02*
X101757115Y-61916869D01*
X101757115Y-61916869D02*
X102042829Y-61916869D01*
X102042829Y-61916869D02*
X102114258Y-61952583D01*
X102114258Y-61952583D02*
X102149972Y-61988297D01*
X102149972Y-61988297D02*
X102185686Y-62059726D01*
X102185686Y-62059726D02*
X102185686Y-62166869D01*
X102185686Y-62166869D02*
X102149972Y-62238297D01*
X102149972Y-62238297D02*
X102114258Y-62274012D01*
X102114258Y-62274012D02*
X102042829Y-62309726D01*
X102042829Y-62309726D02*
X101757115Y-62309726D01*
X102507115Y-62666869D02*
X102507115Y-61916869D01*
X102507115Y-61916869D02*
X102685686Y-61916869D01*
X102685686Y-61916869D02*
X102792829Y-61952583D01*
X102792829Y-61952583D02*
X102864258Y-62024012D01*
X102864258Y-62024012D02*
X102899972Y-62095440D01*
X102899972Y-62095440D02*
X102935686Y-62238297D01*
X102935686Y-62238297D02*
X102935686Y-62345440D01*
X102935686Y-62345440D02*
X102899972Y-62488297D01*
X102899972Y-62488297D02*
X102864258Y-62559726D01*
X102864258Y-62559726D02*
X102792829Y-62631155D01*
X102792829Y-62631155D02*
X102685686Y-62666869D01*
X102685686Y-62666869D02*
X102507115Y-62666869D01*
X104078544Y-62274012D02*
X103828544Y-62274012D01*
X103828544Y-62666869D02*
X103828544Y-61916869D01*
X103828544Y-61916869D02*
X104185687Y-61916869D01*
X104792830Y-62666869D02*
X104792830Y-62274012D01*
X104792830Y-62274012D02*
X104757115Y-62202583D01*
X104757115Y-62202583D02*
X104685687Y-62166869D01*
X104685687Y-62166869D02*
X104542830Y-62166869D01*
X104542830Y-62166869D02*
X104471401Y-62202583D01*
X104792830Y-62631155D02*
X104721401Y-62666869D01*
X104721401Y-62666869D02*
X104542830Y-62666869D01*
X104542830Y-62666869D02*
X104471401Y-62631155D01*
X104471401Y-62631155D02*
X104435687Y-62559726D01*
X104435687Y-62559726D02*
X104435687Y-62488297D01*
X104435687Y-62488297D02*
X104471401Y-62416869D01*
X104471401Y-62416869D02*
X104542830Y-62381155D01*
X104542830Y-62381155D02*
X104721401Y-62381155D01*
X104721401Y-62381155D02*
X104792830Y-62345440D01*
X105471401Y-62166869D02*
X105471401Y-62666869D01*
X105149972Y-62166869D02*
X105149972Y-62559726D01*
X105149972Y-62559726D02*
X105185686Y-62631155D01*
X105185686Y-62631155D02*
X105257115Y-62666869D01*
X105257115Y-62666869D02*
X105364258Y-62666869D01*
X105364258Y-62666869D02*
X105435686Y-62631155D01*
X105435686Y-62631155D02*
X105471401Y-62595440D01*
X105935686Y-62666869D02*
X105864257Y-62631155D01*
X105864257Y-62631155D02*
X105828543Y-62559726D01*
X105828543Y-62559726D02*
X105828543Y-61916869D01*
X106114257Y-62166869D02*
X106399971Y-62166869D01*
X106221400Y-61916869D02*
X106221400Y-62559726D01*
X106221400Y-62559726D02*
X106257114Y-62631155D01*
X106257114Y-62631155D02*
X106328543Y-62666869D01*
X106328543Y-62666869D02*
X106399971Y-62666869D01*
X107221400Y-62666869D02*
X107221400Y-61916869D01*
X107221400Y-62274012D02*
X107649971Y-62274012D01*
X107649971Y-62666869D02*
X107649971Y-61916869D01*
X108007114Y-62666869D02*
X108007114Y-62166869D01*
X108007114Y-61916869D02*
X107971400Y-61952583D01*
X107971400Y-61952583D02*
X108007114Y-61988297D01*
X108007114Y-61988297D02*
X108042828Y-61952583D01*
X108042828Y-61952583D02*
X108007114Y-61916869D01*
X108007114Y-61916869D02*
X108007114Y-61988297D01*
X108685686Y-62166869D02*
X108685686Y-62774012D01*
X108685686Y-62774012D02*
X108649971Y-62845440D01*
X108649971Y-62845440D02*
X108614257Y-62881155D01*
X108614257Y-62881155D02*
X108542828Y-62916869D01*
X108542828Y-62916869D02*
X108435686Y-62916869D01*
X108435686Y-62916869D02*
X108364257Y-62881155D01*
X108685686Y-62631155D02*
X108614257Y-62666869D01*
X108614257Y-62666869D02*
X108471400Y-62666869D01*
X108471400Y-62666869D02*
X108399971Y-62631155D01*
X108399971Y-62631155D02*
X108364257Y-62595440D01*
X108364257Y-62595440D02*
X108328543Y-62524012D01*
X108328543Y-62524012D02*
X108328543Y-62309726D01*
X108328543Y-62309726D02*
X108364257Y-62238297D01*
X108364257Y-62238297D02*
X108399971Y-62202583D01*
X108399971Y-62202583D02*
X108471400Y-62166869D01*
X108471400Y-62166869D02*
X108614257Y-62166869D01*
X108614257Y-62166869D02*
X108685686Y-62202583D01*
X109042828Y-62666869D02*
X109042828Y-61916869D01*
X109364257Y-62666869D02*
X109364257Y-62274012D01*
X109364257Y-62274012D02*
X109328542Y-62202583D01*
X109328542Y-62202583D02*
X109257114Y-62166869D01*
X109257114Y-62166869D02*
X109149971Y-62166869D01*
X109149971Y-62166869D02*
X109078542Y-62202583D01*
X109078542Y-62202583D02*
X109042828Y-62238297D01*
D11*
X104617077Y-44938159D02*
X104450410Y-44938159D01*
X104450410Y-45200064D02*
X104450410Y-44700064D01*
X104450410Y-44700064D02*
X104688505Y-44700064D01*
X104878981Y-45152445D02*
X104902791Y-45176255D01*
X104902791Y-45176255D02*
X104878981Y-45200064D01*
X104878981Y-45200064D02*
X104855172Y-45176255D01*
X104855172Y-45176255D02*
X104878981Y-45152445D01*
X104878981Y-45152445D02*
X104878981Y-45200064D01*
X105283743Y-44938159D02*
X105355171Y-44961969D01*
X105355171Y-44961969D02*
X105378981Y-44985778D01*
X105378981Y-44985778D02*
X105402790Y-45033397D01*
X105402790Y-45033397D02*
X105402790Y-45104826D01*
X105402790Y-45104826D02*
X105378981Y-45152445D01*
X105378981Y-45152445D02*
X105355171Y-45176255D01*
X105355171Y-45176255D02*
X105307552Y-45200064D01*
X105307552Y-45200064D02*
X105117076Y-45200064D01*
X105117076Y-45200064D02*
X105117076Y-44700064D01*
X105117076Y-44700064D02*
X105283743Y-44700064D01*
X105283743Y-44700064D02*
X105331362Y-44723874D01*
X105331362Y-44723874D02*
X105355171Y-44747683D01*
X105355171Y-44747683D02*
X105378981Y-44795302D01*
X105378981Y-44795302D02*
X105378981Y-44842921D01*
X105378981Y-44842921D02*
X105355171Y-44890540D01*
X105355171Y-44890540D02*
X105331362Y-44914350D01*
X105331362Y-44914350D02*
X105283743Y-44938159D01*
X105283743Y-44938159D02*
X105117076Y-44938159D01*
X105617076Y-45152445D02*
X105640886Y-45176255D01*
X105640886Y-45176255D02*
X105617076Y-45200064D01*
X105617076Y-45200064D02*
X105593267Y-45176255D01*
X105593267Y-45176255D02*
X105617076Y-45152445D01*
X105617076Y-45152445D02*
X105617076Y-45200064D01*
X105783743Y-44700064D02*
X106069457Y-44700064D01*
X105926600Y-45200064D02*
X105926600Y-44700064D01*
X106617075Y-45009588D02*
X106998028Y-45009588D01*
X107545647Y-44700064D02*
X107831361Y-44700064D01*
X107688504Y-45200064D02*
X107688504Y-44700064D01*
X107998027Y-45200064D02*
X107998027Y-44700064D01*
X107998027Y-44700064D02*
X108188503Y-44700064D01*
X108188503Y-44700064D02*
X108236122Y-44723874D01*
X108236122Y-44723874D02*
X108259932Y-44747683D01*
X108259932Y-44747683D02*
X108283741Y-44795302D01*
X108283741Y-44795302D02*
X108283741Y-44866731D01*
X108283741Y-44866731D02*
X108259932Y-44914350D01*
X108259932Y-44914350D02*
X108236122Y-44938159D01*
X108236122Y-44938159D02*
X108188503Y-44961969D01*
X108188503Y-44961969D02*
X107998027Y-44961969D01*
D12*
X48899972Y-34916869D02*
X48542829Y-34916869D01*
X48542829Y-34916869D02*
X48507115Y-35274012D01*
X48507115Y-35274012D02*
X48542829Y-35238297D01*
X48542829Y-35238297D02*
X48614258Y-35202583D01*
X48614258Y-35202583D02*
X48792829Y-35202583D01*
X48792829Y-35202583D02*
X48864258Y-35238297D01*
X48864258Y-35238297D02*
X48899972Y-35274012D01*
X48899972Y-35274012D02*
X48935686Y-35345440D01*
X48935686Y-35345440D02*
X48935686Y-35524012D01*
X48935686Y-35524012D02*
X48899972Y-35595440D01*
X48899972Y-35595440D02*
X48864258Y-35631155D01*
X48864258Y-35631155D02*
X48792829Y-35666869D01*
X48792829Y-35666869D02*
X48614258Y-35666869D01*
X48614258Y-35666869D02*
X48542829Y-35631155D01*
X48542829Y-35631155D02*
X48507115Y-35595440D01*
X49149972Y-34916869D02*
X49399972Y-35666869D01*
X49399972Y-35666869D02*
X49649972Y-34916869D01*
D11*
X59736124Y-56700064D02*
X59569458Y-56461969D01*
X59450410Y-56700064D02*
X59450410Y-56200064D01*
X59450410Y-56200064D02*
X59640886Y-56200064D01*
X59640886Y-56200064D02*
X59688505Y-56223874D01*
X59688505Y-56223874D02*
X59712315Y-56247683D01*
X59712315Y-56247683D02*
X59736124Y-56295302D01*
X59736124Y-56295302D02*
X59736124Y-56366731D01*
X59736124Y-56366731D02*
X59712315Y-56414350D01*
X59712315Y-56414350D02*
X59688505Y-56438159D01*
X59688505Y-56438159D02*
X59640886Y-56461969D01*
X59640886Y-56461969D02*
X59450410Y-56461969D01*
X60140886Y-56676255D02*
X60093267Y-56700064D01*
X60093267Y-56700064D02*
X59998029Y-56700064D01*
X59998029Y-56700064D02*
X59950410Y-56676255D01*
X59950410Y-56676255D02*
X59926601Y-56628635D01*
X59926601Y-56628635D02*
X59926601Y-56438159D01*
X59926601Y-56438159D02*
X59950410Y-56390540D01*
X59950410Y-56390540D02*
X59998029Y-56366731D01*
X59998029Y-56366731D02*
X60093267Y-56366731D01*
X60093267Y-56366731D02*
X60140886Y-56390540D01*
X60140886Y-56390540D02*
X60164696Y-56438159D01*
X60164696Y-56438159D02*
X60164696Y-56485778D01*
X60164696Y-56485778D02*
X59926601Y-56533397D01*
X60593267Y-56700064D02*
X60593267Y-56438159D01*
X60593267Y-56438159D02*
X60569457Y-56390540D01*
X60569457Y-56390540D02*
X60521838Y-56366731D01*
X60521838Y-56366731D02*
X60426600Y-56366731D01*
X60426600Y-56366731D02*
X60378981Y-56390540D01*
X60593267Y-56676255D02*
X60545648Y-56700064D01*
X60545648Y-56700064D02*
X60426600Y-56700064D01*
X60426600Y-56700064D02*
X60378981Y-56676255D01*
X60378981Y-56676255D02*
X60355172Y-56628635D01*
X60355172Y-56628635D02*
X60355172Y-56581016D01*
X60355172Y-56581016D02*
X60378981Y-56533397D01*
X60378981Y-56533397D02*
X60426600Y-56509588D01*
X60426600Y-56509588D02*
X60545648Y-56509588D01*
X60545648Y-56509588D02*
X60593267Y-56485778D01*
X60831362Y-56700064D02*
X60831362Y-56366731D01*
X60831362Y-56461969D02*
X60855172Y-56414350D01*
X60855172Y-56414350D02*
X60878981Y-56390540D01*
X60878981Y-56390540D02*
X60926600Y-56366731D01*
X60926600Y-56366731D02*
X60974219Y-56366731D01*
X61688505Y-56438159D02*
X61759933Y-56461969D01*
X61759933Y-56461969D02*
X61783743Y-56485778D01*
X61783743Y-56485778D02*
X61807552Y-56533397D01*
X61807552Y-56533397D02*
X61807552Y-56604826D01*
X61807552Y-56604826D02*
X61783743Y-56652445D01*
X61783743Y-56652445D02*
X61759933Y-56676255D01*
X61759933Y-56676255D02*
X61712314Y-56700064D01*
X61712314Y-56700064D02*
X61521838Y-56700064D01*
X61521838Y-56700064D02*
X61521838Y-56200064D01*
X61521838Y-56200064D02*
X61688505Y-56200064D01*
X61688505Y-56200064D02*
X61736124Y-56223874D01*
X61736124Y-56223874D02*
X61759933Y-56247683D01*
X61759933Y-56247683D02*
X61783743Y-56295302D01*
X61783743Y-56295302D02*
X61783743Y-56342921D01*
X61783743Y-56342921D02*
X61759933Y-56390540D01*
X61759933Y-56390540D02*
X61736124Y-56414350D01*
X61736124Y-56414350D02*
X61688505Y-56438159D01*
X61688505Y-56438159D02*
X61521838Y-56438159D01*
X62021838Y-56700064D02*
X62021838Y-56366731D01*
X62021838Y-56461969D02*
X62045648Y-56414350D01*
X62045648Y-56414350D02*
X62069457Y-56390540D01*
X62069457Y-56390540D02*
X62117076Y-56366731D01*
X62117076Y-56366731D02*
X62164695Y-56366731D01*
X62545648Y-56700064D02*
X62545648Y-56438159D01*
X62545648Y-56438159D02*
X62521838Y-56390540D01*
X62521838Y-56390540D02*
X62474219Y-56366731D01*
X62474219Y-56366731D02*
X62378981Y-56366731D01*
X62378981Y-56366731D02*
X62331362Y-56390540D01*
X62545648Y-56676255D02*
X62498029Y-56700064D01*
X62498029Y-56700064D02*
X62378981Y-56700064D01*
X62378981Y-56700064D02*
X62331362Y-56676255D01*
X62331362Y-56676255D02*
X62307553Y-56628635D01*
X62307553Y-56628635D02*
X62307553Y-56581016D01*
X62307553Y-56581016D02*
X62331362Y-56533397D01*
X62331362Y-56533397D02*
X62378981Y-56509588D01*
X62378981Y-56509588D02*
X62498029Y-56509588D01*
X62498029Y-56509588D02*
X62545648Y-56485778D01*
X62783743Y-56700064D02*
X62783743Y-56200064D01*
X62831362Y-56509588D02*
X62974219Y-56700064D01*
X62974219Y-56366731D02*
X62783743Y-56557207D01*
X63188505Y-56700064D02*
X63188505Y-56366731D01*
X63188505Y-56200064D02*
X63164696Y-56223874D01*
X63164696Y-56223874D02*
X63188505Y-56247683D01*
X63188505Y-56247683D02*
X63212315Y-56223874D01*
X63212315Y-56223874D02*
X63188505Y-56200064D01*
X63188505Y-56200064D02*
X63188505Y-56247683D01*
X63426600Y-56366731D02*
X63426600Y-56700064D01*
X63426600Y-56414350D02*
X63450410Y-56390540D01*
X63450410Y-56390540D02*
X63498029Y-56366731D01*
X63498029Y-56366731D02*
X63569457Y-56366731D01*
X63569457Y-56366731D02*
X63617076Y-56390540D01*
X63617076Y-56390540D02*
X63640886Y-56438159D01*
X63640886Y-56438159D02*
X63640886Y-56700064D01*
X64093267Y-56366731D02*
X64093267Y-56771493D01*
X64093267Y-56771493D02*
X64069457Y-56819112D01*
X64069457Y-56819112D02*
X64045648Y-56842921D01*
X64045648Y-56842921D02*
X63998029Y-56866731D01*
X63998029Y-56866731D02*
X63926600Y-56866731D01*
X63926600Y-56866731D02*
X63878981Y-56842921D01*
X64093267Y-56676255D02*
X64045648Y-56700064D01*
X64045648Y-56700064D02*
X63950410Y-56700064D01*
X63950410Y-56700064D02*
X63902791Y-56676255D01*
X63902791Y-56676255D02*
X63878981Y-56652445D01*
X63878981Y-56652445D02*
X63855172Y-56604826D01*
X63855172Y-56604826D02*
X63855172Y-56461969D01*
X63855172Y-56461969D02*
X63878981Y-56414350D01*
X63878981Y-56414350D02*
X63902791Y-56390540D01*
X63902791Y-56390540D02*
X63950410Y-56366731D01*
X63950410Y-56366731D02*
X64045648Y-56366731D01*
X64045648Y-56366731D02*
X64093267Y-56390540D01*
X64640886Y-56200064D02*
X64926600Y-56200064D01*
X64783743Y-56700064D02*
X64783743Y-56200064D01*
X65093266Y-56700064D02*
X65093266Y-56200064D01*
X65307552Y-56700064D02*
X65307552Y-56438159D01*
X65307552Y-56438159D02*
X65283742Y-56390540D01*
X65283742Y-56390540D02*
X65236123Y-56366731D01*
X65236123Y-56366731D02*
X65164695Y-56366731D01*
X65164695Y-56366731D02*
X65117076Y-56390540D01*
X65117076Y-56390540D02*
X65093266Y-56414350D01*
X65545647Y-56700064D02*
X65545647Y-56366731D01*
X65545647Y-56461969D02*
X65569457Y-56414350D01*
X65569457Y-56414350D02*
X65593266Y-56390540D01*
X65593266Y-56390540D02*
X65640885Y-56366731D01*
X65640885Y-56366731D02*
X65688504Y-56366731D01*
X66045647Y-56676255D02*
X65998028Y-56700064D01*
X65998028Y-56700064D02*
X65902790Y-56700064D01*
X65902790Y-56700064D02*
X65855171Y-56676255D01*
X65855171Y-56676255D02*
X65831362Y-56628635D01*
X65831362Y-56628635D02*
X65831362Y-56438159D01*
X65831362Y-56438159D02*
X65855171Y-56390540D01*
X65855171Y-56390540D02*
X65902790Y-56366731D01*
X65902790Y-56366731D02*
X65998028Y-56366731D01*
X65998028Y-56366731D02*
X66045647Y-56390540D01*
X66045647Y-56390540D02*
X66069457Y-56438159D01*
X66069457Y-56438159D02*
X66069457Y-56485778D01*
X66069457Y-56485778D02*
X65831362Y-56533397D01*
X66259933Y-56676255D02*
X66307552Y-56700064D01*
X66307552Y-56700064D02*
X66402790Y-56700064D01*
X66402790Y-56700064D02*
X66450409Y-56676255D01*
X66450409Y-56676255D02*
X66474218Y-56628635D01*
X66474218Y-56628635D02*
X66474218Y-56604826D01*
X66474218Y-56604826D02*
X66450409Y-56557207D01*
X66450409Y-56557207D02*
X66402790Y-56533397D01*
X66402790Y-56533397D02*
X66331361Y-56533397D01*
X66331361Y-56533397D02*
X66283742Y-56509588D01*
X66283742Y-56509588D02*
X66259933Y-56461969D01*
X66259933Y-56461969D02*
X66259933Y-56438159D01*
X66259933Y-56438159D02*
X66283742Y-56390540D01*
X66283742Y-56390540D02*
X66331361Y-56366731D01*
X66331361Y-56366731D02*
X66402790Y-56366731D01*
X66402790Y-56366731D02*
X66450409Y-56390540D01*
X66688504Y-56700064D02*
X66688504Y-56200064D01*
X66902790Y-56700064D02*
X66902790Y-56438159D01*
X66902790Y-56438159D02*
X66878980Y-56390540D01*
X66878980Y-56390540D02*
X66831361Y-56366731D01*
X66831361Y-56366731D02*
X66759933Y-56366731D01*
X66759933Y-56366731D02*
X66712314Y-56390540D01*
X66712314Y-56390540D02*
X66688504Y-56414350D01*
X67212314Y-56700064D02*
X67164695Y-56676255D01*
X67164695Y-56676255D02*
X67140885Y-56652445D01*
X67140885Y-56652445D02*
X67117076Y-56604826D01*
X67117076Y-56604826D02*
X67117076Y-56461969D01*
X67117076Y-56461969D02*
X67140885Y-56414350D01*
X67140885Y-56414350D02*
X67164695Y-56390540D01*
X67164695Y-56390540D02*
X67212314Y-56366731D01*
X67212314Y-56366731D02*
X67283742Y-56366731D01*
X67283742Y-56366731D02*
X67331361Y-56390540D01*
X67331361Y-56390540D02*
X67355171Y-56414350D01*
X67355171Y-56414350D02*
X67378980Y-56461969D01*
X67378980Y-56461969D02*
X67378980Y-56604826D01*
X67378980Y-56604826D02*
X67355171Y-56652445D01*
X67355171Y-56652445D02*
X67331361Y-56676255D01*
X67331361Y-56676255D02*
X67283742Y-56700064D01*
X67283742Y-56700064D02*
X67212314Y-56700064D01*
X67664695Y-56700064D02*
X67617076Y-56676255D01*
X67617076Y-56676255D02*
X67593266Y-56628635D01*
X67593266Y-56628635D02*
X67593266Y-56200064D01*
X68069457Y-56700064D02*
X68069457Y-56200064D01*
X68069457Y-56676255D02*
X68021838Y-56700064D01*
X68021838Y-56700064D02*
X67926600Y-56700064D01*
X67926600Y-56700064D02*
X67878981Y-56676255D01*
X67878981Y-56676255D02*
X67855171Y-56652445D01*
X67855171Y-56652445D02*
X67831362Y-56604826D01*
X67831362Y-56604826D02*
X67831362Y-56461969D01*
X67831362Y-56461969D02*
X67855171Y-56414350D01*
X67855171Y-56414350D02*
X67878981Y-56390540D01*
X67878981Y-56390540D02*
X67926600Y-56366731D01*
X67926600Y-56366731D02*
X68021838Y-56366731D01*
X68021838Y-56366731D02*
X68069457Y-56390540D01*
D12*
X100542829Y-66416869D02*
X100542829Y-65666869D01*
X100542829Y-66024012D02*
X100971400Y-66024012D01*
X100971400Y-66416869D02*
X100971400Y-65666869D01*
X101328543Y-66416869D02*
X101328543Y-65916869D01*
X101328543Y-65666869D02*
X101292829Y-65702583D01*
X101292829Y-65702583D02*
X101328543Y-65738297D01*
X101328543Y-65738297D02*
X101364257Y-65702583D01*
X101364257Y-65702583D02*
X101328543Y-65666869D01*
X101328543Y-65666869D02*
X101328543Y-65738297D01*
X102007115Y-65916869D02*
X102007115Y-66524012D01*
X102007115Y-66524012D02*
X101971400Y-66595440D01*
X101971400Y-66595440D02*
X101935686Y-66631155D01*
X101935686Y-66631155D02*
X101864257Y-66666869D01*
X101864257Y-66666869D02*
X101757115Y-66666869D01*
X101757115Y-66666869D02*
X101685686Y-66631155D01*
X102007115Y-66381155D02*
X101935686Y-66416869D01*
X101935686Y-66416869D02*
X101792829Y-66416869D01*
X101792829Y-66416869D02*
X101721400Y-66381155D01*
X101721400Y-66381155D02*
X101685686Y-66345440D01*
X101685686Y-66345440D02*
X101649972Y-66274012D01*
X101649972Y-66274012D02*
X101649972Y-66059726D01*
X101649972Y-66059726D02*
X101685686Y-65988297D01*
X101685686Y-65988297D02*
X101721400Y-65952583D01*
X101721400Y-65952583D02*
X101792829Y-65916869D01*
X101792829Y-65916869D02*
X101935686Y-65916869D01*
X101935686Y-65916869D02*
X102007115Y-65952583D01*
X102364257Y-66416869D02*
X102364257Y-65666869D01*
X102685686Y-66416869D02*
X102685686Y-66024012D01*
X102685686Y-66024012D02*
X102649971Y-65952583D01*
X102649971Y-65952583D02*
X102578543Y-65916869D01*
X102578543Y-65916869D02*
X102471400Y-65916869D01*
X102471400Y-65916869D02*
X102399971Y-65952583D01*
X102399971Y-65952583D02*
X102364257Y-65988297D01*
X104042828Y-66345440D02*
X104007114Y-66381155D01*
X104007114Y-66381155D02*
X103899971Y-66416869D01*
X103899971Y-66416869D02*
X103828543Y-66416869D01*
X103828543Y-66416869D02*
X103721400Y-66381155D01*
X103721400Y-66381155D02*
X103649971Y-66309726D01*
X103649971Y-66309726D02*
X103614257Y-66238297D01*
X103614257Y-66238297D02*
X103578543Y-66095440D01*
X103578543Y-66095440D02*
X103578543Y-65988297D01*
X103578543Y-65988297D02*
X103614257Y-65845440D01*
X103614257Y-65845440D02*
X103649971Y-65774012D01*
X103649971Y-65774012D02*
X103721400Y-65702583D01*
X103721400Y-65702583D02*
X103828543Y-65666869D01*
X103828543Y-65666869D02*
X103899971Y-65666869D01*
X103899971Y-65666869D02*
X104007114Y-65702583D01*
X104007114Y-65702583D02*
X104042828Y-65738297D01*
X104685686Y-65916869D02*
X104685686Y-66416869D01*
X104364257Y-65916869D02*
X104364257Y-66309726D01*
X104364257Y-66309726D02*
X104399971Y-66381155D01*
X104399971Y-66381155D02*
X104471400Y-66416869D01*
X104471400Y-66416869D02*
X104578543Y-66416869D01*
X104578543Y-66416869D02*
X104649971Y-66381155D01*
X104649971Y-66381155D02*
X104685686Y-66345440D01*
X105042828Y-66416869D02*
X105042828Y-65916869D01*
X105042828Y-66059726D02*
X105078542Y-65988297D01*
X105078542Y-65988297D02*
X105114257Y-65952583D01*
X105114257Y-65952583D02*
X105185685Y-65916869D01*
X105185685Y-65916869D02*
X105257114Y-65916869D01*
X105507114Y-66416869D02*
X105507114Y-65916869D01*
X105507114Y-66059726D02*
X105542828Y-65988297D01*
X105542828Y-65988297D02*
X105578543Y-65952583D01*
X105578543Y-65952583D02*
X105649971Y-65916869D01*
X105649971Y-65916869D02*
X105721400Y-65916869D01*
X106257114Y-66381155D02*
X106185686Y-66416869D01*
X106185686Y-66416869D02*
X106042829Y-66416869D01*
X106042829Y-66416869D02*
X105971400Y-66381155D01*
X105971400Y-66381155D02*
X105935686Y-66309726D01*
X105935686Y-66309726D02*
X105935686Y-66024012D01*
X105935686Y-66024012D02*
X105971400Y-65952583D01*
X105971400Y-65952583D02*
X106042829Y-65916869D01*
X106042829Y-65916869D02*
X106185686Y-65916869D01*
X106185686Y-65916869D02*
X106257114Y-65952583D01*
X106257114Y-65952583D02*
X106292829Y-66024012D01*
X106292829Y-66024012D02*
X106292829Y-66095440D01*
X106292829Y-66095440D02*
X105935686Y-66166869D01*
X106614257Y-65916869D02*
X106614257Y-66416869D01*
X106614257Y-65988297D02*
X106649971Y-65952583D01*
X106649971Y-65952583D02*
X106721400Y-65916869D01*
X106721400Y-65916869D02*
X106828543Y-65916869D01*
X106828543Y-65916869D02*
X106899971Y-65952583D01*
X106899971Y-65952583D02*
X106935686Y-66024012D01*
X106935686Y-66024012D02*
X106935686Y-66416869D01*
X107185685Y-65916869D02*
X107471399Y-65916869D01*
X107292828Y-65666869D02*
X107292828Y-66309726D01*
X107292828Y-66309726D02*
X107328542Y-66381155D01*
X107328542Y-66381155D02*
X107399971Y-66416869D01*
X107399971Y-66416869D02*
X107471399Y-66416869D01*
D11*
X102617077Y-26938159D02*
X102450410Y-26938159D01*
X102450410Y-27200064D02*
X102450410Y-26700064D01*
X102450410Y-26700064D02*
X102688505Y-26700064D01*
X102878981Y-27200064D02*
X102878981Y-26866731D01*
X102878981Y-26961969D02*
X102902791Y-26914350D01*
X102902791Y-26914350D02*
X102926600Y-26890540D01*
X102926600Y-26890540D02*
X102974219Y-26866731D01*
X102974219Y-26866731D02*
X103021838Y-26866731D01*
X103259934Y-27200064D02*
X103212315Y-27176255D01*
X103212315Y-27176255D02*
X103188505Y-27152445D01*
X103188505Y-27152445D02*
X103164696Y-27104826D01*
X103164696Y-27104826D02*
X103164696Y-26961969D01*
X103164696Y-26961969D02*
X103188505Y-26914350D01*
X103188505Y-26914350D02*
X103212315Y-26890540D01*
X103212315Y-26890540D02*
X103259934Y-26866731D01*
X103259934Y-26866731D02*
X103331362Y-26866731D01*
X103331362Y-26866731D02*
X103378981Y-26890540D01*
X103378981Y-26890540D02*
X103402791Y-26914350D01*
X103402791Y-26914350D02*
X103426600Y-26961969D01*
X103426600Y-26961969D02*
X103426600Y-27104826D01*
X103426600Y-27104826D02*
X103402791Y-27152445D01*
X103402791Y-27152445D02*
X103378981Y-27176255D01*
X103378981Y-27176255D02*
X103331362Y-27200064D01*
X103331362Y-27200064D02*
X103259934Y-27200064D01*
X103640886Y-26866731D02*
X103640886Y-27200064D01*
X103640886Y-26914350D02*
X103664696Y-26890540D01*
X103664696Y-26890540D02*
X103712315Y-26866731D01*
X103712315Y-26866731D02*
X103783743Y-26866731D01*
X103783743Y-26866731D02*
X103831362Y-26890540D01*
X103831362Y-26890540D02*
X103855172Y-26938159D01*
X103855172Y-26938159D02*
X103855172Y-27200064D01*
X104021839Y-26866731D02*
X104212315Y-26866731D01*
X104093267Y-26700064D02*
X104093267Y-27128635D01*
X104093267Y-27128635D02*
X104117077Y-27176255D01*
X104117077Y-27176255D02*
X104164696Y-27200064D01*
X104164696Y-27200064D02*
X104212315Y-27200064D01*
X104926600Y-26938159D02*
X104998028Y-26961969D01*
X104998028Y-26961969D02*
X105021838Y-26985778D01*
X105021838Y-26985778D02*
X105045647Y-27033397D01*
X105045647Y-27033397D02*
X105045647Y-27104826D01*
X105045647Y-27104826D02*
X105021838Y-27152445D01*
X105021838Y-27152445D02*
X104998028Y-27176255D01*
X104998028Y-27176255D02*
X104950409Y-27200064D01*
X104950409Y-27200064D02*
X104759933Y-27200064D01*
X104759933Y-27200064D02*
X104759933Y-26700064D01*
X104759933Y-26700064D02*
X104926600Y-26700064D01*
X104926600Y-26700064D02*
X104974219Y-26723874D01*
X104974219Y-26723874D02*
X104998028Y-26747683D01*
X104998028Y-26747683D02*
X105021838Y-26795302D01*
X105021838Y-26795302D02*
X105021838Y-26842921D01*
X105021838Y-26842921D02*
X104998028Y-26890540D01*
X104998028Y-26890540D02*
X104974219Y-26914350D01*
X104974219Y-26914350D02*
X104926600Y-26938159D01*
X104926600Y-26938159D02*
X104759933Y-26938159D01*
X105259933Y-27200064D02*
X105259933Y-26866731D01*
X105259933Y-26961969D02*
X105283743Y-26914350D01*
X105283743Y-26914350D02*
X105307552Y-26890540D01*
X105307552Y-26890540D02*
X105355171Y-26866731D01*
X105355171Y-26866731D02*
X105402790Y-26866731D01*
X105783743Y-27200064D02*
X105783743Y-26938159D01*
X105783743Y-26938159D02*
X105759933Y-26890540D01*
X105759933Y-26890540D02*
X105712314Y-26866731D01*
X105712314Y-26866731D02*
X105617076Y-26866731D01*
X105617076Y-26866731D02*
X105569457Y-26890540D01*
X105783743Y-27176255D02*
X105736124Y-27200064D01*
X105736124Y-27200064D02*
X105617076Y-27200064D01*
X105617076Y-27200064D02*
X105569457Y-27176255D01*
X105569457Y-27176255D02*
X105545648Y-27128635D01*
X105545648Y-27128635D02*
X105545648Y-27081016D01*
X105545648Y-27081016D02*
X105569457Y-27033397D01*
X105569457Y-27033397D02*
X105617076Y-27009588D01*
X105617076Y-27009588D02*
X105736124Y-27009588D01*
X105736124Y-27009588D02*
X105783743Y-26985778D01*
X106021838Y-27200064D02*
X106021838Y-26700064D01*
X106069457Y-27009588D02*
X106212314Y-27200064D01*
X106212314Y-26866731D02*
X106021838Y-27057207D01*
X106426600Y-27200064D02*
X106426600Y-26866731D01*
X106426600Y-26700064D02*
X106402791Y-26723874D01*
X106402791Y-26723874D02*
X106426600Y-26747683D01*
X106426600Y-26747683D02*
X106450410Y-26723874D01*
X106450410Y-26723874D02*
X106426600Y-26700064D01*
X106426600Y-26700064D02*
X106426600Y-26747683D01*
X106664695Y-26866731D02*
X106664695Y-27200064D01*
X106664695Y-26914350D02*
X106688505Y-26890540D01*
X106688505Y-26890540D02*
X106736124Y-26866731D01*
X106736124Y-26866731D02*
X106807552Y-26866731D01*
X106807552Y-26866731D02*
X106855171Y-26890540D01*
X106855171Y-26890540D02*
X106878981Y-26938159D01*
X106878981Y-26938159D02*
X106878981Y-27200064D01*
X107331362Y-26866731D02*
X107331362Y-27271493D01*
X107331362Y-27271493D02*
X107307552Y-27319112D01*
X107307552Y-27319112D02*
X107283743Y-27342921D01*
X107283743Y-27342921D02*
X107236124Y-27366731D01*
X107236124Y-27366731D02*
X107164695Y-27366731D01*
X107164695Y-27366731D02*
X107117076Y-27342921D01*
X107331362Y-27176255D02*
X107283743Y-27200064D01*
X107283743Y-27200064D02*
X107188505Y-27200064D01*
X107188505Y-27200064D02*
X107140886Y-27176255D01*
X107140886Y-27176255D02*
X107117076Y-27152445D01*
X107117076Y-27152445D02*
X107093267Y-27104826D01*
X107093267Y-27104826D02*
X107093267Y-26961969D01*
X107093267Y-26961969D02*
X107117076Y-26914350D01*
X107117076Y-26914350D02*
X107140886Y-26890540D01*
X107140886Y-26890540D02*
X107188505Y-26866731D01*
X107188505Y-26866731D02*
X107283743Y-26866731D01*
X107283743Y-26866731D02*
X107331362Y-26890540D01*
X107878981Y-26700064D02*
X108164695Y-26700064D01*
X108021838Y-27200064D02*
X108021838Y-26700064D01*
X108331361Y-27200064D02*
X108331361Y-26700064D01*
X108545647Y-27200064D02*
X108545647Y-26938159D01*
X108545647Y-26938159D02*
X108521837Y-26890540D01*
X108521837Y-26890540D02*
X108474218Y-26866731D01*
X108474218Y-26866731D02*
X108402790Y-26866731D01*
X108402790Y-26866731D02*
X108355171Y-26890540D01*
X108355171Y-26890540D02*
X108331361Y-26914350D01*
X108783742Y-27200064D02*
X108783742Y-26866731D01*
X108783742Y-26961969D02*
X108807552Y-26914350D01*
X108807552Y-26914350D02*
X108831361Y-26890540D01*
X108831361Y-26890540D02*
X108878980Y-26866731D01*
X108878980Y-26866731D02*
X108926599Y-26866731D01*
X109283742Y-27176255D02*
X109236123Y-27200064D01*
X109236123Y-27200064D02*
X109140885Y-27200064D01*
X109140885Y-27200064D02*
X109093266Y-27176255D01*
X109093266Y-27176255D02*
X109069457Y-27128635D01*
X109069457Y-27128635D02*
X109069457Y-26938159D01*
X109069457Y-26938159D02*
X109093266Y-26890540D01*
X109093266Y-26890540D02*
X109140885Y-26866731D01*
X109140885Y-26866731D02*
X109236123Y-26866731D01*
X109236123Y-26866731D02*
X109283742Y-26890540D01*
X109283742Y-26890540D02*
X109307552Y-26938159D01*
X109307552Y-26938159D02*
X109307552Y-26985778D01*
X109307552Y-26985778D02*
X109069457Y-27033397D01*
X109498028Y-27176255D02*
X109545647Y-27200064D01*
X109545647Y-27200064D02*
X109640885Y-27200064D01*
X109640885Y-27200064D02*
X109688504Y-27176255D01*
X109688504Y-27176255D02*
X109712313Y-27128635D01*
X109712313Y-27128635D02*
X109712313Y-27104826D01*
X109712313Y-27104826D02*
X109688504Y-27057207D01*
X109688504Y-27057207D02*
X109640885Y-27033397D01*
X109640885Y-27033397D02*
X109569456Y-27033397D01*
X109569456Y-27033397D02*
X109521837Y-27009588D01*
X109521837Y-27009588D02*
X109498028Y-26961969D01*
X109498028Y-26961969D02*
X109498028Y-26938159D01*
X109498028Y-26938159D02*
X109521837Y-26890540D01*
X109521837Y-26890540D02*
X109569456Y-26866731D01*
X109569456Y-26866731D02*
X109640885Y-26866731D01*
X109640885Y-26866731D02*
X109688504Y-26890540D01*
X109926599Y-27200064D02*
X109926599Y-26700064D01*
X110140885Y-27200064D02*
X110140885Y-26938159D01*
X110140885Y-26938159D02*
X110117075Y-26890540D01*
X110117075Y-26890540D02*
X110069456Y-26866731D01*
X110069456Y-26866731D02*
X109998028Y-26866731D01*
X109998028Y-26866731D02*
X109950409Y-26890540D01*
X109950409Y-26890540D02*
X109926599Y-26914350D01*
X110450409Y-27200064D02*
X110402790Y-27176255D01*
X110402790Y-27176255D02*
X110378980Y-27152445D01*
X110378980Y-27152445D02*
X110355171Y-27104826D01*
X110355171Y-27104826D02*
X110355171Y-26961969D01*
X110355171Y-26961969D02*
X110378980Y-26914350D01*
X110378980Y-26914350D02*
X110402790Y-26890540D01*
X110402790Y-26890540D02*
X110450409Y-26866731D01*
X110450409Y-26866731D02*
X110521837Y-26866731D01*
X110521837Y-26866731D02*
X110569456Y-26890540D01*
X110569456Y-26890540D02*
X110593266Y-26914350D01*
X110593266Y-26914350D02*
X110617075Y-26961969D01*
X110617075Y-26961969D02*
X110617075Y-27104826D01*
X110617075Y-27104826D02*
X110593266Y-27152445D01*
X110593266Y-27152445D02*
X110569456Y-27176255D01*
X110569456Y-27176255D02*
X110521837Y-27200064D01*
X110521837Y-27200064D02*
X110450409Y-27200064D01*
X110902790Y-27200064D02*
X110855171Y-27176255D01*
X110855171Y-27176255D02*
X110831361Y-27128635D01*
X110831361Y-27128635D02*
X110831361Y-26700064D01*
X111307552Y-27200064D02*
X111307552Y-26700064D01*
X111307552Y-27176255D02*
X111259933Y-27200064D01*
X111259933Y-27200064D02*
X111164695Y-27200064D01*
X111164695Y-27200064D02*
X111117076Y-27176255D01*
X111117076Y-27176255D02*
X111093266Y-27152445D01*
X111093266Y-27152445D02*
X111069457Y-27104826D01*
X111069457Y-27104826D02*
X111069457Y-26961969D01*
X111069457Y-26961969D02*
X111093266Y-26914350D01*
X111093266Y-26914350D02*
X111117076Y-26890540D01*
X111117076Y-26890540D02*
X111164695Y-26866731D01*
X111164695Y-26866731D02*
X111259933Y-26866731D01*
X111259933Y-26866731D02*
X111307552Y-26890540D01*
D12*
X101042829Y-75024012D02*
X100792829Y-75024012D01*
X100792829Y-75416869D02*
X100792829Y-74666869D01*
X100792829Y-74666869D02*
X101149972Y-74666869D01*
X101435686Y-75416869D02*
X101435686Y-74916869D01*
X101435686Y-75059726D02*
X101471400Y-74988297D01*
X101471400Y-74988297D02*
X101507115Y-74952583D01*
X101507115Y-74952583D02*
X101578543Y-74916869D01*
X101578543Y-74916869D02*
X101649972Y-74916869D01*
X102007115Y-75416869D02*
X101935686Y-75381155D01*
X101935686Y-75381155D02*
X101899972Y-75345440D01*
X101899972Y-75345440D02*
X101864258Y-75274012D01*
X101864258Y-75274012D02*
X101864258Y-75059726D01*
X101864258Y-75059726D02*
X101899972Y-74988297D01*
X101899972Y-74988297D02*
X101935686Y-74952583D01*
X101935686Y-74952583D02*
X102007115Y-74916869D01*
X102007115Y-74916869D02*
X102114258Y-74916869D01*
X102114258Y-74916869D02*
X102185686Y-74952583D01*
X102185686Y-74952583D02*
X102221401Y-74988297D01*
X102221401Y-74988297D02*
X102257115Y-75059726D01*
X102257115Y-75059726D02*
X102257115Y-75274012D01*
X102257115Y-75274012D02*
X102221401Y-75345440D01*
X102221401Y-75345440D02*
X102185686Y-75381155D01*
X102185686Y-75381155D02*
X102114258Y-75416869D01*
X102114258Y-75416869D02*
X102007115Y-75416869D01*
X102578543Y-74916869D02*
X102578543Y-75416869D01*
X102578543Y-74988297D02*
X102614257Y-74952583D01*
X102614257Y-74952583D02*
X102685686Y-74916869D01*
X102685686Y-74916869D02*
X102792829Y-74916869D01*
X102792829Y-74916869D02*
X102864257Y-74952583D01*
X102864257Y-74952583D02*
X102899972Y-75024012D01*
X102899972Y-75024012D02*
X102899972Y-75416869D01*
X103149971Y-74916869D02*
X103435685Y-74916869D01*
X103257114Y-74666869D02*
X103257114Y-75309726D01*
X103257114Y-75309726D02*
X103292828Y-75381155D01*
X103292828Y-75381155D02*
X103364257Y-75416869D01*
X103364257Y-75416869D02*
X103435685Y-75416869D01*
X104257114Y-75416869D02*
X104257114Y-74666869D01*
X104257114Y-75024012D02*
X104685685Y-75024012D01*
X104685685Y-75416869D02*
X104685685Y-74666869D01*
X105364257Y-75416869D02*
X105364257Y-75024012D01*
X105364257Y-75024012D02*
X105328542Y-74952583D01*
X105328542Y-74952583D02*
X105257114Y-74916869D01*
X105257114Y-74916869D02*
X105114257Y-74916869D01*
X105114257Y-74916869D02*
X105042828Y-74952583D01*
X105364257Y-75381155D02*
X105292828Y-75416869D01*
X105292828Y-75416869D02*
X105114257Y-75416869D01*
X105114257Y-75416869D02*
X105042828Y-75381155D01*
X105042828Y-75381155D02*
X105007114Y-75309726D01*
X105007114Y-75309726D02*
X105007114Y-75238297D01*
X105007114Y-75238297D02*
X105042828Y-75166869D01*
X105042828Y-75166869D02*
X105114257Y-75131155D01*
X105114257Y-75131155D02*
X105292828Y-75131155D01*
X105292828Y-75131155D02*
X105364257Y-75095440D01*
X105721399Y-75416869D02*
X105721399Y-74916869D01*
X105721399Y-75059726D02*
X105757113Y-74988297D01*
X105757113Y-74988297D02*
X105792828Y-74952583D01*
X105792828Y-74952583D02*
X105864256Y-74916869D01*
X105864256Y-74916869D02*
X105935685Y-74916869D01*
X106507114Y-75416869D02*
X106507114Y-74666869D01*
X106507114Y-75381155D02*
X106435685Y-75416869D01*
X106435685Y-75416869D02*
X106292828Y-75416869D01*
X106292828Y-75416869D02*
X106221399Y-75381155D01*
X106221399Y-75381155D02*
X106185685Y-75345440D01*
X106185685Y-75345440D02*
X106149971Y-75274012D01*
X106149971Y-75274012D02*
X106149971Y-75059726D01*
X106149971Y-75059726D02*
X106185685Y-74988297D01*
X106185685Y-74988297D02*
X106221399Y-74952583D01*
X106221399Y-74952583D02*
X106292828Y-74916869D01*
X106292828Y-74916869D02*
X106435685Y-74916869D01*
X106435685Y-74916869D02*
X106507114Y-74952583D01*
X107685685Y-75024012D02*
X107792828Y-75059726D01*
X107792828Y-75059726D02*
X107828542Y-75095440D01*
X107828542Y-75095440D02*
X107864256Y-75166869D01*
X107864256Y-75166869D02*
X107864256Y-75274012D01*
X107864256Y-75274012D02*
X107828542Y-75345440D01*
X107828542Y-75345440D02*
X107792828Y-75381155D01*
X107792828Y-75381155D02*
X107721399Y-75416869D01*
X107721399Y-75416869D02*
X107435685Y-75416869D01*
X107435685Y-75416869D02*
X107435685Y-74666869D01*
X107435685Y-74666869D02*
X107685685Y-74666869D01*
X107685685Y-74666869D02*
X107757114Y-74702583D01*
X107757114Y-74702583D02*
X107792828Y-74738297D01*
X107792828Y-74738297D02*
X107828542Y-74809726D01*
X107828542Y-74809726D02*
X107828542Y-74881155D01*
X107828542Y-74881155D02*
X107792828Y-74952583D01*
X107792828Y-74952583D02*
X107757114Y-74988297D01*
X107757114Y-74988297D02*
X107685685Y-75024012D01*
X107685685Y-75024012D02*
X107435685Y-75024012D01*
X108185685Y-75416869D02*
X108185685Y-74916869D01*
X108185685Y-75059726D02*
X108221399Y-74988297D01*
X108221399Y-74988297D02*
X108257114Y-74952583D01*
X108257114Y-74952583D02*
X108328542Y-74916869D01*
X108328542Y-74916869D02*
X108399971Y-74916869D01*
X108971400Y-75416869D02*
X108971400Y-75024012D01*
X108971400Y-75024012D02*
X108935685Y-74952583D01*
X108935685Y-74952583D02*
X108864257Y-74916869D01*
X108864257Y-74916869D02*
X108721400Y-74916869D01*
X108721400Y-74916869D02*
X108649971Y-74952583D01*
X108971400Y-75381155D02*
X108899971Y-75416869D01*
X108899971Y-75416869D02*
X108721400Y-75416869D01*
X108721400Y-75416869D02*
X108649971Y-75381155D01*
X108649971Y-75381155D02*
X108614257Y-75309726D01*
X108614257Y-75309726D02*
X108614257Y-75238297D01*
X108614257Y-75238297D02*
X108649971Y-75166869D01*
X108649971Y-75166869D02*
X108721400Y-75131155D01*
X108721400Y-75131155D02*
X108899971Y-75131155D01*
X108899971Y-75131155D02*
X108971400Y-75095440D01*
X109328542Y-75416869D02*
X109328542Y-74666869D01*
X109399971Y-75131155D02*
X109614256Y-75416869D01*
X109614256Y-74916869D02*
X109328542Y-75202583D01*
X109935685Y-75416869D02*
X109935685Y-74916869D01*
X109935685Y-74666869D02*
X109899971Y-74702583D01*
X109899971Y-74702583D02*
X109935685Y-74738297D01*
X109935685Y-74738297D02*
X109971399Y-74702583D01*
X109971399Y-74702583D02*
X109935685Y-74666869D01*
X109935685Y-74666869D02*
X109935685Y-74738297D01*
X110292828Y-74916869D02*
X110292828Y-75416869D01*
X110292828Y-74988297D02*
X110328542Y-74952583D01*
X110328542Y-74952583D02*
X110399971Y-74916869D01*
X110399971Y-74916869D02*
X110507114Y-74916869D01*
X110507114Y-74916869D02*
X110578542Y-74952583D01*
X110578542Y-74952583D02*
X110614257Y-75024012D01*
X110614257Y-75024012D02*
X110614257Y-75416869D01*
X111292828Y-74916869D02*
X111292828Y-75524012D01*
X111292828Y-75524012D02*
X111257113Y-75595440D01*
X111257113Y-75595440D02*
X111221399Y-75631155D01*
X111221399Y-75631155D02*
X111149970Y-75666869D01*
X111149970Y-75666869D02*
X111042828Y-75666869D01*
X111042828Y-75666869D02*
X110971399Y-75631155D01*
X111292828Y-75381155D02*
X111221399Y-75416869D01*
X111221399Y-75416869D02*
X111078542Y-75416869D01*
X111078542Y-75416869D02*
X111007113Y-75381155D01*
X111007113Y-75381155D02*
X110971399Y-75345440D01*
X110971399Y-75345440D02*
X110935685Y-75274012D01*
X110935685Y-75274012D02*
X110935685Y-75059726D01*
X110935685Y-75059726D02*
X110971399Y-74988297D01*
X110971399Y-74988297D02*
X111007113Y-74952583D01*
X111007113Y-74952583D02*
X111078542Y-74916869D01*
X111078542Y-74916869D02*
X111221399Y-74916869D01*
X111221399Y-74916869D02*
X111292828Y-74952583D01*
X48935686Y-39166869D02*
X48507115Y-39166869D01*
X48721400Y-39166869D02*
X48721400Y-38416869D01*
X48721400Y-38416869D02*
X48649972Y-38524012D01*
X48649972Y-38524012D02*
X48578543Y-38595440D01*
X48578543Y-38595440D02*
X48507115Y-38631155D01*
X49221401Y-38488297D02*
X49257115Y-38452583D01*
X49257115Y-38452583D02*
X49328544Y-38416869D01*
X49328544Y-38416869D02*
X49507115Y-38416869D01*
X49507115Y-38416869D02*
X49578544Y-38452583D01*
X49578544Y-38452583D02*
X49614258Y-38488297D01*
X49614258Y-38488297D02*
X49649972Y-38559726D01*
X49649972Y-38559726D02*
X49649972Y-38631155D01*
X49649972Y-38631155D02*
X49614258Y-38738297D01*
X49614258Y-38738297D02*
X49185686Y-39166869D01*
X49185686Y-39166869D02*
X49649972Y-39166869D01*
X49864258Y-38416869D02*
X50114258Y-39166869D01*
X50114258Y-39166869D02*
X50364258Y-38416869D01*
X89122716Y-38626035D02*
X89075097Y-38673655D01*
X89075097Y-38673655D02*
X88932240Y-38721274D01*
X88932240Y-38721274D02*
X88837002Y-38721274D01*
X88837002Y-38721274D02*
X88694145Y-38673655D01*
X88694145Y-38673655D02*
X88598907Y-38578416D01*
X88598907Y-38578416D02*
X88551288Y-38483178D01*
X88551288Y-38483178D02*
X88503669Y-38292702D01*
X88503669Y-38292702D02*
X88503669Y-38149845D01*
X88503669Y-38149845D02*
X88551288Y-37959369D01*
X88551288Y-37959369D02*
X88598907Y-37864131D01*
X88598907Y-37864131D02*
X88694145Y-37768893D01*
X88694145Y-37768893D02*
X88837002Y-37721274D01*
X88837002Y-37721274D02*
X88932240Y-37721274D01*
X88932240Y-37721274D02*
X89075097Y-37768893D01*
X89075097Y-37768893D02*
X89122716Y-37816512D01*
X90075097Y-38721274D02*
X89503669Y-38721274D01*
X89789383Y-38721274D02*
X89789383Y-37721274D01*
X89789383Y-37721274D02*
X89694145Y-37864131D01*
X89694145Y-37864131D02*
X89598907Y-37959369D01*
X89598907Y-37959369D02*
X89503669Y-38006988D01*
X90694145Y-37721274D02*
X90789383Y-37721274D01*
X90789383Y-37721274D02*
X90884621Y-37768893D01*
X90884621Y-37768893D02*
X90932240Y-37816512D01*
X90932240Y-37816512D02*
X90979859Y-37911750D01*
X90979859Y-37911750D02*
X91027478Y-38102226D01*
X91027478Y-38102226D02*
X91027478Y-38340321D01*
X91027478Y-38340321D02*
X90979859Y-38530797D01*
X90979859Y-38530797D02*
X90932240Y-38626035D01*
X90932240Y-38626035D02*
X90884621Y-38673655D01*
X90884621Y-38673655D02*
X90789383Y-38721274D01*
X90789383Y-38721274D02*
X90694145Y-38721274D01*
X90694145Y-38721274D02*
X90598907Y-38673655D01*
X90598907Y-38673655D02*
X90551288Y-38626035D01*
X90551288Y-38626035D02*
X90503669Y-38530797D01*
X90503669Y-38530797D02*
X90456050Y-38340321D01*
X90456050Y-38340321D02*
X90456050Y-38102226D01*
X90456050Y-38102226D02*
X90503669Y-37911750D01*
X90503669Y-37911750D02*
X90551288Y-37816512D01*
X90551288Y-37816512D02*
X90598907Y-37768893D01*
X90598907Y-37768893D02*
X90694145Y-37721274D01*
X71003669Y-40891274D02*
X71003669Y-41700797D01*
X71003669Y-41700797D02*
X71051288Y-41796035D01*
X71051288Y-41796035D02*
X71098907Y-41843655D01*
X71098907Y-41843655D02*
X71194145Y-41891274D01*
X71194145Y-41891274D02*
X71384621Y-41891274D01*
X71384621Y-41891274D02*
X71479859Y-41843655D01*
X71479859Y-41843655D02*
X71527478Y-41796035D01*
X71527478Y-41796035D02*
X71575097Y-41700797D01*
X71575097Y-41700797D02*
X71575097Y-40891274D01*
X72527478Y-40891274D02*
X72051288Y-40891274D01*
X72051288Y-40891274D02*
X72003669Y-41367464D01*
X72003669Y-41367464D02*
X72051288Y-41319845D01*
X72051288Y-41319845D02*
X72146526Y-41272226D01*
X72146526Y-41272226D02*
X72384621Y-41272226D01*
X72384621Y-41272226D02*
X72479859Y-41319845D01*
X72479859Y-41319845D02*
X72527478Y-41367464D01*
X72527478Y-41367464D02*
X72575097Y-41462702D01*
X72575097Y-41462702D02*
X72575097Y-41700797D01*
X72575097Y-41700797D02*
X72527478Y-41796035D01*
X72527478Y-41796035D02*
X72479859Y-41843655D01*
X72479859Y-41843655D02*
X72384621Y-41891274D01*
X72384621Y-41891274D02*
X72146526Y-41891274D01*
X72146526Y-41891274D02*
X72051288Y-41843655D01*
X72051288Y-41843655D02*
X72003669Y-41796035D01*
X53598907Y-44221274D02*
X53265574Y-43745083D01*
X53027479Y-44221274D02*
X53027479Y-43221274D01*
X53027479Y-43221274D02*
X53408431Y-43221274D01*
X53408431Y-43221274D02*
X53503669Y-43268893D01*
X53503669Y-43268893D02*
X53551288Y-43316512D01*
X53551288Y-43316512D02*
X53598907Y-43411750D01*
X53598907Y-43411750D02*
X53598907Y-43554607D01*
X53598907Y-43554607D02*
X53551288Y-43649845D01*
X53551288Y-43649845D02*
X53503669Y-43697464D01*
X53503669Y-43697464D02*
X53408431Y-43745083D01*
X53408431Y-43745083D02*
X53027479Y-43745083D01*
X54503669Y-43221274D02*
X54027479Y-43221274D01*
X54027479Y-43221274D02*
X53979860Y-43697464D01*
X53979860Y-43697464D02*
X54027479Y-43649845D01*
X54027479Y-43649845D02*
X54122717Y-43602226D01*
X54122717Y-43602226D02*
X54360812Y-43602226D01*
X54360812Y-43602226D02*
X54456050Y-43649845D01*
X54456050Y-43649845D02*
X54503669Y-43697464D01*
X54503669Y-43697464D02*
X54551288Y-43792702D01*
X54551288Y-43792702D02*
X54551288Y-44030797D01*
X54551288Y-44030797D02*
X54503669Y-44126035D01*
X54503669Y-44126035D02*
X54456050Y-44173655D01*
X54456050Y-44173655D02*
X54360812Y-44221274D01*
X54360812Y-44221274D02*
X54122717Y-44221274D01*
X54122717Y-44221274D02*
X54027479Y-44173655D01*
X54027479Y-44173655D02*
X53979860Y-44126035D01*
X59003669Y-29891274D02*
X59003669Y-30700797D01*
X59003669Y-30700797D02*
X59051288Y-30796035D01*
X59051288Y-30796035D02*
X59098907Y-30843655D01*
X59098907Y-30843655D02*
X59194145Y-30891274D01*
X59194145Y-30891274D02*
X59384621Y-30891274D01*
X59384621Y-30891274D02*
X59479859Y-30843655D01*
X59479859Y-30843655D02*
X59527478Y-30796035D01*
X59527478Y-30796035D02*
X59575097Y-30700797D01*
X59575097Y-30700797D02*
X59575097Y-29891274D01*
X60575097Y-30891274D02*
X60003669Y-30891274D01*
X60289383Y-30891274D02*
X60289383Y-29891274D01*
X60289383Y-29891274D02*
X60194145Y-30034131D01*
X60194145Y-30034131D02*
X60098907Y-30129369D01*
X60098907Y-30129369D02*
X60003669Y-30176988D01*
X50527479Y-59691274D02*
X50527479Y-58691274D01*
X50527479Y-58691274D02*
X50765574Y-58691274D01*
X50765574Y-58691274D02*
X50908431Y-58738893D01*
X50908431Y-58738893D02*
X51003669Y-58834131D01*
X51003669Y-58834131D02*
X51051288Y-58929369D01*
X51051288Y-58929369D02*
X51098907Y-59119845D01*
X51098907Y-59119845D02*
X51098907Y-59262702D01*
X51098907Y-59262702D02*
X51051288Y-59453178D01*
X51051288Y-59453178D02*
X51003669Y-59548416D01*
X51003669Y-59548416D02*
X50908431Y-59643655D01*
X50908431Y-59643655D02*
X50765574Y-59691274D01*
X50765574Y-59691274D02*
X50527479Y-59691274D01*
X51956050Y-59024607D02*
X51956050Y-59691274D01*
X51717955Y-58643655D02*
X51479860Y-59357940D01*
X51479860Y-59357940D02*
X52098907Y-59357940D01*
X50158966Y-55432285D02*
X50111347Y-55479905D01*
X50111347Y-55479905D02*
X49968490Y-55527524D01*
X49968490Y-55527524D02*
X49873252Y-55527524D01*
X49873252Y-55527524D02*
X49730395Y-55479905D01*
X49730395Y-55479905D02*
X49635157Y-55384666D01*
X49635157Y-55384666D02*
X49587538Y-55289428D01*
X49587538Y-55289428D02*
X49539919Y-55098952D01*
X49539919Y-55098952D02*
X49539919Y-54956095D01*
X49539919Y-54956095D02*
X49587538Y-54765619D01*
X49587538Y-54765619D02*
X49635157Y-54670381D01*
X49635157Y-54670381D02*
X49730395Y-54575143D01*
X49730395Y-54575143D02*
X49873252Y-54527524D01*
X49873252Y-54527524D02*
X49968490Y-54527524D01*
X49968490Y-54527524D02*
X50111347Y-54575143D01*
X50111347Y-54575143D02*
X50158966Y-54622762D01*
X51111347Y-55527524D02*
X50539919Y-55527524D01*
X50825633Y-55527524D02*
X50825633Y-54527524D01*
X50825633Y-54527524D02*
X50730395Y-54670381D01*
X50730395Y-54670381D02*
X50635157Y-54765619D01*
X50635157Y-54765619D02*
X50539919Y-54813238D01*
X51492300Y-54622762D02*
X51539919Y-54575143D01*
X51539919Y-54575143D02*
X51635157Y-54527524D01*
X51635157Y-54527524D02*
X51873252Y-54527524D01*
X51873252Y-54527524D02*
X51968490Y-54575143D01*
X51968490Y-54575143D02*
X52016109Y-54622762D01*
X52016109Y-54622762D02*
X52063728Y-54718000D01*
X52063728Y-54718000D02*
X52063728Y-54813238D01*
X52063728Y-54813238D02*
X52016109Y-54956095D01*
X52016109Y-54956095D02*
X51444681Y-55527524D01*
X51444681Y-55527524D02*
X52063728Y-55527524D01*
X44398490Y-50845024D02*
X44398490Y-51559309D01*
X44398490Y-51559309D02*
X44350871Y-51702166D01*
X44350871Y-51702166D02*
X44255633Y-51797405D01*
X44255633Y-51797405D02*
X44112776Y-51845024D01*
X44112776Y-51845024D02*
X44017538Y-51845024D01*
X44827062Y-50940262D02*
X44874681Y-50892643D01*
X44874681Y-50892643D02*
X44969919Y-50845024D01*
X44969919Y-50845024D02*
X45208014Y-50845024D01*
X45208014Y-50845024D02*
X45303252Y-50892643D01*
X45303252Y-50892643D02*
X45350871Y-50940262D01*
X45350871Y-50940262D02*
X45398490Y-51035500D01*
X45398490Y-51035500D02*
X45398490Y-51130738D01*
X45398490Y-51130738D02*
X45350871Y-51273595D01*
X45350871Y-51273595D02*
X44779443Y-51845024D01*
X44779443Y-51845024D02*
X45398490Y-51845024D01*
X77598907Y-38626035D02*
X77551288Y-38673655D01*
X77551288Y-38673655D02*
X77408431Y-38721274D01*
X77408431Y-38721274D02*
X77313193Y-38721274D01*
X77313193Y-38721274D02*
X77170336Y-38673655D01*
X77170336Y-38673655D02*
X77075098Y-38578416D01*
X77075098Y-38578416D02*
X77027479Y-38483178D01*
X77027479Y-38483178D02*
X76979860Y-38292702D01*
X76979860Y-38292702D02*
X76979860Y-38149845D01*
X76979860Y-38149845D02*
X77027479Y-37959369D01*
X77027479Y-37959369D02*
X77075098Y-37864131D01*
X77075098Y-37864131D02*
X77170336Y-37768893D01*
X77170336Y-37768893D02*
X77313193Y-37721274D01*
X77313193Y-37721274D02*
X77408431Y-37721274D01*
X77408431Y-37721274D02*
X77551288Y-37768893D01*
X77551288Y-37768893D02*
X77598907Y-37816512D01*
X77932241Y-37721274D02*
X78551288Y-37721274D01*
X78551288Y-37721274D02*
X78217955Y-38102226D01*
X78217955Y-38102226D02*
X78360812Y-38102226D01*
X78360812Y-38102226D02*
X78456050Y-38149845D01*
X78456050Y-38149845D02*
X78503669Y-38197464D01*
X78503669Y-38197464D02*
X78551288Y-38292702D01*
X78551288Y-38292702D02*
X78551288Y-38530797D01*
X78551288Y-38530797D02*
X78503669Y-38626035D01*
X78503669Y-38626035D02*
X78456050Y-38673655D01*
X78456050Y-38673655D02*
X78360812Y-38721274D01*
X78360812Y-38721274D02*
X78075098Y-38721274D01*
X78075098Y-38721274D02*
X77979860Y-38673655D01*
X77979860Y-38673655D02*
X77932241Y-38626035D01*
X97302479Y-77121274D02*
X97302479Y-76121274D01*
X97302479Y-76121274D02*
X97540574Y-76121274D01*
X97540574Y-76121274D02*
X97683431Y-76168893D01*
X97683431Y-76168893D02*
X97778669Y-76264131D01*
X97778669Y-76264131D02*
X97826288Y-76359369D01*
X97826288Y-76359369D02*
X97873907Y-76549845D01*
X97873907Y-76549845D02*
X97873907Y-76692702D01*
X97873907Y-76692702D02*
X97826288Y-76883178D01*
X97826288Y-76883178D02*
X97778669Y-76978416D01*
X97778669Y-76978416D02*
X97683431Y-77073655D01*
X97683431Y-77073655D02*
X97540574Y-77121274D01*
X97540574Y-77121274D02*
X97302479Y-77121274D01*
X98826288Y-77121274D02*
X98254860Y-77121274D01*
X98540574Y-77121274D02*
X98540574Y-76121274D01*
X98540574Y-76121274D02*
X98445336Y-76264131D01*
X98445336Y-76264131D02*
X98350098Y-76359369D01*
X98350098Y-76359369D02*
X98254860Y-76406988D01*
X65598907Y-49626035D02*
X65551288Y-49673655D01*
X65551288Y-49673655D02*
X65408431Y-49721274D01*
X65408431Y-49721274D02*
X65313193Y-49721274D01*
X65313193Y-49721274D02*
X65170336Y-49673655D01*
X65170336Y-49673655D02*
X65075098Y-49578416D01*
X65075098Y-49578416D02*
X65027479Y-49483178D01*
X65027479Y-49483178D02*
X64979860Y-49292702D01*
X64979860Y-49292702D02*
X64979860Y-49149845D01*
X64979860Y-49149845D02*
X65027479Y-48959369D01*
X65027479Y-48959369D02*
X65075098Y-48864131D01*
X65075098Y-48864131D02*
X65170336Y-48768893D01*
X65170336Y-48768893D02*
X65313193Y-48721274D01*
X65313193Y-48721274D02*
X65408431Y-48721274D01*
X65408431Y-48721274D02*
X65551288Y-48768893D01*
X65551288Y-48768893D02*
X65598907Y-48816512D01*
X66503669Y-48721274D02*
X66027479Y-48721274D01*
X66027479Y-48721274D02*
X65979860Y-49197464D01*
X65979860Y-49197464D02*
X66027479Y-49149845D01*
X66027479Y-49149845D02*
X66122717Y-49102226D01*
X66122717Y-49102226D02*
X66360812Y-49102226D01*
X66360812Y-49102226D02*
X66456050Y-49149845D01*
X66456050Y-49149845D02*
X66503669Y-49197464D01*
X66503669Y-49197464D02*
X66551288Y-49292702D01*
X66551288Y-49292702D02*
X66551288Y-49530797D01*
X66551288Y-49530797D02*
X66503669Y-49626035D01*
X66503669Y-49626035D02*
X66456050Y-49673655D01*
X66456050Y-49673655D02*
X66360812Y-49721274D01*
X66360812Y-49721274D02*
X66122717Y-49721274D01*
X66122717Y-49721274D02*
X66027479Y-49673655D01*
X66027479Y-49673655D02*
X65979860Y-49626035D01*
X101122716Y-34721274D02*
X100789383Y-34245083D01*
X100551288Y-34721274D02*
X100551288Y-33721274D01*
X100551288Y-33721274D02*
X100932240Y-33721274D01*
X100932240Y-33721274D02*
X101027478Y-33768893D01*
X101027478Y-33768893D02*
X101075097Y-33816512D01*
X101075097Y-33816512D02*
X101122716Y-33911750D01*
X101122716Y-33911750D02*
X101122716Y-34054607D01*
X101122716Y-34054607D02*
X101075097Y-34149845D01*
X101075097Y-34149845D02*
X101027478Y-34197464D01*
X101027478Y-34197464D02*
X100932240Y-34245083D01*
X100932240Y-34245083D02*
X100551288Y-34245083D01*
X102075097Y-34721274D02*
X101503669Y-34721274D01*
X101789383Y-34721274D02*
X101789383Y-33721274D01*
X101789383Y-33721274D02*
X101694145Y-33864131D01*
X101694145Y-33864131D02*
X101598907Y-33959369D01*
X101598907Y-33959369D02*
X101503669Y-34006988D01*
X102932240Y-33721274D02*
X102741764Y-33721274D01*
X102741764Y-33721274D02*
X102646526Y-33768893D01*
X102646526Y-33768893D02*
X102598907Y-33816512D01*
X102598907Y-33816512D02*
X102503669Y-33959369D01*
X102503669Y-33959369D02*
X102456050Y-34149845D01*
X102456050Y-34149845D02*
X102456050Y-34530797D01*
X102456050Y-34530797D02*
X102503669Y-34626035D01*
X102503669Y-34626035D02*
X102551288Y-34673655D01*
X102551288Y-34673655D02*
X102646526Y-34721274D01*
X102646526Y-34721274D02*
X102837002Y-34721274D01*
X102837002Y-34721274D02*
X102932240Y-34673655D01*
X102932240Y-34673655D02*
X102979859Y-34626035D01*
X102979859Y-34626035D02*
X103027478Y-34530797D01*
X103027478Y-34530797D02*
X103027478Y-34292702D01*
X103027478Y-34292702D02*
X102979859Y-34197464D01*
X102979859Y-34197464D02*
X102932240Y-34149845D01*
X102932240Y-34149845D02*
X102837002Y-34102226D01*
X102837002Y-34102226D02*
X102646526Y-34102226D01*
X102646526Y-34102226D02*
X102551288Y-34149845D01*
X102551288Y-34149845D02*
X102503669Y-34197464D01*
X102503669Y-34197464D02*
X102456050Y-34292702D01*
X56170335Y-59971274D02*
X55837002Y-59495083D01*
X55598907Y-59971274D02*
X55598907Y-58971274D01*
X55598907Y-58971274D02*
X55979859Y-58971274D01*
X55979859Y-58971274D02*
X56075097Y-59018893D01*
X56075097Y-59018893D02*
X56122716Y-59066512D01*
X56122716Y-59066512D02*
X56170335Y-59161750D01*
X56170335Y-59161750D02*
X56170335Y-59304607D01*
X56170335Y-59304607D02*
X56122716Y-59399845D01*
X56122716Y-59399845D02*
X56075097Y-59447464D01*
X56075097Y-59447464D02*
X55979859Y-59495083D01*
X55979859Y-59495083D02*
X55598907Y-59495083D01*
X56456050Y-58971274D02*
X56789383Y-59971274D01*
X56789383Y-59971274D02*
X57122716Y-58971274D01*
X57408431Y-59066512D02*
X57456050Y-59018893D01*
X57456050Y-59018893D02*
X57551288Y-58971274D01*
X57551288Y-58971274D02*
X57789383Y-58971274D01*
X57789383Y-58971274D02*
X57884621Y-59018893D01*
X57884621Y-59018893D02*
X57932240Y-59066512D01*
X57932240Y-59066512D02*
X57979859Y-59161750D01*
X57979859Y-59161750D02*
X57979859Y-59256988D01*
X57979859Y-59256988D02*
X57932240Y-59399845D01*
X57932240Y-59399845D02*
X57360812Y-59971274D01*
X57360812Y-59971274D02*
X57979859Y-59971274D01*
X65122716Y-44221274D02*
X64789383Y-43745083D01*
X64551288Y-44221274D02*
X64551288Y-43221274D01*
X64551288Y-43221274D02*
X64932240Y-43221274D01*
X64932240Y-43221274D02*
X65027478Y-43268893D01*
X65027478Y-43268893D02*
X65075097Y-43316512D01*
X65075097Y-43316512D02*
X65122716Y-43411750D01*
X65122716Y-43411750D02*
X65122716Y-43554607D01*
X65122716Y-43554607D02*
X65075097Y-43649845D01*
X65075097Y-43649845D02*
X65027478Y-43697464D01*
X65027478Y-43697464D02*
X64932240Y-43745083D01*
X64932240Y-43745083D02*
X64551288Y-43745083D01*
X66075097Y-44221274D02*
X65503669Y-44221274D01*
X65789383Y-44221274D02*
X65789383Y-43221274D01*
X65789383Y-43221274D02*
X65694145Y-43364131D01*
X65694145Y-43364131D02*
X65598907Y-43459369D01*
X65598907Y-43459369D02*
X65503669Y-43506988D01*
X66408431Y-43221274D02*
X67027478Y-43221274D01*
X67027478Y-43221274D02*
X66694145Y-43602226D01*
X66694145Y-43602226D02*
X66837002Y-43602226D01*
X66837002Y-43602226D02*
X66932240Y-43649845D01*
X66932240Y-43649845D02*
X66979859Y-43697464D01*
X66979859Y-43697464D02*
X67027478Y-43792702D01*
X67027478Y-43792702D02*
X67027478Y-44030797D01*
X67027478Y-44030797D02*
X66979859Y-44126035D01*
X66979859Y-44126035D02*
X66932240Y-44173655D01*
X66932240Y-44173655D02*
X66837002Y-44221274D01*
X66837002Y-44221274D02*
X66551288Y-44221274D01*
X66551288Y-44221274D02*
X66456050Y-44173655D01*
X66456050Y-44173655D02*
X66408431Y-44126035D01*
X38976643Y-49032109D02*
X39786166Y-49032109D01*
X39786166Y-49032109D02*
X39881404Y-48984490D01*
X39881404Y-48984490D02*
X39929024Y-48936871D01*
X39929024Y-48936871D02*
X39976643Y-48841633D01*
X39976643Y-48841633D02*
X39976643Y-48651157D01*
X39976643Y-48651157D02*
X39929024Y-48555919D01*
X39929024Y-48555919D02*
X39881404Y-48508300D01*
X39881404Y-48508300D02*
X39786166Y-48460681D01*
X39786166Y-48460681D02*
X38976643Y-48460681D01*
X38976643Y-48079728D02*
X38976643Y-47413062D01*
X38976643Y-47413062D02*
X39976643Y-47841633D01*
X92623907Y-64371274D02*
X92290574Y-63895083D01*
X92052479Y-64371274D02*
X92052479Y-63371274D01*
X92052479Y-63371274D02*
X92433431Y-63371274D01*
X92433431Y-63371274D02*
X92528669Y-63418893D01*
X92528669Y-63418893D02*
X92576288Y-63466512D01*
X92576288Y-63466512D02*
X92623907Y-63561750D01*
X92623907Y-63561750D02*
X92623907Y-63704607D01*
X92623907Y-63704607D02*
X92576288Y-63799845D01*
X92576288Y-63799845D02*
X92528669Y-63847464D01*
X92528669Y-63847464D02*
X92433431Y-63895083D01*
X92433431Y-63895083D02*
X92052479Y-63895083D01*
X93576288Y-64371274D02*
X93004860Y-64371274D01*
X93290574Y-64371274D02*
X93290574Y-63371274D01*
X93290574Y-63371274D02*
X93195336Y-63514131D01*
X93195336Y-63514131D02*
X93100098Y-63609369D01*
X93100098Y-63609369D02*
X93004860Y-63656988D01*
X105670335Y-28971274D02*
X105337002Y-28495083D01*
X105098907Y-28971274D02*
X105098907Y-27971274D01*
X105098907Y-27971274D02*
X105479859Y-27971274D01*
X105479859Y-27971274D02*
X105575097Y-28018893D01*
X105575097Y-28018893D02*
X105622716Y-28066512D01*
X105622716Y-28066512D02*
X105670335Y-28161750D01*
X105670335Y-28161750D02*
X105670335Y-28304607D01*
X105670335Y-28304607D02*
X105622716Y-28399845D01*
X105622716Y-28399845D02*
X105575097Y-28447464D01*
X105575097Y-28447464D02*
X105479859Y-28495083D01*
X105479859Y-28495083D02*
X105098907Y-28495083D01*
X105956050Y-27971274D02*
X106289383Y-28971274D01*
X106289383Y-28971274D02*
X106622716Y-27971274D01*
X107479859Y-28971274D02*
X106908431Y-28971274D01*
X107194145Y-28971274D02*
X107194145Y-27971274D01*
X107194145Y-27971274D02*
X107098907Y-28114131D01*
X107098907Y-28114131D02*
X107003669Y-28209369D01*
X107003669Y-28209369D02*
X106908431Y-28256988D01*
X97598907Y-27471274D02*
X97265574Y-26995083D01*
X97027479Y-27471274D02*
X97027479Y-26471274D01*
X97027479Y-26471274D02*
X97408431Y-26471274D01*
X97408431Y-26471274D02*
X97503669Y-26518893D01*
X97503669Y-26518893D02*
X97551288Y-26566512D01*
X97551288Y-26566512D02*
X97598907Y-26661750D01*
X97598907Y-26661750D02*
X97598907Y-26804607D01*
X97598907Y-26804607D02*
X97551288Y-26899845D01*
X97551288Y-26899845D02*
X97503669Y-26947464D01*
X97503669Y-26947464D02*
X97408431Y-26995083D01*
X97408431Y-26995083D02*
X97027479Y-26995083D01*
X98456050Y-26804607D02*
X98456050Y-27471274D01*
X98217955Y-26423655D02*
X97979860Y-27137940D01*
X97979860Y-27137940D02*
X98598907Y-27137940D01*
X77598907Y-49626035D02*
X77551288Y-49673655D01*
X77551288Y-49673655D02*
X77408431Y-49721274D01*
X77408431Y-49721274D02*
X77313193Y-49721274D01*
X77313193Y-49721274D02*
X77170336Y-49673655D01*
X77170336Y-49673655D02*
X77075098Y-49578416D01*
X77075098Y-49578416D02*
X77027479Y-49483178D01*
X77027479Y-49483178D02*
X76979860Y-49292702D01*
X76979860Y-49292702D02*
X76979860Y-49149845D01*
X76979860Y-49149845D02*
X77027479Y-48959369D01*
X77027479Y-48959369D02*
X77075098Y-48864131D01*
X77075098Y-48864131D02*
X77170336Y-48768893D01*
X77170336Y-48768893D02*
X77313193Y-48721274D01*
X77313193Y-48721274D02*
X77408431Y-48721274D01*
X77408431Y-48721274D02*
X77551288Y-48768893D01*
X77551288Y-48768893D02*
X77598907Y-48816512D01*
X78456050Y-48721274D02*
X78265574Y-48721274D01*
X78265574Y-48721274D02*
X78170336Y-48768893D01*
X78170336Y-48768893D02*
X78122717Y-48816512D01*
X78122717Y-48816512D02*
X78027479Y-48959369D01*
X78027479Y-48959369D02*
X77979860Y-49149845D01*
X77979860Y-49149845D02*
X77979860Y-49530797D01*
X77979860Y-49530797D02*
X78027479Y-49626035D01*
X78027479Y-49626035D02*
X78075098Y-49673655D01*
X78075098Y-49673655D02*
X78170336Y-49721274D01*
X78170336Y-49721274D02*
X78360812Y-49721274D01*
X78360812Y-49721274D02*
X78456050Y-49673655D01*
X78456050Y-49673655D02*
X78503669Y-49626035D01*
X78503669Y-49626035D02*
X78551288Y-49530797D01*
X78551288Y-49530797D02*
X78551288Y-49292702D01*
X78551288Y-49292702D02*
X78503669Y-49197464D01*
X78503669Y-49197464D02*
X78456050Y-49149845D01*
X78456050Y-49149845D02*
X78360812Y-49102226D01*
X78360812Y-49102226D02*
X78170336Y-49102226D01*
X78170336Y-49102226D02*
X78075098Y-49149845D01*
X78075098Y-49149845D02*
X78027479Y-49197464D01*
X78027479Y-49197464D02*
X77979860Y-49292702D01*
X105003669Y-39641274D02*
X105575097Y-39641274D01*
X105289383Y-40641274D02*
X105289383Y-39641274D01*
X105908431Y-40641274D02*
X105908431Y-39641274D01*
X105908431Y-39641274D02*
X106289383Y-39641274D01*
X106289383Y-39641274D02*
X106384621Y-39688893D01*
X106384621Y-39688893D02*
X106432240Y-39736512D01*
X106432240Y-39736512D02*
X106479859Y-39831750D01*
X106479859Y-39831750D02*
X106479859Y-39974607D01*
X106479859Y-39974607D02*
X106432240Y-40069845D01*
X106432240Y-40069845D02*
X106384621Y-40117464D01*
X106384621Y-40117464D02*
X106289383Y-40165083D01*
X106289383Y-40165083D02*
X105908431Y-40165083D01*
X106860812Y-39736512D02*
X106908431Y-39688893D01*
X106908431Y-39688893D02*
X107003669Y-39641274D01*
X107003669Y-39641274D02*
X107241764Y-39641274D01*
X107241764Y-39641274D02*
X107337002Y-39688893D01*
X107337002Y-39688893D02*
X107384621Y-39736512D01*
X107384621Y-39736512D02*
X107432240Y-39831750D01*
X107432240Y-39831750D02*
X107432240Y-39926988D01*
X107432240Y-39926988D02*
X107384621Y-40069845D01*
X107384621Y-40069845D02*
X106813193Y-40641274D01*
X106813193Y-40641274D02*
X107432240Y-40641274D01*
X77122716Y-29221274D02*
X76789383Y-28745083D01*
X76551288Y-29221274D02*
X76551288Y-28221274D01*
X76551288Y-28221274D02*
X76932240Y-28221274D01*
X76932240Y-28221274D02*
X77027478Y-28268893D01*
X77027478Y-28268893D02*
X77075097Y-28316512D01*
X77075097Y-28316512D02*
X77122716Y-28411750D01*
X77122716Y-28411750D02*
X77122716Y-28554607D01*
X77122716Y-28554607D02*
X77075097Y-28649845D01*
X77075097Y-28649845D02*
X77027478Y-28697464D01*
X77027478Y-28697464D02*
X76932240Y-28745083D01*
X76932240Y-28745083D02*
X76551288Y-28745083D01*
X78075097Y-29221274D02*
X77503669Y-29221274D01*
X77789383Y-29221274D02*
X77789383Y-28221274D01*
X77789383Y-28221274D02*
X77694145Y-28364131D01*
X77694145Y-28364131D02*
X77598907Y-28459369D01*
X77598907Y-28459369D02*
X77503669Y-28506988D01*
X79027478Y-29221274D02*
X78456050Y-29221274D01*
X78741764Y-29221274D02*
X78741764Y-28221274D01*
X78741764Y-28221274D02*
X78646526Y-28364131D01*
X78646526Y-28364131D02*
X78551288Y-28459369D01*
X78551288Y-28459369D02*
X78456050Y-28506988D01*
X45527479Y-41721274D02*
X45527479Y-40721274D01*
X45527479Y-40721274D02*
X45765574Y-40721274D01*
X45765574Y-40721274D02*
X45908431Y-40768893D01*
X45908431Y-40768893D02*
X46003669Y-40864131D01*
X46003669Y-40864131D02*
X46051288Y-40959369D01*
X46051288Y-40959369D02*
X46098907Y-41149845D01*
X46098907Y-41149845D02*
X46098907Y-41292702D01*
X46098907Y-41292702D02*
X46051288Y-41483178D01*
X46051288Y-41483178D02*
X46003669Y-41578416D01*
X46003669Y-41578416D02*
X45908431Y-41673655D01*
X45908431Y-41673655D02*
X45765574Y-41721274D01*
X45765574Y-41721274D02*
X45527479Y-41721274D01*
X46956050Y-40721274D02*
X46765574Y-40721274D01*
X46765574Y-40721274D02*
X46670336Y-40768893D01*
X46670336Y-40768893D02*
X46622717Y-40816512D01*
X46622717Y-40816512D02*
X46527479Y-40959369D01*
X46527479Y-40959369D02*
X46479860Y-41149845D01*
X46479860Y-41149845D02*
X46479860Y-41530797D01*
X46479860Y-41530797D02*
X46527479Y-41626035D01*
X46527479Y-41626035D02*
X46575098Y-41673655D01*
X46575098Y-41673655D02*
X46670336Y-41721274D01*
X46670336Y-41721274D02*
X46860812Y-41721274D01*
X46860812Y-41721274D02*
X46956050Y-41673655D01*
X46956050Y-41673655D02*
X47003669Y-41626035D01*
X47003669Y-41626035D02*
X47051288Y-41530797D01*
X47051288Y-41530797D02*
X47051288Y-41292702D01*
X47051288Y-41292702D02*
X47003669Y-41197464D01*
X47003669Y-41197464D02*
X46956050Y-41149845D01*
X46956050Y-41149845D02*
X46860812Y-41102226D01*
X46860812Y-41102226D02*
X46670336Y-41102226D01*
X46670336Y-41102226D02*
X46575098Y-41149845D01*
X46575098Y-41149845D02*
X46527479Y-41197464D01*
X46527479Y-41197464D02*
X46479860Y-41292702D01*
X83003669Y-29891274D02*
X83003669Y-30700797D01*
X83003669Y-30700797D02*
X83051288Y-30796035D01*
X83051288Y-30796035D02*
X83098907Y-30843655D01*
X83098907Y-30843655D02*
X83194145Y-30891274D01*
X83194145Y-30891274D02*
X83384621Y-30891274D01*
X83384621Y-30891274D02*
X83479859Y-30843655D01*
X83479859Y-30843655D02*
X83527478Y-30796035D01*
X83527478Y-30796035D02*
X83575097Y-30700797D01*
X83575097Y-30700797D02*
X83575097Y-29891274D01*
X83956050Y-29891274D02*
X84575097Y-29891274D01*
X84575097Y-29891274D02*
X84241764Y-30272226D01*
X84241764Y-30272226D02*
X84384621Y-30272226D01*
X84384621Y-30272226D02*
X84479859Y-30319845D01*
X84479859Y-30319845D02*
X84527478Y-30367464D01*
X84527478Y-30367464D02*
X84575097Y-30462702D01*
X84575097Y-30462702D02*
X84575097Y-30700797D01*
X84575097Y-30700797D02*
X84527478Y-30796035D01*
X84527478Y-30796035D02*
X84479859Y-30843655D01*
X84479859Y-30843655D02*
X84384621Y-30891274D01*
X84384621Y-30891274D02*
X84098907Y-30891274D01*
X84098907Y-30891274D02*
X84003669Y-30843655D01*
X84003669Y-30843655D02*
X83956050Y-30796035D01*
X101122716Y-49721274D02*
X100789383Y-49245083D01*
X100551288Y-49721274D02*
X100551288Y-48721274D01*
X100551288Y-48721274D02*
X100932240Y-48721274D01*
X100932240Y-48721274D02*
X101027478Y-48768893D01*
X101027478Y-48768893D02*
X101075097Y-48816512D01*
X101075097Y-48816512D02*
X101122716Y-48911750D01*
X101122716Y-48911750D02*
X101122716Y-49054607D01*
X101122716Y-49054607D02*
X101075097Y-49149845D01*
X101075097Y-49149845D02*
X101027478Y-49197464D01*
X101027478Y-49197464D02*
X100932240Y-49245083D01*
X100932240Y-49245083D02*
X100551288Y-49245083D01*
X102075097Y-49721274D02*
X101503669Y-49721274D01*
X101789383Y-49721274D02*
X101789383Y-48721274D01*
X101789383Y-48721274D02*
X101694145Y-48864131D01*
X101694145Y-48864131D02*
X101598907Y-48959369D01*
X101598907Y-48959369D02*
X101503669Y-49006988D01*
X102979859Y-48721274D02*
X102503669Y-48721274D01*
X102503669Y-48721274D02*
X102456050Y-49197464D01*
X102456050Y-49197464D02*
X102503669Y-49149845D01*
X102503669Y-49149845D02*
X102598907Y-49102226D01*
X102598907Y-49102226D02*
X102837002Y-49102226D01*
X102837002Y-49102226D02*
X102932240Y-49149845D01*
X102932240Y-49149845D02*
X102979859Y-49197464D01*
X102979859Y-49197464D02*
X103027478Y-49292702D01*
X103027478Y-49292702D02*
X103027478Y-49530797D01*
X103027478Y-49530797D02*
X102979859Y-49626035D01*
X102979859Y-49626035D02*
X102932240Y-49673655D01*
X102932240Y-49673655D02*
X102837002Y-49721274D01*
X102837002Y-49721274D02*
X102598907Y-49721274D01*
X102598907Y-49721274D02*
X102503669Y-49673655D01*
X102503669Y-49673655D02*
X102456050Y-49626035D01*
X83252479Y-63691274D02*
X83252479Y-64500797D01*
X83252479Y-64500797D02*
X83300098Y-64596035D01*
X83300098Y-64596035D02*
X83347717Y-64643655D01*
X83347717Y-64643655D02*
X83442955Y-64691274D01*
X83442955Y-64691274D02*
X83633431Y-64691274D01*
X83633431Y-64691274D02*
X83728669Y-64643655D01*
X83728669Y-64643655D02*
X83776288Y-64596035D01*
X83776288Y-64596035D02*
X83823907Y-64500797D01*
X83823907Y-64500797D02*
X83823907Y-63691274D01*
X84823907Y-64691274D02*
X84252479Y-64691274D01*
X84538193Y-64691274D02*
X84538193Y-63691274D01*
X84538193Y-63691274D02*
X84442955Y-63834131D01*
X84442955Y-63834131D02*
X84347717Y-63929369D01*
X84347717Y-63929369D02*
X84252479Y-63976988D01*
X85442955Y-63691274D02*
X85538193Y-63691274D01*
X85538193Y-63691274D02*
X85633431Y-63738893D01*
X85633431Y-63738893D02*
X85681050Y-63786512D01*
X85681050Y-63786512D02*
X85728669Y-63881750D01*
X85728669Y-63881750D02*
X85776288Y-64072226D01*
X85776288Y-64072226D02*
X85776288Y-64310321D01*
X85776288Y-64310321D02*
X85728669Y-64500797D01*
X85728669Y-64500797D02*
X85681050Y-64596035D01*
X85681050Y-64596035D02*
X85633431Y-64643655D01*
X85633431Y-64643655D02*
X85538193Y-64691274D01*
X85538193Y-64691274D02*
X85442955Y-64691274D01*
X85442955Y-64691274D02*
X85347717Y-64643655D01*
X85347717Y-64643655D02*
X85300098Y-64596035D01*
X85300098Y-64596035D02*
X85252479Y-64500797D01*
X85252479Y-64500797D02*
X85204860Y-64310321D01*
X85204860Y-64310321D02*
X85204860Y-64072226D01*
X85204860Y-64072226D02*
X85252479Y-63881750D01*
X85252479Y-63881750D02*
X85300098Y-63786512D01*
X85300098Y-63786512D02*
X85347717Y-63738893D01*
X85347717Y-63738893D02*
X85442955Y-63691274D01*
X77122716Y-44221274D02*
X76789383Y-43745083D01*
X76551288Y-44221274D02*
X76551288Y-43221274D01*
X76551288Y-43221274D02*
X76932240Y-43221274D01*
X76932240Y-43221274D02*
X77027478Y-43268893D01*
X77027478Y-43268893D02*
X77075097Y-43316512D01*
X77075097Y-43316512D02*
X77122716Y-43411750D01*
X77122716Y-43411750D02*
X77122716Y-43554607D01*
X77122716Y-43554607D02*
X77075097Y-43649845D01*
X77075097Y-43649845D02*
X77027478Y-43697464D01*
X77027478Y-43697464D02*
X76932240Y-43745083D01*
X76932240Y-43745083D02*
X76551288Y-43745083D01*
X78075097Y-44221274D02*
X77503669Y-44221274D01*
X77789383Y-44221274D02*
X77789383Y-43221274D01*
X77789383Y-43221274D02*
X77694145Y-43364131D01*
X77694145Y-43364131D02*
X77598907Y-43459369D01*
X77598907Y-43459369D02*
X77503669Y-43506988D01*
X78456050Y-43316512D02*
X78503669Y-43268893D01*
X78503669Y-43268893D02*
X78598907Y-43221274D01*
X78598907Y-43221274D02*
X78837002Y-43221274D01*
X78837002Y-43221274D02*
X78932240Y-43268893D01*
X78932240Y-43268893D02*
X78979859Y-43316512D01*
X78979859Y-43316512D02*
X79027478Y-43411750D01*
X79027478Y-43411750D02*
X79027478Y-43506988D01*
X79027478Y-43506988D02*
X78979859Y-43649845D01*
X78979859Y-43649845D02*
X78408431Y-44221274D01*
X78408431Y-44221274D02*
X79027478Y-44221274D01*
X78622716Y-64221274D02*
X78289383Y-63745083D01*
X78051288Y-64221274D02*
X78051288Y-63221274D01*
X78051288Y-63221274D02*
X78432240Y-63221274D01*
X78432240Y-63221274D02*
X78527478Y-63268893D01*
X78527478Y-63268893D02*
X78575097Y-63316512D01*
X78575097Y-63316512D02*
X78622716Y-63411750D01*
X78622716Y-63411750D02*
X78622716Y-63554607D01*
X78622716Y-63554607D02*
X78575097Y-63649845D01*
X78575097Y-63649845D02*
X78527478Y-63697464D01*
X78527478Y-63697464D02*
X78432240Y-63745083D01*
X78432240Y-63745083D02*
X78051288Y-63745083D01*
X79575097Y-64221274D02*
X79003669Y-64221274D01*
X79289383Y-64221274D02*
X79289383Y-63221274D01*
X79289383Y-63221274D02*
X79194145Y-63364131D01*
X79194145Y-63364131D02*
X79098907Y-63459369D01*
X79098907Y-63459369D02*
X79003669Y-63506988D01*
X80194145Y-63221274D02*
X80289383Y-63221274D01*
X80289383Y-63221274D02*
X80384621Y-63268893D01*
X80384621Y-63268893D02*
X80432240Y-63316512D01*
X80432240Y-63316512D02*
X80479859Y-63411750D01*
X80479859Y-63411750D02*
X80527478Y-63602226D01*
X80527478Y-63602226D02*
X80527478Y-63840321D01*
X80527478Y-63840321D02*
X80479859Y-64030797D01*
X80479859Y-64030797D02*
X80432240Y-64126035D01*
X80432240Y-64126035D02*
X80384621Y-64173655D01*
X80384621Y-64173655D02*
X80289383Y-64221274D01*
X80289383Y-64221274D02*
X80194145Y-64221274D01*
X80194145Y-64221274D02*
X80098907Y-64173655D01*
X80098907Y-64173655D02*
X80051288Y-64126035D01*
X80051288Y-64126035D02*
X80003669Y-64030797D01*
X80003669Y-64030797D02*
X79956050Y-63840321D01*
X79956050Y-63840321D02*
X79956050Y-63602226D01*
X79956050Y-63602226D02*
X80003669Y-63411750D01*
X80003669Y-63411750D02*
X80051288Y-63316512D01*
X80051288Y-63316512D02*
X80098907Y-63268893D01*
X80098907Y-63268893D02*
X80194145Y-63221274D01*
X50122716Y-44221274D02*
X49789383Y-43745083D01*
X49551288Y-44221274D02*
X49551288Y-43221274D01*
X49551288Y-43221274D02*
X49932240Y-43221274D01*
X49932240Y-43221274D02*
X50027478Y-43268893D01*
X50027478Y-43268893D02*
X50075097Y-43316512D01*
X50075097Y-43316512D02*
X50122716Y-43411750D01*
X50122716Y-43411750D02*
X50122716Y-43554607D01*
X50122716Y-43554607D02*
X50075097Y-43649845D01*
X50075097Y-43649845D02*
X50027478Y-43697464D01*
X50027478Y-43697464D02*
X49932240Y-43745083D01*
X49932240Y-43745083D02*
X49551288Y-43745083D01*
X50503669Y-43316512D02*
X50551288Y-43268893D01*
X50551288Y-43268893D02*
X50646526Y-43221274D01*
X50646526Y-43221274D02*
X50884621Y-43221274D01*
X50884621Y-43221274D02*
X50979859Y-43268893D01*
X50979859Y-43268893D02*
X51027478Y-43316512D01*
X51027478Y-43316512D02*
X51075097Y-43411750D01*
X51075097Y-43411750D02*
X51075097Y-43506988D01*
X51075097Y-43506988D02*
X51027478Y-43649845D01*
X51027478Y-43649845D02*
X50456050Y-44221274D01*
X50456050Y-44221274D02*
X51075097Y-44221274D01*
X51979859Y-43221274D02*
X51503669Y-43221274D01*
X51503669Y-43221274D02*
X51456050Y-43697464D01*
X51456050Y-43697464D02*
X51503669Y-43649845D01*
X51503669Y-43649845D02*
X51598907Y-43602226D01*
X51598907Y-43602226D02*
X51837002Y-43602226D01*
X51837002Y-43602226D02*
X51932240Y-43649845D01*
X51932240Y-43649845D02*
X51979859Y-43697464D01*
X51979859Y-43697464D02*
X52027478Y-43792702D01*
X52027478Y-43792702D02*
X52027478Y-44030797D01*
X52027478Y-44030797D02*
X51979859Y-44126035D01*
X51979859Y-44126035D02*
X51932240Y-44173655D01*
X51932240Y-44173655D02*
X51837002Y-44221274D01*
X51837002Y-44221274D02*
X51598907Y-44221274D01*
X51598907Y-44221274D02*
X51503669Y-44173655D01*
X51503669Y-44173655D02*
X51456050Y-44126035D01*
X50158966Y-49919785D02*
X50111347Y-49967405D01*
X50111347Y-49967405D02*
X49968490Y-50015024D01*
X49968490Y-50015024D02*
X49873252Y-50015024D01*
X49873252Y-50015024D02*
X49730395Y-49967405D01*
X49730395Y-49967405D02*
X49635157Y-49872166D01*
X49635157Y-49872166D02*
X49587538Y-49776928D01*
X49587538Y-49776928D02*
X49539919Y-49586452D01*
X49539919Y-49586452D02*
X49539919Y-49443595D01*
X49539919Y-49443595D02*
X49587538Y-49253119D01*
X49587538Y-49253119D02*
X49635157Y-49157881D01*
X49635157Y-49157881D02*
X49730395Y-49062643D01*
X49730395Y-49062643D02*
X49873252Y-49015024D01*
X49873252Y-49015024D02*
X49968490Y-49015024D01*
X49968490Y-49015024D02*
X50111347Y-49062643D01*
X50111347Y-49062643D02*
X50158966Y-49110262D01*
X51111347Y-50015024D02*
X50539919Y-50015024D01*
X50825633Y-50015024D02*
X50825633Y-49015024D01*
X50825633Y-49015024D02*
X50730395Y-49157881D01*
X50730395Y-49157881D02*
X50635157Y-49253119D01*
X50635157Y-49253119D02*
X50539919Y-49300738D01*
X51444681Y-49015024D02*
X52063728Y-49015024D01*
X52063728Y-49015024D02*
X51730395Y-49395976D01*
X51730395Y-49395976D02*
X51873252Y-49395976D01*
X51873252Y-49395976D02*
X51968490Y-49443595D01*
X51968490Y-49443595D02*
X52016109Y-49491214D01*
X52016109Y-49491214D02*
X52063728Y-49586452D01*
X52063728Y-49586452D02*
X52063728Y-49824547D01*
X52063728Y-49824547D02*
X52016109Y-49919785D01*
X52016109Y-49919785D02*
X51968490Y-49967405D01*
X51968490Y-49967405D02*
X51873252Y-50015024D01*
X51873252Y-50015024D02*
X51587538Y-50015024D01*
X51587538Y-50015024D02*
X51492300Y-49967405D01*
X51492300Y-49967405D02*
X51444681Y-49919785D01*
X97277479Y-73121274D02*
X97277479Y-72121274D01*
X97277479Y-72121274D02*
X97515574Y-72121274D01*
X97515574Y-72121274D02*
X97658431Y-72168893D01*
X97658431Y-72168893D02*
X97753669Y-72264131D01*
X97753669Y-72264131D02*
X97801288Y-72359369D01*
X97801288Y-72359369D02*
X97848907Y-72549845D01*
X97848907Y-72549845D02*
X97848907Y-72692702D01*
X97848907Y-72692702D02*
X97801288Y-72883178D01*
X97801288Y-72883178D02*
X97753669Y-72978416D01*
X97753669Y-72978416D02*
X97658431Y-73073655D01*
X97658431Y-73073655D02*
X97515574Y-73121274D01*
X97515574Y-73121274D02*
X97277479Y-73121274D01*
X98229860Y-72216512D02*
X98277479Y-72168893D01*
X98277479Y-72168893D02*
X98372717Y-72121274D01*
X98372717Y-72121274D02*
X98610812Y-72121274D01*
X98610812Y-72121274D02*
X98706050Y-72168893D01*
X98706050Y-72168893D02*
X98753669Y-72216512D01*
X98753669Y-72216512D02*
X98801288Y-72311750D01*
X98801288Y-72311750D02*
X98801288Y-72406988D01*
X98801288Y-72406988D02*
X98753669Y-72549845D01*
X98753669Y-72549845D02*
X98182241Y-73121274D01*
X98182241Y-73121274D02*
X98801288Y-73121274D01*
X89122716Y-25221274D02*
X88789383Y-24745083D01*
X88551288Y-25221274D02*
X88551288Y-24221274D01*
X88551288Y-24221274D02*
X88932240Y-24221274D01*
X88932240Y-24221274D02*
X89027478Y-24268893D01*
X89027478Y-24268893D02*
X89075097Y-24316512D01*
X89075097Y-24316512D02*
X89122716Y-24411750D01*
X89122716Y-24411750D02*
X89122716Y-24554607D01*
X89122716Y-24554607D02*
X89075097Y-24649845D01*
X89075097Y-24649845D02*
X89027478Y-24697464D01*
X89027478Y-24697464D02*
X88932240Y-24745083D01*
X88932240Y-24745083D02*
X88551288Y-24745083D01*
X89503669Y-24316512D02*
X89551288Y-24268893D01*
X89551288Y-24268893D02*
X89646526Y-24221274D01*
X89646526Y-24221274D02*
X89884621Y-24221274D01*
X89884621Y-24221274D02*
X89979859Y-24268893D01*
X89979859Y-24268893D02*
X90027478Y-24316512D01*
X90027478Y-24316512D02*
X90075097Y-24411750D01*
X90075097Y-24411750D02*
X90075097Y-24506988D01*
X90075097Y-24506988D02*
X90027478Y-24649845D01*
X90027478Y-24649845D02*
X89456050Y-25221274D01*
X89456050Y-25221274D02*
X90075097Y-25221274D01*
X90646526Y-24649845D02*
X90551288Y-24602226D01*
X90551288Y-24602226D02*
X90503669Y-24554607D01*
X90503669Y-24554607D02*
X90456050Y-24459369D01*
X90456050Y-24459369D02*
X90456050Y-24411750D01*
X90456050Y-24411750D02*
X90503669Y-24316512D01*
X90503669Y-24316512D02*
X90551288Y-24268893D01*
X90551288Y-24268893D02*
X90646526Y-24221274D01*
X90646526Y-24221274D02*
X90837002Y-24221274D01*
X90837002Y-24221274D02*
X90932240Y-24268893D01*
X90932240Y-24268893D02*
X90979859Y-24316512D01*
X90979859Y-24316512D02*
X91027478Y-24411750D01*
X91027478Y-24411750D02*
X91027478Y-24459369D01*
X91027478Y-24459369D02*
X90979859Y-24554607D01*
X90979859Y-24554607D02*
X90932240Y-24602226D01*
X90932240Y-24602226D02*
X90837002Y-24649845D01*
X90837002Y-24649845D02*
X90646526Y-24649845D01*
X90646526Y-24649845D02*
X90551288Y-24697464D01*
X90551288Y-24697464D02*
X90503669Y-24745083D01*
X90503669Y-24745083D02*
X90456050Y-24840321D01*
X90456050Y-24840321D02*
X90456050Y-25030797D01*
X90456050Y-25030797D02*
X90503669Y-25126035D01*
X90503669Y-25126035D02*
X90551288Y-25173655D01*
X90551288Y-25173655D02*
X90646526Y-25221274D01*
X90646526Y-25221274D02*
X90837002Y-25221274D01*
X90837002Y-25221274D02*
X90932240Y-25173655D01*
X90932240Y-25173655D02*
X90979859Y-25126035D01*
X90979859Y-25126035D02*
X91027478Y-25030797D01*
X91027478Y-25030797D02*
X91027478Y-24840321D01*
X91027478Y-24840321D02*
X90979859Y-24745083D01*
X90979859Y-24745083D02*
X90932240Y-24697464D01*
X90932240Y-24697464D02*
X90837002Y-24649845D01*
X70753669Y-57141274D02*
X71325097Y-57141274D01*
X71039383Y-58141274D02*
X71039383Y-57141274D01*
X71658431Y-58141274D02*
X71658431Y-57141274D01*
X71658431Y-57141274D02*
X72039383Y-57141274D01*
X72039383Y-57141274D02*
X72134621Y-57188893D01*
X72134621Y-57188893D02*
X72182240Y-57236512D01*
X72182240Y-57236512D02*
X72229859Y-57331750D01*
X72229859Y-57331750D02*
X72229859Y-57474607D01*
X72229859Y-57474607D02*
X72182240Y-57569845D01*
X72182240Y-57569845D02*
X72134621Y-57617464D01*
X72134621Y-57617464D02*
X72039383Y-57665083D01*
X72039383Y-57665083D02*
X71658431Y-57665083D01*
X73182240Y-58141274D02*
X72610812Y-58141274D01*
X72896526Y-58141274D02*
X72896526Y-57141274D01*
X72896526Y-57141274D02*
X72801288Y-57284131D01*
X72801288Y-57284131D02*
X72706050Y-57379369D01*
X72706050Y-57379369D02*
X72610812Y-57426988D01*
X89122716Y-44221274D02*
X88789383Y-43745083D01*
X88551288Y-44221274D02*
X88551288Y-43221274D01*
X88551288Y-43221274D02*
X88932240Y-43221274D01*
X88932240Y-43221274D02*
X89027478Y-43268893D01*
X89027478Y-43268893D02*
X89075097Y-43316512D01*
X89075097Y-43316512D02*
X89122716Y-43411750D01*
X89122716Y-43411750D02*
X89122716Y-43554607D01*
X89122716Y-43554607D02*
X89075097Y-43649845D01*
X89075097Y-43649845D02*
X89027478Y-43697464D01*
X89027478Y-43697464D02*
X88932240Y-43745083D01*
X88932240Y-43745083D02*
X88551288Y-43745083D01*
X89503669Y-43316512D02*
X89551288Y-43268893D01*
X89551288Y-43268893D02*
X89646526Y-43221274D01*
X89646526Y-43221274D02*
X89884621Y-43221274D01*
X89884621Y-43221274D02*
X89979859Y-43268893D01*
X89979859Y-43268893D02*
X90027478Y-43316512D01*
X90027478Y-43316512D02*
X90075097Y-43411750D01*
X90075097Y-43411750D02*
X90075097Y-43506988D01*
X90075097Y-43506988D02*
X90027478Y-43649845D01*
X90027478Y-43649845D02*
X89456050Y-44221274D01*
X89456050Y-44221274D02*
X90075097Y-44221274D01*
X90932240Y-43554607D02*
X90932240Y-44221274D01*
X90694145Y-43173655D02*
X90456050Y-43887940D01*
X90456050Y-43887940D02*
X91075097Y-43887940D01*
X89122716Y-49876035D02*
X89075097Y-49923655D01*
X89075097Y-49923655D02*
X88932240Y-49971274D01*
X88932240Y-49971274D02*
X88837002Y-49971274D01*
X88837002Y-49971274D02*
X88694145Y-49923655D01*
X88694145Y-49923655D02*
X88598907Y-49828416D01*
X88598907Y-49828416D02*
X88551288Y-49733178D01*
X88551288Y-49733178D02*
X88503669Y-49542702D01*
X88503669Y-49542702D02*
X88503669Y-49399845D01*
X88503669Y-49399845D02*
X88551288Y-49209369D01*
X88551288Y-49209369D02*
X88598907Y-49114131D01*
X88598907Y-49114131D02*
X88694145Y-49018893D01*
X88694145Y-49018893D02*
X88837002Y-48971274D01*
X88837002Y-48971274D02*
X88932240Y-48971274D01*
X88932240Y-48971274D02*
X89075097Y-49018893D01*
X89075097Y-49018893D02*
X89122716Y-49066512D01*
X90075097Y-49971274D02*
X89503669Y-49971274D01*
X89789383Y-49971274D02*
X89789383Y-48971274D01*
X89789383Y-48971274D02*
X89694145Y-49114131D01*
X89694145Y-49114131D02*
X89598907Y-49209369D01*
X89598907Y-49209369D02*
X89503669Y-49256988D01*
X91027478Y-49971274D02*
X90456050Y-49971274D01*
X90741764Y-49971274D02*
X90741764Y-48971274D01*
X90741764Y-48971274D02*
X90646526Y-49114131D01*
X90646526Y-49114131D02*
X90551288Y-49209369D01*
X90551288Y-49209369D02*
X90456050Y-49256988D01*
X89122716Y-29221274D02*
X88789383Y-28745083D01*
X88551288Y-29221274D02*
X88551288Y-28221274D01*
X88551288Y-28221274D02*
X88932240Y-28221274D01*
X88932240Y-28221274D02*
X89027478Y-28268893D01*
X89027478Y-28268893D02*
X89075097Y-28316512D01*
X89075097Y-28316512D02*
X89122716Y-28411750D01*
X89122716Y-28411750D02*
X89122716Y-28554607D01*
X89122716Y-28554607D02*
X89075097Y-28649845D01*
X89075097Y-28649845D02*
X89027478Y-28697464D01*
X89027478Y-28697464D02*
X88932240Y-28745083D01*
X88932240Y-28745083D02*
X88551288Y-28745083D01*
X89503669Y-28316512D02*
X89551288Y-28268893D01*
X89551288Y-28268893D02*
X89646526Y-28221274D01*
X89646526Y-28221274D02*
X89884621Y-28221274D01*
X89884621Y-28221274D02*
X89979859Y-28268893D01*
X89979859Y-28268893D02*
X90027478Y-28316512D01*
X90027478Y-28316512D02*
X90075097Y-28411750D01*
X90075097Y-28411750D02*
X90075097Y-28506988D01*
X90075097Y-28506988D02*
X90027478Y-28649845D01*
X90027478Y-28649845D02*
X89456050Y-29221274D01*
X89456050Y-29221274D02*
X90075097Y-29221274D01*
X90408431Y-28221274D02*
X91027478Y-28221274D01*
X91027478Y-28221274D02*
X90694145Y-28602226D01*
X90694145Y-28602226D02*
X90837002Y-28602226D01*
X90837002Y-28602226D02*
X90932240Y-28649845D01*
X90932240Y-28649845D02*
X90979859Y-28697464D01*
X90979859Y-28697464D02*
X91027478Y-28792702D01*
X91027478Y-28792702D02*
X91027478Y-29030797D01*
X91027478Y-29030797D02*
X90979859Y-29126035D01*
X90979859Y-29126035D02*
X90932240Y-29173655D01*
X90932240Y-29173655D02*
X90837002Y-29221274D01*
X90837002Y-29221274D02*
X90551288Y-29221274D01*
X90551288Y-29221274D02*
X90456050Y-29173655D01*
X90456050Y-29173655D02*
X90408431Y-29126035D01*
X40622716Y-37871274D02*
X40289383Y-37395083D01*
X40051288Y-37871274D02*
X40051288Y-36871274D01*
X40051288Y-36871274D02*
X40432240Y-36871274D01*
X40432240Y-36871274D02*
X40527478Y-36918893D01*
X40527478Y-36918893D02*
X40575097Y-36966512D01*
X40575097Y-36966512D02*
X40622716Y-37061750D01*
X40622716Y-37061750D02*
X40622716Y-37204607D01*
X40622716Y-37204607D02*
X40575097Y-37299845D01*
X40575097Y-37299845D02*
X40527478Y-37347464D01*
X40527478Y-37347464D02*
X40432240Y-37395083D01*
X40432240Y-37395083D02*
X40051288Y-37395083D01*
X41575097Y-37871274D02*
X41003669Y-37871274D01*
X41289383Y-37871274D02*
X41289383Y-36871274D01*
X41289383Y-36871274D02*
X41194145Y-37014131D01*
X41194145Y-37014131D02*
X41098907Y-37109369D01*
X41098907Y-37109369D02*
X41003669Y-37156988D01*
X42146526Y-37299845D02*
X42051288Y-37252226D01*
X42051288Y-37252226D02*
X42003669Y-37204607D01*
X42003669Y-37204607D02*
X41956050Y-37109369D01*
X41956050Y-37109369D02*
X41956050Y-37061750D01*
X41956050Y-37061750D02*
X42003669Y-36966512D01*
X42003669Y-36966512D02*
X42051288Y-36918893D01*
X42051288Y-36918893D02*
X42146526Y-36871274D01*
X42146526Y-36871274D02*
X42337002Y-36871274D01*
X42337002Y-36871274D02*
X42432240Y-36918893D01*
X42432240Y-36918893D02*
X42479859Y-36966512D01*
X42479859Y-36966512D02*
X42527478Y-37061750D01*
X42527478Y-37061750D02*
X42527478Y-37109369D01*
X42527478Y-37109369D02*
X42479859Y-37204607D01*
X42479859Y-37204607D02*
X42432240Y-37252226D01*
X42432240Y-37252226D02*
X42337002Y-37299845D01*
X42337002Y-37299845D02*
X42146526Y-37299845D01*
X42146526Y-37299845D02*
X42051288Y-37347464D01*
X42051288Y-37347464D02*
X42003669Y-37395083D01*
X42003669Y-37395083D02*
X41956050Y-37490321D01*
X41956050Y-37490321D02*
X41956050Y-37680797D01*
X41956050Y-37680797D02*
X42003669Y-37776035D01*
X42003669Y-37776035D02*
X42051288Y-37823655D01*
X42051288Y-37823655D02*
X42146526Y-37871274D01*
X42146526Y-37871274D02*
X42337002Y-37871274D01*
X42337002Y-37871274D02*
X42432240Y-37823655D01*
X42432240Y-37823655D02*
X42479859Y-37776035D01*
X42479859Y-37776035D02*
X42527478Y-37680797D01*
X42527478Y-37680797D02*
X42527478Y-37490321D01*
X42527478Y-37490321D02*
X42479859Y-37395083D01*
X42479859Y-37395083D02*
X42432240Y-37347464D01*
X42432240Y-37347464D02*
X42337002Y-37299845D01*
X61122716Y-54971274D02*
X60789383Y-54495083D01*
X60551288Y-54971274D02*
X60551288Y-53971274D01*
X60551288Y-53971274D02*
X60932240Y-53971274D01*
X60932240Y-53971274D02*
X61027478Y-54018893D01*
X61027478Y-54018893D02*
X61075097Y-54066512D01*
X61075097Y-54066512D02*
X61122716Y-54161750D01*
X61122716Y-54161750D02*
X61122716Y-54304607D01*
X61122716Y-54304607D02*
X61075097Y-54399845D01*
X61075097Y-54399845D02*
X61027478Y-54447464D01*
X61027478Y-54447464D02*
X60932240Y-54495083D01*
X60932240Y-54495083D02*
X60551288Y-54495083D01*
X61503669Y-54066512D02*
X61551288Y-54018893D01*
X61551288Y-54018893D02*
X61646526Y-53971274D01*
X61646526Y-53971274D02*
X61884621Y-53971274D01*
X61884621Y-53971274D02*
X61979859Y-54018893D01*
X61979859Y-54018893D02*
X62027478Y-54066512D01*
X62027478Y-54066512D02*
X62075097Y-54161750D01*
X62075097Y-54161750D02*
X62075097Y-54256988D01*
X62075097Y-54256988D02*
X62027478Y-54399845D01*
X62027478Y-54399845D02*
X61456050Y-54971274D01*
X61456050Y-54971274D02*
X62075097Y-54971274D01*
X62694145Y-53971274D02*
X62789383Y-53971274D01*
X62789383Y-53971274D02*
X62884621Y-54018893D01*
X62884621Y-54018893D02*
X62932240Y-54066512D01*
X62932240Y-54066512D02*
X62979859Y-54161750D01*
X62979859Y-54161750D02*
X63027478Y-54352226D01*
X63027478Y-54352226D02*
X63027478Y-54590321D01*
X63027478Y-54590321D02*
X62979859Y-54780797D01*
X62979859Y-54780797D02*
X62932240Y-54876035D01*
X62932240Y-54876035D02*
X62884621Y-54923655D01*
X62884621Y-54923655D02*
X62789383Y-54971274D01*
X62789383Y-54971274D02*
X62694145Y-54971274D01*
X62694145Y-54971274D02*
X62598907Y-54923655D01*
X62598907Y-54923655D02*
X62551288Y-54876035D01*
X62551288Y-54876035D02*
X62503669Y-54780797D01*
X62503669Y-54780797D02*
X62456050Y-54590321D01*
X62456050Y-54590321D02*
X62456050Y-54352226D01*
X62456050Y-54352226D02*
X62503669Y-54161750D01*
X62503669Y-54161750D02*
X62551288Y-54066512D01*
X62551288Y-54066512D02*
X62598907Y-54018893D01*
X62598907Y-54018893D02*
X62694145Y-53971274D01*
X97027479Y-68371274D02*
X97027479Y-67371274D01*
X97027479Y-67371274D02*
X97265574Y-67371274D01*
X97265574Y-67371274D02*
X97408431Y-67418893D01*
X97408431Y-67418893D02*
X97503669Y-67514131D01*
X97503669Y-67514131D02*
X97551288Y-67609369D01*
X97551288Y-67609369D02*
X97598907Y-67799845D01*
X97598907Y-67799845D02*
X97598907Y-67942702D01*
X97598907Y-67942702D02*
X97551288Y-68133178D01*
X97551288Y-68133178D02*
X97503669Y-68228416D01*
X97503669Y-68228416D02*
X97408431Y-68323655D01*
X97408431Y-68323655D02*
X97265574Y-68371274D01*
X97265574Y-68371274D02*
X97027479Y-68371274D01*
X97932241Y-67371274D02*
X98551288Y-67371274D01*
X98551288Y-67371274D02*
X98217955Y-67752226D01*
X98217955Y-67752226D02*
X98360812Y-67752226D01*
X98360812Y-67752226D02*
X98456050Y-67799845D01*
X98456050Y-67799845D02*
X98503669Y-67847464D01*
X98503669Y-67847464D02*
X98551288Y-67942702D01*
X98551288Y-67942702D02*
X98551288Y-68180797D01*
X98551288Y-68180797D02*
X98503669Y-68276035D01*
X98503669Y-68276035D02*
X98456050Y-68323655D01*
X98456050Y-68323655D02*
X98360812Y-68371274D01*
X98360812Y-68371274D02*
X98075098Y-68371274D01*
X98075098Y-68371274D02*
X97979860Y-68323655D01*
X97979860Y-68323655D02*
X97932241Y-68276035D01*
X82122716Y-62876035D02*
X82075097Y-62923655D01*
X82075097Y-62923655D02*
X81932240Y-62971274D01*
X81932240Y-62971274D02*
X81837002Y-62971274D01*
X81837002Y-62971274D02*
X81694145Y-62923655D01*
X81694145Y-62923655D02*
X81598907Y-62828416D01*
X81598907Y-62828416D02*
X81551288Y-62733178D01*
X81551288Y-62733178D02*
X81503669Y-62542702D01*
X81503669Y-62542702D02*
X81503669Y-62399845D01*
X81503669Y-62399845D02*
X81551288Y-62209369D01*
X81551288Y-62209369D02*
X81598907Y-62114131D01*
X81598907Y-62114131D02*
X81694145Y-62018893D01*
X81694145Y-62018893D02*
X81837002Y-61971274D01*
X81837002Y-61971274D02*
X81932240Y-61971274D01*
X81932240Y-61971274D02*
X82075097Y-62018893D01*
X82075097Y-62018893D02*
X82122716Y-62066512D01*
X83075097Y-62971274D02*
X82503669Y-62971274D01*
X82789383Y-62971274D02*
X82789383Y-61971274D01*
X82789383Y-61971274D02*
X82694145Y-62114131D01*
X82694145Y-62114131D02*
X82598907Y-62209369D01*
X82598907Y-62209369D02*
X82503669Y-62256988D01*
X83932240Y-62304607D02*
X83932240Y-62971274D01*
X83694145Y-61923655D02*
X83456050Y-62637940D01*
X83456050Y-62637940D02*
X84075097Y-62637940D01*
X45502479Y-37871274D02*
X45502479Y-36871274D01*
X45502479Y-36871274D02*
X45740574Y-36871274D01*
X45740574Y-36871274D02*
X45883431Y-36918893D01*
X45883431Y-36918893D02*
X45978669Y-37014131D01*
X45978669Y-37014131D02*
X46026288Y-37109369D01*
X46026288Y-37109369D02*
X46073907Y-37299845D01*
X46073907Y-37299845D02*
X46073907Y-37442702D01*
X46073907Y-37442702D02*
X46026288Y-37633178D01*
X46026288Y-37633178D02*
X45978669Y-37728416D01*
X45978669Y-37728416D02*
X45883431Y-37823655D01*
X45883431Y-37823655D02*
X45740574Y-37871274D01*
X45740574Y-37871274D02*
X45502479Y-37871274D01*
X46407241Y-36871274D02*
X47073907Y-36871274D01*
X47073907Y-36871274D02*
X46645336Y-37871274D01*
X92848907Y-73121274D02*
X92515574Y-72645083D01*
X92277479Y-73121274D02*
X92277479Y-72121274D01*
X92277479Y-72121274D02*
X92658431Y-72121274D01*
X92658431Y-72121274D02*
X92753669Y-72168893D01*
X92753669Y-72168893D02*
X92801288Y-72216512D01*
X92801288Y-72216512D02*
X92848907Y-72311750D01*
X92848907Y-72311750D02*
X92848907Y-72454607D01*
X92848907Y-72454607D02*
X92801288Y-72549845D01*
X92801288Y-72549845D02*
X92753669Y-72597464D01*
X92753669Y-72597464D02*
X92658431Y-72645083D01*
X92658431Y-72645083D02*
X92277479Y-72645083D01*
X93420336Y-72549845D02*
X93325098Y-72502226D01*
X93325098Y-72502226D02*
X93277479Y-72454607D01*
X93277479Y-72454607D02*
X93229860Y-72359369D01*
X93229860Y-72359369D02*
X93229860Y-72311750D01*
X93229860Y-72311750D02*
X93277479Y-72216512D01*
X93277479Y-72216512D02*
X93325098Y-72168893D01*
X93325098Y-72168893D02*
X93420336Y-72121274D01*
X93420336Y-72121274D02*
X93610812Y-72121274D01*
X93610812Y-72121274D02*
X93706050Y-72168893D01*
X93706050Y-72168893D02*
X93753669Y-72216512D01*
X93753669Y-72216512D02*
X93801288Y-72311750D01*
X93801288Y-72311750D02*
X93801288Y-72359369D01*
X93801288Y-72359369D02*
X93753669Y-72454607D01*
X93753669Y-72454607D02*
X93706050Y-72502226D01*
X93706050Y-72502226D02*
X93610812Y-72549845D01*
X93610812Y-72549845D02*
X93420336Y-72549845D01*
X93420336Y-72549845D02*
X93325098Y-72597464D01*
X93325098Y-72597464D02*
X93277479Y-72645083D01*
X93277479Y-72645083D02*
X93229860Y-72740321D01*
X93229860Y-72740321D02*
X93229860Y-72930797D01*
X93229860Y-72930797D02*
X93277479Y-73026035D01*
X93277479Y-73026035D02*
X93325098Y-73073655D01*
X93325098Y-73073655D02*
X93420336Y-73121274D01*
X93420336Y-73121274D02*
X93610812Y-73121274D01*
X93610812Y-73121274D02*
X93706050Y-73073655D01*
X93706050Y-73073655D02*
X93753669Y-73026035D01*
X93753669Y-73026035D02*
X93801288Y-72930797D01*
X93801288Y-72930797D02*
X93801288Y-72740321D01*
X93801288Y-72740321D02*
X93753669Y-72645083D01*
X93753669Y-72645083D02*
X93706050Y-72597464D01*
X93706050Y-72597464D02*
X93610812Y-72549845D01*
X40622716Y-41776274D02*
X40289383Y-41300083D01*
X40051288Y-41776274D02*
X40051288Y-40776274D01*
X40051288Y-40776274D02*
X40432240Y-40776274D01*
X40432240Y-40776274D02*
X40527478Y-40823893D01*
X40527478Y-40823893D02*
X40575097Y-40871512D01*
X40575097Y-40871512D02*
X40622716Y-40966750D01*
X40622716Y-40966750D02*
X40622716Y-41109607D01*
X40622716Y-41109607D02*
X40575097Y-41204845D01*
X40575097Y-41204845D02*
X40527478Y-41252464D01*
X40527478Y-41252464D02*
X40432240Y-41300083D01*
X40432240Y-41300083D02*
X40051288Y-41300083D01*
X41575097Y-41776274D02*
X41003669Y-41776274D01*
X41289383Y-41776274D02*
X41289383Y-40776274D01*
X41289383Y-40776274D02*
X41194145Y-40919131D01*
X41194145Y-40919131D02*
X41098907Y-41014369D01*
X41098907Y-41014369D02*
X41003669Y-41061988D01*
X41908431Y-40776274D02*
X42575097Y-40776274D01*
X42575097Y-40776274D02*
X42146526Y-41776274D01*
X65122716Y-29221274D02*
X64789383Y-28745083D01*
X64551288Y-29221274D02*
X64551288Y-28221274D01*
X64551288Y-28221274D02*
X64932240Y-28221274D01*
X64932240Y-28221274D02*
X65027478Y-28268893D01*
X65027478Y-28268893D02*
X65075097Y-28316512D01*
X65075097Y-28316512D02*
X65122716Y-28411750D01*
X65122716Y-28411750D02*
X65122716Y-28554607D01*
X65122716Y-28554607D02*
X65075097Y-28649845D01*
X65075097Y-28649845D02*
X65027478Y-28697464D01*
X65027478Y-28697464D02*
X64932240Y-28745083D01*
X64932240Y-28745083D02*
X64551288Y-28745083D01*
X66075097Y-29221274D02*
X65503669Y-29221274D01*
X65789383Y-29221274D02*
X65789383Y-28221274D01*
X65789383Y-28221274D02*
X65694145Y-28364131D01*
X65694145Y-28364131D02*
X65598907Y-28459369D01*
X65598907Y-28459369D02*
X65503669Y-28506988D01*
X66932240Y-28554607D02*
X66932240Y-29221274D01*
X66694145Y-28173655D02*
X66456050Y-28887940D01*
X66456050Y-28887940D02*
X67075097Y-28887940D01*
X57593454Y-69358360D02*
X58593454Y-69358360D01*
X57593454Y-69929788D02*
X58164883Y-69501217D01*
X58593454Y-69929788D02*
X58022026Y-69358360D01*
X58498216Y-70310741D02*
X58545835Y-70358360D01*
X58545835Y-70358360D02*
X58593454Y-70453598D01*
X58593454Y-70453598D02*
X58593454Y-70691693D01*
X58593454Y-70691693D02*
X58545835Y-70786931D01*
X58545835Y-70786931D02*
X58498216Y-70834550D01*
X58498216Y-70834550D02*
X58402978Y-70882169D01*
X58402978Y-70882169D02*
X58307740Y-70882169D01*
X58307740Y-70882169D02*
X58164883Y-70834550D01*
X58164883Y-70834550D02*
X57593454Y-70263122D01*
X57593454Y-70263122D02*
X57593454Y-70882169D01*
X81765573Y-61785167D02*
X81765573Y-61547072D01*
X82003668Y-61642310D02*
X81765573Y-61547072D01*
X81765573Y-61547072D02*
X81527478Y-61642310D01*
X81908430Y-61356596D02*
X81765573Y-61547072D01*
X81765573Y-61547072D02*
X81622716Y-61356596D01*
X81765574Y-60694806D02*
X81765574Y-60932901D01*
X81527479Y-60837663D02*
X81765574Y-60932901D01*
X81765574Y-60932901D02*
X82003669Y-60837663D01*
X81622717Y-61123377D02*
X81765574Y-60932901D01*
X81765574Y-60932901D02*
X81908431Y-61123377D01*
X59003669Y-40971274D02*
X59003669Y-41780797D01*
X59003669Y-41780797D02*
X59051288Y-41876035D01*
X59051288Y-41876035D02*
X59098907Y-41923655D01*
X59098907Y-41923655D02*
X59194145Y-41971274D01*
X59194145Y-41971274D02*
X59384621Y-41971274D01*
X59384621Y-41971274D02*
X59479859Y-41923655D01*
X59479859Y-41923655D02*
X59527478Y-41876035D01*
X59527478Y-41876035D02*
X59575097Y-41780797D01*
X59575097Y-41780797D02*
X59575097Y-40971274D01*
X60194145Y-41399845D02*
X60098907Y-41352226D01*
X60098907Y-41352226D02*
X60051288Y-41304607D01*
X60051288Y-41304607D02*
X60003669Y-41209369D01*
X60003669Y-41209369D02*
X60003669Y-41161750D01*
X60003669Y-41161750D02*
X60051288Y-41066512D01*
X60051288Y-41066512D02*
X60098907Y-41018893D01*
X60098907Y-41018893D02*
X60194145Y-40971274D01*
X60194145Y-40971274D02*
X60384621Y-40971274D01*
X60384621Y-40971274D02*
X60479859Y-41018893D01*
X60479859Y-41018893D02*
X60527478Y-41066512D01*
X60527478Y-41066512D02*
X60575097Y-41161750D01*
X60575097Y-41161750D02*
X60575097Y-41209369D01*
X60575097Y-41209369D02*
X60527478Y-41304607D01*
X60527478Y-41304607D02*
X60479859Y-41352226D01*
X60479859Y-41352226D02*
X60384621Y-41399845D01*
X60384621Y-41399845D02*
X60194145Y-41399845D01*
X60194145Y-41399845D02*
X60098907Y-41447464D01*
X60098907Y-41447464D02*
X60051288Y-41495083D01*
X60051288Y-41495083D02*
X60003669Y-41590321D01*
X60003669Y-41590321D02*
X60003669Y-41780797D01*
X60003669Y-41780797D02*
X60051288Y-41876035D01*
X60051288Y-41876035D02*
X60098907Y-41923655D01*
X60098907Y-41923655D02*
X60194145Y-41971274D01*
X60194145Y-41971274D02*
X60384621Y-41971274D01*
X60384621Y-41971274D02*
X60479859Y-41923655D01*
X60479859Y-41923655D02*
X60527478Y-41876035D01*
X60527478Y-41876035D02*
X60575097Y-41780797D01*
X60575097Y-41780797D02*
X60575097Y-41590321D01*
X60575097Y-41590321D02*
X60527478Y-41495083D01*
X60527478Y-41495083D02*
X60479859Y-41447464D01*
X60479859Y-41447464D02*
X60384621Y-41399845D01*
X79098907Y-58876035D02*
X79051288Y-58923655D01*
X79051288Y-58923655D02*
X78908431Y-58971274D01*
X78908431Y-58971274D02*
X78813193Y-58971274D01*
X78813193Y-58971274D02*
X78670336Y-58923655D01*
X78670336Y-58923655D02*
X78575098Y-58828416D01*
X78575098Y-58828416D02*
X78527479Y-58733178D01*
X78527479Y-58733178D02*
X78479860Y-58542702D01*
X78479860Y-58542702D02*
X78479860Y-58399845D01*
X78479860Y-58399845D02*
X78527479Y-58209369D01*
X78527479Y-58209369D02*
X78575098Y-58114131D01*
X78575098Y-58114131D02*
X78670336Y-58018893D01*
X78670336Y-58018893D02*
X78813193Y-57971274D01*
X78813193Y-57971274D02*
X78908431Y-57971274D01*
X78908431Y-57971274D02*
X79051288Y-58018893D01*
X79051288Y-58018893D02*
X79098907Y-58066512D01*
X79575098Y-58971274D02*
X79765574Y-58971274D01*
X79765574Y-58971274D02*
X79860812Y-58923655D01*
X79860812Y-58923655D02*
X79908431Y-58876035D01*
X79908431Y-58876035D02*
X80003669Y-58733178D01*
X80003669Y-58733178D02*
X80051288Y-58542702D01*
X80051288Y-58542702D02*
X80051288Y-58161750D01*
X80051288Y-58161750D02*
X80003669Y-58066512D01*
X80003669Y-58066512D02*
X79956050Y-58018893D01*
X79956050Y-58018893D02*
X79860812Y-57971274D01*
X79860812Y-57971274D02*
X79670336Y-57971274D01*
X79670336Y-57971274D02*
X79575098Y-58018893D01*
X79575098Y-58018893D02*
X79527479Y-58066512D01*
X79527479Y-58066512D02*
X79479860Y-58161750D01*
X79479860Y-58161750D02*
X79479860Y-58399845D01*
X79479860Y-58399845D02*
X79527479Y-58495083D01*
X79527479Y-58495083D02*
X79575098Y-58542702D01*
X79575098Y-58542702D02*
X79670336Y-58590321D01*
X79670336Y-58590321D02*
X79860812Y-58590321D01*
X79860812Y-58590321D02*
X79956050Y-58542702D01*
X79956050Y-58542702D02*
X80003669Y-58495083D01*
X80003669Y-58495083D02*
X80051288Y-58399845D01*
X101598907Y-39771274D02*
X101265574Y-39295083D01*
X101027479Y-39771274D02*
X101027479Y-38771274D01*
X101027479Y-38771274D02*
X101408431Y-38771274D01*
X101408431Y-38771274D02*
X101503669Y-38818893D01*
X101503669Y-38818893D02*
X101551288Y-38866512D01*
X101551288Y-38866512D02*
X101598907Y-38961750D01*
X101598907Y-38961750D02*
X101598907Y-39104607D01*
X101598907Y-39104607D02*
X101551288Y-39199845D01*
X101551288Y-39199845D02*
X101503669Y-39247464D01*
X101503669Y-39247464D02*
X101408431Y-39295083D01*
X101408431Y-39295083D02*
X101027479Y-39295083D01*
X102456050Y-38771274D02*
X102265574Y-38771274D01*
X102265574Y-38771274D02*
X102170336Y-38818893D01*
X102170336Y-38818893D02*
X102122717Y-38866512D01*
X102122717Y-38866512D02*
X102027479Y-39009369D01*
X102027479Y-39009369D02*
X101979860Y-39199845D01*
X101979860Y-39199845D02*
X101979860Y-39580797D01*
X101979860Y-39580797D02*
X102027479Y-39676035D01*
X102027479Y-39676035D02*
X102075098Y-39723655D01*
X102075098Y-39723655D02*
X102170336Y-39771274D01*
X102170336Y-39771274D02*
X102360812Y-39771274D01*
X102360812Y-39771274D02*
X102456050Y-39723655D01*
X102456050Y-39723655D02*
X102503669Y-39676035D01*
X102503669Y-39676035D02*
X102551288Y-39580797D01*
X102551288Y-39580797D02*
X102551288Y-39342702D01*
X102551288Y-39342702D02*
X102503669Y-39247464D01*
X102503669Y-39247464D02*
X102456050Y-39199845D01*
X102456050Y-39199845D02*
X102360812Y-39152226D01*
X102360812Y-39152226D02*
X102170336Y-39152226D01*
X102170336Y-39152226D02*
X102075098Y-39199845D01*
X102075098Y-39199845D02*
X102027479Y-39247464D01*
X102027479Y-39247464D02*
X101979860Y-39342702D01*
X69122716Y-54971274D02*
X68789383Y-54495083D01*
X68551288Y-54971274D02*
X68551288Y-53971274D01*
X68551288Y-53971274D02*
X68932240Y-53971274D01*
X68932240Y-53971274D02*
X69027478Y-54018893D01*
X69027478Y-54018893D02*
X69075097Y-54066512D01*
X69075097Y-54066512D02*
X69122716Y-54161750D01*
X69122716Y-54161750D02*
X69122716Y-54304607D01*
X69122716Y-54304607D02*
X69075097Y-54399845D01*
X69075097Y-54399845D02*
X69027478Y-54447464D01*
X69027478Y-54447464D02*
X68932240Y-54495083D01*
X68932240Y-54495083D02*
X68551288Y-54495083D01*
X69503669Y-54066512D02*
X69551288Y-54018893D01*
X69551288Y-54018893D02*
X69646526Y-53971274D01*
X69646526Y-53971274D02*
X69884621Y-53971274D01*
X69884621Y-53971274D02*
X69979859Y-54018893D01*
X69979859Y-54018893D02*
X70027478Y-54066512D01*
X70027478Y-54066512D02*
X70075097Y-54161750D01*
X70075097Y-54161750D02*
X70075097Y-54256988D01*
X70075097Y-54256988D02*
X70027478Y-54399845D01*
X70027478Y-54399845D02*
X69456050Y-54971274D01*
X69456050Y-54971274D02*
X70075097Y-54971274D01*
X70456050Y-54066512D02*
X70503669Y-54018893D01*
X70503669Y-54018893D02*
X70598907Y-53971274D01*
X70598907Y-53971274D02*
X70837002Y-53971274D01*
X70837002Y-53971274D02*
X70932240Y-54018893D01*
X70932240Y-54018893D02*
X70979859Y-54066512D01*
X70979859Y-54066512D02*
X71027478Y-54161750D01*
X71027478Y-54161750D02*
X71027478Y-54256988D01*
X71027478Y-54256988D02*
X70979859Y-54399845D01*
X70979859Y-54399845D02*
X70408431Y-54971274D01*
X70408431Y-54971274D02*
X71027478Y-54971274D01*
X83003669Y-41171274D02*
X83003669Y-41980797D01*
X83003669Y-41980797D02*
X83051288Y-42076035D01*
X83051288Y-42076035D02*
X83098907Y-42123655D01*
X83098907Y-42123655D02*
X83194145Y-42171274D01*
X83194145Y-42171274D02*
X83384621Y-42171274D01*
X83384621Y-42171274D02*
X83479859Y-42123655D01*
X83479859Y-42123655D02*
X83527478Y-42076035D01*
X83527478Y-42076035D02*
X83575097Y-41980797D01*
X83575097Y-41980797D02*
X83575097Y-41171274D01*
X84479859Y-41171274D02*
X84289383Y-41171274D01*
X84289383Y-41171274D02*
X84194145Y-41218893D01*
X84194145Y-41218893D02*
X84146526Y-41266512D01*
X84146526Y-41266512D02*
X84051288Y-41409369D01*
X84051288Y-41409369D02*
X84003669Y-41599845D01*
X84003669Y-41599845D02*
X84003669Y-41980797D01*
X84003669Y-41980797D02*
X84051288Y-42076035D01*
X84051288Y-42076035D02*
X84098907Y-42123655D01*
X84098907Y-42123655D02*
X84194145Y-42171274D01*
X84194145Y-42171274D02*
X84384621Y-42171274D01*
X84384621Y-42171274D02*
X84479859Y-42123655D01*
X84479859Y-42123655D02*
X84527478Y-42076035D01*
X84527478Y-42076035D02*
X84575097Y-41980797D01*
X84575097Y-41980797D02*
X84575097Y-41742702D01*
X84575097Y-41742702D02*
X84527478Y-41647464D01*
X84527478Y-41647464D02*
X84479859Y-41599845D01*
X84479859Y-41599845D02*
X84384621Y-41552226D01*
X84384621Y-41552226D02*
X84194145Y-41552226D01*
X84194145Y-41552226D02*
X84098907Y-41599845D01*
X84098907Y-41599845D02*
X84051288Y-41647464D01*
X84051288Y-41647464D02*
X84003669Y-41742702D01*
X95003669Y-40891274D02*
X95003669Y-41700797D01*
X95003669Y-41700797D02*
X95051288Y-41796035D01*
X95051288Y-41796035D02*
X95098907Y-41843655D01*
X95098907Y-41843655D02*
X95194145Y-41891274D01*
X95194145Y-41891274D02*
X95384621Y-41891274D01*
X95384621Y-41891274D02*
X95479859Y-41843655D01*
X95479859Y-41843655D02*
X95527478Y-41796035D01*
X95527478Y-41796035D02*
X95575097Y-41700797D01*
X95575097Y-41700797D02*
X95575097Y-40891274D01*
X96098907Y-41891274D02*
X96289383Y-41891274D01*
X96289383Y-41891274D02*
X96384621Y-41843655D01*
X96384621Y-41843655D02*
X96432240Y-41796035D01*
X96432240Y-41796035D02*
X96527478Y-41653178D01*
X96527478Y-41653178D02*
X96575097Y-41462702D01*
X96575097Y-41462702D02*
X96575097Y-41081750D01*
X96575097Y-41081750D02*
X96527478Y-40986512D01*
X96527478Y-40986512D02*
X96479859Y-40938893D01*
X96479859Y-40938893D02*
X96384621Y-40891274D01*
X96384621Y-40891274D02*
X96194145Y-40891274D01*
X96194145Y-40891274D02*
X96098907Y-40938893D01*
X96098907Y-40938893D02*
X96051288Y-40986512D01*
X96051288Y-40986512D02*
X96003669Y-41081750D01*
X96003669Y-41081750D02*
X96003669Y-41319845D01*
X96003669Y-41319845D02*
X96051288Y-41415083D01*
X96051288Y-41415083D02*
X96098907Y-41462702D01*
X96098907Y-41462702D02*
X96194145Y-41510321D01*
X96194145Y-41510321D02*
X96384621Y-41510321D01*
X96384621Y-41510321D02*
X96479859Y-41462702D01*
X96479859Y-41462702D02*
X96527478Y-41415083D01*
X96527478Y-41415083D02*
X96575097Y-41319845D01*
X101598907Y-44676035D02*
X101551288Y-44723655D01*
X101551288Y-44723655D02*
X101408431Y-44771274D01*
X101408431Y-44771274D02*
X101313193Y-44771274D01*
X101313193Y-44771274D02*
X101170336Y-44723655D01*
X101170336Y-44723655D02*
X101075098Y-44628416D01*
X101075098Y-44628416D02*
X101027479Y-44533178D01*
X101027479Y-44533178D02*
X100979860Y-44342702D01*
X100979860Y-44342702D02*
X100979860Y-44199845D01*
X100979860Y-44199845D02*
X101027479Y-44009369D01*
X101027479Y-44009369D02*
X101075098Y-43914131D01*
X101075098Y-43914131D02*
X101170336Y-43818893D01*
X101170336Y-43818893D02*
X101313193Y-43771274D01*
X101313193Y-43771274D02*
X101408431Y-43771274D01*
X101408431Y-43771274D02*
X101551288Y-43818893D01*
X101551288Y-43818893D02*
X101598907Y-43866512D01*
X102456050Y-44104607D02*
X102456050Y-44771274D01*
X102217955Y-43723655D02*
X101979860Y-44437940D01*
X101979860Y-44437940D02*
X102598907Y-44437940D01*
X86848907Y-62971274D02*
X86515574Y-62495083D01*
X86277479Y-62971274D02*
X86277479Y-61971274D01*
X86277479Y-61971274D02*
X86658431Y-61971274D01*
X86658431Y-61971274D02*
X86753669Y-62018893D01*
X86753669Y-62018893D02*
X86801288Y-62066512D01*
X86801288Y-62066512D02*
X86848907Y-62161750D01*
X86848907Y-62161750D02*
X86848907Y-62304607D01*
X86848907Y-62304607D02*
X86801288Y-62399845D01*
X86801288Y-62399845D02*
X86753669Y-62447464D01*
X86753669Y-62447464D02*
X86658431Y-62495083D01*
X86658431Y-62495083D02*
X86277479Y-62495083D01*
X87229860Y-62066512D02*
X87277479Y-62018893D01*
X87277479Y-62018893D02*
X87372717Y-61971274D01*
X87372717Y-61971274D02*
X87610812Y-61971274D01*
X87610812Y-61971274D02*
X87706050Y-62018893D01*
X87706050Y-62018893D02*
X87753669Y-62066512D01*
X87753669Y-62066512D02*
X87801288Y-62161750D01*
X87801288Y-62161750D02*
X87801288Y-62256988D01*
X87801288Y-62256988D02*
X87753669Y-62399845D01*
X87753669Y-62399845D02*
X87182241Y-62971274D01*
X87182241Y-62971274D02*
X87801288Y-62971274D01*
X92873907Y-77121274D02*
X92540574Y-76645083D01*
X92302479Y-77121274D02*
X92302479Y-76121274D01*
X92302479Y-76121274D02*
X92683431Y-76121274D01*
X92683431Y-76121274D02*
X92778669Y-76168893D01*
X92778669Y-76168893D02*
X92826288Y-76216512D01*
X92826288Y-76216512D02*
X92873907Y-76311750D01*
X92873907Y-76311750D02*
X92873907Y-76454607D01*
X92873907Y-76454607D02*
X92826288Y-76549845D01*
X92826288Y-76549845D02*
X92778669Y-76597464D01*
X92778669Y-76597464D02*
X92683431Y-76645083D01*
X92683431Y-76645083D02*
X92302479Y-76645083D01*
X93207241Y-76121274D02*
X93873907Y-76121274D01*
X93873907Y-76121274D02*
X93445336Y-77121274D01*
X53598907Y-49626035D02*
X53551288Y-49673655D01*
X53551288Y-49673655D02*
X53408431Y-49721274D01*
X53408431Y-49721274D02*
X53313193Y-49721274D01*
X53313193Y-49721274D02*
X53170336Y-49673655D01*
X53170336Y-49673655D02*
X53075098Y-49578416D01*
X53075098Y-49578416D02*
X53027479Y-49483178D01*
X53027479Y-49483178D02*
X52979860Y-49292702D01*
X52979860Y-49292702D02*
X52979860Y-49149845D01*
X52979860Y-49149845D02*
X53027479Y-48959369D01*
X53027479Y-48959369D02*
X53075098Y-48864131D01*
X53075098Y-48864131D02*
X53170336Y-48768893D01*
X53170336Y-48768893D02*
X53313193Y-48721274D01*
X53313193Y-48721274D02*
X53408431Y-48721274D01*
X53408431Y-48721274D02*
X53551288Y-48768893D01*
X53551288Y-48768893D02*
X53598907Y-48816512D01*
X54170336Y-49149845D02*
X54075098Y-49102226D01*
X54075098Y-49102226D02*
X54027479Y-49054607D01*
X54027479Y-49054607D02*
X53979860Y-48959369D01*
X53979860Y-48959369D02*
X53979860Y-48911750D01*
X53979860Y-48911750D02*
X54027479Y-48816512D01*
X54027479Y-48816512D02*
X54075098Y-48768893D01*
X54075098Y-48768893D02*
X54170336Y-48721274D01*
X54170336Y-48721274D02*
X54360812Y-48721274D01*
X54360812Y-48721274D02*
X54456050Y-48768893D01*
X54456050Y-48768893D02*
X54503669Y-48816512D01*
X54503669Y-48816512D02*
X54551288Y-48911750D01*
X54551288Y-48911750D02*
X54551288Y-48959369D01*
X54551288Y-48959369D02*
X54503669Y-49054607D01*
X54503669Y-49054607D02*
X54456050Y-49102226D01*
X54456050Y-49102226D02*
X54360812Y-49149845D01*
X54360812Y-49149845D02*
X54170336Y-49149845D01*
X54170336Y-49149845D02*
X54075098Y-49197464D01*
X54075098Y-49197464D02*
X54027479Y-49245083D01*
X54027479Y-49245083D02*
X53979860Y-49340321D01*
X53979860Y-49340321D02*
X53979860Y-49530797D01*
X53979860Y-49530797D02*
X54027479Y-49626035D01*
X54027479Y-49626035D02*
X54075098Y-49673655D01*
X54075098Y-49673655D02*
X54170336Y-49721274D01*
X54170336Y-49721274D02*
X54360812Y-49721274D01*
X54360812Y-49721274D02*
X54456050Y-49673655D01*
X54456050Y-49673655D02*
X54503669Y-49626035D01*
X54503669Y-49626035D02*
X54551288Y-49530797D01*
X54551288Y-49530797D02*
X54551288Y-49340321D01*
X54551288Y-49340321D02*
X54503669Y-49245083D01*
X54503669Y-49245083D02*
X54456050Y-49197464D01*
X54456050Y-49197464D02*
X54360812Y-49149845D01*
X93598907Y-27471274D02*
X93265574Y-26995083D01*
X93027479Y-27471274D02*
X93027479Y-26471274D01*
X93027479Y-26471274D02*
X93408431Y-26471274D01*
X93408431Y-26471274D02*
X93503669Y-26518893D01*
X93503669Y-26518893D02*
X93551288Y-26566512D01*
X93551288Y-26566512D02*
X93598907Y-26661750D01*
X93598907Y-26661750D02*
X93598907Y-26804607D01*
X93598907Y-26804607D02*
X93551288Y-26899845D01*
X93551288Y-26899845D02*
X93503669Y-26947464D01*
X93503669Y-26947464D02*
X93408431Y-26995083D01*
X93408431Y-26995083D02*
X93027479Y-26995083D01*
X93932241Y-26471274D02*
X94551288Y-26471274D01*
X94551288Y-26471274D02*
X94217955Y-26852226D01*
X94217955Y-26852226D02*
X94360812Y-26852226D01*
X94360812Y-26852226D02*
X94456050Y-26899845D01*
X94456050Y-26899845D02*
X94503669Y-26947464D01*
X94503669Y-26947464D02*
X94551288Y-27042702D01*
X94551288Y-27042702D02*
X94551288Y-27280797D01*
X94551288Y-27280797D02*
X94503669Y-27376035D01*
X94503669Y-27376035D02*
X94456050Y-27423655D01*
X94456050Y-27423655D02*
X94360812Y-27471274D01*
X94360812Y-27471274D02*
X94075098Y-27471274D01*
X94075098Y-27471274D02*
X93979860Y-27423655D01*
X93979860Y-27423655D02*
X93932241Y-27376035D01*
X83527479Y-52821274D02*
X83527479Y-53630797D01*
X83527479Y-53630797D02*
X83575098Y-53726035D01*
X83575098Y-53726035D02*
X83622717Y-53773655D01*
X83622717Y-53773655D02*
X83717955Y-53821274D01*
X83717955Y-53821274D02*
X83908431Y-53821274D01*
X83908431Y-53821274D02*
X84003669Y-53773655D01*
X84003669Y-53773655D02*
X84051288Y-53726035D01*
X84051288Y-53726035D02*
X84098907Y-53630797D01*
X84098907Y-53630797D02*
X84098907Y-52821274D01*
X85098907Y-53821274D02*
X84527479Y-53821274D01*
X84813193Y-53821274D02*
X84813193Y-52821274D01*
X84813193Y-52821274D02*
X84717955Y-52964131D01*
X84717955Y-52964131D02*
X84622717Y-53059369D01*
X84622717Y-53059369D02*
X84527479Y-53106988D01*
X85432241Y-52821274D02*
X86051288Y-52821274D01*
X86051288Y-52821274D02*
X85717955Y-53202226D01*
X85717955Y-53202226D02*
X85860812Y-53202226D01*
X85860812Y-53202226D02*
X85956050Y-53249845D01*
X85956050Y-53249845D02*
X86003669Y-53297464D01*
X86003669Y-53297464D02*
X86051288Y-53392702D01*
X86051288Y-53392702D02*
X86051288Y-53630797D01*
X86051288Y-53630797D02*
X86003669Y-53726035D01*
X86003669Y-53726035D02*
X85956050Y-53773655D01*
X85956050Y-53773655D02*
X85860812Y-53821274D01*
X85860812Y-53821274D02*
X85575098Y-53821274D01*
X85575098Y-53821274D02*
X85479860Y-53773655D01*
X85479860Y-53773655D02*
X85432241Y-53726035D01*
X95098907Y-53226035D02*
X95051288Y-53273655D01*
X95051288Y-53273655D02*
X94908431Y-53321274D01*
X94908431Y-53321274D02*
X94813193Y-53321274D01*
X94813193Y-53321274D02*
X94670336Y-53273655D01*
X94670336Y-53273655D02*
X94575098Y-53178416D01*
X94575098Y-53178416D02*
X94527479Y-53083178D01*
X94527479Y-53083178D02*
X94479860Y-52892702D01*
X94479860Y-52892702D02*
X94479860Y-52749845D01*
X94479860Y-52749845D02*
X94527479Y-52559369D01*
X94527479Y-52559369D02*
X94575098Y-52464131D01*
X94575098Y-52464131D02*
X94670336Y-52368893D01*
X94670336Y-52368893D02*
X94813193Y-52321274D01*
X94813193Y-52321274D02*
X94908431Y-52321274D01*
X94908431Y-52321274D02*
X95051288Y-52368893D01*
X95051288Y-52368893D02*
X95098907Y-52416512D01*
X96098907Y-53321274D02*
X95765574Y-52845083D01*
X95527479Y-53321274D02*
X95527479Y-52321274D01*
X95527479Y-52321274D02*
X95908431Y-52321274D01*
X95908431Y-52321274D02*
X96003669Y-52368893D01*
X96003669Y-52368893D02*
X96051288Y-52416512D01*
X96051288Y-52416512D02*
X96098907Y-52511750D01*
X96098907Y-52511750D02*
X96098907Y-52654607D01*
X96098907Y-52654607D02*
X96051288Y-52749845D01*
X96051288Y-52749845D02*
X96003669Y-52797464D01*
X96003669Y-52797464D02*
X95908431Y-52845083D01*
X95908431Y-52845083D02*
X95527479Y-52845083D01*
X97051288Y-53321274D02*
X96479860Y-53321274D01*
X96765574Y-53321274D02*
X96765574Y-52321274D01*
X96765574Y-52321274D02*
X96670336Y-52464131D01*
X96670336Y-52464131D02*
X96575098Y-52559369D01*
X96575098Y-52559369D02*
X96479860Y-52606988D01*
X57122716Y-54971274D02*
X56789383Y-54495083D01*
X56551288Y-54971274D02*
X56551288Y-53971274D01*
X56551288Y-53971274D02*
X56932240Y-53971274D01*
X56932240Y-53971274D02*
X57027478Y-54018893D01*
X57027478Y-54018893D02*
X57075097Y-54066512D01*
X57075097Y-54066512D02*
X57122716Y-54161750D01*
X57122716Y-54161750D02*
X57122716Y-54304607D01*
X57122716Y-54304607D02*
X57075097Y-54399845D01*
X57075097Y-54399845D02*
X57027478Y-54447464D01*
X57027478Y-54447464D02*
X56932240Y-54495083D01*
X56932240Y-54495083D02*
X56551288Y-54495083D01*
X58075097Y-54971274D02*
X57503669Y-54971274D01*
X57789383Y-54971274D02*
X57789383Y-53971274D01*
X57789383Y-53971274D02*
X57694145Y-54114131D01*
X57694145Y-54114131D02*
X57598907Y-54209369D01*
X57598907Y-54209369D02*
X57503669Y-54256988D01*
X58551288Y-54971274D02*
X58741764Y-54971274D01*
X58741764Y-54971274D02*
X58837002Y-54923655D01*
X58837002Y-54923655D02*
X58884621Y-54876035D01*
X58884621Y-54876035D02*
X58979859Y-54733178D01*
X58979859Y-54733178D02*
X59027478Y-54542702D01*
X59027478Y-54542702D02*
X59027478Y-54161750D01*
X59027478Y-54161750D02*
X58979859Y-54066512D01*
X58979859Y-54066512D02*
X58932240Y-54018893D01*
X58932240Y-54018893D02*
X58837002Y-53971274D01*
X58837002Y-53971274D02*
X58646526Y-53971274D01*
X58646526Y-53971274D02*
X58551288Y-54018893D01*
X58551288Y-54018893D02*
X58503669Y-54066512D01*
X58503669Y-54066512D02*
X58456050Y-54161750D01*
X58456050Y-54161750D02*
X58456050Y-54399845D01*
X58456050Y-54399845D02*
X58503669Y-54495083D01*
X58503669Y-54495083D02*
X58551288Y-54542702D01*
X58551288Y-54542702D02*
X58646526Y-54590321D01*
X58646526Y-54590321D02*
X58837002Y-54590321D01*
X58837002Y-54590321D02*
X58932240Y-54542702D01*
X58932240Y-54542702D02*
X58979859Y-54495083D01*
X58979859Y-54495083D02*
X59027478Y-54399845D01*
X92623907Y-68371274D02*
X92290574Y-67895083D01*
X92052479Y-68371274D02*
X92052479Y-67371274D01*
X92052479Y-67371274D02*
X92433431Y-67371274D01*
X92433431Y-67371274D02*
X92528669Y-67418893D01*
X92528669Y-67418893D02*
X92576288Y-67466512D01*
X92576288Y-67466512D02*
X92623907Y-67561750D01*
X92623907Y-67561750D02*
X92623907Y-67704607D01*
X92623907Y-67704607D02*
X92576288Y-67799845D01*
X92576288Y-67799845D02*
X92528669Y-67847464D01*
X92528669Y-67847464D02*
X92433431Y-67895083D01*
X92433431Y-67895083D02*
X92052479Y-67895083D01*
X93100098Y-68371274D02*
X93290574Y-68371274D01*
X93290574Y-68371274D02*
X93385812Y-68323655D01*
X93385812Y-68323655D02*
X93433431Y-68276035D01*
X93433431Y-68276035D02*
X93528669Y-68133178D01*
X93528669Y-68133178D02*
X93576288Y-67942702D01*
X93576288Y-67942702D02*
X93576288Y-67561750D01*
X93576288Y-67561750D02*
X93528669Y-67466512D01*
X93528669Y-67466512D02*
X93481050Y-67418893D01*
X93481050Y-67418893D02*
X93385812Y-67371274D01*
X93385812Y-67371274D02*
X93195336Y-67371274D01*
X93195336Y-67371274D02*
X93100098Y-67418893D01*
X93100098Y-67418893D02*
X93052479Y-67466512D01*
X93052479Y-67466512D02*
X93004860Y-67561750D01*
X93004860Y-67561750D02*
X93004860Y-67799845D01*
X93004860Y-67799845D02*
X93052479Y-67895083D01*
X93052479Y-67895083D02*
X93100098Y-67942702D01*
X93100098Y-67942702D02*
X93195336Y-67990321D01*
X93195336Y-67990321D02*
X93385812Y-67990321D01*
X93385812Y-67990321D02*
X93481050Y-67942702D01*
X93481050Y-67942702D02*
X93528669Y-67895083D01*
X93528669Y-67895083D02*
X93576288Y-67799845D01*
X53598907Y-38626035D02*
X53551288Y-38673655D01*
X53551288Y-38673655D02*
X53408431Y-38721274D01*
X53408431Y-38721274D02*
X53313193Y-38721274D01*
X53313193Y-38721274D02*
X53170336Y-38673655D01*
X53170336Y-38673655D02*
X53075098Y-38578416D01*
X53075098Y-38578416D02*
X53027479Y-38483178D01*
X53027479Y-38483178D02*
X52979860Y-38292702D01*
X52979860Y-38292702D02*
X52979860Y-38149845D01*
X52979860Y-38149845D02*
X53027479Y-37959369D01*
X53027479Y-37959369D02*
X53075098Y-37864131D01*
X53075098Y-37864131D02*
X53170336Y-37768893D01*
X53170336Y-37768893D02*
X53313193Y-37721274D01*
X53313193Y-37721274D02*
X53408431Y-37721274D01*
X53408431Y-37721274D02*
X53551288Y-37768893D01*
X53551288Y-37768893D02*
X53598907Y-37816512D01*
X54551288Y-38721274D02*
X53979860Y-38721274D01*
X54265574Y-38721274D02*
X54265574Y-37721274D01*
X54265574Y-37721274D02*
X54170336Y-37864131D01*
X54170336Y-37864131D02*
X54075098Y-37959369D01*
X54075098Y-37959369D02*
X53979860Y-38006988D01*
X71003669Y-29891274D02*
X71003669Y-30700797D01*
X71003669Y-30700797D02*
X71051288Y-30796035D01*
X71051288Y-30796035D02*
X71098907Y-30843655D01*
X71098907Y-30843655D02*
X71194145Y-30891274D01*
X71194145Y-30891274D02*
X71384621Y-30891274D01*
X71384621Y-30891274D02*
X71479859Y-30843655D01*
X71479859Y-30843655D02*
X71527478Y-30796035D01*
X71527478Y-30796035D02*
X71575097Y-30700797D01*
X71575097Y-30700797D02*
X71575097Y-29891274D01*
X72003669Y-29986512D02*
X72051288Y-29938893D01*
X72051288Y-29938893D02*
X72146526Y-29891274D01*
X72146526Y-29891274D02*
X72384621Y-29891274D01*
X72384621Y-29891274D02*
X72479859Y-29938893D01*
X72479859Y-29938893D02*
X72527478Y-29986512D01*
X72527478Y-29986512D02*
X72575097Y-30081750D01*
X72575097Y-30081750D02*
X72575097Y-30176988D01*
X72575097Y-30176988D02*
X72527478Y-30319845D01*
X72527478Y-30319845D02*
X71956050Y-30891274D01*
X71956050Y-30891274D02*
X72575097Y-30891274D01*
X97052479Y-64371274D02*
X97052479Y-63371274D01*
X97052479Y-63371274D02*
X97290574Y-63371274D01*
X97290574Y-63371274D02*
X97433431Y-63418893D01*
X97433431Y-63418893D02*
X97528669Y-63514131D01*
X97528669Y-63514131D02*
X97576288Y-63609369D01*
X97576288Y-63609369D02*
X97623907Y-63799845D01*
X97623907Y-63799845D02*
X97623907Y-63942702D01*
X97623907Y-63942702D02*
X97576288Y-64133178D01*
X97576288Y-64133178D02*
X97528669Y-64228416D01*
X97528669Y-64228416D02*
X97433431Y-64323655D01*
X97433431Y-64323655D02*
X97290574Y-64371274D01*
X97290574Y-64371274D02*
X97052479Y-64371274D01*
X98528669Y-63371274D02*
X98052479Y-63371274D01*
X98052479Y-63371274D02*
X98004860Y-63847464D01*
X98004860Y-63847464D02*
X98052479Y-63799845D01*
X98052479Y-63799845D02*
X98147717Y-63752226D01*
X98147717Y-63752226D02*
X98385812Y-63752226D01*
X98385812Y-63752226D02*
X98481050Y-63799845D01*
X98481050Y-63799845D02*
X98528669Y-63847464D01*
X98528669Y-63847464D02*
X98576288Y-63942702D01*
X98576288Y-63942702D02*
X98576288Y-64180797D01*
X98576288Y-64180797D02*
X98528669Y-64276035D01*
X98528669Y-64276035D02*
X98481050Y-64323655D01*
X98481050Y-64323655D02*
X98385812Y-64371274D01*
X98385812Y-64371274D02*
X98147717Y-64371274D01*
X98147717Y-64371274D02*
X98052479Y-64323655D01*
X98052479Y-64323655D02*
X98004860Y-64276035D01*
X95003669Y-29941274D02*
X95003669Y-30750797D01*
X95003669Y-30750797D02*
X95051288Y-30846035D01*
X95051288Y-30846035D02*
X95098907Y-30893655D01*
X95098907Y-30893655D02*
X95194145Y-30941274D01*
X95194145Y-30941274D02*
X95384621Y-30941274D01*
X95384621Y-30941274D02*
X95479859Y-30893655D01*
X95479859Y-30893655D02*
X95527478Y-30846035D01*
X95527478Y-30846035D02*
X95575097Y-30750797D01*
X95575097Y-30750797D02*
X95575097Y-29941274D01*
X96479859Y-30274607D02*
X96479859Y-30941274D01*
X96241764Y-29893655D02*
X96003669Y-30607940D01*
X96003669Y-30607940D02*
X96622716Y-30607940D01*
X65598907Y-38626035D02*
X65551288Y-38673655D01*
X65551288Y-38673655D02*
X65408431Y-38721274D01*
X65408431Y-38721274D02*
X65313193Y-38721274D01*
X65313193Y-38721274D02*
X65170336Y-38673655D01*
X65170336Y-38673655D02*
X65075098Y-38578416D01*
X65075098Y-38578416D02*
X65027479Y-38483178D01*
X65027479Y-38483178D02*
X64979860Y-38292702D01*
X64979860Y-38292702D02*
X64979860Y-38149845D01*
X64979860Y-38149845D02*
X65027479Y-37959369D01*
X65027479Y-37959369D02*
X65075098Y-37864131D01*
X65075098Y-37864131D02*
X65170336Y-37768893D01*
X65170336Y-37768893D02*
X65313193Y-37721274D01*
X65313193Y-37721274D02*
X65408431Y-37721274D01*
X65408431Y-37721274D02*
X65551288Y-37768893D01*
X65551288Y-37768893D02*
X65598907Y-37816512D01*
X65979860Y-37816512D02*
X66027479Y-37768893D01*
X66027479Y-37768893D02*
X66122717Y-37721274D01*
X66122717Y-37721274D02*
X66360812Y-37721274D01*
X66360812Y-37721274D02*
X66456050Y-37768893D01*
X66456050Y-37768893D02*
X66503669Y-37816512D01*
X66503669Y-37816512D02*
X66551288Y-37911750D01*
X66551288Y-37911750D02*
X66551288Y-38006988D01*
X66551288Y-38006988D02*
X66503669Y-38149845D01*
X66503669Y-38149845D02*
X65932241Y-38721274D01*
X65932241Y-38721274D02*
X66551288Y-38721274D01*
X90348907Y-53876035D02*
X90301288Y-53923655D01*
X90301288Y-53923655D02*
X90158431Y-53971274D01*
X90158431Y-53971274D02*
X90063193Y-53971274D01*
X90063193Y-53971274D02*
X89920336Y-53923655D01*
X89920336Y-53923655D02*
X89825098Y-53828416D01*
X89825098Y-53828416D02*
X89777479Y-53733178D01*
X89777479Y-53733178D02*
X89729860Y-53542702D01*
X89729860Y-53542702D02*
X89729860Y-53399845D01*
X89729860Y-53399845D02*
X89777479Y-53209369D01*
X89777479Y-53209369D02*
X89825098Y-53114131D01*
X89825098Y-53114131D02*
X89920336Y-53018893D01*
X89920336Y-53018893D02*
X90063193Y-52971274D01*
X90063193Y-52971274D02*
X90158431Y-52971274D01*
X90158431Y-52971274D02*
X90301288Y-53018893D01*
X90301288Y-53018893D02*
X90348907Y-53066512D01*
X90682241Y-52971274D02*
X91348907Y-52971274D01*
X91348907Y-52971274D02*
X90920336Y-53971274D01*
X73622716Y-54971274D02*
X73289383Y-54495083D01*
X73051288Y-54971274D02*
X73051288Y-53971274D01*
X73051288Y-53971274D02*
X73432240Y-53971274D01*
X73432240Y-53971274D02*
X73527478Y-54018893D01*
X73527478Y-54018893D02*
X73575097Y-54066512D01*
X73575097Y-54066512D02*
X73622716Y-54161750D01*
X73622716Y-54161750D02*
X73622716Y-54304607D01*
X73622716Y-54304607D02*
X73575097Y-54399845D01*
X73575097Y-54399845D02*
X73527478Y-54447464D01*
X73527478Y-54447464D02*
X73432240Y-54495083D01*
X73432240Y-54495083D02*
X73051288Y-54495083D01*
X74003669Y-54066512D02*
X74051288Y-54018893D01*
X74051288Y-54018893D02*
X74146526Y-53971274D01*
X74146526Y-53971274D02*
X74384621Y-53971274D01*
X74384621Y-53971274D02*
X74479859Y-54018893D01*
X74479859Y-54018893D02*
X74527478Y-54066512D01*
X74527478Y-54066512D02*
X74575097Y-54161750D01*
X74575097Y-54161750D02*
X74575097Y-54256988D01*
X74575097Y-54256988D02*
X74527478Y-54399845D01*
X74527478Y-54399845D02*
X73956050Y-54971274D01*
X73956050Y-54971274D02*
X74575097Y-54971274D01*
X75527478Y-54971274D02*
X74956050Y-54971274D01*
X75241764Y-54971274D02*
X75241764Y-53971274D01*
X75241764Y-53971274D02*
X75146526Y-54114131D01*
X75146526Y-54114131D02*
X75051288Y-54209369D01*
X75051288Y-54209369D02*
X74956050Y-54256988D01*
D13*
%TO.C,C10*%
X89030574Y-36015207D02*
X89030574Y-35492703D01*
X90500574Y-36015207D02*
X90500574Y-35492703D01*
%TO.C,U5*%
X71765574Y-42281455D02*
X69815574Y-42281455D01*
X71765574Y-42281455D02*
X73715574Y-42281455D01*
X71765574Y-51151455D02*
X69815574Y-51151455D01*
X71765574Y-51151455D02*
X73715574Y-51151455D01*
X69065574Y-42346455D02*
X68825574Y-42016455D01*
X69305574Y-42016455D01*
X69065574Y-42346455D01*
G36*
X69065574Y-42346455D02*
G01*
X68825574Y-42016455D01*
X69305574Y-42016455D01*
X69065574Y-42346455D01*
G37*
%TO.C,R5*%
X53030574Y-41039391D02*
X53030574Y-41493519D01*
X54500574Y-41039391D02*
X54500574Y-41493519D01*
%TO.C,U1*%
X59765574Y-31281455D02*
X57815574Y-31281455D01*
X59765574Y-31281455D02*
X61715574Y-31281455D01*
X59765574Y-40151455D02*
X57815574Y-40151455D01*
X59765574Y-40151455D02*
X61715574Y-40151455D01*
X57065574Y-31346455D02*
X56825574Y-31016455D01*
X57305574Y-31016455D01*
X57065574Y-31346455D01*
G36*
X57065574Y-31346455D02*
G01*
X56825574Y-31016455D01*
X57305574Y-31016455D01*
X57065574Y-31346455D01*
G37*
%TO.C,D4*%
X47905574Y-59931455D02*
X47905574Y-63101455D01*
X47905574Y-63101455D02*
X53765574Y-63101455D01*
X53765574Y-59931455D02*
X47905574Y-59931455D01*
%TO.C,C12*%
X50066824Y-52821457D02*
X50066824Y-52298953D01*
X51536824Y-52821457D02*
X51536824Y-52298953D01*
%TO.C,J2*%
X37735574Y-62056455D02*
X37735574Y-64766455D01*
X37735574Y-67476455D02*
X37735574Y-64766455D01*
X40295574Y-56386455D02*
X40295574Y-58516455D01*
X40595574Y-56686455D02*
X40595574Y-62056455D01*
X40595574Y-62056455D02*
X37735574Y-62056455D01*
X40595574Y-67476455D02*
X37735574Y-67476455D01*
X40595574Y-72846455D02*
X40595574Y-67476455D01*
X42445574Y-56386455D02*
X40295574Y-56386455D01*
X46795574Y-56686455D02*
X40595574Y-56686455D01*
X46795574Y-64766455D02*
X46795574Y-56686455D01*
X46795574Y-64766455D02*
X46795574Y-72846455D01*
X46795574Y-72846455D02*
X40595574Y-72846455D01*
%TO.C,C3*%
X77030574Y-35977707D02*
X77030574Y-35455203D01*
X78500574Y-35977707D02*
X78500574Y-35455203D01*
D14*
%TO.C,G\u002A\u002A\u002A*%
G36*
X68821462Y-78611980D02*
G01*
X68816024Y-78636200D01*
X68802031Y-78653393D01*
X68770949Y-78664989D01*
X68714244Y-78672420D01*
X68623381Y-78677117D01*
X68489824Y-78680511D01*
X68402680Y-78682198D01*
X68235091Y-78687200D01*
X68107641Y-78694936D01*
X68025304Y-78704971D01*
X67993057Y-78716867D01*
X67992779Y-78718145D01*
X68005446Y-78752129D01*
X68040008Y-78824339D01*
X68091308Y-78924450D01*
X68154187Y-79042137D01*
X68159518Y-79051920D01*
X68240769Y-79202598D01*
X68294288Y-79311481D01*
X68319343Y-79385357D01*
X68315204Y-79431013D01*
X68281141Y-79455234D01*
X68216421Y-79464807D01*
X68120314Y-79466520D01*
X68114860Y-79466521D01*
X68007718Y-79467934D01*
X67946106Y-79473735D01*
X67920014Y-79486263D01*
X67919431Y-79507859D01*
X67920863Y-79511865D01*
X67940871Y-79545348D01*
X67989008Y-79618019D01*
X68061108Y-79723829D01*
X68153010Y-79856732D01*
X68260547Y-80010679D01*
X68379557Y-80179621D01*
X68417108Y-80232652D01*
X68895952Y-80908095D01*
X68903758Y-80592952D01*
X68910512Y-80433907D01*
X68923045Y-80324137D01*
X68943566Y-80257450D01*
X68974283Y-80227656D01*
X69017404Y-80228564D01*
X69031994Y-80233473D01*
X69048327Y-80245088D01*
X69060016Y-80270553D01*
X69067622Y-80317495D01*
X69071702Y-80393540D01*
X69072818Y-80506311D01*
X69071529Y-80663435D01*
X69070253Y-80754656D01*
X69067000Y-80935545D01*
X69062963Y-81068249D01*
X69057380Y-81160161D01*
X69049490Y-81218676D01*
X69038531Y-81251189D01*
X69023742Y-81265093D01*
X69017485Y-81266939D01*
X68973138Y-81251253D01*
X68914820Y-81199229D01*
X68890318Y-81170032D01*
X68812433Y-81067154D01*
X68716834Y-80936830D01*
X68607609Y-80785003D01*
X68488845Y-80617616D01*
X68364632Y-80440612D01*
X68239058Y-80259936D01*
X68116209Y-80081530D01*
X68000175Y-79911337D01*
X67895043Y-79755302D01*
X67804902Y-79619367D01*
X67733839Y-79509475D01*
X67685943Y-79431571D01*
X67665302Y-79391597D01*
X67664840Y-79388391D01*
X67679340Y-79363622D01*
X67718618Y-79347826D01*
X67793604Y-79338318D01*
X67888868Y-79333349D01*
X67990241Y-79327496D01*
X68065896Y-79319264D01*
X68102463Y-79310220D01*
X68103939Y-79308167D01*
X68091580Y-79278528D01*
X68057814Y-79209794D01*
X68007605Y-79111798D01*
X67945917Y-78994370D01*
X67937199Y-78977975D01*
X67873702Y-78854360D01*
X67821338Y-78744094D01*
X67785243Y-78658600D01*
X67770556Y-78609303D01*
X67770459Y-78607151D01*
X67772345Y-78587152D01*
X67782895Y-78572405D01*
X67809452Y-78562111D01*
X67859359Y-78555470D01*
X67939957Y-78551682D01*
X68058589Y-78549949D01*
X68222596Y-78549472D01*
X68300401Y-78549453D01*
X68830343Y-78549453D01*
X68821462Y-78611980D01*
G37*
G36*
X69011737Y-78235330D02*
G01*
X69021006Y-78270611D01*
X69033102Y-78336172D01*
X69062982Y-78411769D01*
X69101038Y-78478602D01*
X69137661Y-78517875D01*
X69149335Y-78521663D01*
X69184760Y-78498594D01*
X69201589Y-78466247D01*
X69239001Y-78391916D01*
X69287556Y-78350385D01*
X69335090Y-78351215D01*
X69341883Y-78355996D01*
X69365459Y-78401638D01*
X69351367Y-78446884D01*
X69309828Y-78466083D01*
X69275767Y-78482983D01*
X69275964Y-78519562D01*
X69306997Y-78554643D01*
X69325475Y-78562960D01*
X69388367Y-78601705D01*
X69452696Y-78668599D01*
X69502342Y-78743711D01*
X69521225Y-78804973D01*
X69503602Y-78859823D01*
X69459327Y-78930278D01*
X69437855Y-78956653D01*
X69387326Y-79021619D01*
X69357712Y-79074037D01*
X69354486Y-79087614D01*
X69366780Y-79130880D01*
X69398390Y-79203717D01*
X69426797Y-79260334D01*
X69499061Y-79398523D01*
X69548676Y-79499113D01*
X69579835Y-79573172D01*
X69596731Y-79631770D01*
X69603559Y-79685974D01*
X69604595Y-79729591D01*
X69596499Y-79821962D01*
X69564184Y-79892973D01*
X69514278Y-79952829D01*
X69407294Y-80032287D01*
X69260286Y-80091482D01*
X69086463Y-80126128D01*
X68957655Y-80133479D01*
X68877075Y-80131154D01*
X68838745Y-80119792D01*
X68829388Y-80092813D01*
X68831492Y-80070952D01*
X68841146Y-80038553D01*
X68866842Y-80017909D01*
X68920610Y-80004636D01*
X69014482Y-79994346D01*
X69049762Y-79991389D01*
X69231788Y-79964483D01*
X69363213Y-79917181D01*
X69445365Y-79848897D01*
X69468380Y-79806701D01*
X69484535Y-79733572D01*
X69474588Y-79654052D01*
X69435209Y-79556251D01*
X69363068Y-79428278D01*
X69361829Y-79426246D01*
X69278062Y-79257297D01*
X69244323Y-79107579D01*
X69260747Y-78978569D01*
X69312769Y-78888038D01*
X69358590Y-78827534D01*
X69369632Y-78788476D01*
X69350778Y-78753377D01*
X69350478Y-78753015D01*
X69299108Y-78711037D01*
X69226085Y-78671367D01*
X69221849Y-78669565D01*
X69129629Y-78648845D01*
X69059102Y-78673928D01*
X69009655Y-78746172D01*
X68980676Y-78866935D01*
X68971552Y-79037577D01*
X68978089Y-79210210D01*
X68985195Y-79381753D01*
X68978326Y-79514207D01*
X68954254Y-79623016D01*
X68909750Y-79723621D01*
X68851107Y-79817655D01*
X68783368Y-79897772D01*
X68694759Y-79977523D01*
X68600134Y-80045958D01*
X68514346Y-80092126D01*
X68460443Y-80105689D01*
X68415417Y-80091405D01*
X68412891Y-80053564D01*
X68449280Y-79999683D01*
X68521003Y-79937278D01*
X68550365Y-79917041D01*
X68649201Y-79837865D01*
X68739372Y-79741586D01*
X68772256Y-79696116D01*
X68804646Y-79643548D01*
X68826988Y-79597968D01*
X68840927Y-79547971D01*
X68848114Y-79482156D01*
X68850194Y-79389118D01*
X68848816Y-79257453D01*
X68847390Y-79176121D01*
X68846452Y-78992577D01*
X68852567Y-78854788D01*
X68867827Y-78753152D01*
X68894322Y-78678066D01*
X68934146Y-78619927D01*
X68977489Y-78578763D01*
X69014744Y-78530907D01*
X69010268Y-78475415D01*
X68962401Y-78401077D01*
X68948716Y-78384435D01*
X68901369Y-78308785D01*
X68896857Y-78251181D01*
X68934432Y-78219585D01*
X68964554Y-78215974D01*
X69011737Y-78235330D01*
G37*
D13*
%TO.C,D1*%
X97040574Y-75976455D02*
X99900574Y-75976455D01*
X99900574Y-74056455D02*
X97040574Y-74056455D01*
X99900574Y-75976455D02*
X99900574Y-74056455D01*
%TO.C,C5*%
X65030574Y-47015207D02*
X65030574Y-46492703D01*
X66500574Y-47015207D02*
X66500574Y-46492703D01*
%TO.C,R16*%
X101030574Y-31539391D02*
X101030574Y-31993519D01*
X102500574Y-31539391D02*
X102500574Y-31993519D01*
%TO.C,RV2*%
X58340574Y-57486455D02*
X58340574Y-62556455D01*
X58340574Y-57486455D02*
X68110574Y-57486455D01*
X58340574Y-62556455D02*
X68110574Y-62556455D01*
X68110574Y-57486455D02*
X68110574Y-62556455D01*
%TO.C,R13*%
X65030574Y-41493519D02*
X65030574Y-41039391D01*
X66500574Y-41493519D02*
X66500574Y-41039391D01*
%TO.C,U7*%
X40571824Y-45160205D02*
X40571824Y-51580205D01*
X40571824Y-51580205D02*
X40841824Y-51580205D01*
X47471824Y-45160205D02*
X47471824Y-51580205D01*
X47471824Y-51580205D02*
X47201824Y-51580205D01*
X40881824Y-53000205D02*
X40551824Y-53240205D01*
X40551824Y-52760205D01*
X40881824Y-53000205D01*
G36*
X40881824Y-53000205D02*
G01*
X40551824Y-53240205D01*
X40551824Y-52760205D01*
X40881824Y-53000205D01*
G37*
%TO.C,R1*%
X93017638Y-61531455D02*
X92563510Y-61531455D01*
X93017638Y-63001455D02*
X92563510Y-63001455D01*
%TO.C,RV1*%
X103735574Y-29421455D02*
X108805574Y-29421455D01*
X103735574Y-39191455D02*
X103735574Y-29421455D01*
X103735574Y-39191455D02*
X108805574Y-39191455D01*
X108805574Y-39191455D02*
X108805574Y-29421455D01*
%TO.C,R4*%
X97992638Y-28031455D02*
X97538510Y-28031455D01*
X97992638Y-29501455D02*
X97538510Y-29501455D01*
%TO.C,C6*%
X77030574Y-46977707D02*
X77030574Y-46455203D01*
X78500574Y-46977707D02*
X78500574Y-46455203D01*
%TO.C,TP2*%
X104935574Y-41186455D02*
X106265574Y-41186455D01*
X104935574Y-42516455D02*
X104935574Y-41186455D01*
X104935574Y-43786455D02*
X104935574Y-43846455D01*
X104935574Y-43786455D02*
X107595574Y-43786455D01*
X104935574Y-43846455D02*
X107595574Y-43846455D01*
X107595574Y-43786455D02*
X107595574Y-43846455D01*
%TO.C,R11*%
X77030574Y-31493519D02*
X77030574Y-31039391D01*
X78500574Y-31493519D02*
X78500574Y-31039391D01*
%TO.C,D6*%
X45265574Y-40726455D02*
X48125574Y-40726455D01*
X48125574Y-38806455D02*
X45265574Y-38806455D01*
X48125574Y-40726455D02*
X48125574Y-38806455D01*
%TO.C,U3*%
X83765574Y-31281455D02*
X81815574Y-31281455D01*
X83765574Y-31281455D02*
X85715574Y-31281455D01*
X83765574Y-40151455D02*
X81815574Y-40151455D01*
X83765574Y-40151455D02*
X85715574Y-40151455D01*
X81065574Y-31346455D02*
X80825574Y-31016455D01*
X81305574Y-31016455D01*
X81065574Y-31346455D01*
G36*
X81065574Y-31346455D02*
G01*
X80825574Y-31016455D01*
X81305574Y-31016455D01*
X81065574Y-31346455D01*
G37*
%TO.C,R15*%
X101030574Y-46539391D02*
X101030574Y-46993519D01*
X102500574Y-46539391D02*
X102500574Y-46993519D01*
%TO.C,U10*%
X84490574Y-65081455D02*
X82540574Y-65081455D01*
X84490574Y-65081455D02*
X86440574Y-65081455D01*
X84490574Y-73951455D02*
X82540574Y-73951455D01*
X84490574Y-73951455D02*
X86440574Y-73951455D01*
X81790574Y-65146455D02*
X81550574Y-64816455D01*
X82030574Y-64816455D01*
X81790574Y-65146455D01*
G36*
X81790574Y-65146455D02*
G01*
X81550574Y-64816455D01*
X82030574Y-64816455D01*
X81790574Y-65146455D01*
G37*
%TO.C,R12*%
X77030574Y-41493519D02*
X77030574Y-41039391D01*
X78500574Y-41493519D02*
X78500574Y-41039391D01*
%TO.C,R10*%
X78530574Y-61039391D02*
X78530574Y-61493519D01*
X80000574Y-61039391D02*
X80000574Y-61493519D01*
%TO.C,R25*%
X50030574Y-41493519D02*
X50030574Y-41039391D01*
X51500574Y-41493519D02*
X51500574Y-41039391D01*
%TO.C,C13*%
X50066824Y-46821457D02*
X50066824Y-46298953D01*
X51536824Y-46821457D02*
X51536824Y-46298953D01*
%TO.C,D2*%
X97015574Y-71976455D02*
X99875574Y-71976455D01*
X99875574Y-70056455D02*
X97015574Y-70056455D01*
X99875574Y-71976455D02*
X99875574Y-70056455D01*
%TO.C,R28*%
X89030574Y-27493519D02*
X89030574Y-27039391D01*
X90500574Y-27493519D02*
X90500574Y-27039391D01*
%TO.C,TP1*%
X70685574Y-58686455D02*
X72015574Y-58686455D01*
X70685574Y-60016455D02*
X70685574Y-58686455D01*
X70685574Y-61286455D02*
X70685574Y-61346455D01*
X70685574Y-61286455D02*
X73345574Y-61286455D01*
X70685574Y-61346455D02*
X73345574Y-61346455D01*
X73345574Y-61286455D02*
X73345574Y-61346455D01*
%TO.C,R24*%
X89030574Y-41493519D02*
X89030574Y-41039391D01*
X90500574Y-41493519D02*
X90500574Y-41039391D01*
%TO.C,C11*%
X89030574Y-47027707D02*
X89030574Y-46505203D01*
X90500574Y-47027707D02*
X90500574Y-46505203D01*
%TO.C,R23*%
X89030574Y-31493519D02*
X89030574Y-31039391D01*
X90500574Y-31493519D02*
X90500574Y-31039391D01*
%TO.C,R18*%
X41492638Y-35031455D02*
X41038510Y-35031455D01*
X41492638Y-36501455D02*
X41038510Y-36501455D01*
%TO.C,R20*%
X61538510Y-52031455D02*
X61992638Y-52031455D01*
X61538510Y-53501455D02*
X61992638Y-53501455D01*
%TO.C,D3*%
X96765574Y-67226455D02*
X99625574Y-67226455D01*
X99625574Y-65306455D02*
X96765574Y-65306455D01*
X99625574Y-67226455D02*
X99625574Y-65306455D01*
%TO.C,C14*%
X82504322Y-60031455D02*
X83026826Y-60031455D01*
X82504322Y-61501455D02*
X83026826Y-61501455D01*
%TO.C,D7*%
X45240574Y-36726455D02*
X48100574Y-36726455D01*
X48100574Y-34806455D02*
X45240574Y-34806455D01*
X48100574Y-36726455D02*
X48100574Y-34806455D01*
%TO.C,R8*%
X93242638Y-70281455D02*
X92788510Y-70281455D01*
X93242638Y-71751455D02*
X92788510Y-71751455D01*
%TO.C,R17*%
X41492638Y-39031455D02*
X41038510Y-39031455D01*
X41492638Y-40501455D02*
X41038510Y-40501455D01*
%TO.C,R14*%
X65030574Y-31039391D02*
X65030574Y-31493519D01*
X66500574Y-31039391D02*
X66500574Y-31493519D01*
D15*
%TO.C,K2*%
X47926374Y-63721055D02*
X47926374Y-76471855D01*
X47926374Y-76471855D02*
X68170174Y-76471855D01*
X68170174Y-63721055D02*
X47926374Y-63721055D01*
X68170174Y-76471855D02*
X68170174Y-63721055D01*
D13*
%TO.C,U8*%
X59765574Y-42281455D02*
X57815574Y-42281455D01*
X59765574Y-42281455D02*
X61715574Y-42281455D01*
X59765574Y-51151455D02*
X57815574Y-51151455D01*
X59765574Y-51151455D02*
X61715574Y-51151455D01*
X62705574Y-51416455D02*
X62225574Y-51416455D01*
X62465574Y-51086455D01*
X62705574Y-51416455D01*
G36*
X62705574Y-51416455D02*
G01*
X62225574Y-51416455D01*
X62465574Y-51086455D01*
X62705574Y-51416455D01*
G37*
%TO.C,C9*%
X78530574Y-56277707D02*
X78530574Y-55755203D01*
X80000574Y-56277707D02*
X80000574Y-55755203D01*
%TO.C,R6*%
X101030574Y-36589391D02*
X101030574Y-37043519D01*
X102500574Y-36589391D02*
X102500574Y-37043519D01*
%TO.C,R22*%
X69992638Y-52031455D02*
X69538510Y-52031455D01*
X69992638Y-53501455D02*
X69538510Y-53501455D01*
%TO.C,U6*%
X83765574Y-42281455D02*
X81815574Y-42281455D01*
X83765574Y-42281455D02*
X85715574Y-42281455D01*
X83765574Y-51151455D02*
X81815574Y-51151455D01*
X83765574Y-51151455D02*
X85715574Y-51151455D01*
X86705574Y-51416455D02*
X86225574Y-51416455D01*
X86465574Y-51086455D01*
X86705574Y-51416455D01*
G36*
X86705574Y-51416455D02*
G01*
X86225574Y-51416455D01*
X86465574Y-51086455D01*
X86705574Y-51416455D01*
G37*
%TO.C,U9*%
X95765574Y-42281455D02*
X93815574Y-42281455D01*
X95765574Y-42281455D02*
X97715574Y-42281455D01*
X95765574Y-51151455D02*
X93815574Y-51151455D01*
X95765574Y-51151455D02*
X97715574Y-51151455D01*
X93065574Y-42346455D02*
X92825574Y-42016455D01*
X93305574Y-42016455D01*
X93065574Y-42346455D01*
G36*
X93065574Y-42346455D02*
G01*
X92825574Y-42016455D01*
X93305574Y-42016455D01*
X93065574Y-42346455D01*
G37*
%TO.C,C4*%
X101030574Y-42027707D02*
X101030574Y-41505203D01*
X102500574Y-42027707D02*
X102500574Y-41505203D01*
%TO.C,R2*%
X86788510Y-60031455D02*
X87242638Y-60031455D01*
X86788510Y-61501455D02*
X87242638Y-61501455D01*
%TO.C,R7*%
X93267638Y-74281455D02*
X92813510Y-74281455D01*
X93267638Y-75751455D02*
X92813510Y-75751455D01*
%TO.C,C8*%
X53030574Y-46940207D02*
X53030574Y-46417703D01*
X54500574Y-46940207D02*
X54500574Y-46417703D01*
%TO.C,R3*%
X93538510Y-28031455D02*
X93992638Y-28031455D01*
X93538510Y-29501455D02*
X93992638Y-29501455D01*
%TO.C,U13*%
X84765574Y-54206455D02*
X82815574Y-54206455D01*
X84765574Y-54206455D02*
X86715574Y-54206455D01*
X84765574Y-59326455D02*
X82815574Y-59326455D01*
X84765574Y-59326455D02*
X86715574Y-59326455D01*
X82065574Y-54301455D02*
X81825574Y-53971455D01*
X82305574Y-53971455D01*
X82065574Y-54301455D01*
G36*
X82065574Y-54301455D02*
G01*
X81825574Y-53971455D01*
X82305574Y-53971455D01*
X82065574Y-54301455D01*
G37*
%TO.C,CR1*%
X95765574Y-53706455D02*
X93815574Y-53706455D01*
X95765574Y-53706455D02*
X97715574Y-53706455D01*
X95765574Y-58826455D02*
X93815574Y-58826455D01*
X95765574Y-58826455D02*
X97715574Y-58826455D01*
X93065574Y-53801455D02*
X92825574Y-53471455D01*
X93305574Y-53471455D01*
X93065574Y-53801455D01*
G36*
X93065574Y-53801455D02*
G01*
X92825574Y-53471455D01*
X93305574Y-53471455D01*
X93065574Y-53801455D01*
G37*
%TO.C,R19*%
X57538510Y-52031455D02*
X57992638Y-52031455D01*
X57538510Y-53501455D02*
X57992638Y-53501455D01*
%TO.C,R9*%
X93017638Y-65531455D02*
X92563510Y-65531455D01*
X93017638Y-67001455D02*
X92563510Y-67001455D01*
%TO.C,C1*%
X53030574Y-35977707D02*
X53030574Y-35455203D01*
X54500574Y-35977707D02*
X54500574Y-35455203D01*
%TO.C,U2*%
X71765574Y-31281455D02*
X69815574Y-31281455D01*
X71765574Y-31281455D02*
X73715574Y-31281455D01*
X71765574Y-40151455D02*
X69815574Y-40151455D01*
X71765574Y-40151455D02*
X73715574Y-40151455D01*
X69065574Y-31346455D02*
X68825574Y-31016455D01*
X69305574Y-31016455D01*
X69065574Y-31346455D01*
G36*
X69065574Y-31346455D02*
G01*
X68825574Y-31016455D01*
X69305574Y-31016455D01*
X69065574Y-31346455D01*
G37*
%TO.C,D5*%
X96790574Y-63226455D02*
X99650574Y-63226455D01*
X99650574Y-61306455D02*
X96790574Y-61306455D01*
X99650574Y-63226455D02*
X99650574Y-61306455D01*
%TO.C,U4*%
X95765574Y-31331455D02*
X93815574Y-31331455D01*
X95765574Y-31331455D02*
X97715574Y-31331455D01*
X95765574Y-40201455D02*
X93815574Y-40201455D01*
X95765574Y-40201455D02*
X97715574Y-40201455D01*
X93065574Y-31396455D02*
X92825574Y-31066455D01*
X93305574Y-31066455D01*
X93065574Y-31396455D01*
G36*
X93065574Y-31396455D02*
G01*
X92825574Y-31066455D01*
X93305574Y-31066455D01*
X93065574Y-31396455D01*
G37*
%TO.C,C2*%
X65030574Y-35977707D02*
X65030574Y-35455203D01*
X66500574Y-35977707D02*
X66500574Y-35455203D01*
%TO.C,C7*%
X89780574Y-56277707D02*
X89780574Y-55755203D01*
X91250574Y-56277707D02*
X91250574Y-55755203D01*
%TO.C,R21*%
X73992638Y-52031455D02*
X73538510Y-52031455D01*
X73992638Y-53501455D02*
X73538510Y-53501455D01*
%TD*%
M02*
