M48
; DRILL file {KiCad 8.0.5} date 2025-02-24T01:44:16-0800
; FORMAT={-:-/ absolute / inch / decimal}
; #@! TF.CreationDate,2025-02-24T01:44:16-08:00
; #@! TF.GenerationSoftware,Kicad,Pcbnew,8.0.5
; #@! TF.FileFunction,Plated,1,2,PTH
FMAT,2
INCH
; #@! TA.AperFunction,Plated,PTH,ViaDrill
T1C0.0118
; #@! TA.AperFunction,Plated,PTH,ComponentDrill
T2C0.0315
; #@! TA.AperFunction,Plated,PTH,ComponentDrill
T3C0.0394
; #@! TA.AperFunction,Plated,PTH,ComponentDrill
T4C0.0450
; #@! TA.AperFunction,Plated,PTH,ComponentDrill
T5C0.0472
%
G90
G05
T1
X1.5748Y-2.3228
X1.811Y-1.6535
X1.9297Y-1.2566
X1.9685Y-1.4961
X2.0183Y-1.2802
X2.038Y-1.5066
X2.1561Y-1.3097
X2.1654Y-1.7323
X2.3228Y-1.2205
X2.3234Y-1.3294
X2.3431Y-1.6535
X2.3668Y-1.4567
X2.3727Y-1.3195
X2.3733Y-1.1811
X2.5184Y-1.2115
X2.5197Y-1.4062
X2.6975Y-1.6148
X2.7914Y-1.8149
X2.8057Y-1.2589
X2.8057Y-1.7625
X2.847Y-1.4199
X2.8503Y-1.5062
X2.8561Y-1.4562
X2.8648Y-1.2506
X2.9081Y-1.6443
X2.9921Y-1.6142
X2.9927Y-1.231
X3.0065Y-1.3786
X3.0223Y-2.0282
X3.042Y-1.9593
X3.0448Y-1.7477
X3.1102Y-1.4567
X3.1207Y-1.3688
X3.1207Y-1.418
X3.1305Y-2.0971
X3.2486Y-2.5302
X3.2498Y-1.2809
X3.2585Y-1.4825
X3.2782Y-1.8215
X3.2979Y-1.2825
X3.3028Y-2.7812
X3.3187Y-1.3062
X3.3215Y-1.4798
X3.3215Y-1.7323
X3.3307Y-2.1654
X3.3372Y-1.8215
X3.3465Y-2.2047
X3.3465Y-2.4803
X3.3569Y-2.5499
X3.4357Y-2.0577
X3.475Y-1.7231
X3.4947Y-2.7959
X3.5039Y-1.4961
X3.5341Y-2.3136
X3.5341Y-2.481
X3.5636Y-2.2992
X3.5827Y-1.7323
X3.5931Y-1.4475
X3.6016Y-1.9496
X3.603Y-1.3097
X3.6128Y-1.4967
X3.6168Y-1.664
X3.622Y-1.6142
X3.6614Y-2.0472
X3.7008Y-1.6535
X3.7309Y-1.5361
X3.7309Y-2.8747
X3.7368Y-1.8504
X3.748Y-1.4488
X3.7605Y-1.6837
X3.7605Y-1.8129
X3.7605Y-2.4022
X3.7703Y-1.2703
X3.8097Y-1.477
X3.9475Y-1.2703
X4.0Y-1.7402
X4.1024Y-1.7008
T2
X2.3892Y-2.3629
X2.4892Y-2.3629
X2.5892Y-2.3629
X4.1837Y-1.2506
X4.1837Y-1.3506
X4.1837Y-1.4506
T3
X2.8353Y-2.3629
X4.1837Y-1.6739
T4
X1.9349Y-2.5597
X1.9349Y-2.9597
X2.2349Y-2.5597
X2.2349Y-2.9597
X2.6349Y-2.5597
X2.6349Y-2.9597
T5
X1.6711Y-2.3038
X1.6711Y-2.4022
X1.6711Y-2.5006
X1.6711Y-2.5991
X1.6711Y-2.6975
X1.6711Y-2.7959
X1.7695Y-2.3038
X1.7695Y-2.4022
X1.7695Y-2.5006
X1.7695Y-2.5991
X1.7695Y-2.6975
X1.7695Y-2.7959
M30
