%TF.GenerationSoftware,KiCad,Pcbnew,8.0.9-8.0.9-0~ubuntu25.04.1*%
%TF.CreationDate,2025-05-02T04:18:53-07:00*%
%TF.ProjectId,TSSI,54535349-2e6b-4696-9361-645f70636258,3*%
%TF.SameCoordinates,Original*%
%TF.FileFunction,Paste,Bot*%
%TF.FilePolarity,Positive*%
%FSLAX46Y46*%
G04 Gerber Fmt 4.6, Leading zero omitted, Abs format (unit mm)*
G04 Created by KiCad (PCBNEW 8.0.9-8.0.9-0~ubuntu25.04.1) date 2025-05-02 04:18:53*
%MOMM*%
%LPD*%
G01*
G04 APERTURE LIST*
G04 Aperture macros list*
%AMRoundRect*
0 Rectangle with rounded corners*
0 $1 Rounding radius*
0 $2 $3 $4 $5 $6 $7 $8 $9 X,Y pos of 4 corners*
0 Add a 4 corners polygon primitive as box body*
4,1,4,$2,$3,$4,$5,$6,$7,$8,$9,$2,$3,0*
0 Add four circle primitives for the rounded corners*
1,1,$1+$1,$2,$3*
1,1,$1+$1,$4,$5*
1,1,$1+$1,$6,$7*
1,1,$1+$1,$8,$9*
0 Add four rect primitives between the rounded corners*
20,1,$1+$1,$2,$3,$4,$5,0*
20,1,$1+$1,$4,$5,$6,$7,0*
20,1,$1+$1,$6,$7,$8,$9,0*
20,1,$1+$1,$8,$9,$2,$3,0*%
G04 Aperture macros list end*
%ADD10R,0.750000X1.150000*%
%ADD11RoundRect,0.250000X-0.450000X0.350000X-0.450000X-0.350000X0.450000X-0.350000X0.450000X0.350000X0*%
G04 APERTURE END LIST*
D10*
%TO.C,D57*%
X138050000Y-114850000D03*
X139500000Y-114850000D03*
X139500000Y-118000000D03*
X138050000Y-118000000D03*
%TD*%
%TO.C,D33*%
X185950000Y-114850000D03*
X187400000Y-114850000D03*
X187400000Y-118000000D03*
X185950000Y-118000000D03*
%TD*%
%TO.C,D56*%
X138050000Y-107350000D03*
X139500000Y-107350000D03*
X139500000Y-110500000D03*
X138050000Y-110500000D03*
%TD*%
%TO.C,D50*%
X148700000Y-107350000D03*
X150150000Y-107350000D03*
X150150000Y-110500000D03*
X148700000Y-110500000D03*
%TD*%
%TO.C,D54*%
X143350000Y-114850000D03*
X144800000Y-114850000D03*
X144800000Y-118000000D03*
X143350000Y-118000000D03*
%TD*%
%TO.C,D55*%
X138050000Y-99850000D03*
X139500000Y-99850000D03*
X139500000Y-103000000D03*
X138050000Y-103000000D03*
%TD*%
%TO.C,D31*%
X185950000Y-99850000D03*
X187400000Y-99850000D03*
X187400000Y-103000000D03*
X185950000Y-103000000D03*
%TD*%
%TO.C,D36*%
X180650000Y-114850000D03*
X182100000Y-114850000D03*
X182100000Y-118000000D03*
X180650000Y-118000000D03*
%TD*%
%TO.C,D40*%
X170050000Y-99850000D03*
X171500000Y-99850000D03*
X171500000Y-103000000D03*
X170050000Y-103000000D03*
%TD*%
%TO.C,D51*%
X148700000Y-114850000D03*
X150150000Y-114850000D03*
X150150000Y-118000000D03*
X148700000Y-118000000D03*
%TD*%
D11*
%TO.C,R15*%
X186600000Y-95200000D03*
X186600000Y-97200000D03*
%TD*%
%TO.C,R23*%
X138900000Y-95300000D03*
X138900000Y-97300000D03*
%TD*%
D10*
%TO.C,D38*%
X175350000Y-107350000D03*
X176800000Y-107350000D03*
X176800000Y-110500000D03*
X175350000Y-110500000D03*
%TD*%
%TO.C,D58*%
X132750000Y-99850000D03*
X134200000Y-99850000D03*
X134200000Y-103000000D03*
X132750000Y-103000000D03*
%TD*%
%TO.C,D42*%
X170050000Y-114850000D03*
X171500000Y-114850000D03*
X171500000Y-118000000D03*
X170050000Y-118000000D03*
%TD*%
%TO.C,D32*%
X185950000Y-107350000D03*
X187400000Y-107350000D03*
X187400000Y-110500000D03*
X185950000Y-110500000D03*
%TD*%
D11*
%TO.C,R21*%
X149400000Y-95300000D03*
X149400000Y-97300000D03*
%TD*%
D10*
%TO.C,D53*%
X143350000Y-107350000D03*
X144800000Y-107350000D03*
X144800000Y-110500000D03*
X143350000Y-110500000D03*
%TD*%
%TO.C,D49*%
X148700000Y-99850000D03*
X150150000Y-99850000D03*
X150150000Y-103000000D03*
X148700000Y-103000000D03*
%TD*%
%TO.C,D46*%
X154050000Y-99850000D03*
X155500000Y-99850000D03*
X155500000Y-103000000D03*
X154050000Y-103000000D03*
%TD*%
D11*
%TO.C,R22*%
X144100000Y-95300000D03*
X144100000Y-97300000D03*
%TD*%
D10*
%TO.C,D35*%
X180650000Y-107350000D03*
X182100000Y-107350000D03*
X182100000Y-110500000D03*
X180650000Y-110500000D03*
%TD*%
%TO.C,D45*%
X164700000Y-114850000D03*
X166150000Y-114850000D03*
X166150000Y-118000000D03*
X164700000Y-118000000D03*
%TD*%
%TO.C,D48*%
X154050000Y-114850000D03*
X155500000Y-114850000D03*
X155500000Y-118000000D03*
X154050000Y-118000000D03*
%TD*%
%TO.C,D60*%
X132750000Y-114850000D03*
X134200000Y-114850000D03*
X134200000Y-118000000D03*
X132750000Y-118000000D03*
%TD*%
%TO.C,D41*%
X170050000Y-107350000D03*
X171500000Y-107350000D03*
X171500000Y-110500000D03*
X170050000Y-110500000D03*
%TD*%
%TO.C,D59*%
X132750000Y-107350000D03*
X134200000Y-107350000D03*
X134200000Y-110500000D03*
X132750000Y-110500000D03*
%TD*%
D11*
%TO.C,R17*%
X176100000Y-95300000D03*
X176100000Y-97300000D03*
%TD*%
%TO.C,R18*%
X170800000Y-95300000D03*
X170800000Y-97300000D03*
%TD*%
%TO.C,R16*%
X181400000Y-95200000D03*
X181400000Y-97200000D03*
%TD*%
D10*
%TO.C,D47*%
X154050000Y-107350000D03*
X155500000Y-107350000D03*
X155500000Y-110500000D03*
X154050000Y-110500000D03*
%TD*%
%TO.C,D39*%
X175350000Y-114850000D03*
X176800000Y-114850000D03*
X176800000Y-118000000D03*
X175350000Y-118000000D03*
%TD*%
D11*
%TO.C,R19*%
X165400000Y-95300000D03*
X165400000Y-97300000D03*
%TD*%
D10*
%TO.C,D34*%
X180650000Y-99850000D03*
X182100000Y-99850000D03*
X182100000Y-103000000D03*
X180650000Y-103000000D03*
%TD*%
%TO.C,D43*%
X164650000Y-99850000D03*
X166100000Y-99850000D03*
X166100000Y-103000000D03*
X164650000Y-103000000D03*
%TD*%
D11*
%TO.C,R24*%
X133500000Y-95300000D03*
X133500000Y-97300000D03*
%TD*%
%TO.C,R20*%
X154700000Y-95300000D03*
X154700000Y-97300000D03*
%TD*%
D10*
%TO.C,D44*%
X164650000Y-107350000D03*
X166100000Y-107350000D03*
X166100000Y-110500000D03*
X164650000Y-110500000D03*
%TD*%
%TO.C,D37*%
X175350000Y-99850000D03*
X176800000Y-99850000D03*
X176800000Y-103000000D03*
X175350000Y-103000000D03*
%TD*%
%TO.C,D52*%
X143350000Y-99850000D03*
X144800000Y-99850000D03*
X144800000Y-103000000D03*
X143350000Y-103000000D03*
%TD*%
M02*
