%TF.GenerationSoftware,KiCad,Pcbnew,8.0.9-8.0.9-0~ubuntu25.04.1*%
%TF.CreationDate,2025-05-02T04:18:54-07:00*%
%TF.ProjectId,TSSI,54535349-2e6b-4696-9361-645f70636258,3*%
%TF.SameCoordinates,Original*%
%TF.FileFunction,Legend,Bot*%
%TF.FilePolarity,Positive*%
%FSLAX46Y46*%
G04 Gerber Fmt 4.6, Leading zero omitted, Abs format (unit mm)*
G04 Created by KiCad (PCBNEW 8.0.9-8.0.9-0~ubuntu25.04.1) date 2025-05-02 04:18:54*
%MOMM*%
%LPD*%
G01*
G04 APERTURE LIST*
%ADD10C,0.100000*%
%ADD11C,0.150000*%
%ADD12C,0.120000*%
G04 APERTURE END LIST*
D10*
X139839285Y-116832419D02*
X139839285Y-115832419D01*
X139839285Y-115832419D02*
X139601190Y-115832419D01*
X139601190Y-115832419D02*
X139458333Y-115880038D01*
X139458333Y-115880038D02*
X139363095Y-115975276D01*
X139363095Y-115975276D02*
X139315476Y-116070514D01*
X139315476Y-116070514D02*
X139267857Y-116260990D01*
X139267857Y-116260990D02*
X139267857Y-116403847D01*
X139267857Y-116403847D02*
X139315476Y-116594323D01*
X139315476Y-116594323D02*
X139363095Y-116689561D01*
X139363095Y-116689561D02*
X139458333Y-116784800D01*
X139458333Y-116784800D02*
X139601190Y-116832419D01*
X139601190Y-116832419D02*
X139839285Y-116832419D01*
X138363095Y-115832419D02*
X138839285Y-115832419D01*
X138839285Y-115832419D02*
X138886904Y-116308609D01*
X138886904Y-116308609D02*
X138839285Y-116260990D01*
X138839285Y-116260990D02*
X138744047Y-116213371D01*
X138744047Y-116213371D02*
X138505952Y-116213371D01*
X138505952Y-116213371D02*
X138410714Y-116260990D01*
X138410714Y-116260990D02*
X138363095Y-116308609D01*
X138363095Y-116308609D02*
X138315476Y-116403847D01*
X138315476Y-116403847D02*
X138315476Y-116641942D01*
X138315476Y-116641942D02*
X138363095Y-116737180D01*
X138363095Y-116737180D02*
X138410714Y-116784800D01*
X138410714Y-116784800D02*
X138505952Y-116832419D01*
X138505952Y-116832419D02*
X138744047Y-116832419D01*
X138744047Y-116832419D02*
X138839285Y-116784800D01*
X138839285Y-116784800D02*
X138886904Y-116737180D01*
X137982142Y-115832419D02*
X137315476Y-115832419D01*
X137315476Y-115832419D02*
X137744047Y-116832419D01*
X187739285Y-116832419D02*
X187739285Y-115832419D01*
X187739285Y-115832419D02*
X187501190Y-115832419D01*
X187501190Y-115832419D02*
X187358333Y-115880038D01*
X187358333Y-115880038D02*
X187263095Y-115975276D01*
X187263095Y-115975276D02*
X187215476Y-116070514D01*
X187215476Y-116070514D02*
X187167857Y-116260990D01*
X187167857Y-116260990D02*
X187167857Y-116403847D01*
X187167857Y-116403847D02*
X187215476Y-116594323D01*
X187215476Y-116594323D02*
X187263095Y-116689561D01*
X187263095Y-116689561D02*
X187358333Y-116784800D01*
X187358333Y-116784800D02*
X187501190Y-116832419D01*
X187501190Y-116832419D02*
X187739285Y-116832419D01*
X186834523Y-115832419D02*
X186215476Y-115832419D01*
X186215476Y-115832419D02*
X186548809Y-116213371D01*
X186548809Y-116213371D02*
X186405952Y-116213371D01*
X186405952Y-116213371D02*
X186310714Y-116260990D01*
X186310714Y-116260990D02*
X186263095Y-116308609D01*
X186263095Y-116308609D02*
X186215476Y-116403847D01*
X186215476Y-116403847D02*
X186215476Y-116641942D01*
X186215476Y-116641942D02*
X186263095Y-116737180D01*
X186263095Y-116737180D02*
X186310714Y-116784800D01*
X186310714Y-116784800D02*
X186405952Y-116832419D01*
X186405952Y-116832419D02*
X186691666Y-116832419D01*
X186691666Y-116832419D02*
X186786904Y-116784800D01*
X186786904Y-116784800D02*
X186834523Y-116737180D01*
X185882142Y-115832419D02*
X185263095Y-115832419D01*
X185263095Y-115832419D02*
X185596428Y-116213371D01*
X185596428Y-116213371D02*
X185453571Y-116213371D01*
X185453571Y-116213371D02*
X185358333Y-116260990D01*
X185358333Y-116260990D02*
X185310714Y-116308609D01*
X185310714Y-116308609D02*
X185263095Y-116403847D01*
X185263095Y-116403847D02*
X185263095Y-116641942D01*
X185263095Y-116641942D02*
X185310714Y-116737180D01*
X185310714Y-116737180D02*
X185358333Y-116784800D01*
X185358333Y-116784800D02*
X185453571Y-116832419D01*
X185453571Y-116832419D02*
X185739285Y-116832419D01*
X185739285Y-116832419D02*
X185834523Y-116784800D01*
X185834523Y-116784800D02*
X185882142Y-116737180D01*
X139839285Y-109332419D02*
X139839285Y-108332419D01*
X139839285Y-108332419D02*
X139601190Y-108332419D01*
X139601190Y-108332419D02*
X139458333Y-108380038D01*
X139458333Y-108380038D02*
X139363095Y-108475276D01*
X139363095Y-108475276D02*
X139315476Y-108570514D01*
X139315476Y-108570514D02*
X139267857Y-108760990D01*
X139267857Y-108760990D02*
X139267857Y-108903847D01*
X139267857Y-108903847D02*
X139315476Y-109094323D01*
X139315476Y-109094323D02*
X139363095Y-109189561D01*
X139363095Y-109189561D02*
X139458333Y-109284800D01*
X139458333Y-109284800D02*
X139601190Y-109332419D01*
X139601190Y-109332419D02*
X139839285Y-109332419D01*
X138363095Y-108332419D02*
X138839285Y-108332419D01*
X138839285Y-108332419D02*
X138886904Y-108808609D01*
X138886904Y-108808609D02*
X138839285Y-108760990D01*
X138839285Y-108760990D02*
X138744047Y-108713371D01*
X138744047Y-108713371D02*
X138505952Y-108713371D01*
X138505952Y-108713371D02*
X138410714Y-108760990D01*
X138410714Y-108760990D02*
X138363095Y-108808609D01*
X138363095Y-108808609D02*
X138315476Y-108903847D01*
X138315476Y-108903847D02*
X138315476Y-109141942D01*
X138315476Y-109141942D02*
X138363095Y-109237180D01*
X138363095Y-109237180D02*
X138410714Y-109284800D01*
X138410714Y-109284800D02*
X138505952Y-109332419D01*
X138505952Y-109332419D02*
X138744047Y-109332419D01*
X138744047Y-109332419D02*
X138839285Y-109284800D01*
X138839285Y-109284800D02*
X138886904Y-109237180D01*
X137458333Y-108332419D02*
X137648809Y-108332419D01*
X137648809Y-108332419D02*
X137744047Y-108380038D01*
X137744047Y-108380038D02*
X137791666Y-108427657D01*
X137791666Y-108427657D02*
X137886904Y-108570514D01*
X137886904Y-108570514D02*
X137934523Y-108760990D01*
X137934523Y-108760990D02*
X137934523Y-109141942D01*
X137934523Y-109141942D02*
X137886904Y-109237180D01*
X137886904Y-109237180D02*
X137839285Y-109284800D01*
X137839285Y-109284800D02*
X137744047Y-109332419D01*
X137744047Y-109332419D02*
X137553571Y-109332419D01*
X137553571Y-109332419D02*
X137458333Y-109284800D01*
X137458333Y-109284800D02*
X137410714Y-109237180D01*
X137410714Y-109237180D02*
X137363095Y-109141942D01*
X137363095Y-109141942D02*
X137363095Y-108903847D01*
X137363095Y-108903847D02*
X137410714Y-108808609D01*
X137410714Y-108808609D02*
X137458333Y-108760990D01*
X137458333Y-108760990D02*
X137553571Y-108713371D01*
X137553571Y-108713371D02*
X137744047Y-108713371D01*
X137744047Y-108713371D02*
X137839285Y-108760990D01*
X137839285Y-108760990D02*
X137886904Y-108808609D01*
X137886904Y-108808609D02*
X137934523Y-108903847D01*
X150489285Y-109332419D02*
X150489285Y-108332419D01*
X150489285Y-108332419D02*
X150251190Y-108332419D01*
X150251190Y-108332419D02*
X150108333Y-108380038D01*
X150108333Y-108380038D02*
X150013095Y-108475276D01*
X150013095Y-108475276D02*
X149965476Y-108570514D01*
X149965476Y-108570514D02*
X149917857Y-108760990D01*
X149917857Y-108760990D02*
X149917857Y-108903847D01*
X149917857Y-108903847D02*
X149965476Y-109094323D01*
X149965476Y-109094323D02*
X150013095Y-109189561D01*
X150013095Y-109189561D02*
X150108333Y-109284800D01*
X150108333Y-109284800D02*
X150251190Y-109332419D01*
X150251190Y-109332419D02*
X150489285Y-109332419D01*
X149013095Y-108332419D02*
X149489285Y-108332419D01*
X149489285Y-108332419D02*
X149536904Y-108808609D01*
X149536904Y-108808609D02*
X149489285Y-108760990D01*
X149489285Y-108760990D02*
X149394047Y-108713371D01*
X149394047Y-108713371D02*
X149155952Y-108713371D01*
X149155952Y-108713371D02*
X149060714Y-108760990D01*
X149060714Y-108760990D02*
X149013095Y-108808609D01*
X149013095Y-108808609D02*
X148965476Y-108903847D01*
X148965476Y-108903847D02*
X148965476Y-109141942D01*
X148965476Y-109141942D02*
X149013095Y-109237180D01*
X149013095Y-109237180D02*
X149060714Y-109284800D01*
X149060714Y-109284800D02*
X149155952Y-109332419D01*
X149155952Y-109332419D02*
X149394047Y-109332419D01*
X149394047Y-109332419D02*
X149489285Y-109284800D01*
X149489285Y-109284800D02*
X149536904Y-109237180D01*
X148346428Y-108332419D02*
X148251190Y-108332419D01*
X148251190Y-108332419D02*
X148155952Y-108380038D01*
X148155952Y-108380038D02*
X148108333Y-108427657D01*
X148108333Y-108427657D02*
X148060714Y-108522895D01*
X148060714Y-108522895D02*
X148013095Y-108713371D01*
X148013095Y-108713371D02*
X148013095Y-108951466D01*
X148013095Y-108951466D02*
X148060714Y-109141942D01*
X148060714Y-109141942D02*
X148108333Y-109237180D01*
X148108333Y-109237180D02*
X148155952Y-109284800D01*
X148155952Y-109284800D02*
X148251190Y-109332419D01*
X148251190Y-109332419D02*
X148346428Y-109332419D01*
X148346428Y-109332419D02*
X148441666Y-109284800D01*
X148441666Y-109284800D02*
X148489285Y-109237180D01*
X148489285Y-109237180D02*
X148536904Y-109141942D01*
X148536904Y-109141942D02*
X148584523Y-108951466D01*
X148584523Y-108951466D02*
X148584523Y-108713371D01*
X148584523Y-108713371D02*
X148536904Y-108522895D01*
X148536904Y-108522895D02*
X148489285Y-108427657D01*
X148489285Y-108427657D02*
X148441666Y-108380038D01*
X148441666Y-108380038D02*
X148346428Y-108332419D01*
X145139285Y-116832419D02*
X145139285Y-115832419D01*
X145139285Y-115832419D02*
X144901190Y-115832419D01*
X144901190Y-115832419D02*
X144758333Y-115880038D01*
X144758333Y-115880038D02*
X144663095Y-115975276D01*
X144663095Y-115975276D02*
X144615476Y-116070514D01*
X144615476Y-116070514D02*
X144567857Y-116260990D01*
X144567857Y-116260990D02*
X144567857Y-116403847D01*
X144567857Y-116403847D02*
X144615476Y-116594323D01*
X144615476Y-116594323D02*
X144663095Y-116689561D01*
X144663095Y-116689561D02*
X144758333Y-116784800D01*
X144758333Y-116784800D02*
X144901190Y-116832419D01*
X144901190Y-116832419D02*
X145139285Y-116832419D01*
X143663095Y-115832419D02*
X144139285Y-115832419D01*
X144139285Y-115832419D02*
X144186904Y-116308609D01*
X144186904Y-116308609D02*
X144139285Y-116260990D01*
X144139285Y-116260990D02*
X144044047Y-116213371D01*
X144044047Y-116213371D02*
X143805952Y-116213371D01*
X143805952Y-116213371D02*
X143710714Y-116260990D01*
X143710714Y-116260990D02*
X143663095Y-116308609D01*
X143663095Y-116308609D02*
X143615476Y-116403847D01*
X143615476Y-116403847D02*
X143615476Y-116641942D01*
X143615476Y-116641942D02*
X143663095Y-116737180D01*
X143663095Y-116737180D02*
X143710714Y-116784800D01*
X143710714Y-116784800D02*
X143805952Y-116832419D01*
X143805952Y-116832419D02*
X144044047Y-116832419D01*
X144044047Y-116832419D02*
X144139285Y-116784800D01*
X144139285Y-116784800D02*
X144186904Y-116737180D01*
X142758333Y-116165752D02*
X142758333Y-116832419D01*
X142996428Y-115784800D02*
X143234523Y-116499085D01*
X143234523Y-116499085D02*
X142615476Y-116499085D01*
X139839285Y-101832419D02*
X139839285Y-100832419D01*
X139839285Y-100832419D02*
X139601190Y-100832419D01*
X139601190Y-100832419D02*
X139458333Y-100880038D01*
X139458333Y-100880038D02*
X139363095Y-100975276D01*
X139363095Y-100975276D02*
X139315476Y-101070514D01*
X139315476Y-101070514D02*
X139267857Y-101260990D01*
X139267857Y-101260990D02*
X139267857Y-101403847D01*
X139267857Y-101403847D02*
X139315476Y-101594323D01*
X139315476Y-101594323D02*
X139363095Y-101689561D01*
X139363095Y-101689561D02*
X139458333Y-101784800D01*
X139458333Y-101784800D02*
X139601190Y-101832419D01*
X139601190Y-101832419D02*
X139839285Y-101832419D01*
X138363095Y-100832419D02*
X138839285Y-100832419D01*
X138839285Y-100832419D02*
X138886904Y-101308609D01*
X138886904Y-101308609D02*
X138839285Y-101260990D01*
X138839285Y-101260990D02*
X138744047Y-101213371D01*
X138744047Y-101213371D02*
X138505952Y-101213371D01*
X138505952Y-101213371D02*
X138410714Y-101260990D01*
X138410714Y-101260990D02*
X138363095Y-101308609D01*
X138363095Y-101308609D02*
X138315476Y-101403847D01*
X138315476Y-101403847D02*
X138315476Y-101641942D01*
X138315476Y-101641942D02*
X138363095Y-101737180D01*
X138363095Y-101737180D02*
X138410714Y-101784800D01*
X138410714Y-101784800D02*
X138505952Y-101832419D01*
X138505952Y-101832419D02*
X138744047Y-101832419D01*
X138744047Y-101832419D02*
X138839285Y-101784800D01*
X138839285Y-101784800D02*
X138886904Y-101737180D01*
X137410714Y-100832419D02*
X137886904Y-100832419D01*
X137886904Y-100832419D02*
X137934523Y-101308609D01*
X137934523Y-101308609D02*
X137886904Y-101260990D01*
X137886904Y-101260990D02*
X137791666Y-101213371D01*
X137791666Y-101213371D02*
X137553571Y-101213371D01*
X137553571Y-101213371D02*
X137458333Y-101260990D01*
X137458333Y-101260990D02*
X137410714Y-101308609D01*
X137410714Y-101308609D02*
X137363095Y-101403847D01*
X137363095Y-101403847D02*
X137363095Y-101641942D01*
X137363095Y-101641942D02*
X137410714Y-101737180D01*
X137410714Y-101737180D02*
X137458333Y-101784800D01*
X137458333Y-101784800D02*
X137553571Y-101832419D01*
X137553571Y-101832419D02*
X137791666Y-101832419D01*
X137791666Y-101832419D02*
X137886904Y-101784800D01*
X137886904Y-101784800D02*
X137934523Y-101737180D01*
X187739285Y-101832419D02*
X187739285Y-100832419D01*
X187739285Y-100832419D02*
X187501190Y-100832419D01*
X187501190Y-100832419D02*
X187358333Y-100880038D01*
X187358333Y-100880038D02*
X187263095Y-100975276D01*
X187263095Y-100975276D02*
X187215476Y-101070514D01*
X187215476Y-101070514D02*
X187167857Y-101260990D01*
X187167857Y-101260990D02*
X187167857Y-101403847D01*
X187167857Y-101403847D02*
X187215476Y-101594323D01*
X187215476Y-101594323D02*
X187263095Y-101689561D01*
X187263095Y-101689561D02*
X187358333Y-101784800D01*
X187358333Y-101784800D02*
X187501190Y-101832419D01*
X187501190Y-101832419D02*
X187739285Y-101832419D01*
X186834523Y-100832419D02*
X186215476Y-100832419D01*
X186215476Y-100832419D02*
X186548809Y-101213371D01*
X186548809Y-101213371D02*
X186405952Y-101213371D01*
X186405952Y-101213371D02*
X186310714Y-101260990D01*
X186310714Y-101260990D02*
X186263095Y-101308609D01*
X186263095Y-101308609D02*
X186215476Y-101403847D01*
X186215476Y-101403847D02*
X186215476Y-101641942D01*
X186215476Y-101641942D02*
X186263095Y-101737180D01*
X186263095Y-101737180D02*
X186310714Y-101784800D01*
X186310714Y-101784800D02*
X186405952Y-101832419D01*
X186405952Y-101832419D02*
X186691666Y-101832419D01*
X186691666Y-101832419D02*
X186786904Y-101784800D01*
X186786904Y-101784800D02*
X186834523Y-101737180D01*
X185263095Y-101832419D02*
X185834523Y-101832419D01*
X185548809Y-101832419D02*
X185548809Y-100832419D01*
X185548809Y-100832419D02*
X185644047Y-100975276D01*
X185644047Y-100975276D02*
X185739285Y-101070514D01*
X185739285Y-101070514D02*
X185834523Y-101118133D01*
X182439285Y-116832419D02*
X182439285Y-115832419D01*
X182439285Y-115832419D02*
X182201190Y-115832419D01*
X182201190Y-115832419D02*
X182058333Y-115880038D01*
X182058333Y-115880038D02*
X181963095Y-115975276D01*
X181963095Y-115975276D02*
X181915476Y-116070514D01*
X181915476Y-116070514D02*
X181867857Y-116260990D01*
X181867857Y-116260990D02*
X181867857Y-116403847D01*
X181867857Y-116403847D02*
X181915476Y-116594323D01*
X181915476Y-116594323D02*
X181963095Y-116689561D01*
X181963095Y-116689561D02*
X182058333Y-116784800D01*
X182058333Y-116784800D02*
X182201190Y-116832419D01*
X182201190Y-116832419D02*
X182439285Y-116832419D01*
X181534523Y-115832419D02*
X180915476Y-115832419D01*
X180915476Y-115832419D02*
X181248809Y-116213371D01*
X181248809Y-116213371D02*
X181105952Y-116213371D01*
X181105952Y-116213371D02*
X181010714Y-116260990D01*
X181010714Y-116260990D02*
X180963095Y-116308609D01*
X180963095Y-116308609D02*
X180915476Y-116403847D01*
X180915476Y-116403847D02*
X180915476Y-116641942D01*
X180915476Y-116641942D02*
X180963095Y-116737180D01*
X180963095Y-116737180D02*
X181010714Y-116784800D01*
X181010714Y-116784800D02*
X181105952Y-116832419D01*
X181105952Y-116832419D02*
X181391666Y-116832419D01*
X181391666Y-116832419D02*
X181486904Y-116784800D01*
X181486904Y-116784800D02*
X181534523Y-116737180D01*
X180058333Y-115832419D02*
X180248809Y-115832419D01*
X180248809Y-115832419D02*
X180344047Y-115880038D01*
X180344047Y-115880038D02*
X180391666Y-115927657D01*
X180391666Y-115927657D02*
X180486904Y-116070514D01*
X180486904Y-116070514D02*
X180534523Y-116260990D01*
X180534523Y-116260990D02*
X180534523Y-116641942D01*
X180534523Y-116641942D02*
X180486904Y-116737180D01*
X180486904Y-116737180D02*
X180439285Y-116784800D01*
X180439285Y-116784800D02*
X180344047Y-116832419D01*
X180344047Y-116832419D02*
X180153571Y-116832419D01*
X180153571Y-116832419D02*
X180058333Y-116784800D01*
X180058333Y-116784800D02*
X180010714Y-116737180D01*
X180010714Y-116737180D02*
X179963095Y-116641942D01*
X179963095Y-116641942D02*
X179963095Y-116403847D01*
X179963095Y-116403847D02*
X180010714Y-116308609D01*
X180010714Y-116308609D02*
X180058333Y-116260990D01*
X180058333Y-116260990D02*
X180153571Y-116213371D01*
X180153571Y-116213371D02*
X180344047Y-116213371D01*
X180344047Y-116213371D02*
X180439285Y-116260990D01*
X180439285Y-116260990D02*
X180486904Y-116308609D01*
X180486904Y-116308609D02*
X180534523Y-116403847D01*
X171839285Y-101832419D02*
X171839285Y-100832419D01*
X171839285Y-100832419D02*
X171601190Y-100832419D01*
X171601190Y-100832419D02*
X171458333Y-100880038D01*
X171458333Y-100880038D02*
X171363095Y-100975276D01*
X171363095Y-100975276D02*
X171315476Y-101070514D01*
X171315476Y-101070514D02*
X171267857Y-101260990D01*
X171267857Y-101260990D02*
X171267857Y-101403847D01*
X171267857Y-101403847D02*
X171315476Y-101594323D01*
X171315476Y-101594323D02*
X171363095Y-101689561D01*
X171363095Y-101689561D02*
X171458333Y-101784800D01*
X171458333Y-101784800D02*
X171601190Y-101832419D01*
X171601190Y-101832419D02*
X171839285Y-101832419D01*
X170410714Y-101165752D02*
X170410714Y-101832419D01*
X170648809Y-100784800D02*
X170886904Y-101499085D01*
X170886904Y-101499085D02*
X170267857Y-101499085D01*
X169696428Y-100832419D02*
X169601190Y-100832419D01*
X169601190Y-100832419D02*
X169505952Y-100880038D01*
X169505952Y-100880038D02*
X169458333Y-100927657D01*
X169458333Y-100927657D02*
X169410714Y-101022895D01*
X169410714Y-101022895D02*
X169363095Y-101213371D01*
X169363095Y-101213371D02*
X169363095Y-101451466D01*
X169363095Y-101451466D02*
X169410714Y-101641942D01*
X169410714Y-101641942D02*
X169458333Y-101737180D01*
X169458333Y-101737180D02*
X169505952Y-101784800D01*
X169505952Y-101784800D02*
X169601190Y-101832419D01*
X169601190Y-101832419D02*
X169696428Y-101832419D01*
X169696428Y-101832419D02*
X169791666Y-101784800D01*
X169791666Y-101784800D02*
X169839285Y-101737180D01*
X169839285Y-101737180D02*
X169886904Y-101641942D01*
X169886904Y-101641942D02*
X169934523Y-101451466D01*
X169934523Y-101451466D02*
X169934523Y-101213371D01*
X169934523Y-101213371D02*
X169886904Y-101022895D01*
X169886904Y-101022895D02*
X169839285Y-100927657D01*
X169839285Y-100927657D02*
X169791666Y-100880038D01*
X169791666Y-100880038D02*
X169696428Y-100832419D01*
X150489285Y-116832419D02*
X150489285Y-115832419D01*
X150489285Y-115832419D02*
X150251190Y-115832419D01*
X150251190Y-115832419D02*
X150108333Y-115880038D01*
X150108333Y-115880038D02*
X150013095Y-115975276D01*
X150013095Y-115975276D02*
X149965476Y-116070514D01*
X149965476Y-116070514D02*
X149917857Y-116260990D01*
X149917857Y-116260990D02*
X149917857Y-116403847D01*
X149917857Y-116403847D02*
X149965476Y-116594323D01*
X149965476Y-116594323D02*
X150013095Y-116689561D01*
X150013095Y-116689561D02*
X150108333Y-116784800D01*
X150108333Y-116784800D02*
X150251190Y-116832419D01*
X150251190Y-116832419D02*
X150489285Y-116832419D01*
X149013095Y-115832419D02*
X149489285Y-115832419D01*
X149489285Y-115832419D02*
X149536904Y-116308609D01*
X149536904Y-116308609D02*
X149489285Y-116260990D01*
X149489285Y-116260990D02*
X149394047Y-116213371D01*
X149394047Y-116213371D02*
X149155952Y-116213371D01*
X149155952Y-116213371D02*
X149060714Y-116260990D01*
X149060714Y-116260990D02*
X149013095Y-116308609D01*
X149013095Y-116308609D02*
X148965476Y-116403847D01*
X148965476Y-116403847D02*
X148965476Y-116641942D01*
X148965476Y-116641942D02*
X149013095Y-116737180D01*
X149013095Y-116737180D02*
X149060714Y-116784800D01*
X149060714Y-116784800D02*
X149155952Y-116832419D01*
X149155952Y-116832419D02*
X149394047Y-116832419D01*
X149394047Y-116832419D02*
X149489285Y-116784800D01*
X149489285Y-116784800D02*
X149536904Y-116737180D01*
X148013095Y-116832419D02*
X148584523Y-116832419D01*
X148298809Y-116832419D02*
X148298809Y-115832419D01*
X148298809Y-115832419D02*
X148394047Y-115975276D01*
X148394047Y-115975276D02*
X148489285Y-116070514D01*
X148489285Y-116070514D02*
X148584523Y-116118133D01*
D11*
X185404819Y-95557142D02*
X184928628Y-95223809D01*
X185404819Y-94985714D02*
X184404819Y-94985714D01*
X184404819Y-94985714D02*
X184404819Y-95366666D01*
X184404819Y-95366666D02*
X184452438Y-95461904D01*
X184452438Y-95461904D02*
X184500057Y-95509523D01*
X184500057Y-95509523D02*
X184595295Y-95557142D01*
X184595295Y-95557142D02*
X184738152Y-95557142D01*
X184738152Y-95557142D02*
X184833390Y-95509523D01*
X184833390Y-95509523D02*
X184881009Y-95461904D01*
X184881009Y-95461904D02*
X184928628Y-95366666D01*
X184928628Y-95366666D02*
X184928628Y-94985714D01*
X185404819Y-96509523D02*
X185404819Y-95938095D01*
X185404819Y-96223809D02*
X184404819Y-96223809D01*
X184404819Y-96223809D02*
X184547676Y-96128571D01*
X184547676Y-96128571D02*
X184642914Y-96033333D01*
X184642914Y-96033333D02*
X184690533Y-95938095D01*
X184404819Y-97414285D02*
X184404819Y-96938095D01*
X184404819Y-96938095D02*
X184881009Y-96890476D01*
X184881009Y-96890476D02*
X184833390Y-96938095D01*
X184833390Y-96938095D02*
X184785771Y-97033333D01*
X184785771Y-97033333D02*
X184785771Y-97271428D01*
X184785771Y-97271428D02*
X184833390Y-97366666D01*
X184833390Y-97366666D02*
X184881009Y-97414285D01*
X184881009Y-97414285D02*
X184976247Y-97461904D01*
X184976247Y-97461904D02*
X185214342Y-97461904D01*
X185214342Y-97461904D02*
X185309580Y-97414285D01*
X185309580Y-97414285D02*
X185357200Y-97366666D01*
X185357200Y-97366666D02*
X185404819Y-97271428D01*
X185404819Y-97271428D02*
X185404819Y-97033333D01*
X185404819Y-97033333D02*
X185357200Y-96938095D01*
X185357200Y-96938095D02*
X185309580Y-96890476D01*
X137704819Y-95657142D02*
X137228628Y-95323809D01*
X137704819Y-95085714D02*
X136704819Y-95085714D01*
X136704819Y-95085714D02*
X136704819Y-95466666D01*
X136704819Y-95466666D02*
X136752438Y-95561904D01*
X136752438Y-95561904D02*
X136800057Y-95609523D01*
X136800057Y-95609523D02*
X136895295Y-95657142D01*
X136895295Y-95657142D02*
X137038152Y-95657142D01*
X137038152Y-95657142D02*
X137133390Y-95609523D01*
X137133390Y-95609523D02*
X137181009Y-95561904D01*
X137181009Y-95561904D02*
X137228628Y-95466666D01*
X137228628Y-95466666D02*
X137228628Y-95085714D01*
X136800057Y-96038095D02*
X136752438Y-96085714D01*
X136752438Y-96085714D02*
X136704819Y-96180952D01*
X136704819Y-96180952D02*
X136704819Y-96419047D01*
X136704819Y-96419047D02*
X136752438Y-96514285D01*
X136752438Y-96514285D02*
X136800057Y-96561904D01*
X136800057Y-96561904D02*
X136895295Y-96609523D01*
X136895295Y-96609523D02*
X136990533Y-96609523D01*
X136990533Y-96609523D02*
X137133390Y-96561904D01*
X137133390Y-96561904D02*
X137704819Y-95990476D01*
X137704819Y-95990476D02*
X137704819Y-96609523D01*
X136704819Y-96942857D02*
X136704819Y-97561904D01*
X136704819Y-97561904D02*
X137085771Y-97228571D01*
X137085771Y-97228571D02*
X137085771Y-97371428D01*
X137085771Y-97371428D02*
X137133390Y-97466666D01*
X137133390Y-97466666D02*
X137181009Y-97514285D01*
X137181009Y-97514285D02*
X137276247Y-97561904D01*
X137276247Y-97561904D02*
X137514342Y-97561904D01*
X137514342Y-97561904D02*
X137609580Y-97514285D01*
X137609580Y-97514285D02*
X137657200Y-97466666D01*
X137657200Y-97466666D02*
X137704819Y-97371428D01*
X137704819Y-97371428D02*
X137704819Y-97085714D01*
X137704819Y-97085714D02*
X137657200Y-96990476D01*
X137657200Y-96990476D02*
X137609580Y-96942857D01*
D10*
X177139285Y-109332419D02*
X177139285Y-108332419D01*
X177139285Y-108332419D02*
X176901190Y-108332419D01*
X176901190Y-108332419D02*
X176758333Y-108380038D01*
X176758333Y-108380038D02*
X176663095Y-108475276D01*
X176663095Y-108475276D02*
X176615476Y-108570514D01*
X176615476Y-108570514D02*
X176567857Y-108760990D01*
X176567857Y-108760990D02*
X176567857Y-108903847D01*
X176567857Y-108903847D02*
X176615476Y-109094323D01*
X176615476Y-109094323D02*
X176663095Y-109189561D01*
X176663095Y-109189561D02*
X176758333Y-109284800D01*
X176758333Y-109284800D02*
X176901190Y-109332419D01*
X176901190Y-109332419D02*
X177139285Y-109332419D01*
X176234523Y-108332419D02*
X175615476Y-108332419D01*
X175615476Y-108332419D02*
X175948809Y-108713371D01*
X175948809Y-108713371D02*
X175805952Y-108713371D01*
X175805952Y-108713371D02*
X175710714Y-108760990D01*
X175710714Y-108760990D02*
X175663095Y-108808609D01*
X175663095Y-108808609D02*
X175615476Y-108903847D01*
X175615476Y-108903847D02*
X175615476Y-109141942D01*
X175615476Y-109141942D02*
X175663095Y-109237180D01*
X175663095Y-109237180D02*
X175710714Y-109284800D01*
X175710714Y-109284800D02*
X175805952Y-109332419D01*
X175805952Y-109332419D02*
X176091666Y-109332419D01*
X176091666Y-109332419D02*
X176186904Y-109284800D01*
X176186904Y-109284800D02*
X176234523Y-109237180D01*
X175044047Y-108760990D02*
X175139285Y-108713371D01*
X175139285Y-108713371D02*
X175186904Y-108665752D01*
X175186904Y-108665752D02*
X175234523Y-108570514D01*
X175234523Y-108570514D02*
X175234523Y-108522895D01*
X175234523Y-108522895D02*
X175186904Y-108427657D01*
X175186904Y-108427657D02*
X175139285Y-108380038D01*
X175139285Y-108380038D02*
X175044047Y-108332419D01*
X175044047Y-108332419D02*
X174853571Y-108332419D01*
X174853571Y-108332419D02*
X174758333Y-108380038D01*
X174758333Y-108380038D02*
X174710714Y-108427657D01*
X174710714Y-108427657D02*
X174663095Y-108522895D01*
X174663095Y-108522895D02*
X174663095Y-108570514D01*
X174663095Y-108570514D02*
X174710714Y-108665752D01*
X174710714Y-108665752D02*
X174758333Y-108713371D01*
X174758333Y-108713371D02*
X174853571Y-108760990D01*
X174853571Y-108760990D02*
X175044047Y-108760990D01*
X175044047Y-108760990D02*
X175139285Y-108808609D01*
X175139285Y-108808609D02*
X175186904Y-108856228D01*
X175186904Y-108856228D02*
X175234523Y-108951466D01*
X175234523Y-108951466D02*
X175234523Y-109141942D01*
X175234523Y-109141942D02*
X175186904Y-109237180D01*
X175186904Y-109237180D02*
X175139285Y-109284800D01*
X175139285Y-109284800D02*
X175044047Y-109332419D01*
X175044047Y-109332419D02*
X174853571Y-109332419D01*
X174853571Y-109332419D02*
X174758333Y-109284800D01*
X174758333Y-109284800D02*
X174710714Y-109237180D01*
X174710714Y-109237180D02*
X174663095Y-109141942D01*
X174663095Y-109141942D02*
X174663095Y-108951466D01*
X174663095Y-108951466D02*
X174710714Y-108856228D01*
X174710714Y-108856228D02*
X174758333Y-108808609D01*
X174758333Y-108808609D02*
X174853571Y-108760990D01*
X134539285Y-101832419D02*
X134539285Y-100832419D01*
X134539285Y-100832419D02*
X134301190Y-100832419D01*
X134301190Y-100832419D02*
X134158333Y-100880038D01*
X134158333Y-100880038D02*
X134063095Y-100975276D01*
X134063095Y-100975276D02*
X134015476Y-101070514D01*
X134015476Y-101070514D02*
X133967857Y-101260990D01*
X133967857Y-101260990D02*
X133967857Y-101403847D01*
X133967857Y-101403847D02*
X134015476Y-101594323D01*
X134015476Y-101594323D02*
X134063095Y-101689561D01*
X134063095Y-101689561D02*
X134158333Y-101784800D01*
X134158333Y-101784800D02*
X134301190Y-101832419D01*
X134301190Y-101832419D02*
X134539285Y-101832419D01*
X133063095Y-100832419D02*
X133539285Y-100832419D01*
X133539285Y-100832419D02*
X133586904Y-101308609D01*
X133586904Y-101308609D02*
X133539285Y-101260990D01*
X133539285Y-101260990D02*
X133444047Y-101213371D01*
X133444047Y-101213371D02*
X133205952Y-101213371D01*
X133205952Y-101213371D02*
X133110714Y-101260990D01*
X133110714Y-101260990D02*
X133063095Y-101308609D01*
X133063095Y-101308609D02*
X133015476Y-101403847D01*
X133015476Y-101403847D02*
X133015476Y-101641942D01*
X133015476Y-101641942D02*
X133063095Y-101737180D01*
X133063095Y-101737180D02*
X133110714Y-101784800D01*
X133110714Y-101784800D02*
X133205952Y-101832419D01*
X133205952Y-101832419D02*
X133444047Y-101832419D01*
X133444047Y-101832419D02*
X133539285Y-101784800D01*
X133539285Y-101784800D02*
X133586904Y-101737180D01*
X132444047Y-101260990D02*
X132539285Y-101213371D01*
X132539285Y-101213371D02*
X132586904Y-101165752D01*
X132586904Y-101165752D02*
X132634523Y-101070514D01*
X132634523Y-101070514D02*
X132634523Y-101022895D01*
X132634523Y-101022895D02*
X132586904Y-100927657D01*
X132586904Y-100927657D02*
X132539285Y-100880038D01*
X132539285Y-100880038D02*
X132444047Y-100832419D01*
X132444047Y-100832419D02*
X132253571Y-100832419D01*
X132253571Y-100832419D02*
X132158333Y-100880038D01*
X132158333Y-100880038D02*
X132110714Y-100927657D01*
X132110714Y-100927657D02*
X132063095Y-101022895D01*
X132063095Y-101022895D02*
X132063095Y-101070514D01*
X132063095Y-101070514D02*
X132110714Y-101165752D01*
X132110714Y-101165752D02*
X132158333Y-101213371D01*
X132158333Y-101213371D02*
X132253571Y-101260990D01*
X132253571Y-101260990D02*
X132444047Y-101260990D01*
X132444047Y-101260990D02*
X132539285Y-101308609D01*
X132539285Y-101308609D02*
X132586904Y-101356228D01*
X132586904Y-101356228D02*
X132634523Y-101451466D01*
X132634523Y-101451466D02*
X132634523Y-101641942D01*
X132634523Y-101641942D02*
X132586904Y-101737180D01*
X132586904Y-101737180D02*
X132539285Y-101784800D01*
X132539285Y-101784800D02*
X132444047Y-101832419D01*
X132444047Y-101832419D02*
X132253571Y-101832419D01*
X132253571Y-101832419D02*
X132158333Y-101784800D01*
X132158333Y-101784800D02*
X132110714Y-101737180D01*
X132110714Y-101737180D02*
X132063095Y-101641942D01*
X132063095Y-101641942D02*
X132063095Y-101451466D01*
X132063095Y-101451466D02*
X132110714Y-101356228D01*
X132110714Y-101356228D02*
X132158333Y-101308609D01*
X132158333Y-101308609D02*
X132253571Y-101260990D01*
X171839285Y-116832419D02*
X171839285Y-115832419D01*
X171839285Y-115832419D02*
X171601190Y-115832419D01*
X171601190Y-115832419D02*
X171458333Y-115880038D01*
X171458333Y-115880038D02*
X171363095Y-115975276D01*
X171363095Y-115975276D02*
X171315476Y-116070514D01*
X171315476Y-116070514D02*
X171267857Y-116260990D01*
X171267857Y-116260990D02*
X171267857Y-116403847D01*
X171267857Y-116403847D02*
X171315476Y-116594323D01*
X171315476Y-116594323D02*
X171363095Y-116689561D01*
X171363095Y-116689561D02*
X171458333Y-116784800D01*
X171458333Y-116784800D02*
X171601190Y-116832419D01*
X171601190Y-116832419D02*
X171839285Y-116832419D01*
X170410714Y-116165752D02*
X170410714Y-116832419D01*
X170648809Y-115784800D02*
X170886904Y-116499085D01*
X170886904Y-116499085D02*
X170267857Y-116499085D01*
X169934523Y-115927657D02*
X169886904Y-115880038D01*
X169886904Y-115880038D02*
X169791666Y-115832419D01*
X169791666Y-115832419D02*
X169553571Y-115832419D01*
X169553571Y-115832419D02*
X169458333Y-115880038D01*
X169458333Y-115880038D02*
X169410714Y-115927657D01*
X169410714Y-115927657D02*
X169363095Y-116022895D01*
X169363095Y-116022895D02*
X169363095Y-116118133D01*
X169363095Y-116118133D02*
X169410714Y-116260990D01*
X169410714Y-116260990D02*
X169982142Y-116832419D01*
X169982142Y-116832419D02*
X169363095Y-116832419D01*
X187739285Y-109332419D02*
X187739285Y-108332419D01*
X187739285Y-108332419D02*
X187501190Y-108332419D01*
X187501190Y-108332419D02*
X187358333Y-108380038D01*
X187358333Y-108380038D02*
X187263095Y-108475276D01*
X187263095Y-108475276D02*
X187215476Y-108570514D01*
X187215476Y-108570514D02*
X187167857Y-108760990D01*
X187167857Y-108760990D02*
X187167857Y-108903847D01*
X187167857Y-108903847D02*
X187215476Y-109094323D01*
X187215476Y-109094323D02*
X187263095Y-109189561D01*
X187263095Y-109189561D02*
X187358333Y-109284800D01*
X187358333Y-109284800D02*
X187501190Y-109332419D01*
X187501190Y-109332419D02*
X187739285Y-109332419D01*
X186834523Y-108332419D02*
X186215476Y-108332419D01*
X186215476Y-108332419D02*
X186548809Y-108713371D01*
X186548809Y-108713371D02*
X186405952Y-108713371D01*
X186405952Y-108713371D02*
X186310714Y-108760990D01*
X186310714Y-108760990D02*
X186263095Y-108808609D01*
X186263095Y-108808609D02*
X186215476Y-108903847D01*
X186215476Y-108903847D02*
X186215476Y-109141942D01*
X186215476Y-109141942D02*
X186263095Y-109237180D01*
X186263095Y-109237180D02*
X186310714Y-109284800D01*
X186310714Y-109284800D02*
X186405952Y-109332419D01*
X186405952Y-109332419D02*
X186691666Y-109332419D01*
X186691666Y-109332419D02*
X186786904Y-109284800D01*
X186786904Y-109284800D02*
X186834523Y-109237180D01*
X185834523Y-108427657D02*
X185786904Y-108380038D01*
X185786904Y-108380038D02*
X185691666Y-108332419D01*
X185691666Y-108332419D02*
X185453571Y-108332419D01*
X185453571Y-108332419D02*
X185358333Y-108380038D01*
X185358333Y-108380038D02*
X185310714Y-108427657D01*
X185310714Y-108427657D02*
X185263095Y-108522895D01*
X185263095Y-108522895D02*
X185263095Y-108618133D01*
X185263095Y-108618133D02*
X185310714Y-108760990D01*
X185310714Y-108760990D02*
X185882142Y-109332419D01*
X185882142Y-109332419D02*
X185263095Y-109332419D01*
D11*
X148204819Y-95657142D02*
X147728628Y-95323809D01*
X148204819Y-95085714D02*
X147204819Y-95085714D01*
X147204819Y-95085714D02*
X147204819Y-95466666D01*
X147204819Y-95466666D02*
X147252438Y-95561904D01*
X147252438Y-95561904D02*
X147300057Y-95609523D01*
X147300057Y-95609523D02*
X147395295Y-95657142D01*
X147395295Y-95657142D02*
X147538152Y-95657142D01*
X147538152Y-95657142D02*
X147633390Y-95609523D01*
X147633390Y-95609523D02*
X147681009Y-95561904D01*
X147681009Y-95561904D02*
X147728628Y-95466666D01*
X147728628Y-95466666D02*
X147728628Y-95085714D01*
X147300057Y-96038095D02*
X147252438Y-96085714D01*
X147252438Y-96085714D02*
X147204819Y-96180952D01*
X147204819Y-96180952D02*
X147204819Y-96419047D01*
X147204819Y-96419047D02*
X147252438Y-96514285D01*
X147252438Y-96514285D02*
X147300057Y-96561904D01*
X147300057Y-96561904D02*
X147395295Y-96609523D01*
X147395295Y-96609523D02*
X147490533Y-96609523D01*
X147490533Y-96609523D02*
X147633390Y-96561904D01*
X147633390Y-96561904D02*
X148204819Y-95990476D01*
X148204819Y-95990476D02*
X148204819Y-96609523D01*
X148204819Y-97561904D02*
X148204819Y-96990476D01*
X148204819Y-97276190D02*
X147204819Y-97276190D01*
X147204819Y-97276190D02*
X147347676Y-97180952D01*
X147347676Y-97180952D02*
X147442914Y-97085714D01*
X147442914Y-97085714D02*
X147490533Y-96990476D01*
D10*
X145139285Y-109332419D02*
X145139285Y-108332419D01*
X145139285Y-108332419D02*
X144901190Y-108332419D01*
X144901190Y-108332419D02*
X144758333Y-108380038D01*
X144758333Y-108380038D02*
X144663095Y-108475276D01*
X144663095Y-108475276D02*
X144615476Y-108570514D01*
X144615476Y-108570514D02*
X144567857Y-108760990D01*
X144567857Y-108760990D02*
X144567857Y-108903847D01*
X144567857Y-108903847D02*
X144615476Y-109094323D01*
X144615476Y-109094323D02*
X144663095Y-109189561D01*
X144663095Y-109189561D02*
X144758333Y-109284800D01*
X144758333Y-109284800D02*
X144901190Y-109332419D01*
X144901190Y-109332419D02*
X145139285Y-109332419D01*
X143663095Y-108332419D02*
X144139285Y-108332419D01*
X144139285Y-108332419D02*
X144186904Y-108808609D01*
X144186904Y-108808609D02*
X144139285Y-108760990D01*
X144139285Y-108760990D02*
X144044047Y-108713371D01*
X144044047Y-108713371D02*
X143805952Y-108713371D01*
X143805952Y-108713371D02*
X143710714Y-108760990D01*
X143710714Y-108760990D02*
X143663095Y-108808609D01*
X143663095Y-108808609D02*
X143615476Y-108903847D01*
X143615476Y-108903847D02*
X143615476Y-109141942D01*
X143615476Y-109141942D02*
X143663095Y-109237180D01*
X143663095Y-109237180D02*
X143710714Y-109284800D01*
X143710714Y-109284800D02*
X143805952Y-109332419D01*
X143805952Y-109332419D02*
X144044047Y-109332419D01*
X144044047Y-109332419D02*
X144139285Y-109284800D01*
X144139285Y-109284800D02*
X144186904Y-109237180D01*
X143282142Y-108332419D02*
X142663095Y-108332419D01*
X142663095Y-108332419D02*
X142996428Y-108713371D01*
X142996428Y-108713371D02*
X142853571Y-108713371D01*
X142853571Y-108713371D02*
X142758333Y-108760990D01*
X142758333Y-108760990D02*
X142710714Y-108808609D01*
X142710714Y-108808609D02*
X142663095Y-108903847D01*
X142663095Y-108903847D02*
X142663095Y-109141942D01*
X142663095Y-109141942D02*
X142710714Y-109237180D01*
X142710714Y-109237180D02*
X142758333Y-109284800D01*
X142758333Y-109284800D02*
X142853571Y-109332419D01*
X142853571Y-109332419D02*
X143139285Y-109332419D01*
X143139285Y-109332419D02*
X143234523Y-109284800D01*
X143234523Y-109284800D02*
X143282142Y-109237180D01*
X150489285Y-101832419D02*
X150489285Y-100832419D01*
X150489285Y-100832419D02*
X150251190Y-100832419D01*
X150251190Y-100832419D02*
X150108333Y-100880038D01*
X150108333Y-100880038D02*
X150013095Y-100975276D01*
X150013095Y-100975276D02*
X149965476Y-101070514D01*
X149965476Y-101070514D02*
X149917857Y-101260990D01*
X149917857Y-101260990D02*
X149917857Y-101403847D01*
X149917857Y-101403847D02*
X149965476Y-101594323D01*
X149965476Y-101594323D02*
X150013095Y-101689561D01*
X150013095Y-101689561D02*
X150108333Y-101784800D01*
X150108333Y-101784800D02*
X150251190Y-101832419D01*
X150251190Y-101832419D02*
X150489285Y-101832419D01*
X149060714Y-101165752D02*
X149060714Y-101832419D01*
X149298809Y-100784800D02*
X149536904Y-101499085D01*
X149536904Y-101499085D02*
X148917857Y-101499085D01*
X148489285Y-101832419D02*
X148298809Y-101832419D01*
X148298809Y-101832419D02*
X148203571Y-101784800D01*
X148203571Y-101784800D02*
X148155952Y-101737180D01*
X148155952Y-101737180D02*
X148060714Y-101594323D01*
X148060714Y-101594323D02*
X148013095Y-101403847D01*
X148013095Y-101403847D02*
X148013095Y-101022895D01*
X148013095Y-101022895D02*
X148060714Y-100927657D01*
X148060714Y-100927657D02*
X148108333Y-100880038D01*
X148108333Y-100880038D02*
X148203571Y-100832419D01*
X148203571Y-100832419D02*
X148394047Y-100832419D01*
X148394047Y-100832419D02*
X148489285Y-100880038D01*
X148489285Y-100880038D02*
X148536904Y-100927657D01*
X148536904Y-100927657D02*
X148584523Y-101022895D01*
X148584523Y-101022895D02*
X148584523Y-101260990D01*
X148584523Y-101260990D02*
X148536904Y-101356228D01*
X148536904Y-101356228D02*
X148489285Y-101403847D01*
X148489285Y-101403847D02*
X148394047Y-101451466D01*
X148394047Y-101451466D02*
X148203571Y-101451466D01*
X148203571Y-101451466D02*
X148108333Y-101403847D01*
X148108333Y-101403847D02*
X148060714Y-101356228D01*
X148060714Y-101356228D02*
X148013095Y-101260990D01*
X155839285Y-101832419D02*
X155839285Y-100832419D01*
X155839285Y-100832419D02*
X155601190Y-100832419D01*
X155601190Y-100832419D02*
X155458333Y-100880038D01*
X155458333Y-100880038D02*
X155363095Y-100975276D01*
X155363095Y-100975276D02*
X155315476Y-101070514D01*
X155315476Y-101070514D02*
X155267857Y-101260990D01*
X155267857Y-101260990D02*
X155267857Y-101403847D01*
X155267857Y-101403847D02*
X155315476Y-101594323D01*
X155315476Y-101594323D02*
X155363095Y-101689561D01*
X155363095Y-101689561D02*
X155458333Y-101784800D01*
X155458333Y-101784800D02*
X155601190Y-101832419D01*
X155601190Y-101832419D02*
X155839285Y-101832419D01*
X154410714Y-101165752D02*
X154410714Y-101832419D01*
X154648809Y-100784800D02*
X154886904Y-101499085D01*
X154886904Y-101499085D02*
X154267857Y-101499085D01*
X153458333Y-100832419D02*
X153648809Y-100832419D01*
X153648809Y-100832419D02*
X153744047Y-100880038D01*
X153744047Y-100880038D02*
X153791666Y-100927657D01*
X153791666Y-100927657D02*
X153886904Y-101070514D01*
X153886904Y-101070514D02*
X153934523Y-101260990D01*
X153934523Y-101260990D02*
X153934523Y-101641942D01*
X153934523Y-101641942D02*
X153886904Y-101737180D01*
X153886904Y-101737180D02*
X153839285Y-101784800D01*
X153839285Y-101784800D02*
X153744047Y-101832419D01*
X153744047Y-101832419D02*
X153553571Y-101832419D01*
X153553571Y-101832419D02*
X153458333Y-101784800D01*
X153458333Y-101784800D02*
X153410714Y-101737180D01*
X153410714Y-101737180D02*
X153363095Y-101641942D01*
X153363095Y-101641942D02*
X153363095Y-101403847D01*
X153363095Y-101403847D02*
X153410714Y-101308609D01*
X153410714Y-101308609D02*
X153458333Y-101260990D01*
X153458333Y-101260990D02*
X153553571Y-101213371D01*
X153553571Y-101213371D02*
X153744047Y-101213371D01*
X153744047Y-101213371D02*
X153839285Y-101260990D01*
X153839285Y-101260990D02*
X153886904Y-101308609D01*
X153886904Y-101308609D02*
X153934523Y-101403847D01*
D11*
X142904819Y-95657142D02*
X142428628Y-95323809D01*
X142904819Y-95085714D02*
X141904819Y-95085714D01*
X141904819Y-95085714D02*
X141904819Y-95466666D01*
X141904819Y-95466666D02*
X141952438Y-95561904D01*
X141952438Y-95561904D02*
X142000057Y-95609523D01*
X142000057Y-95609523D02*
X142095295Y-95657142D01*
X142095295Y-95657142D02*
X142238152Y-95657142D01*
X142238152Y-95657142D02*
X142333390Y-95609523D01*
X142333390Y-95609523D02*
X142381009Y-95561904D01*
X142381009Y-95561904D02*
X142428628Y-95466666D01*
X142428628Y-95466666D02*
X142428628Y-95085714D01*
X142000057Y-96038095D02*
X141952438Y-96085714D01*
X141952438Y-96085714D02*
X141904819Y-96180952D01*
X141904819Y-96180952D02*
X141904819Y-96419047D01*
X141904819Y-96419047D02*
X141952438Y-96514285D01*
X141952438Y-96514285D02*
X142000057Y-96561904D01*
X142000057Y-96561904D02*
X142095295Y-96609523D01*
X142095295Y-96609523D02*
X142190533Y-96609523D01*
X142190533Y-96609523D02*
X142333390Y-96561904D01*
X142333390Y-96561904D02*
X142904819Y-95990476D01*
X142904819Y-95990476D02*
X142904819Y-96609523D01*
X142000057Y-96990476D02*
X141952438Y-97038095D01*
X141952438Y-97038095D02*
X141904819Y-97133333D01*
X141904819Y-97133333D02*
X141904819Y-97371428D01*
X141904819Y-97371428D02*
X141952438Y-97466666D01*
X141952438Y-97466666D02*
X142000057Y-97514285D01*
X142000057Y-97514285D02*
X142095295Y-97561904D01*
X142095295Y-97561904D02*
X142190533Y-97561904D01*
X142190533Y-97561904D02*
X142333390Y-97514285D01*
X142333390Y-97514285D02*
X142904819Y-96942857D01*
X142904819Y-96942857D02*
X142904819Y-97561904D01*
D10*
X182439285Y-109332419D02*
X182439285Y-108332419D01*
X182439285Y-108332419D02*
X182201190Y-108332419D01*
X182201190Y-108332419D02*
X182058333Y-108380038D01*
X182058333Y-108380038D02*
X181963095Y-108475276D01*
X181963095Y-108475276D02*
X181915476Y-108570514D01*
X181915476Y-108570514D02*
X181867857Y-108760990D01*
X181867857Y-108760990D02*
X181867857Y-108903847D01*
X181867857Y-108903847D02*
X181915476Y-109094323D01*
X181915476Y-109094323D02*
X181963095Y-109189561D01*
X181963095Y-109189561D02*
X182058333Y-109284800D01*
X182058333Y-109284800D02*
X182201190Y-109332419D01*
X182201190Y-109332419D02*
X182439285Y-109332419D01*
X181534523Y-108332419D02*
X180915476Y-108332419D01*
X180915476Y-108332419D02*
X181248809Y-108713371D01*
X181248809Y-108713371D02*
X181105952Y-108713371D01*
X181105952Y-108713371D02*
X181010714Y-108760990D01*
X181010714Y-108760990D02*
X180963095Y-108808609D01*
X180963095Y-108808609D02*
X180915476Y-108903847D01*
X180915476Y-108903847D02*
X180915476Y-109141942D01*
X180915476Y-109141942D02*
X180963095Y-109237180D01*
X180963095Y-109237180D02*
X181010714Y-109284800D01*
X181010714Y-109284800D02*
X181105952Y-109332419D01*
X181105952Y-109332419D02*
X181391666Y-109332419D01*
X181391666Y-109332419D02*
X181486904Y-109284800D01*
X181486904Y-109284800D02*
X181534523Y-109237180D01*
X180010714Y-108332419D02*
X180486904Y-108332419D01*
X180486904Y-108332419D02*
X180534523Y-108808609D01*
X180534523Y-108808609D02*
X180486904Y-108760990D01*
X180486904Y-108760990D02*
X180391666Y-108713371D01*
X180391666Y-108713371D02*
X180153571Y-108713371D01*
X180153571Y-108713371D02*
X180058333Y-108760990D01*
X180058333Y-108760990D02*
X180010714Y-108808609D01*
X180010714Y-108808609D02*
X179963095Y-108903847D01*
X179963095Y-108903847D02*
X179963095Y-109141942D01*
X179963095Y-109141942D02*
X180010714Y-109237180D01*
X180010714Y-109237180D02*
X180058333Y-109284800D01*
X180058333Y-109284800D02*
X180153571Y-109332419D01*
X180153571Y-109332419D02*
X180391666Y-109332419D01*
X180391666Y-109332419D02*
X180486904Y-109284800D01*
X180486904Y-109284800D02*
X180534523Y-109237180D01*
X166489285Y-116832419D02*
X166489285Y-115832419D01*
X166489285Y-115832419D02*
X166251190Y-115832419D01*
X166251190Y-115832419D02*
X166108333Y-115880038D01*
X166108333Y-115880038D02*
X166013095Y-115975276D01*
X166013095Y-115975276D02*
X165965476Y-116070514D01*
X165965476Y-116070514D02*
X165917857Y-116260990D01*
X165917857Y-116260990D02*
X165917857Y-116403847D01*
X165917857Y-116403847D02*
X165965476Y-116594323D01*
X165965476Y-116594323D02*
X166013095Y-116689561D01*
X166013095Y-116689561D02*
X166108333Y-116784800D01*
X166108333Y-116784800D02*
X166251190Y-116832419D01*
X166251190Y-116832419D02*
X166489285Y-116832419D01*
X165060714Y-116165752D02*
X165060714Y-116832419D01*
X165298809Y-115784800D02*
X165536904Y-116499085D01*
X165536904Y-116499085D02*
X164917857Y-116499085D01*
X164060714Y-115832419D02*
X164536904Y-115832419D01*
X164536904Y-115832419D02*
X164584523Y-116308609D01*
X164584523Y-116308609D02*
X164536904Y-116260990D01*
X164536904Y-116260990D02*
X164441666Y-116213371D01*
X164441666Y-116213371D02*
X164203571Y-116213371D01*
X164203571Y-116213371D02*
X164108333Y-116260990D01*
X164108333Y-116260990D02*
X164060714Y-116308609D01*
X164060714Y-116308609D02*
X164013095Y-116403847D01*
X164013095Y-116403847D02*
X164013095Y-116641942D01*
X164013095Y-116641942D02*
X164060714Y-116737180D01*
X164060714Y-116737180D02*
X164108333Y-116784800D01*
X164108333Y-116784800D02*
X164203571Y-116832419D01*
X164203571Y-116832419D02*
X164441666Y-116832419D01*
X164441666Y-116832419D02*
X164536904Y-116784800D01*
X164536904Y-116784800D02*
X164584523Y-116737180D01*
X155839285Y-116832419D02*
X155839285Y-115832419D01*
X155839285Y-115832419D02*
X155601190Y-115832419D01*
X155601190Y-115832419D02*
X155458333Y-115880038D01*
X155458333Y-115880038D02*
X155363095Y-115975276D01*
X155363095Y-115975276D02*
X155315476Y-116070514D01*
X155315476Y-116070514D02*
X155267857Y-116260990D01*
X155267857Y-116260990D02*
X155267857Y-116403847D01*
X155267857Y-116403847D02*
X155315476Y-116594323D01*
X155315476Y-116594323D02*
X155363095Y-116689561D01*
X155363095Y-116689561D02*
X155458333Y-116784800D01*
X155458333Y-116784800D02*
X155601190Y-116832419D01*
X155601190Y-116832419D02*
X155839285Y-116832419D01*
X154410714Y-116165752D02*
X154410714Y-116832419D01*
X154648809Y-115784800D02*
X154886904Y-116499085D01*
X154886904Y-116499085D02*
X154267857Y-116499085D01*
X153744047Y-116260990D02*
X153839285Y-116213371D01*
X153839285Y-116213371D02*
X153886904Y-116165752D01*
X153886904Y-116165752D02*
X153934523Y-116070514D01*
X153934523Y-116070514D02*
X153934523Y-116022895D01*
X153934523Y-116022895D02*
X153886904Y-115927657D01*
X153886904Y-115927657D02*
X153839285Y-115880038D01*
X153839285Y-115880038D02*
X153744047Y-115832419D01*
X153744047Y-115832419D02*
X153553571Y-115832419D01*
X153553571Y-115832419D02*
X153458333Y-115880038D01*
X153458333Y-115880038D02*
X153410714Y-115927657D01*
X153410714Y-115927657D02*
X153363095Y-116022895D01*
X153363095Y-116022895D02*
X153363095Y-116070514D01*
X153363095Y-116070514D02*
X153410714Y-116165752D01*
X153410714Y-116165752D02*
X153458333Y-116213371D01*
X153458333Y-116213371D02*
X153553571Y-116260990D01*
X153553571Y-116260990D02*
X153744047Y-116260990D01*
X153744047Y-116260990D02*
X153839285Y-116308609D01*
X153839285Y-116308609D02*
X153886904Y-116356228D01*
X153886904Y-116356228D02*
X153934523Y-116451466D01*
X153934523Y-116451466D02*
X153934523Y-116641942D01*
X153934523Y-116641942D02*
X153886904Y-116737180D01*
X153886904Y-116737180D02*
X153839285Y-116784800D01*
X153839285Y-116784800D02*
X153744047Y-116832419D01*
X153744047Y-116832419D02*
X153553571Y-116832419D01*
X153553571Y-116832419D02*
X153458333Y-116784800D01*
X153458333Y-116784800D02*
X153410714Y-116737180D01*
X153410714Y-116737180D02*
X153363095Y-116641942D01*
X153363095Y-116641942D02*
X153363095Y-116451466D01*
X153363095Y-116451466D02*
X153410714Y-116356228D01*
X153410714Y-116356228D02*
X153458333Y-116308609D01*
X153458333Y-116308609D02*
X153553571Y-116260990D01*
X134539285Y-116832419D02*
X134539285Y-115832419D01*
X134539285Y-115832419D02*
X134301190Y-115832419D01*
X134301190Y-115832419D02*
X134158333Y-115880038D01*
X134158333Y-115880038D02*
X134063095Y-115975276D01*
X134063095Y-115975276D02*
X134015476Y-116070514D01*
X134015476Y-116070514D02*
X133967857Y-116260990D01*
X133967857Y-116260990D02*
X133967857Y-116403847D01*
X133967857Y-116403847D02*
X134015476Y-116594323D01*
X134015476Y-116594323D02*
X134063095Y-116689561D01*
X134063095Y-116689561D02*
X134158333Y-116784800D01*
X134158333Y-116784800D02*
X134301190Y-116832419D01*
X134301190Y-116832419D02*
X134539285Y-116832419D01*
X133110714Y-115832419D02*
X133301190Y-115832419D01*
X133301190Y-115832419D02*
X133396428Y-115880038D01*
X133396428Y-115880038D02*
X133444047Y-115927657D01*
X133444047Y-115927657D02*
X133539285Y-116070514D01*
X133539285Y-116070514D02*
X133586904Y-116260990D01*
X133586904Y-116260990D02*
X133586904Y-116641942D01*
X133586904Y-116641942D02*
X133539285Y-116737180D01*
X133539285Y-116737180D02*
X133491666Y-116784800D01*
X133491666Y-116784800D02*
X133396428Y-116832419D01*
X133396428Y-116832419D02*
X133205952Y-116832419D01*
X133205952Y-116832419D02*
X133110714Y-116784800D01*
X133110714Y-116784800D02*
X133063095Y-116737180D01*
X133063095Y-116737180D02*
X133015476Y-116641942D01*
X133015476Y-116641942D02*
X133015476Y-116403847D01*
X133015476Y-116403847D02*
X133063095Y-116308609D01*
X133063095Y-116308609D02*
X133110714Y-116260990D01*
X133110714Y-116260990D02*
X133205952Y-116213371D01*
X133205952Y-116213371D02*
X133396428Y-116213371D01*
X133396428Y-116213371D02*
X133491666Y-116260990D01*
X133491666Y-116260990D02*
X133539285Y-116308609D01*
X133539285Y-116308609D02*
X133586904Y-116403847D01*
X132396428Y-115832419D02*
X132301190Y-115832419D01*
X132301190Y-115832419D02*
X132205952Y-115880038D01*
X132205952Y-115880038D02*
X132158333Y-115927657D01*
X132158333Y-115927657D02*
X132110714Y-116022895D01*
X132110714Y-116022895D02*
X132063095Y-116213371D01*
X132063095Y-116213371D02*
X132063095Y-116451466D01*
X132063095Y-116451466D02*
X132110714Y-116641942D01*
X132110714Y-116641942D02*
X132158333Y-116737180D01*
X132158333Y-116737180D02*
X132205952Y-116784800D01*
X132205952Y-116784800D02*
X132301190Y-116832419D01*
X132301190Y-116832419D02*
X132396428Y-116832419D01*
X132396428Y-116832419D02*
X132491666Y-116784800D01*
X132491666Y-116784800D02*
X132539285Y-116737180D01*
X132539285Y-116737180D02*
X132586904Y-116641942D01*
X132586904Y-116641942D02*
X132634523Y-116451466D01*
X132634523Y-116451466D02*
X132634523Y-116213371D01*
X132634523Y-116213371D02*
X132586904Y-116022895D01*
X132586904Y-116022895D02*
X132539285Y-115927657D01*
X132539285Y-115927657D02*
X132491666Y-115880038D01*
X132491666Y-115880038D02*
X132396428Y-115832419D01*
X171839285Y-109332419D02*
X171839285Y-108332419D01*
X171839285Y-108332419D02*
X171601190Y-108332419D01*
X171601190Y-108332419D02*
X171458333Y-108380038D01*
X171458333Y-108380038D02*
X171363095Y-108475276D01*
X171363095Y-108475276D02*
X171315476Y-108570514D01*
X171315476Y-108570514D02*
X171267857Y-108760990D01*
X171267857Y-108760990D02*
X171267857Y-108903847D01*
X171267857Y-108903847D02*
X171315476Y-109094323D01*
X171315476Y-109094323D02*
X171363095Y-109189561D01*
X171363095Y-109189561D02*
X171458333Y-109284800D01*
X171458333Y-109284800D02*
X171601190Y-109332419D01*
X171601190Y-109332419D02*
X171839285Y-109332419D01*
X170410714Y-108665752D02*
X170410714Y-109332419D01*
X170648809Y-108284800D02*
X170886904Y-108999085D01*
X170886904Y-108999085D02*
X170267857Y-108999085D01*
X169363095Y-109332419D02*
X169934523Y-109332419D01*
X169648809Y-109332419D02*
X169648809Y-108332419D01*
X169648809Y-108332419D02*
X169744047Y-108475276D01*
X169744047Y-108475276D02*
X169839285Y-108570514D01*
X169839285Y-108570514D02*
X169934523Y-108618133D01*
X134539285Y-109332419D02*
X134539285Y-108332419D01*
X134539285Y-108332419D02*
X134301190Y-108332419D01*
X134301190Y-108332419D02*
X134158333Y-108380038D01*
X134158333Y-108380038D02*
X134063095Y-108475276D01*
X134063095Y-108475276D02*
X134015476Y-108570514D01*
X134015476Y-108570514D02*
X133967857Y-108760990D01*
X133967857Y-108760990D02*
X133967857Y-108903847D01*
X133967857Y-108903847D02*
X134015476Y-109094323D01*
X134015476Y-109094323D02*
X134063095Y-109189561D01*
X134063095Y-109189561D02*
X134158333Y-109284800D01*
X134158333Y-109284800D02*
X134301190Y-109332419D01*
X134301190Y-109332419D02*
X134539285Y-109332419D01*
X133063095Y-108332419D02*
X133539285Y-108332419D01*
X133539285Y-108332419D02*
X133586904Y-108808609D01*
X133586904Y-108808609D02*
X133539285Y-108760990D01*
X133539285Y-108760990D02*
X133444047Y-108713371D01*
X133444047Y-108713371D02*
X133205952Y-108713371D01*
X133205952Y-108713371D02*
X133110714Y-108760990D01*
X133110714Y-108760990D02*
X133063095Y-108808609D01*
X133063095Y-108808609D02*
X133015476Y-108903847D01*
X133015476Y-108903847D02*
X133015476Y-109141942D01*
X133015476Y-109141942D02*
X133063095Y-109237180D01*
X133063095Y-109237180D02*
X133110714Y-109284800D01*
X133110714Y-109284800D02*
X133205952Y-109332419D01*
X133205952Y-109332419D02*
X133444047Y-109332419D01*
X133444047Y-109332419D02*
X133539285Y-109284800D01*
X133539285Y-109284800D02*
X133586904Y-109237180D01*
X132539285Y-109332419D02*
X132348809Y-109332419D01*
X132348809Y-109332419D02*
X132253571Y-109284800D01*
X132253571Y-109284800D02*
X132205952Y-109237180D01*
X132205952Y-109237180D02*
X132110714Y-109094323D01*
X132110714Y-109094323D02*
X132063095Y-108903847D01*
X132063095Y-108903847D02*
X132063095Y-108522895D01*
X132063095Y-108522895D02*
X132110714Y-108427657D01*
X132110714Y-108427657D02*
X132158333Y-108380038D01*
X132158333Y-108380038D02*
X132253571Y-108332419D01*
X132253571Y-108332419D02*
X132444047Y-108332419D01*
X132444047Y-108332419D02*
X132539285Y-108380038D01*
X132539285Y-108380038D02*
X132586904Y-108427657D01*
X132586904Y-108427657D02*
X132634523Y-108522895D01*
X132634523Y-108522895D02*
X132634523Y-108760990D01*
X132634523Y-108760990D02*
X132586904Y-108856228D01*
X132586904Y-108856228D02*
X132539285Y-108903847D01*
X132539285Y-108903847D02*
X132444047Y-108951466D01*
X132444047Y-108951466D02*
X132253571Y-108951466D01*
X132253571Y-108951466D02*
X132158333Y-108903847D01*
X132158333Y-108903847D02*
X132110714Y-108856228D01*
X132110714Y-108856228D02*
X132063095Y-108760990D01*
D11*
X174904819Y-95657142D02*
X174428628Y-95323809D01*
X174904819Y-95085714D02*
X173904819Y-95085714D01*
X173904819Y-95085714D02*
X173904819Y-95466666D01*
X173904819Y-95466666D02*
X173952438Y-95561904D01*
X173952438Y-95561904D02*
X174000057Y-95609523D01*
X174000057Y-95609523D02*
X174095295Y-95657142D01*
X174095295Y-95657142D02*
X174238152Y-95657142D01*
X174238152Y-95657142D02*
X174333390Y-95609523D01*
X174333390Y-95609523D02*
X174381009Y-95561904D01*
X174381009Y-95561904D02*
X174428628Y-95466666D01*
X174428628Y-95466666D02*
X174428628Y-95085714D01*
X174904819Y-96609523D02*
X174904819Y-96038095D01*
X174904819Y-96323809D02*
X173904819Y-96323809D01*
X173904819Y-96323809D02*
X174047676Y-96228571D01*
X174047676Y-96228571D02*
X174142914Y-96133333D01*
X174142914Y-96133333D02*
X174190533Y-96038095D01*
X173904819Y-96942857D02*
X173904819Y-97609523D01*
X173904819Y-97609523D02*
X174904819Y-97180952D01*
X169604819Y-95657142D02*
X169128628Y-95323809D01*
X169604819Y-95085714D02*
X168604819Y-95085714D01*
X168604819Y-95085714D02*
X168604819Y-95466666D01*
X168604819Y-95466666D02*
X168652438Y-95561904D01*
X168652438Y-95561904D02*
X168700057Y-95609523D01*
X168700057Y-95609523D02*
X168795295Y-95657142D01*
X168795295Y-95657142D02*
X168938152Y-95657142D01*
X168938152Y-95657142D02*
X169033390Y-95609523D01*
X169033390Y-95609523D02*
X169081009Y-95561904D01*
X169081009Y-95561904D02*
X169128628Y-95466666D01*
X169128628Y-95466666D02*
X169128628Y-95085714D01*
X169604819Y-96609523D02*
X169604819Y-96038095D01*
X169604819Y-96323809D02*
X168604819Y-96323809D01*
X168604819Y-96323809D02*
X168747676Y-96228571D01*
X168747676Y-96228571D02*
X168842914Y-96133333D01*
X168842914Y-96133333D02*
X168890533Y-96038095D01*
X169033390Y-97180952D02*
X168985771Y-97085714D01*
X168985771Y-97085714D02*
X168938152Y-97038095D01*
X168938152Y-97038095D02*
X168842914Y-96990476D01*
X168842914Y-96990476D02*
X168795295Y-96990476D01*
X168795295Y-96990476D02*
X168700057Y-97038095D01*
X168700057Y-97038095D02*
X168652438Y-97085714D01*
X168652438Y-97085714D02*
X168604819Y-97180952D01*
X168604819Y-97180952D02*
X168604819Y-97371428D01*
X168604819Y-97371428D02*
X168652438Y-97466666D01*
X168652438Y-97466666D02*
X168700057Y-97514285D01*
X168700057Y-97514285D02*
X168795295Y-97561904D01*
X168795295Y-97561904D02*
X168842914Y-97561904D01*
X168842914Y-97561904D02*
X168938152Y-97514285D01*
X168938152Y-97514285D02*
X168985771Y-97466666D01*
X168985771Y-97466666D02*
X169033390Y-97371428D01*
X169033390Y-97371428D02*
X169033390Y-97180952D01*
X169033390Y-97180952D02*
X169081009Y-97085714D01*
X169081009Y-97085714D02*
X169128628Y-97038095D01*
X169128628Y-97038095D02*
X169223866Y-96990476D01*
X169223866Y-96990476D02*
X169414342Y-96990476D01*
X169414342Y-96990476D02*
X169509580Y-97038095D01*
X169509580Y-97038095D02*
X169557200Y-97085714D01*
X169557200Y-97085714D02*
X169604819Y-97180952D01*
X169604819Y-97180952D02*
X169604819Y-97371428D01*
X169604819Y-97371428D02*
X169557200Y-97466666D01*
X169557200Y-97466666D02*
X169509580Y-97514285D01*
X169509580Y-97514285D02*
X169414342Y-97561904D01*
X169414342Y-97561904D02*
X169223866Y-97561904D01*
X169223866Y-97561904D02*
X169128628Y-97514285D01*
X169128628Y-97514285D02*
X169081009Y-97466666D01*
X169081009Y-97466666D02*
X169033390Y-97371428D01*
X180204819Y-95557142D02*
X179728628Y-95223809D01*
X180204819Y-94985714D02*
X179204819Y-94985714D01*
X179204819Y-94985714D02*
X179204819Y-95366666D01*
X179204819Y-95366666D02*
X179252438Y-95461904D01*
X179252438Y-95461904D02*
X179300057Y-95509523D01*
X179300057Y-95509523D02*
X179395295Y-95557142D01*
X179395295Y-95557142D02*
X179538152Y-95557142D01*
X179538152Y-95557142D02*
X179633390Y-95509523D01*
X179633390Y-95509523D02*
X179681009Y-95461904D01*
X179681009Y-95461904D02*
X179728628Y-95366666D01*
X179728628Y-95366666D02*
X179728628Y-94985714D01*
X180204819Y-96509523D02*
X180204819Y-95938095D01*
X180204819Y-96223809D02*
X179204819Y-96223809D01*
X179204819Y-96223809D02*
X179347676Y-96128571D01*
X179347676Y-96128571D02*
X179442914Y-96033333D01*
X179442914Y-96033333D02*
X179490533Y-95938095D01*
X179204819Y-97366666D02*
X179204819Y-97176190D01*
X179204819Y-97176190D02*
X179252438Y-97080952D01*
X179252438Y-97080952D02*
X179300057Y-97033333D01*
X179300057Y-97033333D02*
X179442914Y-96938095D01*
X179442914Y-96938095D02*
X179633390Y-96890476D01*
X179633390Y-96890476D02*
X180014342Y-96890476D01*
X180014342Y-96890476D02*
X180109580Y-96938095D01*
X180109580Y-96938095D02*
X180157200Y-96985714D01*
X180157200Y-96985714D02*
X180204819Y-97080952D01*
X180204819Y-97080952D02*
X180204819Y-97271428D01*
X180204819Y-97271428D02*
X180157200Y-97366666D01*
X180157200Y-97366666D02*
X180109580Y-97414285D01*
X180109580Y-97414285D02*
X180014342Y-97461904D01*
X180014342Y-97461904D02*
X179776247Y-97461904D01*
X179776247Y-97461904D02*
X179681009Y-97414285D01*
X179681009Y-97414285D02*
X179633390Y-97366666D01*
X179633390Y-97366666D02*
X179585771Y-97271428D01*
X179585771Y-97271428D02*
X179585771Y-97080952D01*
X179585771Y-97080952D02*
X179633390Y-96985714D01*
X179633390Y-96985714D02*
X179681009Y-96938095D01*
X179681009Y-96938095D02*
X179776247Y-96890476D01*
D10*
X155839285Y-109332419D02*
X155839285Y-108332419D01*
X155839285Y-108332419D02*
X155601190Y-108332419D01*
X155601190Y-108332419D02*
X155458333Y-108380038D01*
X155458333Y-108380038D02*
X155363095Y-108475276D01*
X155363095Y-108475276D02*
X155315476Y-108570514D01*
X155315476Y-108570514D02*
X155267857Y-108760990D01*
X155267857Y-108760990D02*
X155267857Y-108903847D01*
X155267857Y-108903847D02*
X155315476Y-109094323D01*
X155315476Y-109094323D02*
X155363095Y-109189561D01*
X155363095Y-109189561D02*
X155458333Y-109284800D01*
X155458333Y-109284800D02*
X155601190Y-109332419D01*
X155601190Y-109332419D02*
X155839285Y-109332419D01*
X154410714Y-108665752D02*
X154410714Y-109332419D01*
X154648809Y-108284800D02*
X154886904Y-108999085D01*
X154886904Y-108999085D02*
X154267857Y-108999085D01*
X153982142Y-108332419D02*
X153315476Y-108332419D01*
X153315476Y-108332419D02*
X153744047Y-109332419D01*
X177139285Y-116832419D02*
X177139285Y-115832419D01*
X177139285Y-115832419D02*
X176901190Y-115832419D01*
X176901190Y-115832419D02*
X176758333Y-115880038D01*
X176758333Y-115880038D02*
X176663095Y-115975276D01*
X176663095Y-115975276D02*
X176615476Y-116070514D01*
X176615476Y-116070514D02*
X176567857Y-116260990D01*
X176567857Y-116260990D02*
X176567857Y-116403847D01*
X176567857Y-116403847D02*
X176615476Y-116594323D01*
X176615476Y-116594323D02*
X176663095Y-116689561D01*
X176663095Y-116689561D02*
X176758333Y-116784800D01*
X176758333Y-116784800D02*
X176901190Y-116832419D01*
X176901190Y-116832419D02*
X177139285Y-116832419D01*
X176234523Y-115832419D02*
X175615476Y-115832419D01*
X175615476Y-115832419D02*
X175948809Y-116213371D01*
X175948809Y-116213371D02*
X175805952Y-116213371D01*
X175805952Y-116213371D02*
X175710714Y-116260990D01*
X175710714Y-116260990D02*
X175663095Y-116308609D01*
X175663095Y-116308609D02*
X175615476Y-116403847D01*
X175615476Y-116403847D02*
X175615476Y-116641942D01*
X175615476Y-116641942D02*
X175663095Y-116737180D01*
X175663095Y-116737180D02*
X175710714Y-116784800D01*
X175710714Y-116784800D02*
X175805952Y-116832419D01*
X175805952Y-116832419D02*
X176091666Y-116832419D01*
X176091666Y-116832419D02*
X176186904Y-116784800D01*
X176186904Y-116784800D02*
X176234523Y-116737180D01*
X175139285Y-116832419D02*
X174948809Y-116832419D01*
X174948809Y-116832419D02*
X174853571Y-116784800D01*
X174853571Y-116784800D02*
X174805952Y-116737180D01*
X174805952Y-116737180D02*
X174710714Y-116594323D01*
X174710714Y-116594323D02*
X174663095Y-116403847D01*
X174663095Y-116403847D02*
X174663095Y-116022895D01*
X174663095Y-116022895D02*
X174710714Y-115927657D01*
X174710714Y-115927657D02*
X174758333Y-115880038D01*
X174758333Y-115880038D02*
X174853571Y-115832419D01*
X174853571Y-115832419D02*
X175044047Y-115832419D01*
X175044047Y-115832419D02*
X175139285Y-115880038D01*
X175139285Y-115880038D02*
X175186904Y-115927657D01*
X175186904Y-115927657D02*
X175234523Y-116022895D01*
X175234523Y-116022895D02*
X175234523Y-116260990D01*
X175234523Y-116260990D02*
X175186904Y-116356228D01*
X175186904Y-116356228D02*
X175139285Y-116403847D01*
X175139285Y-116403847D02*
X175044047Y-116451466D01*
X175044047Y-116451466D02*
X174853571Y-116451466D01*
X174853571Y-116451466D02*
X174758333Y-116403847D01*
X174758333Y-116403847D02*
X174710714Y-116356228D01*
X174710714Y-116356228D02*
X174663095Y-116260990D01*
D11*
X164204819Y-95657142D02*
X163728628Y-95323809D01*
X164204819Y-95085714D02*
X163204819Y-95085714D01*
X163204819Y-95085714D02*
X163204819Y-95466666D01*
X163204819Y-95466666D02*
X163252438Y-95561904D01*
X163252438Y-95561904D02*
X163300057Y-95609523D01*
X163300057Y-95609523D02*
X163395295Y-95657142D01*
X163395295Y-95657142D02*
X163538152Y-95657142D01*
X163538152Y-95657142D02*
X163633390Y-95609523D01*
X163633390Y-95609523D02*
X163681009Y-95561904D01*
X163681009Y-95561904D02*
X163728628Y-95466666D01*
X163728628Y-95466666D02*
X163728628Y-95085714D01*
X164204819Y-96609523D02*
X164204819Y-96038095D01*
X164204819Y-96323809D02*
X163204819Y-96323809D01*
X163204819Y-96323809D02*
X163347676Y-96228571D01*
X163347676Y-96228571D02*
X163442914Y-96133333D01*
X163442914Y-96133333D02*
X163490533Y-96038095D01*
X164204819Y-97085714D02*
X164204819Y-97276190D01*
X164204819Y-97276190D02*
X164157200Y-97371428D01*
X164157200Y-97371428D02*
X164109580Y-97419047D01*
X164109580Y-97419047D02*
X163966723Y-97514285D01*
X163966723Y-97514285D02*
X163776247Y-97561904D01*
X163776247Y-97561904D02*
X163395295Y-97561904D01*
X163395295Y-97561904D02*
X163300057Y-97514285D01*
X163300057Y-97514285D02*
X163252438Y-97466666D01*
X163252438Y-97466666D02*
X163204819Y-97371428D01*
X163204819Y-97371428D02*
X163204819Y-97180952D01*
X163204819Y-97180952D02*
X163252438Y-97085714D01*
X163252438Y-97085714D02*
X163300057Y-97038095D01*
X163300057Y-97038095D02*
X163395295Y-96990476D01*
X163395295Y-96990476D02*
X163633390Y-96990476D01*
X163633390Y-96990476D02*
X163728628Y-97038095D01*
X163728628Y-97038095D02*
X163776247Y-97085714D01*
X163776247Y-97085714D02*
X163823866Y-97180952D01*
X163823866Y-97180952D02*
X163823866Y-97371428D01*
X163823866Y-97371428D02*
X163776247Y-97466666D01*
X163776247Y-97466666D02*
X163728628Y-97514285D01*
X163728628Y-97514285D02*
X163633390Y-97561904D01*
D10*
X182439285Y-101832419D02*
X182439285Y-100832419D01*
X182439285Y-100832419D02*
X182201190Y-100832419D01*
X182201190Y-100832419D02*
X182058333Y-100880038D01*
X182058333Y-100880038D02*
X181963095Y-100975276D01*
X181963095Y-100975276D02*
X181915476Y-101070514D01*
X181915476Y-101070514D02*
X181867857Y-101260990D01*
X181867857Y-101260990D02*
X181867857Y-101403847D01*
X181867857Y-101403847D02*
X181915476Y-101594323D01*
X181915476Y-101594323D02*
X181963095Y-101689561D01*
X181963095Y-101689561D02*
X182058333Y-101784800D01*
X182058333Y-101784800D02*
X182201190Y-101832419D01*
X182201190Y-101832419D02*
X182439285Y-101832419D01*
X181534523Y-100832419D02*
X180915476Y-100832419D01*
X180915476Y-100832419D02*
X181248809Y-101213371D01*
X181248809Y-101213371D02*
X181105952Y-101213371D01*
X181105952Y-101213371D02*
X181010714Y-101260990D01*
X181010714Y-101260990D02*
X180963095Y-101308609D01*
X180963095Y-101308609D02*
X180915476Y-101403847D01*
X180915476Y-101403847D02*
X180915476Y-101641942D01*
X180915476Y-101641942D02*
X180963095Y-101737180D01*
X180963095Y-101737180D02*
X181010714Y-101784800D01*
X181010714Y-101784800D02*
X181105952Y-101832419D01*
X181105952Y-101832419D02*
X181391666Y-101832419D01*
X181391666Y-101832419D02*
X181486904Y-101784800D01*
X181486904Y-101784800D02*
X181534523Y-101737180D01*
X180058333Y-101165752D02*
X180058333Y-101832419D01*
X180296428Y-100784800D02*
X180534523Y-101499085D01*
X180534523Y-101499085D02*
X179915476Y-101499085D01*
X166439285Y-101832419D02*
X166439285Y-100832419D01*
X166439285Y-100832419D02*
X166201190Y-100832419D01*
X166201190Y-100832419D02*
X166058333Y-100880038D01*
X166058333Y-100880038D02*
X165963095Y-100975276D01*
X165963095Y-100975276D02*
X165915476Y-101070514D01*
X165915476Y-101070514D02*
X165867857Y-101260990D01*
X165867857Y-101260990D02*
X165867857Y-101403847D01*
X165867857Y-101403847D02*
X165915476Y-101594323D01*
X165915476Y-101594323D02*
X165963095Y-101689561D01*
X165963095Y-101689561D02*
X166058333Y-101784800D01*
X166058333Y-101784800D02*
X166201190Y-101832419D01*
X166201190Y-101832419D02*
X166439285Y-101832419D01*
X165010714Y-101165752D02*
X165010714Y-101832419D01*
X165248809Y-100784800D02*
X165486904Y-101499085D01*
X165486904Y-101499085D02*
X164867857Y-101499085D01*
X164582142Y-100832419D02*
X163963095Y-100832419D01*
X163963095Y-100832419D02*
X164296428Y-101213371D01*
X164296428Y-101213371D02*
X164153571Y-101213371D01*
X164153571Y-101213371D02*
X164058333Y-101260990D01*
X164058333Y-101260990D02*
X164010714Y-101308609D01*
X164010714Y-101308609D02*
X163963095Y-101403847D01*
X163963095Y-101403847D02*
X163963095Y-101641942D01*
X163963095Y-101641942D02*
X164010714Y-101737180D01*
X164010714Y-101737180D02*
X164058333Y-101784800D01*
X164058333Y-101784800D02*
X164153571Y-101832419D01*
X164153571Y-101832419D02*
X164439285Y-101832419D01*
X164439285Y-101832419D02*
X164534523Y-101784800D01*
X164534523Y-101784800D02*
X164582142Y-101737180D01*
D11*
X132304819Y-95657142D02*
X131828628Y-95323809D01*
X132304819Y-95085714D02*
X131304819Y-95085714D01*
X131304819Y-95085714D02*
X131304819Y-95466666D01*
X131304819Y-95466666D02*
X131352438Y-95561904D01*
X131352438Y-95561904D02*
X131400057Y-95609523D01*
X131400057Y-95609523D02*
X131495295Y-95657142D01*
X131495295Y-95657142D02*
X131638152Y-95657142D01*
X131638152Y-95657142D02*
X131733390Y-95609523D01*
X131733390Y-95609523D02*
X131781009Y-95561904D01*
X131781009Y-95561904D02*
X131828628Y-95466666D01*
X131828628Y-95466666D02*
X131828628Y-95085714D01*
X131400057Y-96038095D02*
X131352438Y-96085714D01*
X131352438Y-96085714D02*
X131304819Y-96180952D01*
X131304819Y-96180952D02*
X131304819Y-96419047D01*
X131304819Y-96419047D02*
X131352438Y-96514285D01*
X131352438Y-96514285D02*
X131400057Y-96561904D01*
X131400057Y-96561904D02*
X131495295Y-96609523D01*
X131495295Y-96609523D02*
X131590533Y-96609523D01*
X131590533Y-96609523D02*
X131733390Y-96561904D01*
X131733390Y-96561904D02*
X132304819Y-95990476D01*
X132304819Y-95990476D02*
X132304819Y-96609523D01*
X131638152Y-97466666D02*
X132304819Y-97466666D01*
X131257200Y-97228571D02*
X131971485Y-96990476D01*
X131971485Y-96990476D02*
X131971485Y-97609523D01*
X153504819Y-95657142D02*
X153028628Y-95323809D01*
X153504819Y-95085714D02*
X152504819Y-95085714D01*
X152504819Y-95085714D02*
X152504819Y-95466666D01*
X152504819Y-95466666D02*
X152552438Y-95561904D01*
X152552438Y-95561904D02*
X152600057Y-95609523D01*
X152600057Y-95609523D02*
X152695295Y-95657142D01*
X152695295Y-95657142D02*
X152838152Y-95657142D01*
X152838152Y-95657142D02*
X152933390Y-95609523D01*
X152933390Y-95609523D02*
X152981009Y-95561904D01*
X152981009Y-95561904D02*
X153028628Y-95466666D01*
X153028628Y-95466666D02*
X153028628Y-95085714D01*
X152600057Y-96038095D02*
X152552438Y-96085714D01*
X152552438Y-96085714D02*
X152504819Y-96180952D01*
X152504819Y-96180952D02*
X152504819Y-96419047D01*
X152504819Y-96419047D02*
X152552438Y-96514285D01*
X152552438Y-96514285D02*
X152600057Y-96561904D01*
X152600057Y-96561904D02*
X152695295Y-96609523D01*
X152695295Y-96609523D02*
X152790533Y-96609523D01*
X152790533Y-96609523D02*
X152933390Y-96561904D01*
X152933390Y-96561904D02*
X153504819Y-95990476D01*
X153504819Y-95990476D02*
X153504819Y-96609523D01*
X152504819Y-97228571D02*
X152504819Y-97323809D01*
X152504819Y-97323809D02*
X152552438Y-97419047D01*
X152552438Y-97419047D02*
X152600057Y-97466666D01*
X152600057Y-97466666D02*
X152695295Y-97514285D01*
X152695295Y-97514285D02*
X152885771Y-97561904D01*
X152885771Y-97561904D02*
X153123866Y-97561904D01*
X153123866Y-97561904D02*
X153314342Y-97514285D01*
X153314342Y-97514285D02*
X153409580Y-97466666D01*
X153409580Y-97466666D02*
X153457200Y-97419047D01*
X153457200Y-97419047D02*
X153504819Y-97323809D01*
X153504819Y-97323809D02*
X153504819Y-97228571D01*
X153504819Y-97228571D02*
X153457200Y-97133333D01*
X153457200Y-97133333D02*
X153409580Y-97085714D01*
X153409580Y-97085714D02*
X153314342Y-97038095D01*
X153314342Y-97038095D02*
X153123866Y-96990476D01*
X153123866Y-96990476D02*
X152885771Y-96990476D01*
X152885771Y-96990476D02*
X152695295Y-97038095D01*
X152695295Y-97038095D02*
X152600057Y-97085714D01*
X152600057Y-97085714D02*
X152552438Y-97133333D01*
X152552438Y-97133333D02*
X152504819Y-97228571D01*
D10*
X166439285Y-109332419D02*
X166439285Y-108332419D01*
X166439285Y-108332419D02*
X166201190Y-108332419D01*
X166201190Y-108332419D02*
X166058333Y-108380038D01*
X166058333Y-108380038D02*
X165963095Y-108475276D01*
X165963095Y-108475276D02*
X165915476Y-108570514D01*
X165915476Y-108570514D02*
X165867857Y-108760990D01*
X165867857Y-108760990D02*
X165867857Y-108903847D01*
X165867857Y-108903847D02*
X165915476Y-109094323D01*
X165915476Y-109094323D02*
X165963095Y-109189561D01*
X165963095Y-109189561D02*
X166058333Y-109284800D01*
X166058333Y-109284800D02*
X166201190Y-109332419D01*
X166201190Y-109332419D02*
X166439285Y-109332419D01*
X165010714Y-108665752D02*
X165010714Y-109332419D01*
X165248809Y-108284800D02*
X165486904Y-108999085D01*
X165486904Y-108999085D02*
X164867857Y-108999085D01*
X164058333Y-108665752D02*
X164058333Y-109332419D01*
X164296428Y-108284800D02*
X164534523Y-108999085D01*
X164534523Y-108999085D02*
X163915476Y-108999085D01*
X177139285Y-101832419D02*
X177139285Y-100832419D01*
X177139285Y-100832419D02*
X176901190Y-100832419D01*
X176901190Y-100832419D02*
X176758333Y-100880038D01*
X176758333Y-100880038D02*
X176663095Y-100975276D01*
X176663095Y-100975276D02*
X176615476Y-101070514D01*
X176615476Y-101070514D02*
X176567857Y-101260990D01*
X176567857Y-101260990D02*
X176567857Y-101403847D01*
X176567857Y-101403847D02*
X176615476Y-101594323D01*
X176615476Y-101594323D02*
X176663095Y-101689561D01*
X176663095Y-101689561D02*
X176758333Y-101784800D01*
X176758333Y-101784800D02*
X176901190Y-101832419D01*
X176901190Y-101832419D02*
X177139285Y-101832419D01*
X176234523Y-100832419D02*
X175615476Y-100832419D01*
X175615476Y-100832419D02*
X175948809Y-101213371D01*
X175948809Y-101213371D02*
X175805952Y-101213371D01*
X175805952Y-101213371D02*
X175710714Y-101260990D01*
X175710714Y-101260990D02*
X175663095Y-101308609D01*
X175663095Y-101308609D02*
X175615476Y-101403847D01*
X175615476Y-101403847D02*
X175615476Y-101641942D01*
X175615476Y-101641942D02*
X175663095Y-101737180D01*
X175663095Y-101737180D02*
X175710714Y-101784800D01*
X175710714Y-101784800D02*
X175805952Y-101832419D01*
X175805952Y-101832419D02*
X176091666Y-101832419D01*
X176091666Y-101832419D02*
X176186904Y-101784800D01*
X176186904Y-101784800D02*
X176234523Y-101737180D01*
X175282142Y-100832419D02*
X174615476Y-100832419D01*
X174615476Y-100832419D02*
X175044047Y-101832419D01*
X145139285Y-101832419D02*
X145139285Y-100832419D01*
X145139285Y-100832419D02*
X144901190Y-100832419D01*
X144901190Y-100832419D02*
X144758333Y-100880038D01*
X144758333Y-100880038D02*
X144663095Y-100975276D01*
X144663095Y-100975276D02*
X144615476Y-101070514D01*
X144615476Y-101070514D02*
X144567857Y-101260990D01*
X144567857Y-101260990D02*
X144567857Y-101403847D01*
X144567857Y-101403847D02*
X144615476Y-101594323D01*
X144615476Y-101594323D02*
X144663095Y-101689561D01*
X144663095Y-101689561D02*
X144758333Y-101784800D01*
X144758333Y-101784800D02*
X144901190Y-101832419D01*
X144901190Y-101832419D02*
X145139285Y-101832419D01*
X143663095Y-100832419D02*
X144139285Y-100832419D01*
X144139285Y-100832419D02*
X144186904Y-101308609D01*
X144186904Y-101308609D02*
X144139285Y-101260990D01*
X144139285Y-101260990D02*
X144044047Y-101213371D01*
X144044047Y-101213371D02*
X143805952Y-101213371D01*
X143805952Y-101213371D02*
X143710714Y-101260990D01*
X143710714Y-101260990D02*
X143663095Y-101308609D01*
X143663095Y-101308609D02*
X143615476Y-101403847D01*
X143615476Y-101403847D02*
X143615476Y-101641942D01*
X143615476Y-101641942D02*
X143663095Y-101737180D01*
X143663095Y-101737180D02*
X143710714Y-101784800D01*
X143710714Y-101784800D02*
X143805952Y-101832419D01*
X143805952Y-101832419D02*
X144044047Y-101832419D01*
X144044047Y-101832419D02*
X144139285Y-101784800D01*
X144139285Y-101784800D02*
X144186904Y-101737180D01*
X143234523Y-100927657D02*
X143186904Y-100880038D01*
X143186904Y-100880038D02*
X143091666Y-100832419D01*
X143091666Y-100832419D02*
X142853571Y-100832419D01*
X142853571Y-100832419D02*
X142758333Y-100880038D01*
X142758333Y-100880038D02*
X142710714Y-100927657D01*
X142710714Y-100927657D02*
X142663095Y-101022895D01*
X142663095Y-101022895D02*
X142663095Y-101118133D01*
X142663095Y-101118133D02*
X142710714Y-101260990D01*
X142710714Y-101260990D02*
X143282142Y-101832419D01*
X143282142Y-101832419D02*
X142663095Y-101832419D01*
%TO.C,D57*%
X137175000Y-114075000D02*
X137175000Y-114475000D01*
X137587500Y-114075000D02*
X137175000Y-114075000D01*
%TO.C,D33*%
X185075000Y-114075000D02*
X185075000Y-114475000D01*
X185487500Y-114075000D02*
X185075000Y-114075000D01*
%TO.C,D56*%
X137175000Y-106575000D02*
X137175000Y-106975000D01*
X137587500Y-106575000D02*
X137175000Y-106575000D01*
%TO.C,D50*%
X147825000Y-106575000D02*
X147825000Y-106975000D01*
X148237500Y-106575000D02*
X147825000Y-106575000D01*
%TO.C,D54*%
X142475000Y-114075000D02*
X142475000Y-114475000D01*
X142887500Y-114075000D02*
X142475000Y-114075000D01*
%TO.C,D55*%
X137175000Y-99075000D02*
X137175000Y-99475000D01*
X137587500Y-99075000D02*
X137175000Y-99075000D01*
%TO.C,D31*%
X185075000Y-99075000D02*
X185075000Y-99475000D01*
X185487500Y-99075000D02*
X185075000Y-99075000D01*
%TO.C,D36*%
X179775000Y-114075000D02*
X179775000Y-114475000D01*
X180187500Y-114075000D02*
X179775000Y-114075000D01*
%TO.C,D40*%
X169175000Y-99075000D02*
X169175000Y-99475000D01*
X169587500Y-99075000D02*
X169175000Y-99075000D01*
%TO.C,D51*%
X147825000Y-114075000D02*
X147825000Y-114475000D01*
X148237500Y-114075000D02*
X147825000Y-114075000D01*
D12*
%TO.C,R15*%
X185865000Y-96427064D02*
X185865000Y-95972936D01*
X187335000Y-96427064D02*
X187335000Y-95972936D01*
%TO.C,R23*%
X138165000Y-96527064D02*
X138165000Y-96072936D01*
X139635000Y-96527064D02*
X139635000Y-96072936D01*
D10*
%TO.C,D38*%
X174475000Y-106575000D02*
X174475000Y-106975000D01*
X174887500Y-106575000D02*
X174475000Y-106575000D01*
%TO.C,D58*%
X131875000Y-99075000D02*
X131875000Y-99475000D01*
X132287500Y-99075000D02*
X131875000Y-99075000D01*
%TO.C,D42*%
X169175000Y-114075000D02*
X169175000Y-114475000D01*
X169587500Y-114075000D02*
X169175000Y-114075000D01*
%TO.C,D32*%
X185075000Y-106575000D02*
X185075000Y-106975000D01*
X185487500Y-106575000D02*
X185075000Y-106575000D01*
D12*
%TO.C,R21*%
X148665000Y-96527064D02*
X148665000Y-96072936D01*
X150135000Y-96527064D02*
X150135000Y-96072936D01*
D10*
%TO.C,D53*%
X142475000Y-106575000D02*
X142475000Y-106975000D01*
X142887500Y-106575000D02*
X142475000Y-106575000D01*
%TO.C,D49*%
X147825000Y-99075000D02*
X147825000Y-99475000D01*
X148237500Y-99075000D02*
X147825000Y-99075000D01*
%TO.C,D46*%
X153175000Y-99075000D02*
X153175000Y-99475000D01*
X153587500Y-99075000D02*
X153175000Y-99075000D01*
D12*
%TO.C,R22*%
X143365000Y-96527064D02*
X143365000Y-96072936D01*
X144835000Y-96527064D02*
X144835000Y-96072936D01*
D10*
%TO.C,D35*%
X179775000Y-106575000D02*
X179775000Y-106975000D01*
X180187500Y-106575000D02*
X179775000Y-106575000D01*
%TO.C,D45*%
X163825000Y-114075000D02*
X163825000Y-114475000D01*
X164237500Y-114075000D02*
X163825000Y-114075000D01*
%TO.C,D48*%
X153175000Y-114075000D02*
X153175000Y-114475000D01*
X153587500Y-114075000D02*
X153175000Y-114075000D01*
%TO.C,D60*%
X131875000Y-114075000D02*
X131875000Y-114475000D01*
X132287500Y-114075000D02*
X131875000Y-114075000D01*
%TO.C,D41*%
X169175000Y-106575000D02*
X169175000Y-106975000D01*
X169587500Y-106575000D02*
X169175000Y-106575000D01*
%TO.C,D59*%
X131875000Y-106575000D02*
X131875000Y-106975000D01*
X132287500Y-106575000D02*
X131875000Y-106575000D01*
D12*
%TO.C,R17*%
X175365000Y-96527064D02*
X175365000Y-96072936D01*
X176835000Y-96527064D02*
X176835000Y-96072936D01*
%TO.C,R18*%
X170065000Y-96527064D02*
X170065000Y-96072936D01*
X171535000Y-96527064D02*
X171535000Y-96072936D01*
%TO.C,R16*%
X180665000Y-96427064D02*
X180665000Y-95972936D01*
X182135000Y-96427064D02*
X182135000Y-95972936D01*
D10*
%TO.C,D47*%
X153175000Y-106575000D02*
X153175000Y-106975000D01*
X153587500Y-106575000D02*
X153175000Y-106575000D01*
%TO.C,D39*%
X174475000Y-114075000D02*
X174475000Y-114475000D01*
X174887500Y-114075000D02*
X174475000Y-114075000D01*
D12*
%TO.C,R19*%
X164665000Y-96527064D02*
X164665000Y-96072936D01*
X166135000Y-96527064D02*
X166135000Y-96072936D01*
D10*
%TO.C,D34*%
X179775000Y-99075000D02*
X179775000Y-99475000D01*
X180187500Y-99075000D02*
X179775000Y-99075000D01*
%TO.C,D43*%
X163775000Y-99075000D02*
X163775000Y-99475000D01*
X164187500Y-99075000D02*
X163775000Y-99075000D01*
D12*
%TO.C,R24*%
X132765000Y-96527064D02*
X132765000Y-96072936D01*
X134235000Y-96527064D02*
X134235000Y-96072936D01*
%TO.C,R20*%
X153965000Y-96527064D02*
X153965000Y-96072936D01*
X155435000Y-96527064D02*
X155435000Y-96072936D01*
D10*
%TO.C,D44*%
X163775000Y-106575000D02*
X163775000Y-106975000D01*
X164187500Y-106575000D02*
X163775000Y-106575000D01*
%TO.C,D37*%
X174475000Y-99075000D02*
X174475000Y-99475000D01*
X174887500Y-99075000D02*
X174475000Y-99075000D01*
%TO.C,D52*%
X142475000Y-99075000D02*
X142475000Y-99475000D01*
X142887500Y-99075000D02*
X142475000Y-99075000D01*
%TD*%
M02*
