%TF.GenerationSoftware,KiCad,Pcbnew,8.0.9-8.0.9-0~ubuntu25.04.1*%
%TF.CreationDate,2025-05-02T04:18:53-07:00*%
%TF.ProjectId,TSSI,54535349-2e6b-4696-9361-645f70636258,3*%
%TF.SameCoordinates,Original*%
%TF.FileFunction,Copper,L1,Top*%
%TF.FilePolarity,Positive*%
%FSLAX46Y46*%
G04 Gerber Fmt 4.6, Leading zero omitted, Abs format (unit mm)*
G04 Created by KiCad (PCBNEW 8.0.9-8.0.9-0~ubuntu25.04.1) date 2025-05-02 04:18:53*
%MOMM*%
%LPD*%
G01*
G04 APERTURE LIST*
G04 Aperture macros list*
%AMRoundRect*
0 Rectangle with rounded corners*
0 $1 Rounding radius*
0 $2 $3 $4 $5 $6 $7 $8 $9 X,Y pos of 4 corners*
0 Add a 4 corners polygon primitive as box body*
4,1,4,$2,$3,$4,$5,$6,$7,$8,$9,$2,$3,0*
0 Add four circle primitives for the rounded corners*
1,1,$1+$1,$2,$3*
1,1,$1+$1,$4,$5*
1,1,$1+$1,$6,$7*
1,1,$1+$1,$8,$9*
0 Add four rect primitives between the rounded corners*
20,1,$1+$1,$2,$3,$4,$5,0*
20,1,$1+$1,$4,$5,$6,$7,0*
20,1,$1+$1,$6,$7,$8,$9,0*
20,1,$1+$1,$8,$9,$2,$3,0*%
G04 Aperture macros list end*
%TA.AperFunction,SMDPad,CuDef*%
%ADD10R,2.500000X2.000000*%
%TD*%
%TA.AperFunction,SMDPad,CuDef*%
%ADD11RoundRect,0.250000X-0.337500X-0.475000X0.337500X-0.475000X0.337500X0.475000X-0.337500X0.475000X0*%
%TD*%
%TA.AperFunction,SMDPad,CuDef*%
%ADD12RoundRect,0.250000X-0.475000X0.337500X-0.475000X-0.337500X0.475000X-0.337500X0.475000X0.337500X0*%
%TD*%
%TA.AperFunction,SMDPad,CuDef*%
%ADD13R,0.750000X1.150000*%
%TD*%
%TA.AperFunction,SMDPad,CuDef*%
%ADD14RoundRect,0.250000X-0.450000X0.350000X-0.450000X-0.350000X0.450000X-0.350000X0.450000X0.350000X0*%
%TD*%
%TA.AperFunction,ComponentPad*%
%ADD15RoundRect,0.250000X0.850000X0.600000X-0.850000X0.600000X-0.850000X-0.600000X0.850000X-0.600000X0*%
%TD*%
%TA.AperFunction,ComponentPad*%
%ADD16O,2.200000X1.700000*%
%TD*%
%TA.AperFunction,SMDPad,CuDef*%
%ADD17RoundRect,0.250000X0.450000X-0.350000X0.450000X0.350000X-0.450000X0.350000X-0.450000X-0.350000X0*%
%TD*%
%TA.AperFunction,ComponentPad*%
%ADD18RoundRect,0.250000X0.600000X-0.850000X0.600000X0.850000X-0.600000X0.850000X-0.600000X-0.850000X0*%
%TD*%
%TA.AperFunction,ComponentPad*%
%ADD19O,1.700000X2.200000*%
%TD*%
%TA.AperFunction,SMDPad,CuDef*%
%ADD20RoundRect,0.250000X0.337500X0.475000X-0.337500X0.475000X-0.337500X-0.475000X0.337500X-0.475000X0*%
%TD*%
%TA.AperFunction,SMDPad,CuDef*%
%ADD21R,0.558800X0.863600*%
%TD*%
%TA.AperFunction,SMDPad,CuDef*%
%ADD22RoundRect,0.050000X-0.150000X0.545000X-0.150000X-0.545000X0.150000X-0.545000X0.150000X0.545000X0*%
%TD*%
%TA.AperFunction,SMDPad,CuDef*%
%ADD23R,1.981200X0.558800*%
%TD*%
%TA.AperFunction,SMDPad,CuDef*%
%ADD24R,1.500000X2.800000*%
%TD*%
%TA.AperFunction,SMDPad,CuDef*%
%ADD25R,6.300000X6.100000*%
%TD*%
%TA.AperFunction,ViaPad*%
%ADD26C,0.600000*%
%TD*%
%TA.AperFunction,Conductor*%
%ADD27C,0.200000*%
%TD*%
G04 APERTURE END LIST*
D10*
%TO.P,L1,P*%
%TO.N,/RTDS_BUZZER*%
X202750000Y-99750000D03*
%TO.P,L1,N*%
%TO.N,GND*%
X202750000Y-114750000D03*
%TD*%
D11*
%TO.P,C5,1*%
%TO.N,GND*%
X96712500Y-109500000D03*
%TO.P,C5,2*%
%TO.N,Net-(U3-CV)*%
X98787500Y-109500000D03*
%TD*%
D12*
%TO.P,C2,1*%
%TO.N,+5V*%
X92150000Y-115520000D03*
%TO.P,C2,2*%
%TO.N,GND*%
X92150000Y-117595000D03*
%TD*%
D13*
%TO.P,D8,1,K*%
%TO.N,Net-(D9-A)*%
X144800000Y-107350000D03*
%TO.P,D8,2,K*%
X143350000Y-107350000D03*
%TO.P,D8,3,K*%
X143350000Y-110500000D03*
%TO.P,D8,4,A*%
%TO.N,Net-(D8-A)*%
X144800000Y-110500000D03*
%TD*%
D14*
%TO.P,R11,1*%
%TO.N,+12V*%
X170800000Y-95300000D03*
%TO.P,R11,2*%
%TO.N,Net-(D19-A)*%
X170800000Y-97300000D03*
%TD*%
D13*
%TO.P,D24,1,K*%
%TO.N,/RED_LIGHTS*%
X176800000Y-114850000D03*
%TO.P,D24,2,K*%
X175350000Y-114850000D03*
%TO.P,D24,3,K*%
X175350000Y-118000000D03*
%TO.P,D24,4,A*%
%TO.N,Net-(D24-A)*%
X176800000Y-118000000D03*
%TD*%
%TO.P,D28,1,K*%
%TO.N,Net-(D29-A)*%
X187400000Y-99850000D03*
%TO.P,D28,2,K*%
X185950000Y-99850000D03*
%TO.P,D28,3,K*%
X185950000Y-103000000D03*
%TO.P,D28,4,A*%
%TO.N,Net-(D28-A)*%
X187400000Y-103000000D03*
%TD*%
%TO.P,D5,1,K*%
%TO.N,Net-(D6-A)*%
X139500000Y-107350000D03*
%TO.P,D5,2,K*%
X138050000Y-107350000D03*
%TO.P,D5,3,K*%
X138050000Y-110500000D03*
%TO.P,D5,4,A*%
%TO.N,Net-(D5-A)*%
X139500000Y-110500000D03*
%TD*%
%TO.P,D12,1,K*%
%TO.N,/GREEN_LIGHTS*%
X150150000Y-114850000D03*
%TO.P,D12,2,K*%
X148700000Y-114850000D03*
%TO.P,D12,3,K*%
X148700000Y-118000000D03*
%TO.P,D12,4,A*%
%TO.N,Net-(D12-A)*%
X150150000Y-118000000D03*
%TD*%
%TO.P,D20,1,K*%
%TO.N,Net-(D21-A)*%
X171500000Y-107350000D03*
%TO.P,D20,2,K*%
X170050000Y-107350000D03*
%TO.P,D20,3,K*%
X170050000Y-110500000D03*
%TO.P,D20,4,A*%
%TO.N,Net-(D20-A)*%
X171500000Y-110500000D03*
%TD*%
D12*
%TO.P,C1,1*%
%TO.N,GND*%
X92150000Y-111492500D03*
%TO.P,C1,2*%
%TO.N,Net-(U3-THR)*%
X92150000Y-113567500D03*
%TD*%
D15*
%TO.P,J3,1,Pin_1*%
%TO.N,GND*%
X87750000Y-106250000D03*
D16*
%TO.P,J3,2,Pin_2*%
%TO.N,/RTML_5V*%
X87750000Y-103750000D03*
%TO.P,J3,3,Pin_3*%
%TO.N,/RTDS_SIGNAL*%
X87750000Y-101250000D03*
%TD*%
D13*
%TO.P,D16,1,K*%
%TO.N,Net-(D17-A)*%
X166150000Y-99850000D03*
%TO.P,D16,2,K*%
X164700000Y-99850000D03*
%TO.P,D16,3,K*%
X164700000Y-103000000D03*
%TO.P,D16,4,A*%
%TO.N,Net-(D16-A)*%
X166150000Y-103000000D03*
%TD*%
%TO.P,D11,1,K*%
%TO.N,Net-(D12-A)*%
X150150000Y-107350000D03*
%TO.P,D11,2,K*%
X148700000Y-107350000D03*
%TO.P,D11,3,K*%
X148700000Y-110500000D03*
%TO.P,D11,4,A*%
%TO.N,Net-(D11-A)*%
X150150000Y-110500000D03*
%TD*%
%TO.P,D14,1,K*%
%TO.N,Net-(D15-A)*%
X155500000Y-107350000D03*
%TO.P,D14,2,K*%
X154050000Y-107350000D03*
%TO.P,D14,3,K*%
X154050000Y-110500000D03*
%TO.P,D14,4,A*%
%TO.N,Net-(D14-A)*%
X155500000Y-110500000D03*
%TD*%
D17*
%TO.P,R2,1*%
%TO.N,Net-(U2-VCC)*%
X118200000Y-113400000D03*
%TO.P,R2,2*%
%TO.N,+5V*%
X118200000Y-111400000D03*
%TD*%
D18*
%TO.P,J4,1,Pin_1*%
%TO.N,GND*%
X95000000Y-102930000D03*
D19*
%TO.P,J4,2,Pin_2*%
%TO.N,/RTML_12V*%
X97500000Y-102930000D03*
%TD*%
D13*
%TO.P,D29,1,K*%
%TO.N,Net-(D30-A)*%
X187400000Y-107350000D03*
%TO.P,D29,2,K*%
X185950000Y-107350000D03*
%TO.P,D29,3,K*%
X185950000Y-110500000D03*
%TO.P,D29,4,A*%
%TO.N,Net-(D29-A)*%
X187400000Y-110500000D03*
%TD*%
%TO.P,D23,1,K*%
%TO.N,Net-(D24-A)*%
X176800000Y-107350000D03*
%TO.P,D23,2,K*%
X175350000Y-107350000D03*
%TO.P,D23,3,K*%
X175350000Y-110500000D03*
%TO.P,D23,4,A*%
%TO.N,Net-(D23-A)*%
X176800000Y-110500000D03*
%TD*%
D20*
%TO.P,C3,1*%
%TO.N,+12V*%
X119787500Y-107250000D03*
%TO.P,C3,2*%
%TO.N,GND*%
X117712500Y-107250000D03*
%TD*%
D13*
%TO.P,D21,1,K*%
%TO.N,/RED_LIGHTS*%
X171500000Y-114850000D03*
%TO.P,D21,2,K*%
X170050000Y-114850000D03*
%TO.P,D21,3,K*%
X170050000Y-118000000D03*
%TO.P,D21,4,A*%
%TO.N,Net-(D21-A)*%
X171500000Y-118000000D03*
%TD*%
%TO.P,D26,1,K*%
%TO.N,Net-(D27-A)*%
X182100000Y-107350000D03*
%TO.P,D26,2,K*%
X180650000Y-107350000D03*
%TO.P,D26,3,K*%
X180650000Y-110500000D03*
%TO.P,D26,4,A*%
%TO.N,Net-(D26-A)*%
X182100000Y-110500000D03*
%TD*%
%TO.P,D30,1,K*%
%TO.N,/RED_LIGHTS*%
X187400000Y-114850000D03*
%TO.P,D30,2,K*%
X185950000Y-114850000D03*
%TO.P,D30,3,K*%
X185950000Y-118000000D03*
%TO.P,D30,4,A*%
%TO.N,Net-(D30-A)*%
X187400000Y-118000000D03*
%TD*%
D21*
%TO.P,CR2,1*%
%TO.N,/RTDS_SIGNAL*%
X123500002Y-111200000D03*
%TO.P,CR2,2*%
%TO.N,/RTDS_BUZZER*%
X121600000Y-111200000D03*
%TO.P,CR2,3*%
%TO.N,+5V*%
X122550001Y-113587600D03*
%TD*%
D12*
%TO.P,C4,1*%
%TO.N,+5V*%
X113250000Y-94212500D03*
%TO.P,C4,2*%
%TO.N,GND*%
X113250000Y-96287500D03*
%TD*%
D14*
%TO.P,R14,1*%
%TO.N,+12V*%
X186600000Y-95200000D03*
%TO.P,R14,2*%
%TO.N,Net-(D28-A)*%
X186600000Y-97200000D03*
%TD*%
D13*
%TO.P,D3,1,K*%
%TO.N,/GREEN_LIGHTS*%
X134200000Y-114850000D03*
%TO.P,D3,2,K*%
X132750000Y-114850000D03*
%TO.P,D3,3,K*%
X132750000Y-118000000D03*
%TO.P,D3,4,A*%
%TO.N,Net-(D3-A)*%
X134200000Y-118000000D03*
%TD*%
D21*
%TO.P,CR5,1*%
%TO.N,/RTML_5V*%
X113250000Y-105750000D03*
%TO.P,CR5,2*%
%TO.N,/RTML_12V*%
X111349998Y-105750000D03*
%TO.P,CR5,3*%
%TO.N,+12V*%
X112299999Y-108137600D03*
%TD*%
D22*
%TO.P,U1,1*%
%TO.N,/BMS_STATUS*%
X110650000Y-111500000D03*
%TO.P,U1,2*%
%TO.N,/IMD_STATUS*%
X110000000Y-111500000D03*
%TO.P,U1,3,GND*%
%TO.N,GND*%
X109350000Y-111500000D03*
%TO.P,U1,4*%
%TO.N,/GREEN_LIGHT_LOGIC*%
X109350000Y-113420000D03*
%TO.P,U1,5,VCC*%
%TO.N,Net-(U1-VCC)*%
X110650000Y-113420000D03*
%TD*%
D14*
%TO.P,R7,1*%
%TO.N,+12V*%
X144100000Y-95300000D03*
%TO.P,R7,2*%
%TO.N,Net-(D7-A)*%
X144100000Y-97300000D03*
%TD*%
D23*
%TO.P,U3,1,GND*%
%TO.N,GND*%
X95322400Y-111480000D03*
%TO.P,U3,2,TR*%
%TO.N,Net-(U3-THR)*%
X95322400Y-112750000D03*
%TO.P,U3,3,Q*%
%TO.N,/FLASH_LEDS*%
X95322400Y-114020000D03*
%TO.P,U3,4,R*%
%TO.N,/RED_LIGHT_LOGIC*%
X95322400Y-115290000D03*
%TO.P,U3,5,CV*%
%TO.N,Net-(U3-CV)*%
X100250000Y-115290000D03*
%TO.P,U3,6,THR*%
%TO.N,Net-(U3-THR)*%
X100250000Y-114020000D03*
%TO.P,U3,7,DIS*%
%TO.N,Net-(U3-DIS)*%
X100250000Y-112750000D03*
%TO.P,U3,8,VCC*%
%TO.N,+5V*%
X100250000Y-111480000D03*
%TD*%
D13*
%TO.P,D22,1,K*%
%TO.N,Net-(D23-A)*%
X176800000Y-99850000D03*
%TO.P,D22,2,K*%
X175350000Y-99850000D03*
%TO.P,D22,3,K*%
X175350000Y-103000000D03*
%TO.P,D22,4,A*%
%TO.N,Net-(D22-A)*%
X176800000Y-103000000D03*
%TD*%
%TO.P,D1,1,K*%
%TO.N,Net-(D2-A)*%
X134200000Y-99850000D03*
%TO.P,D1,2,K*%
X132750000Y-99850000D03*
%TO.P,D1,3,K*%
X132750000Y-103000000D03*
%TO.P,D1,4,A*%
%TO.N,Net-(D1-A)*%
X134200000Y-103000000D03*
%TD*%
%TO.P,D27,1,K*%
%TO.N,/RED_LIGHTS*%
X182100000Y-114850000D03*
%TO.P,D27,2,K*%
X180650000Y-114850000D03*
%TO.P,D27,3,K*%
X180650000Y-118000000D03*
%TO.P,D27,4,A*%
%TO.N,Net-(D27-A)*%
X182100000Y-118000000D03*
%TD*%
%TO.P,D6,1,K*%
%TO.N,/GREEN_LIGHTS*%
X139500000Y-114850000D03*
%TO.P,D6,2,K*%
X138050000Y-114850000D03*
%TO.P,D6,3,K*%
X138050000Y-118000000D03*
%TO.P,D6,4,A*%
%TO.N,Net-(D6-A)*%
X139500000Y-118000000D03*
%TD*%
%TO.P,D17,1,K*%
%TO.N,Net-(D18-A)*%
X166150000Y-107350000D03*
%TO.P,D17,2,K*%
X164700000Y-107350000D03*
%TO.P,D17,3,K*%
X164700000Y-110500000D03*
%TO.P,D17,4,A*%
%TO.N,Net-(D17-A)*%
X166150000Y-110500000D03*
%TD*%
D15*
%TO.P,J1,1,Pin_1*%
%TO.N,GND*%
X87890000Y-120000000D03*
D16*
%TO.P,J1,2,Pin_2*%
%TO.N,+12V*%
X87890000Y-117500000D03*
%TO.P,J1,3,Pin_3*%
%TO.N,/BMS_STATUS*%
X87890000Y-115000000D03*
%TO.P,J1,4,Pin_4*%
%TO.N,/IMD_STATUS*%
X87890000Y-112500000D03*
%TD*%
D13*
%TO.P,D18,1,K*%
%TO.N,/RED_LIGHTS*%
X166150000Y-114850000D03*
%TO.P,D18,2,K*%
X164700000Y-114850000D03*
%TO.P,D18,3,K*%
X164700000Y-118000000D03*
%TO.P,D18,4,A*%
%TO.N,Net-(D18-A)*%
X166150000Y-118000000D03*
%TD*%
D21*
%TO.P,CR4,1*%
%TO.N,/GREEN_LIGHT_LOGIC*%
X120200002Y-117306200D03*
%TO.P,CR4,2*%
%TO.N,GND*%
X118300000Y-117306200D03*
%TO.P,CR4,3*%
%TO.N,/GREEN_LIGHTS*%
X119250001Y-119693800D03*
%TD*%
D13*
%TO.P,D2,1,K*%
%TO.N,Net-(D3-A)*%
X134200000Y-107350000D03*
%TO.P,D2,2,K*%
X132750000Y-107350000D03*
%TO.P,D2,3,K*%
X132750000Y-110500000D03*
%TO.P,D2,4,A*%
%TO.N,Net-(D2-A)*%
X134200000Y-110500000D03*
%TD*%
D14*
%TO.P,R4,1*%
%TO.N,Net-(U3-DIS)*%
X103500000Y-115520000D03*
%TO.P,R4,2*%
%TO.N,+5V*%
X103500000Y-117520000D03*
%TD*%
D18*
%TO.P,J2,1,Pin_1*%
%TO.N,GND*%
X105750000Y-102930000D03*
D19*
%TO.P,J2,2,Pin_2*%
%TO.N,/RTML_12V*%
X108250000Y-102930000D03*
%TD*%
D14*
%TO.P,R9,1*%
%TO.N,+12V*%
X154800000Y-95300000D03*
%TO.P,R9,2*%
%TO.N,Net-(D13-A)*%
X154800000Y-97300000D03*
%TD*%
%TO.P,R13,1*%
%TO.N,+12V*%
X181400000Y-95200000D03*
%TO.P,R13,2*%
%TO.N,Net-(D25-A)*%
X181400000Y-97200000D03*
%TD*%
%TO.P,R6,1*%
%TO.N,+12V*%
X138800000Y-95300000D03*
%TO.P,R6,2*%
%TO.N,Net-(D4-A)*%
X138800000Y-97300000D03*
%TD*%
D13*
%TO.P,D7,1,K*%
%TO.N,Net-(D8-A)*%
X144800000Y-99850000D03*
%TO.P,D7,2,K*%
X143350000Y-99850000D03*
%TO.P,D7,3,K*%
X143350000Y-103000000D03*
%TO.P,D7,4,A*%
%TO.N,Net-(D7-A)*%
X144800000Y-103000000D03*
%TD*%
%TO.P,D10,1,K*%
%TO.N,Net-(D11-A)*%
X150150000Y-99850000D03*
%TO.P,D10,2,K*%
X148700000Y-99850000D03*
%TO.P,D10,3,K*%
X148700000Y-103000000D03*
%TO.P,D10,4,A*%
%TO.N,Net-(D10-A)*%
X150150000Y-103000000D03*
%TD*%
D22*
%TO.P,U2,1*%
%TO.N,/BMS_STATUS*%
X115150000Y-111500000D03*
%TO.P,U2,2*%
%TO.N,/IMD_STATUS*%
X114500000Y-111500000D03*
%TO.P,U2,3,GND*%
%TO.N,GND*%
X113850000Y-111500000D03*
%TO.P,U2,4*%
%TO.N,/RED_LIGHT_LOGIC*%
X113850000Y-113420000D03*
%TO.P,U2,5,VCC*%
%TO.N,Net-(U2-VCC)*%
X115150000Y-113420000D03*
%TD*%
D17*
%TO.P,R1,1*%
%TO.N,Net-(U1-VCC)*%
X107000000Y-113400000D03*
%TO.P,R1,2*%
%TO.N,+5V*%
X107000000Y-111400000D03*
%TD*%
D24*
%TO.P,U5,1,GND/ADJ*%
%TO.N,GND*%
X116464000Y-102550000D03*
D25*
%TO.P,U5,2,OUT*%
%TO.N,+5V*%
X118750000Y-96300000D03*
D24*
%TO.P,U5,3,IN*%
%TO.N,+12V*%
X121036000Y-102550000D03*
%TD*%
D14*
%TO.P,R3,1*%
%TO.N,Net-(U3-THR)*%
X103500000Y-111020000D03*
%TO.P,R3,2*%
%TO.N,Net-(U3-DIS)*%
X103500000Y-113020000D03*
%TD*%
%TO.P,R8,1*%
%TO.N,+12V*%
X149500000Y-95300000D03*
%TO.P,R8,2*%
%TO.N,Net-(D10-A)*%
X149500000Y-97300000D03*
%TD*%
D13*
%TO.P,D15,1,K*%
%TO.N,/GREEN_LIGHTS*%
X155500000Y-114850000D03*
%TO.P,D15,2,K*%
X154050000Y-114850000D03*
%TO.P,D15,3,K*%
X154050000Y-118000000D03*
%TO.P,D15,4,A*%
%TO.N,Net-(D15-A)*%
X155500000Y-118000000D03*
%TD*%
%TO.P,D25,1,K*%
%TO.N,Net-(D26-A)*%
X182100000Y-99850000D03*
%TO.P,D25,2,K*%
X180650000Y-99850000D03*
%TO.P,D25,3,K*%
X180650000Y-103000000D03*
%TO.P,D25,4,A*%
%TO.N,Net-(D25-A)*%
X182100000Y-103000000D03*
%TD*%
%TO.P,D9,1,K*%
%TO.N,/GREEN_LIGHTS*%
X144800000Y-114850000D03*
%TO.P,D9,2,K*%
X143350000Y-114850000D03*
%TO.P,D9,3,K*%
X143350000Y-118000000D03*
%TO.P,D9,4,A*%
%TO.N,Net-(D9-A)*%
X144800000Y-118000000D03*
%TD*%
%TO.P,D19,1,K*%
%TO.N,Net-(D20-A)*%
X171500000Y-99850000D03*
%TO.P,D19,2,K*%
X170050000Y-99850000D03*
%TO.P,D19,3,K*%
X170050000Y-103000000D03*
%TO.P,D19,4,A*%
%TO.N,Net-(D19-A)*%
X171500000Y-103000000D03*
%TD*%
D14*
%TO.P,R10,1*%
%TO.N,+12V*%
X165400000Y-95300000D03*
%TO.P,R10,2*%
%TO.N,Net-(D16-A)*%
X165400000Y-97300000D03*
%TD*%
%TO.P,R12,1*%
%TO.N,+12V*%
X176100000Y-95300000D03*
%TO.P,R12,2*%
%TO.N,Net-(D22-A)*%
X176100000Y-97300000D03*
%TD*%
D13*
%TO.P,D4,1,K*%
%TO.N,Net-(D5-A)*%
X139500000Y-99850000D03*
%TO.P,D4,2,K*%
X138050000Y-99850000D03*
%TO.P,D4,3,K*%
X138050000Y-103000000D03*
%TO.P,D4,4,A*%
%TO.N,Net-(D4-A)*%
X139500000Y-103000000D03*
%TD*%
D14*
%TO.P,R5,1*%
%TO.N,+12V*%
X133500000Y-95300000D03*
%TO.P,R5,2*%
%TO.N,Net-(D1-A)*%
X133500000Y-97300000D03*
%TD*%
D21*
%TO.P,CR1,1*%
%TO.N,/FLASH_LEDS*%
X113600000Y-117300000D03*
%TO.P,CR1,2*%
%TO.N,GND*%
X111699998Y-117300000D03*
%TO.P,CR1,3*%
%TO.N,/RED_LIGHTS*%
X112649999Y-119687600D03*
%TD*%
D13*
%TO.P,D13,1,K*%
%TO.N,Net-(D14-A)*%
X155500000Y-99850000D03*
%TO.P,D13,2,K*%
X154050000Y-99850000D03*
%TO.P,D13,3,K*%
X154050000Y-103000000D03*
%TO.P,D13,4,A*%
%TO.N,Net-(D13-A)*%
X155500000Y-103000000D03*
%TD*%
D26*
%TO.N,/RED_LIGHTS*%
X163150000Y-119550000D03*
%TO.N,/GREEN_LIGHTS*%
X151675000Y-120300000D03*
%TO.N,GND*%
X108609276Y-110114254D03*
X90627328Y-106372672D03*
X92250000Y-105250000D03*
X114046015Y-114690456D03*
%TO.N,Net-(U3-CV)*%
X100682943Y-108750000D03*
X97691723Y-116522394D03*
%TO.N,+12V*%
X92234906Y-109871194D03*
X114275000Y-104775000D03*
X124675945Y-98924057D03*
X121872574Y-106936808D03*
%TO.N,+5V*%
X96779555Y-116478314D03*
X122836074Y-96663926D03*
X118786721Y-110300000D03*
X114750000Y-108750000D03*
%TO.N,/FLASH_LEDS*%
X113523617Y-115296348D03*
X98759400Y-111522071D03*
%TO.N,/RTDS_BUZZER*%
X122000000Y-109700000D03*
X123850000Y-98901472D03*
%TO.N,/RTDS_SIGNAL*%
X107250000Y-105850000D03*
X121965544Y-106142228D03*
%TO.N,/RED_LIGHT_LOGIC*%
X96844682Y-117372412D03*
X95981800Y-116538235D03*
%TO.N,/GREEN_LIGHT_LOGIC*%
X108300000Y-113400000D03*
X114824265Y-114875735D03*
%TO.N,/IMD_STATUS*%
X111072431Y-110068547D03*
X92064807Y-108375836D03*
X118950000Y-108750000D03*
%TO.N,/BMS_STATUS*%
X119615682Y-109193701D03*
X112034510Y-110134509D03*
X92419680Y-109092822D03*
%TO.N,Net-(U3-DIS)*%
X101520000Y-112174051D03*
X101936397Y-113782132D03*
%TD*%
D27*
%TO.N,/RED_LIGHTS*%
X174300000Y-115950000D02*
X175300000Y-114950000D01*
X179600000Y-115850000D02*
X180600000Y-114850000D01*
X183050000Y-120900000D02*
X177100000Y-120900000D01*
X172450000Y-120900000D02*
X175350000Y-118000000D01*
X182050000Y-114850000D02*
X180600000Y-114850000D01*
X167150000Y-120900000D02*
X170050000Y-118000000D01*
X175300000Y-118100000D02*
X174300000Y-117100000D01*
X179600000Y-117000000D02*
X179600000Y-115850000D01*
X185800000Y-118000000D02*
X184800000Y-117000000D01*
X167150000Y-120900000D02*
X172450000Y-120900000D01*
X161800000Y-120900000D02*
X167150000Y-120900000D01*
X185950000Y-118000000D02*
X183050000Y-120900000D01*
X184800000Y-117000000D02*
X184800000Y-115850000D01*
X180600000Y-118000000D02*
X179600000Y-117000000D01*
X180650000Y-118000000D02*
X177750000Y-120900000D01*
X168975000Y-115950000D02*
X169975000Y-114950000D01*
X112649999Y-119687600D02*
X113862399Y-120900000D01*
X168975000Y-117100000D02*
X168975000Y-115950000D01*
X163600000Y-115950000D02*
X164600000Y-114950000D01*
X164600000Y-118100000D02*
X163600000Y-117100000D01*
X163150000Y-119550000D02*
X161800000Y-120900000D01*
X177750000Y-120900000D02*
X172100000Y-120900000D01*
X163150000Y-119550000D02*
X164700000Y-118000000D01*
X163600000Y-117100000D02*
X163600000Y-115950000D01*
X166050000Y-114950000D02*
X164600000Y-114950000D01*
X113862399Y-120900000D02*
X161800000Y-120900000D01*
X176750000Y-114950000D02*
X175300000Y-114950000D01*
X184800000Y-115850000D02*
X185800000Y-114850000D01*
X169975000Y-118100000D02*
X168975000Y-117100000D01*
X187250000Y-114850000D02*
X185800000Y-114850000D01*
X171425000Y-114950000D02*
X169975000Y-114950000D01*
X174300000Y-117100000D02*
X174300000Y-115950000D01*
%TO.N,/GREEN_LIGHTS*%
X140875000Y-120475000D02*
X143350000Y-118000000D01*
X136762400Y-119287600D02*
X135575000Y-120475000D01*
X135550000Y-120500000D02*
X120362401Y-120500000D01*
X147700000Y-117100000D02*
X147700000Y-115950000D01*
X138000000Y-118100000D02*
X137000000Y-117100000D01*
X151750000Y-120300000D02*
X154050000Y-118000000D01*
X130250000Y-120500000D02*
X131225000Y-119525000D01*
X150150000Y-114950000D02*
X148700000Y-114950000D01*
X131700000Y-117100000D02*
X131700000Y-115950000D01*
X148700000Y-118100000D02*
X147700000Y-117100000D01*
X131225000Y-119525000D02*
X131462400Y-119287600D01*
X147700000Y-115950000D02*
X148700000Y-114950000D01*
X132700000Y-118100000D02*
X131700000Y-117100000D01*
X154000000Y-118100000D02*
X153000000Y-117100000D01*
X142300000Y-115950000D02*
X143300000Y-114950000D01*
X131700000Y-115950000D02*
X132700000Y-114950000D01*
X143300000Y-118100000D02*
X142300000Y-117100000D01*
X139450000Y-114950000D02*
X138000000Y-114950000D01*
X135575000Y-120475000D02*
X135550000Y-120500000D01*
X153000000Y-117100000D02*
X153000000Y-115950000D01*
X137000000Y-117100000D02*
X137000000Y-115950000D01*
X151475000Y-120500000D02*
X135550000Y-120500000D01*
X153000000Y-115950000D02*
X154000000Y-114950000D01*
X131462400Y-119287600D02*
X132750000Y-118000000D01*
X134150000Y-114950000D02*
X132700000Y-114950000D01*
X142300000Y-117100000D02*
X142300000Y-115950000D01*
X137000000Y-115950000D02*
X138000000Y-114950000D01*
X148700000Y-118000000D02*
X146250000Y-120450000D01*
X155450000Y-114950000D02*
X154000000Y-114950000D01*
X151675000Y-120300000D02*
X151475000Y-120500000D01*
X120362401Y-120500000D02*
X119250001Y-119387600D01*
X138050000Y-118000000D02*
X136762400Y-119287600D01*
X151675000Y-120300000D02*
X151750000Y-120300000D01*
X144750000Y-114950000D02*
X143300000Y-114950000D01*
%TO.N,GND*%
X88137258Y-105862742D02*
X87750000Y-106250000D01*
X117712500Y-107250000D02*
X117150000Y-107250000D01*
X92680000Y-105250000D02*
X96400000Y-101530000D01*
X107150000Y-101530000D02*
X105750000Y-102930000D01*
X87872672Y-106372672D02*
X87750000Y-106250000D01*
X116464000Y-102550000D02*
X118250000Y-104336000D01*
X105350000Y-102530000D02*
X105750000Y-102930000D01*
X90627328Y-106372672D02*
X87872672Y-106372672D01*
X114931453Y-109468547D02*
X109254983Y-109468547D01*
X91995000Y-117595000D02*
X92150000Y-117595000D01*
X95322400Y-110890100D02*
X95322400Y-111480000D01*
X117712500Y-107250000D02*
X117712500Y-107287500D01*
X92250000Y-105250000D02*
X92680000Y-105250000D01*
X90910172Y-106372672D02*
X95322400Y-110784900D01*
X111699998Y-116088035D02*
X111699998Y-117300000D01*
X113850000Y-111350000D02*
X113850000Y-110550000D01*
X92150000Y-110982500D02*
X92150000Y-111492500D01*
X92150000Y-111492500D02*
X95309900Y-111492500D01*
X90090000Y-112047701D02*
X90090000Y-115690000D01*
X90627328Y-106372672D02*
X90910172Y-106372672D01*
X115444000Y-101530000D02*
X107150000Y-101530000D01*
X113097577Y-114690456D02*
X111699998Y-116088035D01*
X117393800Y-116400000D02*
X118300000Y-117306200D01*
X96712500Y-109500000D02*
X95322400Y-110890100D01*
X115500000Y-116400000D02*
X117393800Y-116400000D01*
X108609276Y-110631776D02*
X109450000Y-111472500D01*
X87890000Y-120000000D02*
X90295000Y-117595000D01*
X95309900Y-111492500D02*
X95322400Y-111480000D01*
X113850000Y-110550000D02*
X114931453Y-109468547D01*
X90645201Y-111492500D02*
X90090000Y-112047701D01*
X116464000Y-102550000D02*
X115444000Y-101530000D01*
X97976346Y-101530000D02*
X98976346Y-102530000D01*
X92075000Y-117595000D02*
X92150000Y-117595000D01*
X96400000Y-101530000D02*
X97976346Y-101530000D01*
X109254983Y-109468547D02*
X108609276Y-110114254D01*
X108609276Y-110114254D02*
X108609276Y-110631776D01*
X113250000Y-99336000D02*
X116464000Y-102550000D01*
X118250000Y-106712500D02*
X117712500Y-107250000D01*
X113250000Y-96287500D02*
X113250000Y-99336000D01*
X118100000Y-107637500D02*
X117712500Y-107250000D01*
X114046015Y-114690456D02*
X113097577Y-114690456D01*
X92150000Y-111492500D02*
X90645201Y-111492500D01*
X90090000Y-115690000D02*
X91995000Y-117595000D01*
X114046015Y-114690456D02*
X114046015Y-114946015D01*
X90295000Y-117595000D02*
X92150000Y-117595000D01*
X202750000Y-114750000D02*
X196100000Y-121400000D01*
X114046015Y-114946015D02*
X115500000Y-116400000D01*
X117150000Y-107250000D02*
X114931453Y-109468547D01*
X95322400Y-110784900D02*
X95322400Y-111480000D01*
X118250000Y-104336000D02*
X118250000Y-106712500D01*
X98976346Y-102530000D02*
X105350000Y-102530000D01*
X89290000Y-121400000D02*
X87890000Y-120000000D01*
X196100000Y-121400000D02*
X89290000Y-121400000D01*
%TO.N,Net-(U3-THR)*%
X100961200Y-114020000D02*
X100250000Y-114020000D01*
X101540600Y-110900600D02*
X98532341Y-110900600D01*
X102580000Y-111020000D02*
X102120000Y-111480000D01*
X102120000Y-112750000D02*
X102120000Y-111480000D01*
X92150000Y-113567500D02*
X92967500Y-112750000D01*
X100850000Y-114020000D02*
X102120000Y-112750000D01*
X100250000Y-114020000D02*
X99650000Y-114020000D01*
X100250000Y-114020000D02*
X100850000Y-114020000D01*
X92660000Y-113567500D02*
X92660000Y-114030000D01*
X98532341Y-110900600D02*
X96682941Y-112750000D01*
X102120000Y-111480000D02*
X101540600Y-110900600D01*
X92967500Y-112750000D02*
X95322400Y-112750000D01*
X103150000Y-111020000D02*
X102580000Y-111020000D01*
X96682941Y-112750000D02*
X95322400Y-112750000D01*
%TO.N,Net-(U3-CV)*%
X97691723Y-116522394D02*
X98964117Y-115250000D01*
X99932943Y-109500000D02*
X98787500Y-109500000D01*
X98964117Y-115250000D02*
X100210000Y-115250000D01*
X100682943Y-108750000D02*
X99932943Y-109500000D01*
X100210000Y-115250000D02*
X100250000Y-115290000D01*
%TO.N,+12V*%
X121036000Y-102550000D02*
X121036000Y-101964000D01*
X89690000Y-111882015D02*
X89690000Y-115700000D01*
X121036000Y-102550000D02*
X119250000Y-104336000D01*
X121409382Y-107400000D02*
X119937500Y-107400000D01*
X114275000Y-106162599D02*
X112299999Y-108137600D01*
X133500000Y-95300000D02*
X186500000Y-95300000D01*
X89690000Y-115700000D02*
X87890000Y-117500000D01*
X127617158Y-95700000D02*
X124675945Y-98641213D01*
X121872574Y-106936808D02*
X121409382Y-107400000D01*
X92234906Y-109871194D02*
X91700821Y-109871194D01*
X186500000Y-95300000D02*
X186600000Y-95200000D01*
X114275000Y-104775000D02*
X114275000Y-106162599D01*
X119250000Y-106712500D02*
X119787500Y-107250000D01*
X121050000Y-102550000D02*
X121036000Y-102550000D01*
X119250000Y-104336000D02*
X119250000Y-106712500D01*
X91700821Y-109871194D02*
X89690000Y-111882015D01*
X133500000Y-95700000D02*
X127617158Y-95700000D01*
X124675943Y-98924057D02*
X121050000Y-102550000D01*
X124675945Y-98641213D02*
X124675945Y-98924057D01*
X119937500Y-107400000D02*
X119787500Y-107250000D01*
%TO.N,+5V*%
X122836074Y-96663926D02*
X122472148Y-96300000D01*
X119600000Y-111113279D02*
X118786721Y-110300000D01*
X105800000Y-111400000D02*
X105100000Y-110700000D01*
X96779555Y-116478314D02*
X96779555Y-114350445D01*
X107000000Y-111400000D02*
X105800000Y-111400000D01*
X118200000Y-111400000D02*
X118200000Y-110886721D01*
X105100000Y-110700000D02*
X105100000Y-116950000D01*
X119600000Y-112900000D02*
X119600000Y-111113279D01*
X118750000Y-96300000D02*
X115337500Y-96300000D01*
X96581800Y-116786764D02*
X96230329Y-117138235D01*
X122550001Y-113587600D02*
X122437601Y-113700000D01*
X118200000Y-110886721D02*
X118786721Y-110300000D01*
X106731453Y-109068547D02*
X105100000Y-110700000D01*
X94598235Y-117138235D02*
X92980000Y-115520000D01*
X122437601Y-113700000D02*
X120400000Y-113700000D01*
X92980000Y-115520000D02*
X92150000Y-115520000D01*
X114750000Y-108750000D02*
X114431453Y-109068547D01*
X96779555Y-116478314D02*
X96799113Y-116478314D01*
X96799113Y-116478314D02*
X97840799Y-117520000D01*
X122472148Y-96300000D02*
X118750000Y-96300000D01*
X120400000Y-113700000D02*
X119600000Y-112900000D01*
X97840799Y-117520000D02*
X103500000Y-117520000D01*
X96230329Y-117138235D02*
X94598235Y-117138235D01*
X105100000Y-116950000D02*
X104550000Y-117500000D01*
X103570000Y-117500000D02*
X103550000Y-117520000D01*
X96779555Y-116478314D02*
X96581800Y-116676069D01*
X104550000Y-117500000D02*
X103570000Y-117500000D01*
X99650000Y-111480000D02*
X100250000Y-111480000D01*
X103150000Y-117520000D02*
X102867157Y-117802843D01*
X99690000Y-111480000D02*
X100250000Y-111480000D01*
X115337500Y-96300000D02*
X113250000Y-94212500D01*
X96581800Y-116676069D02*
X96581800Y-116786764D01*
X96779555Y-114350445D02*
X99650000Y-111480000D01*
X114431453Y-109068547D02*
X106731453Y-109068547D01*
%TO.N,/FLASH_LEDS*%
X96261471Y-114020000D02*
X95322400Y-114020000D01*
X113600000Y-115372731D02*
X113600000Y-117300000D01*
X113523617Y-115296348D02*
X113600000Y-115372731D01*
X98759400Y-111522071D02*
X96261471Y-114020000D01*
%TO.N,/RTDS_BUZZER*%
X122000000Y-109700000D02*
X121600000Y-110100000D01*
X202750000Y-99750000D02*
X202750000Y-100750000D01*
X197100000Y-94100000D02*
X202750000Y-99750000D01*
X121600000Y-110100000D02*
X121600000Y-111200000D01*
X128651472Y-94100000D02*
X197100000Y-94100000D01*
X123850000Y-98901472D02*
X128651472Y-94100000D01*
%TO.N,/RTDS_SIGNAL*%
X105350000Y-107750000D02*
X93750000Y-107750000D01*
X121965544Y-106142228D02*
X123500002Y-107676686D01*
X123500002Y-107676686D02*
X123500002Y-111200000D01*
X87750000Y-101750000D02*
X87750000Y-101250000D01*
X93750000Y-107750000D02*
X87750000Y-101750000D01*
X107250000Y-105850000D02*
X105350000Y-107750000D01*
%TO.N,/RED_LIGHT_LOGIC*%
X104900000Y-118600000D02*
X98072270Y-118600000D01*
X111520000Y-114800000D02*
X108700000Y-114800000D01*
X98072270Y-118600000D02*
X96844682Y-117372412D01*
X113000000Y-113320000D02*
X111520000Y-114800000D01*
X113900000Y-113320000D02*
X113000000Y-113320000D01*
X108700000Y-114800000D02*
X104900000Y-118600000D01*
X95322400Y-115878835D02*
X95322400Y-115290000D01*
X95981800Y-116538235D02*
X95322400Y-115878835D01*
%TO.N,/GREEN_LIGHT_LOGIC*%
X114824265Y-114875735D02*
X114824265Y-115158579D01*
X109450000Y-113392500D02*
X109142500Y-113700000D01*
X120200000Y-117306198D02*
X120200002Y-117306200D01*
X115665686Y-116000000D02*
X119800000Y-116000000D01*
X119800000Y-116000000D02*
X120200000Y-116400000D01*
X108600000Y-113700000D02*
X108300000Y-113400000D01*
X120200000Y-116400000D02*
X120200000Y-117306198D01*
X114824265Y-115158579D02*
X115665686Y-116000000D01*
X109142500Y-113700000D02*
X108600000Y-113700000D01*
%TO.N,/IMD_STATUS*%
X114500000Y-110465686D02*
X114500000Y-111500000D01*
X110000000Y-110500000D02*
X110000000Y-111500000D01*
X88540000Y-111850000D02*
X87890000Y-112500000D01*
X116215686Y-108750000D02*
X114500000Y-110465686D01*
X110431453Y-110068547D02*
X110000000Y-110500000D01*
X118950000Y-108750000D02*
X116215686Y-108750000D01*
X88590643Y-111850000D02*
X88540000Y-111850000D01*
X111072431Y-110068547D02*
X110431453Y-110068547D01*
X92064807Y-108375836D02*
X88590643Y-111850000D01*
%TO.N,/BMS_STATUS*%
X110831453Y-110668547D02*
X110650000Y-110850000D01*
X111500472Y-110668547D02*
X110831453Y-110668547D01*
X118701471Y-109350000D02*
X118501471Y-109150000D01*
X89290000Y-113600000D02*
X87890000Y-115000000D01*
X89290000Y-111716329D02*
X89290000Y-113600000D01*
X112034510Y-110134509D02*
X111500472Y-110668547D01*
X119459383Y-109350000D02*
X118701471Y-109350000D01*
X119615682Y-109193701D02*
X119459383Y-109350000D01*
X112034510Y-110134509D02*
X111865491Y-110134509D01*
X91913507Y-109092822D02*
X89290000Y-111716329D01*
X92419680Y-109092822D02*
X91913507Y-109092822D01*
X118501471Y-109150000D02*
X116381372Y-109150000D01*
X115150000Y-110381372D02*
X115150000Y-111500000D01*
X116381372Y-109150000D02*
X115150000Y-110381372D01*
X110650000Y-110850000D02*
X110650000Y-111500000D01*
%TO.N,Net-(U2-VCC)*%
X115200000Y-113320000D02*
X115200000Y-113470000D01*
X115200000Y-113470000D02*
X115730000Y-114000000D01*
X117600000Y-114000000D02*
X118200000Y-113400000D01*
X115730000Y-114000000D02*
X117600000Y-114000000D01*
%TO.N,Net-(U3-DIS)*%
X103500000Y-113020000D02*
X104250000Y-113770000D01*
X104250000Y-114770000D02*
X103500000Y-115520000D01*
X101520000Y-112174051D02*
X100825949Y-112174051D01*
X101936397Y-113782132D02*
X102698529Y-113020000D01*
X102698529Y-113020000D02*
X103500000Y-113020000D01*
X100825949Y-112174051D02*
X100250000Y-112750000D01*
X104250000Y-113770000D02*
X104250000Y-114770000D01*
%TO.N,/RTML_5V*%
X110850000Y-108150000D02*
X93253186Y-108150000D01*
X113250000Y-105750000D02*
X110850000Y-108150000D01*
X93253186Y-108150000D02*
X88853186Y-103750000D01*
X88853186Y-103750000D02*
X87750000Y-103750000D01*
%TO.N,/RTML_12V*%
X107000000Y-104750000D02*
X108250000Y-103500000D01*
X99320000Y-104750000D02*
X97500000Y-102930000D01*
X110349998Y-104750000D02*
X107000000Y-104750000D01*
X107000000Y-104750000D02*
X99320000Y-104750000D01*
X108250000Y-103750000D02*
X108250000Y-102930000D01*
X111349998Y-105750000D02*
X110349998Y-104750000D01*
X108250000Y-103500000D02*
X108250000Y-102930000D01*
%TO.N,Net-(D2-A)*%
X132700000Y-103100000D02*
X135200000Y-105600000D01*
X132700000Y-103100000D02*
X131725000Y-102125000D01*
X131725000Y-102125000D02*
X131725000Y-100925000D01*
X135200000Y-109550000D02*
X134150000Y-110600000D01*
X135200000Y-105600000D02*
X135200000Y-109550000D01*
X134150000Y-99950000D02*
X132700000Y-99950000D01*
X131725000Y-100925000D02*
X132700000Y-99950000D01*
%TO.N,Net-(D1-A)*%
X134625000Y-103100000D02*
X134150000Y-103100000D01*
X135200000Y-102525000D02*
X134625000Y-103100000D01*
X135200000Y-99000000D02*
X135200000Y-102525000D01*
X133500000Y-97300000D02*
X133950000Y-97300000D01*
X133500000Y-97300000D02*
X135200000Y-99000000D01*
%TO.N,Net-(D3-A)*%
X135200000Y-117050000D02*
X134150000Y-118100000D01*
X132700000Y-110600000D02*
X135200000Y-113100000D01*
X131700000Y-109600000D02*
X131700000Y-108450000D01*
X135200000Y-113100000D02*
X135200000Y-117050000D01*
X131700000Y-108450000D02*
X132700000Y-107450000D01*
X134150000Y-107450000D02*
X132700000Y-107450000D01*
X132700000Y-110600000D02*
X131700000Y-109600000D01*
%TO.N,Net-(D5-A)*%
X138000000Y-103100000D02*
X137025000Y-102125000D01*
X137025000Y-102125000D02*
X137025000Y-100925000D01*
X139450000Y-99950000D02*
X138000000Y-99950000D01*
X140500000Y-109550000D02*
X139450000Y-110600000D01*
X137025000Y-100925000D02*
X138000000Y-99950000D01*
X138000000Y-103100000D02*
X140500000Y-105600000D01*
X140500000Y-105600000D02*
X140500000Y-109550000D01*
%TO.N,Net-(D4-A)*%
X140500000Y-102525000D02*
X139925000Y-103100000D01*
X140500000Y-98950000D02*
X140500000Y-102525000D01*
X139925000Y-103100000D02*
X139450000Y-103100000D01*
X138800000Y-97300000D02*
X139250000Y-97300000D01*
X139250000Y-97700000D02*
X140500000Y-98950000D01*
%TO.N,Net-(D6-A)*%
X139450000Y-107450000D02*
X138000000Y-107450000D01*
X137000000Y-108450000D02*
X138000000Y-107450000D01*
X140500000Y-113100000D02*
X140500000Y-117050000D01*
X140500000Y-117050000D02*
X139450000Y-118100000D01*
X137000000Y-109600000D02*
X137000000Y-108450000D01*
X138000000Y-110600000D02*
X140500000Y-113100000D01*
X138000000Y-110600000D02*
X137000000Y-109600000D01*
%TO.N,Net-(D7-A)*%
X145800000Y-99000000D02*
X145800000Y-102525000D01*
X145225000Y-103100000D02*
X144750000Y-103100000D01*
X144100000Y-97300000D02*
X145800000Y-99000000D01*
X144100000Y-97300000D02*
X144550000Y-97300000D01*
X145800000Y-102525000D02*
X145225000Y-103100000D01*
%TO.N,Net-(D8-A)*%
X145800000Y-109550000D02*
X144750000Y-110600000D01*
X142325000Y-100925000D02*
X143300000Y-99950000D01*
X143300000Y-103100000D02*
X142325000Y-102125000D01*
X143300000Y-103100000D02*
X145800000Y-105600000D01*
X142325000Y-102125000D02*
X142325000Y-100925000D01*
X145800000Y-105600000D02*
X145800000Y-109550000D01*
X144750000Y-99950000D02*
X143300000Y-99950000D01*
%TO.N,Net-(D9-A)*%
X143300000Y-110600000D02*
X142300000Y-109600000D01*
X145800000Y-113100000D02*
X145800000Y-117050000D01*
X143300000Y-110600000D02*
X145800000Y-113100000D01*
X142300000Y-108450000D02*
X143300000Y-107450000D01*
X145800000Y-117050000D02*
X144750000Y-118100000D01*
X144750000Y-107450000D02*
X143300000Y-107450000D01*
X142300000Y-109600000D02*
X142300000Y-108450000D01*
%TO.N,Net-(D11-A)*%
X148700000Y-103100000D02*
X151200000Y-105600000D01*
X148700000Y-103100000D02*
X147725000Y-102125000D01*
X150150000Y-99950000D02*
X148700000Y-99950000D01*
X147725000Y-100925000D02*
X148700000Y-99950000D01*
X147725000Y-102125000D02*
X147725000Y-100925000D01*
X151200000Y-105600000D02*
X151200000Y-109550000D01*
X151200000Y-109550000D02*
X150150000Y-110600000D01*
%TO.N,Net-(D10-A)*%
X151200000Y-99000000D02*
X151200000Y-102525000D01*
X150625000Y-103100000D02*
X150150000Y-103100000D01*
X149500000Y-97300000D02*
X149950000Y-97300000D01*
X149500000Y-97300000D02*
X151200000Y-99000000D01*
X151200000Y-102525000D02*
X150625000Y-103100000D01*
%TO.N,Net-(D12-A)*%
X147700000Y-109600000D02*
X147700000Y-108450000D01*
X147700000Y-108450000D02*
X148700000Y-107450000D01*
X148700000Y-110600000D02*
X147700000Y-109600000D01*
X151200000Y-117050000D02*
X150150000Y-118100000D01*
X148700000Y-110600000D02*
X151200000Y-113100000D01*
X151200000Y-113100000D02*
X151200000Y-117050000D01*
X150150000Y-107450000D02*
X148700000Y-107450000D01*
%TO.N,Net-(D13-A)*%
X156500000Y-99000000D02*
X156500000Y-102525000D01*
X154800000Y-97300000D02*
X155250000Y-97300000D01*
X156500000Y-102525000D02*
X155925000Y-103100000D01*
X155925000Y-103100000D02*
X155450000Y-103100000D01*
X154800000Y-97300000D02*
X156500000Y-99000000D01*
%TO.N,Net-(D14-A)*%
X154000000Y-103100000D02*
X156500000Y-105600000D01*
X153025000Y-102125000D02*
X153025000Y-100925000D01*
X156500000Y-109550000D02*
X155450000Y-110600000D01*
X154000000Y-103100000D02*
X153025000Y-102125000D01*
X155450000Y-99950000D02*
X154000000Y-99950000D01*
X153025000Y-100925000D02*
X154000000Y-99950000D01*
X156500000Y-105600000D02*
X156500000Y-109550000D01*
%TO.N,Net-(D15-A)*%
X156500000Y-113100000D02*
X156500000Y-117050000D01*
X154000000Y-110600000D02*
X156500000Y-113100000D01*
X153000000Y-108450000D02*
X154000000Y-107450000D01*
X156500000Y-117050000D02*
X155450000Y-118100000D01*
X154000000Y-110600000D02*
X153000000Y-109600000D01*
X155450000Y-107450000D02*
X154000000Y-107450000D01*
X153000000Y-109600000D02*
X153000000Y-108450000D01*
%TO.N,Net-(D16-A)*%
X165400000Y-97300000D02*
X167100000Y-99000000D01*
X167100000Y-102525000D02*
X166525000Y-103100000D01*
X166525000Y-103100000D02*
X166050000Y-103100000D01*
X167100000Y-99000000D02*
X167100000Y-102525000D01*
X165400000Y-97300000D02*
X165850000Y-97300000D01*
%TO.N,Net-(D17-A)*%
X164600000Y-103100000D02*
X167100000Y-105600000D01*
X163625000Y-102125000D02*
X163625000Y-100925000D01*
X163625000Y-100925000D02*
X164600000Y-99950000D01*
X167100000Y-105600000D02*
X167100000Y-109550000D01*
X166050000Y-99950000D02*
X164600000Y-99950000D01*
X167100000Y-109550000D02*
X166050000Y-110600000D01*
X164600000Y-103100000D02*
X163625000Y-102125000D01*
%TO.N,Net-(D18-A)*%
X167100000Y-117050000D02*
X166050000Y-118100000D01*
X167100000Y-113100000D02*
X167100000Y-117050000D01*
X166050000Y-107450000D02*
X164600000Y-107450000D01*
X164600000Y-110600000D02*
X167100000Y-113100000D01*
X163600000Y-109600000D02*
X163600000Y-108450000D01*
X163600000Y-108450000D02*
X164600000Y-107450000D01*
X164600000Y-110600000D02*
X163600000Y-109600000D01*
%TO.N,Net-(D19-A)*%
X170775000Y-97300000D02*
X171225000Y-97300000D01*
X170800000Y-97300000D02*
X172475000Y-98975000D01*
X172475000Y-98975000D02*
X172475000Y-102525000D01*
X171900000Y-103100000D02*
X171425000Y-103100000D01*
X172475000Y-102525000D02*
X171900000Y-103100000D01*
%TO.N,Net-(D20-A)*%
X169000000Y-102125000D02*
X169000000Y-100925000D01*
X169975000Y-103100000D02*
X169000000Y-102125000D01*
X169000000Y-100925000D02*
X169975000Y-99950000D01*
X169975000Y-103100000D02*
X172475000Y-105600000D01*
X172475000Y-109550000D02*
X171425000Y-110600000D01*
X172475000Y-105600000D02*
X172475000Y-109550000D01*
X171425000Y-99950000D02*
X169975000Y-99950000D01*
%TO.N,Net-(D21-A)*%
X169975000Y-110600000D02*
X172475000Y-113100000D01*
X172475000Y-117050000D02*
X171425000Y-118100000D01*
X172475000Y-113100000D02*
X172475000Y-117050000D01*
X171425000Y-107450000D02*
X169975000Y-107450000D01*
X169975000Y-110600000D02*
X168975000Y-109600000D01*
X168975000Y-108450000D02*
X169975000Y-107450000D01*
X168975000Y-109600000D02*
X168975000Y-108450000D01*
%TO.N,Net-(D23-A)*%
X175300000Y-103100000D02*
X177800000Y-105600000D01*
X177800000Y-109550000D02*
X176750000Y-110600000D01*
X176750000Y-99950000D02*
X175300000Y-99950000D01*
X174325000Y-102125000D02*
X174325000Y-100925000D01*
X175300000Y-103100000D02*
X174325000Y-102125000D01*
X177800000Y-105600000D02*
X177800000Y-109550000D01*
X174325000Y-100925000D02*
X175300000Y-99950000D01*
%TO.N,Net-(D22-A)*%
X176100000Y-97300000D02*
X177800000Y-99000000D01*
X176100000Y-97300000D02*
X176550000Y-97300000D01*
X177225000Y-103100000D02*
X176750000Y-103100000D01*
X177800000Y-102525000D02*
X177225000Y-103100000D01*
X177800000Y-99000000D02*
X177800000Y-102525000D01*
%TO.N,Net-(D24-A)*%
X175300000Y-110600000D02*
X174300000Y-109600000D01*
X174300000Y-108450000D02*
X175300000Y-107450000D01*
X177800000Y-117050000D02*
X176750000Y-118100000D01*
X176750000Y-107450000D02*
X175300000Y-107450000D01*
X175300000Y-110600000D02*
X177800000Y-113100000D01*
X174300000Y-109600000D02*
X174300000Y-108450000D01*
X177800000Y-113100000D02*
X177800000Y-117050000D01*
%TO.N,Net-(D25-A)*%
X182525000Y-103000000D02*
X182050000Y-103000000D01*
X181400000Y-97200000D02*
X183100000Y-98900000D01*
X183100000Y-98900000D02*
X183100000Y-102425000D01*
X181400000Y-97200000D02*
X181850000Y-97200000D01*
X183100000Y-102425000D02*
X182525000Y-103000000D01*
%TO.N,Net-(D26-A)*%
X180600000Y-103000000D02*
X183100000Y-105500000D01*
X179625000Y-100825000D02*
X180600000Y-99850000D01*
X182050000Y-99850000D02*
X180600000Y-99850000D01*
X183100000Y-109450000D02*
X182050000Y-110500000D01*
X179625000Y-102025000D02*
X179625000Y-100825000D01*
X183100000Y-105500000D02*
X183100000Y-109450000D01*
X180600000Y-103000000D02*
X179625000Y-102025000D01*
%TO.N,Net-(D27-A)*%
X183100000Y-113000000D02*
X183100000Y-116950000D01*
X179600000Y-109500000D02*
X179600000Y-108350000D01*
X179600000Y-108350000D02*
X180600000Y-107350000D01*
X180600000Y-110500000D02*
X183100000Y-113000000D01*
X183100000Y-116950000D02*
X182050000Y-118000000D01*
X180600000Y-110500000D02*
X179600000Y-109500000D01*
X182050000Y-107350000D02*
X180600000Y-107350000D01*
%TO.N,Net-(D29-A)*%
X184825000Y-102025000D02*
X184825000Y-100825000D01*
X185800000Y-103000000D02*
X188300000Y-105500000D01*
X184825000Y-100825000D02*
X185800000Y-99850000D01*
X185800000Y-103000000D02*
X184825000Y-102025000D01*
X188300000Y-105500000D02*
X188300000Y-109450000D01*
X187250000Y-99850000D02*
X185800000Y-99850000D01*
X188300000Y-109450000D02*
X187250000Y-110500000D01*
%TO.N,Net-(D28-A)*%
X186600000Y-97200000D02*
X187050000Y-97200000D01*
X188300000Y-102425000D02*
X187725000Y-103000000D01*
X187725000Y-103000000D02*
X187250000Y-103000000D01*
X186600000Y-97200000D02*
X188300000Y-98900000D01*
X188300000Y-98900000D02*
X188300000Y-102425000D01*
%TO.N,Net-(D30-A)*%
X184800000Y-108350000D02*
X185800000Y-107350000D01*
X184800000Y-109500000D02*
X184800000Y-108350000D01*
X188300000Y-113000000D02*
X188300000Y-116950000D01*
X188300000Y-116950000D02*
X187250000Y-118000000D01*
X187250000Y-107350000D02*
X185800000Y-107350000D01*
X185800000Y-110500000D02*
X184800000Y-109500000D01*
X185800000Y-110500000D02*
X188300000Y-113000000D01*
%TO.N,Net-(U1-VCC)*%
X109742500Y-114400000D02*
X110750000Y-113392500D01*
X107000000Y-113400000D02*
X108000000Y-114400000D01*
X108000000Y-114400000D02*
X109742500Y-114400000D01*
%TD*%
%TA.AperFunction,Conductor*%
%TO.N,GND*%
G36*
X114215080Y-109688732D02*
G01*
X114260835Y-109741536D01*
X114270779Y-109810694D01*
X114241754Y-109874250D01*
X114235722Y-109880728D01*
X114019481Y-110096968D01*
X114019479Y-110096971D01*
X113999669Y-110131284D01*
X113972088Y-110179057D01*
X113969361Y-110183780D01*
X113969359Y-110183782D01*
X113940425Y-110233895D01*
X113940424Y-110233896D01*
X113931229Y-110268213D01*
X113899499Y-110386629D01*
X113899499Y-110386631D01*
X113899499Y-110554732D01*
X113899500Y-110554745D01*
X113899500Y-110596306D01*
X113879815Y-110663345D01*
X113874303Y-110671232D01*
X113872803Y-110673210D01*
X113816610Y-110714733D01*
X113746889Y-110719284D01*
X113685775Y-110685418D01*
X113652672Y-110623888D01*
X113650000Y-110598284D01*
X113650000Y-110405832D01*
X113568557Y-110415613D01*
X113568556Y-110415613D01*
X113427904Y-110471079D01*
X113307435Y-110562435D01*
X113216079Y-110682904D01*
X113160613Y-110823556D01*
X113150000Y-110911946D01*
X113150000Y-111300000D01*
X113675500Y-111300000D01*
X113742539Y-111319685D01*
X113788294Y-111372489D01*
X113799500Y-111424000D01*
X113799500Y-111576000D01*
X113779815Y-111643039D01*
X113727011Y-111688794D01*
X113675500Y-111700000D01*
X113150000Y-111700000D01*
X113150000Y-112088053D01*
X113160613Y-112176443D01*
X113216079Y-112317095D01*
X113267316Y-112384660D01*
X113292139Y-112449972D01*
X113277711Y-112518336D01*
X113267316Y-112534511D01*
X113215639Y-112602656D01*
X113200523Y-112640990D01*
X113157617Y-112696134D01*
X113091709Y-112719327D01*
X113085168Y-112719500D01*
X112920943Y-112719500D01*
X112768214Y-112760423D01*
X112751311Y-112770183D01*
X112751308Y-112770184D01*
X112631290Y-112839475D01*
X112631282Y-112839481D01*
X111562181Y-113908583D01*
X111500858Y-113942068D01*
X111431166Y-113937084D01*
X111375233Y-113895212D01*
X111350816Y-113829748D01*
X111350500Y-113820902D01*
X111350500Y-112831903D01*
X111350500Y-112831898D01*
X111339877Y-112743436D01*
X111284361Y-112602658D01*
X111284360Y-112602657D01*
X111284360Y-112602656D01*
X111232998Y-112534926D01*
X111208174Y-112469615D01*
X111222602Y-112401251D01*
X111232998Y-112385074D01*
X111241667Y-112373642D01*
X111284361Y-112317342D01*
X111339877Y-112176564D01*
X111350500Y-112088102D01*
X111350500Y-111393048D01*
X111370185Y-111326009D01*
X111422989Y-111280254D01*
X111474500Y-111269048D01*
X111579526Y-111269048D01*
X111579529Y-111269048D01*
X111732257Y-111228124D01*
X111794243Y-111192336D01*
X111869188Y-111149067D01*
X111980992Y-111037263D01*
X111980993Y-111037261D01*
X112053045Y-110965207D01*
X112114366Y-110931724D01*
X112126821Y-110929672D01*
X112213765Y-110919877D01*
X112384032Y-110860298D01*
X112536772Y-110764325D01*
X112664326Y-110636771D01*
X112760299Y-110484031D01*
X112819878Y-110313764D01*
X112820521Y-110308057D01*
X112840075Y-110134512D01*
X112840075Y-110134505D01*
X112819879Y-109955259D01*
X112819878Y-109955254D01*
X112792541Y-109877129D01*
X112777449Y-109834001D01*
X112773889Y-109764223D01*
X112808618Y-109703595D01*
X112870611Y-109671368D01*
X112894492Y-109669047D01*
X114148041Y-109669047D01*
X114215080Y-109688732D01*
G37*
%TD.AperFunction*%
%TA.AperFunction,Conductor*%
G36*
X109749393Y-109688732D02*
G01*
X109795148Y-109741536D01*
X109805092Y-109810694D01*
X109776067Y-109874250D01*
X109770035Y-109880728D01*
X109624214Y-110026548D01*
X109624215Y-110026549D01*
X109519478Y-110131286D01*
X109519475Y-110131290D01*
X109479031Y-110201343D01*
X109479031Y-110201344D01*
X109440423Y-110268215D01*
X109399499Y-110420943D01*
X109399499Y-110420945D01*
X109399499Y-110589046D01*
X109399500Y-110589059D01*
X109399500Y-110596306D01*
X109379815Y-110663345D01*
X109374303Y-110671232D01*
X109372803Y-110673210D01*
X109316610Y-110714733D01*
X109246889Y-110719284D01*
X109185775Y-110685418D01*
X109152672Y-110623888D01*
X109150000Y-110598284D01*
X109150000Y-110405832D01*
X109068557Y-110415613D01*
X109068556Y-110415613D01*
X108927904Y-110471079D01*
X108807435Y-110562435D01*
X108716079Y-110682904D01*
X108660613Y-110823556D01*
X108650000Y-110911946D01*
X108650000Y-111300000D01*
X109175500Y-111300000D01*
X109242539Y-111319685D01*
X109288294Y-111372489D01*
X109299500Y-111424000D01*
X109299500Y-111576000D01*
X109279815Y-111643039D01*
X109227011Y-111688794D01*
X109175500Y-111700000D01*
X108650000Y-111700000D01*
X108650000Y-112088053D01*
X108660613Y-112176443D01*
X108716079Y-112317095D01*
X108767316Y-112384660D01*
X108792139Y-112449972D01*
X108777711Y-112518336D01*
X108767315Y-112534512D01*
X108713439Y-112605557D01*
X108657246Y-112647080D01*
X108587525Y-112651631D01*
X108573681Y-112647673D01*
X108479254Y-112614631D01*
X108479249Y-112614630D01*
X108300004Y-112594435D01*
X108299996Y-112594435D01*
X108139869Y-112612476D01*
X108071047Y-112600421D01*
X108038305Y-112576937D01*
X107949049Y-112487681D01*
X107915564Y-112426358D01*
X107920548Y-112356666D01*
X107949049Y-112312319D01*
X107991888Y-112269480D01*
X108042712Y-112218656D01*
X108134814Y-112069334D01*
X108189999Y-111902797D01*
X108200500Y-111800009D01*
X108200499Y-110999992D01*
X108193315Y-110929669D01*
X108189999Y-110897203D01*
X108189998Y-110897200D01*
X108134814Y-110730666D01*
X108042712Y-110581344D01*
X107918656Y-110457288D01*
X107769334Y-110365186D01*
X107602797Y-110310001D01*
X107602795Y-110310000D01*
X107500016Y-110299500D01*
X106649095Y-110299500D01*
X106582056Y-110279815D01*
X106536301Y-110227011D01*
X106526357Y-110157853D01*
X106555382Y-110094297D01*
X106561395Y-110087838D01*
X106943869Y-109705366D01*
X107005192Y-109671881D01*
X107031550Y-109669047D01*
X109682354Y-109669047D01*
X109749393Y-109688732D01*
G37*
%TD.AperFunction*%
%TA.AperFunction,Conductor*%
G36*
X95577663Y-108770185D02*
G01*
X95623418Y-108822989D01*
X95633982Y-108887103D01*
X95625000Y-108975013D01*
X95625000Y-109250000D01*
X96588500Y-109250000D01*
X96655539Y-109269685D01*
X96701294Y-109322489D01*
X96712500Y-109374000D01*
X96712500Y-109500000D01*
X96838500Y-109500000D01*
X96905539Y-109519685D01*
X96951294Y-109572489D01*
X96962500Y-109624000D01*
X96962500Y-110724999D01*
X97099972Y-110724999D01*
X97099986Y-110724998D01*
X97202697Y-110714505D01*
X97369119Y-110659358D01*
X97369124Y-110659356D01*
X97518345Y-110567315D01*
X97642318Y-110443342D01*
X97644165Y-110440348D01*
X97645969Y-110438724D01*
X97646798Y-110437677D01*
X97646976Y-110437818D01*
X97696110Y-110393621D01*
X97765073Y-110382396D01*
X97829156Y-110410236D01*
X97855243Y-110440341D01*
X97857288Y-110443656D01*
X97857289Y-110443657D01*
X97910987Y-110497355D01*
X97944472Y-110558678D01*
X97939488Y-110628370D01*
X97910987Y-110672717D01*
X96890023Y-111693681D01*
X96828700Y-111727166D01*
X96802342Y-111730000D01*
X93831800Y-111730000D01*
X93831800Y-111807244D01*
X93838201Y-111866772D01*
X93838203Y-111866779D01*
X93881240Y-111982167D01*
X93886224Y-112051858D01*
X93852739Y-112113182D01*
X93791416Y-112146666D01*
X93765058Y-112149500D01*
X93480952Y-112149500D01*
X93413913Y-112129815D01*
X93368158Y-112077011D01*
X93358214Y-112007853D01*
X93363248Y-111986492D01*
X93364504Y-111982701D01*
X93364506Y-111982690D01*
X93374999Y-111879986D01*
X93375000Y-111879973D01*
X93375000Y-111742500D01*
X92274000Y-111742500D01*
X92206961Y-111722815D01*
X92161206Y-111670011D01*
X92150000Y-111618500D01*
X92150000Y-111366500D01*
X92169685Y-111299461D01*
X92222489Y-111253706D01*
X92274000Y-111242500D01*
X93374999Y-111242500D01*
X93374999Y-111152755D01*
X93831800Y-111152755D01*
X93831800Y-111230000D01*
X95072400Y-111230000D01*
X95072400Y-110700600D01*
X95572400Y-110700600D01*
X95572400Y-111230000D01*
X96813000Y-111230000D01*
X96813000Y-111152772D01*
X96812999Y-111152755D01*
X96806598Y-111093227D01*
X96806596Y-111093220D01*
X96756354Y-110958513D01*
X96756352Y-110958510D01*
X96678865Y-110855000D01*
X96586500Y-110855000D01*
X96519461Y-110835315D01*
X96473706Y-110782511D01*
X96462500Y-110731000D01*
X96462500Y-109750000D01*
X95625001Y-109750000D01*
X95625001Y-110024986D01*
X95635494Y-110127697D01*
X95690641Y-110294119D01*
X95690643Y-110294124D01*
X95782684Y-110443345D01*
X95828258Y-110488919D01*
X95861743Y-110550242D01*
X95856759Y-110619934D01*
X95814887Y-110675867D01*
X95749423Y-110700284D01*
X95740577Y-110700600D01*
X95572400Y-110700600D01*
X95072400Y-110700600D01*
X94283955Y-110700600D01*
X94224427Y-110707001D01*
X94224420Y-110707003D01*
X94089713Y-110757245D01*
X94089706Y-110757249D01*
X93974612Y-110843409D01*
X93974609Y-110843412D01*
X93888449Y-110958506D01*
X93888445Y-110958513D01*
X93838203Y-111093220D01*
X93838201Y-111093227D01*
X93831800Y-111152755D01*
X93374999Y-111152755D01*
X93374999Y-111105028D01*
X93374998Y-111105013D01*
X93364505Y-111002302D01*
X93309358Y-110835880D01*
X93309356Y-110835875D01*
X93217315Y-110686654D01*
X93093345Y-110562684D01*
X92949309Y-110473842D01*
X92902585Y-110421894D01*
X92891362Y-110352931D01*
X92909413Y-110302330D01*
X92910815Y-110300100D01*
X92952410Y-110233901D01*
X92960694Y-110220718D01*
X92961128Y-110219478D01*
X93020274Y-110050449D01*
X93020275Y-110050443D01*
X93040471Y-109871197D01*
X93040471Y-109871190D01*
X93020081Y-109690220D01*
X93032136Y-109621398D01*
X93046356Y-109599021D01*
X93049498Y-109595081D01*
X93090983Y-109529058D01*
X93145469Y-109442344D01*
X93205048Y-109272077D01*
X93207393Y-109251264D01*
X93225245Y-109092825D01*
X93225245Y-109092818D01*
X93205049Y-108913572D01*
X93203498Y-108906775D01*
X93205245Y-108906376D01*
X93202148Y-108845677D01*
X93236877Y-108785049D01*
X93298870Y-108752822D01*
X93322751Y-108750501D01*
X93339840Y-108750501D01*
X93339856Y-108750500D01*
X95510624Y-108750500D01*
X95577663Y-108770185D01*
G37*
%TD.AperFunction*%
%TA.AperFunction,Conductor*%
G36*
X212692539Y-91270185D02*
G01*
X212738294Y-91322989D01*
X212749500Y-91374500D01*
X212749500Y-122625500D01*
X212729815Y-122692539D01*
X212677011Y-122738294D01*
X212625500Y-122749500D01*
X73874500Y-122749500D01*
X73807461Y-122729815D01*
X73761706Y-122677011D01*
X73750500Y-122625500D01*
X73750500Y-119913389D01*
X79609500Y-119913389D01*
X79609500Y-120086610D01*
X79634196Y-120242539D01*
X79636598Y-120257701D01*
X79690127Y-120422445D01*
X79768768Y-120576788D01*
X79870586Y-120716928D01*
X79993072Y-120839414D01*
X80133212Y-120941232D01*
X80287555Y-121019873D01*
X80452299Y-121073402D01*
X80623389Y-121100500D01*
X80623390Y-121100500D01*
X80796610Y-121100500D01*
X80796611Y-121100500D01*
X80967701Y-121073402D01*
X81132445Y-121019873D01*
X81286788Y-120941232D01*
X81426928Y-120839414D01*
X81549414Y-120716928D01*
X81651232Y-120576788D01*
X81729873Y-120422445D01*
X81783402Y-120257701D01*
X81810500Y-120086611D01*
X81810500Y-119913389D01*
X81783402Y-119742299D01*
X81729873Y-119577555D01*
X81651232Y-119423212D01*
X81549414Y-119283072D01*
X81426928Y-119160586D01*
X81286788Y-119058768D01*
X81132445Y-118980127D01*
X80967701Y-118926598D01*
X80967699Y-118926597D01*
X80967698Y-118926597D01*
X80836271Y-118905781D01*
X80796611Y-118899500D01*
X80623389Y-118899500D01*
X80583728Y-118905781D01*
X80452302Y-118926597D01*
X80287552Y-118980128D01*
X80133211Y-119058768D01*
X80060195Y-119111818D01*
X79993072Y-119160586D01*
X79993070Y-119160588D01*
X79993069Y-119160588D01*
X79870588Y-119283069D01*
X79870588Y-119283070D01*
X79870586Y-119283072D01*
X79826859Y-119343256D01*
X79768768Y-119423211D01*
X79690128Y-119577552D01*
X79636597Y-119742302D01*
X79609500Y-119913389D01*
X73750500Y-119913389D01*
X73750500Y-112413389D01*
X79609500Y-112413389D01*
X79609500Y-112586610D01*
X79634338Y-112743436D01*
X79636598Y-112757701D01*
X79690127Y-112922445D01*
X79768768Y-113076788D01*
X79870586Y-113216928D01*
X79993072Y-113339414D01*
X80133212Y-113441232D01*
X80287555Y-113519873D01*
X80452299Y-113573402D01*
X80623389Y-113600500D01*
X80623390Y-113600500D01*
X80796610Y-113600500D01*
X80796611Y-113600500D01*
X80967701Y-113573402D01*
X81132445Y-113519873D01*
X81286788Y-113441232D01*
X81426928Y-113339414D01*
X81549414Y-113216928D01*
X81651232Y-113076788D01*
X81729873Y-112922445D01*
X81783402Y-112757701D01*
X81810500Y-112586611D01*
X81810500Y-112413389D01*
X81783402Y-112242299D01*
X81729873Y-112077555D01*
X81651232Y-111923212D01*
X81549414Y-111783072D01*
X81426928Y-111660586D01*
X81286788Y-111558768D01*
X81132445Y-111480127D01*
X80967701Y-111426598D01*
X80967699Y-111426597D01*
X80967698Y-111426597D01*
X80836271Y-111405781D01*
X80796611Y-111399500D01*
X80623389Y-111399500D01*
X80583728Y-111405781D01*
X80452302Y-111426597D01*
X80287552Y-111480128D01*
X80133211Y-111558768D01*
X80083091Y-111595183D01*
X79993072Y-111660586D01*
X79993070Y-111660588D01*
X79993069Y-111660588D01*
X79870588Y-111783069D01*
X79870588Y-111783070D01*
X79870586Y-111783072D01*
X79853024Y-111807244D01*
X79768768Y-111923211D01*
X79690128Y-112077552D01*
X79636597Y-112242302D01*
X79609500Y-112413389D01*
X73750500Y-112413389D01*
X73750500Y-106163389D01*
X79469500Y-106163389D01*
X79469500Y-106336610D01*
X79492462Y-106481591D01*
X79496598Y-106507701D01*
X79543916Y-106653331D01*
X79550128Y-106672447D01*
X79577983Y-106727116D01*
X79628768Y-106826788D01*
X79730586Y-106966928D01*
X79853072Y-107089414D01*
X79993212Y-107191232D01*
X80147555Y-107269873D01*
X80312299Y-107323402D01*
X80483389Y-107350500D01*
X80483390Y-107350500D01*
X80656610Y-107350500D01*
X80656611Y-107350500D01*
X80827701Y-107323402D01*
X80992445Y-107269873D01*
X81146788Y-107191232D01*
X81286928Y-107089414D01*
X81409414Y-106966928D01*
X81511232Y-106826788D01*
X81589873Y-106672445D01*
X81643402Y-106507701D01*
X81670500Y-106336611D01*
X81670500Y-106163389D01*
X81643402Y-105992299D01*
X81589873Y-105827555D01*
X81511232Y-105673212D01*
X81409414Y-105533072D01*
X81286928Y-105410586D01*
X81146788Y-105308768D01*
X80992445Y-105230127D01*
X80827701Y-105176598D01*
X80827699Y-105176597D01*
X80827698Y-105176597D01*
X80696271Y-105155781D01*
X80656611Y-105149500D01*
X80483389Y-105149500D01*
X80443728Y-105155781D01*
X80312302Y-105176597D01*
X80147552Y-105230128D01*
X79993211Y-105308768D01*
X79927019Y-105356860D01*
X79853072Y-105410586D01*
X79853070Y-105410588D01*
X79853069Y-105410588D01*
X79730588Y-105533069D01*
X79730588Y-105533070D01*
X79730586Y-105533072D01*
X79697176Y-105579057D01*
X79628768Y-105673211D01*
X79550128Y-105827552D01*
X79496597Y-105992302D01*
X79469500Y-106163389D01*
X73750500Y-106163389D01*
X73750500Y-101163389D01*
X79469500Y-101163389D01*
X79469500Y-101336611D01*
X79473641Y-101362754D01*
X79493427Y-101487684D01*
X79496598Y-101507701D01*
X79550127Y-101672445D01*
X79628768Y-101826788D01*
X79730586Y-101966928D01*
X79853072Y-102089414D01*
X79993212Y-102191232D01*
X80147555Y-102269873D01*
X80312299Y-102323402D01*
X80483389Y-102350500D01*
X80483390Y-102350500D01*
X80656610Y-102350500D01*
X80656611Y-102350500D01*
X80827701Y-102323402D01*
X80992445Y-102269873D01*
X81146788Y-102191232D01*
X81286928Y-102089414D01*
X81409414Y-101966928D01*
X81511232Y-101826788D01*
X81589873Y-101672445D01*
X81643402Y-101507701D01*
X81670500Y-101336611D01*
X81670500Y-101163389D01*
X81667384Y-101143713D01*
X86149500Y-101143713D01*
X86149500Y-101356286D01*
X86176213Y-101524949D01*
X86182754Y-101566243D01*
X86242870Y-101751261D01*
X86248444Y-101768414D01*
X86344951Y-101957820D01*
X86469890Y-102129786D01*
X86620209Y-102280105D01*
X86620214Y-102280109D01*
X86784793Y-102399682D01*
X86827459Y-102455011D01*
X86833438Y-102524625D01*
X86800833Y-102586420D01*
X86784793Y-102600318D01*
X86620214Y-102719890D01*
X86620209Y-102719894D01*
X86469890Y-102870213D01*
X86344951Y-103042179D01*
X86248444Y-103231585D01*
X86182753Y-103433760D01*
X86149500Y-103643713D01*
X86149500Y-103856286D01*
X86182305Y-104063412D01*
X86182754Y-104066243D01*
X86244716Y-104256943D01*
X86248444Y-104268414D01*
X86344951Y-104457820D01*
X86469890Y-104629786D01*
X86609068Y-104768964D01*
X86642553Y-104830287D01*
X86637569Y-104899979D01*
X86595697Y-104955912D01*
X86586484Y-104962183D01*
X86431659Y-105057680D01*
X86431655Y-105057683D01*
X86307684Y-105181654D01*
X86215643Y-105330875D01*
X86215641Y-105330880D01*
X86160494Y-105497302D01*
X86160493Y-105497309D01*
X86150000Y-105600013D01*
X86150000Y-106000000D01*
X87201518Y-106000000D01*
X87190889Y-106018409D01*
X87150000Y-106171009D01*
X87150000Y-106328991D01*
X87190889Y-106481591D01*
X87201518Y-106500000D01*
X86150001Y-106500000D01*
X86150001Y-106899986D01*
X86160494Y-107002697D01*
X86215641Y-107169119D01*
X86215643Y-107169124D01*
X86307684Y-107318345D01*
X86431654Y-107442315D01*
X86580875Y-107534356D01*
X86580880Y-107534358D01*
X86747302Y-107589505D01*
X86747309Y-107589506D01*
X86850019Y-107599999D01*
X87499999Y-107599999D01*
X87500000Y-107599998D01*
X87500000Y-106798482D01*
X87518409Y-106809111D01*
X87671009Y-106850000D01*
X87828991Y-106850000D01*
X87981591Y-106809111D01*
X88000000Y-106798482D01*
X88000000Y-107599999D01*
X88649972Y-107599999D01*
X88649986Y-107599998D01*
X88752697Y-107589505D01*
X88919119Y-107534358D01*
X88919124Y-107534356D01*
X89068345Y-107442315D01*
X89192315Y-107318345D01*
X89284356Y-107169124D01*
X89284358Y-107169119D01*
X89339505Y-107002697D01*
X89339506Y-107002690D01*
X89349999Y-106899986D01*
X89350000Y-106899973D01*
X89350000Y-106500000D01*
X88298482Y-106500000D01*
X88309111Y-106481591D01*
X88350000Y-106328991D01*
X88350000Y-106171009D01*
X88309111Y-106018409D01*
X88298482Y-106000000D01*
X89349999Y-106000000D01*
X89349999Y-105600028D01*
X89349998Y-105600013D01*
X89339506Y-105497304D01*
X89300018Y-105378140D01*
X89297616Y-105308311D01*
X89333347Y-105248269D01*
X89395868Y-105217076D01*
X89465327Y-105224636D01*
X89505404Y-105251453D01*
X90619690Y-106365740D01*
X91721228Y-107467278D01*
X91754713Y-107528601D01*
X91749729Y-107598293D01*
X91707857Y-107654226D01*
X91699519Y-107659953D01*
X91562544Y-107746020D01*
X91434991Y-107873573D01*
X91339017Y-108026314D01*
X91279437Y-108196586D01*
X91269644Y-108283504D01*
X91242577Y-108347918D01*
X91234105Y-108357301D01*
X88459835Y-111131571D01*
X88398512Y-111165056D01*
X88352756Y-111166363D01*
X88266945Y-111152772D01*
X88246287Y-111149500D01*
X87533713Y-111149500D01*
X87513162Y-111152755D01*
X87323760Y-111182753D01*
X87121585Y-111248444D01*
X86932179Y-111344951D01*
X86760213Y-111469890D01*
X86609890Y-111620213D01*
X86484951Y-111792179D01*
X86388444Y-111981585D01*
X86322753Y-112183760D01*
X86301635Y-112317095D01*
X86289500Y-112393713D01*
X86289500Y-112606287D01*
X86295206Y-112642315D01*
X86319904Y-112798254D01*
X86322754Y-112816243D01*
X86366632Y-112951286D01*
X86388444Y-113018414D01*
X86484951Y-113207820D01*
X86609890Y-113379786D01*
X86760209Y-113530105D01*
X86760214Y-113530109D01*
X86924793Y-113649682D01*
X86967459Y-113705011D01*
X86973438Y-113774625D01*
X86940833Y-113836420D01*
X86924793Y-113850318D01*
X86760214Y-113969890D01*
X86760209Y-113969894D01*
X86609890Y-114120213D01*
X86484951Y-114292179D01*
X86388444Y-114481585D01*
X86322753Y-114683760D01*
X86294431Y-114862582D01*
X86289500Y-114893713D01*
X86289500Y-115106287D01*
X86296627Y-115151284D01*
X86318556Y-115289742D01*
X86322754Y-115316243D01*
X86384264Y-115505551D01*
X86388444Y-115518414D01*
X86484951Y-115707820D01*
X86609890Y-115879786D01*
X86760209Y-116030105D01*
X86760214Y-116030109D01*
X86924793Y-116149682D01*
X86967459Y-116205011D01*
X86973438Y-116274625D01*
X86940833Y-116336420D01*
X86924793Y-116350318D01*
X86760214Y-116469890D01*
X86760209Y-116469894D01*
X86609890Y-116620213D01*
X86484951Y-116792179D01*
X86388444Y-116981585D01*
X86322753Y-117183760D01*
X86289500Y-117393713D01*
X86289500Y-117606286D01*
X86319668Y-117796763D01*
X86322754Y-117816243D01*
X86385078Y-118008057D01*
X86388444Y-118018414D01*
X86484951Y-118207820D01*
X86609890Y-118379786D01*
X86749068Y-118518964D01*
X86782553Y-118580287D01*
X86777569Y-118649979D01*
X86735697Y-118705912D01*
X86726484Y-118712183D01*
X86571659Y-118807680D01*
X86571655Y-118807683D01*
X86447684Y-118931654D01*
X86355643Y-119080875D01*
X86355641Y-119080880D01*
X86300494Y-119247302D01*
X86300493Y-119247309D01*
X86290000Y-119350013D01*
X86290000Y-119750000D01*
X87341518Y-119750000D01*
X87330889Y-119768409D01*
X87290000Y-119921009D01*
X87290000Y-120078991D01*
X87330889Y-120231591D01*
X87341518Y-120250000D01*
X86290001Y-120250000D01*
X86290001Y-120649986D01*
X86300494Y-120752697D01*
X86355641Y-120919119D01*
X86355643Y-120919124D01*
X86447684Y-121068345D01*
X86571654Y-121192315D01*
X86720875Y-121284356D01*
X86720880Y-121284358D01*
X86887302Y-121339505D01*
X86887309Y-121339506D01*
X86990019Y-121349999D01*
X87639999Y-121349999D01*
X87640000Y-121349998D01*
X87640000Y-120548482D01*
X87658409Y-120559111D01*
X87811009Y-120600000D01*
X87968991Y-120600000D01*
X88121591Y-120559111D01*
X88140000Y-120548482D01*
X88140000Y-121349999D01*
X88789972Y-121349999D01*
X88789986Y-121349998D01*
X88892697Y-121339505D01*
X89059119Y-121284358D01*
X89059124Y-121284356D01*
X89208345Y-121192315D01*
X89332315Y-121068345D01*
X89424356Y-120919124D01*
X89424358Y-120919119D01*
X89479505Y-120752697D01*
X89479506Y-120752690D01*
X89489999Y-120649986D01*
X89490000Y-120649973D01*
X89490000Y-120250000D01*
X88438482Y-120250000D01*
X88449111Y-120231591D01*
X88490000Y-120078991D01*
X88490000Y-119921009D01*
X88449111Y-119768409D01*
X88438482Y-119750000D01*
X89489999Y-119750000D01*
X89489999Y-119350028D01*
X89489998Y-119350013D01*
X89479505Y-119247302D01*
X89424358Y-119080880D01*
X89424356Y-119080875D01*
X89332315Y-118931654D01*
X89208345Y-118807684D01*
X89053515Y-118712184D01*
X89006791Y-118660236D01*
X88995568Y-118591273D01*
X89023412Y-118527191D01*
X89030909Y-118518986D01*
X89170104Y-118379792D01*
X89295051Y-118207816D01*
X89391557Y-118018412D01*
X89403230Y-117982486D01*
X90925001Y-117982486D01*
X90935494Y-118085197D01*
X90990641Y-118251619D01*
X90990643Y-118251624D01*
X91082684Y-118400845D01*
X91206654Y-118524815D01*
X91355875Y-118616856D01*
X91355880Y-118616858D01*
X91522302Y-118672005D01*
X91522309Y-118672006D01*
X91625019Y-118682499D01*
X91899999Y-118682499D01*
X92400000Y-118682499D01*
X92674972Y-118682499D01*
X92674986Y-118682498D01*
X92777697Y-118672005D01*
X92944119Y-118616858D01*
X92944124Y-118616856D01*
X93093345Y-118524815D01*
X93217315Y-118400845D01*
X93309356Y-118251624D01*
X93309358Y-118251619D01*
X93364505Y-118085197D01*
X93364506Y-118085190D01*
X93374999Y-117982486D01*
X93375000Y-117982473D01*
X93375000Y-117845000D01*
X92400000Y-117845000D01*
X92400000Y-118682499D01*
X91899999Y-118682499D01*
X91900000Y-118682498D01*
X91900000Y-117845000D01*
X90925001Y-117845000D01*
X90925001Y-117982486D01*
X89403230Y-117982486D01*
X89457246Y-117816243D01*
X89490500Y-117606287D01*
X89490500Y-117393713D01*
X89457246Y-117183757D01*
X89391557Y-116981588D01*
X89387256Y-116973146D01*
X89374361Y-116904477D01*
X89400639Y-116839737D01*
X89410052Y-116829181D01*
X90048506Y-116190728D01*
X90048511Y-116190724D01*
X90058714Y-116180520D01*
X90058716Y-116180520D01*
X90170520Y-116068716D01*
X90249577Y-115931784D01*
X90279534Y-115819981D01*
X90290500Y-115779058D01*
X90290500Y-115620943D01*
X90290500Y-112182111D01*
X90310185Y-112115072D01*
X90326814Y-112094435D01*
X90713322Y-111707926D01*
X90774642Y-111674444D01*
X90844333Y-111679428D01*
X90900267Y-111721299D01*
X90924684Y-111786764D01*
X90925000Y-111795609D01*
X90925000Y-111879970D01*
X90925001Y-111879987D01*
X90935494Y-111982697D01*
X90990641Y-112149119D01*
X90990643Y-112149124D01*
X91082684Y-112298345D01*
X91206655Y-112422316D01*
X91206659Y-112422319D01*
X91209656Y-112424168D01*
X91211279Y-112425972D01*
X91212323Y-112426798D01*
X91212181Y-112426976D01*
X91256381Y-112476116D01*
X91267602Y-112545079D01*
X91239759Y-112609161D01*
X91209661Y-112635241D01*
X91206349Y-112637283D01*
X91206343Y-112637288D01*
X91082289Y-112761342D01*
X90990187Y-112910663D01*
X90990185Y-112910668D01*
X90976726Y-112951286D01*
X90935001Y-113077203D01*
X90935001Y-113077204D01*
X90935000Y-113077204D01*
X90924500Y-113179983D01*
X90924500Y-113955001D01*
X90924501Y-113955019D01*
X90935000Y-114057796D01*
X90935001Y-114057799D01*
X90990185Y-114224331D01*
X90990187Y-114224336D01*
X91013255Y-114261735D01*
X91072583Y-114357922D01*
X91082289Y-114373657D01*
X91164701Y-114456069D01*
X91198186Y-114517392D01*
X91193202Y-114587084D01*
X91164701Y-114631431D01*
X91082289Y-114713842D01*
X90990187Y-114863163D01*
X90990185Y-114863168D01*
X90969729Y-114924901D01*
X90935001Y-115029703D01*
X90935001Y-115029704D01*
X90935000Y-115029704D01*
X90924500Y-115132483D01*
X90924500Y-115907501D01*
X90924501Y-115907519D01*
X90935000Y-116010296D01*
X90935001Y-116010299D01*
X90990185Y-116176831D01*
X90990187Y-116176836D01*
X91025069Y-116233388D01*
X91082288Y-116326156D01*
X91206344Y-116450212D01*
X91209628Y-116452237D01*
X91209653Y-116452253D01*
X91211445Y-116454246D01*
X91212011Y-116454693D01*
X91211934Y-116454789D01*
X91256379Y-116504199D01*
X91267603Y-116573161D01*
X91239761Y-116637244D01*
X91209665Y-116663326D01*
X91206660Y-116665179D01*
X91206655Y-116665183D01*
X91082684Y-116789154D01*
X90990643Y-116938375D01*
X90990641Y-116938380D01*
X90935494Y-117104802D01*
X90935493Y-117104809D01*
X90925000Y-117207513D01*
X90925000Y-117345000D01*
X93374999Y-117345000D01*
X93374999Y-117207528D01*
X93374998Y-117207513D01*
X93364505Y-117104800D01*
X93355095Y-117076402D01*
X93352692Y-117006574D01*
X93388423Y-116946532D01*
X93450943Y-116915339D01*
X93520402Y-116922898D01*
X93560481Y-116949716D01*
X94113374Y-117502609D01*
X94113384Y-117502620D01*
X94117714Y-117506950D01*
X94117715Y-117506951D01*
X94229519Y-117618755D01*
X94316055Y-117668716D01*
X94366450Y-117697812D01*
X94519178Y-117738736D01*
X94519181Y-117738736D01*
X94684888Y-117738736D01*
X94684904Y-117738735D01*
X96060917Y-117738735D01*
X96127956Y-117758420D01*
X96165910Y-117796763D01*
X96214861Y-117874668D01*
X96214866Y-117874674D01*
X96342420Y-118002228D01*
X96495160Y-118098201D01*
X96665427Y-118157780D01*
X96752351Y-118167573D01*
X96816762Y-118194638D01*
X96826146Y-118203111D01*
X97703554Y-119080520D01*
X97703556Y-119080521D01*
X97703560Y-119080524D01*
X97840479Y-119159573D01*
X97840482Y-119159575D01*
X97840486Y-119159577D01*
X97993213Y-119200501D01*
X97993215Y-119200501D01*
X98158924Y-119200501D01*
X98158940Y-119200500D01*
X104813331Y-119200500D01*
X104813347Y-119200501D01*
X104820943Y-119200501D01*
X104979054Y-119200501D01*
X104979057Y-119200501D01*
X105131785Y-119159577D01*
X105208180Y-119115470D01*
X105268716Y-119080520D01*
X105380520Y-118968716D01*
X105380520Y-118968714D01*
X105390724Y-118958511D01*
X105390727Y-118958506D01*
X106569590Y-117779644D01*
X110920598Y-117779644D01*
X110926999Y-117839172D01*
X110927001Y-117839179D01*
X110977243Y-117973886D01*
X110977247Y-117973893D01*
X111063407Y-118088987D01*
X111063410Y-118088990D01*
X111178504Y-118175150D01*
X111178511Y-118175154D01*
X111313218Y-118225396D01*
X111313225Y-118225398D01*
X111372753Y-118231799D01*
X111372770Y-118231800D01*
X111449998Y-118231800D01*
X111949998Y-118231800D01*
X112027226Y-118231800D01*
X112027242Y-118231799D01*
X112086770Y-118225398D01*
X112086777Y-118225396D01*
X112221484Y-118175154D01*
X112221491Y-118175150D01*
X112336585Y-118088990D01*
X112336588Y-118088987D01*
X112422748Y-117973893D01*
X112422752Y-117973886D01*
X112472994Y-117839179D01*
X112472996Y-117839172D01*
X112479397Y-117779644D01*
X112479398Y-117779627D01*
X112479398Y-117550000D01*
X111949998Y-117550000D01*
X111949998Y-118231800D01*
X111449998Y-118231800D01*
X111449998Y-117550000D01*
X110920598Y-117550000D01*
X110920598Y-117779644D01*
X106569590Y-117779644D01*
X107528880Y-116820355D01*
X110920598Y-116820355D01*
X110920598Y-117050000D01*
X111449998Y-117050000D01*
X111949998Y-117050000D01*
X112479398Y-117050000D01*
X112479398Y-116820372D01*
X112479397Y-116820355D01*
X112472996Y-116760827D01*
X112472994Y-116760820D01*
X112422752Y-116626113D01*
X112422748Y-116626106D01*
X112336588Y-116511012D01*
X112336585Y-116511009D01*
X112221491Y-116424849D01*
X112221484Y-116424845D01*
X112086777Y-116374603D01*
X112086770Y-116374601D01*
X112027242Y-116368200D01*
X111949998Y-116368200D01*
X111949998Y-117050000D01*
X111449998Y-117050000D01*
X111449998Y-116368200D01*
X111372753Y-116368200D01*
X111313225Y-116374601D01*
X111313218Y-116374603D01*
X111178511Y-116424845D01*
X111178504Y-116424849D01*
X111063410Y-116511009D01*
X111063407Y-116511012D01*
X110977247Y-116626106D01*
X110977243Y-116626113D01*
X110927001Y-116760820D01*
X110926999Y-116760827D01*
X110920598Y-116820355D01*
X107528880Y-116820355D01*
X108912417Y-115436819D01*
X108973740Y-115403334D01*
X109000098Y-115400500D01*
X111433331Y-115400500D01*
X111433347Y-115400501D01*
X111440943Y-115400501D01*
X111599054Y-115400501D01*
X111599057Y-115400501D01*
X111751785Y-115359577D01*
X111826841Y-115316243D01*
X111861296Y-115296351D01*
X111888709Y-115280524D01*
X111888708Y-115280524D01*
X111888716Y-115280520D01*
X112000520Y-115168716D01*
X112000520Y-115168714D01*
X112010724Y-115158511D01*
X112010728Y-115158506D01*
X113001710Y-114167523D01*
X113063031Y-114134040D01*
X113132723Y-114139024D01*
X113188656Y-114180896D01*
X113204743Y-114209714D01*
X113215638Y-114237342D01*
X113303709Y-114353480D01*
X113328532Y-114418791D01*
X113314104Y-114487155D01*
X113265006Y-114536866D01*
X113245860Y-114545446D01*
X113174097Y-114570557D01*
X113021354Y-114666532D01*
X112893801Y-114794085D01*
X112797828Y-114946824D01*
X112738248Y-115117093D01*
X112738247Y-115117098D01*
X112718052Y-115296344D01*
X112718052Y-115296351D01*
X112738247Y-115475597D01*
X112738248Y-115475602D01*
X112797828Y-115645871D01*
X112893801Y-115798610D01*
X112963181Y-115867990D01*
X112996666Y-115929313D01*
X112999500Y-115955671D01*
X112999500Y-116422846D01*
X112979815Y-116489885D01*
X112963181Y-116510527D01*
X112963052Y-116510655D01*
X112876806Y-116625864D01*
X112876802Y-116625871D01*
X112826508Y-116760717D01*
X112822296Y-116799901D01*
X112820101Y-116820323D01*
X112820100Y-116820335D01*
X112820100Y-117779670D01*
X112820101Y-117779676D01*
X112826508Y-117839283D01*
X112876802Y-117974128D01*
X112876806Y-117974135D01*
X112963052Y-118089344D01*
X112963055Y-118089347D01*
X113078264Y-118175593D01*
X113078271Y-118175597D01*
X113110668Y-118187680D01*
X113213117Y-118225891D01*
X113272727Y-118232300D01*
X113927272Y-118232299D01*
X113986883Y-118225891D01*
X114121731Y-118175596D01*
X114236946Y-118089346D01*
X114323196Y-117974131D01*
X114373491Y-117839283D01*
X114379237Y-117785844D01*
X117520600Y-117785844D01*
X117527001Y-117845372D01*
X117527003Y-117845379D01*
X117577245Y-117980086D01*
X117577249Y-117980093D01*
X117663409Y-118095187D01*
X117663412Y-118095190D01*
X117778506Y-118181350D01*
X117778513Y-118181354D01*
X117913220Y-118231596D01*
X117913227Y-118231598D01*
X117972755Y-118237999D01*
X117972772Y-118238000D01*
X118050000Y-118238000D01*
X118550000Y-118238000D01*
X118627228Y-118238000D01*
X118627244Y-118237999D01*
X118686772Y-118231598D01*
X118686779Y-118231596D01*
X118821486Y-118181354D01*
X118821493Y-118181350D01*
X118936587Y-118095190D01*
X118936590Y-118095187D01*
X119022750Y-117980093D01*
X119022754Y-117980086D01*
X119072996Y-117845379D01*
X119072998Y-117845372D01*
X119079399Y-117785844D01*
X119079400Y-117785827D01*
X119079400Y-117556200D01*
X118550000Y-117556200D01*
X118550000Y-118238000D01*
X118050000Y-118238000D01*
X118050000Y-117556200D01*
X117520600Y-117556200D01*
X117520600Y-117785844D01*
X114379237Y-117785844D01*
X114379900Y-117779673D01*
X114379899Y-116820328D01*
X114374169Y-116767027D01*
X114373491Y-116760716D01*
X114323197Y-116625871D01*
X114323193Y-116625864D01*
X114236947Y-116510655D01*
X114236819Y-116510527D01*
X114236731Y-116510367D01*
X114231632Y-116503555D01*
X114232611Y-116502821D01*
X114203334Y-116449204D01*
X114200500Y-116422846D01*
X114200500Y-115759427D01*
X114219504Y-115693457D01*
X114248840Y-115646769D01*
X114301171Y-115600482D01*
X114370225Y-115589832D01*
X114434073Y-115618207D01*
X114441513Y-115625063D01*
X114462614Y-115646164D01*
X114462620Y-115646169D01*
X115180825Y-116364374D01*
X115180835Y-116364385D01*
X115296971Y-116480521D01*
X115319698Y-116493642D01*
X115359903Y-116516854D01*
X115433901Y-116559577D01*
X115586629Y-116600501D01*
X115586632Y-116600501D01*
X115752339Y-116600501D01*
X115752355Y-116600500D01*
X117410518Y-116600500D01*
X117477557Y-116620185D01*
X117523312Y-116672989D01*
X117533256Y-116742147D01*
X117528197Y-116761964D01*
X117527001Y-116767027D01*
X117520600Y-116826555D01*
X117520600Y-117056200D01*
X119079400Y-117056200D01*
X119079400Y-116826572D01*
X119079399Y-116826555D01*
X119072998Y-116767027D01*
X119071213Y-116759470D01*
X119072677Y-116759124D01*
X119068316Y-116698141D01*
X119101802Y-116636818D01*
X119163125Y-116603333D01*
X119189482Y-116600500D01*
X119309987Y-116600500D01*
X119377026Y-116620185D01*
X119422781Y-116672989D01*
X119432725Y-116742147D01*
X119427850Y-116761247D01*
X119426510Y-116766916D01*
X119420131Y-116826259D01*
X119420103Y-116826523D01*
X119420102Y-116826535D01*
X119420102Y-117785870D01*
X119420103Y-117785876D01*
X119426510Y-117845483D01*
X119476804Y-117980328D01*
X119476808Y-117980335D01*
X119563054Y-118095544D01*
X119563057Y-118095547D01*
X119678266Y-118181793D01*
X119678273Y-118181797D01*
X119712702Y-118194638D01*
X119813119Y-118232091D01*
X119872729Y-118238500D01*
X120527274Y-118238499D01*
X120586885Y-118232091D01*
X120721733Y-118181796D01*
X120836948Y-118095546D01*
X120923198Y-117980331D01*
X120973493Y-117845483D01*
X120979902Y-117785873D01*
X120979901Y-116826528D01*
X120973493Y-116766917D01*
X120971378Y-116761247D01*
X120923199Y-116632071D01*
X120923195Y-116632064D01*
X120836948Y-116516854D01*
X120836819Y-116516725D01*
X120836730Y-116516563D01*
X120831634Y-116509755D01*
X120832612Y-116509022D01*
X120803334Y-116455402D01*
X120800500Y-116429044D01*
X120800500Y-116320945D01*
X120800500Y-116320943D01*
X120799903Y-116318716D01*
X120781074Y-116248443D01*
X120759577Y-116168216D01*
X120749116Y-116150096D01*
X120680524Y-116031290D01*
X120680521Y-116031286D01*
X120680520Y-116031284D01*
X120568716Y-115919480D01*
X120568715Y-115919479D01*
X120564385Y-115915149D01*
X120564374Y-115915139D01*
X120287590Y-115638355D01*
X120287588Y-115638352D01*
X120168717Y-115519481D01*
X120168709Y-115519475D01*
X120053857Y-115453166D01*
X120053856Y-115453165D01*
X120038342Y-115444209D01*
X120031785Y-115440423D01*
X119879057Y-115399499D01*
X119720943Y-115399499D01*
X119713347Y-115399499D01*
X119713331Y-115399500D01*
X115965783Y-115399500D01*
X115898744Y-115379815D01*
X115878102Y-115363181D01*
X115647836Y-115132915D01*
X115614351Y-115071592D01*
X115612297Y-115031351D01*
X115629830Y-114875738D01*
X115629830Y-114875731D01*
X115614355Y-114738383D01*
X115626410Y-114669561D01*
X115673759Y-114618182D01*
X115737575Y-114600500D01*
X117513331Y-114600500D01*
X117513347Y-114600501D01*
X117520943Y-114600501D01*
X117679054Y-114600501D01*
X117679057Y-114600501D01*
X117831785Y-114559577D01*
X117831787Y-114559575D01*
X117831789Y-114559575D01*
X117831790Y-114559574D01*
X117862695Y-114541731D01*
X117900509Y-114519899D01*
X117905331Y-114517114D01*
X117967335Y-114500499D01*
X118700002Y-114500499D01*
X118700008Y-114500499D01*
X118802797Y-114489999D01*
X118969334Y-114434814D01*
X119118656Y-114342712D01*
X119242712Y-114218656D01*
X119334814Y-114069334D01*
X119389999Y-113902797D01*
X119397177Y-113832529D01*
X119423572Y-113767839D01*
X119480753Y-113727687D01*
X119550564Y-113724823D01*
X119608216Y-113757451D01*
X119915139Y-114064374D01*
X119915149Y-114064385D01*
X119919479Y-114068715D01*
X119919480Y-114068716D01*
X120031284Y-114180520D01*
X120112012Y-114227128D01*
X120168215Y-114259577D01*
X120320943Y-114300501D01*
X120320946Y-114300501D01*
X120486653Y-114300501D01*
X120486669Y-114300500D01*
X121793758Y-114300500D01*
X121860797Y-114320185D01*
X121893025Y-114350190D01*
X121913050Y-114376941D01*
X121913053Y-114376944D01*
X121913055Y-114376946D01*
X121913058Y-114376948D01*
X122028265Y-114463193D01*
X122028272Y-114463197D01*
X122064492Y-114476706D01*
X122163118Y-114513491D01*
X122222728Y-114519900D01*
X122877273Y-114519899D01*
X122936884Y-114513491D01*
X123071732Y-114463196D01*
X123186947Y-114376946D01*
X123273197Y-114261731D01*
X123323492Y-114126883D01*
X123329901Y-114067273D01*
X123329900Y-113107928D01*
X123323492Y-113048317D01*
X123313282Y-113020943D01*
X123273198Y-112913471D01*
X123273194Y-112913464D01*
X123186948Y-112798255D01*
X123186945Y-112798252D01*
X123071736Y-112712006D01*
X123071729Y-112712002D01*
X122936887Y-112661710D01*
X122936886Y-112661709D01*
X122936884Y-112661709D01*
X122877274Y-112655300D01*
X122877264Y-112655300D01*
X122222730Y-112655300D01*
X122222724Y-112655301D01*
X122163117Y-112661708D01*
X122028272Y-112712002D01*
X122028265Y-112712006D01*
X121913056Y-112798252D01*
X121913053Y-112798255D01*
X121826807Y-112913464D01*
X121826802Y-112913473D01*
X121787507Y-113018832D01*
X121745636Y-113074766D01*
X121680172Y-113099184D01*
X121671325Y-113099500D01*
X120700097Y-113099500D01*
X120633058Y-113079815D01*
X120612416Y-113063181D01*
X120236819Y-112687584D01*
X120203334Y-112626261D01*
X120200500Y-112599903D01*
X120200500Y-111034221D01*
X120198242Y-111025793D01*
X120198241Y-111025789D01*
X120159577Y-110881494D01*
X120113832Y-110802262D01*
X120080520Y-110744563D01*
X119968716Y-110632759D01*
X119968715Y-110632758D01*
X119964385Y-110628428D01*
X119964374Y-110628418D01*
X119617421Y-110281465D01*
X119583936Y-110220142D01*
X119581882Y-110207667D01*
X119581760Y-110206588D01*
X119573003Y-110128857D01*
X119585058Y-110060036D01*
X119632407Y-110008657D01*
X119682339Y-109991755D01*
X119744849Y-109984712D01*
X119794931Y-109979070D01*
X119794934Y-109979069D01*
X119794937Y-109979069D01*
X119965204Y-109919490D01*
X120117944Y-109823517D01*
X120245498Y-109695963D01*
X120341471Y-109543223D01*
X120401050Y-109372956D01*
X120405036Y-109337582D01*
X120421247Y-109193704D01*
X120421247Y-109193697D01*
X120401051Y-109014451D01*
X120401050Y-109014446D01*
X120371238Y-108929249D01*
X120341471Y-108844179D01*
X120328156Y-108822989D01*
X120286637Y-108756912D01*
X120245498Y-108691439D01*
X120225608Y-108671549D01*
X120192123Y-108610226D01*
X120197107Y-108540534D01*
X120238979Y-108484601D01*
X120274285Y-108466162D01*
X120277793Y-108464999D01*
X120277797Y-108464999D01*
X120444334Y-108409814D01*
X120593656Y-108317712D01*
X120717712Y-108193656D01*
X120800519Y-108059402D01*
X120852467Y-108012679D01*
X120906058Y-108000500D01*
X121322713Y-108000500D01*
X121322729Y-108000501D01*
X121330325Y-108000501D01*
X121488436Y-108000501D01*
X121488439Y-108000501D01*
X121641167Y-107959577D01*
X121712806Y-107918216D01*
X121778098Y-107880520D01*
X121889902Y-107768716D01*
X121889903Y-107768713D01*
X121891108Y-107767508D01*
X121952431Y-107734023D01*
X121964889Y-107731971D01*
X122051829Y-107722176D01*
X122222096Y-107662597D01*
X122374836Y-107566624D01*
X122374839Y-107566621D01*
X122380284Y-107562280D01*
X122382315Y-107564827D01*
X122430728Y-107538036D01*
X122500446Y-107542626D01*
X122545451Y-107571370D01*
X122863183Y-107889102D01*
X122896668Y-107950425D01*
X122899502Y-107976783D01*
X122899502Y-109196526D01*
X122879817Y-109263565D01*
X122827013Y-109309320D01*
X122757855Y-109319264D01*
X122694299Y-109290239D01*
X122670509Y-109262499D01*
X122629817Y-109197740D01*
X122629815Y-109197737D01*
X122502262Y-109070184D01*
X122349523Y-108974211D01*
X122179254Y-108914631D01*
X122179249Y-108914630D01*
X122000004Y-108894435D01*
X121999996Y-108894435D01*
X121820750Y-108914630D01*
X121820745Y-108914631D01*
X121650476Y-108974211D01*
X121497737Y-109070184D01*
X121370184Y-109197737D01*
X121274210Y-109350478D01*
X121214630Y-109520750D01*
X121204837Y-109607666D01*
X121177770Y-109672080D01*
X121169300Y-109681462D01*
X121119480Y-109731283D01*
X121103556Y-109758865D01*
X121091898Y-109779058D01*
X121040423Y-109868215D01*
X120999499Y-110020943D01*
X120999499Y-110020945D01*
X120999499Y-110189046D01*
X120999500Y-110189059D01*
X120999500Y-110322846D01*
X120979815Y-110389885D01*
X120963181Y-110410527D01*
X120963052Y-110410655D01*
X120876806Y-110525864D01*
X120876802Y-110525871D01*
X120826508Y-110660717D01*
X120820726Y-110714505D01*
X120820101Y-110720323D01*
X120820100Y-110720335D01*
X120820100Y-111679670D01*
X120820101Y-111679676D01*
X120826508Y-111739283D01*
X120876802Y-111874128D01*
X120876806Y-111874135D01*
X120963052Y-111989344D01*
X120963055Y-111989347D01*
X121078264Y-112075593D01*
X121078271Y-112075597D01*
X121082805Y-112077288D01*
X121213117Y-112125891D01*
X121272727Y-112132300D01*
X121927272Y-112132299D01*
X121986883Y-112125891D01*
X122121731Y-112075596D01*
X122236946Y-111989346D01*
X122323196Y-111874131D01*
X122373491Y-111739283D01*
X122379900Y-111679673D01*
X122379899Y-110720328D01*
X122373491Y-110660717D01*
X122333238Y-110552795D01*
X122328255Y-110483106D01*
X122361740Y-110421783D01*
X122383446Y-110404472D01*
X122502262Y-110329816D01*
X122629816Y-110202262D01*
X122670508Y-110137500D01*
X122722843Y-110091210D01*
X122791897Y-110080562D01*
X122855745Y-110108937D01*
X122894117Y-110167327D01*
X122899502Y-110203473D01*
X122899502Y-110322846D01*
X122879817Y-110389885D01*
X122863183Y-110410527D01*
X122863054Y-110410655D01*
X122776808Y-110525864D01*
X122776804Y-110525871D01*
X122726510Y-110660717D01*
X122720728Y-110714505D01*
X122720103Y-110720323D01*
X122720102Y-110720335D01*
X122720102Y-111679670D01*
X122720103Y-111679676D01*
X122726510Y-111739283D01*
X122776804Y-111874128D01*
X122776808Y-111874135D01*
X122863054Y-111989344D01*
X122863057Y-111989347D01*
X122978266Y-112075593D01*
X122978273Y-112075597D01*
X122982807Y-112077288D01*
X123113119Y-112125891D01*
X123172729Y-112132300D01*
X123827274Y-112132299D01*
X123886885Y-112125891D01*
X124021733Y-112075596D01*
X124136948Y-111989346D01*
X124223198Y-111874131D01*
X124273493Y-111739283D01*
X124279902Y-111679673D01*
X124279901Y-110720328D01*
X124273493Y-110660717D01*
X124272985Y-110659356D01*
X124223199Y-110525871D01*
X124223195Y-110525864D01*
X124136949Y-110410655D01*
X124136821Y-110410527D01*
X124136733Y-110410367D01*
X124131634Y-110403555D01*
X124132613Y-110402821D01*
X124103336Y-110349204D01*
X124100502Y-110322846D01*
X124100502Y-107597631D01*
X124100501Y-107597625D01*
X124098326Y-107589506D01*
X124096257Y-107581784D01*
X124059579Y-107444901D01*
X124016879Y-107370943D01*
X123997755Y-107337819D01*
X123980523Y-107307971D01*
X123864387Y-107191835D01*
X123864376Y-107191825D01*
X122796244Y-106123693D01*
X122762759Y-106062370D01*
X122760707Y-106049914D01*
X122750912Y-105962973D01*
X122691333Y-105792706D01*
X122595360Y-105639966D01*
X122467806Y-105512412D01*
X122443759Y-105497302D01*
X122315067Y-105416439D01*
X122144798Y-105356859D01*
X122144793Y-105356858D01*
X121965548Y-105336663D01*
X121965540Y-105336663D01*
X121786294Y-105356858D01*
X121786289Y-105356859D01*
X121616020Y-105416439D01*
X121463281Y-105512412D01*
X121335728Y-105639965D01*
X121239755Y-105792704D01*
X121180175Y-105962973D01*
X121180174Y-105962978D01*
X121159979Y-106142224D01*
X121159979Y-106142231D01*
X121180175Y-106321480D01*
X121208249Y-106401713D01*
X121211810Y-106471492D01*
X121196202Y-106508638D01*
X121146782Y-106587290D01*
X121109747Y-106693132D01*
X121069026Y-106749908D01*
X121004073Y-106775655D01*
X120935511Y-106762199D01*
X120885109Y-106713811D01*
X120869348Y-106664778D01*
X120864999Y-106622203D01*
X120809814Y-106455666D01*
X120717712Y-106306344D01*
X120593656Y-106182288D01*
X120444334Y-106090186D01*
X120277797Y-106035001D01*
X120277795Y-106035000D01*
X120175016Y-106024500D01*
X120175009Y-106024500D01*
X119974500Y-106024500D01*
X119907461Y-106004815D01*
X119861706Y-105952011D01*
X119850500Y-105900500D01*
X119850500Y-104636096D01*
X119870185Y-104569057D01*
X119886810Y-104548424D01*
X119985698Y-104449536D01*
X120047016Y-104416054D01*
X120116708Y-104421038D01*
X120178517Y-104444091D01*
X120178516Y-104444091D01*
X120185444Y-104444835D01*
X120238127Y-104450500D01*
X121833872Y-104450499D01*
X121893483Y-104444091D01*
X122028331Y-104393796D01*
X122143546Y-104307546D01*
X122229796Y-104192331D01*
X122280091Y-104057483D01*
X122286500Y-103997873D01*
X122286499Y-102214095D01*
X122306184Y-102147057D01*
X122322813Y-102126420D01*
X124694478Y-99754755D01*
X124755799Y-99721272D01*
X124768253Y-99719220D01*
X124855200Y-99709425D01*
X125025467Y-99649846D01*
X125178207Y-99553873D01*
X125305761Y-99426319D01*
X125401734Y-99273579D01*
X125461313Y-99103312D01*
X125463858Y-99080726D01*
X125481510Y-98924060D01*
X125481510Y-98924053D01*
X125463977Y-98768439D01*
X125476032Y-98699617D01*
X125499513Y-98666878D01*
X127829574Y-96336819D01*
X127890897Y-96303334D01*
X127917255Y-96300500D01*
X132346659Y-96300500D01*
X132413698Y-96320185D01*
X132459453Y-96372989D01*
X132469397Y-96442147D01*
X132452198Y-96489596D01*
X132365189Y-96630659D01*
X132365185Y-96630668D01*
X132352578Y-96668713D01*
X132310001Y-96797203D01*
X132310001Y-96797204D01*
X132310000Y-96797204D01*
X132299500Y-96899983D01*
X132299500Y-97700001D01*
X132299501Y-97700019D01*
X132310000Y-97802796D01*
X132310001Y-97802799D01*
X132365185Y-97969331D01*
X132365186Y-97969334D01*
X132457288Y-98118656D01*
X132581344Y-98242712D01*
X132730666Y-98334814D01*
X132897203Y-98389999D01*
X132999991Y-98400500D01*
X133699902Y-98400499D01*
X133766941Y-98420183D01*
X133787583Y-98436818D01*
X133913584Y-98562819D01*
X133947069Y-98624142D01*
X133942085Y-98693834D01*
X133900213Y-98749767D01*
X133834749Y-98774184D01*
X133825905Y-98774500D01*
X133777131Y-98774500D01*
X133777123Y-98774501D01*
X133717516Y-98780908D01*
X133582671Y-98831202D01*
X133582669Y-98831203D01*
X133549310Y-98856176D01*
X133483845Y-98880592D01*
X133415572Y-98865740D01*
X133400690Y-98856176D01*
X133367330Y-98831203D01*
X133367328Y-98831202D01*
X133232482Y-98780908D01*
X133232483Y-98780908D01*
X133172883Y-98774501D01*
X133172881Y-98774500D01*
X133172873Y-98774500D01*
X133172864Y-98774500D01*
X132327129Y-98774500D01*
X132327123Y-98774501D01*
X132267516Y-98780908D01*
X132132671Y-98831202D01*
X132132664Y-98831206D01*
X132017455Y-98917452D01*
X132017452Y-98917455D01*
X131931206Y-99032664D01*
X131931202Y-99032671D01*
X131880908Y-99167517D01*
X131874501Y-99227116D01*
X131874500Y-99227135D01*
X131874500Y-99874902D01*
X131854815Y-99941941D01*
X131838181Y-99962583D01*
X131244481Y-100556282D01*
X131244479Y-100556285D01*
X131194361Y-100643094D01*
X131194359Y-100643096D01*
X131165425Y-100693209D01*
X131165424Y-100693210D01*
X131161942Y-100706206D01*
X131124499Y-100845943D01*
X131124499Y-100845945D01*
X131124499Y-101014046D01*
X131124500Y-101014059D01*
X131124500Y-102038330D01*
X131124499Y-102038348D01*
X131124499Y-102204054D01*
X131124498Y-102204054D01*
X131124499Y-102204057D01*
X131165423Y-102356785D01*
X131190084Y-102399499D01*
X131244477Y-102493712D01*
X131244481Y-102493717D01*
X131363349Y-102612585D01*
X131363355Y-102612590D01*
X131838181Y-103087416D01*
X131871666Y-103148739D01*
X131874500Y-103175097D01*
X131874500Y-103622870D01*
X131874501Y-103622876D01*
X131880908Y-103682483D01*
X131931202Y-103817328D01*
X131931206Y-103817335D01*
X132017452Y-103932544D01*
X132017455Y-103932547D01*
X132132664Y-104018793D01*
X132132671Y-104018797D01*
X132169875Y-104032673D01*
X132267517Y-104069091D01*
X132327127Y-104075500D01*
X132774902Y-104075499D01*
X132841941Y-104095183D01*
X132862583Y-104111818D01*
X134563181Y-105812416D01*
X134596666Y-105873739D01*
X134599500Y-105900097D01*
X134599500Y-106150500D01*
X134579815Y-106217539D01*
X134527011Y-106263294D01*
X134475500Y-106274500D01*
X133777129Y-106274500D01*
X133777123Y-106274501D01*
X133717516Y-106280908D01*
X133582671Y-106331202D01*
X133582669Y-106331203D01*
X133549310Y-106356176D01*
X133483845Y-106380592D01*
X133415572Y-106365740D01*
X133400690Y-106356176D01*
X133367330Y-106331203D01*
X133367328Y-106331202D01*
X133232482Y-106280908D01*
X133232483Y-106280908D01*
X133172883Y-106274501D01*
X133172881Y-106274500D01*
X133172873Y-106274500D01*
X133172864Y-106274500D01*
X132327129Y-106274500D01*
X132327123Y-106274501D01*
X132267516Y-106280908D01*
X132132671Y-106331202D01*
X132132664Y-106331206D01*
X132017455Y-106417452D01*
X132017452Y-106417455D01*
X131931206Y-106532664D01*
X131931202Y-106532671D01*
X131880908Y-106667517D01*
X131874501Y-106727116D01*
X131874500Y-106727135D01*
X131874500Y-107374901D01*
X131854815Y-107441940D01*
X131838181Y-107462582D01*
X131331286Y-107969478D01*
X131219481Y-108081282D01*
X131219475Y-108081290D01*
X131169801Y-108167330D01*
X131169801Y-108167331D01*
X131140423Y-108218215D01*
X131099499Y-108370943D01*
X131099499Y-108370945D01*
X131099499Y-108539046D01*
X131099500Y-108539059D01*
X131099500Y-109513330D01*
X131099499Y-109513348D01*
X131099499Y-109679054D01*
X131099498Y-109679054D01*
X131140424Y-109831789D01*
X131140425Y-109831790D01*
X131164940Y-109874250D01*
X131166602Y-109877128D01*
X131211708Y-109955254D01*
X131219479Y-109968714D01*
X131219481Y-109968717D01*
X131338349Y-110087585D01*
X131338355Y-110087590D01*
X131838181Y-110587417D01*
X131871666Y-110648740D01*
X131874500Y-110675098D01*
X131874500Y-111122870D01*
X131874501Y-111122876D01*
X131880908Y-111182483D01*
X131931202Y-111317328D01*
X131931206Y-111317335D01*
X132017452Y-111432544D01*
X132017455Y-111432547D01*
X132132664Y-111518793D01*
X132132671Y-111518797D01*
X132169875Y-111532673D01*
X132267517Y-111569091D01*
X132327127Y-111575500D01*
X132774902Y-111575499D01*
X132841941Y-111595183D01*
X132862583Y-111611818D01*
X134563181Y-113312416D01*
X134596666Y-113373739D01*
X134599500Y-113400097D01*
X134599500Y-113650500D01*
X134579815Y-113717539D01*
X134527011Y-113763294D01*
X134475500Y-113774500D01*
X133777129Y-113774500D01*
X133777123Y-113774501D01*
X133717516Y-113780908D01*
X133582671Y-113831202D01*
X133582669Y-113831203D01*
X133549310Y-113856176D01*
X133483845Y-113880592D01*
X133415572Y-113865740D01*
X133400690Y-113856176D01*
X133367330Y-113831203D01*
X133367328Y-113831202D01*
X133232482Y-113780908D01*
X133232483Y-113780908D01*
X133172883Y-113774501D01*
X133172881Y-113774500D01*
X133172873Y-113774500D01*
X133172864Y-113774500D01*
X132327129Y-113774500D01*
X132327123Y-113774501D01*
X132267516Y-113780908D01*
X132132671Y-113831202D01*
X132132664Y-113831206D01*
X132017455Y-113917452D01*
X132017452Y-113917455D01*
X131931206Y-114032664D01*
X131931202Y-114032671D01*
X131880908Y-114167517D01*
X131874501Y-114227116D01*
X131874500Y-114227127D01*
X131874500Y-114874901D01*
X131854815Y-114941940D01*
X131838181Y-114962582D01*
X131331286Y-115469478D01*
X131219481Y-115581282D01*
X131219480Y-115581284D01*
X131174775Y-115658716D01*
X131140423Y-115718215D01*
X131099499Y-115870943D01*
X131099499Y-115870945D01*
X131099499Y-116039046D01*
X131099500Y-116039059D01*
X131099500Y-117013330D01*
X131099499Y-117013348D01*
X131099499Y-117179054D01*
X131099498Y-117179054D01*
X131140424Y-117331789D01*
X131140425Y-117331790D01*
X131166601Y-117377127D01*
X131166602Y-117377128D01*
X131203319Y-117440724D01*
X131219479Y-117468714D01*
X131219481Y-117468717D01*
X131338349Y-117587585D01*
X131338354Y-117587589D01*
X131738083Y-117987319D01*
X131771568Y-118048641D01*
X131766584Y-118118333D01*
X131738083Y-118162680D01*
X131093684Y-118807081D01*
X130037584Y-119863181D01*
X129976261Y-119896666D01*
X129949903Y-119899500D01*
X120662498Y-119899500D01*
X120595459Y-119879815D01*
X120574817Y-119863181D01*
X120066219Y-119354583D01*
X120032734Y-119293260D01*
X120029900Y-119266902D01*
X120029900Y-119214129D01*
X120029899Y-119214123D01*
X120029898Y-119214116D01*
X120023492Y-119154517D01*
X120021179Y-119148316D01*
X119973198Y-119019671D01*
X119973194Y-119019664D01*
X119886948Y-118904455D01*
X119886945Y-118904452D01*
X119771736Y-118818206D01*
X119771729Y-118818202D01*
X119636887Y-118767910D01*
X119636886Y-118767909D01*
X119636884Y-118767909D01*
X119577274Y-118761500D01*
X119577264Y-118761500D01*
X118922730Y-118761500D01*
X118922724Y-118761501D01*
X118863117Y-118767908D01*
X118728272Y-118818202D01*
X118728265Y-118818206D01*
X118613056Y-118904452D01*
X118613053Y-118904455D01*
X118526807Y-119019664D01*
X118526803Y-119019671D01*
X118476509Y-119154517D01*
X118470102Y-119214116D01*
X118470102Y-119214123D01*
X118470101Y-119214135D01*
X118470102Y-120175500D01*
X118450418Y-120242539D01*
X118397614Y-120288294D01*
X118346102Y-120299500D01*
X114162497Y-120299500D01*
X114095458Y-120279815D01*
X114074816Y-120263181D01*
X113466217Y-119654582D01*
X113432732Y-119593259D01*
X113429898Y-119566901D01*
X113429898Y-119207929D01*
X113429897Y-119207923D01*
X113429896Y-119207916D01*
X113424698Y-119159557D01*
X113423490Y-119148316D01*
X113373196Y-119013471D01*
X113373192Y-119013464D01*
X113286946Y-118898255D01*
X113286943Y-118898252D01*
X113171734Y-118812006D01*
X113171727Y-118812002D01*
X113036885Y-118761710D01*
X113036884Y-118761709D01*
X113036882Y-118761709D01*
X112977272Y-118755300D01*
X112977262Y-118755300D01*
X112322728Y-118755300D01*
X112322722Y-118755301D01*
X112263115Y-118761708D01*
X112128270Y-118812002D01*
X112128263Y-118812006D01*
X112013054Y-118898252D01*
X112013051Y-118898255D01*
X111926805Y-119013464D01*
X111926801Y-119013471D01*
X111876507Y-119148317D01*
X111870897Y-119200501D01*
X111870100Y-119207923D01*
X111870099Y-119207935D01*
X111870099Y-120167270D01*
X111870100Y-120167276D01*
X111876507Y-120226883D01*
X111926801Y-120361728D01*
X111926805Y-120361735D01*
X112013051Y-120476944D01*
X112013054Y-120476947D01*
X112128263Y-120563193D01*
X112128270Y-120563197D01*
X112164710Y-120576788D01*
X112263116Y-120613491D01*
X112322726Y-120619900D01*
X112681700Y-120619899D01*
X112748739Y-120639583D01*
X112769381Y-120656218D01*
X113493683Y-121380520D01*
X113493685Y-121380521D01*
X113493689Y-121380524D01*
X113630608Y-121459573D01*
X113630615Y-121459577D01*
X113783342Y-121500501D01*
X113783344Y-121500501D01*
X113949053Y-121500501D01*
X113949069Y-121500500D01*
X161713331Y-121500500D01*
X161713347Y-121500501D01*
X161720943Y-121500501D01*
X161886653Y-121500501D01*
X161886669Y-121500500D01*
X167063331Y-121500500D01*
X167063347Y-121500501D01*
X167070943Y-121500501D01*
X167236653Y-121500501D01*
X167236669Y-121500500D01*
X172020943Y-121500500D01*
X172363331Y-121500500D01*
X172363347Y-121500501D01*
X172370943Y-121500501D01*
X172536653Y-121500501D01*
X172536669Y-121500500D01*
X177020943Y-121500500D01*
X177663331Y-121500500D01*
X177663347Y-121500501D01*
X177670943Y-121500501D01*
X177836653Y-121500501D01*
X177836669Y-121500500D01*
X182963331Y-121500500D01*
X182963347Y-121500501D01*
X182970943Y-121500501D01*
X183129054Y-121500501D01*
X183129057Y-121500501D01*
X183281785Y-121459577D01*
X183331904Y-121430639D01*
X183418716Y-121380520D01*
X183530520Y-121268716D01*
X183530520Y-121268714D01*
X183540728Y-121258507D01*
X183540730Y-121258504D01*
X185687416Y-119111818D01*
X185748739Y-119078333D01*
X185775097Y-119075499D01*
X186372871Y-119075499D01*
X186372872Y-119075499D01*
X186432483Y-119069091D01*
X186567329Y-119018797D01*
X186567329Y-119018796D01*
X186567331Y-119018796D01*
X186600689Y-118993823D01*
X186666151Y-118969406D01*
X186734425Y-118984257D01*
X186749305Y-118993820D01*
X186782669Y-119018796D01*
X186782670Y-119018796D01*
X186782670Y-119018797D01*
X186917517Y-119069091D01*
X186917516Y-119069091D01*
X186924444Y-119069835D01*
X186977127Y-119075500D01*
X187822872Y-119075499D01*
X187882483Y-119069091D01*
X188017331Y-119018796D01*
X188132546Y-118932546D01*
X188218796Y-118817331D01*
X188269091Y-118682483D01*
X188275500Y-118622873D01*
X188275499Y-117875095D01*
X188295183Y-117808057D01*
X188311813Y-117787420D01*
X188658506Y-117440728D01*
X188658511Y-117440724D01*
X188668714Y-117430520D01*
X188668716Y-117430520D01*
X188780520Y-117318716D01*
X188840057Y-117215594D01*
X188859577Y-117181785D01*
X188900500Y-117029058D01*
X188900500Y-116870943D01*
X188900500Y-115797844D01*
X201000000Y-115797844D01*
X201006401Y-115857372D01*
X201006403Y-115857379D01*
X201056645Y-115992086D01*
X201056649Y-115992093D01*
X201142809Y-116107187D01*
X201142812Y-116107190D01*
X201257906Y-116193350D01*
X201257913Y-116193354D01*
X201392620Y-116243596D01*
X201392627Y-116243598D01*
X201452155Y-116249999D01*
X201452172Y-116250000D01*
X202500000Y-116250000D01*
X203000000Y-116250000D01*
X204047828Y-116250000D01*
X204047844Y-116249999D01*
X204107372Y-116243598D01*
X204107379Y-116243596D01*
X204242086Y-116193354D01*
X204242093Y-116193350D01*
X204357187Y-116107190D01*
X204357190Y-116107187D01*
X204443350Y-115992093D01*
X204443354Y-115992086D01*
X204493596Y-115857379D01*
X204493598Y-115857372D01*
X204499999Y-115797844D01*
X204500000Y-115797827D01*
X204500000Y-115000000D01*
X203000000Y-115000000D01*
X203000000Y-116250000D01*
X202500000Y-116250000D01*
X202500000Y-115000000D01*
X201000000Y-115000000D01*
X201000000Y-115797844D01*
X188900500Y-115797844D01*
X188900500Y-113702155D01*
X201000000Y-113702155D01*
X201000000Y-114500000D01*
X202500000Y-114500000D01*
X203000000Y-114500000D01*
X204500000Y-114500000D01*
X204500000Y-113702172D01*
X204499999Y-113702155D01*
X204493598Y-113642627D01*
X204493596Y-113642620D01*
X204443354Y-113507913D01*
X204443350Y-113507906D01*
X204357190Y-113392812D01*
X204357187Y-113392809D01*
X204242093Y-113306649D01*
X204242086Y-113306645D01*
X204107379Y-113256403D01*
X204107372Y-113256401D01*
X204047844Y-113250000D01*
X203000000Y-113250000D01*
X203000000Y-114500000D01*
X202500000Y-114500000D01*
X202500000Y-113250000D01*
X201452155Y-113250000D01*
X201392627Y-113256401D01*
X201392620Y-113256403D01*
X201257913Y-113306645D01*
X201257906Y-113306649D01*
X201142812Y-113392809D01*
X201142809Y-113392812D01*
X201056649Y-113507906D01*
X201056645Y-113507913D01*
X201006403Y-113642620D01*
X201006401Y-113642627D01*
X201000000Y-113702155D01*
X188900500Y-113702155D01*
X188900500Y-113089059D01*
X188900501Y-113089046D01*
X188900501Y-112920945D01*
X188900501Y-112920943D01*
X188859577Y-112768215D01*
X188806517Y-112676313D01*
X188780520Y-112631284D01*
X188668716Y-112519480D01*
X188668715Y-112519479D01*
X188664385Y-112515149D01*
X188664374Y-112515139D01*
X187899355Y-111750120D01*
X187865870Y-111688797D01*
X187870854Y-111619105D01*
X187912726Y-111563172D01*
X187943704Y-111546257D01*
X188017326Y-111518798D01*
X188017326Y-111518797D01*
X188017331Y-111518796D01*
X188132546Y-111432546D01*
X188218796Y-111317331D01*
X188269091Y-111182483D01*
X188275500Y-111122873D01*
X188275499Y-110375095D01*
X188295183Y-110308057D01*
X188311813Y-110287420D01*
X188658506Y-109940728D01*
X188658511Y-109940724D01*
X188668714Y-109930520D01*
X188668716Y-109930520D01*
X188780520Y-109818716D01*
X188838076Y-109719025D01*
X188859577Y-109681785D01*
X188900500Y-109529058D01*
X188900500Y-109370943D01*
X188900500Y-105589059D01*
X188900501Y-105589046D01*
X188900501Y-105420945D01*
X188900501Y-105420943D01*
X188859577Y-105268215D01*
X188819904Y-105199500D01*
X188780520Y-105131284D01*
X188668716Y-105019480D01*
X188664385Y-105015149D01*
X188664374Y-105015139D01*
X187899355Y-104250120D01*
X187865870Y-104188797D01*
X187870854Y-104119105D01*
X187912726Y-104063172D01*
X187943704Y-104046257D01*
X188017326Y-104018798D01*
X188017326Y-104018797D01*
X188017331Y-104018796D01*
X188132546Y-103932546D01*
X188218796Y-103817331D01*
X188269091Y-103682483D01*
X188275500Y-103622873D01*
X188275499Y-103350095D01*
X188295183Y-103283057D01*
X188311809Y-103262425D01*
X188780520Y-102793716D01*
X188859577Y-102656785D01*
X188900501Y-102504057D01*
X188900501Y-102345942D01*
X188900501Y-102338347D01*
X188900500Y-102338329D01*
X188900500Y-98820945D01*
X188900500Y-98820943D01*
X188880098Y-98744802D01*
X188859577Y-98668215D01*
X188809387Y-98581284D01*
X188780520Y-98531284D01*
X188668716Y-98419480D01*
X188668715Y-98419479D01*
X188664385Y-98415149D01*
X188664374Y-98415139D01*
X187836818Y-97587583D01*
X187803333Y-97526260D01*
X187800499Y-97499902D01*
X187800499Y-96799998D01*
X187800498Y-96799981D01*
X187789999Y-96697203D01*
X187789998Y-96697200D01*
X187779124Y-96664385D01*
X187734814Y-96530666D01*
X187642712Y-96381344D01*
X187549049Y-96287681D01*
X187515564Y-96226358D01*
X187520548Y-96156666D01*
X187549049Y-96112319D01*
X187558291Y-96103077D01*
X187642712Y-96018656D01*
X187734814Y-95869334D01*
X187789999Y-95702797D01*
X187800500Y-95600009D01*
X187800499Y-94824499D01*
X187820183Y-94757461D01*
X187872987Y-94711706D01*
X187924499Y-94700500D01*
X196799903Y-94700500D01*
X196866942Y-94720185D01*
X196887584Y-94736819D01*
X200963181Y-98812416D01*
X200996666Y-98873739D01*
X200999500Y-98900097D01*
X200999500Y-100797870D01*
X200999501Y-100797876D01*
X201005908Y-100857483D01*
X201056202Y-100992328D01*
X201056206Y-100992335D01*
X201142452Y-101107544D01*
X201142455Y-101107547D01*
X201257664Y-101193793D01*
X201257671Y-101193797D01*
X201392517Y-101244091D01*
X201392516Y-101244091D01*
X201399444Y-101244835D01*
X201452127Y-101250500D01*
X202382664Y-101250499D01*
X202444664Y-101267112D01*
X202483966Y-101289803D01*
X202518216Y-101309577D01*
X202670943Y-101350500D01*
X202670945Y-101350500D01*
X202829055Y-101350500D01*
X202829057Y-101350500D01*
X202981784Y-101309577D01*
X203055335Y-101267111D01*
X203117335Y-101250499D01*
X204047871Y-101250499D01*
X204047872Y-101250499D01*
X204107483Y-101244091D01*
X204242331Y-101193796D01*
X204357546Y-101107546D01*
X204443796Y-100992331D01*
X204494091Y-100857483D01*
X204500500Y-100797873D01*
X204500499Y-98702128D01*
X204494091Y-98642517D01*
X204489902Y-98631287D01*
X204443797Y-98507671D01*
X204443793Y-98507664D01*
X204357547Y-98392455D01*
X204357544Y-98392452D01*
X204242335Y-98306206D01*
X204242328Y-98306202D01*
X204107482Y-98255908D01*
X204107483Y-98255908D01*
X204047883Y-98249501D01*
X204047881Y-98249500D01*
X204047873Y-98249500D01*
X204047865Y-98249500D01*
X202150098Y-98249500D01*
X202083059Y-98229815D01*
X202062417Y-98213181D01*
X199089227Y-95239992D01*
X206014671Y-95239992D01*
X206014671Y-95240007D01*
X206033964Y-95534363D01*
X206033965Y-95534373D01*
X206033966Y-95534380D01*
X206090675Y-95819481D01*
X206091518Y-95823716D01*
X206091521Y-95823730D01*
X206186349Y-96103080D01*
X206316825Y-96367660D01*
X206316829Y-96367667D01*
X206480725Y-96612955D01*
X206675241Y-96834758D01*
X206897044Y-97029274D01*
X206992933Y-97093345D01*
X207142335Y-97193172D01*
X207406923Y-97323652D01*
X207601534Y-97389714D01*
X207682869Y-97417324D01*
X207686278Y-97418481D01*
X207975620Y-97476034D01*
X208003888Y-97477886D01*
X208269993Y-97495329D01*
X208270000Y-97495329D01*
X208270007Y-97495329D01*
X208505675Y-97479881D01*
X208564380Y-97476034D01*
X208853722Y-97418481D01*
X209133077Y-97323652D01*
X209397665Y-97193172D01*
X209642957Y-97029273D01*
X209864758Y-96834758D01*
X210059273Y-96612957D01*
X210223172Y-96367665D01*
X210353652Y-96103077D01*
X210448481Y-95823722D01*
X210506034Y-95534380D01*
X210519447Y-95329744D01*
X210525329Y-95240007D01*
X210525329Y-95239992D01*
X210506035Y-94945636D01*
X210506034Y-94945620D01*
X210448481Y-94656278D01*
X210353652Y-94376923D01*
X210223172Y-94112336D01*
X210059273Y-93867043D01*
X210016655Y-93818447D01*
X209864758Y-93645241D01*
X209642955Y-93450725D01*
X209397667Y-93286829D01*
X209397660Y-93286825D01*
X209133080Y-93156349D01*
X208853730Y-93061521D01*
X208853724Y-93061519D01*
X208853722Y-93061519D01*
X208564380Y-93003966D01*
X208564373Y-93003965D01*
X208564363Y-93003964D01*
X208270007Y-92984671D01*
X208269993Y-92984671D01*
X207975636Y-93003964D01*
X207975624Y-93003965D01*
X207975620Y-93003966D01*
X207975612Y-93003967D01*
X207975609Y-93003968D01*
X207686283Y-93061518D01*
X207686269Y-93061521D01*
X207406919Y-93156349D01*
X207142334Y-93286828D01*
X206897041Y-93450728D01*
X206675241Y-93645241D01*
X206480728Y-93867041D01*
X206316828Y-94112334D01*
X206186349Y-94376919D01*
X206091521Y-94656269D01*
X206091518Y-94656283D01*
X206033968Y-94945609D01*
X206033964Y-94945636D01*
X206014671Y-95239992D01*
X199089227Y-95239992D01*
X197587590Y-93738355D01*
X197587588Y-93738352D01*
X197468717Y-93619481D01*
X197468716Y-93619480D01*
X197358187Y-93555666D01*
X197358187Y-93555665D01*
X197358184Y-93555665D01*
X197331785Y-93540423D01*
X197179057Y-93499499D01*
X197020943Y-93499499D01*
X197013347Y-93499499D01*
X197013331Y-93499500D01*
X128738141Y-93499500D01*
X128738125Y-93499499D01*
X128730529Y-93499499D01*
X128572415Y-93499499D01*
X128419687Y-93540423D01*
X128393286Y-93555666D01*
X128338021Y-93587573D01*
X128282757Y-93619479D01*
X128282754Y-93619481D01*
X128170950Y-93731286D01*
X123831465Y-98070770D01*
X123770142Y-98104255D01*
X123757668Y-98106309D01*
X123670750Y-98116102D01*
X123500478Y-98175682D01*
X123347737Y-98271656D01*
X123220184Y-98399209D01*
X123124211Y-98551948D01*
X123064631Y-98722217D01*
X123064630Y-98722222D01*
X123044435Y-98901468D01*
X123044435Y-98901475D01*
X123064630Y-99080721D01*
X123064631Y-99080726D01*
X123124211Y-99250995D01*
X123216520Y-99397903D01*
X123235520Y-99465140D01*
X123215152Y-99531975D01*
X123199207Y-99551556D01*
X122096500Y-100654263D01*
X122035177Y-100687748D01*
X121965486Y-100682764D01*
X121893482Y-100655908D01*
X121893483Y-100655908D01*
X121833883Y-100649501D01*
X121833881Y-100649500D01*
X121833873Y-100649500D01*
X121833864Y-100649500D01*
X120238129Y-100649500D01*
X120238123Y-100649501D01*
X120178516Y-100655908D01*
X120043671Y-100706202D01*
X120043664Y-100706206D01*
X119928455Y-100792452D01*
X119928452Y-100792455D01*
X119842206Y-100907664D01*
X119842202Y-100907671D01*
X119791908Y-101042517D01*
X119785501Y-101102116D01*
X119785500Y-101102135D01*
X119785500Y-102899902D01*
X119765815Y-102966941D01*
X119749181Y-102987583D01*
X118769481Y-103967282D01*
X118769479Y-103967284D01*
X118751846Y-103997827D01*
X118739740Y-104018796D01*
X118690423Y-104104215D01*
X118649499Y-104256943D01*
X118649499Y-104256945D01*
X118649499Y-104425046D01*
X118649500Y-104425059D01*
X118649500Y-106041406D01*
X118629815Y-106108445D01*
X118577011Y-106154200D01*
X118507853Y-106164144D01*
X118460403Y-106146945D01*
X118369124Y-106090643D01*
X118369119Y-106090641D01*
X118202697Y-106035494D01*
X118202690Y-106035493D01*
X118099986Y-106025000D01*
X117962500Y-106025000D01*
X117962500Y-107126000D01*
X117942815Y-107193039D01*
X117890011Y-107238794D01*
X117838500Y-107250000D01*
X117712500Y-107250000D01*
X117712500Y-107376000D01*
X117692815Y-107443039D01*
X117640011Y-107488794D01*
X117588500Y-107500000D01*
X116625001Y-107500000D01*
X116625001Y-107774986D01*
X116635494Y-107877697D01*
X116671547Y-107986496D01*
X116673949Y-108056324D01*
X116638217Y-108116366D01*
X116575697Y-108147559D01*
X116553841Y-108149500D01*
X116136625Y-108149500D01*
X116107872Y-108157204D01*
X116107873Y-108157205D01*
X115983900Y-108190423D01*
X115983895Y-108190426D01*
X115846976Y-108269475D01*
X115846968Y-108269481D01*
X115735164Y-108381286D01*
X115735163Y-108381287D01*
X115677433Y-108439016D01*
X115616110Y-108472500D01*
X115546418Y-108467515D01*
X115490485Y-108425644D01*
X115478035Y-108405139D01*
X115475793Y-108400484D01*
X115394398Y-108270945D01*
X115379816Y-108247738D01*
X115252262Y-108120184D01*
X115154163Y-108058544D01*
X115099523Y-108024211D01*
X114929254Y-107964631D01*
X114929249Y-107964630D01*
X114750004Y-107944435D01*
X114749996Y-107944435D01*
X114570750Y-107964630D01*
X114570745Y-107964631D01*
X114400476Y-108024211D01*
X114247737Y-108120184D01*
X114120184Y-108247737D01*
X114020506Y-108406374D01*
X114018764Y-108405279D01*
X113978663Y-108449703D01*
X113913757Y-108468047D01*
X113203899Y-108468047D01*
X113136860Y-108448362D01*
X113091105Y-108395558D01*
X113079899Y-108344048D01*
X113079898Y-108258297D01*
X113099582Y-108191258D01*
X113116212Y-108170620D01*
X114561820Y-106725013D01*
X116625000Y-106725013D01*
X116625000Y-107000000D01*
X117462500Y-107000000D01*
X117462500Y-106025000D01*
X117325027Y-106025000D01*
X117325012Y-106025001D01*
X117222302Y-106035494D01*
X117055880Y-106090641D01*
X117055875Y-106090643D01*
X116906654Y-106182684D01*
X116782684Y-106306654D01*
X116690643Y-106455875D01*
X116690641Y-106455880D01*
X116635494Y-106622302D01*
X116635493Y-106622309D01*
X116625000Y-106725013D01*
X114561820Y-106725013D01*
X114633506Y-106653327D01*
X114633511Y-106653323D01*
X114643714Y-106643119D01*
X114643716Y-106643119D01*
X114755520Y-106531315D01*
X114821255Y-106417456D01*
X114821257Y-106417455D01*
X114830345Y-106401713D01*
X114834577Y-106394384D01*
X114875500Y-106241657D01*
X114875500Y-106083542D01*
X114875500Y-105357412D01*
X114895185Y-105290373D01*
X114902555Y-105280097D01*
X114904810Y-105277267D01*
X114904816Y-105277262D01*
X115000789Y-105124522D01*
X115060368Y-104954255D01*
X115065912Y-104905051D01*
X115080565Y-104775003D01*
X115080565Y-104774996D01*
X115060369Y-104595750D01*
X115060368Y-104595745D01*
X115051029Y-104569057D01*
X115000789Y-104425478D01*
X114980882Y-104393797D01*
X114926686Y-104307544D01*
X114904816Y-104272738D01*
X114777262Y-104145184D01*
X114757375Y-104132688D01*
X114624523Y-104049211D01*
X114477725Y-103997844D01*
X115214000Y-103997844D01*
X115220401Y-104057372D01*
X115220403Y-104057379D01*
X115270645Y-104192086D01*
X115270649Y-104192093D01*
X115356809Y-104307187D01*
X115356812Y-104307190D01*
X115471906Y-104393350D01*
X115471913Y-104393354D01*
X115606620Y-104443596D01*
X115606627Y-104443598D01*
X115666155Y-104449999D01*
X115666172Y-104450000D01*
X116214000Y-104450000D01*
X116714000Y-104450000D01*
X117261828Y-104450000D01*
X117261844Y-104449999D01*
X117321372Y-104443598D01*
X117321379Y-104443596D01*
X117456086Y-104393354D01*
X117456093Y-104393350D01*
X117571187Y-104307190D01*
X117571190Y-104307187D01*
X117657350Y-104192093D01*
X117657354Y-104192086D01*
X117707596Y-104057379D01*
X117707598Y-104057372D01*
X117713999Y-103997844D01*
X117714000Y-103997827D01*
X117714000Y-102800000D01*
X116714000Y-102800000D01*
X116714000Y-104450000D01*
X116214000Y-104450000D01*
X116214000Y-102800000D01*
X115214000Y-102800000D01*
X115214000Y-103997844D01*
X114477725Y-103997844D01*
X114454254Y-103989631D01*
X114454249Y-103989630D01*
X114275004Y-103969435D01*
X114274996Y-103969435D01*
X114095750Y-103989630D01*
X114095745Y-103989631D01*
X113925476Y-104049211D01*
X113772737Y-104145184D01*
X113645184Y-104272737D01*
X113549211Y-104425476D01*
X113489631Y-104595745D01*
X113489630Y-104595749D01*
X113477030Y-104707584D01*
X113449963Y-104771998D01*
X113392368Y-104811553D01*
X113353810Y-104817700D01*
X112922729Y-104817700D01*
X112922723Y-104817701D01*
X112863116Y-104824108D01*
X112728271Y-104874402D01*
X112728264Y-104874406D01*
X112613055Y-104960652D01*
X112613052Y-104960655D01*
X112526806Y-105075864D01*
X112526802Y-105075871D01*
X112476508Y-105210717D01*
X112472129Y-105251454D01*
X112470101Y-105270323D01*
X112470100Y-105270335D01*
X112470100Y-105629301D01*
X112450415Y-105696340D01*
X112433781Y-105716982D01*
X112341578Y-105809185D01*
X112280255Y-105842670D01*
X112210563Y-105837686D01*
X112154630Y-105795814D01*
X112130213Y-105730350D01*
X112129897Y-105721504D01*
X112129897Y-105270329D01*
X112129896Y-105270323D01*
X112129895Y-105270316D01*
X112123489Y-105210717D01*
X112119305Y-105199500D01*
X112073195Y-105075871D01*
X112073191Y-105075864D01*
X111986945Y-104960655D01*
X111986942Y-104960652D01*
X111871733Y-104874406D01*
X111871726Y-104874402D01*
X111736880Y-104824108D01*
X111736881Y-104824108D01*
X111677281Y-104817701D01*
X111677279Y-104817700D01*
X111677271Y-104817700D01*
X111677263Y-104817700D01*
X111318296Y-104817700D01*
X111251257Y-104798015D01*
X111230615Y-104781381D01*
X110837588Y-104388355D01*
X110837586Y-104388352D01*
X110718715Y-104269481D01*
X110718707Y-104269475D01*
X110615872Y-104210104D01*
X110615871Y-104210103D01*
X110615871Y-104210104D01*
X110581783Y-104190423D01*
X110575715Y-104188797D01*
X110429055Y-104149499D01*
X110270941Y-104149499D01*
X110263345Y-104149499D01*
X110263329Y-104149500D01*
X109458291Y-104149500D01*
X109391252Y-104129815D01*
X109345497Y-104077011D01*
X109335553Y-104007853D01*
X109357973Y-103952615D01*
X109405048Y-103887820D01*
X109405047Y-103887820D01*
X109405051Y-103887816D01*
X109501557Y-103698412D01*
X109567246Y-103496243D01*
X109600500Y-103286287D01*
X109600500Y-102573713D01*
X109567246Y-102363757D01*
X109501557Y-102161588D01*
X109405051Y-101972184D01*
X109405049Y-101972181D01*
X109405048Y-101972179D01*
X109280109Y-101800213D01*
X109129786Y-101649890D01*
X108957820Y-101524951D01*
X108768414Y-101428444D01*
X108768413Y-101428443D01*
X108768412Y-101428443D01*
X108566243Y-101362754D01*
X108566241Y-101362753D01*
X108566240Y-101362753D01*
X108401177Y-101336610D01*
X108356287Y-101329500D01*
X108143713Y-101329500D01*
X108098823Y-101336610D01*
X107933760Y-101362753D01*
X107731585Y-101428444D01*
X107542179Y-101524951D01*
X107370215Y-101649889D01*
X107231035Y-101789069D01*
X107169712Y-101822553D01*
X107100020Y-101817569D01*
X107044087Y-101775697D01*
X107037815Y-101766484D01*
X106942315Y-101611654D01*
X106818345Y-101487684D01*
X106669124Y-101395643D01*
X106669119Y-101395641D01*
X106502697Y-101340494D01*
X106502690Y-101340493D01*
X106399986Y-101330000D01*
X106000000Y-101330000D01*
X106000000Y-102381517D01*
X105981591Y-102370889D01*
X105828991Y-102330000D01*
X105671009Y-102330000D01*
X105518409Y-102370889D01*
X105500000Y-102381517D01*
X105500000Y-101330000D01*
X105100028Y-101330000D01*
X105100012Y-101330001D01*
X104997302Y-101340494D01*
X104830880Y-101395641D01*
X104830875Y-101395643D01*
X104681654Y-101487684D01*
X104557684Y-101611654D01*
X104465643Y-101760875D01*
X104465641Y-101760880D01*
X104410494Y-101927302D01*
X104410493Y-101927309D01*
X104400000Y-102030013D01*
X104400000Y-102680000D01*
X105201518Y-102680000D01*
X105190889Y-102698409D01*
X105150000Y-102851009D01*
X105150000Y-103008991D01*
X105190889Y-103161591D01*
X105201518Y-103180000D01*
X104400001Y-103180000D01*
X104400001Y-103829986D01*
X104410494Y-103932698D01*
X104428321Y-103986497D01*
X104430723Y-104056325D01*
X104394991Y-104116367D01*
X104332470Y-104147559D01*
X104310615Y-104149500D01*
X99620098Y-104149500D01*
X99553059Y-104129815D01*
X99532417Y-104113181D01*
X98875352Y-103456116D01*
X98841867Y-103394793D01*
X98840560Y-103349042D01*
X98850500Y-103286287D01*
X98850500Y-102573713D01*
X98817246Y-102363757D01*
X98751557Y-102161588D01*
X98655051Y-101972184D01*
X98655049Y-101972181D01*
X98655048Y-101972179D01*
X98530109Y-101800213D01*
X98379786Y-101649890D01*
X98207820Y-101524951D01*
X98018414Y-101428444D01*
X98018413Y-101428443D01*
X98018412Y-101428443D01*
X97816243Y-101362754D01*
X97816241Y-101362753D01*
X97816240Y-101362753D01*
X97651177Y-101336610D01*
X97606287Y-101329500D01*
X97393713Y-101329500D01*
X97348823Y-101336610D01*
X97183760Y-101362753D01*
X96981585Y-101428444D01*
X96792179Y-101524951D01*
X96620215Y-101649889D01*
X96481035Y-101789069D01*
X96419712Y-101822553D01*
X96350020Y-101817569D01*
X96294087Y-101775697D01*
X96287815Y-101766484D01*
X96192315Y-101611654D01*
X96068345Y-101487684D01*
X95919124Y-101395643D01*
X95919119Y-101395641D01*
X95752697Y-101340494D01*
X95752690Y-101340493D01*
X95649986Y-101330000D01*
X95250000Y-101330000D01*
X95250000Y-102381517D01*
X95231591Y-102370889D01*
X95078991Y-102330000D01*
X94921009Y-102330000D01*
X94768409Y-102370889D01*
X94750000Y-102381517D01*
X94750000Y-101330000D01*
X94350028Y-101330000D01*
X94350012Y-101330001D01*
X94247302Y-101340494D01*
X94080880Y-101395641D01*
X94080875Y-101395643D01*
X93931654Y-101487684D01*
X93807684Y-101611654D01*
X93715643Y-101760875D01*
X93715641Y-101760880D01*
X93660494Y-101927302D01*
X93660493Y-101927309D01*
X93650000Y-102030013D01*
X93650000Y-102680000D01*
X94451518Y-102680000D01*
X94440889Y-102698409D01*
X94400000Y-102851009D01*
X94400000Y-103008991D01*
X94440889Y-103161591D01*
X94451518Y-103180000D01*
X93650001Y-103180000D01*
X93650001Y-103829986D01*
X93660494Y-103932697D01*
X93715641Y-104099119D01*
X93715643Y-104099124D01*
X93807684Y-104248345D01*
X93931654Y-104372315D01*
X94080875Y-104464356D01*
X94080880Y-104464358D01*
X94247302Y-104519505D01*
X94247309Y-104519506D01*
X94350019Y-104529999D01*
X94749999Y-104529999D01*
X94750000Y-104529998D01*
X94750000Y-103478482D01*
X94768409Y-103489111D01*
X94921009Y-103530000D01*
X95078991Y-103530000D01*
X95231591Y-103489111D01*
X95250000Y-103478482D01*
X95250000Y-104529999D01*
X95649972Y-104529999D01*
X95649986Y-104529998D01*
X95752697Y-104519505D01*
X95919119Y-104464358D01*
X95919124Y-104464356D01*
X96068345Y-104372315D01*
X96192317Y-104248343D01*
X96287815Y-104093516D01*
X96339763Y-104046791D01*
X96408725Y-104035568D01*
X96472808Y-104063412D01*
X96481035Y-104070931D01*
X96620213Y-104210109D01*
X96792179Y-104335048D01*
X96792181Y-104335049D01*
X96792184Y-104335051D01*
X96981588Y-104431557D01*
X97183757Y-104497246D01*
X97393713Y-104530500D01*
X97393714Y-104530500D01*
X97606286Y-104530500D01*
X97606287Y-104530500D01*
X97816243Y-104497246D01*
X98018412Y-104431557D01*
X98026850Y-104427257D01*
X98095516Y-104414361D01*
X98160257Y-104440636D01*
X98170825Y-104450061D01*
X98951284Y-105230520D01*
X98951286Y-105230521D01*
X98951290Y-105230524D01*
X99086023Y-105308311D01*
X99088216Y-105309577D01*
X99240943Y-105350501D01*
X99240945Y-105350501D01*
X99406654Y-105350501D01*
X99406670Y-105350500D01*
X106401928Y-105350500D01*
X106468967Y-105370185D01*
X106514722Y-105422989D01*
X106524666Y-105492147D01*
X106518970Y-105515454D01*
X106464630Y-105670750D01*
X106454837Y-105757667D01*
X106427770Y-105822081D01*
X106419298Y-105831464D01*
X105137584Y-107113181D01*
X105076261Y-107146666D01*
X105049903Y-107149500D01*
X94050097Y-107149500D01*
X93983058Y-107129815D01*
X93962416Y-107113181D01*
X89083497Y-102234262D01*
X89050012Y-102172939D01*
X89054996Y-102103247D01*
X89070860Y-102073696D01*
X89096541Y-102038348D01*
X89155051Y-101957816D01*
X89251557Y-101768412D01*
X89317246Y-101566243D01*
X89350500Y-101356287D01*
X89350500Y-101143713D01*
X89343918Y-101102155D01*
X115214000Y-101102155D01*
X115214000Y-102300000D01*
X116214000Y-102300000D01*
X116714000Y-102300000D01*
X117714000Y-102300000D01*
X117714000Y-101102172D01*
X117713999Y-101102155D01*
X117707598Y-101042627D01*
X117707596Y-101042620D01*
X117657354Y-100907913D01*
X117657350Y-100907906D01*
X117571190Y-100792812D01*
X117571187Y-100792809D01*
X117456093Y-100706649D01*
X117456086Y-100706645D01*
X117321379Y-100656403D01*
X117321372Y-100656401D01*
X117261844Y-100650000D01*
X116714000Y-100650000D01*
X116714000Y-102300000D01*
X116214000Y-102300000D01*
X116214000Y-100650000D01*
X115666155Y-100650000D01*
X115606627Y-100656401D01*
X115606620Y-100656403D01*
X115471913Y-100706645D01*
X115471906Y-100706649D01*
X115356812Y-100792809D01*
X115356809Y-100792812D01*
X115270649Y-100907906D01*
X115270645Y-100907913D01*
X115220403Y-101042620D01*
X115220401Y-101042627D01*
X115214000Y-101102155D01*
X89343918Y-101102155D01*
X89317246Y-100933757D01*
X89251557Y-100731588D01*
X89155051Y-100542184D01*
X89155049Y-100542181D01*
X89155048Y-100542179D01*
X89030109Y-100370213D01*
X88879786Y-100219890D01*
X88707820Y-100094951D01*
X88518414Y-99998444D01*
X88518413Y-99998443D01*
X88518412Y-99998443D01*
X88316243Y-99932754D01*
X88316241Y-99932753D01*
X88316240Y-99932753D01*
X88117424Y-99901264D01*
X88106287Y-99899500D01*
X87393713Y-99899500D01*
X87382576Y-99901264D01*
X87183760Y-99932753D01*
X86981585Y-99998444D01*
X86792179Y-100094951D01*
X86620213Y-100219890D01*
X86469890Y-100370213D01*
X86344951Y-100542179D01*
X86248444Y-100731585D01*
X86182753Y-100933760D01*
X86149500Y-101143713D01*
X81667384Y-101143713D01*
X81643402Y-100992299D01*
X81589873Y-100827555D01*
X81511232Y-100673212D01*
X81409414Y-100533072D01*
X81286928Y-100410586D01*
X81146788Y-100308768D01*
X80992445Y-100230127D01*
X80827701Y-100176598D01*
X80827699Y-100176597D01*
X80827698Y-100176597D01*
X80696271Y-100155781D01*
X80656611Y-100149500D01*
X80483389Y-100149500D01*
X80443728Y-100155781D01*
X80312302Y-100176597D01*
X80147552Y-100230128D01*
X79993211Y-100308768D01*
X79913256Y-100366859D01*
X79853072Y-100410586D01*
X79853070Y-100410588D01*
X79853069Y-100410588D01*
X79730588Y-100533069D01*
X79730588Y-100533070D01*
X79730586Y-100533072D01*
X79713721Y-100556285D01*
X79628768Y-100673211D01*
X79550128Y-100827552D01*
X79496597Y-100992302D01*
X79469500Y-101163389D01*
X73750500Y-101163389D01*
X73750500Y-95249992D01*
X76474671Y-95249992D01*
X76474671Y-95250007D01*
X76493964Y-95544363D01*
X76493965Y-95544373D01*
X76493966Y-95544380D01*
X76549531Y-95823730D01*
X76551518Y-95833716D01*
X76551521Y-95833730D01*
X76646349Y-96113080D01*
X76776825Y-96377660D01*
X76776829Y-96377667D01*
X76940725Y-96622955D01*
X77135241Y-96844758D01*
X77357044Y-97039274D01*
X77587366Y-97193170D01*
X77602335Y-97203172D01*
X77866923Y-97333652D01*
X78146278Y-97428481D01*
X78435620Y-97486034D01*
X78463888Y-97487886D01*
X78729993Y-97505329D01*
X78730000Y-97505329D01*
X78730007Y-97505329D01*
X78965675Y-97489881D01*
X79024380Y-97486034D01*
X79313722Y-97428481D01*
X79593077Y-97333652D01*
X79857665Y-97203172D01*
X80102957Y-97039273D01*
X80324758Y-96844758D01*
X80519273Y-96622957D01*
X80683172Y-96377665D01*
X80813652Y-96113077D01*
X80908481Y-95833722D01*
X80942362Y-95663389D01*
X93899500Y-95663389D01*
X93899500Y-95836611D01*
X93903823Y-95863906D01*
X93919547Y-95963187D01*
X93926598Y-96007701D01*
X93980127Y-96172445D01*
X94058768Y-96326788D01*
X94160586Y-96466928D01*
X94283072Y-96589414D01*
X94423212Y-96691232D01*
X94577555Y-96769873D01*
X94742299Y-96823402D01*
X94913389Y-96850500D01*
X94913390Y-96850500D01*
X95086610Y-96850500D01*
X95086611Y-96850500D01*
X95257701Y-96823402D01*
X95422445Y-96769873D01*
X95576788Y-96691232D01*
X95716928Y-96589414D01*
X95839414Y-96466928D01*
X95941232Y-96326788D01*
X96019873Y-96172445D01*
X96073402Y-96007701D01*
X96100500Y-95836611D01*
X96100500Y-95663389D01*
X96399500Y-95663389D01*
X96399500Y-95836611D01*
X96403823Y-95863906D01*
X96419547Y-95963187D01*
X96426598Y-96007701D01*
X96480127Y-96172445D01*
X96558768Y-96326788D01*
X96660586Y-96466928D01*
X96783072Y-96589414D01*
X96923212Y-96691232D01*
X97077555Y-96769873D01*
X97242299Y-96823402D01*
X97413389Y-96850500D01*
X97413390Y-96850500D01*
X97586610Y-96850500D01*
X97586611Y-96850500D01*
X97757701Y-96823402D01*
X97922445Y-96769873D01*
X98076788Y-96691232D01*
X98216928Y-96589414D01*
X98339414Y-96466928D01*
X98441232Y-96326788D01*
X98519873Y-96172445D01*
X98573402Y-96007701D01*
X98600500Y-95836611D01*
X98600500Y-95663389D01*
X104649500Y-95663389D01*
X104649500Y-95836611D01*
X104653823Y-95863906D01*
X104669547Y-95963187D01*
X104676598Y-96007701D01*
X104730127Y-96172445D01*
X104808768Y-96326788D01*
X104910586Y-96466928D01*
X105033072Y-96589414D01*
X105173212Y-96691232D01*
X105327555Y-96769873D01*
X105492299Y-96823402D01*
X105663389Y-96850500D01*
X105663390Y-96850500D01*
X105836610Y-96850500D01*
X105836611Y-96850500D01*
X106007701Y-96823402D01*
X106172445Y-96769873D01*
X106326788Y-96691232D01*
X106466928Y-96589414D01*
X106589414Y-96466928D01*
X106691232Y-96326788D01*
X106769873Y-96172445D01*
X106823402Y-96007701D01*
X106850500Y-95836611D01*
X106850500Y-95663389D01*
X107149500Y-95663389D01*
X107149500Y-95836611D01*
X107153823Y-95863906D01*
X107169547Y-95963187D01*
X107176598Y-96007701D01*
X107230127Y-96172445D01*
X107308768Y-96326788D01*
X107410586Y-96466928D01*
X107533072Y-96589414D01*
X107673212Y-96691232D01*
X107827555Y-96769873D01*
X107992299Y-96823402D01*
X108163389Y-96850500D01*
X108163390Y-96850500D01*
X108336610Y-96850500D01*
X108336611Y-96850500D01*
X108507701Y-96823402D01*
X108672445Y-96769873D01*
X108826788Y-96691232D01*
X108849149Y-96674986D01*
X112025001Y-96674986D01*
X112035494Y-96777697D01*
X112090641Y-96944119D01*
X112090643Y-96944124D01*
X112182684Y-97093345D01*
X112306654Y-97217315D01*
X112455875Y-97309356D01*
X112455880Y-97309358D01*
X112622302Y-97364505D01*
X112622309Y-97364506D01*
X112725019Y-97374999D01*
X112999999Y-97374999D01*
X113000000Y-97374998D01*
X113000000Y-96537500D01*
X112025001Y-96537500D01*
X112025001Y-96674986D01*
X108849149Y-96674986D01*
X108966928Y-96589414D01*
X109089414Y-96466928D01*
X109191232Y-96326788D01*
X109269873Y-96172445D01*
X109323402Y-96007701D01*
X109350500Y-95836611D01*
X109350500Y-95663389D01*
X109323402Y-95492299D01*
X109269873Y-95327555D01*
X109191232Y-95173212D01*
X109089414Y-95033072D01*
X108966928Y-94910586D01*
X108826788Y-94808768D01*
X108672445Y-94730127D01*
X108507701Y-94676598D01*
X108507699Y-94676597D01*
X108507698Y-94676597D01*
X108376271Y-94655781D01*
X108336611Y-94649500D01*
X108163389Y-94649500D01*
X108123728Y-94655781D01*
X107992302Y-94676597D01*
X107827552Y-94730128D01*
X107673211Y-94808768D01*
X107634212Y-94837103D01*
X107533072Y-94910586D01*
X107533070Y-94910588D01*
X107533069Y-94910588D01*
X107410588Y-95033069D01*
X107410588Y-95033070D01*
X107410586Y-95033072D01*
X107403708Y-95042539D01*
X107308768Y-95173211D01*
X107230128Y-95327552D01*
X107176597Y-95492302D01*
X107163420Y-95575499D01*
X107149500Y-95663389D01*
X106850500Y-95663389D01*
X106823402Y-95492299D01*
X106769873Y-95327555D01*
X106691232Y-95173212D01*
X106589414Y-95033072D01*
X106466928Y-94910586D01*
X106326788Y-94808768D01*
X106172445Y-94730127D01*
X106007701Y-94676598D01*
X106007699Y-94676597D01*
X106007698Y-94676597D01*
X105876271Y-94655781D01*
X105836611Y-94649500D01*
X105663389Y-94649500D01*
X105623728Y-94655781D01*
X105492302Y-94676597D01*
X105327552Y-94730128D01*
X105173211Y-94808768D01*
X105134212Y-94837103D01*
X105033072Y-94910586D01*
X105033070Y-94910588D01*
X105033069Y-94910588D01*
X104910588Y-95033069D01*
X104910588Y-95033070D01*
X104910586Y-95033072D01*
X104903708Y-95042539D01*
X104808768Y-95173211D01*
X104730128Y-95327552D01*
X104676597Y-95492302D01*
X104663420Y-95575499D01*
X104649500Y-95663389D01*
X98600500Y-95663389D01*
X98573402Y-95492299D01*
X98519873Y-95327555D01*
X98441232Y-95173212D01*
X98339414Y-95033072D01*
X98216928Y-94910586D01*
X98076788Y-94808768D01*
X97922445Y-94730127D01*
X97757701Y-94676598D01*
X97757699Y-94676597D01*
X97757698Y-94676597D01*
X97626271Y-94655781D01*
X97586611Y-94649500D01*
X97413389Y-94649500D01*
X97373728Y-94655781D01*
X97242302Y-94676597D01*
X97077552Y-94730128D01*
X96923211Y-94808768D01*
X96884212Y-94837103D01*
X96783072Y-94910586D01*
X96783070Y-94910588D01*
X96783069Y-94910588D01*
X96660588Y-95033069D01*
X96660588Y-95033070D01*
X96660586Y-95033072D01*
X96653708Y-95042539D01*
X96558768Y-95173211D01*
X96480128Y-95327552D01*
X96426597Y-95492302D01*
X96413420Y-95575499D01*
X96399500Y-95663389D01*
X96100500Y-95663389D01*
X96073402Y-95492299D01*
X96019873Y-95327555D01*
X95941232Y-95173212D01*
X95839414Y-95033072D01*
X95716928Y-94910586D01*
X95576788Y-94808768D01*
X95422445Y-94730127D01*
X95257701Y-94676598D01*
X95257699Y-94676597D01*
X95257698Y-94676597D01*
X95126271Y-94655781D01*
X95086611Y-94649500D01*
X94913389Y-94649500D01*
X94873728Y-94655781D01*
X94742302Y-94676597D01*
X94577552Y-94730128D01*
X94423211Y-94808768D01*
X94384212Y-94837103D01*
X94283072Y-94910586D01*
X94283070Y-94910588D01*
X94283069Y-94910588D01*
X94160588Y-95033069D01*
X94160588Y-95033070D01*
X94160586Y-95033072D01*
X94153708Y-95042539D01*
X94058768Y-95173211D01*
X93980128Y-95327552D01*
X93926597Y-95492302D01*
X93913420Y-95575499D01*
X93899500Y-95663389D01*
X80942362Y-95663389D01*
X80966034Y-95544380D01*
X80978393Y-95355826D01*
X80985329Y-95250007D01*
X80985329Y-95249992D01*
X80966035Y-94955636D01*
X80966034Y-94955620D01*
X80908481Y-94666278D01*
X80813652Y-94386923D01*
X80683172Y-94122336D01*
X80676490Y-94112336D01*
X80595082Y-93990500D01*
X80519273Y-93877043D01*
X80473618Y-93824983D01*
X112024500Y-93824983D01*
X112024500Y-94600001D01*
X112024501Y-94600019D01*
X112035000Y-94702796D01*
X112035001Y-94702799D01*
X112090185Y-94869331D01*
X112090187Y-94869336D01*
X112117368Y-94913403D01*
X112182288Y-95018656D01*
X112306344Y-95142712D01*
X112309628Y-95144737D01*
X112309653Y-95144753D01*
X112311445Y-95146746D01*
X112312011Y-95147193D01*
X112311934Y-95147289D01*
X112356379Y-95196699D01*
X112367603Y-95265661D01*
X112339761Y-95329744D01*
X112309665Y-95355826D01*
X112306660Y-95357679D01*
X112306655Y-95357683D01*
X112182684Y-95481654D01*
X112090643Y-95630875D01*
X112090641Y-95630880D01*
X112035494Y-95797302D01*
X112035493Y-95797309D01*
X112025000Y-95900013D01*
X112025000Y-96037500D01*
X113126000Y-96037500D01*
X113193039Y-96057185D01*
X113238794Y-96109989D01*
X113250000Y-96161500D01*
X113250000Y-96287500D01*
X113376000Y-96287500D01*
X113443039Y-96307185D01*
X113488794Y-96359989D01*
X113500000Y-96411500D01*
X113500000Y-97374999D01*
X113774972Y-97374999D01*
X113774986Y-97374998D01*
X113877697Y-97364505D01*
X114044119Y-97309358D01*
X114044124Y-97309356D01*
X114193345Y-97217315D01*
X114317315Y-97093345D01*
X114409356Y-96944124D01*
X114409358Y-96944119D01*
X114464505Y-96777697D01*
X114464506Y-96777690D01*
X114474999Y-96674986D01*
X114474999Y-96586097D01*
X114494683Y-96519058D01*
X114547486Y-96473302D01*
X114616645Y-96463358D01*
X114680201Y-96492382D01*
X114686680Y-96498415D01*
X114852639Y-96664374D01*
X114852649Y-96664385D01*
X114856979Y-96668715D01*
X114856980Y-96668716D01*
X114968784Y-96780520D01*
X114968786Y-96780521D01*
X114968787Y-96780522D01*
X115037498Y-96820191D01*
X115085715Y-96870757D01*
X115099500Y-96927579D01*
X115099500Y-99397870D01*
X115099501Y-99397876D01*
X115105908Y-99457483D01*
X115156202Y-99592328D01*
X115156206Y-99592335D01*
X115242452Y-99707544D01*
X115242455Y-99707547D01*
X115357664Y-99793793D01*
X115357671Y-99793797D01*
X115492517Y-99844091D01*
X115492516Y-99844091D01*
X115499444Y-99844835D01*
X115552127Y-99850500D01*
X121947872Y-99850499D01*
X122007483Y-99844091D01*
X122142331Y-99793796D01*
X122257546Y-99707546D01*
X122343796Y-99592331D01*
X122394091Y-99457483D01*
X122400500Y-99397873D01*
X122400499Y-97534365D01*
X122420184Y-97467327D01*
X122472987Y-97421572D01*
X122542146Y-97411628D01*
X122565454Y-97417324D01*
X122656819Y-97449294D01*
X122656824Y-97449295D01*
X122836070Y-97469491D01*
X122836074Y-97469491D01*
X122836078Y-97469491D01*
X123015323Y-97449295D01*
X123015326Y-97449294D01*
X123015329Y-97449294D01*
X123185596Y-97389715D01*
X123338336Y-97293742D01*
X123465890Y-97166188D01*
X123561863Y-97013448D01*
X123621442Y-96843181D01*
X123623671Y-96823402D01*
X123641639Y-96663929D01*
X123641639Y-96663922D01*
X123621443Y-96484676D01*
X123621442Y-96484671D01*
X123585286Y-96381344D01*
X123561863Y-96314404D01*
X123552812Y-96300000D01*
X123465889Y-96161663D01*
X123338336Y-96034110D01*
X123185595Y-95938136D01*
X123015323Y-95878556D01*
X122928405Y-95868763D01*
X122863991Y-95841696D01*
X122854608Y-95833224D01*
X122840865Y-95819481D01*
X122840864Y-95819480D01*
X122754052Y-95769360D01*
X122754052Y-95769359D01*
X122754048Y-95769358D01*
X122703933Y-95740423D01*
X122551205Y-95699499D01*
X122551202Y-95699499D01*
X122524499Y-95699499D01*
X122457460Y-95679814D01*
X122411705Y-95627010D01*
X122400499Y-95575499D01*
X122400499Y-93202129D01*
X122400498Y-93202123D01*
X122400497Y-93202116D01*
X122394091Y-93142517D01*
X122391287Y-93135000D01*
X122343797Y-93007671D01*
X122343793Y-93007664D01*
X122257547Y-92892455D01*
X122257544Y-92892452D01*
X122142335Y-92806206D01*
X122142328Y-92806202D01*
X122007482Y-92755908D01*
X122007483Y-92755908D01*
X121947883Y-92749501D01*
X121947881Y-92749500D01*
X121947873Y-92749500D01*
X121947864Y-92749500D01*
X115552129Y-92749500D01*
X115552123Y-92749501D01*
X115492516Y-92755908D01*
X115357671Y-92806202D01*
X115357664Y-92806206D01*
X115242455Y-92892452D01*
X115242452Y-92892455D01*
X115156206Y-93007664D01*
X115156202Y-93007671D01*
X115105908Y-93142517D01*
X115099501Y-93202116D01*
X115099501Y-93202123D01*
X115099500Y-93202135D01*
X115099500Y-94913403D01*
X115079815Y-94980442D01*
X115027011Y-95026197D01*
X114957853Y-95036141D01*
X114894297Y-95007116D01*
X114887819Y-95001084D01*
X114511818Y-94625083D01*
X114478333Y-94563760D01*
X114475499Y-94537402D01*
X114475499Y-93824998D01*
X114475498Y-93824981D01*
X114464999Y-93722203D01*
X114464998Y-93722200D01*
X114442810Y-93655241D01*
X114409814Y-93555666D01*
X114317712Y-93406344D01*
X114193656Y-93282288D01*
X114044334Y-93190186D01*
X113877797Y-93135001D01*
X113877795Y-93135000D01*
X113775010Y-93124500D01*
X112724998Y-93124500D01*
X112724980Y-93124501D01*
X112622203Y-93135000D01*
X112622200Y-93135001D01*
X112455668Y-93190185D01*
X112455663Y-93190187D01*
X112306342Y-93282289D01*
X112182289Y-93406342D01*
X112090187Y-93555663D01*
X112090186Y-93555665D01*
X112090186Y-93555666D01*
X112035001Y-93722203D01*
X112035001Y-93722204D01*
X112035000Y-93722204D01*
X112024500Y-93824983D01*
X80473618Y-93824983D01*
X80473616Y-93824981D01*
X80324758Y-93655241D01*
X80102955Y-93460725D01*
X79857667Y-93296829D01*
X79857660Y-93296825D01*
X79593080Y-93166349D01*
X79313730Y-93071521D01*
X79313724Y-93071519D01*
X79313722Y-93071519D01*
X79024380Y-93013966D01*
X79024373Y-93013965D01*
X79024363Y-93013964D01*
X78730007Y-92994671D01*
X78729993Y-92994671D01*
X78435636Y-93013964D01*
X78435624Y-93013965D01*
X78435620Y-93013966D01*
X78435612Y-93013967D01*
X78435609Y-93013968D01*
X78146283Y-93071518D01*
X78146269Y-93071521D01*
X77866919Y-93166349D01*
X77602334Y-93296828D01*
X77357041Y-93460728D01*
X77135241Y-93655241D01*
X76940728Y-93877041D01*
X76776828Y-94122334D01*
X76646349Y-94386919D01*
X76551521Y-94666269D01*
X76551518Y-94666283D01*
X76493968Y-94955609D01*
X76493964Y-94955636D01*
X76474671Y-95249992D01*
X73750500Y-95249992D01*
X73750500Y-91374500D01*
X73770185Y-91307461D01*
X73822989Y-91261706D01*
X73874500Y-91250500D01*
X212625500Y-91250500D01*
X212692539Y-91270185D01*
G37*
%TD.AperFunction*%
%TD*%
M02*
