M48
; DRILL file {KiCad 8.0.9-8.0.9-0~ubuntu25.04.1} date 2025-05-02T04:19:04-0700
; FORMAT={-:-/ absolute / inch / decimal}
; #@! TF.CreationDate,2025-05-02T04:19:04-07:00
; #@! TF.GenerationSoftware,Kicad,Pcbnew,8.0.9-8.0.9-0~ubuntu25.04.1
; #@! TF.FileFunction,Plated,1,2,PTH
FMAT,2
INCH
; #@! TA.AperFunction,Plated,PTH,ViaDrill
T1C0.0118
; #@! TA.AperFunction,Plated,PTH,ComponentDrill
T2C0.0472
%
G90
G05
T1
X3.568Y-4.1879
X3.6246Y-4.2668
X3.6313Y-4.3256
X3.6319Y-4.1437
X3.6386Y-4.295
X3.7788Y-4.5881
X3.8102Y-4.5858
X3.8128Y-4.621
X3.8461Y-4.5875
X3.8882Y-4.3906
X3.9639Y-4.2815
X3.9969Y-4.4163
X4.0132Y-4.4796
X4.2224Y-4.1673
X4.2638Y-4.4646
X4.276Y-4.3352
X4.3729Y-4.3334
X4.4108Y-4.336
X4.4694Y-4.5392
X4.49Y-4.5154
X4.499Y-4.125
X4.5177Y-4.2815
X4.5206Y-4.5227
X4.6766Y-4.3425
X4.6831Y-4.2815
X4.7093Y-4.299
X4.7981Y-4.2101
X4.8018Y-4.1788
X4.8031Y-4.3189
X4.8361Y-3.8057
X4.876Y-3.8938
X4.9085Y-3.8946
X5.9715Y-4.7362
X6.4232Y-4.7067
T2
X3.4547Y-3.9862
X3.4547Y-4.0846
X3.4547Y-4.1831
X3.4602Y-4.4291
X3.4602Y-4.5276
X3.4602Y-4.626
X3.4602Y-4.7244
X3.7402Y-4.0524
X3.8386Y-4.0524
X4.1634Y-4.0524
X4.2618Y-4.0524
M30
