%TF.GenerationSoftware,KiCad,Pcbnew,8.0.9-8.0.9-0~ubuntu25.04.1*%
%TF.CreationDate,2025-04-13T18:27:55-07:00*%
%TF.ProjectId,TSSI,54535349-2e6b-4696-9361-645f70636258,rev?*%
%TF.SameCoordinates,Original*%
%TF.FileFunction,Legend,Top*%
%TF.FilePolarity,Positive*%
%FSLAX46Y46*%
G04 Gerber Fmt 4.6, Leading zero omitted, Abs format (unit mm)*
G04 Created by KiCad (PCBNEW 8.0.9-8.0.9-0~ubuntu25.04.1) date 2025-04-13 18:27:55*
%MOMM*%
%LPD*%
G01*
G04 APERTURE LIST*
%ADD10C,0.125000*%
%ADD11C,0.100000*%
%ADD12C,0.150000*%
%ADD13C,0.254000*%
%ADD14C,0.120000*%
%ADD15C,0.127000*%
%ADD16C,0.200000*%
%ADD17C,0.152400*%
%ADD18C,0.000000*%
%ADD19C,0.198490*%
G04 APERTURE END LIST*
D10*
X92526815Y-94939479D02*
X92145862Y-95206146D01*
X92526815Y-95396622D02*
X91726815Y-95396622D01*
X91726815Y-95396622D02*
X91726815Y-95091860D01*
X91726815Y-95091860D02*
X91764910Y-95015670D01*
X91764910Y-95015670D02*
X91803005Y-94977575D01*
X91803005Y-94977575D02*
X91879196Y-94939479D01*
X91879196Y-94939479D02*
X91993481Y-94939479D01*
X91993481Y-94939479D02*
X92069672Y-94977575D01*
X92069672Y-94977575D02*
X92107767Y-95015670D01*
X92107767Y-95015670D02*
X92145862Y-95091860D01*
X92145862Y-95091860D02*
X92145862Y-95396622D01*
X91726815Y-94710908D02*
X91726815Y-94253765D01*
X92526815Y-94482337D02*
X91726815Y-94482337D01*
X92526815Y-93987098D02*
X91726815Y-93987098D01*
X91726815Y-93987098D02*
X92298243Y-93720432D01*
X92298243Y-93720432D02*
X91726815Y-93453765D01*
X91726815Y-93453765D02*
X92526815Y-93453765D01*
X92526815Y-92691860D02*
X92526815Y-93072812D01*
X92526815Y-93072812D02*
X91726815Y-93072812D01*
D11*
X147239205Y-93727847D02*
X147353491Y-93765942D01*
X147353491Y-93765942D02*
X147391586Y-93804038D01*
X147391586Y-93804038D02*
X147429682Y-93880228D01*
X147429682Y-93880228D02*
X147429682Y-93994514D01*
X147429682Y-93994514D02*
X147391586Y-94070704D01*
X147391586Y-94070704D02*
X147353491Y-94108800D01*
X147353491Y-94108800D02*
X147277301Y-94146895D01*
X147277301Y-94146895D02*
X146972539Y-94146895D01*
X146972539Y-94146895D02*
X146972539Y-93346895D01*
X146972539Y-93346895D02*
X147239205Y-93346895D01*
X147239205Y-93346895D02*
X147315396Y-93384990D01*
X147315396Y-93384990D02*
X147353491Y-93423085D01*
X147353491Y-93423085D02*
X147391586Y-93499276D01*
X147391586Y-93499276D02*
X147391586Y-93575466D01*
X147391586Y-93575466D02*
X147353491Y-93651657D01*
X147353491Y-93651657D02*
X147315396Y-93689752D01*
X147315396Y-93689752D02*
X147239205Y-93727847D01*
X147239205Y-93727847D02*
X146972539Y-93727847D01*
X147696348Y-93613561D02*
X147886824Y-94146895D01*
X148077301Y-93613561D02*
X147886824Y-94146895D01*
X147886824Y-94146895D02*
X147810634Y-94337371D01*
X147810634Y-94337371D02*
X147772539Y-94375466D01*
X147772539Y-94375466D02*
X147696348Y-94413561D01*
X148991587Y-93727847D02*
X149258253Y-93727847D01*
X149372539Y-94146895D02*
X148991587Y-94146895D01*
X148991587Y-94146895D02*
X148991587Y-93346895D01*
X148991587Y-93346895D02*
X149372539Y-93346895D01*
X149601111Y-93613561D02*
X149905873Y-93613561D01*
X149715397Y-93346895D02*
X149715397Y-94032609D01*
X149715397Y-94032609D02*
X149753492Y-94108800D01*
X149753492Y-94108800D02*
X149829682Y-94146895D01*
X149829682Y-94146895D02*
X149905873Y-94146895D01*
X150172540Y-94146895D02*
X150172540Y-93346895D01*
X150515397Y-94146895D02*
X150515397Y-93727847D01*
X150515397Y-93727847D02*
X150477302Y-93651657D01*
X150477302Y-93651657D02*
X150401111Y-93613561D01*
X150401111Y-93613561D02*
X150286825Y-93613561D01*
X150286825Y-93613561D02*
X150210635Y-93651657D01*
X150210635Y-93651657D02*
X150172540Y-93689752D01*
X151239207Y-94146895D02*
X151239207Y-93727847D01*
X151239207Y-93727847D02*
X151201112Y-93651657D01*
X151201112Y-93651657D02*
X151124921Y-93613561D01*
X151124921Y-93613561D02*
X150972540Y-93613561D01*
X150972540Y-93613561D02*
X150896350Y-93651657D01*
X151239207Y-94108800D02*
X151163016Y-94146895D01*
X151163016Y-94146895D02*
X150972540Y-94146895D01*
X150972540Y-94146895D02*
X150896350Y-94108800D01*
X150896350Y-94108800D02*
X150858254Y-94032609D01*
X150858254Y-94032609D02*
X150858254Y-93956419D01*
X150858254Y-93956419D02*
X150896350Y-93880228D01*
X150896350Y-93880228D02*
X150972540Y-93842133D01*
X150972540Y-93842133D02*
X151163016Y-93842133D01*
X151163016Y-93842133D02*
X151239207Y-93804038D01*
X151620160Y-93613561D02*
X151620160Y-94146895D01*
X151620160Y-93689752D02*
X151658255Y-93651657D01*
X151658255Y-93651657D02*
X151734445Y-93613561D01*
X151734445Y-93613561D02*
X151848731Y-93613561D01*
X151848731Y-93613561D02*
X151924922Y-93651657D01*
X151924922Y-93651657D02*
X151963017Y-93727847D01*
X151963017Y-93727847D02*
X151963017Y-94146895D01*
X153182065Y-93346895D02*
X153182065Y-93918323D01*
X153182065Y-93918323D02*
X153143970Y-94032609D01*
X153143970Y-94032609D02*
X153067779Y-94108800D01*
X153067779Y-94108800D02*
X152953494Y-94146895D01*
X152953494Y-94146895D02*
X152877303Y-94146895D01*
X153905875Y-94146895D02*
X153905875Y-93727847D01*
X153905875Y-93727847D02*
X153867780Y-93651657D01*
X153867780Y-93651657D02*
X153791589Y-93613561D01*
X153791589Y-93613561D02*
X153639208Y-93613561D01*
X153639208Y-93613561D02*
X153563018Y-93651657D01*
X153905875Y-94108800D02*
X153829684Y-94146895D01*
X153829684Y-94146895D02*
X153639208Y-94146895D01*
X153639208Y-94146895D02*
X153563018Y-94108800D01*
X153563018Y-94108800D02*
X153524922Y-94032609D01*
X153524922Y-94032609D02*
X153524922Y-93956419D01*
X153524922Y-93956419D02*
X153563018Y-93880228D01*
X153563018Y-93880228D02*
X153639208Y-93842133D01*
X153639208Y-93842133D02*
X153829684Y-93842133D01*
X153829684Y-93842133D02*
X153905875Y-93804038D01*
X154286828Y-94146895D02*
X154286828Y-93613561D01*
X154286828Y-93689752D02*
X154324923Y-93651657D01*
X154324923Y-93651657D02*
X154401113Y-93613561D01*
X154401113Y-93613561D02*
X154515399Y-93613561D01*
X154515399Y-93613561D02*
X154591590Y-93651657D01*
X154591590Y-93651657D02*
X154629685Y-93727847D01*
X154629685Y-93727847D02*
X154629685Y-94146895D01*
X154629685Y-93727847D02*
X154667780Y-93651657D01*
X154667780Y-93651657D02*
X154743971Y-93613561D01*
X154743971Y-93613561D02*
X154858256Y-93613561D01*
X154858256Y-93613561D02*
X154934447Y-93651657D01*
X154934447Y-93651657D02*
X154972542Y-93727847D01*
X154972542Y-93727847D02*
X154972542Y-94146895D01*
X155658257Y-94108800D02*
X155582066Y-94146895D01*
X155582066Y-94146895D02*
X155429685Y-94146895D01*
X155429685Y-94146895D02*
X155353495Y-94108800D01*
X155353495Y-94108800D02*
X155315399Y-94032609D01*
X155315399Y-94032609D02*
X155315399Y-93727847D01*
X155315399Y-93727847D02*
X155353495Y-93651657D01*
X155353495Y-93651657D02*
X155429685Y-93613561D01*
X155429685Y-93613561D02*
X155582066Y-93613561D01*
X155582066Y-93613561D02*
X155658257Y-93651657D01*
X155658257Y-93651657D02*
X155696352Y-93727847D01*
X155696352Y-93727847D02*
X155696352Y-93804038D01*
X155696352Y-93804038D02*
X155315399Y-93880228D01*
X156001113Y-94108800D02*
X156077304Y-94146895D01*
X156077304Y-94146895D02*
X156229685Y-94146895D01*
X156229685Y-94146895D02*
X156305875Y-94108800D01*
X156305875Y-94108800D02*
X156343971Y-94032609D01*
X156343971Y-94032609D02*
X156343971Y-93994514D01*
X156343971Y-93994514D02*
X156305875Y-93918323D01*
X156305875Y-93918323D02*
X156229685Y-93880228D01*
X156229685Y-93880228D02*
X156115399Y-93880228D01*
X156115399Y-93880228D02*
X156039209Y-93842133D01*
X156039209Y-93842133D02*
X156001113Y-93765942D01*
X156001113Y-93765942D02*
X156001113Y-93727847D01*
X156001113Y-93727847D02*
X156039209Y-93651657D01*
X156039209Y-93651657D02*
X156115399Y-93613561D01*
X156115399Y-93613561D02*
X156229685Y-93613561D01*
X156229685Y-93613561D02*
X156305875Y-93651657D01*
X157296352Y-93842133D02*
X157905876Y-93842133D01*
X159163018Y-93727847D02*
X158896352Y-93727847D01*
X158896352Y-94146895D02*
X158896352Y-93346895D01*
X158896352Y-93346895D02*
X159277304Y-93346895D01*
X159696351Y-94146895D02*
X159620161Y-94108800D01*
X159620161Y-94108800D02*
X159582066Y-94070704D01*
X159582066Y-94070704D02*
X159543970Y-93994514D01*
X159543970Y-93994514D02*
X159543970Y-93765942D01*
X159543970Y-93765942D02*
X159582066Y-93689752D01*
X159582066Y-93689752D02*
X159620161Y-93651657D01*
X159620161Y-93651657D02*
X159696351Y-93613561D01*
X159696351Y-93613561D02*
X159810637Y-93613561D01*
X159810637Y-93613561D02*
X159886828Y-93651657D01*
X159886828Y-93651657D02*
X159924923Y-93689752D01*
X159924923Y-93689752D02*
X159963018Y-93765942D01*
X159963018Y-93765942D02*
X159963018Y-93994514D01*
X159963018Y-93994514D02*
X159924923Y-94070704D01*
X159924923Y-94070704D02*
X159886828Y-94108800D01*
X159886828Y-94108800D02*
X159810637Y-94146895D01*
X159810637Y-94146895D02*
X159696351Y-94146895D01*
X160305876Y-94146895D02*
X160305876Y-93613561D01*
X160305876Y-93765942D02*
X160343971Y-93689752D01*
X160343971Y-93689752D02*
X160382066Y-93651657D01*
X160382066Y-93651657D02*
X160458257Y-93613561D01*
X160458257Y-93613561D02*
X160534447Y-93613561D01*
X160801114Y-94146895D02*
X160801114Y-93613561D01*
X160801114Y-93689752D02*
X160839209Y-93651657D01*
X160839209Y-93651657D02*
X160915399Y-93613561D01*
X160915399Y-93613561D02*
X161029685Y-93613561D01*
X161029685Y-93613561D02*
X161105876Y-93651657D01*
X161105876Y-93651657D02*
X161143971Y-93727847D01*
X161143971Y-93727847D02*
X161143971Y-94146895D01*
X161143971Y-93727847D02*
X161182066Y-93651657D01*
X161182066Y-93651657D02*
X161258257Y-93613561D01*
X161258257Y-93613561D02*
X161372542Y-93613561D01*
X161372542Y-93613561D02*
X161448733Y-93651657D01*
X161448733Y-93651657D02*
X161486828Y-93727847D01*
X161486828Y-93727847D02*
X161486828Y-94146895D01*
X162210638Y-93613561D02*
X162210638Y-94146895D01*
X161867781Y-93613561D02*
X161867781Y-94032609D01*
X161867781Y-94032609D02*
X161905876Y-94108800D01*
X161905876Y-94108800D02*
X161982066Y-94146895D01*
X161982066Y-94146895D02*
X162096352Y-94146895D01*
X162096352Y-94146895D02*
X162172543Y-94108800D01*
X162172543Y-94108800D02*
X162210638Y-94070704D01*
X162705876Y-94146895D02*
X162629686Y-94108800D01*
X162629686Y-94108800D02*
X162591591Y-94032609D01*
X162591591Y-94032609D02*
X162591591Y-93346895D01*
X163353496Y-94146895D02*
X163353496Y-93727847D01*
X163353496Y-93727847D02*
X163315401Y-93651657D01*
X163315401Y-93651657D02*
X163239210Y-93613561D01*
X163239210Y-93613561D02*
X163086829Y-93613561D01*
X163086829Y-93613561D02*
X163010639Y-93651657D01*
X163353496Y-94108800D02*
X163277305Y-94146895D01*
X163277305Y-94146895D02*
X163086829Y-94146895D01*
X163086829Y-94146895D02*
X163010639Y-94108800D01*
X163010639Y-94108800D02*
X162972543Y-94032609D01*
X162972543Y-94032609D02*
X162972543Y-93956419D01*
X162972543Y-93956419D02*
X163010639Y-93880228D01*
X163010639Y-93880228D02*
X163086829Y-93842133D01*
X163086829Y-93842133D02*
X163277305Y-93842133D01*
X163277305Y-93842133D02*
X163353496Y-93804038D01*
X164305877Y-94108800D02*
X164420163Y-94146895D01*
X164420163Y-94146895D02*
X164610639Y-94146895D01*
X164610639Y-94146895D02*
X164686830Y-94108800D01*
X164686830Y-94108800D02*
X164724925Y-94070704D01*
X164724925Y-94070704D02*
X164763020Y-93994514D01*
X164763020Y-93994514D02*
X164763020Y-93918323D01*
X164763020Y-93918323D02*
X164724925Y-93842133D01*
X164724925Y-93842133D02*
X164686830Y-93804038D01*
X164686830Y-93804038D02*
X164610639Y-93765942D01*
X164610639Y-93765942D02*
X164458258Y-93727847D01*
X164458258Y-93727847D02*
X164382068Y-93689752D01*
X164382068Y-93689752D02*
X164343973Y-93651657D01*
X164343973Y-93651657D02*
X164305877Y-93575466D01*
X164305877Y-93575466D02*
X164305877Y-93499276D01*
X164305877Y-93499276D02*
X164343973Y-93423085D01*
X164343973Y-93423085D02*
X164382068Y-93384990D01*
X164382068Y-93384990D02*
X164458258Y-93346895D01*
X164458258Y-93346895D02*
X164648735Y-93346895D01*
X164648735Y-93346895D02*
X164763020Y-93384990D01*
X165220163Y-94146895D02*
X165143973Y-94108800D01*
X165143973Y-94108800D02*
X165105878Y-94032609D01*
X165105878Y-94032609D02*
X165105878Y-93346895D01*
X165867783Y-93613561D02*
X165867783Y-94146895D01*
X165524926Y-93613561D02*
X165524926Y-94032609D01*
X165524926Y-94032609D02*
X165563021Y-94108800D01*
X165563021Y-94108800D02*
X165639211Y-94146895D01*
X165639211Y-94146895D02*
X165753497Y-94146895D01*
X165753497Y-94146895D02*
X165829688Y-94108800D01*
X165829688Y-94108800D02*
X165867783Y-94070704D01*
X166591593Y-93613561D02*
X166591593Y-94261180D01*
X166591593Y-94261180D02*
X166553498Y-94337371D01*
X166553498Y-94337371D02*
X166515402Y-94375466D01*
X166515402Y-94375466D02*
X166439212Y-94413561D01*
X166439212Y-94413561D02*
X166324926Y-94413561D01*
X166324926Y-94413561D02*
X166248736Y-94375466D01*
X166591593Y-94108800D02*
X166515402Y-94146895D01*
X166515402Y-94146895D02*
X166363021Y-94146895D01*
X166363021Y-94146895D02*
X166286831Y-94108800D01*
X166286831Y-94108800D02*
X166248736Y-94070704D01*
X166248736Y-94070704D02*
X166210640Y-93994514D01*
X166210640Y-93994514D02*
X166210640Y-93765942D01*
X166210640Y-93765942D02*
X166248736Y-93689752D01*
X166248736Y-93689752D02*
X166286831Y-93651657D01*
X166286831Y-93651657D02*
X166363021Y-93613561D01*
X166363021Y-93613561D02*
X166515402Y-93613561D01*
X166515402Y-93613561D02*
X166591593Y-93651657D01*
D10*
X103145595Y-95020144D02*
X102764642Y-95286811D01*
X103145595Y-95477287D02*
X102345595Y-95477287D01*
X102345595Y-95477287D02*
X102345595Y-95172525D01*
X102345595Y-95172525D02*
X102383690Y-95096335D01*
X102383690Y-95096335D02*
X102421785Y-95058240D01*
X102421785Y-95058240D02*
X102497976Y-95020144D01*
X102497976Y-95020144D02*
X102612261Y-95020144D01*
X102612261Y-95020144D02*
X102688452Y-95058240D01*
X102688452Y-95058240D02*
X102726547Y-95096335D01*
X102726547Y-95096335D02*
X102764642Y-95172525D01*
X102764642Y-95172525D02*
X102764642Y-95477287D01*
X102345595Y-94791573D02*
X102345595Y-94334430D01*
X103145595Y-94563002D02*
X102345595Y-94563002D01*
X103145595Y-94067763D02*
X102345595Y-94067763D01*
X102345595Y-94067763D02*
X102917023Y-93801097D01*
X102917023Y-93801097D02*
X102345595Y-93534430D01*
X102345595Y-93534430D02*
X103145595Y-93534430D01*
X103145595Y-92772525D02*
X103145595Y-93153477D01*
X103145595Y-93153477D02*
X102345595Y-93153477D01*
X78289378Y-109726547D02*
X78403664Y-109764642D01*
X78403664Y-109764642D02*
X78441759Y-109802738D01*
X78441759Y-109802738D02*
X78479855Y-109878928D01*
X78479855Y-109878928D02*
X78479855Y-109993214D01*
X78479855Y-109993214D02*
X78441759Y-110069404D01*
X78441759Y-110069404D02*
X78403664Y-110107500D01*
X78403664Y-110107500D02*
X78327474Y-110145595D01*
X78327474Y-110145595D02*
X78022712Y-110145595D01*
X78022712Y-110145595D02*
X78022712Y-109345595D01*
X78022712Y-109345595D02*
X78289378Y-109345595D01*
X78289378Y-109345595D02*
X78365569Y-109383690D01*
X78365569Y-109383690D02*
X78403664Y-109421785D01*
X78403664Y-109421785D02*
X78441759Y-109497976D01*
X78441759Y-109497976D02*
X78441759Y-109574166D01*
X78441759Y-109574166D02*
X78403664Y-109650357D01*
X78403664Y-109650357D02*
X78365569Y-109688452D01*
X78365569Y-109688452D02*
X78289378Y-109726547D01*
X78289378Y-109726547D02*
X78022712Y-109726547D01*
X78822712Y-110145595D02*
X78822712Y-109345595D01*
X78822712Y-109345595D02*
X79089378Y-109917023D01*
X79089378Y-109917023D02*
X79356045Y-109345595D01*
X79356045Y-109345595D02*
X79356045Y-110145595D01*
X79698902Y-110107500D02*
X79813188Y-110145595D01*
X79813188Y-110145595D02*
X80003664Y-110145595D01*
X80003664Y-110145595D02*
X80079855Y-110107500D01*
X80079855Y-110107500D02*
X80117950Y-110069404D01*
X80117950Y-110069404D02*
X80156045Y-109993214D01*
X80156045Y-109993214D02*
X80156045Y-109917023D01*
X80156045Y-109917023D02*
X80117950Y-109840833D01*
X80117950Y-109840833D02*
X80079855Y-109802738D01*
X80079855Y-109802738D02*
X80003664Y-109764642D01*
X80003664Y-109764642D02*
X79851283Y-109726547D01*
X79851283Y-109726547D02*
X79775093Y-109688452D01*
X79775093Y-109688452D02*
X79736998Y-109650357D01*
X79736998Y-109650357D02*
X79698902Y-109574166D01*
X79698902Y-109574166D02*
X79698902Y-109497976D01*
X79698902Y-109497976D02*
X79736998Y-109421785D01*
X79736998Y-109421785D02*
X79775093Y-109383690D01*
X79775093Y-109383690D02*
X79851283Y-109345595D01*
X79851283Y-109345595D02*
X80041760Y-109345595D01*
X80041760Y-109345595D02*
X80156045Y-109383690D01*
X81070331Y-109307500D02*
X80384617Y-110336071D01*
X81336998Y-110145595D02*
X81336998Y-109345595D01*
X81717950Y-110145595D02*
X81717950Y-109345595D01*
X81717950Y-109345595D02*
X81984616Y-109917023D01*
X81984616Y-109917023D02*
X82251283Y-109345595D01*
X82251283Y-109345595D02*
X82251283Y-110145595D01*
X82632236Y-110145595D02*
X82632236Y-109345595D01*
X82632236Y-109345595D02*
X82822712Y-109345595D01*
X82822712Y-109345595D02*
X82936998Y-109383690D01*
X82936998Y-109383690D02*
X83013188Y-109459880D01*
X83013188Y-109459880D02*
X83051283Y-109536071D01*
X83051283Y-109536071D02*
X83089379Y-109688452D01*
X83089379Y-109688452D02*
X83089379Y-109802738D01*
X83089379Y-109802738D02*
X83051283Y-109955119D01*
X83051283Y-109955119D02*
X83013188Y-110031309D01*
X83013188Y-110031309D02*
X82936998Y-110107500D01*
X82936998Y-110107500D02*
X82822712Y-110145595D01*
X82822712Y-110145595D02*
X82632236Y-110145595D01*
X84003664Y-110107500D02*
X84117950Y-110145595D01*
X84117950Y-110145595D02*
X84308426Y-110145595D01*
X84308426Y-110145595D02*
X84384617Y-110107500D01*
X84384617Y-110107500D02*
X84422712Y-110069404D01*
X84422712Y-110069404D02*
X84460807Y-109993214D01*
X84460807Y-109993214D02*
X84460807Y-109917023D01*
X84460807Y-109917023D02*
X84422712Y-109840833D01*
X84422712Y-109840833D02*
X84384617Y-109802738D01*
X84384617Y-109802738D02*
X84308426Y-109764642D01*
X84308426Y-109764642D02*
X84156045Y-109726547D01*
X84156045Y-109726547D02*
X84079855Y-109688452D01*
X84079855Y-109688452D02*
X84041760Y-109650357D01*
X84041760Y-109650357D02*
X84003664Y-109574166D01*
X84003664Y-109574166D02*
X84003664Y-109497976D01*
X84003664Y-109497976D02*
X84041760Y-109421785D01*
X84041760Y-109421785D02*
X84079855Y-109383690D01*
X84079855Y-109383690D02*
X84156045Y-109345595D01*
X84156045Y-109345595D02*
X84346522Y-109345595D01*
X84346522Y-109345595D02*
X84460807Y-109383690D01*
X84689379Y-109345595D02*
X85146522Y-109345595D01*
X84917950Y-110145595D02*
X84917950Y-109345595D01*
X85375093Y-109917023D02*
X85756046Y-109917023D01*
X85298903Y-110145595D02*
X85565570Y-109345595D01*
X85565570Y-109345595D02*
X85832236Y-110145595D01*
X85984617Y-109345595D02*
X86441760Y-109345595D01*
X86213188Y-110145595D02*
X86213188Y-109345595D01*
X86708427Y-109345595D02*
X86708427Y-109993214D01*
X86708427Y-109993214D02*
X86746522Y-110069404D01*
X86746522Y-110069404D02*
X86784617Y-110107500D01*
X86784617Y-110107500D02*
X86860808Y-110145595D01*
X86860808Y-110145595D02*
X87013189Y-110145595D01*
X87013189Y-110145595D02*
X87089379Y-110107500D01*
X87089379Y-110107500D02*
X87127474Y-110069404D01*
X87127474Y-110069404D02*
X87165570Y-109993214D01*
X87165570Y-109993214D02*
X87165570Y-109345595D01*
X87508426Y-110107500D02*
X87622712Y-110145595D01*
X87622712Y-110145595D02*
X87813188Y-110145595D01*
X87813188Y-110145595D02*
X87889379Y-110107500D01*
X87889379Y-110107500D02*
X87927474Y-110069404D01*
X87927474Y-110069404D02*
X87965569Y-109993214D01*
X87965569Y-109993214D02*
X87965569Y-109917023D01*
X87965569Y-109917023D02*
X87927474Y-109840833D01*
X87927474Y-109840833D02*
X87889379Y-109802738D01*
X87889379Y-109802738D02*
X87813188Y-109764642D01*
X87813188Y-109764642D02*
X87660807Y-109726547D01*
X87660807Y-109726547D02*
X87584617Y-109688452D01*
X87584617Y-109688452D02*
X87546522Y-109650357D01*
X87546522Y-109650357D02*
X87508426Y-109574166D01*
X87508426Y-109574166D02*
X87508426Y-109497976D01*
X87508426Y-109497976D02*
X87546522Y-109421785D01*
X87546522Y-109421785D02*
X87584617Y-109383690D01*
X87584617Y-109383690D02*
X87660807Y-109345595D01*
X87660807Y-109345595D02*
X87851284Y-109345595D01*
X87851284Y-109345595D02*
X87965569Y-109383690D01*
X77979855Y-98645595D02*
X77713188Y-98264642D01*
X77522712Y-98645595D02*
X77522712Y-97845595D01*
X77522712Y-97845595D02*
X77827474Y-97845595D01*
X77827474Y-97845595D02*
X77903664Y-97883690D01*
X77903664Y-97883690D02*
X77941759Y-97921785D01*
X77941759Y-97921785D02*
X77979855Y-97997976D01*
X77979855Y-97997976D02*
X77979855Y-98112261D01*
X77979855Y-98112261D02*
X77941759Y-98188452D01*
X77941759Y-98188452D02*
X77903664Y-98226547D01*
X77903664Y-98226547D02*
X77827474Y-98264642D01*
X77827474Y-98264642D02*
X77522712Y-98264642D01*
X78208426Y-97845595D02*
X78665569Y-97845595D01*
X78436997Y-98645595D02*
X78436997Y-97845595D01*
X78932236Y-98645595D02*
X78932236Y-97845595D01*
X78932236Y-97845595D02*
X79198902Y-98417023D01*
X79198902Y-98417023D02*
X79465569Y-97845595D01*
X79465569Y-97845595D02*
X79465569Y-98645595D01*
X80227474Y-98645595D02*
X79846522Y-98645595D01*
X79846522Y-98645595D02*
X79846522Y-97845595D01*
X81065569Y-97807500D02*
X80379855Y-98836071D01*
X81789379Y-98645595D02*
X81522712Y-98264642D01*
X81332236Y-98645595D02*
X81332236Y-97845595D01*
X81332236Y-97845595D02*
X81636998Y-97845595D01*
X81636998Y-97845595D02*
X81713188Y-97883690D01*
X81713188Y-97883690D02*
X81751283Y-97921785D01*
X81751283Y-97921785D02*
X81789379Y-97997976D01*
X81789379Y-97997976D02*
X81789379Y-98112261D01*
X81789379Y-98112261D02*
X81751283Y-98188452D01*
X81751283Y-98188452D02*
X81713188Y-98226547D01*
X81713188Y-98226547D02*
X81636998Y-98264642D01*
X81636998Y-98264642D02*
X81332236Y-98264642D01*
X82017950Y-97845595D02*
X82475093Y-97845595D01*
X82246521Y-98645595D02*
X82246521Y-97845595D01*
X82741760Y-98645595D02*
X82741760Y-97845595D01*
X82741760Y-97845595D02*
X82932236Y-97845595D01*
X82932236Y-97845595D02*
X83046522Y-97883690D01*
X83046522Y-97883690D02*
X83122712Y-97959880D01*
X83122712Y-97959880D02*
X83160807Y-98036071D01*
X83160807Y-98036071D02*
X83198903Y-98188452D01*
X83198903Y-98188452D02*
X83198903Y-98302738D01*
X83198903Y-98302738D02*
X83160807Y-98455119D01*
X83160807Y-98455119D02*
X83122712Y-98531309D01*
X83122712Y-98531309D02*
X83046522Y-98607500D01*
X83046522Y-98607500D02*
X82932236Y-98645595D01*
X82932236Y-98645595D02*
X82741760Y-98645595D01*
X83503664Y-98607500D02*
X83617950Y-98645595D01*
X83617950Y-98645595D02*
X83808426Y-98645595D01*
X83808426Y-98645595D02*
X83884617Y-98607500D01*
X83884617Y-98607500D02*
X83922712Y-98569404D01*
X83922712Y-98569404D02*
X83960807Y-98493214D01*
X83960807Y-98493214D02*
X83960807Y-98417023D01*
X83960807Y-98417023D02*
X83922712Y-98340833D01*
X83922712Y-98340833D02*
X83884617Y-98302738D01*
X83884617Y-98302738D02*
X83808426Y-98264642D01*
X83808426Y-98264642D02*
X83656045Y-98226547D01*
X83656045Y-98226547D02*
X83579855Y-98188452D01*
X83579855Y-98188452D02*
X83541760Y-98150357D01*
X83541760Y-98150357D02*
X83503664Y-98074166D01*
X83503664Y-98074166D02*
X83503664Y-97997976D01*
X83503664Y-97997976D02*
X83541760Y-97921785D01*
X83541760Y-97921785D02*
X83579855Y-97883690D01*
X83579855Y-97883690D02*
X83656045Y-97845595D01*
X83656045Y-97845595D02*
X83846522Y-97845595D01*
X83846522Y-97845595D02*
X83960807Y-97883690D01*
X84875093Y-98607500D02*
X84989379Y-98645595D01*
X84989379Y-98645595D02*
X85179855Y-98645595D01*
X85179855Y-98645595D02*
X85256046Y-98607500D01*
X85256046Y-98607500D02*
X85294141Y-98569404D01*
X85294141Y-98569404D02*
X85332236Y-98493214D01*
X85332236Y-98493214D02*
X85332236Y-98417023D01*
X85332236Y-98417023D02*
X85294141Y-98340833D01*
X85294141Y-98340833D02*
X85256046Y-98302738D01*
X85256046Y-98302738D02*
X85179855Y-98264642D01*
X85179855Y-98264642D02*
X85027474Y-98226547D01*
X85027474Y-98226547D02*
X84951284Y-98188452D01*
X84951284Y-98188452D02*
X84913189Y-98150357D01*
X84913189Y-98150357D02*
X84875093Y-98074166D01*
X84875093Y-98074166D02*
X84875093Y-97997976D01*
X84875093Y-97997976D02*
X84913189Y-97921785D01*
X84913189Y-97921785D02*
X84951284Y-97883690D01*
X84951284Y-97883690D02*
X85027474Y-97845595D01*
X85027474Y-97845595D02*
X85217951Y-97845595D01*
X85217951Y-97845595D02*
X85332236Y-97883690D01*
X85675094Y-98645595D02*
X85675094Y-97845595D01*
X86475093Y-97883690D02*
X86398903Y-97845595D01*
X86398903Y-97845595D02*
X86284617Y-97845595D01*
X86284617Y-97845595D02*
X86170331Y-97883690D01*
X86170331Y-97883690D02*
X86094141Y-97959880D01*
X86094141Y-97959880D02*
X86056046Y-98036071D01*
X86056046Y-98036071D02*
X86017950Y-98188452D01*
X86017950Y-98188452D02*
X86017950Y-98302738D01*
X86017950Y-98302738D02*
X86056046Y-98455119D01*
X86056046Y-98455119D02*
X86094141Y-98531309D01*
X86094141Y-98531309D02*
X86170331Y-98607500D01*
X86170331Y-98607500D02*
X86284617Y-98645595D01*
X86284617Y-98645595D02*
X86360808Y-98645595D01*
X86360808Y-98645595D02*
X86475093Y-98607500D01*
X86475093Y-98607500D02*
X86513189Y-98569404D01*
X86513189Y-98569404D02*
X86513189Y-98302738D01*
X86513189Y-98302738D02*
X86360808Y-98302738D01*
X86856046Y-98645595D02*
X86856046Y-97845595D01*
X86856046Y-97845595D02*
X87313189Y-98645595D01*
X87313189Y-98645595D02*
X87313189Y-97845595D01*
X87656045Y-98417023D02*
X88036998Y-98417023D01*
X87579855Y-98645595D02*
X87846522Y-97845595D01*
X87846522Y-97845595D02*
X88113188Y-98645595D01*
X88760807Y-98645595D02*
X88379855Y-98645595D01*
X88379855Y-98645595D02*
X88379855Y-97845595D01*
D11*
X146891979Y-91846895D02*
X147349122Y-91846895D01*
X147120550Y-92646895D02*
X147120550Y-91846895D01*
X147615789Y-92646895D02*
X147615789Y-92113561D01*
X147615789Y-92265942D02*
X147653884Y-92189752D01*
X147653884Y-92189752D02*
X147691979Y-92151657D01*
X147691979Y-92151657D02*
X147768170Y-92113561D01*
X147768170Y-92113561D02*
X147844360Y-92113561D01*
X148453884Y-92646895D02*
X148453884Y-92227847D01*
X148453884Y-92227847D02*
X148415789Y-92151657D01*
X148415789Y-92151657D02*
X148339598Y-92113561D01*
X148339598Y-92113561D02*
X148187217Y-92113561D01*
X148187217Y-92113561D02*
X148111027Y-92151657D01*
X148453884Y-92608800D02*
X148377693Y-92646895D01*
X148377693Y-92646895D02*
X148187217Y-92646895D01*
X148187217Y-92646895D02*
X148111027Y-92608800D01*
X148111027Y-92608800D02*
X148072931Y-92532609D01*
X148072931Y-92532609D02*
X148072931Y-92456419D01*
X148072931Y-92456419D02*
X148111027Y-92380228D01*
X148111027Y-92380228D02*
X148187217Y-92342133D01*
X148187217Y-92342133D02*
X148377693Y-92342133D01*
X148377693Y-92342133D02*
X148453884Y-92304038D01*
X149177694Y-92608800D02*
X149101503Y-92646895D01*
X149101503Y-92646895D02*
X148949122Y-92646895D01*
X148949122Y-92646895D02*
X148872932Y-92608800D01*
X148872932Y-92608800D02*
X148834837Y-92570704D01*
X148834837Y-92570704D02*
X148796741Y-92494514D01*
X148796741Y-92494514D02*
X148796741Y-92265942D01*
X148796741Y-92265942D02*
X148834837Y-92189752D01*
X148834837Y-92189752D02*
X148872932Y-92151657D01*
X148872932Y-92151657D02*
X148949122Y-92113561D01*
X148949122Y-92113561D02*
X149101503Y-92113561D01*
X149101503Y-92113561D02*
X149177694Y-92151657D01*
X149406265Y-92113561D02*
X149711027Y-92113561D01*
X149520551Y-91846895D02*
X149520551Y-92532609D01*
X149520551Y-92532609D02*
X149558646Y-92608800D01*
X149558646Y-92608800D02*
X149634836Y-92646895D01*
X149634836Y-92646895D02*
X149711027Y-92646895D01*
X149977694Y-92646895D02*
X149977694Y-92113561D01*
X149977694Y-91846895D02*
X149939598Y-91884990D01*
X149939598Y-91884990D02*
X149977694Y-91923085D01*
X149977694Y-91923085D02*
X150015789Y-91884990D01*
X150015789Y-91884990D02*
X149977694Y-91846895D01*
X149977694Y-91846895D02*
X149977694Y-91923085D01*
X150282455Y-92113561D02*
X150472931Y-92646895D01*
X150472931Y-92646895D02*
X150663408Y-92113561D01*
X151272932Y-92608800D02*
X151196741Y-92646895D01*
X151196741Y-92646895D02*
X151044360Y-92646895D01*
X151044360Y-92646895D02*
X150968170Y-92608800D01*
X150968170Y-92608800D02*
X150930074Y-92532609D01*
X150930074Y-92532609D02*
X150930074Y-92227847D01*
X150930074Y-92227847D02*
X150968170Y-92151657D01*
X150968170Y-92151657D02*
X151044360Y-92113561D01*
X151044360Y-92113561D02*
X151196741Y-92113561D01*
X151196741Y-92113561D02*
X151272932Y-92151657D01*
X151272932Y-92151657D02*
X151311027Y-92227847D01*
X151311027Y-92227847D02*
X151311027Y-92304038D01*
X151311027Y-92304038D02*
X150930074Y-92380228D01*
X152225312Y-92608800D02*
X152339598Y-92646895D01*
X152339598Y-92646895D02*
X152530074Y-92646895D01*
X152530074Y-92646895D02*
X152606265Y-92608800D01*
X152606265Y-92608800D02*
X152644360Y-92570704D01*
X152644360Y-92570704D02*
X152682455Y-92494514D01*
X152682455Y-92494514D02*
X152682455Y-92418323D01*
X152682455Y-92418323D02*
X152644360Y-92342133D01*
X152644360Y-92342133D02*
X152606265Y-92304038D01*
X152606265Y-92304038D02*
X152530074Y-92265942D01*
X152530074Y-92265942D02*
X152377693Y-92227847D01*
X152377693Y-92227847D02*
X152301503Y-92189752D01*
X152301503Y-92189752D02*
X152263408Y-92151657D01*
X152263408Y-92151657D02*
X152225312Y-92075466D01*
X152225312Y-92075466D02*
X152225312Y-91999276D01*
X152225312Y-91999276D02*
X152263408Y-91923085D01*
X152263408Y-91923085D02*
X152301503Y-91884990D01*
X152301503Y-91884990D02*
X152377693Y-91846895D01*
X152377693Y-91846895D02*
X152568170Y-91846895D01*
X152568170Y-91846895D02*
X152682455Y-91884990D01*
X152949122Y-92113561D02*
X153139598Y-92646895D01*
X153330075Y-92113561D02*
X153139598Y-92646895D01*
X153139598Y-92646895D02*
X153063408Y-92837371D01*
X153063408Y-92837371D02*
X153025313Y-92875466D01*
X153025313Y-92875466D02*
X152949122Y-92913561D01*
X153596741Y-92608800D02*
X153672932Y-92646895D01*
X153672932Y-92646895D02*
X153825313Y-92646895D01*
X153825313Y-92646895D02*
X153901503Y-92608800D01*
X153901503Y-92608800D02*
X153939599Y-92532609D01*
X153939599Y-92532609D02*
X153939599Y-92494514D01*
X153939599Y-92494514D02*
X153901503Y-92418323D01*
X153901503Y-92418323D02*
X153825313Y-92380228D01*
X153825313Y-92380228D02*
X153711027Y-92380228D01*
X153711027Y-92380228D02*
X153634837Y-92342133D01*
X153634837Y-92342133D02*
X153596741Y-92265942D01*
X153596741Y-92265942D02*
X153596741Y-92227847D01*
X153596741Y-92227847D02*
X153634837Y-92151657D01*
X153634837Y-92151657D02*
X153711027Y-92113561D01*
X153711027Y-92113561D02*
X153825313Y-92113561D01*
X153825313Y-92113561D02*
X153901503Y-92151657D01*
X154168170Y-92113561D02*
X154472932Y-92113561D01*
X154282456Y-91846895D02*
X154282456Y-92532609D01*
X154282456Y-92532609D02*
X154320551Y-92608800D01*
X154320551Y-92608800D02*
X154396741Y-92646895D01*
X154396741Y-92646895D02*
X154472932Y-92646895D01*
X155044361Y-92608800D02*
X154968170Y-92646895D01*
X154968170Y-92646895D02*
X154815789Y-92646895D01*
X154815789Y-92646895D02*
X154739599Y-92608800D01*
X154739599Y-92608800D02*
X154701503Y-92532609D01*
X154701503Y-92532609D02*
X154701503Y-92227847D01*
X154701503Y-92227847D02*
X154739599Y-92151657D01*
X154739599Y-92151657D02*
X154815789Y-92113561D01*
X154815789Y-92113561D02*
X154968170Y-92113561D01*
X154968170Y-92113561D02*
X155044361Y-92151657D01*
X155044361Y-92151657D02*
X155082456Y-92227847D01*
X155082456Y-92227847D02*
X155082456Y-92304038D01*
X155082456Y-92304038D02*
X154701503Y-92380228D01*
X155425313Y-92646895D02*
X155425313Y-92113561D01*
X155425313Y-92189752D02*
X155463408Y-92151657D01*
X155463408Y-92151657D02*
X155539598Y-92113561D01*
X155539598Y-92113561D02*
X155653884Y-92113561D01*
X155653884Y-92113561D02*
X155730075Y-92151657D01*
X155730075Y-92151657D02*
X155768170Y-92227847D01*
X155768170Y-92227847D02*
X155768170Y-92646895D01*
X155768170Y-92227847D02*
X155806265Y-92151657D01*
X155806265Y-92151657D02*
X155882456Y-92113561D01*
X155882456Y-92113561D02*
X155996741Y-92113561D01*
X155996741Y-92113561D02*
X156072932Y-92151657D01*
X156072932Y-92151657D02*
X156111027Y-92227847D01*
X156111027Y-92227847D02*
X156111027Y-92646895D01*
X157063408Y-92608800D02*
X157177694Y-92646895D01*
X157177694Y-92646895D02*
X157368170Y-92646895D01*
X157368170Y-92646895D02*
X157444361Y-92608800D01*
X157444361Y-92608800D02*
X157482456Y-92570704D01*
X157482456Y-92570704D02*
X157520551Y-92494514D01*
X157520551Y-92494514D02*
X157520551Y-92418323D01*
X157520551Y-92418323D02*
X157482456Y-92342133D01*
X157482456Y-92342133D02*
X157444361Y-92304038D01*
X157444361Y-92304038D02*
X157368170Y-92265942D01*
X157368170Y-92265942D02*
X157215789Y-92227847D01*
X157215789Y-92227847D02*
X157139599Y-92189752D01*
X157139599Y-92189752D02*
X157101504Y-92151657D01*
X157101504Y-92151657D02*
X157063408Y-92075466D01*
X157063408Y-92075466D02*
X157063408Y-91999276D01*
X157063408Y-91999276D02*
X157101504Y-91923085D01*
X157101504Y-91923085D02*
X157139599Y-91884990D01*
X157139599Y-91884990D02*
X157215789Y-91846895D01*
X157215789Y-91846895D02*
X157406266Y-91846895D01*
X157406266Y-91846895D02*
X157520551Y-91884990D01*
X157749123Y-92113561D02*
X158053885Y-92113561D01*
X157863409Y-91846895D02*
X157863409Y-92532609D01*
X157863409Y-92532609D02*
X157901504Y-92608800D01*
X157901504Y-92608800D02*
X157977694Y-92646895D01*
X157977694Y-92646895D02*
X158053885Y-92646895D01*
X158663409Y-92646895D02*
X158663409Y-92227847D01*
X158663409Y-92227847D02*
X158625314Y-92151657D01*
X158625314Y-92151657D02*
X158549123Y-92113561D01*
X158549123Y-92113561D02*
X158396742Y-92113561D01*
X158396742Y-92113561D02*
X158320552Y-92151657D01*
X158663409Y-92608800D02*
X158587218Y-92646895D01*
X158587218Y-92646895D02*
X158396742Y-92646895D01*
X158396742Y-92646895D02*
X158320552Y-92608800D01*
X158320552Y-92608800D02*
X158282456Y-92532609D01*
X158282456Y-92532609D02*
X158282456Y-92456419D01*
X158282456Y-92456419D02*
X158320552Y-92380228D01*
X158320552Y-92380228D02*
X158396742Y-92342133D01*
X158396742Y-92342133D02*
X158587218Y-92342133D01*
X158587218Y-92342133D02*
X158663409Y-92304038D01*
X158930076Y-92113561D02*
X159234838Y-92113561D01*
X159044362Y-91846895D02*
X159044362Y-92532609D01*
X159044362Y-92532609D02*
X159082457Y-92608800D01*
X159082457Y-92608800D02*
X159158647Y-92646895D01*
X159158647Y-92646895D02*
X159234838Y-92646895D01*
X159844362Y-92113561D02*
X159844362Y-92646895D01*
X159501505Y-92113561D02*
X159501505Y-92532609D01*
X159501505Y-92532609D02*
X159539600Y-92608800D01*
X159539600Y-92608800D02*
X159615790Y-92646895D01*
X159615790Y-92646895D02*
X159730076Y-92646895D01*
X159730076Y-92646895D02*
X159806267Y-92608800D01*
X159806267Y-92608800D02*
X159844362Y-92570704D01*
X160187219Y-92608800D02*
X160263410Y-92646895D01*
X160263410Y-92646895D02*
X160415791Y-92646895D01*
X160415791Y-92646895D02*
X160491981Y-92608800D01*
X160491981Y-92608800D02*
X160530077Y-92532609D01*
X160530077Y-92532609D02*
X160530077Y-92494514D01*
X160530077Y-92494514D02*
X160491981Y-92418323D01*
X160491981Y-92418323D02*
X160415791Y-92380228D01*
X160415791Y-92380228D02*
X160301505Y-92380228D01*
X160301505Y-92380228D02*
X160225315Y-92342133D01*
X160225315Y-92342133D02*
X160187219Y-92265942D01*
X160187219Y-92265942D02*
X160187219Y-92227847D01*
X160187219Y-92227847D02*
X160225315Y-92151657D01*
X160225315Y-92151657D02*
X160301505Y-92113561D01*
X160301505Y-92113561D02*
X160415791Y-92113561D01*
X160415791Y-92113561D02*
X160491981Y-92151657D01*
X161482458Y-92646895D02*
X161482458Y-91846895D01*
X161863410Y-92113561D02*
X161863410Y-92646895D01*
X161863410Y-92189752D02*
X161901505Y-92151657D01*
X161901505Y-92151657D02*
X161977695Y-92113561D01*
X161977695Y-92113561D02*
X162091981Y-92113561D01*
X162091981Y-92113561D02*
X162168172Y-92151657D01*
X162168172Y-92151657D02*
X162206267Y-92227847D01*
X162206267Y-92227847D02*
X162206267Y-92646895D01*
X162930077Y-92646895D02*
X162930077Y-91846895D01*
X162930077Y-92608800D02*
X162853886Y-92646895D01*
X162853886Y-92646895D02*
X162701505Y-92646895D01*
X162701505Y-92646895D02*
X162625315Y-92608800D01*
X162625315Y-92608800D02*
X162587220Y-92570704D01*
X162587220Y-92570704D02*
X162549124Y-92494514D01*
X162549124Y-92494514D02*
X162549124Y-92265942D01*
X162549124Y-92265942D02*
X162587220Y-92189752D01*
X162587220Y-92189752D02*
X162625315Y-92151657D01*
X162625315Y-92151657D02*
X162701505Y-92113561D01*
X162701505Y-92113561D02*
X162853886Y-92113561D01*
X162853886Y-92113561D02*
X162930077Y-92151657D01*
X163311030Y-92646895D02*
X163311030Y-92113561D01*
X163311030Y-91846895D02*
X163272934Y-91884990D01*
X163272934Y-91884990D02*
X163311030Y-91923085D01*
X163311030Y-91923085D02*
X163349125Y-91884990D01*
X163349125Y-91884990D02*
X163311030Y-91846895D01*
X163311030Y-91846895D02*
X163311030Y-91923085D01*
X164034839Y-92608800D02*
X163958648Y-92646895D01*
X163958648Y-92646895D02*
X163806267Y-92646895D01*
X163806267Y-92646895D02*
X163730077Y-92608800D01*
X163730077Y-92608800D02*
X163691982Y-92570704D01*
X163691982Y-92570704D02*
X163653886Y-92494514D01*
X163653886Y-92494514D02*
X163653886Y-92265942D01*
X163653886Y-92265942D02*
X163691982Y-92189752D01*
X163691982Y-92189752D02*
X163730077Y-92151657D01*
X163730077Y-92151657D02*
X163806267Y-92113561D01*
X163806267Y-92113561D02*
X163958648Y-92113561D01*
X163958648Y-92113561D02*
X164034839Y-92151657D01*
X164720553Y-92646895D02*
X164720553Y-92227847D01*
X164720553Y-92227847D02*
X164682458Y-92151657D01*
X164682458Y-92151657D02*
X164606267Y-92113561D01*
X164606267Y-92113561D02*
X164453886Y-92113561D01*
X164453886Y-92113561D02*
X164377696Y-92151657D01*
X164720553Y-92608800D02*
X164644362Y-92646895D01*
X164644362Y-92646895D02*
X164453886Y-92646895D01*
X164453886Y-92646895D02*
X164377696Y-92608800D01*
X164377696Y-92608800D02*
X164339600Y-92532609D01*
X164339600Y-92532609D02*
X164339600Y-92456419D01*
X164339600Y-92456419D02*
X164377696Y-92380228D01*
X164377696Y-92380228D02*
X164453886Y-92342133D01*
X164453886Y-92342133D02*
X164644362Y-92342133D01*
X164644362Y-92342133D02*
X164720553Y-92304038D01*
X164987220Y-92113561D02*
X165291982Y-92113561D01*
X165101506Y-91846895D02*
X165101506Y-92532609D01*
X165101506Y-92532609D02*
X165139601Y-92608800D01*
X165139601Y-92608800D02*
X165215791Y-92646895D01*
X165215791Y-92646895D02*
X165291982Y-92646895D01*
X165672934Y-92646895D02*
X165596744Y-92608800D01*
X165596744Y-92608800D02*
X165558649Y-92570704D01*
X165558649Y-92570704D02*
X165520553Y-92494514D01*
X165520553Y-92494514D02*
X165520553Y-92265942D01*
X165520553Y-92265942D02*
X165558649Y-92189752D01*
X165558649Y-92189752D02*
X165596744Y-92151657D01*
X165596744Y-92151657D02*
X165672934Y-92113561D01*
X165672934Y-92113561D02*
X165787220Y-92113561D01*
X165787220Y-92113561D02*
X165863411Y-92151657D01*
X165863411Y-92151657D02*
X165901506Y-92189752D01*
X165901506Y-92189752D02*
X165939601Y-92265942D01*
X165939601Y-92265942D02*
X165939601Y-92494514D01*
X165939601Y-92494514D02*
X165901506Y-92570704D01*
X165901506Y-92570704D02*
X165863411Y-92608800D01*
X165863411Y-92608800D02*
X165787220Y-92646895D01*
X165787220Y-92646895D02*
X165672934Y-92646895D01*
X166282459Y-92646895D02*
X166282459Y-92113561D01*
X166282459Y-92265942D02*
X166320554Y-92189752D01*
X166320554Y-92189752D02*
X166358649Y-92151657D01*
X166358649Y-92151657D02*
X166434840Y-92113561D01*
X166434840Y-92113561D02*
X166511030Y-92113561D01*
X167311030Y-92113561D02*
X167501506Y-92646895D01*
X167501506Y-92646895D02*
X167691983Y-92113561D01*
X167958649Y-91923085D02*
X167996745Y-91884990D01*
X167996745Y-91884990D02*
X168072935Y-91846895D01*
X168072935Y-91846895D02*
X168263411Y-91846895D01*
X168263411Y-91846895D02*
X168339602Y-91884990D01*
X168339602Y-91884990D02*
X168377697Y-91923085D01*
X168377697Y-91923085D02*
X168415792Y-91999276D01*
X168415792Y-91999276D02*
X168415792Y-92075466D01*
X168415792Y-92075466D02*
X168377697Y-92189752D01*
X168377697Y-92189752D02*
X167920554Y-92646895D01*
X167920554Y-92646895D02*
X168415792Y-92646895D01*
X168758650Y-92570704D02*
X168796745Y-92608800D01*
X168796745Y-92608800D02*
X168758650Y-92646895D01*
X168758650Y-92646895D02*
X168720554Y-92608800D01*
X168720554Y-92608800D02*
X168758650Y-92570704D01*
X168758650Y-92570704D02*
X168758650Y-92646895D01*
X169291983Y-91846895D02*
X169368173Y-91846895D01*
X169368173Y-91846895D02*
X169444364Y-91884990D01*
X169444364Y-91884990D02*
X169482459Y-91923085D01*
X169482459Y-91923085D02*
X169520554Y-91999276D01*
X169520554Y-91999276D02*
X169558649Y-92151657D01*
X169558649Y-92151657D02*
X169558649Y-92342133D01*
X169558649Y-92342133D02*
X169520554Y-92494514D01*
X169520554Y-92494514D02*
X169482459Y-92570704D01*
X169482459Y-92570704D02*
X169444364Y-92608800D01*
X169444364Y-92608800D02*
X169368173Y-92646895D01*
X169368173Y-92646895D02*
X169291983Y-92646895D01*
X169291983Y-92646895D02*
X169215792Y-92608800D01*
X169215792Y-92608800D02*
X169177697Y-92570704D01*
X169177697Y-92570704D02*
X169139602Y-92494514D01*
X169139602Y-92494514D02*
X169101506Y-92342133D01*
X169101506Y-92342133D02*
X169101506Y-92151657D01*
X169101506Y-92151657D02*
X169139602Y-91999276D01*
X169139602Y-91999276D02*
X169177697Y-91923085D01*
X169177697Y-91923085D02*
X169215792Y-91884990D01*
X169215792Y-91884990D02*
X169291983Y-91846895D01*
X130886905Y-103732419D02*
X130886905Y-102732419D01*
X130886905Y-102732419D02*
X131125000Y-102732419D01*
X131125000Y-102732419D02*
X131267857Y-102780038D01*
X131267857Y-102780038D02*
X131363095Y-102875276D01*
X131363095Y-102875276D02*
X131410714Y-102970514D01*
X131410714Y-102970514D02*
X131458333Y-103160990D01*
X131458333Y-103160990D02*
X131458333Y-103303847D01*
X131458333Y-103303847D02*
X131410714Y-103494323D01*
X131410714Y-103494323D02*
X131363095Y-103589561D01*
X131363095Y-103589561D02*
X131267857Y-103684800D01*
X131267857Y-103684800D02*
X131125000Y-103732419D01*
X131125000Y-103732419D02*
X130886905Y-103732419D01*
X132315476Y-103065752D02*
X132315476Y-103732419D01*
X132077381Y-102684800D02*
X131839286Y-103399085D01*
X131839286Y-103399085D02*
X132458333Y-103399085D01*
D12*
X153267319Y-98467857D02*
X152791128Y-98801190D01*
X153267319Y-99039285D02*
X152267319Y-99039285D01*
X152267319Y-99039285D02*
X152267319Y-98658333D01*
X152267319Y-98658333D02*
X152314938Y-98563095D01*
X152314938Y-98563095D02*
X152362557Y-98515476D01*
X152362557Y-98515476D02*
X152457795Y-98467857D01*
X152457795Y-98467857D02*
X152600652Y-98467857D01*
X152600652Y-98467857D02*
X152695890Y-98515476D01*
X152695890Y-98515476D02*
X152743509Y-98563095D01*
X152743509Y-98563095D02*
X152791128Y-98658333D01*
X152791128Y-98658333D02*
X152791128Y-99039285D01*
X153267319Y-97515476D02*
X153267319Y-98086904D01*
X153267319Y-97801190D02*
X152267319Y-97801190D01*
X152267319Y-97801190D02*
X152410176Y-97896428D01*
X152410176Y-97896428D02*
X152505414Y-97991666D01*
X152505414Y-97991666D02*
X152553033Y-98086904D01*
X152267319Y-96896428D02*
X152267319Y-96801190D01*
X152267319Y-96801190D02*
X152314938Y-96705952D01*
X152314938Y-96705952D02*
X152362557Y-96658333D01*
X152362557Y-96658333D02*
X152457795Y-96610714D01*
X152457795Y-96610714D02*
X152648271Y-96563095D01*
X152648271Y-96563095D02*
X152886366Y-96563095D01*
X152886366Y-96563095D02*
X153076842Y-96610714D01*
X153076842Y-96610714D02*
X153172080Y-96658333D01*
X153172080Y-96658333D02*
X153219700Y-96705952D01*
X153219700Y-96705952D02*
X153267319Y-96801190D01*
X153267319Y-96801190D02*
X153267319Y-96896428D01*
X153267319Y-96896428D02*
X153219700Y-96991666D01*
X153219700Y-96991666D02*
X153172080Y-97039285D01*
X153172080Y-97039285D02*
X153076842Y-97086904D01*
X153076842Y-97086904D02*
X152886366Y-97134523D01*
X152886366Y-97134523D02*
X152648271Y-97134523D01*
X152648271Y-97134523D02*
X152457795Y-97086904D01*
X152457795Y-97086904D02*
X152362557Y-97039285D01*
X152362557Y-97039285D02*
X152314938Y-96991666D01*
X152314938Y-96991666D02*
X152267319Y-96896428D01*
X97583333Y-108179580D02*
X97535714Y-108227200D01*
X97535714Y-108227200D02*
X97392857Y-108274819D01*
X97392857Y-108274819D02*
X97297619Y-108274819D01*
X97297619Y-108274819D02*
X97154762Y-108227200D01*
X97154762Y-108227200D02*
X97059524Y-108131961D01*
X97059524Y-108131961D02*
X97011905Y-108036723D01*
X97011905Y-108036723D02*
X96964286Y-107846247D01*
X96964286Y-107846247D02*
X96964286Y-107703390D01*
X96964286Y-107703390D02*
X97011905Y-107512914D01*
X97011905Y-107512914D02*
X97059524Y-107417676D01*
X97059524Y-107417676D02*
X97154762Y-107322438D01*
X97154762Y-107322438D02*
X97297619Y-107274819D01*
X97297619Y-107274819D02*
X97392857Y-107274819D01*
X97392857Y-107274819D02*
X97535714Y-107322438D01*
X97535714Y-107322438D02*
X97583333Y-107370057D01*
X98488095Y-107274819D02*
X98011905Y-107274819D01*
X98011905Y-107274819D02*
X97964286Y-107751009D01*
X97964286Y-107751009D02*
X98011905Y-107703390D01*
X98011905Y-107703390D02*
X98107143Y-107655771D01*
X98107143Y-107655771D02*
X98345238Y-107655771D01*
X98345238Y-107655771D02*
X98440476Y-107703390D01*
X98440476Y-107703390D02*
X98488095Y-107751009D01*
X98488095Y-107751009D02*
X98535714Y-107846247D01*
X98535714Y-107846247D02*
X98535714Y-108084342D01*
X98535714Y-108084342D02*
X98488095Y-108179580D01*
X98488095Y-108179580D02*
X98440476Y-108227200D01*
X98440476Y-108227200D02*
X98345238Y-108274819D01*
X98345238Y-108274819D02*
X98107143Y-108274819D01*
X98107143Y-108274819D02*
X98011905Y-108227200D01*
X98011905Y-108227200D02*
X97964286Y-108179580D01*
D11*
X155410714Y-110232419D02*
X155410714Y-109232419D01*
X155410714Y-109232419D02*
X155648809Y-109232419D01*
X155648809Y-109232419D02*
X155791666Y-109280038D01*
X155791666Y-109280038D02*
X155886904Y-109375276D01*
X155886904Y-109375276D02*
X155934523Y-109470514D01*
X155934523Y-109470514D02*
X155982142Y-109660990D01*
X155982142Y-109660990D02*
X155982142Y-109803847D01*
X155982142Y-109803847D02*
X155934523Y-109994323D01*
X155934523Y-109994323D02*
X155886904Y-110089561D01*
X155886904Y-110089561D02*
X155791666Y-110184800D01*
X155791666Y-110184800D02*
X155648809Y-110232419D01*
X155648809Y-110232419D02*
X155410714Y-110232419D01*
X156363095Y-109327657D02*
X156410714Y-109280038D01*
X156410714Y-109280038D02*
X156505952Y-109232419D01*
X156505952Y-109232419D02*
X156744047Y-109232419D01*
X156744047Y-109232419D02*
X156839285Y-109280038D01*
X156839285Y-109280038D02*
X156886904Y-109327657D01*
X156886904Y-109327657D02*
X156934523Y-109422895D01*
X156934523Y-109422895D02*
X156934523Y-109518133D01*
X156934523Y-109518133D02*
X156886904Y-109660990D01*
X156886904Y-109660990D02*
X156315476Y-110232419D01*
X156315476Y-110232419D02*
X156934523Y-110232419D01*
X157553571Y-109232419D02*
X157648809Y-109232419D01*
X157648809Y-109232419D02*
X157744047Y-109280038D01*
X157744047Y-109280038D02*
X157791666Y-109327657D01*
X157791666Y-109327657D02*
X157839285Y-109422895D01*
X157839285Y-109422895D02*
X157886904Y-109613371D01*
X157886904Y-109613371D02*
X157886904Y-109851466D01*
X157886904Y-109851466D02*
X157839285Y-110041942D01*
X157839285Y-110041942D02*
X157791666Y-110137180D01*
X157791666Y-110137180D02*
X157744047Y-110184800D01*
X157744047Y-110184800D02*
X157648809Y-110232419D01*
X157648809Y-110232419D02*
X157553571Y-110232419D01*
X157553571Y-110232419D02*
X157458333Y-110184800D01*
X157458333Y-110184800D02*
X157410714Y-110137180D01*
X157410714Y-110137180D02*
X157363095Y-110041942D01*
X157363095Y-110041942D02*
X157315476Y-109851466D01*
X157315476Y-109851466D02*
X157315476Y-109613371D01*
X157315476Y-109613371D02*
X157363095Y-109422895D01*
X157363095Y-109422895D02*
X157410714Y-109327657D01*
X157410714Y-109327657D02*
X157458333Y-109280038D01*
X157458333Y-109280038D02*
X157553571Y-109232419D01*
D12*
X90999580Y-116714166D02*
X91047200Y-116761785D01*
X91047200Y-116761785D02*
X91094819Y-116904642D01*
X91094819Y-116904642D02*
X91094819Y-116999880D01*
X91094819Y-116999880D02*
X91047200Y-117142737D01*
X91047200Y-117142737D02*
X90951961Y-117237975D01*
X90951961Y-117237975D02*
X90856723Y-117285594D01*
X90856723Y-117285594D02*
X90666247Y-117333213D01*
X90666247Y-117333213D02*
X90523390Y-117333213D01*
X90523390Y-117333213D02*
X90332914Y-117285594D01*
X90332914Y-117285594D02*
X90237676Y-117237975D01*
X90237676Y-117237975D02*
X90142438Y-117142737D01*
X90142438Y-117142737D02*
X90094819Y-116999880D01*
X90094819Y-116999880D02*
X90094819Y-116904642D01*
X90094819Y-116904642D02*
X90142438Y-116761785D01*
X90142438Y-116761785D02*
X90190057Y-116714166D01*
X90190057Y-116333213D02*
X90142438Y-116285594D01*
X90142438Y-116285594D02*
X90094819Y-116190356D01*
X90094819Y-116190356D02*
X90094819Y-115952261D01*
X90094819Y-115952261D02*
X90142438Y-115857023D01*
X90142438Y-115857023D02*
X90190057Y-115809404D01*
X90190057Y-115809404D02*
X90285295Y-115761785D01*
X90285295Y-115761785D02*
X90380533Y-115761785D01*
X90380533Y-115761785D02*
X90523390Y-115809404D01*
X90523390Y-115809404D02*
X91094819Y-116380832D01*
X91094819Y-116380832D02*
X91094819Y-115761785D01*
D11*
X155410714Y-116732419D02*
X155410714Y-115732419D01*
X155410714Y-115732419D02*
X155648809Y-115732419D01*
X155648809Y-115732419D02*
X155791666Y-115780038D01*
X155791666Y-115780038D02*
X155886904Y-115875276D01*
X155886904Y-115875276D02*
X155934523Y-115970514D01*
X155934523Y-115970514D02*
X155982142Y-116160990D01*
X155982142Y-116160990D02*
X155982142Y-116303847D01*
X155982142Y-116303847D02*
X155934523Y-116494323D01*
X155934523Y-116494323D02*
X155886904Y-116589561D01*
X155886904Y-116589561D02*
X155791666Y-116684800D01*
X155791666Y-116684800D02*
X155648809Y-116732419D01*
X155648809Y-116732419D02*
X155410714Y-116732419D01*
X156363095Y-115827657D02*
X156410714Y-115780038D01*
X156410714Y-115780038D02*
X156505952Y-115732419D01*
X156505952Y-115732419D02*
X156744047Y-115732419D01*
X156744047Y-115732419D02*
X156839285Y-115780038D01*
X156839285Y-115780038D02*
X156886904Y-115827657D01*
X156886904Y-115827657D02*
X156934523Y-115922895D01*
X156934523Y-115922895D02*
X156934523Y-116018133D01*
X156934523Y-116018133D02*
X156886904Y-116160990D01*
X156886904Y-116160990D02*
X156315476Y-116732419D01*
X156315476Y-116732419D02*
X156934523Y-116732419D01*
X157886904Y-116732419D02*
X157315476Y-116732419D01*
X157601190Y-116732419D02*
X157601190Y-115732419D01*
X157601190Y-115732419D02*
X157505952Y-115875276D01*
X157505952Y-115875276D02*
X157410714Y-115970514D01*
X157410714Y-115970514D02*
X157315476Y-116018133D01*
X170460714Y-116732419D02*
X170460714Y-115732419D01*
X170460714Y-115732419D02*
X170698809Y-115732419D01*
X170698809Y-115732419D02*
X170841666Y-115780038D01*
X170841666Y-115780038D02*
X170936904Y-115875276D01*
X170936904Y-115875276D02*
X170984523Y-115970514D01*
X170984523Y-115970514D02*
X171032142Y-116160990D01*
X171032142Y-116160990D02*
X171032142Y-116303847D01*
X171032142Y-116303847D02*
X170984523Y-116494323D01*
X170984523Y-116494323D02*
X170936904Y-116589561D01*
X170936904Y-116589561D02*
X170841666Y-116684800D01*
X170841666Y-116684800D02*
X170698809Y-116732419D01*
X170698809Y-116732419D02*
X170460714Y-116732419D01*
X171365476Y-115732419D02*
X171984523Y-115732419D01*
X171984523Y-115732419D02*
X171651190Y-116113371D01*
X171651190Y-116113371D02*
X171794047Y-116113371D01*
X171794047Y-116113371D02*
X171889285Y-116160990D01*
X171889285Y-116160990D02*
X171936904Y-116208609D01*
X171936904Y-116208609D02*
X171984523Y-116303847D01*
X171984523Y-116303847D02*
X171984523Y-116541942D01*
X171984523Y-116541942D02*
X171936904Y-116637180D01*
X171936904Y-116637180D02*
X171889285Y-116684800D01*
X171889285Y-116684800D02*
X171794047Y-116732419D01*
X171794047Y-116732419D02*
X171508333Y-116732419D01*
X171508333Y-116732419D02*
X171413095Y-116684800D01*
X171413095Y-116684800D02*
X171365476Y-116637180D01*
X172603571Y-115732419D02*
X172698809Y-115732419D01*
X172698809Y-115732419D02*
X172794047Y-115780038D01*
X172794047Y-115780038D02*
X172841666Y-115827657D01*
X172841666Y-115827657D02*
X172889285Y-115922895D01*
X172889285Y-115922895D02*
X172936904Y-116113371D01*
X172936904Y-116113371D02*
X172936904Y-116351466D01*
X172936904Y-116351466D02*
X172889285Y-116541942D01*
X172889285Y-116541942D02*
X172841666Y-116637180D01*
X172841666Y-116637180D02*
X172794047Y-116684800D01*
X172794047Y-116684800D02*
X172698809Y-116732419D01*
X172698809Y-116732419D02*
X172603571Y-116732419D01*
X172603571Y-116732419D02*
X172508333Y-116684800D01*
X172508333Y-116684800D02*
X172460714Y-116637180D01*
X172460714Y-116637180D02*
X172413095Y-116541942D01*
X172413095Y-116541942D02*
X172365476Y-116351466D01*
X172365476Y-116351466D02*
X172365476Y-116113371D01*
X172365476Y-116113371D02*
X172413095Y-115922895D01*
X172413095Y-115922895D02*
X172460714Y-115827657D01*
X172460714Y-115827657D02*
X172508333Y-115780038D01*
X172508333Y-115780038D02*
X172603571Y-115732419D01*
D12*
X115390476Y-114312295D02*
X115390476Y-114959914D01*
X115390476Y-114959914D02*
X115428571Y-115036104D01*
X115428571Y-115036104D02*
X115466666Y-115074200D01*
X115466666Y-115074200D02*
X115542857Y-115112295D01*
X115542857Y-115112295D02*
X115695238Y-115112295D01*
X115695238Y-115112295D02*
X115771428Y-115074200D01*
X115771428Y-115074200D02*
X115809523Y-115036104D01*
X115809523Y-115036104D02*
X115847619Y-114959914D01*
X115847619Y-114959914D02*
X115847619Y-114312295D01*
X116571428Y-114578961D02*
X116571428Y-115112295D01*
X116380952Y-114274200D02*
X116190475Y-114845628D01*
X116190475Y-114845628D02*
X116685714Y-114845628D01*
D11*
X165460714Y-103732419D02*
X165460714Y-102732419D01*
X165460714Y-102732419D02*
X165698809Y-102732419D01*
X165698809Y-102732419D02*
X165841666Y-102780038D01*
X165841666Y-102780038D02*
X165936904Y-102875276D01*
X165936904Y-102875276D02*
X165984523Y-102970514D01*
X165984523Y-102970514D02*
X166032142Y-103160990D01*
X166032142Y-103160990D02*
X166032142Y-103303847D01*
X166032142Y-103303847D02*
X165984523Y-103494323D01*
X165984523Y-103494323D02*
X165936904Y-103589561D01*
X165936904Y-103589561D02*
X165841666Y-103684800D01*
X165841666Y-103684800D02*
X165698809Y-103732419D01*
X165698809Y-103732419D02*
X165460714Y-103732419D01*
X166413095Y-102827657D02*
X166460714Y-102780038D01*
X166460714Y-102780038D02*
X166555952Y-102732419D01*
X166555952Y-102732419D02*
X166794047Y-102732419D01*
X166794047Y-102732419D02*
X166889285Y-102780038D01*
X166889285Y-102780038D02*
X166936904Y-102827657D01*
X166936904Y-102827657D02*
X166984523Y-102922895D01*
X166984523Y-102922895D02*
X166984523Y-103018133D01*
X166984523Y-103018133D02*
X166936904Y-103160990D01*
X166936904Y-103160990D02*
X166365476Y-103732419D01*
X166365476Y-103732419D02*
X166984523Y-103732419D01*
X167889285Y-102732419D02*
X167413095Y-102732419D01*
X167413095Y-102732419D02*
X167365476Y-103208609D01*
X167365476Y-103208609D02*
X167413095Y-103160990D01*
X167413095Y-103160990D02*
X167508333Y-103113371D01*
X167508333Y-103113371D02*
X167746428Y-103113371D01*
X167746428Y-103113371D02*
X167841666Y-103160990D01*
X167841666Y-103160990D02*
X167889285Y-103208609D01*
X167889285Y-103208609D02*
X167936904Y-103303847D01*
X167936904Y-103303847D02*
X167936904Y-103541942D01*
X167936904Y-103541942D02*
X167889285Y-103637180D01*
X167889285Y-103637180D02*
X167841666Y-103684800D01*
X167841666Y-103684800D02*
X167746428Y-103732419D01*
X167746428Y-103732419D02*
X167508333Y-103732419D01*
X167508333Y-103732419D02*
X167413095Y-103684800D01*
X167413095Y-103684800D02*
X167365476Y-103637180D01*
X150410714Y-103732419D02*
X150410714Y-102732419D01*
X150410714Y-102732419D02*
X150648809Y-102732419D01*
X150648809Y-102732419D02*
X150791666Y-102780038D01*
X150791666Y-102780038D02*
X150886904Y-102875276D01*
X150886904Y-102875276D02*
X150934523Y-102970514D01*
X150934523Y-102970514D02*
X150982142Y-103160990D01*
X150982142Y-103160990D02*
X150982142Y-103303847D01*
X150982142Y-103303847D02*
X150934523Y-103494323D01*
X150934523Y-103494323D02*
X150886904Y-103589561D01*
X150886904Y-103589561D02*
X150791666Y-103684800D01*
X150791666Y-103684800D02*
X150648809Y-103732419D01*
X150648809Y-103732419D02*
X150410714Y-103732419D01*
X151934523Y-103732419D02*
X151363095Y-103732419D01*
X151648809Y-103732419D02*
X151648809Y-102732419D01*
X151648809Y-102732419D02*
X151553571Y-102875276D01*
X151553571Y-102875276D02*
X151458333Y-102970514D01*
X151458333Y-102970514D02*
X151363095Y-103018133D01*
X152791666Y-102732419D02*
X152601190Y-102732419D01*
X152601190Y-102732419D02*
X152505952Y-102780038D01*
X152505952Y-102780038D02*
X152458333Y-102827657D01*
X152458333Y-102827657D02*
X152363095Y-102970514D01*
X152363095Y-102970514D02*
X152315476Y-103160990D01*
X152315476Y-103160990D02*
X152315476Y-103541942D01*
X152315476Y-103541942D02*
X152363095Y-103637180D01*
X152363095Y-103637180D02*
X152410714Y-103684800D01*
X152410714Y-103684800D02*
X152505952Y-103732419D01*
X152505952Y-103732419D02*
X152696428Y-103732419D01*
X152696428Y-103732419D02*
X152791666Y-103684800D01*
X152791666Y-103684800D02*
X152839285Y-103637180D01*
X152839285Y-103637180D02*
X152886904Y-103541942D01*
X152886904Y-103541942D02*
X152886904Y-103303847D01*
X152886904Y-103303847D02*
X152839285Y-103208609D01*
X152839285Y-103208609D02*
X152791666Y-103160990D01*
X152791666Y-103160990D02*
X152696428Y-103113371D01*
X152696428Y-103113371D02*
X152505952Y-103113371D01*
X152505952Y-103113371D02*
X152410714Y-103160990D01*
X152410714Y-103160990D02*
X152363095Y-103208609D01*
X152363095Y-103208609D02*
X152315476Y-103303847D01*
X145410714Y-110232419D02*
X145410714Y-109232419D01*
X145410714Y-109232419D02*
X145648809Y-109232419D01*
X145648809Y-109232419D02*
X145791666Y-109280038D01*
X145791666Y-109280038D02*
X145886904Y-109375276D01*
X145886904Y-109375276D02*
X145934523Y-109470514D01*
X145934523Y-109470514D02*
X145982142Y-109660990D01*
X145982142Y-109660990D02*
X145982142Y-109803847D01*
X145982142Y-109803847D02*
X145934523Y-109994323D01*
X145934523Y-109994323D02*
X145886904Y-110089561D01*
X145886904Y-110089561D02*
X145791666Y-110184800D01*
X145791666Y-110184800D02*
X145648809Y-110232419D01*
X145648809Y-110232419D02*
X145410714Y-110232419D01*
X146934523Y-110232419D02*
X146363095Y-110232419D01*
X146648809Y-110232419D02*
X146648809Y-109232419D01*
X146648809Y-109232419D02*
X146553571Y-109375276D01*
X146553571Y-109375276D02*
X146458333Y-109470514D01*
X146458333Y-109470514D02*
X146363095Y-109518133D01*
X147791666Y-109565752D02*
X147791666Y-110232419D01*
X147553571Y-109184800D02*
X147315476Y-109899085D01*
X147315476Y-109899085D02*
X147934523Y-109899085D01*
X130886905Y-110232419D02*
X130886905Y-109232419D01*
X130886905Y-109232419D02*
X131125000Y-109232419D01*
X131125000Y-109232419D02*
X131267857Y-109280038D01*
X131267857Y-109280038D02*
X131363095Y-109375276D01*
X131363095Y-109375276D02*
X131410714Y-109470514D01*
X131410714Y-109470514D02*
X131458333Y-109660990D01*
X131458333Y-109660990D02*
X131458333Y-109803847D01*
X131458333Y-109803847D02*
X131410714Y-109994323D01*
X131410714Y-109994323D02*
X131363095Y-110089561D01*
X131363095Y-110089561D02*
X131267857Y-110184800D01*
X131267857Y-110184800D02*
X131125000Y-110232419D01*
X131125000Y-110232419D02*
X130886905Y-110232419D01*
X132363095Y-109232419D02*
X131886905Y-109232419D01*
X131886905Y-109232419D02*
X131839286Y-109708609D01*
X131839286Y-109708609D02*
X131886905Y-109660990D01*
X131886905Y-109660990D02*
X131982143Y-109613371D01*
X131982143Y-109613371D02*
X132220238Y-109613371D01*
X132220238Y-109613371D02*
X132315476Y-109660990D01*
X132315476Y-109660990D02*
X132363095Y-109708609D01*
X132363095Y-109708609D02*
X132410714Y-109803847D01*
X132410714Y-109803847D02*
X132410714Y-110041942D01*
X132410714Y-110041942D02*
X132363095Y-110137180D01*
X132363095Y-110137180D02*
X132315476Y-110184800D01*
X132315476Y-110184800D02*
X132220238Y-110232419D01*
X132220238Y-110232419D02*
X131982143Y-110232419D01*
X131982143Y-110232419D02*
X131886905Y-110184800D01*
X131886905Y-110184800D02*
X131839286Y-110137180D01*
X185241469Y-103732419D02*
X185241469Y-102732419D01*
X185241469Y-102732419D02*
X185479564Y-102732419D01*
X185479564Y-102732419D02*
X185622421Y-102780038D01*
X185622421Y-102780038D02*
X185717659Y-102875276D01*
X185717659Y-102875276D02*
X185765278Y-102970514D01*
X185765278Y-102970514D02*
X185812897Y-103160990D01*
X185812897Y-103160990D02*
X185812897Y-103303847D01*
X185812897Y-103303847D02*
X185765278Y-103494323D01*
X185765278Y-103494323D02*
X185717659Y-103589561D01*
X185717659Y-103589561D02*
X185622421Y-103684800D01*
X185622421Y-103684800D02*
X185479564Y-103732419D01*
X185479564Y-103732419D02*
X185241469Y-103732419D01*
X186146231Y-102732419D02*
X186765278Y-102732419D01*
X186765278Y-102732419D02*
X186431945Y-103113371D01*
X186431945Y-103113371D02*
X186574802Y-103113371D01*
X186574802Y-103113371D02*
X186670040Y-103160990D01*
X186670040Y-103160990D02*
X186717659Y-103208609D01*
X186717659Y-103208609D02*
X186765278Y-103303847D01*
X186765278Y-103303847D02*
X186765278Y-103541942D01*
X186765278Y-103541942D02*
X186717659Y-103637180D01*
X186717659Y-103637180D02*
X186670040Y-103684800D01*
X186670040Y-103684800D02*
X186574802Y-103732419D01*
X186574802Y-103732419D02*
X186289088Y-103732419D01*
X186289088Y-103732419D02*
X186193850Y-103684800D01*
X186193850Y-103684800D02*
X186146231Y-103637180D01*
X187098612Y-102732419D02*
X187765278Y-102732419D01*
X187765278Y-102732419D02*
X187336707Y-103732419D01*
D12*
X90999580Y-112686666D02*
X91047200Y-112734285D01*
X91047200Y-112734285D02*
X91094819Y-112877142D01*
X91094819Y-112877142D02*
X91094819Y-112972380D01*
X91094819Y-112972380D02*
X91047200Y-113115237D01*
X91047200Y-113115237D02*
X90951961Y-113210475D01*
X90951961Y-113210475D02*
X90856723Y-113258094D01*
X90856723Y-113258094D02*
X90666247Y-113305713D01*
X90666247Y-113305713D02*
X90523390Y-113305713D01*
X90523390Y-113305713D02*
X90332914Y-113258094D01*
X90332914Y-113258094D02*
X90237676Y-113210475D01*
X90237676Y-113210475D02*
X90142438Y-113115237D01*
X90142438Y-113115237D02*
X90094819Y-112972380D01*
X90094819Y-112972380D02*
X90094819Y-112877142D01*
X90094819Y-112877142D02*
X90142438Y-112734285D01*
X90142438Y-112734285D02*
X90190057Y-112686666D01*
X91094819Y-111734285D02*
X91094819Y-112305713D01*
X91094819Y-112019999D02*
X90094819Y-112019999D01*
X90094819Y-112019999D02*
X90237676Y-112115237D01*
X90237676Y-112115237D02*
X90332914Y-112210475D01*
X90332914Y-112210475D02*
X90380533Y-112305713D01*
D11*
X140410714Y-116732419D02*
X140410714Y-115732419D01*
X140410714Y-115732419D02*
X140648809Y-115732419D01*
X140648809Y-115732419D02*
X140791666Y-115780038D01*
X140791666Y-115780038D02*
X140886904Y-115875276D01*
X140886904Y-115875276D02*
X140934523Y-115970514D01*
X140934523Y-115970514D02*
X140982142Y-116160990D01*
X140982142Y-116160990D02*
X140982142Y-116303847D01*
X140982142Y-116303847D02*
X140934523Y-116494323D01*
X140934523Y-116494323D02*
X140886904Y-116589561D01*
X140886904Y-116589561D02*
X140791666Y-116684800D01*
X140791666Y-116684800D02*
X140648809Y-116732419D01*
X140648809Y-116732419D02*
X140410714Y-116732419D01*
X141934523Y-116732419D02*
X141363095Y-116732419D01*
X141648809Y-116732419D02*
X141648809Y-115732419D01*
X141648809Y-115732419D02*
X141553571Y-115875276D01*
X141553571Y-115875276D02*
X141458333Y-115970514D01*
X141458333Y-115970514D02*
X141363095Y-116018133D01*
X142315476Y-115827657D02*
X142363095Y-115780038D01*
X142363095Y-115780038D02*
X142458333Y-115732419D01*
X142458333Y-115732419D02*
X142696428Y-115732419D01*
X142696428Y-115732419D02*
X142791666Y-115780038D01*
X142791666Y-115780038D02*
X142839285Y-115827657D01*
X142839285Y-115827657D02*
X142886904Y-115922895D01*
X142886904Y-115922895D02*
X142886904Y-116018133D01*
X142886904Y-116018133D02*
X142839285Y-116160990D01*
X142839285Y-116160990D02*
X142267857Y-116732419D01*
X142267857Y-116732419D02*
X142886904Y-116732419D01*
D12*
X75524819Y-104083333D02*
X76239104Y-104083333D01*
X76239104Y-104083333D02*
X76381961Y-104130952D01*
X76381961Y-104130952D02*
X76477200Y-104226190D01*
X76477200Y-104226190D02*
X76524819Y-104369047D01*
X76524819Y-104369047D02*
X76524819Y-104464285D01*
X75524819Y-103702380D02*
X75524819Y-103083333D01*
X75524819Y-103083333D02*
X75905771Y-103416666D01*
X75905771Y-103416666D02*
X75905771Y-103273809D01*
X75905771Y-103273809D02*
X75953390Y-103178571D01*
X75953390Y-103178571D02*
X76001009Y-103130952D01*
X76001009Y-103130952D02*
X76096247Y-103083333D01*
X76096247Y-103083333D02*
X76334342Y-103083333D01*
X76334342Y-103083333D02*
X76429580Y-103130952D01*
X76429580Y-103130952D02*
X76477200Y-103178571D01*
X76477200Y-103178571D02*
X76524819Y-103273809D01*
X76524819Y-103273809D02*
X76524819Y-103559523D01*
X76524819Y-103559523D02*
X76477200Y-103654761D01*
X76477200Y-103654761D02*
X76429580Y-103702380D01*
X183304819Y-98392857D02*
X182828628Y-98726190D01*
X183304819Y-98964285D02*
X182304819Y-98964285D01*
X182304819Y-98964285D02*
X182304819Y-98583333D01*
X182304819Y-98583333D02*
X182352438Y-98488095D01*
X182352438Y-98488095D02*
X182400057Y-98440476D01*
X182400057Y-98440476D02*
X182495295Y-98392857D01*
X182495295Y-98392857D02*
X182638152Y-98392857D01*
X182638152Y-98392857D02*
X182733390Y-98440476D01*
X182733390Y-98440476D02*
X182781009Y-98488095D01*
X182781009Y-98488095D02*
X182828628Y-98583333D01*
X182828628Y-98583333D02*
X182828628Y-98964285D01*
X183304819Y-97440476D02*
X183304819Y-98011904D01*
X183304819Y-97726190D02*
X182304819Y-97726190D01*
X182304819Y-97726190D02*
X182447676Y-97821428D01*
X182447676Y-97821428D02*
X182542914Y-97916666D01*
X182542914Y-97916666D02*
X182590533Y-98011904D01*
X182304819Y-96583333D02*
X182304819Y-96773809D01*
X182304819Y-96773809D02*
X182352438Y-96869047D01*
X182352438Y-96869047D02*
X182400057Y-96916666D01*
X182400057Y-96916666D02*
X182542914Y-97011904D01*
X182542914Y-97011904D02*
X182733390Y-97059523D01*
X182733390Y-97059523D02*
X183114342Y-97059523D01*
X183114342Y-97059523D02*
X183209580Y-97011904D01*
X183209580Y-97011904D02*
X183257200Y-96964285D01*
X183257200Y-96964285D02*
X183304819Y-96869047D01*
X183304819Y-96869047D02*
X183304819Y-96678571D01*
X183304819Y-96678571D02*
X183257200Y-96583333D01*
X183257200Y-96583333D02*
X183209580Y-96535714D01*
X183209580Y-96535714D02*
X183114342Y-96488095D01*
X183114342Y-96488095D02*
X182876247Y-96488095D01*
X182876247Y-96488095D02*
X182781009Y-96535714D01*
X182781009Y-96535714D02*
X182733390Y-96583333D01*
X182733390Y-96583333D02*
X182685771Y-96678571D01*
X182685771Y-96678571D02*
X182685771Y-96869047D01*
X182685771Y-96869047D02*
X182733390Y-96964285D01*
X182733390Y-96964285D02*
X182781009Y-97011904D01*
X182781009Y-97011904D02*
X182876247Y-97059523D01*
D11*
X165460714Y-110232419D02*
X165460714Y-109232419D01*
X165460714Y-109232419D02*
X165698809Y-109232419D01*
X165698809Y-109232419D02*
X165841666Y-109280038D01*
X165841666Y-109280038D02*
X165936904Y-109375276D01*
X165936904Y-109375276D02*
X165984523Y-109470514D01*
X165984523Y-109470514D02*
X166032142Y-109660990D01*
X166032142Y-109660990D02*
X166032142Y-109803847D01*
X166032142Y-109803847D02*
X165984523Y-109994323D01*
X165984523Y-109994323D02*
X165936904Y-110089561D01*
X165936904Y-110089561D02*
X165841666Y-110184800D01*
X165841666Y-110184800D02*
X165698809Y-110232419D01*
X165698809Y-110232419D02*
X165460714Y-110232419D01*
X166413095Y-109327657D02*
X166460714Y-109280038D01*
X166460714Y-109280038D02*
X166555952Y-109232419D01*
X166555952Y-109232419D02*
X166794047Y-109232419D01*
X166794047Y-109232419D02*
X166889285Y-109280038D01*
X166889285Y-109280038D02*
X166936904Y-109327657D01*
X166936904Y-109327657D02*
X166984523Y-109422895D01*
X166984523Y-109422895D02*
X166984523Y-109518133D01*
X166984523Y-109518133D02*
X166936904Y-109660990D01*
X166936904Y-109660990D02*
X166365476Y-110232419D01*
X166365476Y-110232419D02*
X166984523Y-110232419D01*
X167841666Y-109232419D02*
X167651190Y-109232419D01*
X167651190Y-109232419D02*
X167555952Y-109280038D01*
X167555952Y-109280038D02*
X167508333Y-109327657D01*
X167508333Y-109327657D02*
X167413095Y-109470514D01*
X167413095Y-109470514D02*
X167365476Y-109660990D01*
X167365476Y-109660990D02*
X167365476Y-110041942D01*
X167365476Y-110041942D02*
X167413095Y-110137180D01*
X167413095Y-110137180D02*
X167460714Y-110184800D01*
X167460714Y-110184800D02*
X167555952Y-110232419D01*
X167555952Y-110232419D02*
X167746428Y-110232419D01*
X167746428Y-110232419D02*
X167841666Y-110184800D01*
X167841666Y-110184800D02*
X167889285Y-110137180D01*
X167889285Y-110137180D02*
X167936904Y-110041942D01*
X167936904Y-110041942D02*
X167936904Y-109803847D01*
X167936904Y-109803847D02*
X167889285Y-109708609D01*
X167889285Y-109708609D02*
X167841666Y-109660990D01*
X167841666Y-109660990D02*
X167746428Y-109613371D01*
X167746428Y-109613371D02*
X167555952Y-109613371D01*
X167555952Y-109613371D02*
X167460714Y-109660990D01*
X167460714Y-109660990D02*
X167413095Y-109708609D01*
X167413095Y-109708609D02*
X167365476Y-109803847D01*
D12*
X106383333Y-114904819D02*
X106050000Y-114428628D01*
X105811905Y-114904819D02*
X105811905Y-113904819D01*
X105811905Y-113904819D02*
X106192857Y-113904819D01*
X106192857Y-113904819D02*
X106288095Y-113952438D01*
X106288095Y-113952438D02*
X106335714Y-114000057D01*
X106335714Y-114000057D02*
X106383333Y-114095295D01*
X106383333Y-114095295D02*
X106383333Y-114238152D01*
X106383333Y-114238152D02*
X106335714Y-114333390D01*
X106335714Y-114333390D02*
X106288095Y-114381009D01*
X106288095Y-114381009D02*
X106192857Y-114428628D01*
X106192857Y-114428628D02*
X105811905Y-114428628D01*
X106764286Y-114000057D02*
X106811905Y-113952438D01*
X106811905Y-113952438D02*
X106907143Y-113904819D01*
X106907143Y-113904819D02*
X107145238Y-113904819D01*
X107145238Y-113904819D02*
X107240476Y-113952438D01*
X107240476Y-113952438D02*
X107288095Y-114000057D01*
X107288095Y-114000057D02*
X107335714Y-114095295D01*
X107335714Y-114095295D02*
X107335714Y-114190533D01*
X107335714Y-114190533D02*
X107288095Y-114333390D01*
X107288095Y-114333390D02*
X106716667Y-114904819D01*
X106716667Y-114904819D02*
X107335714Y-114904819D01*
X91534819Y-97113333D02*
X92249104Y-97113333D01*
X92249104Y-97113333D02*
X92391961Y-97160952D01*
X92391961Y-97160952D02*
X92487200Y-97256190D01*
X92487200Y-97256190D02*
X92534819Y-97399047D01*
X92534819Y-97399047D02*
X92534819Y-97494285D01*
X91868152Y-96208571D02*
X92534819Y-96208571D01*
X91487200Y-96446666D02*
X92201485Y-96684761D01*
X92201485Y-96684761D02*
X92201485Y-96065714D01*
D11*
X130886905Y-116732419D02*
X130886905Y-115732419D01*
X130886905Y-115732419D02*
X131125000Y-115732419D01*
X131125000Y-115732419D02*
X131267857Y-115780038D01*
X131267857Y-115780038D02*
X131363095Y-115875276D01*
X131363095Y-115875276D02*
X131410714Y-115970514D01*
X131410714Y-115970514D02*
X131458333Y-116160990D01*
X131458333Y-116160990D02*
X131458333Y-116303847D01*
X131458333Y-116303847D02*
X131410714Y-116494323D01*
X131410714Y-116494323D02*
X131363095Y-116589561D01*
X131363095Y-116589561D02*
X131267857Y-116684800D01*
X131267857Y-116684800D02*
X131125000Y-116732419D01*
X131125000Y-116732419D02*
X130886905Y-116732419D01*
X132315476Y-115732419D02*
X132125000Y-115732419D01*
X132125000Y-115732419D02*
X132029762Y-115780038D01*
X132029762Y-115780038D02*
X131982143Y-115827657D01*
X131982143Y-115827657D02*
X131886905Y-115970514D01*
X131886905Y-115970514D02*
X131839286Y-116160990D01*
X131839286Y-116160990D02*
X131839286Y-116541942D01*
X131839286Y-116541942D02*
X131886905Y-116637180D01*
X131886905Y-116637180D02*
X131934524Y-116684800D01*
X131934524Y-116684800D02*
X132029762Y-116732419D01*
X132029762Y-116732419D02*
X132220238Y-116732419D01*
X132220238Y-116732419D02*
X132315476Y-116684800D01*
X132315476Y-116684800D02*
X132363095Y-116637180D01*
X132363095Y-116637180D02*
X132410714Y-116541942D01*
X132410714Y-116541942D02*
X132410714Y-116303847D01*
X132410714Y-116303847D02*
X132363095Y-116208609D01*
X132363095Y-116208609D02*
X132315476Y-116160990D01*
X132315476Y-116160990D02*
X132220238Y-116113371D01*
X132220238Y-116113371D02*
X132029762Y-116113371D01*
X132029762Y-116113371D02*
X131934524Y-116160990D01*
X131934524Y-116160990D02*
X131886905Y-116208609D01*
X131886905Y-116208609D02*
X131839286Y-116303847D01*
D12*
X163479819Y-98392857D02*
X163003628Y-98726190D01*
X163479819Y-98964285D02*
X162479819Y-98964285D01*
X162479819Y-98964285D02*
X162479819Y-98583333D01*
X162479819Y-98583333D02*
X162527438Y-98488095D01*
X162527438Y-98488095D02*
X162575057Y-98440476D01*
X162575057Y-98440476D02*
X162670295Y-98392857D01*
X162670295Y-98392857D02*
X162813152Y-98392857D01*
X162813152Y-98392857D02*
X162908390Y-98440476D01*
X162908390Y-98440476D02*
X162956009Y-98488095D01*
X162956009Y-98488095D02*
X163003628Y-98583333D01*
X163003628Y-98583333D02*
X163003628Y-98964285D01*
X163479819Y-97440476D02*
X163479819Y-98011904D01*
X163479819Y-97726190D02*
X162479819Y-97726190D01*
X162479819Y-97726190D02*
X162622676Y-97821428D01*
X162622676Y-97821428D02*
X162717914Y-97916666D01*
X162717914Y-97916666D02*
X162765533Y-98011904D01*
X162575057Y-97059523D02*
X162527438Y-97011904D01*
X162527438Y-97011904D02*
X162479819Y-96916666D01*
X162479819Y-96916666D02*
X162479819Y-96678571D01*
X162479819Y-96678571D02*
X162527438Y-96583333D01*
X162527438Y-96583333D02*
X162575057Y-96535714D01*
X162575057Y-96535714D02*
X162670295Y-96488095D01*
X162670295Y-96488095D02*
X162765533Y-96488095D01*
X162765533Y-96488095D02*
X162908390Y-96535714D01*
X162908390Y-96535714D02*
X163479819Y-97107142D01*
X163479819Y-97107142D02*
X163479819Y-96488095D01*
X135104819Y-97916666D02*
X134628628Y-98249999D01*
X135104819Y-98488094D02*
X134104819Y-98488094D01*
X134104819Y-98488094D02*
X134104819Y-98107142D01*
X134104819Y-98107142D02*
X134152438Y-98011904D01*
X134152438Y-98011904D02*
X134200057Y-97964285D01*
X134200057Y-97964285D02*
X134295295Y-97916666D01*
X134295295Y-97916666D02*
X134438152Y-97916666D01*
X134438152Y-97916666D02*
X134533390Y-97964285D01*
X134533390Y-97964285D02*
X134581009Y-98011904D01*
X134581009Y-98011904D02*
X134628628Y-98107142D01*
X134628628Y-98107142D02*
X134628628Y-98488094D01*
X134104819Y-97583332D02*
X134104819Y-96916666D01*
X134104819Y-96916666D02*
X135104819Y-97345237D01*
X118583333Y-109359580D02*
X118535714Y-109407200D01*
X118535714Y-109407200D02*
X118392857Y-109454819D01*
X118392857Y-109454819D02*
X118297619Y-109454819D01*
X118297619Y-109454819D02*
X118154762Y-109407200D01*
X118154762Y-109407200D02*
X118059524Y-109311961D01*
X118059524Y-109311961D02*
X118011905Y-109216723D01*
X118011905Y-109216723D02*
X117964286Y-109026247D01*
X117964286Y-109026247D02*
X117964286Y-108883390D01*
X117964286Y-108883390D02*
X118011905Y-108692914D01*
X118011905Y-108692914D02*
X118059524Y-108597676D01*
X118059524Y-108597676D02*
X118154762Y-108502438D01*
X118154762Y-108502438D02*
X118297619Y-108454819D01*
X118297619Y-108454819D02*
X118392857Y-108454819D01*
X118392857Y-108454819D02*
X118535714Y-108502438D01*
X118535714Y-108502438D02*
X118583333Y-108550057D01*
X118916667Y-108454819D02*
X119535714Y-108454819D01*
X119535714Y-108454819D02*
X119202381Y-108835771D01*
X119202381Y-108835771D02*
X119345238Y-108835771D01*
X119345238Y-108835771D02*
X119440476Y-108883390D01*
X119440476Y-108883390D02*
X119488095Y-108931009D01*
X119488095Y-108931009D02*
X119535714Y-109026247D01*
X119535714Y-109026247D02*
X119535714Y-109264342D01*
X119535714Y-109264342D02*
X119488095Y-109359580D01*
X119488095Y-109359580D02*
X119440476Y-109407200D01*
X119440476Y-109407200D02*
X119345238Y-109454819D01*
X119345238Y-109454819D02*
X119059524Y-109454819D01*
X119059524Y-109454819D02*
X118964286Y-109407200D01*
X118964286Y-109407200D02*
X118916667Y-109359580D01*
D11*
X155410714Y-103732419D02*
X155410714Y-102732419D01*
X155410714Y-102732419D02*
X155648809Y-102732419D01*
X155648809Y-102732419D02*
X155791666Y-102780038D01*
X155791666Y-102780038D02*
X155886904Y-102875276D01*
X155886904Y-102875276D02*
X155934523Y-102970514D01*
X155934523Y-102970514D02*
X155982142Y-103160990D01*
X155982142Y-103160990D02*
X155982142Y-103303847D01*
X155982142Y-103303847D02*
X155934523Y-103494323D01*
X155934523Y-103494323D02*
X155886904Y-103589561D01*
X155886904Y-103589561D02*
X155791666Y-103684800D01*
X155791666Y-103684800D02*
X155648809Y-103732419D01*
X155648809Y-103732419D02*
X155410714Y-103732419D01*
X156934523Y-103732419D02*
X156363095Y-103732419D01*
X156648809Y-103732419D02*
X156648809Y-102732419D01*
X156648809Y-102732419D02*
X156553571Y-102875276D01*
X156553571Y-102875276D02*
X156458333Y-102970514D01*
X156458333Y-102970514D02*
X156363095Y-103018133D01*
X157410714Y-103732419D02*
X157601190Y-103732419D01*
X157601190Y-103732419D02*
X157696428Y-103684800D01*
X157696428Y-103684800D02*
X157744047Y-103637180D01*
X157744047Y-103637180D02*
X157839285Y-103494323D01*
X157839285Y-103494323D02*
X157886904Y-103303847D01*
X157886904Y-103303847D02*
X157886904Y-102922895D01*
X157886904Y-102922895D02*
X157839285Y-102827657D01*
X157839285Y-102827657D02*
X157791666Y-102780038D01*
X157791666Y-102780038D02*
X157696428Y-102732419D01*
X157696428Y-102732419D02*
X157505952Y-102732419D01*
X157505952Y-102732419D02*
X157410714Y-102780038D01*
X157410714Y-102780038D02*
X157363095Y-102827657D01*
X157363095Y-102827657D02*
X157315476Y-102922895D01*
X157315476Y-102922895D02*
X157315476Y-103160990D01*
X157315476Y-103160990D02*
X157363095Y-103256228D01*
X157363095Y-103256228D02*
X157410714Y-103303847D01*
X157410714Y-103303847D02*
X157505952Y-103351466D01*
X157505952Y-103351466D02*
X157696428Y-103351466D01*
X157696428Y-103351466D02*
X157791666Y-103303847D01*
X157791666Y-103303847D02*
X157839285Y-103256228D01*
X157839285Y-103256228D02*
X157886904Y-103160990D01*
X125886905Y-110232419D02*
X125886905Y-109232419D01*
X125886905Y-109232419D02*
X126125000Y-109232419D01*
X126125000Y-109232419D02*
X126267857Y-109280038D01*
X126267857Y-109280038D02*
X126363095Y-109375276D01*
X126363095Y-109375276D02*
X126410714Y-109470514D01*
X126410714Y-109470514D02*
X126458333Y-109660990D01*
X126458333Y-109660990D02*
X126458333Y-109803847D01*
X126458333Y-109803847D02*
X126410714Y-109994323D01*
X126410714Y-109994323D02*
X126363095Y-110089561D01*
X126363095Y-110089561D02*
X126267857Y-110184800D01*
X126267857Y-110184800D02*
X126125000Y-110232419D01*
X126125000Y-110232419D02*
X125886905Y-110232419D01*
X126839286Y-109327657D02*
X126886905Y-109280038D01*
X126886905Y-109280038D02*
X126982143Y-109232419D01*
X126982143Y-109232419D02*
X127220238Y-109232419D01*
X127220238Y-109232419D02*
X127315476Y-109280038D01*
X127315476Y-109280038D02*
X127363095Y-109327657D01*
X127363095Y-109327657D02*
X127410714Y-109422895D01*
X127410714Y-109422895D02*
X127410714Y-109518133D01*
X127410714Y-109518133D02*
X127363095Y-109660990D01*
X127363095Y-109660990D02*
X126791667Y-110232419D01*
X126791667Y-110232419D02*
X127410714Y-110232419D01*
X125886905Y-103732419D02*
X125886905Y-102732419D01*
X125886905Y-102732419D02*
X126125000Y-102732419D01*
X126125000Y-102732419D02*
X126267857Y-102780038D01*
X126267857Y-102780038D02*
X126363095Y-102875276D01*
X126363095Y-102875276D02*
X126410714Y-102970514D01*
X126410714Y-102970514D02*
X126458333Y-103160990D01*
X126458333Y-103160990D02*
X126458333Y-103303847D01*
X126458333Y-103303847D02*
X126410714Y-103494323D01*
X126410714Y-103494323D02*
X126363095Y-103589561D01*
X126363095Y-103589561D02*
X126267857Y-103684800D01*
X126267857Y-103684800D02*
X126125000Y-103732419D01*
X126125000Y-103732419D02*
X125886905Y-103732419D01*
X127410714Y-103732419D02*
X126839286Y-103732419D01*
X127125000Y-103732419D02*
X127125000Y-102732419D01*
X127125000Y-102732419D02*
X127029762Y-102875276D01*
X127029762Y-102875276D02*
X126934524Y-102970514D01*
X126934524Y-102970514D02*
X126839286Y-103018133D01*
D12*
X175204819Y-98392857D02*
X174728628Y-98726190D01*
X175204819Y-98964285D02*
X174204819Y-98964285D01*
X174204819Y-98964285D02*
X174204819Y-98583333D01*
X174204819Y-98583333D02*
X174252438Y-98488095D01*
X174252438Y-98488095D02*
X174300057Y-98440476D01*
X174300057Y-98440476D02*
X174395295Y-98392857D01*
X174395295Y-98392857D02*
X174538152Y-98392857D01*
X174538152Y-98392857D02*
X174633390Y-98440476D01*
X174633390Y-98440476D02*
X174681009Y-98488095D01*
X174681009Y-98488095D02*
X174728628Y-98583333D01*
X174728628Y-98583333D02*
X174728628Y-98964285D01*
X175204819Y-97440476D02*
X175204819Y-98011904D01*
X175204819Y-97726190D02*
X174204819Y-97726190D01*
X174204819Y-97726190D02*
X174347676Y-97821428D01*
X174347676Y-97821428D02*
X174442914Y-97916666D01*
X174442914Y-97916666D02*
X174490533Y-98011904D01*
X174204819Y-96535714D02*
X174204819Y-97011904D01*
X174204819Y-97011904D02*
X174681009Y-97059523D01*
X174681009Y-97059523D02*
X174633390Y-97011904D01*
X174633390Y-97011904D02*
X174585771Y-96916666D01*
X174585771Y-96916666D02*
X174585771Y-96678571D01*
X174585771Y-96678571D02*
X174633390Y-96583333D01*
X174633390Y-96583333D02*
X174681009Y-96535714D01*
X174681009Y-96535714D02*
X174776247Y-96488095D01*
X174776247Y-96488095D02*
X175014342Y-96488095D01*
X175014342Y-96488095D02*
X175109580Y-96535714D01*
X175109580Y-96535714D02*
X175157200Y-96583333D01*
X175157200Y-96583333D02*
X175204819Y-96678571D01*
X175204819Y-96678571D02*
X175204819Y-96916666D01*
X175204819Y-96916666D02*
X175157200Y-97011904D01*
X175157200Y-97011904D02*
X175109580Y-97059523D01*
X199008333Y-97069819D02*
X198532143Y-97069819D01*
X198532143Y-97069819D02*
X198532143Y-96069819D01*
X199865476Y-97069819D02*
X199294048Y-97069819D01*
X199579762Y-97069819D02*
X199579762Y-96069819D01*
X199579762Y-96069819D02*
X199484524Y-96212676D01*
X199484524Y-96212676D02*
X199389286Y-96307914D01*
X199389286Y-96307914D02*
X199294048Y-96355533D01*
X202747142Y-98050000D02*
X203752857Y-98050000D01*
X203249999Y-98552857D02*
X203249999Y-97547142D01*
X202747142Y-117700000D02*
X203752857Y-117700000D01*
X145204819Y-97916666D02*
X144728628Y-98249999D01*
X145204819Y-98488094D02*
X144204819Y-98488094D01*
X144204819Y-98488094D02*
X144204819Y-98107142D01*
X144204819Y-98107142D02*
X144252438Y-98011904D01*
X144252438Y-98011904D02*
X144300057Y-97964285D01*
X144300057Y-97964285D02*
X144395295Y-97916666D01*
X144395295Y-97916666D02*
X144538152Y-97916666D01*
X144538152Y-97916666D02*
X144633390Y-97964285D01*
X144633390Y-97964285D02*
X144681009Y-98011904D01*
X144681009Y-98011904D02*
X144728628Y-98107142D01*
X144728628Y-98107142D02*
X144728628Y-98488094D01*
X145204819Y-97440475D02*
X145204819Y-97249999D01*
X145204819Y-97249999D02*
X145157200Y-97154761D01*
X145157200Y-97154761D02*
X145109580Y-97107142D01*
X145109580Y-97107142D02*
X144966723Y-97011904D01*
X144966723Y-97011904D02*
X144776247Y-96964285D01*
X144776247Y-96964285D02*
X144395295Y-96964285D01*
X144395295Y-96964285D02*
X144300057Y-97011904D01*
X144300057Y-97011904D02*
X144252438Y-97059523D01*
X144252438Y-97059523D02*
X144204819Y-97154761D01*
X144204819Y-97154761D02*
X144204819Y-97345237D01*
X144204819Y-97345237D02*
X144252438Y-97440475D01*
X144252438Y-97440475D02*
X144300057Y-97488094D01*
X144300057Y-97488094D02*
X144395295Y-97535713D01*
X144395295Y-97535713D02*
X144633390Y-97535713D01*
X144633390Y-97535713D02*
X144728628Y-97488094D01*
X144728628Y-97488094D02*
X144776247Y-97440475D01*
X144776247Y-97440475D02*
X144823866Y-97345237D01*
X144823866Y-97345237D02*
X144823866Y-97154761D01*
X144823866Y-97154761D02*
X144776247Y-97059523D01*
X144776247Y-97059523D02*
X144728628Y-97011904D01*
X144728628Y-97011904D02*
X144633390Y-96964285D01*
D11*
X175410714Y-116732419D02*
X175410714Y-115732419D01*
X175410714Y-115732419D02*
X175648809Y-115732419D01*
X175648809Y-115732419D02*
X175791666Y-115780038D01*
X175791666Y-115780038D02*
X175886904Y-115875276D01*
X175886904Y-115875276D02*
X175934523Y-115970514D01*
X175934523Y-115970514D02*
X175982142Y-116160990D01*
X175982142Y-116160990D02*
X175982142Y-116303847D01*
X175982142Y-116303847D02*
X175934523Y-116494323D01*
X175934523Y-116494323D02*
X175886904Y-116589561D01*
X175886904Y-116589561D02*
X175791666Y-116684800D01*
X175791666Y-116684800D02*
X175648809Y-116732419D01*
X175648809Y-116732419D02*
X175410714Y-116732419D01*
X176315476Y-115732419D02*
X176934523Y-115732419D01*
X176934523Y-115732419D02*
X176601190Y-116113371D01*
X176601190Y-116113371D02*
X176744047Y-116113371D01*
X176744047Y-116113371D02*
X176839285Y-116160990D01*
X176839285Y-116160990D02*
X176886904Y-116208609D01*
X176886904Y-116208609D02*
X176934523Y-116303847D01*
X176934523Y-116303847D02*
X176934523Y-116541942D01*
X176934523Y-116541942D02*
X176886904Y-116637180D01*
X176886904Y-116637180D02*
X176839285Y-116684800D01*
X176839285Y-116684800D02*
X176744047Y-116732419D01*
X176744047Y-116732419D02*
X176458333Y-116732419D01*
X176458333Y-116732419D02*
X176363095Y-116684800D01*
X176363095Y-116684800D02*
X176315476Y-116637180D01*
X177267857Y-115732419D02*
X177886904Y-115732419D01*
X177886904Y-115732419D02*
X177553571Y-116113371D01*
X177553571Y-116113371D02*
X177696428Y-116113371D01*
X177696428Y-116113371D02*
X177791666Y-116160990D01*
X177791666Y-116160990D02*
X177839285Y-116208609D01*
X177839285Y-116208609D02*
X177886904Y-116303847D01*
X177886904Y-116303847D02*
X177886904Y-116541942D01*
X177886904Y-116541942D02*
X177839285Y-116637180D01*
X177839285Y-116637180D02*
X177791666Y-116684800D01*
X177791666Y-116684800D02*
X177696428Y-116732419D01*
X177696428Y-116732419D02*
X177410714Y-116732419D01*
X177410714Y-116732419D02*
X177315476Y-116684800D01*
X177315476Y-116684800D02*
X177267857Y-116637180D01*
X185241469Y-110232419D02*
X185241469Y-109232419D01*
X185241469Y-109232419D02*
X185479564Y-109232419D01*
X185479564Y-109232419D02*
X185622421Y-109280038D01*
X185622421Y-109280038D02*
X185717659Y-109375276D01*
X185717659Y-109375276D02*
X185765278Y-109470514D01*
X185765278Y-109470514D02*
X185812897Y-109660990D01*
X185812897Y-109660990D02*
X185812897Y-109803847D01*
X185812897Y-109803847D02*
X185765278Y-109994323D01*
X185765278Y-109994323D02*
X185717659Y-110089561D01*
X185717659Y-110089561D02*
X185622421Y-110184800D01*
X185622421Y-110184800D02*
X185479564Y-110232419D01*
X185479564Y-110232419D02*
X185241469Y-110232419D01*
X186146231Y-109232419D02*
X186765278Y-109232419D01*
X186765278Y-109232419D02*
X186431945Y-109613371D01*
X186431945Y-109613371D02*
X186574802Y-109613371D01*
X186574802Y-109613371D02*
X186670040Y-109660990D01*
X186670040Y-109660990D02*
X186717659Y-109708609D01*
X186717659Y-109708609D02*
X186765278Y-109803847D01*
X186765278Y-109803847D02*
X186765278Y-110041942D01*
X186765278Y-110041942D02*
X186717659Y-110137180D01*
X186717659Y-110137180D02*
X186670040Y-110184800D01*
X186670040Y-110184800D02*
X186574802Y-110232419D01*
X186574802Y-110232419D02*
X186289088Y-110232419D01*
X186289088Y-110232419D02*
X186193850Y-110184800D01*
X186193850Y-110184800D02*
X186146231Y-110137180D01*
X187336707Y-109660990D02*
X187241469Y-109613371D01*
X187241469Y-109613371D02*
X187193850Y-109565752D01*
X187193850Y-109565752D02*
X187146231Y-109470514D01*
X187146231Y-109470514D02*
X187146231Y-109422895D01*
X187146231Y-109422895D02*
X187193850Y-109327657D01*
X187193850Y-109327657D02*
X187241469Y-109280038D01*
X187241469Y-109280038D02*
X187336707Y-109232419D01*
X187336707Y-109232419D02*
X187527183Y-109232419D01*
X187527183Y-109232419D02*
X187622421Y-109280038D01*
X187622421Y-109280038D02*
X187670040Y-109327657D01*
X187670040Y-109327657D02*
X187717659Y-109422895D01*
X187717659Y-109422895D02*
X187717659Y-109470514D01*
X187717659Y-109470514D02*
X187670040Y-109565752D01*
X187670040Y-109565752D02*
X187622421Y-109613371D01*
X187622421Y-109613371D02*
X187527183Y-109660990D01*
X187527183Y-109660990D02*
X187336707Y-109660990D01*
X187336707Y-109660990D02*
X187241469Y-109708609D01*
X187241469Y-109708609D02*
X187193850Y-109756228D01*
X187193850Y-109756228D02*
X187146231Y-109851466D01*
X187146231Y-109851466D02*
X187146231Y-110041942D01*
X187146231Y-110041942D02*
X187193850Y-110137180D01*
X187193850Y-110137180D02*
X187241469Y-110184800D01*
X187241469Y-110184800D02*
X187336707Y-110232419D01*
X187336707Y-110232419D02*
X187527183Y-110232419D01*
X187527183Y-110232419D02*
X187622421Y-110184800D01*
X187622421Y-110184800D02*
X187670040Y-110137180D01*
X187670040Y-110137180D02*
X187717659Y-110041942D01*
X187717659Y-110041942D02*
X187717659Y-109851466D01*
X187717659Y-109851466D02*
X187670040Y-109756228D01*
X187670040Y-109756228D02*
X187622421Y-109708609D01*
X187622421Y-109708609D02*
X187527183Y-109660990D01*
D12*
X120366667Y-113584219D02*
X120414286Y-113536600D01*
X120414286Y-113536600D02*
X120557143Y-113488980D01*
X120557143Y-113488980D02*
X120652381Y-113488980D01*
X120652381Y-113488980D02*
X120795238Y-113536600D01*
X120795238Y-113536600D02*
X120890476Y-113631838D01*
X120890476Y-113631838D02*
X120938095Y-113727076D01*
X120938095Y-113727076D02*
X120985714Y-113917552D01*
X120985714Y-113917552D02*
X120985714Y-114060409D01*
X120985714Y-114060409D02*
X120938095Y-114250885D01*
X120938095Y-114250885D02*
X120890476Y-114346123D01*
X120890476Y-114346123D02*
X120795238Y-114441361D01*
X120795238Y-114441361D02*
X120652381Y-114488980D01*
X120652381Y-114488980D02*
X120557143Y-114488980D01*
X120557143Y-114488980D02*
X120414286Y-114441361D01*
X120414286Y-114441361D02*
X120366667Y-114393742D01*
X119366667Y-113488980D02*
X119700000Y-113965171D01*
X119938095Y-113488980D02*
X119938095Y-114488980D01*
X119938095Y-114488980D02*
X119557143Y-114488980D01*
X119557143Y-114488980D02*
X119461905Y-114441361D01*
X119461905Y-114441361D02*
X119414286Y-114393742D01*
X119414286Y-114393742D02*
X119366667Y-114298504D01*
X119366667Y-114298504D02*
X119366667Y-114155647D01*
X119366667Y-114155647D02*
X119414286Y-114060409D01*
X119414286Y-114060409D02*
X119461905Y-114012790D01*
X119461905Y-114012790D02*
X119557143Y-113965171D01*
X119557143Y-113965171D02*
X119938095Y-113965171D01*
X118985714Y-114393742D02*
X118938095Y-114441361D01*
X118938095Y-114441361D02*
X118842857Y-114488980D01*
X118842857Y-114488980D02*
X118604762Y-114488980D01*
X118604762Y-114488980D02*
X118509524Y-114441361D01*
X118509524Y-114441361D02*
X118461905Y-114393742D01*
X118461905Y-114393742D02*
X118414286Y-114298504D01*
X118414286Y-114298504D02*
X118414286Y-114203266D01*
X118414286Y-114203266D02*
X118461905Y-114060409D01*
X118461905Y-114060409D02*
X119033333Y-113488980D01*
X119033333Y-113488980D02*
X118414286Y-113488980D01*
X115289580Y-95416666D02*
X115337200Y-95464285D01*
X115337200Y-95464285D02*
X115384819Y-95607142D01*
X115384819Y-95607142D02*
X115384819Y-95702380D01*
X115384819Y-95702380D02*
X115337200Y-95845237D01*
X115337200Y-95845237D02*
X115241961Y-95940475D01*
X115241961Y-95940475D02*
X115146723Y-95988094D01*
X115146723Y-95988094D02*
X114956247Y-96035713D01*
X114956247Y-96035713D02*
X114813390Y-96035713D01*
X114813390Y-96035713D02*
X114622914Y-95988094D01*
X114622914Y-95988094D02*
X114527676Y-95940475D01*
X114527676Y-95940475D02*
X114432438Y-95845237D01*
X114432438Y-95845237D02*
X114384819Y-95702380D01*
X114384819Y-95702380D02*
X114384819Y-95607142D01*
X114384819Y-95607142D02*
X114432438Y-95464285D01*
X114432438Y-95464285D02*
X114480057Y-95416666D01*
X114718152Y-94559523D02*
X115384819Y-94559523D01*
X114337200Y-94797618D02*
X115051485Y-95035713D01*
X115051485Y-95035713D02*
X115051485Y-94416666D01*
X112971008Y-106570186D02*
X113018627Y-106522567D01*
X113018627Y-106522567D02*
X113161484Y-106474947D01*
X113161484Y-106474947D02*
X113256722Y-106474947D01*
X113256722Y-106474947D02*
X113399579Y-106522567D01*
X113399579Y-106522567D02*
X113494817Y-106617805D01*
X113494817Y-106617805D02*
X113542436Y-106713043D01*
X113542436Y-106713043D02*
X113590055Y-106903519D01*
X113590055Y-106903519D02*
X113590055Y-107046376D01*
X113590055Y-107046376D02*
X113542436Y-107236852D01*
X113542436Y-107236852D02*
X113494817Y-107332090D01*
X113494817Y-107332090D02*
X113399579Y-107427328D01*
X113399579Y-107427328D02*
X113256722Y-107474947D01*
X113256722Y-107474947D02*
X113161484Y-107474947D01*
X113161484Y-107474947D02*
X113018627Y-107427328D01*
X113018627Y-107427328D02*
X112971008Y-107379709D01*
X111971008Y-106474947D02*
X112304341Y-106951138D01*
X112542436Y-106474947D02*
X112542436Y-107474947D01*
X112542436Y-107474947D02*
X112161484Y-107474947D01*
X112161484Y-107474947D02*
X112066246Y-107427328D01*
X112066246Y-107427328D02*
X112018627Y-107379709D01*
X112018627Y-107379709D02*
X111971008Y-107284471D01*
X111971008Y-107284471D02*
X111971008Y-107141614D01*
X111971008Y-107141614D02*
X112018627Y-107046376D01*
X112018627Y-107046376D02*
X112066246Y-106998757D01*
X112066246Y-106998757D02*
X112161484Y-106951138D01*
X112161484Y-106951138D02*
X112542436Y-106951138D01*
X111066246Y-107474947D02*
X111542436Y-107474947D01*
X111542436Y-107474947D02*
X111590055Y-106998757D01*
X111590055Y-106998757D02*
X111542436Y-107046376D01*
X111542436Y-107046376D02*
X111447198Y-107093995D01*
X111447198Y-107093995D02*
X111209103Y-107093995D01*
X111209103Y-107093995D02*
X111113865Y-107046376D01*
X111113865Y-107046376D02*
X111066246Y-106998757D01*
X111066246Y-106998757D02*
X111018627Y-106903519D01*
X111018627Y-106903519D02*
X111018627Y-106665424D01*
X111018627Y-106665424D02*
X111066246Y-106570186D01*
X111066246Y-106570186D02*
X111113865Y-106522567D01*
X111113865Y-106522567D02*
X111209103Y-106474947D01*
X111209103Y-106474947D02*
X111447198Y-106474947D01*
X111447198Y-106474947D02*
X111542436Y-106522567D01*
X111542436Y-106522567D02*
X111590055Y-106570186D01*
X97024295Y-112839819D02*
X97024295Y-113649342D01*
X97024295Y-113649342D02*
X97071914Y-113744580D01*
X97071914Y-113744580D02*
X97119533Y-113792200D01*
X97119533Y-113792200D02*
X97214771Y-113839819D01*
X97214771Y-113839819D02*
X97405247Y-113839819D01*
X97405247Y-113839819D02*
X97500485Y-113792200D01*
X97500485Y-113792200D02*
X97548104Y-113744580D01*
X97548104Y-113744580D02*
X97595723Y-113649342D01*
X97595723Y-113649342D02*
X97595723Y-112839819D01*
X97976676Y-112839819D02*
X98595723Y-112839819D01*
X98595723Y-112839819D02*
X98262390Y-113220771D01*
X98262390Y-113220771D02*
X98405247Y-113220771D01*
X98405247Y-113220771D02*
X98500485Y-113268390D01*
X98500485Y-113268390D02*
X98548104Y-113316009D01*
X98548104Y-113316009D02*
X98595723Y-113411247D01*
X98595723Y-113411247D02*
X98595723Y-113649342D01*
X98595723Y-113649342D02*
X98548104Y-113744580D01*
X98548104Y-113744580D02*
X98500485Y-113792200D01*
X98500485Y-113792200D02*
X98405247Y-113839819D01*
X98405247Y-113839819D02*
X98119533Y-113839819D01*
X98119533Y-113839819D02*
X98024295Y-113792200D01*
X98024295Y-113792200D02*
X97976676Y-113744580D01*
X95068400Y-109233019D02*
X95068400Y-109471114D01*
X94830305Y-109375876D02*
X95068400Y-109471114D01*
X95068400Y-109471114D02*
X95306495Y-109375876D01*
X94925543Y-109661590D02*
X95068400Y-109471114D01*
X95068400Y-109471114D02*
X95211257Y-109661590D01*
D11*
X175410714Y-110232419D02*
X175410714Y-109232419D01*
X175410714Y-109232419D02*
X175648809Y-109232419D01*
X175648809Y-109232419D02*
X175791666Y-109280038D01*
X175791666Y-109280038D02*
X175886904Y-109375276D01*
X175886904Y-109375276D02*
X175934523Y-109470514D01*
X175934523Y-109470514D02*
X175982142Y-109660990D01*
X175982142Y-109660990D02*
X175982142Y-109803847D01*
X175982142Y-109803847D02*
X175934523Y-109994323D01*
X175934523Y-109994323D02*
X175886904Y-110089561D01*
X175886904Y-110089561D02*
X175791666Y-110184800D01*
X175791666Y-110184800D02*
X175648809Y-110232419D01*
X175648809Y-110232419D02*
X175410714Y-110232419D01*
X176315476Y-109232419D02*
X176934523Y-109232419D01*
X176934523Y-109232419D02*
X176601190Y-109613371D01*
X176601190Y-109613371D02*
X176744047Y-109613371D01*
X176744047Y-109613371D02*
X176839285Y-109660990D01*
X176839285Y-109660990D02*
X176886904Y-109708609D01*
X176886904Y-109708609D02*
X176934523Y-109803847D01*
X176934523Y-109803847D02*
X176934523Y-110041942D01*
X176934523Y-110041942D02*
X176886904Y-110137180D01*
X176886904Y-110137180D02*
X176839285Y-110184800D01*
X176839285Y-110184800D02*
X176744047Y-110232419D01*
X176744047Y-110232419D02*
X176458333Y-110232419D01*
X176458333Y-110232419D02*
X176363095Y-110184800D01*
X176363095Y-110184800D02*
X176315476Y-110137180D01*
X177315476Y-109327657D02*
X177363095Y-109280038D01*
X177363095Y-109280038D02*
X177458333Y-109232419D01*
X177458333Y-109232419D02*
X177696428Y-109232419D01*
X177696428Y-109232419D02*
X177791666Y-109280038D01*
X177791666Y-109280038D02*
X177839285Y-109327657D01*
X177839285Y-109327657D02*
X177886904Y-109422895D01*
X177886904Y-109422895D02*
X177886904Y-109518133D01*
X177886904Y-109518133D02*
X177839285Y-109660990D01*
X177839285Y-109660990D02*
X177267857Y-110232419D01*
X177267857Y-110232419D02*
X177886904Y-110232419D01*
X175410714Y-103732419D02*
X175410714Y-102732419D01*
X175410714Y-102732419D02*
X175648809Y-102732419D01*
X175648809Y-102732419D02*
X175791666Y-102780038D01*
X175791666Y-102780038D02*
X175886904Y-102875276D01*
X175886904Y-102875276D02*
X175934523Y-102970514D01*
X175934523Y-102970514D02*
X175982142Y-103160990D01*
X175982142Y-103160990D02*
X175982142Y-103303847D01*
X175982142Y-103303847D02*
X175934523Y-103494323D01*
X175934523Y-103494323D02*
X175886904Y-103589561D01*
X175886904Y-103589561D02*
X175791666Y-103684800D01*
X175791666Y-103684800D02*
X175648809Y-103732419D01*
X175648809Y-103732419D02*
X175410714Y-103732419D01*
X176315476Y-102732419D02*
X176934523Y-102732419D01*
X176934523Y-102732419D02*
X176601190Y-103113371D01*
X176601190Y-103113371D02*
X176744047Y-103113371D01*
X176744047Y-103113371D02*
X176839285Y-103160990D01*
X176839285Y-103160990D02*
X176886904Y-103208609D01*
X176886904Y-103208609D02*
X176934523Y-103303847D01*
X176934523Y-103303847D02*
X176934523Y-103541942D01*
X176934523Y-103541942D02*
X176886904Y-103637180D01*
X176886904Y-103637180D02*
X176839285Y-103684800D01*
X176839285Y-103684800D02*
X176744047Y-103732419D01*
X176744047Y-103732419D02*
X176458333Y-103732419D01*
X176458333Y-103732419D02*
X176363095Y-103684800D01*
X176363095Y-103684800D02*
X176315476Y-103637180D01*
X177886904Y-103732419D02*
X177315476Y-103732419D01*
X177601190Y-103732419D02*
X177601190Y-102732419D01*
X177601190Y-102732419D02*
X177505952Y-102875276D01*
X177505952Y-102875276D02*
X177410714Y-102970514D01*
X177410714Y-102970514D02*
X177315476Y-103018133D01*
X190360714Y-103732419D02*
X190360714Y-102732419D01*
X190360714Y-102732419D02*
X190598809Y-102732419D01*
X190598809Y-102732419D02*
X190741666Y-102780038D01*
X190741666Y-102780038D02*
X190836904Y-102875276D01*
X190836904Y-102875276D02*
X190884523Y-102970514D01*
X190884523Y-102970514D02*
X190932142Y-103160990D01*
X190932142Y-103160990D02*
X190932142Y-103303847D01*
X190932142Y-103303847D02*
X190884523Y-103494323D01*
X190884523Y-103494323D02*
X190836904Y-103589561D01*
X190836904Y-103589561D02*
X190741666Y-103684800D01*
X190741666Y-103684800D02*
X190598809Y-103732419D01*
X190598809Y-103732419D02*
X190360714Y-103732419D01*
X191789285Y-103065752D02*
X191789285Y-103732419D01*
X191551190Y-102684800D02*
X191313095Y-103399085D01*
X191313095Y-103399085D02*
X191932142Y-103399085D01*
X192503571Y-102732419D02*
X192598809Y-102732419D01*
X192598809Y-102732419D02*
X192694047Y-102780038D01*
X192694047Y-102780038D02*
X192741666Y-102827657D01*
X192741666Y-102827657D02*
X192789285Y-102922895D01*
X192789285Y-102922895D02*
X192836904Y-103113371D01*
X192836904Y-103113371D02*
X192836904Y-103351466D01*
X192836904Y-103351466D02*
X192789285Y-103541942D01*
X192789285Y-103541942D02*
X192741666Y-103637180D01*
X192741666Y-103637180D02*
X192694047Y-103684800D01*
X192694047Y-103684800D02*
X192598809Y-103732419D01*
X192598809Y-103732419D02*
X192503571Y-103732419D01*
X192503571Y-103732419D02*
X192408333Y-103684800D01*
X192408333Y-103684800D02*
X192360714Y-103637180D01*
X192360714Y-103637180D02*
X192313095Y-103541942D01*
X192313095Y-103541942D02*
X192265476Y-103351466D01*
X192265476Y-103351466D02*
X192265476Y-103113371D01*
X192265476Y-103113371D02*
X192313095Y-102922895D01*
X192313095Y-102922895D02*
X192360714Y-102827657D01*
X192360714Y-102827657D02*
X192408333Y-102780038D01*
X192408333Y-102780038D02*
X192503571Y-102732419D01*
D12*
X109390476Y-114312295D02*
X109390476Y-114959914D01*
X109390476Y-114959914D02*
X109428571Y-115036104D01*
X109428571Y-115036104D02*
X109466666Y-115074200D01*
X109466666Y-115074200D02*
X109542857Y-115112295D01*
X109542857Y-115112295D02*
X109695238Y-115112295D01*
X109695238Y-115112295D02*
X109771428Y-115074200D01*
X109771428Y-115074200D02*
X109809523Y-115036104D01*
X109809523Y-115036104D02*
X109847619Y-114959914D01*
X109847619Y-114959914D02*
X109847619Y-114312295D01*
X110190475Y-114388485D02*
X110228571Y-114350390D01*
X110228571Y-114350390D02*
X110304761Y-114312295D01*
X110304761Y-114312295D02*
X110495237Y-114312295D01*
X110495237Y-114312295D02*
X110571428Y-114350390D01*
X110571428Y-114350390D02*
X110609523Y-114388485D01*
X110609523Y-114388485D02*
X110647618Y-114464676D01*
X110647618Y-114464676D02*
X110647618Y-114540866D01*
X110647618Y-114540866D02*
X110609523Y-114655152D01*
X110609523Y-114655152D02*
X110152380Y-115112295D01*
X110152380Y-115112295D02*
X110647618Y-115112295D01*
X155204819Y-98325700D02*
X154728628Y-98659033D01*
X155204819Y-98897128D02*
X154204819Y-98897128D01*
X154204819Y-98897128D02*
X154204819Y-98516176D01*
X154204819Y-98516176D02*
X154252438Y-98420938D01*
X154252438Y-98420938D02*
X154300057Y-98373319D01*
X154300057Y-98373319D02*
X154395295Y-98325700D01*
X154395295Y-98325700D02*
X154538152Y-98325700D01*
X154538152Y-98325700D02*
X154633390Y-98373319D01*
X154633390Y-98373319D02*
X154681009Y-98420938D01*
X154681009Y-98420938D02*
X154728628Y-98516176D01*
X154728628Y-98516176D02*
X154728628Y-98897128D01*
X155204819Y-97373319D02*
X155204819Y-97944747D01*
X155204819Y-97659033D02*
X154204819Y-97659033D01*
X154204819Y-97659033D02*
X154347676Y-97754271D01*
X154347676Y-97754271D02*
X154442914Y-97849509D01*
X154442914Y-97849509D02*
X154490533Y-97944747D01*
X155204819Y-96420938D02*
X155204819Y-96992366D01*
X155204819Y-96706652D02*
X154204819Y-96706652D01*
X154204819Y-96706652D02*
X154347676Y-96801890D01*
X154347676Y-96801890D02*
X154442914Y-96897128D01*
X154442914Y-96897128D02*
X154490533Y-96992366D01*
D11*
X135886905Y-110232419D02*
X135886905Y-109232419D01*
X135886905Y-109232419D02*
X136125000Y-109232419D01*
X136125000Y-109232419D02*
X136267857Y-109280038D01*
X136267857Y-109280038D02*
X136363095Y-109375276D01*
X136363095Y-109375276D02*
X136410714Y-109470514D01*
X136410714Y-109470514D02*
X136458333Y-109660990D01*
X136458333Y-109660990D02*
X136458333Y-109803847D01*
X136458333Y-109803847D02*
X136410714Y-109994323D01*
X136410714Y-109994323D02*
X136363095Y-110089561D01*
X136363095Y-110089561D02*
X136267857Y-110184800D01*
X136267857Y-110184800D02*
X136125000Y-110232419D01*
X136125000Y-110232419D02*
X135886905Y-110232419D01*
X137029762Y-109660990D02*
X136934524Y-109613371D01*
X136934524Y-109613371D02*
X136886905Y-109565752D01*
X136886905Y-109565752D02*
X136839286Y-109470514D01*
X136839286Y-109470514D02*
X136839286Y-109422895D01*
X136839286Y-109422895D02*
X136886905Y-109327657D01*
X136886905Y-109327657D02*
X136934524Y-109280038D01*
X136934524Y-109280038D02*
X137029762Y-109232419D01*
X137029762Y-109232419D02*
X137220238Y-109232419D01*
X137220238Y-109232419D02*
X137315476Y-109280038D01*
X137315476Y-109280038D02*
X137363095Y-109327657D01*
X137363095Y-109327657D02*
X137410714Y-109422895D01*
X137410714Y-109422895D02*
X137410714Y-109470514D01*
X137410714Y-109470514D02*
X137363095Y-109565752D01*
X137363095Y-109565752D02*
X137315476Y-109613371D01*
X137315476Y-109613371D02*
X137220238Y-109660990D01*
X137220238Y-109660990D02*
X137029762Y-109660990D01*
X137029762Y-109660990D02*
X136934524Y-109708609D01*
X136934524Y-109708609D02*
X136886905Y-109756228D01*
X136886905Y-109756228D02*
X136839286Y-109851466D01*
X136839286Y-109851466D02*
X136839286Y-110041942D01*
X136839286Y-110041942D02*
X136886905Y-110137180D01*
X136886905Y-110137180D02*
X136934524Y-110184800D01*
X136934524Y-110184800D02*
X137029762Y-110232419D01*
X137029762Y-110232419D02*
X137220238Y-110232419D01*
X137220238Y-110232419D02*
X137315476Y-110184800D01*
X137315476Y-110184800D02*
X137363095Y-110137180D01*
X137363095Y-110137180D02*
X137410714Y-110041942D01*
X137410714Y-110041942D02*
X137410714Y-109851466D01*
X137410714Y-109851466D02*
X137363095Y-109756228D01*
X137363095Y-109756228D02*
X137315476Y-109708609D01*
X137315476Y-109708609D02*
X137220238Y-109660990D01*
X160410714Y-110232419D02*
X160410714Y-109232419D01*
X160410714Y-109232419D02*
X160648809Y-109232419D01*
X160648809Y-109232419D02*
X160791666Y-109280038D01*
X160791666Y-109280038D02*
X160886904Y-109375276D01*
X160886904Y-109375276D02*
X160934523Y-109470514D01*
X160934523Y-109470514D02*
X160982142Y-109660990D01*
X160982142Y-109660990D02*
X160982142Y-109803847D01*
X160982142Y-109803847D02*
X160934523Y-109994323D01*
X160934523Y-109994323D02*
X160886904Y-110089561D01*
X160886904Y-110089561D02*
X160791666Y-110184800D01*
X160791666Y-110184800D02*
X160648809Y-110232419D01*
X160648809Y-110232419D02*
X160410714Y-110232419D01*
X161363095Y-109327657D02*
X161410714Y-109280038D01*
X161410714Y-109280038D02*
X161505952Y-109232419D01*
X161505952Y-109232419D02*
X161744047Y-109232419D01*
X161744047Y-109232419D02*
X161839285Y-109280038D01*
X161839285Y-109280038D02*
X161886904Y-109327657D01*
X161886904Y-109327657D02*
X161934523Y-109422895D01*
X161934523Y-109422895D02*
X161934523Y-109518133D01*
X161934523Y-109518133D02*
X161886904Y-109660990D01*
X161886904Y-109660990D02*
X161315476Y-110232419D01*
X161315476Y-110232419D02*
X161934523Y-110232419D01*
X162267857Y-109232419D02*
X162886904Y-109232419D01*
X162886904Y-109232419D02*
X162553571Y-109613371D01*
X162553571Y-109613371D02*
X162696428Y-109613371D01*
X162696428Y-109613371D02*
X162791666Y-109660990D01*
X162791666Y-109660990D02*
X162839285Y-109708609D01*
X162839285Y-109708609D02*
X162886904Y-109803847D01*
X162886904Y-109803847D02*
X162886904Y-110041942D01*
X162886904Y-110041942D02*
X162839285Y-110137180D01*
X162839285Y-110137180D02*
X162791666Y-110184800D01*
X162791666Y-110184800D02*
X162696428Y-110232419D01*
X162696428Y-110232419D02*
X162410714Y-110232419D01*
X162410714Y-110232419D02*
X162315476Y-110184800D01*
X162315476Y-110184800D02*
X162267857Y-110137180D01*
X170410714Y-103732419D02*
X170410714Y-102732419D01*
X170410714Y-102732419D02*
X170648809Y-102732419D01*
X170648809Y-102732419D02*
X170791666Y-102780038D01*
X170791666Y-102780038D02*
X170886904Y-102875276D01*
X170886904Y-102875276D02*
X170934523Y-102970514D01*
X170934523Y-102970514D02*
X170982142Y-103160990D01*
X170982142Y-103160990D02*
X170982142Y-103303847D01*
X170982142Y-103303847D02*
X170934523Y-103494323D01*
X170934523Y-103494323D02*
X170886904Y-103589561D01*
X170886904Y-103589561D02*
X170791666Y-103684800D01*
X170791666Y-103684800D02*
X170648809Y-103732419D01*
X170648809Y-103732419D02*
X170410714Y-103732419D01*
X171363095Y-102827657D02*
X171410714Y-102780038D01*
X171410714Y-102780038D02*
X171505952Y-102732419D01*
X171505952Y-102732419D02*
X171744047Y-102732419D01*
X171744047Y-102732419D02*
X171839285Y-102780038D01*
X171839285Y-102780038D02*
X171886904Y-102827657D01*
X171886904Y-102827657D02*
X171934523Y-102922895D01*
X171934523Y-102922895D02*
X171934523Y-103018133D01*
X171934523Y-103018133D02*
X171886904Y-103160990D01*
X171886904Y-103160990D02*
X171315476Y-103732419D01*
X171315476Y-103732419D02*
X171934523Y-103732419D01*
X172505952Y-103160990D02*
X172410714Y-103113371D01*
X172410714Y-103113371D02*
X172363095Y-103065752D01*
X172363095Y-103065752D02*
X172315476Y-102970514D01*
X172315476Y-102970514D02*
X172315476Y-102922895D01*
X172315476Y-102922895D02*
X172363095Y-102827657D01*
X172363095Y-102827657D02*
X172410714Y-102780038D01*
X172410714Y-102780038D02*
X172505952Y-102732419D01*
X172505952Y-102732419D02*
X172696428Y-102732419D01*
X172696428Y-102732419D02*
X172791666Y-102780038D01*
X172791666Y-102780038D02*
X172839285Y-102827657D01*
X172839285Y-102827657D02*
X172886904Y-102922895D01*
X172886904Y-102922895D02*
X172886904Y-102970514D01*
X172886904Y-102970514D02*
X172839285Y-103065752D01*
X172839285Y-103065752D02*
X172791666Y-103113371D01*
X172791666Y-103113371D02*
X172696428Y-103160990D01*
X172696428Y-103160990D02*
X172505952Y-103160990D01*
X172505952Y-103160990D02*
X172410714Y-103208609D01*
X172410714Y-103208609D02*
X172363095Y-103256228D01*
X172363095Y-103256228D02*
X172315476Y-103351466D01*
X172315476Y-103351466D02*
X172315476Y-103541942D01*
X172315476Y-103541942D02*
X172363095Y-103637180D01*
X172363095Y-103637180D02*
X172410714Y-103684800D01*
X172410714Y-103684800D02*
X172505952Y-103732419D01*
X172505952Y-103732419D02*
X172696428Y-103732419D01*
X172696428Y-103732419D02*
X172791666Y-103684800D01*
X172791666Y-103684800D02*
X172839285Y-103637180D01*
X172839285Y-103637180D02*
X172886904Y-103541942D01*
X172886904Y-103541942D02*
X172886904Y-103351466D01*
X172886904Y-103351466D02*
X172839285Y-103256228D01*
X172839285Y-103256228D02*
X172791666Y-103208609D01*
X172791666Y-103208609D02*
X172696428Y-103160990D01*
D12*
X165204819Y-98392857D02*
X164728628Y-98726190D01*
X165204819Y-98964285D02*
X164204819Y-98964285D01*
X164204819Y-98964285D02*
X164204819Y-98583333D01*
X164204819Y-98583333D02*
X164252438Y-98488095D01*
X164252438Y-98488095D02*
X164300057Y-98440476D01*
X164300057Y-98440476D02*
X164395295Y-98392857D01*
X164395295Y-98392857D02*
X164538152Y-98392857D01*
X164538152Y-98392857D02*
X164633390Y-98440476D01*
X164633390Y-98440476D02*
X164681009Y-98488095D01*
X164681009Y-98488095D02*
X164728628Y-98583333D01*
X164728628Y-98583333D02*
X164728628Y-98964285D01*
X165204819Y-97440476D02*
X165204819Y-98011904D01*
X165204819Y-97726190D02*
X164204819Y-97726190D01*
X164204819Y-97726190D02*
X164347676Y-97821428D01*
X164347676Y-97821428D02*
X164442914Y-97916666D01*
X164442914Y-97916666D02*
X164490533Y-98011904D01*
X164204819Y-97107142D02*
X164204819Y-96488095D01*
X164204819Y-96488095D02*
X164585771Y-96821428D01*
X164585771Y-96821428D02*
X164585771Y-96678571D01*
X164585771Y-96678571D02*
X164633390Y-96583333D01*
X164633390Y-96583333D02*
X164681009Y-96535714D01*
X164681009Y-96535714D02*
X164776247Y-96488095D01*
X164776247Y-96488095D02*
X165014342Y-96488095D01*
X165014342Y-96488095D02*
X165109580Y-96535714D01*
X165109580Y-96535714D02*
X165157200Y-96583333D01*
X165157200Y-96583333D02*
X165204819Y-96678571D01*
X165204819Y-96678571D02*
X165204819Y-96964285D01*
X165204819Y-96964285D02*
X165157200Y-97059523D01*
X165157200Y-97059523D02*
X165109580Y-97107142D01*
X75664819Y-116583333D02*
X76379104Y-116583333D01*
X76379104Y-116583333D02*
X76521961Y-116630952D01*
X76521961Y-116630952D02*
X76617200Y-116726190D01*
X76617200Y-116726190D02*
X76664819Y-116869047D01*
X76664819Y-116869047D02*
X76664819Y-116964285D01*
X76664819Y-115583333D02*
X76664819Y-116154761D01*
X76664819Y-115869047D02*
X75664819Y-115869047D01*
X75664819Y-115869047D02*
X75807676Y-115964285D01*
X75807676Y-115964285D02*
X75902914Y-116059523D01*
X75902914Y-116059523D02*
X75950533Y-116154761D01*
D11*
X140410714Y-103732419D02*
X140410714Y-102732419D01*
X140410714Y-102732419D02*
X140648809Y-102732419D01*
X140648809Y-102732419D02*
X140791666Y-102780038D01*
X140791666Y-102780038D02*
X140886904Y-102875276D01*
X140886904Y-102875276D02*
X140934523Y-102970514D01*
X140934523Y-102970514D02*
X140982142Y-103160990D01*
X140982142Y-103160990D02*
X140982142Y-103303847D01*
X140982142Y-103303847D02*
X140934523Y-103494323D01*
X140934523Y-103494323D02*
X140886904Y-103589561D01*
X140886904Y-103589561D02*
X140791666Y-103684800D01*
X140791666Y-103684800D02*
X140648809Y-103732419D01*
X140648809Y-103732419D02*
X140410714Y-103732419D01*
X141934523Y-103732419D02*
X141363095Y-103732419D01*
X141648809Y-103732419D02*
X141648809Y-102732419D01*
X141648809Y-102732419D02*
X141553571Y-102875276D01*
X141553571Y-102875276D02*
X141458333Y-102970514D01*
X141458333Y-102970514D02*
X141363095Y-103018133D01*
X142553571Y-102732419D02*
X142648809Y-102732419D01*
X142648809Y-102732419D02*
X142744047Y-102780038D01*
X142744047Y-102780038D02*
X142791666Y-102827657D01*
X142791666Y-102827657D02*
X142839285Y-102922895D01*
X142839285Y-102922895D02*
X142886904Y-103113371D01*
X142886904Y-103113371D02*
X142886904Y-103351466D01*
X142886904Y-103351466D02*
X142839285Y-103541942D01*
X142839285Y-103541942D02*
X142791666Y-103637180D01*
X142791666Y-103637180D02*
X142744047Y-103684800D01*
X142744047Y-103684800D02*
X142648809Y-103732419D01*
X142648809Y-103732419D02*
X142553571Y-103732419D01*
X142553571Y-103732419D02*
X142458333Y-103684800D01*
X142458333Y-103684800D02*
X142410714Y-103637180D01*
X142410714Y-103637180D02*
X142363095Y-103541942D01*
X142363095Y-103541942D02*
X142315476Y-103351466D01*
X142315476Y-103351466D02*
X142315476Y-103113371D01*
X142315476Y-103113371D02*
X142363095Y-102922895D01*
X142363095Y-102922895D02*
X142410714Y-102827657D01*
X142410714Y-102827657D02*
X142458333Y-102780038D01*
X142458333Y-102780038D02*
X142553571Y-102732419D01*
X125886905Y-116732419D02*
X125886905Y-115732419D01*
X125886905Y-115732419D02*
X126125000Y-115732419D01*
X126125000Y-115732419D02*
X126267857Y-115780038D01*
X126267857Y-115780038D02*
X126363095Y-115875276D01*
X126363095Y-115875276D02*
X126410714Y-115970514D01*
X126410714Y-115970514D02*
X126458333Y-116160990D01*
X126458333Y-116160990D02*
X126458333Y-116303847D01*
X126458333Y-116303847D02*
X126410714Y-116494323D01*
X126410714Y-116494323D02*
X126363095Y-116589561D01*
X126363095Y-116589561D02*
X126267857Y-116684800D01*
X126267857Y-116684800D02*
X126125000Y-116732419D01*
X126125000Y-116732419D02*
X125886905Y-116732419D01*
X126791667Y-115732419D02*
X127410714Y-115732419D01*
X127410714Y-115732419D02*
X127077381Y-116113371D01*
X127077381Y-116113371D02*
X127220238Y-116113371D01*
X127220238Y-116113371D02*
X127315476Y-116160990D01*
X127315476Y-116160990D02*
X127363095Y-116208609D01*
X127363095Y-116208609D02*
X127410714Y-116303847D01*
X127410714Y-116303847D02*
X127410714Y-116541942D01*
X127410714Y-116541942D02*
X127363095Y-116637180D01*
X127363095Y-116637180D02*
X127315476Y-116684800D01*
X127315476Y-116684800D02*
X127220238Y-116732419D01*
X127220238Y-116732419D02*
X126934524Y-116732419D01*
X126934524Y-116732419D02*
X126839286Y-116684800D01*
X126839286Y-116684800D02*
X126791667Y-116637180D01*
D12*
X193304819Y-98392857D02*
X192828628Y-98726190D01*
X193304819Y-98964285D02*
X192304819Y-98964285D01*
X192304819Y-98964285D02*
X192304819Y-98583333D01*
X192304819Y-98583333D02*
X192352438Y-98488095D01*
X192352438Y-98488095D02*
X192400057Y-98440476D01*
X192400057Y-98440476D02*
X192495295Y-98392857D01*
X192495295Y-98392857D02*
X192638152Y-98392857D01*
X192638152Y-98392857D02*
X192733390Y-98440476D01*
X192733390Y-98440476D02*
X192781009Y-98488095D01*
X192781009Y-98488095D02*
X192828628Y-98583333D01*
X192828628Y-98583333D02*
X192828628Y-98964285D01*
X193304819Y-97440476D02*
X193304819Y-98011904D01*
X193304819Y-97726190D02*
X192304819Y-97726190D01*
X192304819Y-97726190D02*
X192447676Y-97821428D01*
X192447676Y-97821428D02*
X192542914Y-97916666D01*
X192542914Y-97916666D02*
X192590533Y-98011904D01*
X192733390Y-96869047D02*
X192685771Y-96964285D01*
X192685771Y-96964285D02*
X192638152Y-97011904D01*
X192638152Y-97011904D02*
X192542914Y-97059523D01*
X192542914Y-97059523D02*
X192495295Y-97059523D01*
X192495295Y-97059523D02*
X192400057Y-97011904D01*
X192400057Y-97011904D02*
X192352438Y-96964285D01*
X192352438Y-96964285D02*
X192304819Y-96869047D01*
X192304819Y-96869047D02*
X192304819Y-96678571D01*
X192304819Y-96678571D02*
X192352438Y-96583333D01*
X192352438Y-96583333D02*
X192400057Y-96535714D01*
X192400057Y-96535714D02*
X192495295Y-96488095D01*
X192495295Y-96488095D02*
X192542914Y-96488095D01*
X192542914Y-96488095D02*
X192638152Y-96535714D01*
X192638152Y-96535714D02*
X192685771Y-96583333D01*
X192685771Y-96583333D02*
X192733390Y-96678571D01*
X192733390Y-96678571D02*
X192733390Y-96869047D01*
X192733390Y-96869047D02*
X192781009Y-96964285D01*
X192781009Y-96964285D02*
X192828628Y-97011904D01*
X192828628Y-97011904D02*
X192923866Y-97059523D01*
X192923866Y-97059523D02*
X193114342Y-97059523D01*
X193114342Y-97059523D02*
X193209580Y-97011904D01*
X193209580Y-97011904D02*
X193257200Y-96964285D01*
X193257200Y-96964285D02*
X193304819Y-96869047D01*
X193304819Y-96869047D02*
X193304819Y-96678571D01*
X193304819Y-96678571D02*
X193257200Y-96583333D01*
X193257200Y-96583333D02*
X193209580Y-96535714D01*
X193209580Y-96535714D02*
X193114342Y-96488095D01*
X193114342Y-96488095D02*
X192923866Y-96488095D01*
X192923866Y-96488095D02*
X192828628Y-96535714D01*
X192828628Y-96535714D02*
X192781009Y-96583333D01*
X192781009Y-96583333D02*
X192733390Y-96678571D01*
D11*
X190360714Y-116732419D02*
X190360714Y-115732419D01*
X190360714Y-115732419D02*
X190598809Y-115732419D01*
X190598809Y-115732419D02*
X190741666Y-115780038D01*
X190741666Y-115780038D02*
X190836904Y-115875276D01*
X190836904Y-115875276D02*
X190884523Y-115970514D01*
X190884523Y-115970514D02*
X190932142Y-116160990D01*
X190932142Y-116160990D02*
X190932142Y-116303847D01*
X190932142Y-116303847D02*
X190884523Y-116494323D01*
X190884523Y-116494323D02*
X190836904Y-116589561D01*
X190836904Y-116589561D02*
X190741666Y-116684800D01*
X190741666Y-116684800D02*
X190598809Y-116732419D01*
X190598809Y-116732419D02*
X190360714Y-116732419D01*
X191789285Y-116065752D02*
X191789285Y-116732419D01*
X191551190Y-115684800D02*
X191313095Y-116399085D01*
X191313095Y-116399085D02*
X191932142Y-116399085D01*
X192265476Y-115827657D02*
X192313095Y-115780038D01*
X192313095Y-115780038D02*
X192408333Y-115732419D01*
X192408333Y-115732419D02*
X192646428Y-115732419D01*
X192646428Y-115732419D02*
X192741666Y-115780038D01*
X192741666Y-115780038D02*
X192789285Y-115827657D01*
X192789285Y-115827657D02*
X192836904Y-115922895D01*
X192836904Y-115922895D02*
X192836904Y-116018133D01*
X192836904Y-116018133D02*
X192789285Y-116160990D01*
X192789285Y-116160990D02*
X192217857Y-116732419D01*
X192217857Y-116732419D02*
X192836904Y-116732419D01*
D12*
X117566667Y-117634219D02*
X117614286Y-117586600D01*
X117614286Y-117586600D02*
X117757143Y-117538980D01*
X117757143Y-117538980D02*
X117852381Y-117538980D01*
X117852381Y-117538980D02*
X117995238Y-117586600D01*
X117995238Y-117586600D02*
X118090476Y-117681838D01*
X118090476Y-117681838D02*
X118138095Y-117777076D01*
X118138095Y-117777076D02*
X118185714Y-117967552D01*
X118185714Y-117967552D02*
X118185714Y-118110409D01*
X118185714Y-118110409D02*
X118138095Y-118300885D01*
X118138095Y-118300885D02*
X118090476Y-118396123D01*
X118090476Y-118396123D02*
X117995238Y-118491361D01*
X117995238Y-118491361D02*
X117852381Y-118538980D01*
X117852381Y-118538980D02*
X117757143Y-118538980D01*
X117757143Y-118538980D02*
X117614286Y-118491361D01*
X117614286Y-118491361D02*
X117566667Y-118443742D01*
X116566667Y-117538980D02*
X116900000Y-118015171D01*
X117138095Y-117538980D02*
X117138095Y-118538980D01*
X117138095Y-118538980D02*
X116757143Y-118538980D01*
X116757143Y-118538980D02*
X116661905Y-118491361D01*
X116661905Y-118491361D02*
X116614286Y-118443742D01*
X116614286Y-118443742D02*
X116566667Y-118348504D01*
X116566667Y-118348504D02*
X116566667Y-118205647D01*
X116566667Y-118205647D02*
X116614286Y-118110409D01*
X116614286Y-118110409D02*
X116661905Y-118062790D01*
X116661905Y-118062790D02*
X116757143Y-118015171D01*
X116757143Y-118015171D02*
X117138095Y-118015171D01*
X115709524Y-118205647D02*
X115709524Y-117538980D01*
X115947619Y-118586600D02*
X116185714Y-117872314D01*
X116185714Y-117872314D02*
X115566667Y-117872314D01*
X173479819Y-98392857D02*
X173003628Y-98726190D01*
X173479819Y-98964285D02*
X172479819Y-98964285D01*
X172479819Y-98964285D02*
X172479819Y-98583333D01*
X172479819Y-98583333D02*
X172527438Y-98488095D01*
X172527438Y-98488095D02*
X172575057Y-98440476D01*
X172575057Y-98440476D02*
X172670295Y-98392857D01*
X172670295Y-98392857D02*
X172813152Y-98392857D01*
X172813152Y-98392857D02*
X172908390Y-98440476D01*
X172908390Y-98440476D02*
X172956009Y-98488095D01*
X172956009Y-98488095D02*
X173003628Y-98583333D01*
X173003628Y-98583333D02*
X173003628Y-98964285D01*
X173479819Y-97440476D02*
X173479819Y-98011904D01*
X173479819Y-97726190D02*
X172479819Y-97726190D01*
X172479819Y-97726190D02*
X172622676Y-97821428D01*
X172622676Y-97821428D02*
X172717914Y-97916666D01*
X172717914Y-97916666D02*
X172765533Y-98011904D01*
X172813152Y-96583333D02*
X173479819Y-96583333D01*
X172432200Y-96821428D02*
X173146485Y-97059523D01*
X173146485Y-97059523D02*
X173146485Y-96440476D01*
X102454819Y-116666666D02*
X101978628Y-116999999D01*
X102454819Y-117238094D02*
X101454819Y-117238094D01*
X101454819Y-117238094D02*
X101454819Y-116857142D01*
X101454819Y-116857142D02*
X101502438Y-116761904D01*
X101502438Y-116761904D02*
X101550057Y-116714285D01*
X101550057Y-116714285D02*
X101645295Y-116666666D01*
X101645295Y-116666666D02*
X101788152Y-116666666D01*
X101788152Y-116666666D02*
X101883390Y-116714285D01*
X101883390Y-116714285D02*
X101931009Y-116761904D01*
X101931009Y-116761904D02*
X101978628Y-116857142D01*
X101978628Y-116857142D02*
X101978628Y-117238094D01*
X101788152Y-115809523D02*
X102454819Y-115809523D01*
X101407200Y-116047618D02*
X102121485Y-116285713D01*
X102121485Y-116285713D02*
X102121485Y-115666666D01*
D11*
X170410714Y-110232419D02*
X170410714Y-109232419D01*
X170410714Y-109232419D02*
X170648809Y-109232419D01*
X170648809Y-109232419D02*
X170791666Y-109280038D01*
X170791666Y-109280038D02*
X170886904Y-109375276D01*
X170886904Y-109375276D02*
X170934523Y-109470514D01*
X170934523Y-109470514D02*
X170982142Y-109660990D01*
X170982142Y-109660990D02*
X170982142Y-109803847D01*
X170982142Y-109803847D02*
X170934523Y-109994323D01*
X170934523Y-109994323D02*
X170886904Y-110089561D01*
X170886904Y-110089561D02*
X170791666Y-110184800D01*
X170791666Y-110184800D02*
X170648809Y-110232419D01*
X170648809Y-110232419D02*
X170410714Y-110232419D01*
X171363095Y-109327657D02*
X171410714Y-109280038D01*
X171410714Y-109280038D02*
X171505952Y-109232419D01*
X171505952Y-109232419D02*
X171744047Y-109232419D01*
X171744047Y-109232419D02*
X171839285Y-109280038D01*
X171839285Y-109280038D02*
X171886904Y-109327657D01*
X171886904Y-109327657D02*
X171934523Y-109422895D01*
X171934523Y-109422895D02*
X171934523Y-109518133D01*
X171934523Y-109518133D02*
X171886904Y-109660990D01*
X171886904Y-109660990D02*
X171315476Y-110232419D01*
X171315476Y-110232419D02*
X171934523Y-110232419D01*
X172410714Y-110232419D02*
X172601190Y-110232419D01*
X172601190Y-110232419D02*
X172696428Y-110184800D01*
X172696428Y-110184800D02*
X172744047Y-110137180D01*
X172744047Y-110137180D02*
X172839285Y-109994323D01*
X172839285Y-109994323D02*
X172886904Y-109803847D01*
X172886904Y-109803847D02*
X172886904Y-109422895D01*
X172886904Y-109422895D02*
X172839285Y-109327657D01*
X172839285Y-109327657D02*
X172791666Y-109280038D01*
X172791666Y-109280038D02*
X172696428Y-109232419D01*
X172696428Y-109232419D02*
X172505952Y-109232419D01*
X172505952Y-109232419D02*
X172410714Y-109280038D01*
X172410714Y-109280038D02*
X172363095Y-109327657D01*
X172363095Y-109327657D02*
X172315476Y-109422895D01*
X172315476Y-109422895D02*
X172315476Y-109660990D01*
X172315476Y-109660990D02*
X172363095Y-109756228D01*
X172363095Y-109756228D02*
X172410714Y-109803847D01*
X172410714Y-109803847D02*
X172505952Y-109851466D01*
X172505952Y-109851466D02*
X172696428Y-109851466D01*
X172696428Y-109851466D02*
X172791666Y-109803847D01*
X172791666Y-109803847D02*
X172839285Y-109756228D01*
X172839285Y-109756228D02*
X172886904Y-109660990D01*
D12*
X102284819Y-97113333D02*
X102999104Y-97113333D01*
X102999104Y-97113333D02*
X103141961Y-97160952D01*
X103141961Y-97160952D02*
X103237200Y-97256190D01*
X103237200Y-97256190D02*
X103284819Y-97399047D01*
X103284819Y-97399047D02*
X103284819Y-97494285D01*
X102380057Y-96684761D02*
X102332438Y-96637142D01*
X102332438Y-96637142D02*
X102284819Y-96541904D01*
X102284819Y-96541904D02*
X102284819Y-96303809D01*
X102284819Y-96303809D02*
X102332438Y-96208571D01*
X102332438Y-96208571D02*
X102380057Y-96160952D01*
X102380057Y-96160952D02*
X102475295Y-96113333D01*
X102475295Y-96113333D02*
X102570533Y-96113333D01*
X102570533Y-96113333D02*
X102713390Y-96160952D01*
X102713390Y-96160952D02*
X103284819Y-96732380D01*
X103284819Y-96732380D02*
X103284819Y-96113333D01*
X130379819Y-97916666D02*
X129903628Y-98249999D01*
X130379819Y-98488094D02*
X129379819Y-98488094D01*
X129379819Y-98488094D02*
X129379819Y-98107142D01*
X129379819Y-98107142D02*
X129427438Y-98011904D01*
X129427438Y-98011904D02*
X129475057Y-97964285D01*
X129475057Y-97964285D02*
X129570295Y-97916666D01*
X129570295Y-97916666D02*
X129713152Y-97916666D01*
X129713152Y-97916666D02*
X129808390Y-97964285D01*
X129808390Y-97964285D02*
X129856009Y-98011904D01*
X129856009Y-98011904D02*
X129903628Y-98107142D01*
X129903628Y-98107142D02*
X129903628Y-98488094D01*
X129379819Y-97059523D02*
X129379819Y-97249999D01*
X129379819Y-97249999D02*
X129427438Y-97345237D01*
X129427438Y-97345237D02*
X129475057Y-97392856D01*
X129475057Y-97392856D02*
X129617914Y-97488094D01*
X129617914Y-97488094D02*
X129808390Y-97535713D01*
X129808390Y-97535713D02*
X130189342Y-97535713D01*
X130189342Y-97535713D02*
X130284580Y-97488094D01*
X130284580Y-97488094D02*
X130332200Y-97440475D01*
X130332200Y-97440475D02*
X130379819Y-97345237D01*
X130379819Y-97345237D02*
X130379819Y-97154761D01*
X130379819Y-97154761D02*
X130332200Y-97059523D01*
X130332200Y-97059523D02*
X130284580Y-97011904D01*
X130284580Y-97011904D02*
X130189342Y-96964285D01*
X130189342Y-96964285D02*
X129951247Y-96964285D01*
X129951247Y-96964285D02*
X129856009Y-97011904D01*
X129856009Y-97011904D02*
X129808390Y-97059523D01*
X129808390Y-97059523D02*
X129760771Y-97154761D01*
X129760771Y-97154761D02*
X129760771Y-97345237D01*
X129760771Y-97345237D02*
X129808390Y-97440475D01*
X129808390Y-97440475D02*
X129856009Y-97488094D01*
X129856009Y-97488094D02*
X129951247Y-97535713D01*
X125021976Y-97916666D02*
X124545785Y-98249999D01*
X125021976Y-98488094D02*
X124021976Y-98488094D01*
X124021976Y-98488094D02*
X124021976Y-98107142D01*
X124021976Y-98107142D02*
X124069595Y-98011904D01*
X124069595Y-98011904D02*
X124117214Y-97964285D01*
X124117214Y-97964285D02*
X124212452Y-97916666D01*
X124212452Y-97916666D02*
X124355309Y-97916666D01*
X124355309Y-97916666D02*
X124450547Y-97964285D01*
X124450547Y-97964285D02*
X124498166Y-98011904D01*
X124498166Y-98011904D02*
X124545785Y-98107142D01*
X124545785Y-98107142D02*
X124545785Y-98488094D01*
X124021976Y-97011904D02*
X124021976Y-97488094D01*
X124021976Y-97488094D02*
X124498166Y-97535713D01*
X124498166Y-97535713D02*
X124450547Y-97488094D01*
X124450547Y-97488094D02*
X124402928Y-97392856D01*
X124402928Y-97392856D02*
X124402928Y-97154761D01*
X124402928Y-97154761D02*
X124450547Y-97059523D01*
X124450547Y-97059523D02*
X124498166Y-97011904D01*
X124498166Y-97011904D02*
X124593404Y-96964285D01*
X124593404Y-96964285D02*
X124831499Y-96964285D01*
X124831499Y-96964285D02*
X124926737Y-97011904D01*
X124926737Y-97011904D02*
X124974357Y-97059523D01*
X124974357Y-97059523D02*
X125021976Y-97154761D01*
X125021976Y-97154761D02*
X125021976Y-97392856D01*
X125021976Y-97392856D02*
X124974357Y-97488094D01*
X124974357Y-97488094D02*
X124926737Y-97535713D01*
D11*
X180410714Y-110232419D02*
X180410714Y-109232419D01*
X180410714Y-109232419D02*
X180648809Y-109232419D01*
X180648809Y-109232419D02*
X180791666Y-109280038D01*
X180791666Y-109280038D02*
X180886904Y-109375276D01*
X180886904Y-109375276D02*
X180934523Y-109470514D01*
X180934523Y-109470514D02*
X180982142Y-109660990D01*
X180982142Y-109660990D02*
X180982142Y-109803847D01*
X180982142Y-109803847D02*
X180934523Y-109994323D01*
X180934523Y-109994323D02*
X180886904Y-110089561D01*
X180886904Y-110089561D02*
X180791666Y-110184800D01*
X180791666Y-110184800D02*
X180648809Y-110232419D01*
X180648809Y-110232419D02*
X180410714Y-110232419D01*
X181315476Y-109232419D02*
X181934523Y-109232419D01*
X181934523Y-109232419D02*
X181601190Y-109613371D01*
X181601190Y-109613371D02*
X181744047Y-109613371D01*
X181744047Y-109613371D02*
X181839285Y-109660990D01*
X181839285Y-109660990D02*
X181886904Y-109708609D01*
X181886904Y-109708609D02*
X181934523Y-109803847D01*
X181934523Y-109803847D02*
X181934523Y-110041942D01*
X181934523Y-110041942D02*
X181886904Y-110137180D01*
X181886904Y-110137180D02*
X181839285Y-110184800D01*
X181839285Y-110184800D02*
X181744047Y-110232419D01*
X181744047Y-110232419D02*
X181458333Y-110232419D01*
X181458333Y-110232419D02*
X181363095Y-110184800D01*
X181363095Y-110184800D02*
X181315476Y-110137180D01*
X182839285Y-109232419D02*
X182363095Y-109232419D01*
X182363095Y-109232419D02*
X182315476Y-109708609D01*
X182315476Y-109708609D02*
X182363095Y-109660990D01*
X182363095Y-109660990D02*
X182458333Y-109613371D01*
X182458333Y-109613371D02*
X182696428Y-109613371D01*
X182696428Y-109613371D02*
X182791666Y-109660990D01*
X182791666Y-109660990D02*
X182839285Y-109708609D01*
X182839285Y-109708609D02*
X182886904Y-109803847D01*
X182886904Y-109803847D02*
X182886904Y-110041942D01*
X182886904Y-110041942D02*
X182839285Y-110137180D01*
X182839285Y-110137180D02*
X182791666Y-110184800D01*
X182791666Y-110184800D02*
X182696428Y-110232419D01*
X182696428Y-110232419D02*
X182458333Y-110232419D01*
X182458333Y-110232419D02*
X182363095Y-110184800D01*
X182363095Y-110184800D02*
X182315476Y-110137180D01*
X165410714Y-116732419D02*
X165410714Y-115732419D01*
X165410714Y-115732419D02*
X165648809Y-115732419D01*
X165648809Y-115732419D02*
X165791666Y-115780038D01*
X165791666Y-115780038D02*
X165886904Y-115875276D01*
X165886904Y-115875276D02*
X165934523Y-115970514D01*
X165934523Y-115970514D02*
X165982142Y-116160990D01*
X165982142Y-116160990D02*
X165982142Y-116303847D01*
X165982142Y-116303847D02*
X165934523Y-116494323D01*
X165934523Y-116494323D02*
X165886904Y-116589561D01*
X165886904Y-116589561D02*
X165791666Y-116684800D01*
X165791666Y-116684800D02*
X165648809Y-116732419D01*
X165648809Y-116732419D02*
X165410714Y-116732419D01*
X166363095Y-115827657D02*
X166410714Y-115780038D01*
X166410714Y-115780038D02*
X166505952Y-115732419D01*
X166505952Y-115732419D02*
X166744047Y-115732419D01*
X166744047Y-115732419D02*
X166839285Y-115780038D01*
X166839285Y-115780038D02*
X166886904Y-115827657D01*
X166886904Y-115827657D02*
X166934523Y-115922895D01*
X166934523Y-115922895D02*
X166934523Y-116018133D01*
X166934523Y-116018133D02*
X166886904Y-116160990D01*
X166886904Y-116160990D02*
X166315476Y-116732419D01*
X166315476Y-116732419D02*
X166934523Y-116732419D01*
X167267857Y-115732419D02*
X167934523Y-115732419D01*
X167934523Y-115732419D02*
X167505952Y-116732419D01*
X145410714Y-103732419D02*
X145410714Y-102732419D01*
X145410714Y-102732419D02*
X145648809Y-102732419D01*
X145648809Y-102732419D02*
X145791666Y-102780038D01*
X145791666Y-102780038D02*
X145886904Y-102875276D01*
X145886904Y-102875276D02*
X145934523Y-102970514D01*
X145934523Y-102970514D02*
X145982142Y-103160990D01*
X145982142Y-103160990D02*
X145982142Y-103303847D01*
X145982142Y-103303847D02*
X145934523Y-103494323D01*
X145934523Y-103494323D02*
X145886904Y-103589561D01*
X145886904Y-103589561D02*
X145791666Y-103684800D01*
X145791666Y-103684800D02*
X145648809Y-103732419D01*
X145648809Y-103732419D02*
X145410714Y-103732419D01*
X146934523Y-103732419D02*
X146363095Y-103732419D01*
X146648809Y-103732419D02*
X146648809Y-102732419D01*
X146648809Y-102732419D02*
X146553571Y-102875276D01*
X146553571Y-102875276D02*
X146458333Y-102970514D01*
X146458333Y-102970514D02*
X146363095Y-103018133D01*
X147267857Y-102732419D02*
X147886904Y-102732419D01*
X147886904Y-102732419D02*
X147553571Y-103113371D01*
X147553571Y-103113371D02*
X147696428Y-103113371D01*
X147696428Y-103113371D02*
X147791666Y-103160990D01*
X147791666Y-103160990D02*
X147839285Y-103208609D01*
X147839285Y-103208609D02*
X147886904Y-103303847D01*
X147886904Y-103303847D02*
X147886904Y-103541942D01*
X147886904Y-103541942D02*
X147839285Y-103637180D01*
X147839285Y-103637180D02*
X147791666Y-103684800D01*
X147791666Y-103684800D02*
X147696428Y-103732419D01*
X147696428Y-103732419D02*
X147410714Y-103732419D01*
X147410714Y-103732419D02*
X147315476Y-103684800D01*
X147315476Y-103684800D02*
X147267857Y-103637180D01*
X140410714Y-110232419D02*
X140410714Y-109232419D01*
X140410714Y-109232419D02*
X140648809Y-109232419D01*
X140648809Y-109232419D02*
X140791666Y-109280038D01*
X140791666Y-109280038D02*
X140886904Y-109375276D01*
X140886904Y-109375276D02*
X140934523Y-109470514D01*
X140934523Y-109470514D02*
X140982142Y-109660990D01*
X140982142Y-109660990D02*
X140982142Y-109803847D01*
X140982142Y-109803847D02*
X140934523Y-109994323D01*
X140934523Y-109994323D02*
X140886904Y-110089561D01*
X140886904Y-110089561D02*
X140791666Y-110184800D01*
X140791666Y-110184800D02*
X140648809Y-110232419D01*
X140648809Y-110232419D02*
X140410714Y-110232419D01*
X141934523Y-110232419D02*
X141363095Y-110232419D01*
X141648809Y-110232419D02*
X141648809Y-109232419D01*
X141648809Y-109232419D02*
X141553571Y-109375276D01*
X141553571Y-109375276D02*
X141458333Y-109470514D01*
X141458333Y-109470514D02*
X141363095Y-109518133D01*
X142886904Y-110232419D02*
X142315476Y-110232419D01*
X142601190Y-110232419D02*
X142601190Y-109232419D01*
X142601190Y-109232419D02*
X142505952Y-109375276D01*
X142505952Y-109375276D02*
X142410714Y-109470514D01*
X142410714Y-109470514D02*
X142315476Y-109518133D01*
D12*
X112783333Y-115254819D02*
X112450000Y-114778628D01*
X112211905Y-115254819D02*
X112211905Y-114254819D01*
X112211905Y-114254819D02*
X112592857Y-114254819D01*
X112592857Y-114254819D02*
X112688095Y-114302438D01*
X112688095Y-114302438D02*
X112735714Y-114350057D01*
X112735714Y-114350057D02*
X112783333Y-114445295D01*
X112783333Y-114445295D02*
X112783333Y-114588152D01*
X112783333Y-114588152D02*
X112735714Y-114683390D01*
X112735714Y-114683390D02*
X112688095Y-114731009D01*
X112688095Y-114731009D02*
X112592857Y-114778628D01*
X112592857Y-114778628D02*
X112211905Y-114778628D01*
X113735714Y-115254819D02*
X113164286Y-115254819D01*
X113450000Y-115254819D02*
X113450000Y-114254819D01*
X113450000Y-114254819D02*
X113354762Y-114397676D01*
X113354762Y-114397676D02*
X113259524Y-114492914D01*
X113259524Y-114492914D02*
X113164286Y-114540533D01*
D11*
X180410714Y-116732419D02*
X180410714Y-115732419D01*
X180410714Y-115732419D02*
X180648809Y-115732419D01*
X180648809Y-115732419D02*
X180791666Y-115780038D01*
X180791666Y-115780038D02*
X180886904Y-115875276D01*
X180886904Y-115875276D02*
X180934523Y-115970514D01*
X180934523Y-115970514D02*
X180982142Y-116160990D01*
X180982142Y-116160990D02*
X180982142Y-116303847D01*
X180982142Y-116303847D02*
X180934523Y-116494323D01*
X180934523Y-116494323D02*
X180886904Y-116589561D01*
X180886904Y-116589561D02*
X180791666Y-116684800D01*
X180791666Y-116684800D02*
X180648809Y-116732419D01*
X180648809Y-116732419D02*
X180410714Y-116732419D01*
X181315476Y-115732419D02*
X181934523Y-115732419D01*
X181934523Y-115732419D02*
X181601190Y-116113371D01*
X181601190Y-116113371D02*
X181744047Y-116113371D01*
X181744047Y-116113371D02*
X181839285Y-116160990D01*
X181839285Y-116160990D02*
X181886904Y-116208609D01*
X181886904Y-116208609D02*
X181934523Y-116303847D01*
X181934523Y-116303847D02*
X181934523Y-116541942D01*
X181934523Y-116541942D02*
X181886904Y-116637180D01*
X181886904Y-116637180D02*
X181839285Y-116684800D01*
X181839285Y-116684800D02*
X181744047Y-116732419D01*
X181744047Y-116732419D02*
X181458333Y-116732419D01*
X181458333Y-116732419D02*
X181363095Y-116684800D01*
X181363095Y-116684800D02*
X181315476Y-116637180D01*
X182791666Y-115732419D02*
X182601190Y-115732419D01*
X182601190Y-115732419D02*
X182505952Y-115780038D01*
X182505952Y-115780038D02*
X182458333Y-115827657D01*
X182458333Y-115827657D02*
X182363095Y-115970514D01*
X182363095Y-115970514D02*
X182315476Y-116160990D01*
X182315476Y-116160990D02*
X182315476Y-116541942D01*
X182315476Y-116541942D02*
X182363095Y-116637180D01*
X182363095Y-116637180D02*
X182410714Y-116684800D01*
X182410714Y-116684800D02*
X182505952Y-116732419D01*
X182505952Y-116732419D02*
X182696428Y-116732419D01*
X182696428Y-116732419D02*
X182791666Y-116684800D01*
X182791666Y-116684800D02*
X182839285Y-116637180D01*
X182839285Y-116637180D02*
X182886904Y-116541942D01*
X182886904Y-116541942D02*
X182886904Y-116303847D01*
X182886904Y-116303847D02*
X182839285Y-116208609D01*
X182839285Y-116208609D02*
X182791666Y-116160990D01*
X182791666Y-116160990D02*
X182696428Y-116113371D01*
X182696428Y-116113371D02*
X182505952Y-116113371D01*
X182505952Y-116113371D02*
X182410714Y-116160990D01*
X182410714Y-116160990D02*
X182363095Y-116208609D01*
X182363095Y-116208609D02*
X182315476Y-116303847D01*
X160410714Y-116732419D02*
X160410714Y-115732419D01*
X160410714Y-115732419D02*
X160648809Y-115732419D01*
X160648809Y-115732419D02*
X160791666Y-115780038D01*
X160791666Y-115780038D02*
X160886904Y-115875276D01*
X160886904Y-115875276D02*
X160934523Y-115970514D01*
X160934523Y-115970514D02*
X160982142Y-116160990D01*
X160982142Y-116160990D02*
X160982142Y-116303847D01*
X160982142Y-116303847D02*
X160934523Y-116494323D01*
X160934523Y-116494323D02*
X160886904Y-116589561D01*
X160886904Y-116589561D02*
X160791666Y-116684800D01*
X160791666Y-116684800D02*
X160648809Y-116732419D01*
X160648809Y-116732419D02*
X160410714Y-116732419D01*
X161363095Y-115827657D02*
X161410714Y-115780038D01*
X161410714Y-115780038D02*
X161505952Y-115732419D01*
X161505952Y-115732419D02*
X161744047Y-115732419D01*
X161744047Y-115732419D02*
X161839285Y-115780038D01*
X161839285Y-115780038D02*
X161886904Y-115827657D01*
X161886904Y-115827657D02*
X161934523Y-115922895D01*
X161934523Y-115922895D02*
X161934523Y-116018133D01*
X161934523Y-116018133D02*
X161886904Y-116160990D01*
X161886904Y-116160990D02*
X161315476Y-116732419D01*
X161315476Y-116732419D02*
X161934523Y-116732419D01*
X162791666Y-116065752D02*
X162791666Y-116732419D01*
X162553571Y-115684800D02*
X162315476Y-116399085D01*
X162315476Y-116399085D02*
X162934523Y-116399085D01*
X160460714Y-103732419D02*
X160460714Y-102732419D01*
X160460714Y-102732419D02*
X160698809Y-102732419D01*
X160698809Y-102732419D02*
X160841666Y-102780038D01*
X160841666Y-102780038D02*
X160936904Y-102875276D01*
X160936904Y-102875276D02*
X160984523Y-102970514D01*
X160984523Y-102970514D02*
X161032142Y-103160990D01*
X161032142Y-103160990D02*
X161032142Y-103303847D01*
X161032142Y-103303847D02*
X160984523Y-103494323D01*
X160984523Y-103494323D02*
X160936904Y-103589561D01*
X160936904Y-103589561D02*
X160841666Y-103684800D01*
X160841666Y-103684800D02*
X160698809Y-103732419D01*
X160698809Y-103732419D02*
X160460714Y-103732419D01*
X161413095Y-102827657D02*
X161460714Y-102780038D01*
X161460714Y-102780038D02*
X161555952Y-102732419D01*
X161555952Y-102732419D02*
X161794047Y-102732419D01*
X161794047Y-102732419D02*
X161889285Y-102780038D01*
X161889285Y-102780038D02*
X161936904Y-102827657D01*
X161936904Y-102827657D02*
X161984523Y-102922895D01*
X161984523Y-102922895D02*
X161984523Y-103018133D01*
X161984523Y-103018133D02*
X161936904Y-103160990D01*
X161936904Y-103160990D02*
X161365476Y-103732419D01*
X161365476Y-103732419D02*
X161984523Y-103732419D01*
X162365476Y-102827657D02*
X162413095Y-102780038D01*
X162413095Y-102780038D02*
X162508333Y-102732419D01*
X162508333Y-102732419D02*
X162746428Y-102732419D01*
X162746428Y-102732419D02*
X162841666Y-102780038D01*
X162841666Y-102780038D02*
X162889285Y-102827657D01*
X162889285Y-102827657D02*
X162936904Y-102922895D01*
X162936904Y-102922895D02*
X162936904Y-103018133D01*
X162936904Y-103018133D02*
X162889285Y-103160990D01*
X162889285Y-103160990D02*
X162317857Y-103732419D01*
X162317857Y-103732419D02*
X162936904Y-103732419D01*
D13*
X117782380Y-102054318D02*
X117782380Y-103082413D01*
X117782380Y-103082413D02*
X117842857Y-103203365D01*
X117842857Y-103203365D02*
X117903333Y-103263842D01*
X117903333Y-103263842D02*
X118024285Y-103324318D01*
X118024285Y-103324318D02*
X118266190Y-103324318D01*
X118266190Y-103324318D02*
X118387142Y-103263842D01*
X118387142Y-103263842D02*
X118447619Y-103203365D01*
X118447619Y-103203365D02*
X118508095Y-103082413D01*
X118508095Y-103082413D02*
X118508095Y-102054318D01*
X119717618Y-102054318D02*
X119112856Y-102054318D01*
X119112856Y-102054318D02*
X119052380Y-102659080D01*
X119052380Y-102659080D02*
X119112856Y-102598603D01*
X119112856Y-102598603D02*
X119233809Y-102538127D01*
X119233809Y-102538127D02*
X119536190Y-102538127D01*
X119536190Y-102538127D02*
X119657142Y-102598603D01*
X119657142Y-102598603D02*
X119717618Y-102659080D01*
X119717618Y-102659080D02*
X119778095Y-102780032D01*
X119778095Y-102780032D02*
X119778095Y-103082413D01*
X119778095Y-103082413D02*
X119717618Y-103203365D01*
X119717618Y-103203365D02*
X119657142Y-103263842D01*
X119657142Y-103263842D02*
X119536190Y-103324318D01*
X119536190Y-103324318D02*
X119233809Y-103324318D01*
X119233809Y-103324318D02*
X119112856Y-103263842D01*
X119112856Y-103263842D02*
X119052380Y-103203365D01*
D12*
X105454819Y-112176666D02*
X104978628Y-112509999D01*
X105454819Y-112748094D02*
X104454819Y-112748094D01*
X104454819Y-112748094D02*
X104454819Y-112367142D01*
X104454819Y-112367142D02*
X104502438Y-112271904D01*
X104502438Y-112271904D02*
X104550057Y-112224285D01*
X104550057Y-112224285D02*
X104645295Y-112176666D01*
X104645295Y-112176666D02*
X104788152Y-112176666D01*
X104788152Y-112176666D02*
X104883390Y-112224285D01*
X104883390Y-112224285D02*
X104931009Y-112271904D01*
X104931009Y-112271904D02*
X104978628Y-112367142D01*
X104978628Y-112367142D02*
X104978628Y-112748094D01*
X104454819Y-111843332D02*
X104454819Y-111224285D01*
X104454819Y-111224285D02*
X104835771Y-111557618D01*
X104835771Y-111557618D02*
X104835771Y-111414761D01*
X104835771Y-111414761D02*
X104883390Y-111319523D01*
X104883390Y-111319523D02*
X104931009Y-111271904D01*
X104931009Y-111271904D02*
X105026247Y-111224285D01*
X105026247Y-111224285D02*
X105264342Y-111224285D01*
X105264342Y-111224285D02*
X105359580Y-111271904D01*
X105359580Y-111271904D02*
X105407200Y-111319523D01*
X105407200Y-111319523D02*
X105454819Y-111414761D01*
X105454819Y-111414761D02*
X105454819Y-111700475D01*
X105454819Y-111700475D02*
X105407200Y-111795713D01*
X105407200Y-111795713D02*
X105359580Y-111843332D01*
D11*
X185241469Y-116732419D02*
X185241469Y-115732419D01*
X185241469Y-115732419D02*
X185479564Y-115732419D01*
X185479564Y-115732419D02*
X185622421Y-115780038D01*
X185622421Y-115780038D02*
X185717659Y-115875276D01*
X185717659Y-115875276D02*
X185765278Y-115970514D01*
X185765278Y-115970514D02*
X185812897Y-116160990D01*
X185812897Y-116160990D02*
X185812897Y-116303847D01*
X185812897Y-116303847D02*
X185765278Y-116494323D01*
X185765278Y-116494323D02*
X185717659Y-116589561D01*
X185717659Y-116589561D02*
X185622421Y-116684800D01*
X185622421Y-116684800D02*
X185479564Y-116732419D01*
X185479564Y-116732419D02*
X185241469Y-116732419D01*
X186146231Y-115732419D02*
X186765278Y-115732419D01*
X186765278Y-115732419D02*
X186431945Y-116113371D01*
X186431945Y-116113371D02*
X186574802Y-116113371D01*
X186574802Y-116113371D02*
X186670040Y-116160990D01*
X186670040Y-116160990D02*
X186717659Y-116208609D01*
X186717659Y-116208609D02*
X186765278Y-116303847D01*
X186765278Y-116303847D02*
X186765278Y-116541942D01*
X186765278Y-116541942D02*
X186717659Y-116637180D01*
X186717659Y-116637180D02*
X186670040Y-116684800D01*
X186670040Y-116684800D02*
X186574802Y-116732419D01*
X186574802Y-116732419D02*
X186289088Y-116732419D01*
X186289088Y-116732419D02*
X186193850Y-116684800D01*
X186193850Y-116684800D02*
X186146231Y-116637180D01*
X187241469Y-116732419D02*
X187431945Y-116732419D01*
X187431945Y-116732419D02*
X187527183Y-116684800D01*
X187527183Y-116684800D02*
X187574802Y-116637180D01*
X187574802Y-116637180D02*
X187670040Y-116494323D01*
X187670040Y-116494323D02*
X187717659Y-116303847D01*
X187717659Y-116303847D02*
X187717659Y-115922895D01*
X187717659Y-115922895D02*
X187670040Y-115827657D01*
X187670040Y-115827657D02*
X187622421Y-115780038D01*
X187622421Y-115780038D02*
X187527183Y-115732419D01*
X187527183Y-115732419D02*
X187336707Y-115732419D01*
X187336707Y-115732419D02*
X187241469Y-115780038D01*
X187241469Y-115780038D02*
X187193850Y-115827657D01*
X187193850Y-115827657D02*
X187146231Y-115922895D01*
X187146231Y-115922895D02*
X187146231Y-116160990D01*
X187146231Y-116160990D02*
X187193850Y-116256228D01*
X187193850Y-116256228D02*
X187241469Y-116303847D01*
X187241469Y-116303847D02*
X187336707Y-116351466D01*
X187336707Y-116351466D02*
X187527183Y-116351466D01*
X187527183Y-116351466D02*
X187622421Y-116303847D01*
X187622421Y-116303847D02*
X187670040Y-116256228D01*
X187670040Y-116256228D02*
X187717659Y-116160990D01*
X135886905Y-116732419D02*
X135886905Y-115732419D01*
X135886905Y-115732419D02*
X136125000Y-115732419D01*
X136125000Y-115732419D02*
X136267857Y-115780038D01*
X136267857Y-115780038D02*
X136363095Y-115875276D01*
X136363095Y-115875276D02*
X136410714Y-115970514D01*
X136410714Y-115970514D02*
X136458333Y-116160990D01*
X136458333Y-116160990D02*
X136458333Y-116303847D01*
X136458333Y-116303847D02*
X136410714Y-116494323D01*
X136410714Y-116494323D02*
X136363095Y-116589561D01*
X136363095Y-116589561D02*
X136267857Y-116684800D01*
X136267857Y-116684800D02*
X136125000Y-116732419D01*
X136125000Y-116732419D02*
X135886905Y-116732419D01*
X136934524Y-116732419D02*
X137125000Y-116732419D01*
X137125000Y-116732419D02*
X137220238Y-116684800D01*
X137220238Y-116684800D02*
X137267857Y-116637180D01*
X137267857Y-116637180D02*
X137363095Y-116494323D01*
X137363095Y-116494323D02*
X137410714Y-116303847D01*
X137410714Y-116303847D02*
X137410714Y-115922895D01*
X137410714Y-115922895D02*
X137363095Y-115827657D01*
X137363095Y-115827657D02*
X137315476Y-115780038D01*
X137315476Y-115780038D02*
X137220238Y-115732419D01*
X137220238Y-115732419D02*
X137029762Y-115732419D01*
X137029762Y-115732419D02*
X136934524Y-115780038D01*
X136934524Y-115780038D02*
X136886905Y-115827657D01*
X136886905Y-115827657D02*
X136839286Y-115922895D01*
X136839286Y-115922895D02*
X136839286Y-116160990D01*
X136839286Y-116160990D02*
X136886905Y-116256228D01*
X136886905Y-116256228D02*
X136934524Y-116303847D01*
X136934524Y-116303847D02*
X137029762Y-116351466D01*
X137029762Y-116351466D02*
X137220238Y-116351466D01*
X137220238Y-116351466D02*
X137315476Y-116303847D01*
X137315476Y-116303847D02*
X137363095Y-116256228D01*
X137363095Y-116256228D02*
X137410714Y-116160990D01*
X190360714Y-110232419D02*
X190360714Y-109232419D01*
X190360714Y-109232419D02*
X190598809Y-109232419D01*
X190598809Y-109232419D02*
X190741666Y-109280038D01*
X190741666Y-109280038D02*
X190836904Y-109375276D01*
X190836904Y-109375276D02*
X190884523Y-109470514D01*
X190884523Y-109470514D02*
X190932142Y-109660990D01*
X190932142Y-109660990D02*
X190932142Y-109803847D01*
X190932142Y-109803847D02*
X190884523Y-109994323D01*
X190884523Y-109994323D02*
X190836904Y-110089561D01*
X190836904Y-110089561D02*
X190741666Y-110184800D01*
X190741666Y-110184800D02*
X190598809Y-110232419D01*
X190598809Y-110232419D02*
X190360714Y-110232419D01*
X191789285Y-109565752D02*
X191789285Y-110232419D01*
X191551190Y-109184800D02*
X191313095Y-109899085D01*
X191313095Y-109899085D02*
X191932142Y-109899085D01*
X192836904Y-110232419D02*
X192265476Y-110232419D01*
X192551190Y-110232419D02*
X192551190Y-109232419D01*
X192551190Y-109232419D02*
X192455952Y-109375276D01*
X192455952Y-109375276D02*
X192360714Y-109470514D01*
X192360714Y-109470514D02*
X192265476Y-109518133D01*
X150410714Y-116732419D02*
X150410714Y-115732419D01*
X150410714Y-115732419D02*
X150648809Y-115732419D01*
X150648809Y-115732419D02*
X150791666Y-115780038D01*
X150791666Y-115780038D02*
X150886904Y-115875276D01*
X150886904Y-115875276D02*
X150934523Y-115970514D01*
X150934523Y-115970514D02*
X150982142Y-116160990D01*
X150982142Y-116160990D02*
X150982142Y-116303847D01*
X150982142Y-116303847D02*
X150934523Y-116494323D01*
X150934523Y-116494323D02*
X150886904Y-116589561D01*
X150886904Y-116589561D02*
X150791666Y-116684800D01*
X150791666Y-116684800D02*
X150648809Y-116732419D01*
X150648809Y-116732419D02*
X150410714Y-116732419D01*
X151934523Y-116732419D02*
X151363095Y-116732419D01*
X151648809Y-116732419D02*
X151648809Y-115732419D01*
X151648809Y-115732419D02*
X151553571Y-115875276D01*
X151553571Y-115875276D02*
X151458333Y-115970514D01*
X151458333Y-115970514D02*
X151363095Y-116018133D01*
X152505952Y-116160990D02*
X152410714Y-116113371D01*
X152410714Y-116113371D02*
X152363095Y-116065752D01*
X152363095Y-116065752D02*
X152315476Y-115970514D01*
X152315476Y-115970514D02*
X152315476Y-115922895D01*
X152315476Y-115922895D02*
X152363095Y-115827657D01*
X152363095Y-115827657D02*
X152410714Y-115780038D01*
X152410714Y-115780038D02*
X152505952Y-115732419D01*
X152505952Y-115732419D02*
X152696428Y-115732419D01*
X152696428Y-115732419D02*
X152791666Y-115780038D01*
X152791666Y-115780038D02*
X152839285Y-115827657D01*
X152839285Y-115827657D02*
X152886904Y-115922895D01*
X152886904Y-115922895D02*
X152886904Y-115970514D01*
X152886904Y-115970514D02*
X152839285Y-116065752D01*
X152839285Y-116065752D02*
X152791666Y-116113371D01*
X152791666Y-116113371D02*
X152696428Y-116160990D01*
X152696428Y-116160990D02*
X152505952Y-116160990D01*
X152505952Y-116160990D02*
X152410714Y-116208609D01*
X152410714Y-116208609D02*
X152363095Y-116256228D01*
X152363095Y-116256228D02*
X152315476Y-116351466D01*
X152315476Y-116351466D02*
X152315476Y-116541942D01*
X152315476Y-116541942D02*
X152363095Y-116637180D01*
X152363095Y-116637180D02*
X152410714Y-116684800D01*
X152410714Y-116684800D02*
X152505952Y-116732419D01*
X152505952Y-116732419D02*
X152696428Y-116732419D01*
X152696428Y-116732419D02*
X152791666Y-116684800D01*
X152791666Y-116684800D02*
X152839285Y-116637180D01*
X152839285Y-116637180D02*
X152886904Y-116541942D01*
X152886904Y-116541942D02*
X152886904Y-116351466D01*
X152886904Y-116351466D02*
X152839285Y-116256228D01*
X152839285Y-116256228D02*
X152791666Y-116208609D01*
X152791666Y-116208609D02*
X152696428Y-116160990D01*
X145410714Y-116732419D02*
X145410714Y-115732419D01*
X145410714Y-115732419D02*
X145648809Y-115732419D01*
X145648809Y-115732419D02*
X145791666Y-115780038D01*
X145791666Y-115780038D02*
X145886904Y-115875276D01*
X145886904Y-115875276D02*
X145934523Y-115970514D01*
X145934523Y-115970514D02*
X145982142Y-116160990D01*
X145982142Y-116160990D02*
X145982142Y-116303847D01*
X145982142Y-116303847D02*
X145934523Y-116494323D01*
X145934523Y-116494323D02*
X145886904Y-116589561D01*
X145886904Y-116589561D02*
X145791666Y-116684800D01*
X145791666Y-116684800D02*
X145648809Y-116732419D01*
X145648809Y-116732419D02*
X145410714Y-116732419D01*
X146934523Y-116732419D02*
X146363095Y-116732419D01*
X146648809Y-116732419D02*
X146648809Y-115732419D01*
X146648809Y-115732419D02*
X146553571Y-115875276D01*
X146553571Y-115875276D02*
X146458333Y-115970514D01*
X146458333Y-115970514D02*
X146363095Y-116018133D01*
X147839285Y-115732419D02*
X147363095Y-115732419D01*
X147363095Y-115732419D02*
X147315476Y-116208609D01*
X147315476Y-116208609D02*
X147363095Y-116160990D01*
X147363095Y-116160990D02*
X147458333Y-116113371D01*
X147458333Y-116113371D02*
X147696428Y-116113371D01*
X147696428Y-116113371D02*
X147791666Y-116160990D01*
X147791666Y-116160990D02*
X147839285Y-116208609D01*
X147839285Y-116208609D02*
X147886904Y-116303847D01*
X147886904Y-116303847D02*
X147886904Y-116541942D01*
X147886904Y-116541942D02*
X147839285Y-116637180D01*
X147839285Y-116637180D02*
X147791666Y-116684800D01*
X147791666Y-116684800D02*
X147696428Y-116732419D01*
X147696428Y-116732419D02*
X147458333Y-116732419D01*
X147458333Y-116732419D02*
X147363095Y-116684800D01*
X147363095Y-116684800D02*
X147315476Y-116637180D01*
D12*
X188598074Y-98392857D02*
X188121883Y-98726190D01*
X188598074Y-98964285D02*
X187598074Y-98964285D01*
X187598074Y-98964285D02*
X187598074Y-98583333D01*
X187598074Y-98583333D02*
X187645693Y-98488095D01*
X187645693Y-98488095D02*
X187693312Y-98440476D01*
X187693312Y-98440476D02*
X187788550Y-98392857D01*
X187788550Y-98392857D02*
X187931407Y-98392857D01*
X187931407Y-98392857D02*
X188026645Y-98440476D01*
X188026645Y-98440476D02*
X188074264Y-98488095D01*
X188074264Y-98488095D02*
X188121883Y-98583333D01*
X188121883Y-98583333D02*
X188121883Y-98964285D01*
X188598074Y-97440476D02*
X188598074Y-98011904D01*
X188598074Y-97726190D02*
X187598074Y-97726190D01*
X187598074Y-97726190D02*
X187740931Y-97821428D01*
X187740931Y-97821428D02*
X187836169Y-97916666D01*
X187836169Y-97916666D02*
X187883788Y-98011904D01*
X187598074Y-97107142D02*
X187598074Y-96440476D01*
X187598074Y-96440476D02*
X188598074Y-96869047D01*
D11*
X135886905Y-103732419D02*
X135886905Y-102732419D01*
X135886905Y-102732419D02*
X136125000Y-102732419D01*
X136125000Y-102732419D02*
X136267857Y-102780038D01*
X136267857Y-102780038D02*
X136363095Y-102875276D01*
X136363095Y-102875276D02*
X136410714Y-102970514D01*
X136410714Y-102970514D02*
X136458333Y-103160990D01*
X136458333Y-103160990D02*
X136458333Y-103303847D01*
X136458333Y-103303847D02*
X136410714Y-103494323D01*
X136410714Y-103494323D02*
X136363095Y-103589561D01*
X136363095Y-103589561D02*
X136267857Y-103684800D01*
X136267857Y-103684800D02*
X136125000Y-103732419D01*
X136125000Y-103732419D02*
X135886905Y-103732419D01*
X136791667Y-102732419D02*
X137458333Y-102732419D01*
X137458333Y-102732419D02*
X137029762Y-103732419D01*
D12*
X143354819Y-97916666D02*
X142878628Y-98249999D01*
X143354819Y-98488094D02*
X142354819Y-98488094D01*
X142354819Y-98488094D02*
X142354819Y-98107142D01*
X142354819Y-98107142D02*
X142402438Y-98011904D01*
X142402438Y-98011904D02*
X142450057Y-97964285D01*
X142450057Y-97964285D02*
X142545295Y-97916666D01*
X142545295Y-97916666D02*
X142688152Y-97916666D01*
X142688152Y-97916666D02*
X142783390Y-97964285D01*
X142783390Y-97964285D02*
X142831009Y-98011904D01*
X142831009Y-98011904D02*
X142878628Y-98107142D01*
X142878628Y-98107142D02*
X142878628Y-98488094D01*
X142783390Y-97345237D02*
X142735771Y-97440475D01*
X142735771Y-97440475D02*
X142688152Y-97488094D01*
X142688152Y-97488094D02*
X142592914Y-97535713D01*
X142592914Y-97535713D02*
X142545295Y-97535713D01*
X142545295Y-97535713D02*
X142450057Y-97488094D01*
X142450057Y-97488094D02*
X142402438Y-97440475D01*
X142402438Y-97440475D02*
X142354819Y-97345237D01*
X142354819Y-97345237D02*
X142354819Y-97154761D01*
X142354819Y-97154761D02*
X142402438Y-97059523D01*
X142402438Y-97059523D02*
X142450057Y-97011904D01*
X142450057Y-97011904D02*
X142545295Y-96964285D01*
X142545295Y-96964285D02*
X142592914Y-96964285D01*
X142592914Y-96964285D02*
X142688152Y-97011904D01*
X142688152Y-97011904D02*
X142735771Y-97059523D01*
X142735771Y-97059523D02*
X142783390Y-97154761D01*
X142783390Y-97154761D02*
X142783390Y-97345237D01*
X142783390Y-97345237D02*
X142831009Y-97440475D01*
X142831009Y-97440475D02*
X142878628Y-97488094D01*
X142878628Y-97488094D02*
X142973866Y-97535713D01*
X142973866Y-97535713D02*
X143164342Y-97535713D01*
X143164342Y-97535713D02*
X143259580Y-97488094D01*
X143259580Y-97488094D02*
X143307200Y-97440475D01*
X143307200Y-97440475D02*
X143354819Y-97345237D01*
X143354819Y-97345237D02*
X143354819Y-97154761D01*
X143354819Y-97154761D02*
X143307200Y-97059523D01*
X143307200Y-97059523D02*
X143259580Y-97011904D01*
X143259580Y-97011904D02*
X143164342Y-96964285D01*
X143164342Y-96964285D02*
X142973866Y-96964285D01*
X142973866Y-96964285D02*
X142878628Y-97011904D01*
X142878628Y-97011904D02*
X142831009Y-97059523D01*
X142831009Y-97059523D02*
X142783390Y-97154761D01*
X112666665Y-117634219D02*
X112714284Y-117586600D01*
X112714284Y-117586600D02*
X112857141Y-117538980D01*
X112857141Y-117538980D02*
X112952379Y-117538980D01*
X112952379Y-117538980D02*
X113095236Y-117586600D01*
X113095236Y-117586600D02*
X113190474Y-117681838D01*
X113190474Y-117681838D02*
X113238093Y-117777076D01*
X113238093Y-117777076D02*
X113285712Y-117967552D01*
X113285712Y-117967552D02*
X113285712Y-118110409D01*
X113285712Y-118110409D02*
X113238093Y-118300885D01*
X113238093Y-118300885D02*
X113190474Y-118396123D01*
X113190474Y-118396123D02*
X113095236Y-118491361D01*
X113095236Y-118491361D02*
X112952379Y-118538980D01*
X112952379Y-118538980D02*
X112857141Y-118538980D01*
X112857141Y-118538980D02*
X112714284Y-118491361D01*
X112714284Y-118491361D02*
X112666665Y-118443742D01*
X111666665Y-117538980D02*
X111999998Y-118015171D01*
X112238093Y-117538980D02*
X112238093Y-118538980D01*
X112238093Y-118538980D02*
X111857141Y-118538980D01*
X111857141Y-118538980D02*
X111761903Y-118491361D01*
X111761903Y-118491361D02*
X111714284Y-118443742D01*
X111714284Y-118443742D02*
X111666665Y-118348504D01*
X111666665Y-118348504D02*
X111666665Y-118205647D01*
X111666665Y-118205647D02*
X111714284Y-118110409D01*
X111714284Y-118110409D02*
X111761903Y-118062790D01*
X111761903Y-118062790D02*
X111857141Y-118015171D01*
X111857141Y-118015171D02*
X112238093Y-118015171D01*
X110714284Y-117538980D02*
X111285712Y-117538980D01*
X110999998Y-117538980D02*
X110999998Y-118538980D01*
X110999998Y-118538980D02*
X111095236Y-118396123D01*
X111095236Y-118396123D02*
X111190474Y-118300885D01*
X111190474Y-118300885D02*
X111285712Y-118253266D01*
D11*
X180410714Y-103732419D02*
X180410714Y-102732419D01*
X180410714Y-102732419D02*
X180648809Y-102732419D01*
X180648809Y-102732419D02*
X180791666Y-102780038D01*
X180791666Y-102780038D02*
X180886904Y-102875276D01*
X180886904Y-102875276D02*
X180934523Y-102970514D01*
X180934523Y-102970514D02*
X180982142Y-103160990D01*
X180982142Y-103160990D02*
X180982142Y-103303847D01*
X180982142Y-103303847D02*
X180934523Y-103494323D01*
X180934523Y-103494323D02*
X180886904Y-103589561D01*
X180886904Y-103589561D02*
X180791666Y-103684800D01*
X180791666Y-103684800D02*
X180648809Y-103732419D01*
X180648809Y-103732419D02*
X180410714Y-103732419D01*
X181315476Y-102732419D02*
X181934523Y-102732419D01*
X181934523Y-102732419D02*
X181601190Y-103113371D01*
X181601190Y-103113371D02*
X181744047Y-103113371D01*
X181744047Y-103113371D02*
X181839285Y-103160990D01*
X181839285Y-103160990D02*
X181886904Y-103208609D01*
X181886904Y-103208609D02*
X181934523Y-103303847D01*
X181934523Y-103303847D02*
X181934523Y-103541942D01*
X181934523Y-103541942D02*
X181886904Y-103637180D01*
X181886904Y-103637180D02*
X181839285Y-103684800D01*
X181839285Y-103684800D02*
X181744047Y-103732419D01*
X181744047Y-103732419D02*
X181458333Y-103732419D01*
X181458333Y-103732419D02*
X181363095Y-103684800D01*
X181363095Y-103684800D02*
X181315476Y-103637180D01*
X182791666Y-103065752D02*
X182791666Y-103732419D01*
X182553571Y-102684800D02*
X182315476Y-103399085D01*
X182315476Y-103399085D02*
X182934523Y-103399085D01*
X150410714Y-110232419D02*
X150410714Y-109232419D01*
X150410714Y-109232419D02*
X150648809Y-109232419D01*
X150648809Y-109232419D02*
X150791666Y-109280038D01*
X150791666Y-109280038D02*
X150886904Y-109375276D01*
X150886904Y-109375276D02*
X150934523Y-109470514D01*
X150934523Y-109470514D02*
X150982142Y-109660990D01*
X150982142Y-109660990D02*
X150982142Y-109803847D01*
X150982142Y-109803847D02*
X150934523Y-109994323D01*
X150934523Y-109994323D02*
X150886904Y-110089561D01*
X150886904Y-110089561D02*
X150791666Y-110184800D01*
X150791666Y-110184800D02*
X150648809Y-110232419D01*
X150648809Y-110232419D02*
X150410714Y-110232419D01*
X151934523Y-110232419D02*
X151363095Y-110232419D01*
X151648809Y-110232419D02*
X151648809Y-109232419D01*
X151648809Y-109232419D02*
X151553571Y-109375276D01*
X151553571Y-109375276D02*
X151458333Y-109470514D01*
X151458333Y-109470514D02*
X151363095Y-109518133D01*
X152267857Y-109232419D02*
X152934523Y-109232419D01*
X152934523Y-109232419D02*
X152505952Y-110232419D01*
%TO.C,D4*%
X133075000Y-100975000D02*
X132662500Y-100975000D01*
X133075000Y-101375000D02*
X133075000Y-100975000D01*
D14*
%TO.C,R10*%
X150515000Y-97522936D02*
X150515000Y-97977064D01*
X151985000Y-97522936D02*
X151985000Y-97977064D01*
%TO.C,C5*%
X97488748Y-108765000D02*
X98011252Y-108765000D01*
X97488748Y-110235000D02*
X98011252Y-110235000D01*
D11*
%TO.C,D20*%
X158075000Y-107475000D02*
X157662500Y-107475000D01*
X158075000Y-107875000D02*
X158075000Y-107475000D01*
D14*
%TO.C,C2*%
X91415000Y-116296248D02*
X91415000Y-116818752D01*
X92885000Y-116296248D02*
X92885000Y-116818752D01*
D11*
%TO.C,D21*%
X158075000Y-113975000D02*
X157662500Y-113975000D01*
X158075000Y-114375000D02*
X158075000Y-113975000D01*
%TO.C,D30*%
X173125000Y-113975000D02*
X172712500Y-113975000D01*
X173125000Y-114375000D02*
X173125000Y-113975000D01*
D15*
%TO.C,U4*%
X114780000Y-112885000D02*
X114780000Y-111635000D01*
X117120000Y-111635000D02*
X117120000Y-112885000D01*
D16*
X116700000Y-110160000D02*
G75*
G02*
X116500000Y-110160000I-100000J0D01*
G01*
X116500000Y-110160000D02*
G75*
G02*
X116700000Y-110160000I100000J0D01*
G01*
D11*
%TO.C,D25*%
X168125000Y-100975000D02*
X167712500Y-100975000D01*
X168125000Y-101375000D02*
X168125000Y-100975000D01*
%TO.C,D16*%
X153075000Y-100975000D02*
X152662500Y-100975000D01*
X153075000Y-101375000D02*
X153075000Y-100975000D01*
%TO.C,D14*%
X148075000Y-107475000D02*
X147662500Y-107475000D01*
X148075000Y-107875000D02*
X148075000Y-107475000D01*
%TO.C,D5*%
X133075000Y-107475000D02*
X132662500Y-107475000D01*
X133075000Y-107875000D02*
X133075000Y-107475000D01*
%TO.C,D37*%
X187905755Y-100975000D02*
X187493255Y-100975000D01*
X187905755Y-101375000D02*
X187905755Y-100975000D01*
D14*
%TO.C,C1*%
X91415000Y-112268748D02*
X91415000Y-112791252D01*
X92885000Y-112268748D02*
X92885000Y-112791252D01*
D11*
%TO.C,D12*%
X143075000Y-113975000D02*
X142662500Y-113975000D01*
X143075000Y-114375000D02*
X143075000Y-113975000D01*
D14*
%TO.C,J3*%
X88050000Y-107784264D02*
X87750000Y-107360000D01*
X87750000Y-107360000D02*
X87450000Y-107784264D01*
X87450000Y-107784264D02*
X88050000Y-107784264D01*
X86390000Y-106400000D02*
X86390000Y-106100000D01*
X86390000Y-106100000D02*
X85940000Y-106100000D01*
X86390000Y-103900000D02*
X86390000Y-103600000D01*
X86390000Y-103600000D02*
X85940000Y-103600000D01*
X86390000Y-101400000D02*
X86390000Y-101100000D01*
X86390000Y-101100000D02*
X85940000Y-101100000D01*
X85940000Y-108080000D02*
X85940000Y-99420000D01*
X85940000Y-106400000D02*
X86390000Y-106400000D01*
X85940000Y-106100000D02*
X85940000Y-106400000D01*
X85940000Y-103900000D02*
X86390000Y-103900000D01*
X85940000Y-103600000D02*
X85940000Y-103900000D01*
X85940000Y-101400000D02*
X86390000Y-101400000D01*
X85940000Y-101100000D02*
X85940000Y-101400000D01*
X85940000Y-99420000D02*
X77260000Y-99420000D01*
X77260000Y-108080000D02*
X85940000Y-108080000D01*
X77260000Y-99420000D02*
X77260000Y-108080000D01*
%TO.C,R16*%
X180515000Y-97522936D02*
X180515000Y-97977064D01*
X181985000Y-97522936D02*
X181985000Y-97977064D01*
D11*
%TO.C,D26*%
X168125000Y-107475000D02*
X167712500Y-107475000D01*
X168125000Y-107875000D02*
X168125000Y-107475000D01*
D14*
%TO.C,R2*%
X105765000Y-112227064D02*
X105765000Y-111772936D01*
X107235000Y-112227064D02*
X107235000Y-111772936D01*
%TO.C,J4*%
X99330000Y-101120000D02*
X99330000Y-92440000D01*
X99330000Y-92440000D02*
X93170000Y-92440000D01*
X97650000Y-101570000D02*
X97650000Y-101120000D01*
X97650000Y-101120000D02*
X97350000Y-101120000D01*
X97350000Y-101570000D02*
X97650000Y-101570000D01*
X97350000Y-101120000D02*
X97350000Y-101570000D01*
X95150000Y-101570000D02*
X95150000Y-101120000D01*
X95150000Y-101120000D02*
X94850000Y-101120000D01*
X94850000Y-101570000D02*
X95150000Y-101570000D01*
X94850000Y-101120000D02*
X94850000Y-101570000D01*
X93890000Y-102930000D02*
X93465736Y-102630000D01*
X93465736Y-103230000D02*
X93890000Y-102930000D01*
X93465736Y-102630000D02*
X93465736Y-103230000D01*
X93170000Y-101120000D02*
X99330000Y-101120000D01*
X93170000Y-92440000D02*
X93170000Y-101120000D01*
D11*
%TO.C,D6*%
X133075000Y-113975000D02*
X132662500Y-113975000D01*
X133075000Y-114375000D02*
X133075000Y-113975000D01*
D14*
%TO.C,R12*%
X160515000Y-97522936D02*
X160515000Y-97977064D01*
X161985000Y-97522936D02*
X161985000Y-97977064D01*
%TO.C,R7*%
X135515000Y-97522936D02*
X135515000Y-97977064D01*
X136985000Y-97522936D02*
X136985000Y-97977064D01*
%TO.C,C3*%
X119011252Y-106515000D02*
X118488748Y-106515000D01*
X119011252Y-107985000D02*
X118488748Y-107985000D01*
D11*
%TO.C,D19*%
X158075000Y-100975000D02*
X157662500Y-100975000D01*
X158075000Y-101375000D02*
X158075000Y-100975000D01*
%TO.C,D2*%
X128075000Y-107475000D02*
X127662500Y-107475000D01*
X128075000Y-107875000D02*
X128075000Y-107475000D01*
%TO.C,D1*%
X128075000Y-100975000D02*
X127662500Y-100975000D01*
X128075000Y-101375000D02*
X128075000Y-100975000D01*
D14*
%TO.C,R15*%
X175515000Y-97522936D02*
X175515000Y-97977064D01*
X176985000Y-97522936D02*
X176985000Y-97977064D01*
D15*
%TO.C,L1*%
X196250000Y-100750000D02*
X196250000Y-113750000D01*
X196250000Y-113750000D02*
X201150000Y-113750000D01*
X201150000Y-100750000D02*
X196250000Y-100750000D01*
X204350000Y-100750000D02*
X209250000Y-100750000D01*
X209250000Y-100750000D02*
X209250000Y-113750000D01*
X209250000Y-113750000D02*
X204350000Y-113750000D01*
D14*
%TO.C,R9*%
X145515000Y-97522936D02*
X145515000Y-97977064D01*
X146985000Y-97522936D02*
X146985000Y-97977064D01*
D11*
%TO.C,D33*%
X178075000Y-113975000D02*
X177662500Y-113975000D01*
X178075000Y-114375000D02*
X178075000Y-113975000D01*
%TO.C,D38*%
X187905755Y-107475000D02*
X187493255Y-107475000D01*
X187905755Y-107875000D02*
X187905755Y-107475000D01*
D17*
%TO.C,CR2*%
X122595601Y-112673800D02*
G75*
G02*
X122341601Y-112673800I-127000J0D01*
G01*
X122341601Y-112673800D02*
G75*
G02*
X122595601Y-112673800I127000J0D01*
G01*
X121325601Y-114769300D02*
X121325601Y-113118300D01*
X120312141Y-114769300D02*
X121325601Y-114769300D01*
X120037862Y-113118300D02*
X119362140Y-113118300D01*
X118074401Y-114769300D02*
X119087861Y-114769300D01*
X118074401Y-113118300D02*
X118074401Y-114769300D01*
D14*
%TO.C,C4*%
X112515000Y-94988748D02*
X112515000Y-95511252D01*
X113985000Y-94988748D02*
X113985000Y-95511252D01*
D17*
%TO.C,CR5*%
X115195599Y-105673800D02*
G75*
G02*
X114941599Y-105673800I-127000J0D01*
G01*
X114941599Y-105673800D02*
G75*
G02*
X115195599Y-105673800I127000J0D01*
G01*
X113925599Y-107769300D02*
X113925599Y-106118300D01*
X112912139Y-107769300D02*
X113925599Y-107769300D01*
X112637860Y-106118300D02*
X111962138Y-106118300D01*
X110674399Y-107769300D02*
X111687859Y-107769300D01*
X110674399Y-106118300D02*
X110674399Y-107769300D01*
%TO.C,U3*%
X96412547Y-115886900D02*
X99159853Y-115886900D01*
X99159853Y-110883100D02*
X96412547Y-110883100D01*
X98091000Y-110883100D02*
G75*
G02*
X97481400Y-110883100I-304800J0D01*
G01*
D11*
%TO.C,D32*%
X178075000Y-107475000D02*
X177662500Y-107475000D01*
X178075000Y-107875000D02*
X178075000Y-107475000D01*
%TO.C,D31*%
X178075000Y-100975000D02*
X177662500Y-100975000D01*
X178075000Y-101375000D02*
X178075000Y-100975000D01*
%TO.C,D40*%
X193025000Y-100975000D02*
X192612500Y-100975000D01*
X193025000Y-101375000D02*
X193025000Y-100975000D01*
D15*
%TO.C,U2*%
X108930000Y-112925000D02*
X108930000Y-111675000D01*
X111270000Y-111675000D02*
X111270000Y-112925000D01*
D16*
X110850000Y-110200000D02*
G75*
G02*
X110650000Y-110200000I-100000J0D01*
G01*
X110650000Y-110200000D02*
G75*
G02*
X110850000Y-110200000I100000J0D01*
G01*
D18*
%TO.C,G\u002A\u002A\u002A*%
G36*
X145237736Y-92061980D02*
G01*
X145232298Y-92086200D01*
X145218305Y-92103393D01*
X145187223Y-92114989D01*
X145130518Y-92122420D01*
X145039655Y-92127117D01*
X144906098Y-92130511D01*
X144818954Y-92132198D01*
X144651365Y-92137200D01*
X144523915Y-92144936D01*
X144441578Y-92154971D01*
X144409331Y-92166867D01*
X144409053Y-92168145D01*
X144421720Y-92202129D01*
X144456282Y-92274339D01*
X144507582Y-92374450D01*
X144570461Y-92492137D01*
X144575792Y-92501920D01*
X144657043Y-92652598D01*
X144710562Y-92761481D01*
X144735617Y-92835357D01*
X144731478Y-92881013D01*
X144697415Y-92905234D01*
X144632695Y-92914807D01*
X144536588Y-92916520D01*
X144531134Y-92916521D01*
X144423992Y-92917934D01*
X144362380Y-92923735D01*
X144336288Y-92936263D01*
X144335705Y-92957859D01*
X144337137Y-92961865D01*
X144357145Y-92995348D01*
X144405282Y-93068019D01*
X144477382Y-93173829D01*
X144569284Y-93306732D01*
X144676821Y-93460679D01*
X144795831Y-93629621D01*
X144833382Y-93682652D01*
X145312226Y-94358095D01*
X145320032Y-94042952D01*
X145326786Y-93883907D01*
X145339319Y-93774137D01*
X145359840Y-93707450D01*
X145390557Y-93677656D01*
X145433678Y-93678564D01*
X145448268Y-93683473D01*
X145464601Y-93695088D01*
X145476290Y-93720553D01*
X145483896Y-93767495D01*
X145487976Y-93843540D01*
X145489092Y-93956311D01*
X145487803Y-94113435D01*
X145486527Y-94204656D01*
X145483274Y-94385545D01*
X145479237Y-94518249D01*
X145473654Y-94610161D01*
X145465764Y-94668676D01*
X145454805Y-94701189D01*
X145440016Y-94715093D01*
X145433759Y-94716939D01*
X145389412Y-94701253D01*
X145331094Y-94649229D01*
X145306592Y-94620032D01*
X145228707Y-94517154D01*
X145133108Y-94386830D01*
X145023883Y-94235003D01*
X144905119Y-94067616D01*
X144780906Y-93890612D01*
X144655332Y-93709936D01*
X144532483Y-93531530D01*
X144416449Y-93361337D01*
X144311317Y-93205302D01*
X144221176Y-93069367D01*
X144150113Y-92959475D01*
X144102217Y-92881571D01*
X144081576Y-92841597D01*
X144081114Y-92838391D01*
X144095614Y-92813622D01*
X144134892Y-92797826D01*
X144209878Y-92788318D01*
X144305142Y-92783349D01*
X144406515Y-92777496D01*
X144482170Y-92769264D01*
X144518737Y-92760220D01*
X144520213Y-92758167D01*
X144507854Y-92728528D01*
X144474088Y-92659794D01*
X144423879Y-92561798D01*
X144362191Y-92444370D01*
X144353473Y-92427975D01*
X144289976Y-92304360D01*
X144237612Y-92194094D01*
X144201517Y-92108600D01*
X144186830Y-92059303D01*
X144186733Y-92057151D01*
X144188619Y-92037152D01*
X144199169Y-92022405D01*
X144225726Y-92012111D01*
X144275633Y-92005470D01*
X144356231Y-92001682D01*
X144474863Y-91999949D01*
X144638870Y-91999472D01*
X144716675Y-91999453D01*
X145246617Y-91999453D01*
X145237736Y-92061980D01*
G37*
G36*
X145428011Y-91685330D02*
G01*
X145437280Y-91720611D01*
X145449376Y-91786172D01*
X145479256Y-91861769D01*
X145517312Y-91928602D01*
X145553935Y-91967875D01*
X145565609Y-91971663D01*
X145601034Y-91948594D01*
X145617863Y-91916247D01*
X145655275Y-91841916D01*
X145703830Y-91800385D01*
X145751364Y-91801215D01*
X145758157Y-91805996D01*
X145781733Y-91851638D01*
X145767641Y-91896884D01*
X145726102Y-91916083D01*
X145692041Y-91932983D01*
X145692238Y-91969562D01*
X145723271Y-92004643D01*
X145741749Y-92012960D01*
X145804641Y-92051705D01*
X145868970Y-92118599D01*
X145918616Y-92193711D01*
X145937499Y-92254973D01*
X145919876Y-92309823D01*
X145875601Y-92380278D01*
X145854129Y-92406653D01*
X145803600Y-92471619D01*
X145773986Y-92524037D01*
X145770760Y-92537614D01*
X145783054Y-92580880D01*
X145814664Y-92653717D01*
X145843071Y-92710334D01*
X145915335Y-92848523D01*
X145964950Y-92949113D01*
X145996109Y-93023172D01*
X146013005Y-93081770D01*
X146019833Y-93135974D01*
X146020869Y-93179591D01*
X146012773Y-93271962D01*
X145980458Y-93342973D01*
X145930552Y-93402829D01*
X145823568Y-93482287D01*
X145676560Y-93541482D01*
X145502737Y-93576128D01*
X145373929Y-93583479D01*
X145293349Y-93581154D01*
X145255019Y-93569792D01*
X145245662Y-93542813D01*
X145247766Y-93520952D01*
X145257420Y-93488553D01*
X145283116Y-93467909D01*
X145336884Y-93454636D01*
X145430756Y-93444346D01*
X145466036Y-93441389D01*
X145648062Y-93414483D01*
X145779487Y-93367181D01*
X145861639Y-93298897D01*
X145884654Y-93256701D01*
X145900809Y-93183572D01*
X145890862Y-93104052D01*
X145851483Y-93006251D01*
X145779342Y-92878278D01*
X145778103Y-92876246D01*
X145694336Y-92707297D01*
X145660597Y-92557579D01*
X145677021Y-92428569D01*
X145729043Y-92338038D01*
X145774864Y-92277534D01*
X145785906Y-92238476D01*
X145767052Y-92203377D01*
X145766752Y-92203015D01*
X145715382Y-92161037D01*
X145642359Y-92121367D01*
X145638123Y-92119565D01*
X145545903Y-92098845D01*
X145475376Y-92123928D01*
X145425929Y-92196172D01*
X145396950Y-92316935D01*
X145387826Y-92487577D01*
X145394363Y-92660210D01*
X145401469Y-92831753D01*
X145394600Y-92964207D01*
X145370528Y-93073016D01*
X145326024Y-93173621D01*
X145267381Y-93267655D01*
X145199642Y-93347772D01*
X145111033Y-93427523D01*
X145016408Y-93495958D01*
X144930620Y-93542126D01*
X144876717Y-93555689D01*
X144831691Y-93541405D01*
X144829165Y-93503564D01*
X144865554Y-93449683D01*
X144937277Y-93387278D01*
X144966639Y-93367041D01*
X145065475Y-93287865D01*
X145155646Y-93191586D01*
X145188530Y-93146116D01*
X145220920Y-93093548D01*
X145243262Y-93047968D01*
X145257201Y-92997971D01*
X145264388Y-92932156D01*
X145266468Y-92839118D01*
X145265090Y-92707453D01*
X145263664Y-92626121D01*
X145262726Y-92442577D01*
X145268841Y-92304788D01*
X145284101Y-92203152D01*
X145310596Y-92128066D01*
X145350420Y-92069927D01*
X145393763Y-92028763D01*
X145431018Y-91980907D01*
X145426542Y-91925415D01*
X145378675Y-91851077D01*
X145364990Y-91834435D01*
X145317643Y-91758785D01*
X145313131Y-91701181D01*
X145350706Y-91669585D01*
X145380828Y-91665974D01*
X145428011Y-91685330D01*
G37*
D14*
%TO.C,R11*%
X155515000Y-97522936D02*
X155515000Y-97977064D01*
X156985000Y-97522936D02*
X156985000Y-97977064D01*
D11*
%TO.C,D8*%
X138075000Y-107475000D02*
X137662500Y-107475000D01*
X138075000Y-107875000D02*
X138075000Y-107475000D01*
%TO.C,D23*%
X163075000Y-107475000D02*
X162662500Y-107475000D01*
X163075000Y-107875000D02*
X163075000Y-107475000D01*
%TO.C,D28*%
X173075000Y-100975000D02*
X172662500Y-100975000D01*
X173075000Y-101375000D02*
X173075000Y-100975000D01*
D14*
%TO.C,R13*%
X165515000Y-97522936D02*
X165515000Y-97977064D01*
X166985000Y-97522936D02*
X166985000Y-97977064D01*
%TO.C,J1*%
X88190000Y-121534264D02*
X87890000Y-121110000D01*
X87890000Y-121110000D02*
X87590000Y-121534264D01*
X87590000Y-121534264D02*
X88190000Y-121534264D01*
X86530000Y-120150000D02*
X86530000Y-119850000D01*
X86530000Y-119850000D02*
X86080000Y-119850000D01*
X86530000Y-117650000D02*
X86530000Y-117350000D01*
X86530000Y-117350000D02*
X86080000Y-117350000D01*
X86530000Y-115150000D02*
X86530000Y-114850000D01*
X86530000Y-114850000D02*
X86080000Y-114850000D01*
X86530000Y-112650000D02*
X86530000Y-112350000D01*
X86530000Y-112350000D02*
X86080000Y-112350000D01*
X86080000Y-121830000D02*
X86080000Y-110670000D01*
X86080000Y-120150000D02*
X86530000Y-120150000D01*
X86080000Y-119850000D02*
X86080000Y-120150000D01*
X86080000Y-117650000D02*
X86530000Y-117650000D01*
X86080000Y-117350000D02*
X86080000Y-117650000D01*
X86080000Y-115150000D02*
X86530000Y-115150000D01*
X86080000Y-114850000D02*
X86080000Y-115150000D01*
X86080000Y-112650000D02*
X86530000Y-112650000D01*
X86080000Y-112350000D02*
X86080000Y-112650000D01*
X86080000Y-110670000D02*
X77400000Y-110670000D01*
X77400000Y-121830000D02*
X86080000Y-121830000D01*
X77400000Y-110670000D02*
X77400000Y-121830000D01*
D11*
%TO.C,D10*%
X143075000Y-100975000D02*
X142662500Y-100975000D01*
X143075000Y-101375000D02*
X143075000Y-100975000D01*
%TO.C,D3*%
X128075000Y-113975000D02*
X127662500Y-113975000D01*
X128075000Y-114375000D02*
X128075000Y-113975000D01*
D14*
%TO.C,R18*%
X190465000Y-97522936D02*
X190465000Y-97977064D01*
X191935000Y-97522936D02*
X191935000Y-97977064D01*
D11*
%TO.C,D42*%
X193025000Y-113975000D02*
X192612500Y-113975000D01*
X193025000Y-114375000D02*
X193025000Y-113975000D01*
D17*
%TO.C,CR4*%
X119795601Y-116723800D02*
G75*
G02*
X119541601Y-116723800I-127000J0D01*
G01*
X119541601Y-116723800D02*
G75*
G02*
X119795601Y-116723800I127000J0D01*
G01*
X118525601Y-118819300D02*
X118525601Y-117168300D01*
X117512141Y-118819300D02*
X118525601Y-118819300D01*
X117237862Y-117168300D02*
X116562140Y-117168300D01*
X115274401Y-118819300D02*
X116287861Y-118819300D01*
X115274401Y-117168300D02*
X115274401Y-118819300D01*
D14*
%TO.C,R14*%
X170515000Y-97522936D02*
X170515000Y-97977064D01*
X171985000Y-97522936D02*
X171985000Y-97977064D01*
%TO.C,R4*%
X102765000Y-116292936D02*
X102765000Y-116747064D01*
X104235000Y-116292936D02*
X104235000Y-116747064D01*
D11*
%TO.C,D29*%
X173075000Y-107475000D02*
X172662500Y-107475000D01*
X173075000Y-107875000D02*
X173075000Y-107475000D01*
D14*
%TO.C,J2*%
X110080000Y-101120000D02*
X110080000Y-92440000D01*
X110080000Y-92440000D02*
X103920000Y-92440000D01*
X108400000Y-101570000D02*
X108400000Y-101120000D01*
X108400000Y-101120000D02*
X108100000Y-101120000D01*
X108100000Y-101570000D02*
X108400000Y-101570000D01*
X108100000Y-101120000D02*
X108100000Y-101570000D01*
X105900000Y-101570000D02*
X105900000Y-101120000D01*
X105900000Y-101120000D02*
X105600000Y-101120000D01*
X105600000Y-101570000D02*
X105900000Y-101570000D01*
X105600000Y-101120000D02*
X105600000Y-101570000D01*
X104640000Y-102930000D02*
X104215736Y-102630000D01*
X104215736Y-103230000D02*
X104640000Y-102930000D01*
X104215736Y-102630000D02*
X104215736Y-103230000D01*
X103920000Y-101120000D02*
X110080000Y-101120000D01*
X103920000Y-92440000D02*
X103920000Y-101120000D01*
%TO.C,R6*%
X130515000Y-97522936D02*
X130515000Y-97977064D01*
X131985000Y-97522936D02*
X131985000Y-97977064D01*
%TO.C,R5*%
X125515000Y-97522936D02*
X125515000Y-97977064D01*
X126985000Y-97522936D02*
X126985000Y-97977064D01*
D11*
%TO.C,D35*%
X183075000Y-107475000D02*
X182662500Y-107475000D01*
X183075000Y-107875000D02*
X183075000Y-107475000D01*
%TO.C,D27*%
X168075000Y-113975000D02*
X167662500Y-113975000D01*
X168075000Y-114375000D02*
X168075000Y-113975000D01*
%TO.C,D13*%
X148075000Y-100975000D02*
X147662500Y-100975000D01*
X148075000Y-101375000D02*
X148075000Y-100975000D01*
%TO.C,D11*%
X143075000Y-107475000D02*
X142662500Y-107475000D01*
X143075000Y-107875000D02*
X143075000Y-107475000D01*
D14*
%TO.C,R1*%
X112215000Y-112527064D02*
X112215000Y-112072936D01*
X113685000Y-112527064D02*
X113685000Y-112072936D01*
D11*
%TO.C,D36*%
X183075000Y-113975000D02*
X182662500Y-113975000D01*
X183075000Y-114375000D02*
X183075000Y-113975000D01*
%TO.C,D24*%
X163075000Y-113975000D02*
X162662500Y-113975000D01*
X163075000Y-114375000D02*
X163075000Y-113975000D01*
%TO.C,D22*%
X163125000Y-100975000D02*
X162712500Y-100975000D01*
X163125000Y-101375000D02*
X163125000Y-100975000D01*
%TO.C,U5*%
X115500000Y-100231000D02*
X122000000Y-100231000D01*
D19*
X116355000Y-104610000D02*
X116355000Y-104610000D01*
X116553000Y-104610000D02*
X116553000Y-104610000D01*
X116355000Y-104610000D02*
G75*
G02*
X116553000Y-104610000I99000J0D01*
G01*
X116553000Y-104610000D02*
G75*
G02*
X116355000Y-104610000I-99000J0D01*
G01*
D14*
%TO.C,R3*%
X102765000Y-111792936D02*
X102765000Y-112247064D01*
X104235000Y-111792936D02*
X104235000Y-112247064D01*
D11*
%TO.C,D39*%
X187905755Y-113975000D02*
X187493255Y-113975000D01*
X187905755Y-114375000D02*
X187905755Y-113975000D01*
%TO.C,D9*%
X138075000Y-113975000D02*
X137662500Y-113975000D01*
X138075000Y-114375000D02*
X138075000Y-113975000D01*
%TO.C,D41*%
X193025000Y-107475000D02*
X192612500Y-107475000D01*
X193025000Y-107875000D02*
X193025000Y-107475000D01*
%TO.C,D18*%
X153075000Y-113975000D02*
X152662500Y-113975000D01*
X153075000Y-114375000D02*
X153075000Y-113975000D01*
%TO.C,D15*%
X148075000Y-113975000D02*
X147662500Y-113975000D01*
X148075000Y-114375000D02*
X148075000Y-113975000D01*
D14*
%TO.C,R17*%
X185516174Y-97522936D02*
X185516174Y-97977064D01*
X186986174Y-97522936D02*
X186986174Y-97977064D01*
D11*
%TO.C,D7*%
X138075000Y-100975000D02*
X137662500Y-100975000D01*
X138075000Y-101375000D02*
X138075000Y-100975000D01*
D14*
%TO.C,R8*%
X140515000Y-97522936D02*
X140515000Y-97977064D01*
X141985000Y-97522936D02*
X141985000Y-97977064D01*
D17*
%TO.C,CR1*%
X114895599Y-116723800D02*
G75*
G02*
X114641599Y-116723800I-127000J0D01*
G01*
X114641599Y-116723800D02*
G75*
G02*
X114895599Y-116723800I127000J0D01*
G01*
X113625599Y-118819300D02*
X113625599Y-117168300D01*
X112612139Y-118819300D02*
X113625599Y-118819300D01*
X112337860Y-117168300D02*
X111662138Y-117168300D01*
X110374399Y-118819300D02*
X111387859Y-118819300D01*
X110374399Y-117168300D02*
X110374399Y-118819300D01*
D11*
%TO.C,D34*%
X183075000Y-100975000D02*
X182662500Y-100975000D01*
X183075000Y-101375000D02*
X183075000Y-100975000D01*
%TO.C,D17*%
X153075000Y-107475000D02*
X152662500Y-107475000D01*
X153075000Y-107875000D02*
X153075000Y-107475000D01*
%TD*%
M02*
