%TF.GenerationSoftware,KiCad,Pcbnew,8.0.8+dfsg-1*%
%TF.CreationDate,2025-04-05T15:10:42-07:00*%
%TF.ProjectId,TSSI,54535349-2e6b-4696-9361-645f70636258,rev?*%
%TF.SameCoordinates,Original*%
%TF.FileFunction,Copper,L2,Bot*%
%TF.FilePolarity,Positive*%
%FSLAX46Y46*%
G04 Gerber Fmt 4.6, Leading zero omitted, Abs format (unit mm)*
G04 Created by KiCad (PCBNEW 8.0.8+dfsg-1) date 2025-04-05 15:10:42*
%MOMM*%
%LPD*%
G01*
G04 APERTURE LIST*
G04 Aperture macros list*
%AMRoundRect*
0 Rectangle with rounded corners*
0 $1 Rounding radius*
0 $2 $3 $4 $5 $6 $7 $8 $9 X,Y pos of 4 corners*
0 Add a 4 corners polygon primitive as box body*
4,1,4,$2,$3,$4,$5,$6,$7,$8,$9,$2,$3,0*
0 Add four circle primitives for the rounded corners*
1,1,$1+$1,$2,$3*
1,1,$1+$1,$4,$5*
1,1,$1+$1,$6,$7*
1,1,$1+$1,$8,$9*
0 Add four rect primitives between the rounded corners*
20,1,$1+$1,$2,$3,$4,$5,0*
20,1,$1+$1,$4,$5,$6,$7,0*
20,1,$1+$1,$6,$7,$8,$9,0*
20,1,$1+$1,$8,$9,$2,$3,0*%
G04 Aperture macros list end*
%TA.AperFunction,ComponentPad*%
%ADD10RoundRect,0.250000X0.850000X0.600000X-0.850000X0.600000X-0.850000X-0.600000X0.850000X-0.600000X0*%
%TD*%
%TA.AperFunction,ComponentPad*%
%ADD11O,2.200000X1.700000*%
%TD*%
%TA.AperFunction,ComponentPad*%
%ADD12RoundRect,0.250000X0.600000X-0.850000X0.600000X0.850000X-0.600000X0.850000X-0.600000X-0.850000X0*%
%TD*%
%TA.AperFunction,ComponentPad*%
%ADD13O,1.700000X2.200000*%
%TD*%
%TA.AperFunction,SMDPad,CuDef*%
%ADD14R,0.750000X1.150000*%
%TD*%
%TA.AperFunction,SMDPad,CuDef*%
%ADD15RoundRect,0.250000X-0.450000X0.350000X-0.450000X-0.350000X0.450000X-0.350000X0.450000X0.350000X0*%
%TD*%
%TA.AperFunction,ViaPad*%
%ADD16C,0.600000*%
%TD*%
%TA.AperFunction,Conductor*%
%ADD17C,0.200000*%
%TD*%
G04 APERTURE END LIST*
D10*
%TO.P,J3,1,Pin_1*%
%TO.N,GND*%
X87750000Y-106250000D03*
D11*
%TO.P,J3,2,Pin_2*%
%TO.N,/RTML_5V*%
X87750000Y-103750000D03*
%TO.P,J3,3,Pin_3*%
%TO.N,/RTDS_SIGNAL*%
X87750000Y-101250000D03*
%TD*%
D12*
%TO.P,J4,1,Pin_1*%
%TO.N,GND*%
X95000000Y-102930000D03*
D13*
%TO.P,J4,2,Pin_2*%
%TO.N,/RTML_12V*%
X97500000Y-102930000D03*
%TD*%
D10*
%TO.P,J1,1,Pin_1*%
%TO.N,GND*%
X87890000Y-120000000D03*
D11*
%TO.P,J1,2,Pin_2*%
%TO.N,+12V*%
X87890000Y-117500000D03*
%TO.P,J1,3,Pin_3*%
%TO.N,/BMS_STATUS*%
X87890000Y-115000000D03*
%TO.P,J1,4,Pin_4*%
%TO.N,/IMD_STATUS*%
X87890000Y-112500000D03*
%TD*%
D12*
%TO.P,J2,1,Pin_1*%
%TO.N,GND*%
X105750000Y-102930000D03*
D13*
%TO.P,J2,2,Pin_2*%
%TO.N,/RTML_12V*%
X108250000Y-102930000D03*
%TD*%
D14*
%TO.P,D54,1,K*%
%TO.N,/RED_LIGHTS*%
X175750000Y-114750000D03*
%TO.P,D54,2,K*%
X177200000Y-114750000D03*
%TO.P,D54,3,K*%
X177200000Y-117900000D03*
%TO.P,D54,4,A*%
%TO.N,Net-(D54-A)*%
X175750000Y-117900000D03*
%TD*%
D15*
%TO.P,R22,1*%
%TO.N,+12V*%
X176250000Y-96750000D03*
%TO.P,R22,2*%
%TO.N,Net-(D52-A)*%
X176250000Y-98750000D03*
%TD*%
%TO.P,R25,1*%
%TO.N,+12V*%
X161250000Y-96750000D03*
%TO.P,R25,2*%
%TO.N,Net-(D61-A)*%
X161250000Y-98750000D03*
%TD*%
%TO.P,R31,1*%
%TO.N,+12V*%
X131250000Y-96750000D03*
%TO.P,R31,2*%
%TO.N,Net-(D79-A)*%
X131250000Y-98750000D03*
%TD*%
D14*
%TO.P,D45,1,K*%
%TO.N,/GREEN_LIGHTS*%
X190750000Y-114750000D03*
%TO.P,D45,2,K*%
X192200000Y-114750000D03*
%TO.P,D45,3,K*%
X192200000Y-117900000D03*
%TO.P,D45,4,A*%
%TO.N,Net-(D45-A)*%
X190750000Y-117900000D03*
%TD*%
%TO.P,D83,1,K*%
%TO.N,Net-(D84-A)*%
X125800000Y-108250000D03*
%TO.P,D83,2,K*%
X127250000Y-108250000D03*
%TO.P,D83,3,K*%
X127250000Y-111400000D03*
%TO.P,D83,4,A*%
%TO.N,Net-(D83-A)*%
X125800000Y-111400000D03*
%TD*%
%TO.P,D73,1,K*%
%TO.N,Net-(D74-A)*%
X140750000Y-101750000D03*
%TO.P,D73,2,K*%
X142200000Y-101750000D03*
%TO.P,D73,3,K*%
X142200000Y-104900000D03*
%TO.P,D73,4,A*%
%TO.N,Net-(D73-A)*%
X140750000Y-104900000D03*
%TD*%
D15*
%TO.P,R26,1*%
%TO.N,+12V*%
X156250000Y-96750000D03*
%TO.P,R26,2*%
%TO.N,Net-(D64-A)*%
X156250000Y-98750000D03*
%TD*%
%TO.P,R24,1*%
%TO.N,+12V*%
X166250000Y-96750000D03*
%TO.P,R24,2*%
%TO.N,Net-(D58-A)*%
X166250000Y-98750000D03*
%TD*%
D14*
%TO.P,D61,1,K*%
%TO.N,Net-(D62-A)*%
X160750000Y-101750000D03*
%TO.P,D61,2,K*%
X162200000Y-101750000D03*
%TO.P,D61,3,K*%
X162200000Y-104900000D03*
%TO.P,D61,4,A*%
%TO.N,Net-(D61-A)*%
X160750000Y-104900000D03*
%TD*%
%TO.P,D47,1,K*%
%TO.N,Net-(D48-A)*%
X185630755Y-108250000D03*
%TO.P,D47,2,K*%
X187080755Y-108250000D03*
%TO.P,D47,3,K*%
X187080755Y-111400000D03*
%TO.P,D47,4,A*%
%TO.N,Net-(D47-A)*%
X185630755Y-111400000D03*
%TD*%
%TO.P,D55,1,K*%
%TO.N,Net-(D56-A)*%
X170750000Y-101750000D03*
%TO.P,D55,2,K*%
X172200000Y-101750000D03*
%TO.P,D55,3,K*%
X172200000Y-104900000D03*
%TO.P,D55,4,A*%
%TO.N,Net-(D55-A)*%
X170750000Y-104900000D03*
%TD*%
D15*
%TO.P,R32,1*%
%TO.N,+12V*%
X126250000Y-96750000D03*
%TO.P,R32,2*%
%TO.N,Net-(D82-A)*%
X126250000Y-98750000D03*
%TD*%
D14*
%TO.P,D43,1,K*%
%TO.N,Net-(D44-A)*%
X190700000Y-101750000D03*
%TO.P,D43,2,K*%
X192150000Y-101750000D03*
%TO.P,D43,3,K*%
X192150000Y-104900000D03*
%TO.P,D43,4,A*%
%TO.N,Net-(D43-A)*%
X190700000Y-104900000D03*
%TD*%
D15*
%TO.P,R20,1*%
%TO.N,+12V*%
X186250000Y-96747216D03*
%TO.P,R20,2*%
%TO.N,Net-(D46-A)*%
X186250000Y-98747216D03*
%TD*%
D14*
%TO.P,D79,1,K*%
%TO.N,Net-(D80-A)*%
X130750000Y-101750000D03*
%TO.P,D79,2,K*%
X132200000Y-101750000D03*
%TO.P,D79,3,K*%
X132200000Y-104900000D03*
%TO.P,D79,4,A*%
%TO.N,Net-(D79-A)*%
X130750000Y-104900000D03*
%TD*%
%TO.P,D71,1,K*%
%TO.N,Net-(D72-A)*%
X145750000Y-108250000D03*
%TO.P,D71,2,K*%
X147200000Y-108250000D03*
%TO.P,D71,3,K*%
X147200000Y-111400000D03*
%TO.P,D71,4,A*%
%TO.N,Net-(D71-A)*%
X145750000Y-111400000D03*
%TD*%
%TO.P,D46,1,K*%
%TO.N,Net-(D47-A)*%
X185580755Y-101750000D03*
%TO.P,D46,2,K*%
X187030755Y-101750000D03*
%TO.P,D46,3,K*%
X187030755Y-104900000D03*
%TO.P,D46,4,A*%
%TO.N,Net-(D46-A)*%
X185580755Y-104900000D03*
%TD*%
D15*
%TO.P,R19,1*%
%TO.N,+12V*%
X191200000Y-96750000D03*
%TO.P,R19,2*%
%TO.N,Net-(D43-A)*%
X191200000Y-98750000D03*
%TD*%
D14*
%TO.P,D52,1,K*%
%TO.N,Net-(D53-A)*%
X175750000Y-101750000D03*
%TO.P,D52,2,K*%
X177200000Y-101750000D03*
%TO.P,D52,3,K*%
X177200000Y-104900000D03*
%TO.P,D52,4,A*%
%TO.N,Net-(D52-A)*%
X175750000Y-104900000D03*
%TD*%
%TO.P,D82,1,K*%
%TO.N,Net-(D83-A)*%
X125750000Y-101750000D03*
%TO.P,D82,2,K*%
X127200000Y-101750000D03*
%TO.P,D82,3,K*%
X127200000Y-104900000D03*
%TO.P,D82,4,A*%
%TO.N,Net-(D82-A)*%
X125750000Y-104900000D03*
%TD*%
%TO.P,D78,1,K*%
%TO.N,/RED_LIGHTS*%
X135750000Y-114750000D03*
%TO.P,D78,2,K*%
X137200000Y-114750000D03*
%TO.P,D78,3,K*%
X137200000Y-117900000D03*
%TO.P,D78,4,A*%
%TO.N,Net-(D78-A)*%
X135750000Y-117900000D03*
%TD*%
%TO.P,D60,1,K*%
%TO.N,/RED_LIGHTS*%
X165750000Y-114750000D03*
%TO.P,D60,2,K*%
X167200000Y-114750000D03*
%TO.P,D60,3,K*%
X167200000Y-117900000D03*
%TO.P,D60,4,A*%
%TO.N,Net-(D60-A)*%
X165750000Y-117900000D03*
%TD*%
D15*
%TO.P,R21,1*%
%TO.N,+12V*%
X181250000Y-96750000D03*
%TO.P,R21,2*%
%TO.N,Net-(D49-A)*%
X181250000Y-98750000D03*
%TD*%
D14*
%TO.P,D76,1,K*%
%TO.N,Net-(D77-A)*%
X135750000Y-101750000D03*
%TO.P,D76,2,K*%
X137200000Y-101750000D03*
%TO.P,D76,3,K*%
X137200000Y-104900000D03*
%TO.P,D76,4,A*%
%TO.N,Net-(D76-A)*%
X135750000Y-104900000D03*
%TD*%
%TO.P,D74,1,K*%
%TO.N,Net-(D75-A)*%
X140750000Y-108250000D03*
%TO.P,D74,2,K*%
X142200000Y-108250000D03*
%TO.P,D74,3,K*%
X142200000Y-111400000D03*
%TO.P,D74,4,A*%
%TO.N,Net-(D74-A)*%
X140750000Y-111400000D03*
%TD*%
%TO.P,D70,1,K*%
%TO.N,Net-(D71-A)*%
X145750000Y-101750000D03*
%TO.P,D70,2,K*%
X147200000Y-101750000D03*
%TO.P,D70,3,K*%
X147200000Y-104900000D03*
%TO.P,D70,4,A*%
%TO.N,Net-(D70-A)*%
X145750000Y-104900000D03*
%TD*%
%TO.P,D64,1,K*%
%TO.N,Net-(D65-A)*%
X155750000Y-101750000D03*
%TO.P,D64,2,K*%
X157200000Y-101750000D03*
%TO.P,D64,3,K*%
X157200000Y-104900000D03*
%TO.P,D64,4,A*%
%TO.N,Net-(D64-A)*%
X155750000Y-104900000D03*
%TD*%
D15*
%TO.P,R29,1*%
%TO.N,+12V*%
X141250000Y-96750000D03*
%TO.P,R29,2*%
%TO.N,Net-(D73-A)*%
X141250000Y-98750000D03*
%TD*%
D14*
%TO.P,D81,1,K*%
%TO.N,/GREEN_LIGHTS*%
X130750000Y-114750000D03*
%TO.P,D81,2,K*%
X132200000Y-114750000D03*
%TO.P,D81,3,K*%
X132200000Y-117900000D03*
%TO.P,D81,4,A*%
%TO.N,Net-(D81-A)*%
X130750000Y-117900000D03*
%TD*%
%TO.P,D75,1,K*%
%TO.N,/GREEN_LIGHTS*%
X140750000Y-114750000D03*
%TO.P,D75,2,K*%
X142200000Y-114750000D03*
%TO.P,D75,3,K*%
X142200000Y-117900000D03*
%TO.P,D75,4,A*%
%TO.N,Net-(D75-A)*%
X140750000Y-117900000D03*
%TD*%
%TO.P,D80,1,K*%
%TO.N,Net-(D81-A)*%
X130750000Y-108250000D03*
%TO.P,D80,2,K*%
X132200000Y-108250000D03*
%TO.P,D80,3,K*%
X132200000Y-111400000D03*
%TO.P,D80,4,A*%
%TO.N,Net-(D80-A)*%
X130750000Y-111400000D03*
%TD*%
%TO.P,D58,1,K*%
%TO.N,Net-(D59-A)*%
X165800000Y-101750000D03*
%TO.P,D58,2,K*%
X167250000Y-101750000D03*
%TO.P,D58,3,K*%
X167250000Y-104900000D03*
%TO.P,D58,4,A*%
%TO.N,Net-(D58-A)*%
X165800000Y-104900000D03*
%TD*%
D15*
%TO.P,R30,1*%
%TO.N,+12V*%
X136250000Y-96750000D03*
%TO.P,R30,2*%
%TO.N,Net-(D76-A)*%
X136250000Y-98750000D03*
%TD*%
D14*
%TO.P,D49,1,K*%
%TO.N,Net-(D50-A)*%
X180750000Y-101750000D03*
%TO.P,D49,2,K*%
X182200000Y-101750000D03*
%TO.P,D49,3,K*%
X182200000Y-104900000D03*
%TO.P,D49,4,A*%
%TO.N,Net-(D49-A)*%
X180750000Y-104900000D03*
%TD*%
%TO.P,D65,1,K*%
%TO.N,Net-(D66-A)*%
X155750000Y-108250000D03*
%TO.P,D65,2,K*%
X157200000Y-108250000D03*
%TO.P,D65,3,K*%
X157200000Y-111400000D03*
%TO.P,D65,4,A*%
%TO.N,Net-(D65-A)*%
X155750000Y-111400000D03*
%TD*%
%TO.P,D68,1,K*%
%TO.N,Net-(D69-A)*%
X150750000Y-108250000D03*
%TO.P,D68,2,K*%
X152200000Y-108250000D03*
%TO.P,D68,3,K*%
X152200000Y-111400000D03*
%TO.P,D68,4,A*%
%TO.N,Net-(D68-A)*%
X150750000Y-111400000D03*
%TD*%
%TO.P,D63,1,K*%
%TO.N,/GREEN_LIGHTS*%
X160750000Y-114750000D03*
%TO.P,D63,2,K*%
X162200000Y-114750000D03*
%TO.P,D63,3,K*%
X162200000Y-117900000D03*
%TO.P,D63,4,A*%
%TO.N,Net-(D63-A)*%
X160750000Y-117900000D03*
%TD*%
%TO.P,D50,1,K*%
%TO.N,Net-(D51-A)*%
X180750000Y-108250000D03*
%TO.P,D50,2,K*%
X182200000Y-108250000D03*
%TO.P,D50,3,K*%
X182200000Y-111400000D03*
%TO.P,D50,4,A*%
%TO.N,Net-(D50-A)*%
X180750000Y-111400000D03*
%TD*%
%TO.P,D57,1,K*%
%TO.N,/GREEN_LIGHTS*%
X170800000Y-114750000D03*
%TO.P,D57,2,K*%
X172250000Y-114750000D03*
%TO.P,D57,3,K*%
X172250000Y-117900000D03*
%TO.P,D57,4,A*%
%TO.N,Net-(D57-A)*%
X170800000Y-117900000D03*
%TD*%
%TO.P,D77,1,K*%
%TO.N,Net-(D78-A)*%
X135750000Y-108250000D03*
%TO.P,D77,2,K*%
X137200000Y-108250000D03*
%TO.P,D77,3,K*%
X137200000Y-111400000D03*
%TO.P,D77,4,A*%
%TO.N,Net-(D77-A)*%
X135750000Y-111400000D03*
%TD*%
%TO.P,D62,1,K*%
%TO.N,Net-(D63-A)*%
X160750000Y-108250000D03*
%TO.P,D62,2,K*%
X162200000Y-108250000D03*
%TO.P,D62,3,K*%
X162200000Y-111400000D03*
%TO.P,D62,4,A*%
%TO.N,Net-(D62-A)*%
X160750000Y-111400000D03*
%TD*%
%TO.P,D53,1,K*%
%TO.N,Net-(D54-A)*%
X175800000Y-108250000D03*
%TO.P,D53,2,K*%
X177250000Y-108250000D03*
%TO.P,D53,3,K*%
X177250000Y-111400000D03*
%TO.P,D53,4,A*%
%TO.N,Net-(D53-A)*%
X175800000Y-111400000D03*
%TD*%
%TO.P,D72,1,K*%
%TO.N,/RED_LIGHTS*%
X145750000Y-114750000D03*
%TO.P,D72,2,K*%
X147200000Y-114750000D03*
%TO.P,D72,3,K*%
X147200000Y-117900000D03*
%TO.P,D72,4,A*%
%TO.N,Net-(D72-A)*%
X145750000Y-117900000D03*
%TD*%
%TO.P,D56,1,K*%
%TO.N,Net-(D57-A)*%
X170750000Y-108250000D03*
%TO.P,D56,2,K*%
X172200000Y-108250000D03*
%TO.P,D56,3,K*%
X172200000Y-111400000D03*
%TO.P,D56,4,A*%
%TO.N,Net-(D56-A)*%
X170750000Y-111400000D03*
%TD*%
%TO.P,D69,1,K*%
%TO.N,/GREEN_LIGHTS*%
X150750000Y-114750000D03*
%TO.P,D69,2,K*%
X152200000Y-114750000D03*
%TO.P,D69,3,K*%
X152200000Y-117900000D03*
%TO.P,D69,4,A*%
%TO.N,Net-(D69-A)*%
X150750000Y-117900000D03*
%TD*%
%TO.P,D51,1,K*%
%TO.N,/GREEN_LIGHTS*%
X180750000Y-114750000D03*
%TO.P,D51,2,K*%
X182200000Y-114750000D03*
%TO.P,D51,3,K*%
X182200000Y-117900000D03*
%TO.P,D51,4,A*%
%TO.N,Net-(D51-A)*%
X180750000Y-117900000D03*
%TD*%
D15*
%TO.P,R28,1*%
%TO.N,+12V*%
X146250000Y-96750000D03*
%TO.P,R28,2*%
%TO.N,Net-(D70-A)*%
X146250000Y-98750000D03*
%TD*%
D14*
%TO.P,D44,1,K*%
%TO.N,Net-(D45-A)*%
X190750000Y-108250000D03*
%TO.P,D44,2,K*%
X192200000Y-108250000D03*
%TO.P,D44,3,K*%
X192200000Y-111400000D03*
%TO.P,D44,4,A*%
%TO.N,Net-(D44-A)*%
X190750000Y-111400000D03*
%TD*%
D15*
%TO.P,R27,1*%
%TO.N,+12V*%
X151250000Y-96750000D03*
%TO.P,R27,2*%
%TO.N,Net-(D67-A)*%
X151250000Y-98750000D03*
%TD*%
D14*
%TO.P,D84,1,K*%
%TO.N,/RED_LIGHTS*%
X125750000Y-114750000D03*
%TO.P,D84,2,K*%
X127200000Y-114750000D03*
%TO.P,D84,3,K*%
X127200000Y-117900000D03*
%TO.P,D84,4,A*%
%TO.N,Net-(D84-A)*%
X125750000Y-117900000D03*
%TD*%
%TO.P,D59,1,K*%
%TO.N,Net-(D60-A)*%
X165800000Y-108250000D03*
%TO.P,D59,2,K*%
X167250000Y-108250000D03*
%TO.P,D59,3,K*%
X167250000Y-111400000D03*
%TO.P,D59,4,A*%
%TO.N,Net-(D59-A)*%
X165800000Y-111400000D03*
%TD*%
D15*
%TO.P,R23,1*%
%TO.N,+12V*%
X171250000Y-96750000D03*
%TO.P,R23,2*%
%TO.N,Net-(D55-A)*%
X171250000Y-98750000D03*
%TD*%
D14*
%TO.P,D66,1,K*%
%TO.N,/RED_LIGHTS*%
X155750000Y-114750000D03*
%TO.P,D66,2,K*%
X157200000Y-114750000D03*
%TO.P,D66,3,K*%
X157200000Y-117900000D03*
%TO.P,D66,4,A*%
%TO.N,Net-(D66-A)*%
X155750000Y-117900000D03*
%TD*%
%TO.P,D48,1,K*%
%TO.N,/RED_LIGHTS*%
X185630755Y-114750000D03*
%TO.P,D48,2,K*%
X187080755Y-114750000D03*
%TO.P,D48,3,K*%
X187080755Y-117900000D03*
%TO.P,D48,4,A*%
%TO.N,Net-(D48-A)*%
X185630755Y-117900000D03*
%TD*%
%TO.P,D67,1,K*%
%TO.N,Net-(D68-A)*%
X150750000Y-101750000D03*
%TO.P,D67,2,K*%
X152200000Y-101750000D03*
%TO.P,D67,3,K*%
X152200000Y-104900000D03*
%TO.P,D67,4,A*%
%TO.N,Net-(D67-A)*%
X150750000Y-104900000D03*
%TD*%
D16*
%TO.N,+5V*%
X119483055Y-109982632D03*
%TO.N,/RTDS_BUZZER*%
X123850000Y-98301473D03*
%TO.N,GND*%
X109750000Y-120000000D03*
X108609276Y-110114254D03*
%TO.N,+5V*%
X114750000Y-108750000D03*
%TO.N,+12V*%
X112500000Y-104750000D03*
%TO.N,/RED_LIGHTS*%
X140125000Y-120625000D03*
X169000000Y-116250000D03*
X129000000Y-116250000D03*
X180625000Y-120625000D03*
X189000000Y-116250000D03*
X170625000Y-120625000D03*
X130125000Y-120625000D03*
X159000000Y-116250000D03*
X150650000Y-120650000D03*
X160750000Y-120650000D03*
X149000000Y-116250000D03*
X179000000Y-116250000D03*
X139000000Y-116250000D03*
%TO.N,/GREEN_LIGHTS*%
X164000000Y-120000000D03*
X154000000Y-120000000D03*
X173750000Y-120000000D03*
X183500000Y-120000000D03*
X144062500Y-120000000D03*
X133750000Y-120000000D03*
%TO.N,GND*%
X114813198Y-115186802D03*
X90627328Y-106372672D03*
X92250000Y-105250000D03*
%TO.N,+12V*%
X92234906Y-109871194D03*
X121250000Y-106500000D03*
%TO.N,+5V*%
X113875000Y-110375000D03*
X122836074Y-96663926D03*
%TO.N,/FLASH_LEDS*%
X112750000Y-115750000D03*
X97705735Y-112575735D03*
%TO.N,/RTDS_BUZZER*%
X120047057Y-110550000D03*
%TO.N,/RTDS_SIGNAL*%
X107250000Y-105850000D03*
X121965544Y-106142228D03*
%TO.N,/IMD_STATUS*%
X111072431Y-110068547D03*
X92064807Y-108375836D03*
X118950000Y-108750000D03*
%TO.N,/BMS_STATUS*%
X119615682Y-109193701D03*
X111750000Y-110550000D03*
X92419680Y-109092822D03*
%TO.N,Net-(U3-DIS)*%
X97650000Y-114520000D03*
X101936397Y-113782132D03*
%TO.N,/FLASH_ACTIVE*%
X96650000Y-118138235D03*
X95883235Y-116938235D03*
%TD*%
D17*
%TO.N,+5V*%
X123250000Y-106498529D02*
X123250000Y-97077852D01*
X123250000Y-97077852D02*
X122836074Y-96663926D01*
X119483055Y-109982632D02*
X119765897Y-109982632D01*
X119765897Y-109982632D02*
X123250000Y-106498529D01*
X119483055Y-110124813D02*
X119232868Y-110375000D01*
X119483055Y-109982632D02*
X119483055Y-110124813D01*
X119232868Y-110375000D02*
X113875000Y-110375000D01*
%TO.N,/BMS_STATUS*%
X118701471Y-109350000D02*
X117501471Y-108150000D01*
X119615682Y-109193701D02*
X119459383Y-109350000D01*
X119459383Y-109350000D02*
X118701471Y-109350000D01*
X117501471Y-108150000D02*
X114150000Y-108150000D01*
X114150000Y-108150000D02*
X111750000Y-110550000D01*
%TO.N,/IMD_STATUS*%
X118950000Y-108750000D02*
X117950000Y-107750000D01*
X117950000Y-107750000D02*
X113570489Y-107750000D01*
X113570489Y-107750000D02*
X111251942Y-110068547D01*
X111251942Y-110068547D02*
X111072431Y-110068547D01*
%TO.N,/RTDS_BUZZER*%
X120047057Y-110550000D02*
X120047057Y-110267158D01*
X120047057Y-110267158D02*
X123650000Y-106664215D01*
X123650000Y-106664215D02*
X123650000Y-98501473D01*
X123650000Y-98501473D02*
X123850000Y-98301473D01*
%TO.N,+12V*%
X92234906Y-109871194D02*
X92413278Y-109692822D01*
X92413278Y-109692822D02*
X92668209Y-109692822D01*
X120647057Y-110232844D02*
X124050000Y-106829901D01*
X92668209Y-109692822D02*
X94211031Y-108150000D01*
X94211031Y-108150000D02*
X107493552Y-108150000D01*
X124050000Y-98950000D02*
X126250000Y-96750000D01*
X107493552Y-108150000D02*
X110493552Y-111150000D01*
X110493552Y-111150000D02*
X120295586Y-111150000D01*
X120295586Y-111150000D02*
X120647057Y-110798529D01*
X120647057Y-110798529D02*
X120647057Y-110232844D01*
X124050000Y-106829901D02*
X124050000Y-98950000D01*
%TO.N,GND*%
X109750000Y-120000000D02*
X110000000Y-120000000D01*
X87890000Y-120000000D02*
X109750000Y-120000000D01*
X110000000Y-120000000D02*
X114813198Y-115186802D01*
X108609276Y-110114254D02*
X108609276Y-110543590D01*
X108609276Y-110543590D02*
X113252488Y-115186802D01*
X113252488Y-115186802D02*
X114813198Y-115186802D01*
%TO.N,/FLASH_LEDS*%
X112750000Y-115750000D02*
X112750000Y-115250000D01*
X112750000Y-115250000D02*
X106050000Y-108550000D01*
X106050000Y-108550000D02*
X101731470Y-108550000D01*
X101731470Y-108550000D02*
X97705735Y-112575735D01*
%TO.N,+5V*%
X114750000Y-108750000D02*
X114750000Y-109500000D01*
X114750000Y-109500000D02*
X113875000Y-110375000D01*
%TO.N,/IMD_STATUS*%
X111072431Y-110068547D02*
X110543471Y-110068547D01*
X110543471Y-110068547D02*
X107724924Y-107250000D01*
X107724924Y-107250000D02*
X93190643Y-107250000D01*
X93190643Y-107250000D02*
X92064807Y-108375836D01*
%TO.N,+12V*%
X112500000Y-104750000D02*
X112232905Y-104750000D01*
X121250000Y-106500000D02*
X119500000Y-104750000D01*
X119500000Y-104750000D02*
X112500000Y-104750000D01*
X112232905Y-104750000D02*
X110732905Y-106250000D01*
%TO.N,/RTDS_SIGNAL*%
X121965544Y-106142228D02*
X119823316Y-104000000D01*
X119823316Y-104000000D02*
X109100000Y-104000000D01*
X109100000Y-104000000D02*
X107250000Y-105850000D01*
%TO.N,/BMS_STATUS*%
X111550000Y-110750000D02*
X110659238Y-110750000D01*
X93762502Y-107750000D02*
X92419680Y-109092822D01*
X111750000Y-110550000D02*
X111550000Y-110750000D01*
X110659238Y-110750000D02*
X107659238Y-107750000D01*
X107659238Y-107750000D02*
X93762502Y-107750000D01*
%TO.N,/RED_LIGHTS*%
X137200000Y-117900000D02*
X138150000Y-117900000D01*
X139000000Y-117050000D02*
X139000000Y-115500000D01*
X155750000Y-114750000D02*
X157200000Y-114750000D01*
X127200000Y-117900000D02*
X128100000Y-117900000D01*
X180625000Y-120625000D02*
X177900000Y-117900000D01*
X150650000Y-120650000D02*
X147900000Y-117900000D01*
X139000000Y-115500000D02*
X138250000Y-114750000D01*
X127400000Y-117900000D02*
X127200000Y-117900000D01*
X177900000Y-117900000D02*
X179000000Y-116800000D01*
X147900000Y-117900000D02*
X148350000Y-117900000D01*
X138150000Y-117900000D02*
X139000000Y-117050000D01*
X125750000Y-114750000D02*
X127200000Y-114750000D01*
X165750000Y-114750000D02*
X167200000Y-114750000D01*
X168250000Y-114750000D02*
X167200000Y-114750000D01*
X158250000Y-114750000D02*
X157200000Y-114750000D01*
X167200000Y-117900000D02*
X168100000Y-117900000D01*
X130125000Y-120625000D02*
X127400000Y-117900000D01*
X169000000Y-115500000D02*
X168250000Y-114750000D01*
X188250000Y-114750000D02*
X187080755Y-114750000D01*
X149000000Y-115387500D02*
X148362500Y-114750000D01*
X177900000Y-117900000D02*
X177200000Y-117900000D01*
X179000000Y-116800000D02*
X179000000Y-115500000D01*
X159000000Y-115500000D02*
X158250000Y-114750000D01*
X169000000Y-117000000D02*
X169000000Y-116250000D01*
X128250000Y-114750000D02*
X127200000Y-114750000D01*
X185630755Y-114750000D02*
X187080755Y-114750000D01*
X128100000Y-117900000D02*
X129000000Y-117000000D01*
X167900000Y-117900000D02*
X167200000Y-117900000D01*
X149000000Y-117250000D02*
X149000000Y-115387500D01*
X189000000Y-115500000D02*
X188250000Y-114750000D01*
X159000000Y-116800000D02*
X159000000Y-115500000D01*
X137200000Y-114750000D02*
X135750000Y-114750000D01*
X129000000Y-117000000D02*
X129000000Y-115500000D01*
X168100000Y-117900000D02*
X169000000Y-117000000D01*
X148350000Y-117900000D02*
X149000000Y-117250000D01*
X140125000Y-120625000D02*
X137400000Y-117900000D01*
X179000000Y-115500000D02*
X178250000Y-114750000D01*
X170625000Y-120625000D02*
X167900000Y-117900000D01*
X187080755Y-117900000D02*
X188100000Y-117900000D01*
X148362500Y-114750000D02*
X147200000Y-114750000D01*
X160750000Y-120650000D02*
X160650000Y-120650000D01*
X188100000Y-117900000D02*
X189000000Y-117000000D01*
X178250000Y-114750000D02*
X177200000Y-114750000D01*
X160650000Y-120650000D02*
X157900000Y-117900000D01*
X145750000Y-114750000D02*
X147200000Y-114750000D01*
X147900000Y-117900000D02*
X147200000Y-117900000D01*
X189000000Y-117000000D02*
X189000000Y-115500000D01*
X177200000Y-114750000D02*
X175750000Y-114750000D01*
X138250000Y-114750000D02*
X137200000Y-114750000D01*
X129000000Y-115500000D02*
X128250000Y-114750000D01*
X157900000Y-117900000D02*
X159000000Y-116800000D01*
X137400000Y-117900000D02*
X137200000Y-117900000D01*
X157900000Y-117900000D02*
X157200000Y-117900000D01*
X169000000Y-116250000D02*
X169000000Y-115500000D01*
%TO.N,/GREEN_LIGHTS*%
X144062500Y-120000000D02*
X144062500Y-119762500D01*
X143300000Y-117900000D02*
X143750000Y-117450000D01*
X153750000Y-115250000D02*
X153250000Y-114750000D01*
X152200000Y-118200000D02*
X152200000Y-117900000D01*
X162200000Y-114750000D02*
X160750000Y-114750000D01*
X190100000Y-120000000D02*
X192200000Y-117900000D01*
X183250000Y-114750000D02*
X182200000Y-114750000D01*
X163750000Y-117250000D02*
X163750000Y-115250000D01*
X143750000Y-115250000D02*
X143250000Y-114750000D01*
X190750000Y-114750000D02*
X192200000Y-114750000D01*
X153750000Y-117250000D02*
X153750000Y-115250000D01*
X173750000Y-115250000D02*
X173250000Y-114750000D01*
X133150000Y-117900000D02*
X133750000Y-117300000D01*
X172250000Y-114750000D02*
X170800000Y-114750000D01*
X193750000Y-115250000D02*
X193250000Y-114750000D01*
X132200000Y-118450000D02*
X132200000Y-117900000D01*
X144062500Y-119762500D02*
X142200000Y-117900000D01*
X192200000Y-117900000D02*
X193100000Y-117900000D01*
X153100000Y-117900000D02*
X153750000Y-117250000D01*
X162200000Y-117900000D02*
X163100000Y-117900000D01*
X143250000Y-114750000D02*
X142200000Y-114750000D01*
X133750000Y-117300000D02*
X133750000Y-115250000D01*
X163100000Y-117900000D02*
X163750000Y-117250000D01*
X132200000Y-117900000D02*
X133150000Y-117900000D01*
X182200000Y-117900000D02*
X183100000Y-117900000D01*
X183500000Y-120000000D02*
X182200000Y-118700000D01*
X140750000Y-114750000D02*
X142200000Y-114750000D01*
X173750000Y-117250000D02*
X173750000Y-115250000D01*
X133250000Y-114750000D02*
X132200000Y-114750000D01*
X193250000Y-114750000D02*
X192200000Y-114750000D01*
X162200000Y-118200000D02*
X162200000Y-117900000D01*
X173100000Y-117900000D02*
X173750000Y-117250000D01*
X163250000Y-114750000D02*
X162200000Y-114750000D01*
X182200000Y-118700000D02*
X182200000Y-117900000D01*
X152200000Y-117900000D02*
X153100000Y-117900000D01*
X154000000Y-120000000D02*
X152200000Y-118200000D01*
X142200000Y-117900000D02*
X143300000Y-117900000D01*
X153250000Y-114750000D02*
X152200000Y-114750000D01*
X183750000Y-117250000D02*
X183750000Y-115250000D01*
X193100000Y-117900000D02*
X193750000Y-117250000D01*
X143750000Y-117450000D02*
X143750000Y-115250000D01*
X150750000Y-114750000D02*
X152200000Y-114750000D01*
X172250000Y-117900000D02*
X173100000Y-117900000D01*
X130750000Y-114750000D02*
X132200000Y-114750000D01*
X180750000Y-114750000D02*
X182200000Y-114750000D01*
X164000000Y-120000000D02*
X162200000Y-118200000D01*
X133750000Y-120000000D02*
X132200000Y-118450000D01*
X183500000Y-120000000D02*
X190100000Y-120000000D01*
X173250000Y-114750000D02*
X172250000Y-114750000D01*
X183750000Y-115250000D02*
X183250000Y-114750000D01*
X172250000Y-118500000D02*
X172250000Y-117900000D01*
X173750000Y-120000000D02*
X172250000Y-118500000D01*
X133750000Y-115250000D02*
X133250000Y-114750000D01*
X163750000Y-115250000D02*
X163250000Y-114750000D01*
X183100000Y-117900000D02*
X183750000Y-117250000D01*
X193750000Y-117250000D02*
X193750000Y-115250000D01*
%TO.N,GND*%
X91127328Y-106372672D02*
X90627328Y-106372672D01*
X89140000Y-121250000D02*
X87890000Y-120000000D01*
X92250000Y-105250000D02*
X91127328Y-106372672D01*
%TO.N,+12V*%
X107098529Y-106850000D02*
X107698529Y-106250000D01*
X92742114Y-106850000D02*
X107098529Y-106850000D01*
X191725000Y-96775000D02*
X126775000Y-96775000D01*
X92234906Y-109756577D02*
X91250000Y-108771671D01*
X107698529Y-106250000D02*
X110732905Y-106250000D01*
X91250000Y-108342114D02*
X92742114Y-106850000D01*
X92234906Y-109871194D02*
X92234906Y-109756577D01*
X91250000Y-108771671D02*
X91250000Y-108342114D01*
%TO.N,Net-(U3-DIS)*%
X101198529Y-114520000D02*
X97650000Y-114520000D01*
X101936397Y-113782132D02*
X101198529Y-114520000D01*
%TO.N,/FLASH_ACTIVE*%
X96650000Y-118138235D02*
X96650000Y-117705000D01*
X96650000Y-117705000D02*
X95883235Y-116938235D01*
%TO.N,Net-(D43-A)*%
X191725000Y-98775000D02*
X189750000Y-100750000D01*
X189750000Y-103900000D02*
X190775000Y-104925000D01*
X189750000Y-100750000D02*
X189750000Y-103900000D01*
%TO.N,Net-(D44-A)*%
X189750000Y-107400000D02*
X189750000Y-110400000D01*
X192850000Y-104450000D02*
X192850000Y-102300000D01*
X189750000Y-110400000D02*
X190775000Y-111425000D01*
X190900000Y-101800000D02*
X192350000Y-101800000D01*
X192850000Y-102300000D02*
X192350000Y-101800000D01*
X192350000Y-104950000D02*
X192850000Y-104450000D01*
X192225000Y-104925000D02*
X189750000Y-107400000D01*
%TO.N,Net-(D45-A)*%
X190900000Y-108300000D02*
X192350000Y-108300000D01*
X189750000Y-116900000D02*
X190750000Y-117900000D01*
X189750000Y-113850000D02*
X189750000Y-116900000D01*
X192350000Y-111450000D02*
X192850000Y-110950000D01*
X192850000Y-110950000D02*
X192850000Y-108800000D01*
X192850000Y-108800000D02*
X192350000Y-108300000D01*
X192200000Y-111400000D02*
X189750000Y-113850000D01*
%TO.N,Net-(D46-A)*%
X184750000Y-103900000D02*
X185775000Y-104925000D01*
X186725000Y-98775000D02*
X184750000Y-100750000D01*
X184750000Y-100750000D02*
X184750000Y-103900000D01*
%TO.N,Net-(D47-A)*%
X187225000Y-101775000D02*
X187725000Y-102275000D01*
X187725000Y-104425000D02*
X184750000Y-107400000D01*
X185775000Y-101775000D02*
X187225000Y-101775000D01*
X184750000Y-110400000D02*
X185775000Y-111425000D01*
X187725000Y-102275000D02*
X187725000Y-104425000D01*
X184750000Y-107400000D02*
X184750000Y-110400000D01*
%TO.N,Net-(D48-A)*%
X184750000Y-113900000D02*
X184750000Y-117019245D01*
X185900000Y-108300000D02*
X187350000Y-108300000D01*
X184750000Y-117019245D02*
X185630755Y-117900000D01*
X187850000Y-108800000D02*
X187350000Y-108300000D01*
X187350000Y-111450000D02*
X187850000Y-110950000D01*
X187225000Y-111425000D02*
X184750000Y-113900000D01*
X187850000Y-110950000D02*
X187850000Y-108800000D01*
%TO.N,Net-(D50-A)*%
X182225000Y-101775000D02*
X182725000Y-102275000D01*
X179750000Y-107400000D02*
X179750000Y-110400000D01*
X180775000Y-101775000D02*
X182225000Y-101775000D01*
X182725000Y-102275000D02*
X182725000Y-104425000D01*
X179750000Y-110400000D02*
X180775000Y-111425000D01*
X182725000Y-104425000D02*
X179750000Y-107400000D01*
%TO.N,Net-(D49-A)*%
X181725000Y-98775000D02*
X179750000Y-100750000D01*
X179750000Y-103900000D02*
X180775000Y-104925000D01*
X179750000Y-100750000D02*
X179750000Y-103900000D01*
%TO.N,Net-(D51-A)*%
X182850000Y-108800000D02*
X182350000Y-108300000D01*
X182850000Y-110950000D02*
X182850000Y-108800000D01*
X182350000Y-111450000D02*
X182850000Y-110950000D01*
X182225000Y-111775000D02*
X179750000Y-114250000D01*
X180900000Y-108300000D02*
X182350000Y-108300000D01*
X179750000Y-114250000D02*
X179750000Y-116900000D01*
X179750000Y-116900000D02*
X180750000Y-117900000D01*
X182225000Y-111425000D02*
X182225000Y-111775000D01*
%TO.N,Net-(D53-A)*%
X174750000Y-110400000D02*
X175775000Y-111425000D01*
X177725000Y-102275000D02*
X177725000Y-104425000D01*
X174750000Y-107400000D02*
X174750000Y-110400000D01*
X177225000Y-101775000D02*
X177725000Y-102275000D01*
X177725000Y-104425000D02*
X174750000Y-107400000D01*
X175775000Y-101775000D02*
X177225000Y-101775000D01*
%TO.N,Net-(D52-A)*%
X176725000Y-98775000D02*
X174750000Y-100750000D01*
X174750000Y-100750000D02*
X174750000Y-103900000D01*
X174750000Y-103900000D02*
X175775000Y-104925000D01*
%TO.N,Net-(D54-A)*%
X174750000Y-116900000D02*
X175750000Y-117900000D01*
X177350000Y-111450000D02*
X177850000Y-110950000D01*
X177225000Y-111425000D02*
X174750000Y-113900000D01*
X177850000Y-110950000D02*
X177850000Y-108800000D01*
X174750000Y-113900000D02*
X174750000Y-116900000D01*
X175900000Y-108300000D02*
X177350000Y-108300000D01*
X177850000Y-108800000D02*
X177350000Y-108300000D01*
%TO.N,Net-(D55-A)*%
X169750000Y-100750000D02*
X169750000Y-103900000D01*
X171725000Y-98775000D02*
X169750000Y-100750000D01*
X169750000Y-103900000D02*
X170775000Y-104925000D01*
%TO.N,Net-(D56-A)*%
X170775000Y-101775000D02*
X172225000Y-101775000D01*
X169725000Y-107425000D02*
X169725000Y-110375000D01*
X172725000Y-104425000D02*
X172725000Y-102275000D01*
X172725000Y-102275000D02*
X172225000Y-101775000D01*
X172225000Y-104925000D02*
X169725000Y-107425000D01*
X172225000Y-104925000D02*
X172725000Y-104425000D01*
X169725000Y-110375000D02*
X170775000Y-111425000D01*
%TO.N,Net-(D57-A)*%
X172850000Y-108800000D02*
X172350000Y-108300000D01*
X172350000Y-111450000D02*
X172850000Y-110950000D01*
X169750000Y-116850000D02*
X170800000Y-117900000D01*
X169750000Y-113900000D02*
X169750000Y-116850000D01*
X172850000Y-110950000D02*
X172850000Y-108800000D01*
X170900000Y-108300000D02*
X172350000Y-108300000D01*
X172225000Y-111425000D02*
X169750000Y-113900000D01*
%TO.N,Net-(D59-A)*%
X167725000Y-102275000D02*
X167725000Y-104425000D01*
X164725000Y-107425000D02*
X164725000Y-110375000D01*
X167725000Y-104425000D02*
X167225000Y-104925000D01*
X167225000Y-104925000D02*
X164725000Y-107425000D01*
X167225000Y-101775000D02*
X167725000Y-102275000D01*
X164725000Y-110375000D02*
X165775000Y-111425000D01*
X165775000Y-101775000D02*
X167225000Y-101775000D01*
%TO.N,Net-(D58-A)*%
X166725000Y-98775000D02*
X164750000Y-100750000D01*
X164750000Y-100750000D02*
X164750000Y-103900000D01*
X164750000Y-103900000D02*
X165775000Y-104925000D01*
%TO.N,Net-(D60-A)*%
X167725000Y-110925000D02*
X167725000Y-108775000D01*
X164750000Y-113900000D02*
X167725000Y-110925000D01*
X165750000Y-117900000D02*
X164750000Y-116900000D01*
X167225000Y-108275000D02*
X165775000Y-108275000D01*
X164750000Y-116900000D02*
X164750000Y-113900000D01*
X167725000Y-108775000D02*
X167225000Y-108275000D01*
%TO.N,Net-(D61-A)*%
X159750000Y-100750000D02*
X159750000Y-103900000D01*
X161725000Y-98775000D02*
X159750000Y-100750000D01*
X159750000Y-103900000D02*
X160775000Y-104925000D01*
%TO.N,Net-(D62-A)*%
X162725000Y-104425000D02*
X159750000Y-107400000D01*
X162225000Y-101775000D02*
X162725000Y-102275000D01*
X159750000Y-107400000D02*
X159750000Y-110400000D01*
X160775000Y-101775000D02*
X162225000Y-101775000D01*
X162725000Y-102275000D02*
X162725000Y-104425000D01*
X159750000Y-110400000D02*
X160775000Y-111425000D01*
%TO.N,Net-(D63-A)*%
X162725000Y-110925000D02*
X162725000Y-108775000D01*
X162225000Y-108275000D02*
X160775000Y-108275000D01*
X160750000Y-117900000D02*
X159750000Y-116900000D01*
X162725000Y-108775000D02*
X162225000Y-108275000D01*
X159750000Y-116900000D02*
X159750000Y-113900000D01*
X159750000Y-113900000D02*
X162725000Y-110925000D01*
%TO.N,Net-(D65-A)*%
X155725000Y-101775000D02*
X157175000Y-101775000D01*
X157725000Y-102325000D02*
X157725000Y-104375000D01*
X154750000Y-110400000D02*
X155775000Y-111425000D01*
X157175000Y-101775000D02*
X157725000Y-102325000D01*
X154750000Y-107350000D02*
X154750000Y-110400000D01*
X157725000Y-104375000D02*
X154750000Y-107350000D01*
%TO.N,Net-(D64-A)*%
X154750000Y-103950000D02*
X155725000Y-104925000D01*
X156725000Y-98775000D02*
X154750000Y-100750000D01*
X154750000Y-100750000D02*
X154750000Y-103950000D01*
%TO.N,Net-(D66-A)*%
X154750000Y-113900000D02*
X154750000Y-116900000D01*
X157350000Y-111450000D02*
X157850000Y-110950000D01*
X157850000Y-108800000D02*
X157350000Y-108300000D01*
X157225000Y-111425000D02*
X154750000Y-113900000D01*
X154750000Y-116900000D02*
X155750000Y-117900000D01*
X155900000Y-108300000D02*
X157350000Y-108300000D01*
X157850000Y-110950000D02*
X157850000Y-108800000D01*
%TO.N,Net-(D68-A)*%
X152725000Y-104375000D02*
X149750000Y-107350000D01*
X150725000Y-101775000D02*
X152175000Y-101775000D01*
X152175000Y-101775000D02*
X152725000Y-102325000D01*
X149750000Y-110450000D02*
X150725000Y-111425000D01*
X149750000Y-107350000D02*
X149750000Y-110450000D01*
X152725000Y-102325000D02*
X152725000Y-104375000D01*
%TO.N,Net-(D67-A)*%
X149750000Y-100750000D02*
X149750000Y-103950000D01*
X151725000Y-98775000D02*
X149750000Y-100750000D01*
X149750000Y-103950000D02*
X150725000Y-104925000D01*
%TO.N,Net-(D69-A)*%
X152175000Y-111425000D02*
X149750000Y-113850000D01*
X152350000Y-111450000D02*
X152850000Y-110950000D01*
X152850000Y-108800000D02*
X152350000Y-108300000D01*
X150900000Y-108300000D02*
X152350000Y-108300000D01*
X149750000Y-113850000D02*
X149750000Y-116900000D01*
X149750000Y-116900000D02*
X150750000Y-117900000D01*
X152850000Y-110950000D02*
X152850000Y-108800000D01*
%TO.N,Net-(D70-A)*%
X144750000Y-103900000D02*
X145775000Y-104925000D01*
X146725000Y-98775000D02*
X144750000Y-100750000D01*
X144750000Y-100750000D02*
X144750000Y-103900000D01*
%TO.N,Net-(D71-A)*%
X145775000Y-101775000D02*
X147225000Y-101775000D01*
X144750000Y-107400000D02*
X144750000Y-110400000D01*
X147725000Y-104425000D02*
X144750000Y-107400000D01*
X147725000Y-102275000D02*
X147725000Y-104425000D01*
X147225000Y-101775000D02*
X147725000Y-102275000D01*
X144750000Y-110400000D02*
X145775000Y-111425000D01*
%TO.N,Net-(D72-A)*%
X144750000Y-113900000D02*
X144750000Y-116900000D01*
X147225000Y-108275000D02*
X147725000Y-108775000D01*
X147725000Y-108775000D02*
X147725000Y-110925000D01*
X145775000Y-108275000D02*
X147225000Y-108275000D01*
X147725000Y-110925000D02*
X144750000Y-113900000D01*
X144750000Y-116900000D02*
X145750000Y-117900000D01*
%TO.N,Net-(D73-A)*%
X139750000Y-103900000D02*
X140775000Y-104925000D01*
X139750000Y-100750000D02*
X139750000Y-103900000D01*
X141725000Y-98775000D02*
X139750000Y-100750000D01*
%TO.N,Net-(D74-A)*%
X142725000Y-104425000D02*
X139750000Y-107400000D01*
X142225000Y-101775000D02*
X142725000Y-102275000D01*
X139750000Y-107400000D02*
X139750000Y-110400000D01*
X142725000Y-102275000D02*
X142725000Y-104425000D01*
X140775000Y-101775000D02*
X142225000Y-101775000D01*
X139750000Y-110400000D02*
X140775000Y-111425000D01*
%TO.N,Net-(D75-A)*%
X140775000Y-108275000D02*
X142225000Y-108275000D01*
X139750000Y-116900000D02*
X140750000Y-117900000D01*
X142225000Y-111425000D02*
X139750000Y-113900000D01*
X142225000Y-108275000D02*
X142225000Y-111425000D01*
X139750000Y-113900000D02*
X139750000Y-116900000D01*
%TO.N,Net-(D77-A)*%
X135775000Y-101775000D02*
X137225000Y-101775000D01*
X137225000Y-101775000D02*
X137725000Y-102275000D01*
X137725000Y-104425000D02*
X134750000Y-107400000D01*
X137725000Y-102275000D02*
X137725000Y-104425000D01*
X134750000Y-110400000D02*
X135775000Y-111425000D01*
X134750000Y-107400000D02*
X134750000Y-110400000D01*
%TO.N,Net-(D76-A)*%
X136725000Y-98775000D02*
X134750000Y-100750000D01*
X134750000Y-100750000D02*
X134750000Y-103900000D01*
X134750000Y-103900000D02*
X135775000Y-104925000D01*
%TO.N,Net-(D78-A)*%
X137850000Y-110950000D02*
X137850000Y-108800000D01*
X135900000Y-108300000D02*
X137350000Y-108300000D01*
X137225000Y-111425000D02*
X134750000Y-113900000D01*
X134750000Y-116900000D02*
X135750000Y-117900000D01*
X137850000Y-108800000D02*
X137350000Y-108300000D01*
X137350000Y-111450000D02*
X137850000Y-110950000D01*
X134750000Y-113900000D02*
X134750000Y-116900000D01*
%TO.N,Net-(D80-A)*%
X132725000Y-104594245D02*
X132725000Y-102105755D01*
X129750000Y-110300000D02*
X129750000Y-107569245D01*
X132725000Y-102105755D02*
X132394245Y-101775000D01*
X129750000Y-107569245D02*
X132725000Y-104594245D01*
X130900000Y-111450000D02*
X129750000Y-110300000D01*
X132394245Y-101775000D02*
X130944245Y-101775000D01*
%TO.N,Net-(D79-A)*%
X129750000Y-100748826D02*
X129750000Y-103730755D01*
X131723826Y-98775000D02*
X129750000Y-100748826D01*
X129750000Y-103730755D02*
X130944245Y-104925000D01*
%TO.N,Net-(D81-A)*%
X132350000Y-111450000D02*
X132850000Y-110950000D01*
X129750000Y-116900000D02*
X130750000Y-117900000D01*
X130900000Y-108300000D02*
X132350000Y-108300000D01*
X129750000Y-114069245D02*
X129750000Y-116900000D01*
X132850000Y-110950000D02*
X132850000Y-108800000D01*
X132394245Y-111425000D02*
X129750000Y-114069245D01*
X132850000Y-108800000D02*
X132350000Y-108300000D01*
%TO.N,Net-(D83-A)*%
X127725000Y-102225000D02*
X127275000Y-101775000D01*
X127275000Y-101775000D02*
X125825000Y-101775000D01*
X127725000Y-104475000D02*
X127725000Y-102225000D01*
X125900000Y-111450000D02*
X124750000Y-110300000D01*
X124750000Y-107450000D02*
X127725000Y-104475000D01*
X124750000Y-110300000D02*
X124750000Y-107450000D01*
%TO.N,Net-(D82-A)*%
X124750000Y-100800000D02*
X124750000Y-103850000D01*
X124750000Y-103850000D02*
X125825000Y-104925000D01*
X126775000Y-98775000D02*
X124750000Y-100800000D01*
%TO.N,Net-(D84-A)*%
X127850000Y-110950000D02*
X127850000Y-108800000D01*
X124750000Y-113950000D02*
X124750000Y-116900000D01*
X127350000Y-111450000D02*
X127850000Y-110950000D01*
X124750000Y-116900000D02*
X125750000Y-117900000D01*
X125900000Y-108300000D02*
X127350000Y-108300000D01*
X127850000Y-108800000D02*
X127350000Y-108300000D01*
X127275000Y-111425000D02*
X124750000Y-113950000D01*
%TD*%
%TA.AperFunction,Conductor*%
%TO.N,GND*%
G36*
X212692539Y-91270185D02*
G01*
X212738294Y-91322989D01*
X212749500Y-91374500D01*
X212749500Y-122625500D01*
X212729815Y-122692539D01*
X212677011Y-122738294D01*
X212625500Y-122749500D01*
X73874500Y-122749500D01*
X73807461Y-122729815D01*
X73761706Y-122677011D01*
X73750500Y-122625500D01*
X73750500Y-119913389D01*
X79609500Y-119913389D01*
X79609500Y-120086610D01*
X79632462Y-120231591D01*
X79636598Y-120257701D01*
X79690127Y-120422445D01*
X79768768Y-120576788D01*
X79870586Y-120716928D01*
X79993072Y-120839414D01*
X80133212Y-120941232D01*
X80287555Y-121019873D01*
X80452299Y-121073402D01*
X80623389Y-121100500D01*
X80623390Y-121100500D01*
X80796610Y-121100500D01*
X80796611Y-121100500D01*
X80967701Y-121073402D01*
X81132445Y-121019873D01*
X81286788Y-120941232D01*
X81426928Y-120839414D01*
X81549414Y-120716928D01*
X81651232Y-120576788D01*
X81729873Y-120422445D01*
X81783402Y-120257701D01*
X81810500Y-120086611D01*
X81810500Y-119913389D01*
X81783402Y-119742299D01*
X81729873Y-119577555D01*
X81651232Y-119423212D01*
X81549414Y-119283072D01*
X81426928Y-119160586D01*
X81286788Y-119058768D01*
X81132445Y-118980127D01*
X80967701Y-118926598D01*
X80967699Y-118926597D01*
X80967698Y-118926597D01*
X80836271Y-118905781D01*
X80796611Y-118899500D01*
X80623389Y-118899500D01*
X80583728Y-118905781D01*
X80452302Y-118926597D01*
X80452299Y-118926598D01*
X80301802Y-118975498D01*
X80287552Y-118980128D01*
X80133211Y-119058768D01*
X80069157Y-119105307D01*
X79993072Y-119160586D01*
X79993070Y-119160588D01*
X79993069Y-119160588D01*
X79870588Y-119283069D01*
X79870588Y-119283070D01*
X79870586Y-119283072D01*
X79870170Y-119283645D01*
X79768768Y-119423211D01*
X79690128Y-119577552D01*
X79636597Y-119742302D01*
X79609500Y-119913389D01*
X73750500Y-119913389D01*
X73750500Y-112413389D01*
X79609500Y-112413389D01*
X79609500Y-112586610D01*
X79636168Y-112754990D01*
X79636598Y-112757701D01*
X79690127Y-112922445D01*
X79768768Y-113076788D01*
X79870586Y-113216928D01*
X79993072Y-113339414D01*
X80133212Y-113441232D01*
X80287555Y-113519873D01*
X80452299Y-113573402D01*
X80623389Y-113600500D01*
X80623390Y-113600500D01*
X80796610Y-113600500D01*
X80796611Y-113600500D01*
X80967701Y-113573402D01*
X81132445Y-113519873D01*
X81286788Y-113441232D01*
X81426928Y-113339414D01*
X81549414Y-113216928D01*
X81651232Y-113076788D01*
X81729873Y-112922445D01*
X81783402Y-112757701D01*
X81810500Y-112586611D01*
X81810500Y-112413389D01*
X81807384Y-112393713D01*
X86289500Y-112393713D01*
X86289500Y-112606287D01*
X86322754Y-112816243D01*
X86381408Y-112996762D01*
X86388444Y-113018414D01*
X86484951Y-113207820D01*
X86609890Y-113379786D01*
X86760209Y-113530105D01*
X86760214Y-113530109D01*
X86924793Y-113649682D01*
X86967459Y-113705011D01*
X86973438Y-113774625D01*
X86940833Y-113836420D01*
X86924793Y-113850318D01*
X86760214Y-113969890D01*
X86760209Y-113969894D01*
X86609890Y-114120213D01*
X86484951Y-114292179D01*
X86388444Y-114481585D01*
X86322753Y-114683760D01*
X86289500Y-114893713D01*
X86289500Y-115106286D01*
X86321031Y-115305369D01*
X86322754Y-115316243D01*
X86387693Y-115516105D01*
X86388444Y-115518414D01*
X86484951Y-115707820D01*
X86609890Y-115879786D01*
X86760209Y-116030105D01*
X86760214Y-116030109D01*
X86924793Y-116149682D01*
X86967459Y-116205011D01*
X86973438Y-116274625D01*
X86940833Y-116336420D01*
X86924793Y-116350318D01*
X86760214Y-116469890D01*
X86760209Y-116469894D01*
X86609890Y-116620213D01*
X86484951Y-116792179D01*
X86388444Y-116981585D01*
X86322753Y-117183760D01*
X86298595Y-117336290D01*
X86289500Y-117393713D01*
X86289500Y-117606287D01*
X86291469Y-117618716D01*
X86318393Y-117788713D01*
X86322754Y-117816243D01*
X86369132Y-117958980D01*
X86388444Y-118018414D01*
X86484951Y-118207820D01*
X86609890Y-118379786D01*
X86749068Y-118518964D01*
X86782553Y-118580287D01*
X86777569Y-118649979D01*
X86735697Y-118705912D01*
X86726484Y-118712183D01*
X86571659Y-118807680D01*
X86571655Y-118807683D01*
X86447684Y-118931654D01*
X86355643Y-119080875D01*
X86355641Y-119080880D01*
X86300494Y-119247302D01*
X86300493Y-119247309D01*
X86290000Y-119350013D01*
X86290000Y-119750000D01*
X87341518Y-119750000D01*
X87330889Y-119768409D01*
X87290000Y-119921009D01*
X87290000Y-120078991D01*
X87330889Y-120231591D01*
X87341518Y-120250000D01*
X86290001Y-120250000D01*
X86290001Y-120649986D01*
X86300494Y-120752697D01*
X86355641Y-120919119D01*
X86355643Y-120919124D01*
X86447684Y-121068345D01*
X86571654Y-121192315D01*
X86720875Y-121284356D01*
X86720880Y-121284358D01*
X86887302Y-121339505D01*
X86887309Y-121339506D01*
X86990019Y-121349999D01*
X87639999Y-121349999D01*
X87640000Y-121349998D01*
X87640000Y-120548482D01*
X87658409Y-120559111D01*
X87811009Y-120600000D01*
X87968991Y-120600000D01*
X88121591Y-120559111D01*
X88140000Y-120548482D01*
X88140000Y-121349999D01*
X88789972Y-121349999D01*
X88789986Y-121349998D01*
X88892697Y-121339505D01*
X89059119Y-121284358D01*
X89059124Y-121284356D01*
X89208345Y-121192315D01*
X89332315Y-121068345D01*
X89424356Y-120919124D01*
X89424358Y-120919119D01*
X89479505Y-120752697D01*
X89479506Y-120752690D01*
X89489999Y-120649986D01*
X89490000Y-120649973D01*
X89490000Y-120250000D01*
X88438482Y-120250000D01*
X88449111Y-120231591D01*
X88490000Y-120078991D01*
X88490000Y-119921009D01*
X88449111Y-119768409D01*
X88438482Y-119750000D01*
X89489999Y-119750000D01*
X89489999Y-119350028D01*
X89489998Y-119350013D01*
X89479505Y-119247302D01*
X89424358Y-119080880D01*
X89424356Y-119080875D01*
X89332315Y-118931654D01*
X89208345Y-118807684D01*
X89053515Y-118712184D01*
X89006791Y-118660236D01*
X88995568Y-118591273D01*
X89023412Y-118527191D01*
X89030909Y-118518986D01*
X89170104Y-118379792D01*
X89215370Y-118317489D01*
X89295048Y-118207820D01*
X89295047Y-118207820D01*
X89295051Y-118207816D01*
X89391557Y-118018412D01*
X89457246Y-117816243D01*
X89490500Y-117606287D01*
X89490500Y-117393713D01*
X89457246Y-117183757D01*
X89391557Y-116981588D01*
X89369466Y-116938231D01*
X95077670Y-116938231D01*
X95077670Y-116938238D01*
X95097865Y-117117484D01*
X95097866Y-117117489D01*
X95157446Y-117287758D01*
X95227492Y-117399235D01*
X95253419Y-117440497D01*
X95380973Y-117568051D01*
X95533713Y-117664024D01*
X95703980Y-117723603D01*
X95783262Y-117732535D01*
X95847674Y-117759600D01*
X95887230Y-117817194D01*
X95889369Y-117887031D01*
X95886420Y-117896707D01*
X95864632Y-117958977D01*
X95864631Y-117958981D01*
X95844435Y-118138231D01*
X95844435Y-118138238D01*
X95864630Y-118317484D01*
X95864631Y-118317489D01*
X95924211Y-118487758D01*
X95982905Y-118581168D01*
X96020184Y-118640497D01*
X96147738Y-118768051D01*
X96226031Y-118817246D01*
X96279274Y-118850701D01*
X96300478Y-118864024D01*
X96401863Y-118899500D01*
X96470745Y-118923603D01*
X96470750Y-118923604D01*
X96649996Y-118943800D01*
X96650000Y-118943800D01*
X96650004Y-118943800D01*
X96829249Y-118923604D01*
X96829252Y-118923603D01*
X96829255Y-118923603D01*
X96999522Y-118864024D01*
X97152262Y-118768051D01*
X97279816Y-118640497D01*
X97375789Y-118487757D01*
X97435368Y-118317490D01*
X97440003Y-118276357D01*
X97455565Y-118138238D01*
X97455565Y-118138231D01*
X97435369Y-117958985D01*
X97435368Y-117958980D01*
X97386288Y-117818717D01*
X97375789Y-117788713D01*
X97345635Y-117740724D01*
X97322377Y-117703708D01*
X97279816Y-117635973D01*
X97266934Y-117623091D01*
X97234841Y-117567504D01*
X97209577Y-117473216D01*
X97209574Y-117473212D01*
X97209574Y-117473209D01*
X97130524Y-117336290D01*
X97130521Y-117336286D01*
X97130520Y-117336284D01*
X97018716Y-117224480D01*
X97018715Y-117224479D01*
X97014385Y-117220149D01*
X97014374Y-117220139D01*
X96713935Y-116919700D01*
X96680450Y-116858377D01*
X96678398Y-116845921D01*
X96668603Y-116758980D01*
X96609024Y-116588713D01*
X96513051Y-116435973D01*
X96385497Y-116308419D01*
X96364123Y-116294989D01*
X96232758Y-116212446D01*
X96062489Y-116152866D01*
X96062484Y-116152865D01*
X95883239Y-116132670D01*
X95883231Y-116132670D01*
X95703985Y-116152865D01*
X95703980Y-116152866D01*
X95533711Y-116212446D01*
X95380972Y-116308419D01*
X95253419Y-116435972D01*
X95157446Y-116588711D01*
X95097866Y-116758980D01*
X95097865Y-116758985D01*
X95077670Y-116938231D01*
X89369466Y-116938231D01*
X89295051Y-116792184D01*
X89295049Y-116792181D01*
X89295048Y-116792179D01*
X89170109Y-116620213D01*
X89019792Y-116469896D01*
X89019784Y-116469890D01*
X88855204Y-116350316D01*
X88812540Y-116294989D01*
X88806561Y-116225376D01*
X88839166Y-116163580D01*
X88855199Y-116149686D01*
X89019792Y-116030104D01*
X89170104Y-115879792D01*
X89170106Y-115879788D01*
X89170109Y-115879786D01*
X89295048Y-115707820D01*
X89295047Y-115707820D01*
X89295051Y-115707816D01*
X89391557Y-115518412D01*
X89457246Y-115316243D01*
X89490500Y-115106287D01*
X89490500Y-114893713D01*
X89457246Y-114683757D01*
X89404037Y-114519996D01*
X96844435Y-114519996D01*
X96844435Y-114520003D01*
X96864630Y-114699249D01*
X96864631Y-114699254D01*
X96924211Y-114869523D01*
X97017637Y-115018209D01*
X97020184Y-115022262D01*
X97147738Y-115149816D01*
X97300478Y-115245789D01*
X97470745Y-115305368D01*
X97470750Y-115305369D01*
X97649996Y-115325565D01*
X97650000Y-115325565D01*
X97650004Y-115325565D01*
X97829249Y-115305369D01*
X97829252Y-115305368D01*
X97829255Y-115305368D01*
X97999522Y-115245789D01*
X98152262Y-115149816D01*
X98152267Y-115149810D01*
X98155097Y-115147555D01*
X98157275Y-115146665D01*
X98158158Y-115146111D01*
X98158255Y-115146265D01*
X98219783Y-115121145D01*
X98232412Y-115120500D01*
X101111860Y-115120500D01*
X101111876Y-115120501D01*
X101119472Y-115120501D01*
X101277583Y-115120501D01*
X101277586Y-115120501D01*
X101430314Y-115079577D01*
X101480433Y-115050639D01*
X101567245Y-115000520D01*
X101679049Y-114888716D01*
X101679049Y-114888714D01*
X101689257Y-114878507D01*
X101689259Y-114878504D01*
X101954932Y-114612830D01*
X102016253Y-114579347D01*
X102028708Y-114577295D01*
X102115652Y-114567500D01*
X102285919Y-114507921D01*
X102438659Y-114411948D01*
X102566213Y-114284394D01*
X102662186Y-114131654D01*
X102721765Y-113961387D01*
X102724281Y-113939059D01*
X102741962Y-113782135D01*
X102741962Y-113782128D01*
X102721766Y-113602882D01*
X102721765Y-113602876D01*
X102689149Y-113509667D01*
X102662186Y-113432610D01*
X102566213Y-113279870D01*
X102438659Y-113152316D01*
X102285920Y-113056343D01*
X102115651Y-112996763D01*
X102115646Y-112996762D01*
X101936401Y-112976567D01*
X101936393Y-112976567D01*
X101757147Y-112996762D01*
X101757142Y-112996763D01*
X101586873Y-113056343D01*
X101434134Y-113152316D01*
X101306581Y-113279869D01*
X101210607Y-113432610D01*
X101151027Y-113602882D01*
X101141234Y-113689800D01*
X101114167Y-113754214D01*
X101105696Y-113763597D01*
X100986111Y-113883182D01*
X100924791Y-113916666D01*
X100898432Y-113919500D01*
X98232412Y-113919500D01*
X98165373Y-113899815D01*
X98155097Y-113892445D01*
X98152263Y-113890185D01*
X98152262Y-113890184D01*
X98080271Y-113844949D01*
X97999523Y-113794211D01*
X97829254Y-113734631D01*
X97829249Y-113734630D01*
X97650004Y-113714435D01*
X97649996Y-113714435D01*
X97470750Y-113734630D01*
X97470745Y-113734631D01*
X97300476Y-113794211D01*
X97147737Y-113890184D01*
X97020184Y-114017737D01*
X96924211Y-114170476D01*
X96864631Y-114340745D01*
X96864630Y-114340750D01*
X96844435Y-114519996D01*
X89404037Y-114519996D01*
X89391557Y-114481588D01*
X89295051Y-114292184D01*
X89295049Y-114292181D01*
X89295048Y-114292179D01*
X89170109Y-114120213D01*
X89019792Y-113969896D01*
X88977330Y-113939046D01*
X88855204Y-113850316D01*
X88812540Y-113794989D01*
X88806561Y-113725376D01*
X88839166Y-113663580D01*
X88855199Y-113649686D01*
X89019792Y-113530104D01*
X89170104Y-113379792D01*
X89170106Y-113379788D01*
X89170109Y-113379786D01*
X89295048Y-113207820D01*
X89295047Y-113207820D01*
X89295051Y-113207816D01*
X89391557Y-113018412D01*
X89457246Y-112816243D01*
X89490500Y-112606287D01*
X89490500Y-112393713D01*
X89457246Y-112183757D01*
X89391557Y-111981588D01*
X89295051Y-111792184D01*
X89295049Y-111792181D01*
X89295048Y-111792179D01*
X89170109Y-111620213D01*
X89019786Y-111469890D01*
X88847820Y-111344951D01*
X88658414Y-111248444D01*
X88658413Y-111248443D01*
X88658412Y-111248443D01*
X88456243Y-111182754D01*
X88456241Y-111182753D01*
X88456240Y-111182753D01*
X88292276Y-111156784D01*
X88246287Y-111149500D01*
X87533713Y-111149500D01*
X87487724Y-111156784D01*
X87323760Y-111182753D01*
X87323757Y-111182754D01*
X87155526Y-111237416D01*
X87121585Y-111248444D01*
X86932179Y-111344951D01*
X86760213Y-111469890D01*
X86609890Y-111620213D01*
X86484951Y-111792179D01*
X86388444Y-111981585D01*
X86322753Y-112183760D01*
X86313481Y-112242302D01*
X86289500Y-112393713D01*
X81807384Y-112393713D01*
X81783402Y-112242299D01*
X81729873Y-112077555D01*
X81651232Y-111923212D01*
X81549414Y-111783072D01*
X81426928Y-111660586D01*
X81286788Y-111558768D01*
X81132445Y-111480127D01*
X80967701Y-111426598D01*
X80967699Y-111426597D01*
X80967698Y-111426597D01*
X80834620Y-111405520D01*
X80796611Y-111399500D01*
X80623389Y-111399500D01*
X80585380Y-111405520D01*
X80452302Y-111426597D01*
X80287552Y-111480128D01*
X80133211Y-111558768D01*
X80053256Y-111616859D01*
X79993072Y-111660586D01*
X79993070Y-111660588D01*
X79993069Y-111660588D01*
X79870588Y-111783069D01*
X79870588Y-111783070D01*
X79870586Y-111783072D01*
X79863966Y-111792184D01*
X79768768Y-111923211D01*
X79690128Y-112077552D01*
X79636597Y-112242302D01*
X79609500Y-112413389D01*
X73750500Y-112413389D01*
X73750500Y-108850725D01*
X90649498Y-108850725D01*
X90657090Y-108879058D01*
X90690423Y-109003456D01*
X90690424Y-109003457D01*
X90703632Y-109026336D01*
X90703633Y-109026337D01*
X90769475Y-109140380D01*
X90769481Y-109140388D01*
X90888349Y-109259256D01*
X90888355Y-109259261D01*
X91394300Y-109765206D01*
X91427785Y-109826529D01*
X91429840Y-109866769D01*
X91429341Y-109871198D01*
X91449536Y-110050443D01*
X91449537Y-110050448D01*
X91509117Y-110220717D01*
X91578355Y-110330908D01*
X91605090Y-110373456D01*
X91732644Y-110501010D01*
X91783462Y-110532941D01*
X91862606Y-110582671D01*
X91885384Y-110596983D01*
X91984851Y-110631788D01*
X92055651Y-110656562D01*
X92055656Y-110656563D01*
X92234902Y-110676759D01*
X92234906Y-110676759D01*
X92234910Y-110676759D01*
X92414155Y-110656563D01*
X92414158Y-110656562D01*
X92414161Y-110656562D01*
X92584428Y-110596983D01*
X92737168Y-110501010D01*
X92864722Y-110373456D01*
X92947651Y-110241474D01*
X92990644Y-110200061D01*
X93036925Y-110173342D01*
X93148729Y-110061538D01*
X93148729Y-110061536D01*
X93158933Y-110051333D01*
X93158936Y-110051328D01*
X94423448Y-108786819D01*
X94484771Y-108753334D01*
X94511129Y-108750500D01*
X100382373Y-108750500D01*
X100449412Y-108770185D01*
X100495167Y-108822989D01*
X100505111Y-108892147D01*
X100476086Y-108955703D01*
X100470054Y-108962181D01*
X97687200Y-111745033D01*
X97625877Y-111778518D01*
X97613403Y-111780572D01*
X97526485Y-111790365D01*
X97356213Y-111849945D01*
X97203472Y-111945919D01*
X97075919Y-112073472D01*
X96979946Y-112226211D01*
X96920366Y-112396480D01*
X96920365Y-112396485D01*
X96900170Y-112575731D01*
X96900170Y-112575738D01*
X96920365Y-112754984D01*
X96920366Y-112754989D01*
X96979946Y-112925258D01*
X97024876Y-112996763D01*
X97075919Y-113077997D01*
X97203473Y-113205551D01*
X97356213Y-113301524D01*
X97526480Y-113361103D01*
X97526485Y-113361104D01*
X97705731Y-113381300D01*
X97705735Y-113381300D01*
X97705739Y-113381300D01*
X97884984Y-113361104D01*
X97884987Y-113361103D01*
X97884990Y-113361103D01*
X98055257Y-113301524D01*
X98207997Y-113205551D01*
X98335551Y-113077997D01*
X98431524Y-112925257D01*
X98491103Y-112754990D01*
X98500896Y-112668064D01*
X98527961Y-112603653D01*
X98536425Y-112594278D01*
X101943886Y-109186819D01*
X102005209Y-109153334D01*
X102031567Y-109150500D01*
X105749903Y-109150500D01*
X105816942Y-109170185D01*
X105837584Y-109186819D01*
X111976123Y-115325358D01*
X112009608Y-115386681D01*
X112005484Y-115453993D01*
X111964632Y-115570742D01*
X111964630Y-115570750D01*
X111944435Y-115749996D01*
X111944435Y-115750003D01*
X111964630Y-115929249D01*
X111964631Y-115929254D01*
X112024211Y-116099523D01*
X112057729Y-116152866D01*
X112120184Y-116252262D01*
X112247738Y-116379816D01*
X112326410Y-116429249D01*
X112391089Y-116469890D01*
X112400478Y-116475789D01*
X112570745Y-116535368D01*
X112570750Y-116535369D01*
X112749996Y-116555565D01*
X112750000Y-116555565D01*
X112750004Y-116555565D01*
X112929249Y-116535369D01*
X112929252Y-116535368D01*
X112929255Y-116535368D01*
X113099522Y-116475789D01*
X113252262Y-116379816D01*
X113379816Y-116252262D01*
X113475789Y-116099522D01*
X113535368Y-115929255D01*
X113535369Y-115929249D01*
X113555565Y-115750003D01*
X113555565Y-115749996D01*
X113535369Y-115570750D01*
X113535368Y-115570745D01*
X113517967Y-115521017D01*
X113475789Y-115400478D01*
X113379816Y-115247738D01*
X113379815Y-115247737D01*
X113377555Y-115244903D01*
X113376665Y-115242724D01*
X113376111Y-115241842D01*
X113376265Y-115241744D01*
X113351146Y-115180216D01*
X113350781Y-115173072D01*
X113350501Y-115170945D01*
X113350501Y-115170944D01*
X113350501Y-115170943D01*
X113309577Y-115018215D01*
X113266980Y-114944435D01*
X113230520Y-114881284D01*
X113118716Y-114769480D01*
X113118715Y-114769479D01*
X113114385Y-114765149D01*
X113114374Y-114765139D01*
X110310314Y-111961079D01*
X110276829Y-111899756D01*
X110281813Y-111830064D01*
X110323685Y-111774131D01*
X110389149Y-111749714D01*
X110414192Y-111750460D01*
X110414487Y-111750498D01*
X110414495Y-111750501D01*
X110414503Y-111750501D01*
X110580206Y-111750501D01*
X110580222Y-111750500D01*
X120208917Y-111750500D01*
X120208933Y-111750501D01*
X120216529Y-111750501D01*
X120374640Y-111750501D01*
X120374643Y-111750501D01*
X120527371Y-111709577D01*
X120577490Y-111680639D01*
X120664302Y-111630520D01*
X120776106Y-111518716D01*
X120776106Y-111518714D01*
X120786314Y-111508507D01*
X120786316Y-111508504D01*
X121015770Y-111279050D01*
X121015773Y-111279049D01*
X121127577Y-111167245D01*
X121177696Y-111080433D01*
X121206634Y-111030314D01*
X121247557Y-110877586D01*
X121247557Y-110719472D01*
X121247557Y-110532941D01*
X121267242Y-110465902D01*
X121283876Y-110445260D01*
X123937819Y-107791317D01*
X123999142Y-107757832D01*
X124068834Y-107762816D01*
X124124767Y-107804688D01*
X124149184Y-107870152D01*
X124149500Y-107878998D01*
X124149500Y-110213330D01*
X124149499Y-110213348D01*
X124149499Y-110379054D01*
X124149498Y-110379054D01*
X124149499Y-110379057D01*
X124190423Y-110531785D01*
X124190424Y-110531787D01*
X124190423Y-110531787D01*
X124204568Y-110556285D01*
X124204569Y-110556287D01*
X124269475Y-110668709D01*
X124269481Y-110668717D01*
X124388349Y-110787585D01*
X124388355Y-110787590D01*
X124888181Y-111287416D01*
X124921666Y-111348739D01*
X124924500Y-111375097D01*
X124924500Y-112022870D01*
X124924501Y-112022876D01*
X124930908Y-112082483D01*
X124981202Y-112217328D01*
X124981206Y-112217335D01*
X125067452Y-112332544D01*
X125067455Y-112332547D01*
X125182664Y-112418793D01*
X125182669Y-112418796D01*
X125183452Y-112419088D01*
X125184121Y-112419589D01*
X125190454Y-112423047D01*
X125189957Y-112423956D01*
X125239389Y-112460954D01*
X125263811Y-112526417D01*
X125248965Y-112594691D01*
X125227809Y-112622954D01*
X124381286Y-113469478D01*
X124269481Y-113581282D01*
X124269479Y-113581285D01*
X124244061Y-113625312D01*
X124244060Y-113625313D01*
X124190424Y-113718211D01*
X124190423Y-113718212D01*
X124169851Y-113794989D01*
X124149499Y-113870943D01*
X124149499Y-113870945D01*
X124149499Y-114039046D01*
X124149500Y-114039059D01*
X124149500Y-116813330D01*
X124149499Y-116813348D01*
X124149499Y-116979054D01*
X124149498Y-116979054D01*
X124149499Y-116979057D01*
X124190423Y-117131785D01*
X124212498Y-117170020D01*
X124269477Y-117268712D01*
X124269481Y-117268717D01*
X124388349Y-117387585D01*
X124388355Y-117387590D01*
X124838181Y-117837417D01*
X124871666Y-117898740D01*
X124874500Y-117925098D01*
X124874500Y-118522870D01*
X124874501Y-118522876D01*
X124880908Y-118582483D01*
X124931202Y-118717328D01*
X124931206Y-118717335D01*
X125017452Y-118832544D01*
X125017455Y-118832547D01*
X125132664Y-118918793D01*
X125132671Y-118918797D01*
X125267517Y-118969091D01*
X125267516Y-118969091D01*
X125274444Y-118969835D01*
X125327127Y-118975500D01*
X126172872Y-118975499D01*
X126232483Y-118969091D01*
X126332857Y-118931654D01*
X126367329Y-118918797D01*
X126367329Y-118918796D01*
X126367331Y-118918796D01*
X126400689Y-118893823D01*
X126466151Y-118869406D01*
X126534425Y-118884257D01*
X126549305Y-118893820D01*
X126582669Y-118918796D01*
X126582670Y-118918796D01*
X126582670Y-118918797D01*
X126717517Y-118969091D01*
X126717516Y-118969091D01*
X126724444Y-118969835D01*
X126777127Y-118975500D01*
X127574902Y-118975499D01*
X127641941Y-118995183D01*
X127662583Y-119011818D01*
X129294298Y-120643533D01*
X129327783Y-120704856D01*
X129329837Y-120717330D01*
X129339630Y-120804249D01*
X129399210Y-120974521D01*
X129427707Y-121019873D01*
X129495184Y-121127262D01*
X129622738Y-121254816D01*
X129669751Y-121284356D01*
X129774220Y-121349999D01*
X129775478Y-121350789D01*
X129846924Y-121375789D01*
X129945745Y-121410368D01*
X129945750Y-121410369D01*
X130124996Y-121430565D01*
X130125000Y-121430565D01*
X130125004Y-121430565D01*
X130304249Y-121410369D01*
X130304252Y-121410368D01*
X130304255Y-121410368D01*
X130474522Y-121350789D01*
X130627262Y-121254816D01*
X130754816Y-121127262D01*
X130850789Y-120974522D01*
X130910368Y-120804255D01*
X130916178Y-120752690D01*
X130930565Y-120625003D01*
X130930565Y-120624996D01*
X130910369Y-120445750D01*
X130910368Y-120445745D01*
X130883413Y-120368713D01*
X130850789Y-120275478D01*
X130839616Y-120257697D01*
X130790324Y-120179249D01*
X130754816Y-120122738D01*
X130627262Y-119995184D01*
X130474521Y-119899210D01*
X130304249Y-119839630D01*
X130217330Y-119829837D01*
X130152916Y-119802770D01*
X130143533Y-119794298D01*
X128686915Y-118337680D01*
X128653430Y-118276357D01*
X128658414Y-118206665D01*
X128686911Y-118162323D01*
X129337320Y-117511913D01*
X129398641Y-117478430D01*
X129468333Y-117483414D01*
X129512679Y-117511914D01*
X129838182Y-117837418D01*
X129871666Y-117898739D01*
X129874500Y-117925097D01*
X129874500Y-118522870D01*
X129874501Y-118522876D01*
X129880908Y-118582483D01*
X129931202Y-118717328D01*
X129931206Y-118717335D01*
X130017452Y-118832544D01*
X130017455Y-118832547D01*
X130132664Y-118918793D01*
X130132671Y-118918797D01*
X130267517Y-118969091D01*
X130267516Y-118969091D01*
X130274444Y-118969835D01*
X130327127Y-118975500D01*
X131172872Y-118975499D01*
X131232483Y-118969091D01*
X131332857Y-118931654D01*
X131367329Y-118918797D01*
X131367329Y-118918796D01*
X131367331Y-118918796D01*
X131400689Y-118893823D01*
X131466151Y-118869406D01*
X131534425Y-118884257D01*
X131549305Y-118893820D01*
X131582669Y-118918796D01*
X131582670Y-118918796D01*
X131582670Y-118918797D01*
X131717516Y-118969091D01*
X131743419Y-118971875D01*
X131777127Y-118975500D01*
X131824901Y-118975499D01*
X131891939Y-118995182D01*
X131912583Y-119011818D01*
X132919298Y-120018533D01*
X132952783Y-120079856D01*
X132954837Y-120092330D01*
X132964630Y-120179249D01*
X133024210Y-120349521D01*
X133100384Y-120470750D01*
X133120184Y-120502262D01*
X133247738Y-120629816D01*
X133309356Y-120668533D01*
X133387015Y-120717330D01*
X133400478Y-120725789D01*
X133477357Y-120752690D01*
X133570745Y-120785368D01*
X133570750Y-120785369D01*
X133749996Y-120805565D01*
X133750000Y-120805565D01*
X133750004Y-120805565D01*
X133929249Y-120785369D01*
X133929252Y-120785368D01*
X133929255Y-120785368D01*
X134099522Y-120725789D01*
X134252262Y-120629816D01*
X134379816Y-120502262D01*
X134475789Y-120349522D01*
X134535368Y-120179255D01*
X134538919Y-120147738D01*
X134555565Y-120000003D01*
X134555565Y-119999996D01*
X134535369Y-119820750D01*
X134535368Y-119820745D01*
X134510613Y-119750000D01*
X134475789Y-119650478D01*
X134379816Y-119497738D01*
X134252262Y-119370184D01*
X134130262Y-119293526D01*
X134099521Y-119274210D01*
X133929249Y-119214630D01*
X133842330Y-119204837D01*
X133777916Y-119177770D01*
X133768533Y-119169298D01*
X133278932Y-118679697D01*
X133245447Y-118618374D01*
X133250431Y-118548682D01*
X133292303Y-118492749D01*
X133334518Y-118472242D01*
X133381785Y-118459577D01*
X133431904Y-118430639D01*
X133518716Y-118380520D01*
X133630520Y-118268716D01*
X133630520Y-118268714D01*
X133640728Y-118258507D01*
X133640730Y-118258504D01*
X134108506Y-117790728D01*
X134108511Y-117790724D01*
X134118714Y-117780520D01*
X134118716Y-117780520D01*
X134230520Y-117668716D01*
X134249425Y-117635972D01*
X134282420Y-117578823D01*
X134282420Y-117578822D01*
X134305124Y-117539498D01*
X134309577Y-117531785D01*
X134309577Y-117531784D01*
X134310391Y-117530375D01*
X134360958Y-117482159D01*
X134429565Y-117468937D01*
X134494430Y-117494905D01*
X134505456Y-117504692D01*
X134682549Y-117681785D01*
X134838181Y-117837417D01*
X134871666Y-117898740D01*
X134874500Y-117925098D01*
X134874500Y-118522870D01*
X134874501Y-118522876D01*
X134880908Y-118582483D01*
X134931202Y-118717328D01*
X134931206Y-118717335D01*
X135017452Y-118832544D01*
X135017455Y-118832547D01*
X135132664Y-118918793D01*
X135132671Y-118918797D01*
X135267517Y-118969091D01*
X135267516Y-118969091D01*
X135274444Y-118969835D01*
X135327127Y-118975500D01*
X136172872Y-118975499D01*
X136232483Y-118969091D01*
X136332857Y-118931654D01*
X136367329Y-118918797D01*
X136367329Y-118918796D01*
X136367331Y-118918796D01*
X136400689Y-118893823D01*
X136466151Y-118869406D01*
X136534425Y-118884257D01*
X136549305Y-118893820D01*
X136582669Y-118918796D01*
X136582670Y-118918796D01*
X136582670Y-118918797D01*
X136717517Y-118969091D01*
X136717516Y-118969091D01*
X136724444Y-118969835D01*
X136777127Y-118975500D01*
X137574902Y-118975499D01*
X137641941Y-118995183D01*
X137662583Y-119011818D01*
X139294298Y-120643533D01*
X139327783Y-120704856D01*
X139329837Y-120717330D01*
X139339630Y-120804249D01*
X139399210Y-120974521D01*
X139427707Y-121019873D01*
X139495184Y-121127262D01*
X139622738Y-121254816D01*
X139669751Y-121284356D01*
X139774220Y-121349999D01*
X139775478Y-121350789D01*
X139846924Y-121375789D01*
X139945745Y-121410368D01*
X139945750Y-121410369D01*
X140124996Y-121430565D01*
X140125000Y-121430565D01*
X140125004Y-121430565D01*
X140304249Y-121410369D01*
X140304252Y-121410368D01*
X140304255Y-121410368D01*
X140474522Y-121350789D01*
X140627262Y-121254816D01*
X140754816Y-121127262D01*
X140850789Y-120974522D01*
X140910368Y-120804255D01*
X140916178Y-120752690D01*
X140930565Y-120625003D01*
X140930565Y-120624996D01*
X140910369Y-120445750D01*
X140910368Y-120445745D01*
X140883413Y-120368713D01*
X140850789Y-120275478D01*
X140839616Y-120257697D01*
X140790324Y-120179249D01*
X140754816Y-120122738D01*
X140627262Y-119995184D01*
X140474521Y-119899210D01*
X140304249Y-119839630D01*
X140217330Y-119829837D01*
X140152916Y-119802770D01*
X140143533Y-119794298D01*
X138711915Y-118362680D01*
X138678430Y-118301357D01*
X138683414Y-118231665D01*
X138711913Y-118187321D01*
X139362319Y-117536914D01*
X139423641Y-117503431D01*
X139493333Y-117508415D01*
X139537680Y-117536916D01*
X139664788Y-117664024D01*
X139838182Y-117837418D01*
X139871666Y-117898739D01*
X139874500Y-117925097D01*
X139874500Y-118522870D01*
X139874501Y-118522876D01*
X139880908Y-118582483D01*
X139931202Y-118717328D01*
X139931206Y-118717335D01*
X140017452Y-118832544D01*
X140017455Y-118832547D01*
X140132664Y-118918793D01*
X140132671Y-118918797D01*
X140267517Y-118969091D01*
X140267516Y-118969091D01*
X140274444Y-118969835D01*
X140327127Y-118975500D01*
X141172872Y-118975499D01*
X141232483Y-118969091D01*
X141332857Y-118931654D01*
X141367329Y-118918797D01*
X141367329Y-118918796D01*
X141367331Y-118918796D01*
X141400689Y-118893823D01*
X141466151Y-118869406D01*
X141534425Y-118884257D01*
X141549305Y-118893820D01*
X141582669Y-118918796D01*
X141582670Y-118918796D01*
X141582670Y-118918797D01*
X141644257Y-118941767D01*
X141717517Y-118969091D01*
X141777127Y-118975500D01*
X142374901Y-118975499D01*
X142441940Y-118995183D01*
X142462582Y-119011818D01*
X143234337Y-119783573D01*
X143267822Y-119844896D01*
X143269876Y-119885137D01*
X143256935Y-119999996D01*
X143256935Y-120000003D01*
X143277130Y-120179249D01*
X143277131Y-120179254D01*
X143336711Y-120349523D01*
X143432684Y-120502262D01*
X143560238Y-120629816D01*
X143621856Y-120668533D01*
X143699515Y-120717330D01*
X143712978Y-120725789D01*
X143789857Y-120752690D01*
X143883245Y-120785368D01*
X143883250Y-120785369D01*
X144062496Y-120805565D01*
X144062500Y-120805565D01*
X144062504Y-120805565D01*
X144241749Y-120785369D01*
X144241752Y-120785368D01*
X144241755Y-120785368D01*
X144412022Y-120725789D01*
X144564762Y-120629816D01*
X144692316Y-120502262D01*
X144788289Y-120349522D01*
X144847868Y-120179255D01*
X144851419Y-120147738D01*
X144868065Y-120000003D01*
X144868065Y-119999996D01*
X144847869Y-119820750D01*
X144847868Y-119820745D01*
X144823113Y-119750000D01*
X144788289Y-119650478D01*
X144692316Y-119497738D01*
X144564762Y-119370184D01*
X144454590Y-119300958D01*
X144432881Y-119283645D01*
X143686917Y-118537681D01*
X143653432Y-118476358D01*
X143658416Y-118406666D01*
X143686917Y-118362319D01*
X143731752Y-118317484D01*
X143780520Y-118268716D01*
X143780520Y-118268714D01*
X143790724Y-118258511D01*
X143790728Y-118258506D01*
X144108506Y-117940728D01*
X144108511Y-117940724D01*
X144118714Y-117930520D01*
X144118716Y-117930520D01*
X144230520Y-117818716D01*
X144234214Y-117812318D01*
X144296920Y-117703708D01*
X144296921Y-117703706D01*
X144302056Y-117694810D01*
X144309577Y-117681785D01*
X144332808Y-117595083D01*
X144369172Y-117535426D01*
X144432018Y-117504896D01*
X144501394Y-117513190D01*
X144540262Y-117539497D01*
X144704469Y-117703705D01*
X144838181Y-117837417D01*
X144871666Y-117898740D01*
X144874500Y-117925098D01*
X144874500Y-118522870D01*
X144874501Y-118522876D01*
X144880908Y-118582483D01*
X144931202Y-118717328D01*
X144931206Y-118717335D01*
X145017452Y-118832544D01*
X145017455Y-118832547D01*
X145132664Y-118918793D01*
X145132671Y-118918797D01*
X145267517Y-118969091D01*
X145267516Y-118969091D01*
X145274444Y-118969835D01*
X145327127Y-118975500D01*
X146172872Y-118975499D01*
X146232483Y-118969091D01*
X146332857Y-118931654D01*
X146367329Y-118918797D01*
X146367329Y-118918796D01*
X146367331Y-118918796D01*
X146400689Y-118893823D01*
X146466151Y-118869406D01*
X146534425Y-118884257D01*
X146549305Y-118893820D01*
X146582669Y-118918796D01*
X146582670Y-118918796D01*
X146582670Y-118918797D01*
X146717517Y-118969091D01*
X146717516Y-118969091D01*
X146724444Y-118969835D01*
X146777127Y-118975500D01*
X147622872Y-118975499D01*
X147682483Y-118969091D01*
X147817331Y-118918796D01*
X147875563Y-118875203D01*
X147941025Y-118850786D01*
X148009298Y-118865637D01*
X148037554Y-118886789D01*
X149819298Y-120668533D01*
X149852783Y-120729856D01*
X149854837Y-120742330D01*
X149864630Y-120829249D01*
X149924210Y-120999521D01*
X149936997Y-121019871D01*
X150020184Y-121152262D01*
X150147738Y-121279816D01*
X150300478Y-121375789D01*
X150399299Y-121410368D01*
X150470745Y-121435368D01*
X150470750Y-121435369D01*
X150649996Y-121455565D01*
X150650000Y-121455565D01*
X150650004Y-121455565D01*
X150829249Y-121435369D01*
X150829252Y-121435368D01*
X150829255Y-121435368D01*
X150999522Y-121375789D01*
X151152262Y-121279816D01*
X151279816Y-121152262D01*
X151375789Y-120999522D01*
X151435368Y-120829255D01*
X151437322Y-120811913D01*
X151455565Y-120650003D01*
X151455565Y-120649996D01*
X151435369Y-120470750D01*
X151435368Y-120470745D01*
X151418467Y-120422445D01*
X151375789Y-120300478D01*
X151360080Y-120275478D01*
X151299619Y-120179254D01*
X151279816Y-120147738D01*
X151152262Y-120020184D01*
X151120144Y-120000003D01*
X150999521Y-119924210D01*
X150829249Y-119864630D01*
X150742330Y-119854837D01*
X150677916Y-119827770D01*
X150668533Y-119819298D01*
X149908232Y-119058997D01*
X149874747Y-118997674D01*
X149876270Y-118976370D01*
X149869838Y-118977770D01*
X149804373Y-118953354D01*
X149791002Y-118941767D01*
X149061915Y-118212680D01*
X149028430Y-118151357D01*
X149033414Y-118081665D01*
X149061911Y-118037322D01*
X149358506Y-117740727D01*
X149358511Y-117740724D01*
X149368714Y-117730520D01*
X149368716Y-117730520D01*
X149462319Y-117636917D01*
X149523642Y-117603432D01*
X149593334Y-117608416D01*
X149637681Y-117636917D01*
X149838181Y-117837417D01*
X149871666Y-117898740D01*
X149874500Y-117925098D01*
X149874500Y-118522870D01*
X149874501Y-118522876D01*
X149880908Y-118582483D01*
X149931202Y-118717328D01*
X149931206Y-118717335D01*
X149977949Y-118779775D01*
X150002367Y-118845239D01*
X150001178Y-118850701D01*
X150055340Y-118862484D01*
X150070221Y-118872047D01*
X150132665Y-118918793D01*
X150132668Y-118918795D01*
X150132671Y-118918797D01*
X150267517Y-118969091D01*
X150267516Y-118969091D01*
X150274444Y-118969835D01*
X150327127Y-118975500D01*
X151172872Y-118975499D01*
X151232483Y-118969091D01*
X151332857Y-118931654D01*
X151367329Y-118918797D01*
X151367329Y-118918796D01*
X151367331Y-118918796D01*
X151400689Y-118893823D01*
X151466151Y-118869406D01*
X151534425Y-118884257D01*
X151549305Y-118893820D01*
X151582669Y-118918796D01*
X151582670Y-118918796D01*
X151582670Y-118918797D01*
X151644257Y-118941767D01*
X151717517Y-118969091D01*
X151777127Y-118975500D01*
X152074902Y-118975499D01*
X152141941Y-118995183D01*
X152162583Y-119011818D01*
X153169298Y-120018533D01*
X153202783Y-120079856D01*
X153204837Y-120092330D01*
X153214630Y-120179249D01*
X153274210Y-120349521D01*
X153350384Y-120470750D01*
X153370184Y-120502262D01*
X153497738Y-120629816D01*
X153559356Y-120668533D01*
X153637015Y-120717330D01*
X153650478Y-120725789D01*
X153727357Y-120752690D01*
X153820745Y-120785368D01*
X153820750Y-120785369D01*
X153999996Y-120805565D01*
X154000000Y-120805565D01*
X154000004Y-120805565D01*
X154179249Y-120785369D01*
X154179252Y-120785368D01*
X154179255Y-120785368D01*
X154349522Y-120725789D01*
X154502262Y-120629816D01*
X154629816Y-120502262D01*
X154725789Y-120349522D01*
X154785368Y-120179255D01*
X154788919Y-120147738D01*
X154805565Y-120000003D01*
X154805565Y-119999996D01*
X154785369Y-119820750D01*
X154785368Y-119820745D01*
X154760613Y-119750000D01*
X154725789Y-119650478D01*
X154629816Y-119497738D01*
X154502262Y-119370184D01*
X154380262Y-119293526D01*
X154349521Y-119274210D01*
X154179249Y-119214630D01*
X154092330Y-119204837D01*
X154027916Y-119177770D01*
X154018533Y-119169298D01*
X153431488Y-118582253D01*
X153398003Y-118520930D01*
X153402987Y-118451238D01*
X153444859Y-118395305D01*
X153457151Y-118387196D01*
X153468716Y-118380520D01*
X153580520Y-118268716D01*
X153580520Y-118268714D01*
X153590728Y-118258507D01*
X153590730Y-118258504D01*
X154108506Y-117740728D01*
X154108511Y-117740724D01*
X154118714Y-117730520D01*
X154118716Y-117730520D01*
X154230520Y-117618716D01*
X154284315Y-117525539D01*
X154292092Y-117512068D01*
X154342659Y-117463856D01*
X154411267Y-117450635D01*
X154476131Y-117476605D01*
X154487155Y-117486390D01*
X154664788Y-117664024D01*
X154838181Y-117837417D01*
X154871666Y-117898740D01*
X154874500Y-117925098D01*
X154874500Y-118522870D01*
X154874501Y-118522876D01*
X154880908Y-118582483D01*
X154931202Y-118717328D01*
X154931206Y-118717335D01*
X155017452Y-118832544D01*
X155017455Y-118832547D01*
X155132664Y-118918793D01*
X155132671Y-118918797D01*
X155267517Y-118969091D01*
X155267516Y-118969091D01*
X155274444Y-118969835D01*
X155327127Y-118975500D01*
X156172872Y-118975499D01*
X156232483Y-118969091D01*
X156332857Y-118931654D01*
X156367329Y-118918797D01*
X156367329Y-118918796D01*
X156367331Y-118918796D01*
X156400689Y-118893823D01*
X156466151Y-118869406D01*
X156534425Y-118884257D01*
X156549305Y-118893820D01*
X156582669Y-118918796D01*
X156582670Y-118918796D01*
X156582670Y-118918797D01*
X156717517Y-118969091D01*
X156717516Y-118969091D01*
X156724444Y-118969835D01*
X156777127Y-118975500D01*
X157622872Y-118975499D01*
X157682483Y-118969091D01*
X157817331Y-118918796D01*
X157875563Y-118875203D01*
X157941025Y-118850786D01*
X158009298Y-118865637D01*
X158037554Y-118886789D01*
X159936336Y-120785571D01*
X159965697Y-120832298D01*
X160024210Y-120999521D01*
X160036997Y-121019871D01*
X160120184Y-121152262D01*
X160247738Y-121279816D01*
X160400478Y-121375789D01*
X160499299Y-121410368D01*
X160570745Y-121435368D01*
X160570750Y-121435369D01*
X160749996Y-121455565D01*
X160750000Y-121455565D01*
X160750004Y-121455565D01*
X160929249Y-121435369D01*
X160929252Y-121435368D01*
X160929255Y-121435368D01*
X161099522Y-121375789D01*
X161252262Y-121279816D01*
X161379816Y-121152262D01*
X161475789Y-120999522D01*
X161535368Y-120829255D01*
X161537322Y-120811913D01*
X161555565Y-120650003D01*
X161555565Y-120649996D01*
X161535369Y-120470750D01*
X161535368Y-120470745D01*
X161518467Y-120422445D01*
X161475789Y-120300478D01*
X161460080Y-120275478D01*
X161399619Y-120179254D01*
X161379816Y-120147738D01*
X161252262Y-120020184D01*
X161220144Y-120000003D01*
X161099523Y-119924211D01*
X160929254Y-119864631D01*
X160929249Y-119864630D01*
X160750004Y-119844435D01*
X160745032Y-119844435D01*
X160677993Y-119824750D01*
X160657351Y-119808116D01*
X159908232Y-119058997D01*
X159874747Y-118997674D01*
X159876270Y-118976370D01*
X159869838Y-118977770D01*
X159804373Y-118953354D01*
X159791002Y-118941767D01*
X158836915Y-117987680D01*
X158803430Y-117926357D01*
X158808414Y-117856665D01*
X158836911Y-117812323D01*
X159237320Y-117411913D01*
X159298641Y-117378430D01*
X159368333Y-117383414D01*
X159412680Y-117411915D01*
X159838181Y-117837417D01*
X159871666Y-117898740D01*
X159874500Y-117925098D01*
X159874500Y-118522870D01*
X159874501Y-118522876D01*
X159880908Y-118582483D01*
X159931202Y-118717328D01*
X159931206Y-118717335D01*
X159977949Y-118779775D01*
X160002367Y-118845239D01*
X160001178Y-118850701D01*
X160055340Y-118862484D01*
X160070221Y-118872047D01*
X160132665Y-118918793D01*
X160132668Y-118918795D01*
X160132671Y-118918797D01*
X160267517Y-118969091D01*
X160267516Y-118969091D01*
X160274444Y-118969835D01*
X160327127Y-118975500D01*
X161172872Y-118975499D01*
X161232483Y-118969091D01*
X161332857Y-118931654D01*
X161367329Y-118918797D01*
X161367329Y-118918796D01*
X161367331Y-118918796D01*
X161400689Y-118893823D01*
X161466151Y-118869406D01*
X161534425Y-118884257D01*
X161549305Y-118893820D01*
X161582669Y-118918796D01*
X161582670Y-118918796D01*
X161582670Y-118918797D01*
X161644257Y-118941767D01*
X161717517Y-118969091D01*
X161777127Y-118975500D01*
X162074902Y-118975499D01*
X162141941Y-118995183D01*
X162162583Y-119011818D01*
X163169298Y-120018533D01*
X163202783Y-120079856D01*
X163204837Y-120092330D01*
X163214630Y-120179249D01*
X163274210Y-120349521D01*
X163350384Y-120470750D01*
X163370184Y-120502262D01*
X163497738Y-120629816D01*
X163559356Y-120668533D01*
X163637015Y-120717330D01*
X163650478Y-120725789D01*
X163727357Y-120752690D01*
X163820745Y-120785368D01*
X163820750Y-120785369D01*
X163999996Y-120805565D01*
X164000000Y-120805565D01*
X164000004Y-120805565D01*
X164179249Y-120785369D01*
X164179252Y-120785368D01*
X164179255Y-120785368D01*
X164349522Y-120725789D01*
X164502262Y-120629816D01*
X164629816Y-120502262D01*
X164725789Y-120349522D01*
X164785368Y-120179255D01*
X164788919Y-120147738D01*
X164805565Y-120000003D01*
X164805565Y-119999996D01*
X164785369Y-119820750D01*
X164785368Y-119820745D01*
X164760613Y-119750000D01*
X164725789Y-119650478D01*
X164629816Y-119497738D01*
X164502262Y-119370184D01*
X164380262Y-119293526D01*
X164349521Y-119274210D01*
X164179249Y-119214630D01*
X164092330Y-119204837D01*
X164027916Y-119177770D01*
X164018533Y-119169298D01*
X163431488Y-118582253D01*
X163398003Y-118520930D01*
X163402987Y-118451238D01*
X163444859Y-118395305D01*
X163457151Y-118387196D01*
X163468716Y-118380520D01*
X163580520Y-118268716D01*
X163580520Y-118268714D01*
X163590728Y-118258507D01*
X163590730Y-118258504D01*
X164108506Y-117740728D01*
X164108511Y-117740724D01*
X164118714Y-117730520D01*
X164118716Y-117730520D01*
X164230520Y-117618716D01*
X164284315Y-117525539D01*
X164292092Y-117512068D01*
X164342659Y-117463856D01*
X164411267Y-117450635D01*
X164476131Y-117476605D01*
X164487155Y-117486390D01*
X164664788Y-117664024D01*
X164838181Y-117837417D01*
X164871666Y-117898740D01*
X164874500Y-117925098D01*
X164874500Y-118522870D01*
X164874501Y-118522876D01*
X164880908Y-118582483D01*
X164931202Y-118717328D01*
X164931206Y-118717335D01*
X165017452Y-118832544D01*
X165017455Y-118832547D01*
X165132664Y-118918793D01*
X165132671Y-118918797D01*
X165267517Y-118969091D01*
X165267516Y-118969091D01*
X165274444Y-118969835D01*
X165327127Y-118975500D01*
X166172872Y-118975499D01*
X166232483Y-118969091D01*
X166332857Y-118931654D01*
X166367329Y-118918797D01*
X166367329Y-118918796D01*
X166367331Y-118918796D01*
X166400689Y-118893823D01*
X166466151Y-118869406D01*
X166534425Y-118884257D01*
X166549305Y-118893820D01*
X166582669Y-118918796D01*
X166582670Y-118918796D01*
X166582670Y-118918797D01*
X166717517Y-118969091D01*
X166717516Y-118969091D01*
X166724444Y-118969835D01*
X166777127Y-118975500D01*
X167622872Y-118975499D01*
X167682483Y-118969091D01*
X167817331Y-118918796D01*
X167875563Y-118875203D01*
X167941025Y-118850786D01*
X168009298Y-118865637D01*
X168037554Y-118886789D01*
X169794298Y-120643533D01*
X169827783Y-120704856D01*
X169829837Y-120717330D01*
X169839630Y-120804249D01*
X169899210Y-120974521D01*
X169927707Y-121019873D01*
X169995184Y-121127262D01*
X170122738Y-121254816D01*
X170169751Y-121284356D01*
X170274220Y-121349999D01*
X170275478Y-121350789D01*
X170346924Y-121375789D01*
X170445745Y-121410368D01*
X170445750Y-121410369D01*
X170624996Y-121430565D01*
X170625000Y-121430565D01*
X170625004Y-121430565D01*
X170804249Y-121410369D01*
X170804252Y-121410368D01*
X170804255Y-121410368D01*
X170974522Y-121350789D01*
X171127262Y-121254816D01*
X171254816Y-121127262D01*
X171350789Y-120974522D01*
X171410368Y-120804255D01*
X171416178Y-120752690D01*
X171430565Y-120625003D01*
X171430565Y-120624996D01*
X171410369Y-120445750D01*
X171410368Y-120445745D01*
X171383413Y-120368713D01*
X171350789Y-120275478D01*
X171339616Y-120257697D01*
X171290324Y-120179249D01*
X171254816Y-120122738D01*
X171127262Y-119995184D01*
X170974521Y-119899210D01*
X170804249Y-119839630D01*
X170717330Y-119829837D01*
X170652916Y-119802770D01*
X170643533Y-119794298D01*
X168936915Y-118087680D01*
X168903430Y-118026357D01*
X168908414Y-117956665D01*
X168936911Y-117912323D01*
X169358504Y-117490729D01*
X169358514Y-117490722D01*
X169362296Y-117486939D01*
X169368363Y-117483623D01*
X169390727Y-117467505D01*
X169390735Y-117467501D01*
X169392266Y-117470563D01*
X169423610Y-117453438D01*
X169493303Y-117458404D01*
X169537681Y-117486916D01*
X169888181Y-117837416D01*
X169921666Y-117898739D01*
X169924500Y-117925097D01*
X169924500Y-118522870D01*
X169924501Y-118522876D01*
X169930908Y-118582483D01*
X169981202Y-118717328D01*
X169981206Y-118717335D01*
X170067452Y-118832544D01*
X170067455Y-118832547D01*
X170182664Y-118918793D01*
X170182671Y-118918797D01*
X170317517Y-118969091D01*
X170317516Y-118969091D01*
X170324444Y-118969835D01*
X170377127Y-118975500D01*
X171222872Y-118975499D01*
X171282483Y-118969091D01*
X171382857Y-118931654D01*
X171417329Y-118918797D01*
X171417329Y-118918796D01*
X171417331Y-118918796D01*
X171450689Y-118893823D01*
X171516151Y-118869406D01*
X171584425Y-118884257D01*
X171599305Y-118893820D01*
X171632669Y-118918796D01*
X171632670Y-118918796D01*
X171632670Y-118918797D01*
X171767516Y-118969091D01*
X171827114Y-118975499D01*
X171827121Y-118975499D01*
X171827127Y-118975500D01*
X171827132Y-118975499D01*
X171830434Y-118975677D01*
X171830424Y-118975855D01*
X171830431Y-118975856D01*
X171830417Y-118975977D01*
X171830356Y-118977128D01*
X171891846Y-118995122D01*
X171912583Y-119011818D01*
X172919298Y-120018533D01*
X172952783Y-120079856D01*
X172954837Y-120092330D01*
X172964630Y-120179249D01*
X173024210Y-120349521D01*
X173100384Y-120470750D01*
X173120184Y-120502262D01*
X173247738Y-120629816D01*
X173309356Y-120668533D01*
X173387015Y-120717330D01*
X173400478Y-120725789D01*
X173477357Y-120752690D01*
X173570745Y-120785368D01*
X173570750Y-120785369D01*
X173749996Y-120805565D01*
X173750000Y-120805565D01*
X173750004Y-120805565D01*
X173929249Y-120785369D01*
X173929252Y-120785368D01*
X173929255Y-120785368D01*
X174099522Y-120725789D01*
X174252262Y-120629816D01*
X174379816Y-120502262D01*
X174475789Y-120349522D01*
X174535368Y-120179255D01*
X174538919Y-120147738D01*
X174555565Y-120000003D01*
X174555565Y-119999996D01*
X174535369Y-119820750D01*
X174535368Y-119820745D01*
X174510613Y-119750000D01*
X174475789Y-119650478D01*
X174379816Y-119497738D01*
X174252262Y-119370184D01*
X174130262Y-119293526D01*
X174099521Y-119274210D01*
X173929249Y-119214630D01*
X173842330Y-119204837D01*
X173777916Y-119177770D01*
X173768533Y-119169298D01*
X173268366Y-118669131D01*
X173234881Y-118607808D01*
X173239865Y-118538116D01*
X173281737Y-118482183D01*
X173323955Y-118461675D01*
X173331785Y-118459577D01*
X173331787Y-118459576D01*
X173381904Y-118430639D01*
X173468716Y-118380520D01*
X173580520Y-118268716D01*
X173580520Y-118268714D01*
X173590728Y-118258507D01*
X173590730Y-118258504D01*
X174108506Y-117740728D01*
X174108511Y-117740724D01*
X174118714Y-117730520D01*
X174118716Y-117730520D01*
X174230520Y-117618716D01*
X174284315Y-117525539D01*
X174292092Y-117512068D01*
X174342659Y-117463856D01*
X174411267Y-117450635D01*
X174476131Y-117476605D01*
X174487155Y-117486390D01*
X174664788Y-117664024D01*
X174838181Y-117837417D01*
X174871666Y-117898740D01*
X174874500Y-117925098D01*
X174874500Y-118522870D01*
X174874501Y-118522876D01*
X174880908Y-118582483D01*
X174931202Y-118717328D01*
X174931206Y-118717335D01*
X175017452Y-118832544D01*
X175017455Y-118832547D01*
X175132664Y-118918793D01*
X175132671Y-118918797D01*
X175267517Y-118969091D01*
X175267516Y-118969091D01*
X175274444Y-118969835D01*
X175327127Y-118975500D01*
X176172872Y-118975499D01*
X176232483Y-118969091D01*
X176332857Y-118931654D01*
X176367329Y-118918797D01*
X176367329Y-118918796D01*
X176367331Y-118918796D01*
X176400689Y-118893823D01*
X176466151Y-118869406D01*
X176534425Y-118884257D01*
X176549305Y-118893820D01*
X176582669Y-118918796D01*
X176582670Y-118918796D01*
X176582670Y-118918797D01*
X176717517Y-118969091D01*
X176717516Y-118969091D01*
X176724444Y-118969835D01*
X176777127Y-118975500D01*
X177622872Y-118975499D01*
X177682483Y-118969091D01*
X177817331Y-118918796D01*
X177875563Y-118875203D01*
X177941025Y-118850786D01*
X178009298Y-118865637D01*
X178037554Y-118886789D01*
X179794298Y-120643533D01*
X179827783Y-120704856D01*
X179829837Y-120717330D01*
X179839630Y-120804249D01*
X179899210Y-120974521D01*
X179927707Y-121019873D01*
X179995184Y-121127262D01*
X180122738Y-121254816D01*
X180169751Y-121284356D01*
X180274220Y-121349999D01*
X180275478Y-121350789D01*
X180346924Y-121375789D01*
X180445745Y-121410368D01*
X180445750Y-121410369D01*
X180624996Y-121430565D01*
X180625000Y-121430565D01*
X180625004Y-121430565D01*
X180804249Y-121410369D01*
X180804252Y-121410368D01*
X180804255Y-121410368D01*
X180974522Y-121350789D01*
X181127262Y-121254816D01*
X181254816Y-121127262D01*
X181350789Y-120974522D01*
X181410368Y-120804255D01*
X181416178Y-120752690D01*
X181430565Y-120625003D01*
X181430565Y-120624996D01*
X181410369Y-120445750D01*
X181410368Y-120445745D01*
X181383413Y-120368713D01*
X181350789Y-120275478D01*
X181339616Y-120257697D01*
X181290324Y-120179249D01*
X181254816Y-120122738D01*
X181127262Y-119995184D01*
X180974521Y-119899210D01*
X180804249Y-119839630D01*
X180717330Y-119829837D01*
X180652916Y-119802770D01*
X180643533Y-119794298D01*
X179908232Y-119058997D01*
X179874747Y-118997674D01*
X179876270Y-118976370D01*
X179869838Y-118977770D01*
X179804373Y-118953354D01*
X179791002Y-118941767D01*
X178836915Y-117987680D01*
X178803430Y-117926357D01*
X178808414Y-117856665D01*
X178836911Y-117812323D01*
X179237320Y-117411913D01*
X179298641Y-117378430D01*
X179368333Y-117383414D01*
X179412680Y-117411915D01*
X179838181Y-117837417D01*
X179871666Y-117898740D01*
X179874500Y-117925098D01*
X179874500Y-118522870D01*
X179874501Y-118522876D01*
X179880908Y-118582483D01*
X179931202Y-118717328D01*
X179931206Y-118717335D01*
X179977949Y-118779775D01*
X180002367Y-118845239D01*
X180001178Y-118850701D01*
X180055340Y-118862484D01*
X180070221Y-118872047D01*
X180132665Y-118918793D01*
X180132668Y-118918795D01*
X180132671Y-118918797D01*
X180267517Y-118969091D01*
X180267516Y-118969091D01*
X180274444Y-118969835D01*
X180327127Y-118975500D01*
X181172872Y-118975499D01*
X181232483Y-118969091D01*
X181367331Y-118918796D01*
X181400690Y-118893823D01*
X181466149Y-118869406D01*
X181534422Y-118884256D01*
X181549311Y-118893824D01*
X181582669Y-118918796D01*
X181604947Y-118927105D01*
X181660881Y-118968973D01*
X181669003Y-118981287D01*
X181719477Y-119068712D01*
X181719481Y-119068717D01*
X181838349Y-119187585D01*
X181838355Y-119187590D01*
X182669298Y-120018533D01*
X182702783Y-120079856D01*
X182704837Y-120092330D01*
X182714630Y-120179249D01*
X182774210Y-120349521D01*
X182850384Y-120470750D01*
X182870184Y-120502262D01*
X182997738Y-120629816D01*
X183059356Y-120668533D01*
X183137015Y-120717330D01*
X183150478Y-120725789D01*
X183227357Y-120752690D01*
X183320745Y-120785368D01*
X183320750Y-120785369D01*
X183499996Y-120805565D01*
X183500000Y-120805565D01*
X183500004Y-120805565D01*
X183679249Y-120785369D01*
X183679252Y-120785368D01*
X183679255Y-120785368D01*
X183849522Y-120725789D01*
X184002262Y-120629816D01*
X184002267Y-120629810D01*
X184005097Y-120627555D01*
X184007275Y-120626665D01*
X184008158Y-120626111D01*
X184008255Y-120626265D01*
X184069783Y-120601145D01*
X184082412Y-120600500D01*
X190013331Y-120600500D01*
X190013347Y-120600501D01*
X190020943Y-120600501D01*
X190179054Y-120600501D01*
X190179057Y-120600501D01*
X190331785Y-120559577D01*
X190381904Y-120530639D01*
X190468716Y-120480520D01*
X190580520Y-120368716D01*
X190580520Y-120368714D01*
X190590728Y-120358507D01*
X190590730Y-120358504D01*
X191937416Y-119011818D01*
X191998739Y-118978333D01*
X192025097Y-118975499D01*
X192622871Y-118975499D01*
X192622872Y-118975499D01*
X192682483Y-118969091D01*
X192817331Y-118918796D01*
X192932546Y-118832546D01*
X193018796Y-118717331D01*
X193032833Y-118679697D01*
X193069582Y-118581168D01*
X193111453Y-118525234D01*
X193171180Y-118502956D01*
X193170997Y-118501562D01*
X193179054Y-118500501D01*
X193179057Y-118500501D01*
X193331785Y-118459577D01*
X193381904Y-118430639D01*
X193468716Y-118380520D01*
X193580520Y-118268716D01*
X193580520Y-118268714D01*
X193590728Y-118258507D01*
X193590730Y-118258504D01*
X194108506Y-117740728D01*
X194108511Y-117740724D01*
X194118714Y-117730520D01*
X194118716Y-117730520D01*
X194230520Y-117618716D01*
X194284315Y-117525539D01*
X194309577Y-117481785D01*
X194350501Y-117329057D01*
X194350501Y-117170943D01*
X194350501Y-117163348D01*
X194350500Y-117163330D01*
X194350500Y-115339060D01*
X194350501Y-115339047D01*
X194350501Y-115170944D01*
X194344840Y-115149816D01*
X194309577Y-115018216D01*
X194299360Y-115000519D01*
X194230524Y-114881290D01*
X194230518Y-114881282D01*
X193618717Y-114269481D01*
X193618716Y-114269480D01*
X193525179Y-114215477D01*
X193525178Y-114215476D01*
X193481783Y-114190422D01*
X193409093Y-114170945D01*
X193329057Y-114149499D01*
X193185764Y-114149499D01*
X193118725Y-114129814D01*
X193072970Y-114077010D01*
X193069582Y-114068832D01*
X193018797Y-113932671D01*
X193018793Y-113932664D01*
X192932547Y-113817455D01*
X192932544Y-113817452D01*
X192817335Y-113731206D01*
X192817328Y-113731202D01*
X192682482Y-113680908D01*
X192682483Y-113680908D01*
X192622883Y-113674501D01*
X192622881Y-113674500D01*
X192622873Y-113674500D01*
X192622864Y-113674500D01*
X191777129Y-113674500D01*
X191777123Y-113674501D01*
X191717516Y-113680908D01*
X191582671Y-113731202D01*
X191582669Y-113731203D01*
X191549310Y-113756176D01*
X191483845Y-113780592D01*
X191415572Y-113765740D01*
X191400690Y-113756176D01*
X191367330Y-113731203D01*
X191367328Y-113731202D01*
X191232482Y-113680908D01*
X191232483Y-113680908D01*
X191172883Y-113674501D01*
X191172881Y-113674500D01*
X191172873Y-113674500D01*
X191172865Y-113674500D01*
X191074096Y-113674500D01*
X191007057Y-113654815D01*
X190961302Y-113602011D01*
X190951358Y-113532853D01*
X190980383Y-113469297D01*
X190986415Y-113462819D01*
X191937416Y-112511818D01*
X191998739Y-112478333D01*
X192025097Y-112475499D01*
X192622871Y-112475499D01*
X192622872Y-112475499D01*
X192682483Y-112469091D01*
X192817331Y-112418796D01*
X192932546Y-112332546D01*
X193018796Y-112217331D01*
X193069091Y-112082483D01*
X193075500Y-112022873D01*
X193075499Y-111625097D01*
X193095183Y-111558059D01*
X193111818Y-111537416D01*
X193130521Y-111518713D01*
X193330520Y-111318716D01*
X193409577Y-111181784D01*
X193450501Y-111029057D01*
X193450501Y-110870942D01*
X193450501Y-110863347D01*
X193450500Y-110863329D01*
X193450500Y-108889060D01*
X193450501Y-108889047D01*
X193450501Y-108720944D01*
X193440870Y-108685001D01*
X193409577Y-108568216D01*
X193407077Y-108563885D01*
X193330524Y-108431290D01*
X193330518Y-108431282D01*
X193111818Y-108212582D01*
X193078333Y-108151259D01*
X193075499Y-108124901D01*
X193075499Y-107627129D01*
X193075498Y-107627123D01*
X193072582Y-107599998D01*
X193069091Y-107567517D01*
X193049152Y-107514059D01*
X193018797Y-107432671D01*
X193018793Y-107432664D01*
X192932547Y-107317455D01*
X192932544Y-107317452D01*
X192817335Y-107231206D01*
X192817328Y-107231202D01*
X192682482Y-107180908D01*
X192682483Y-107180908D01*
X192622883Y-107174501D01*
X192622881Y-107174500D01*
X192622873Y-107174500D01*
X192622864Y-107174500D01*
X191777129Y-107174500D01*
X191777123Y-107174501D01*
X191717516Y-107180908D01*
X191582671Y-107231202D01*
X191582669Y-107231203D01*
X191549310Y-107256176D01*
X191483845Y-107280592D01*
X191415572Y-107265740D01*
X191400690Y-107256176D01*
X191367330Y-107231203D01*
X191367328Y-107231202D01*
X191232482Y-107180908D01*
X191232483Y-107180908D01*
X191172883Y-107174501D01*
X191172881Y-107174500D01*
X191172873Y-107174500D01*
X191172865Y-107174500D01*
X191124096Y-107174500D01*
X191057057Y-107154815D01*
X191011302Y-107102011D01*
X191001358Y-107032853D01*
X191030383Y-106969297D01*
X191036415Y-106962819D01*
X191450019Y-106549216D01*
X191987417Y-106011818D01*
X192048740Y-105978333D01*
X192075098Y-105975499D01*
X192572871Y-105975499D01*
X192572872Y-105975499D01*
X192632483Y-105969091D01*
X192767331Y-105918796D01*
X192882546Y-105832546D01*
X192968796Y-105717331D01*
X193019091Y-105582483D01*
X193025500Y-105522873D01*
X193025499Y-105175096D01*
X193045183Y-105108058D01*
X193061812Y-105087421D01*
X193330520Y-104818716D01*
X193409577Y-104681784D01*
X193450501Y-104529057D01*
X193450501Y-104370942D01*
X193450501Y-104363347D01*
X193450500Y-104363329D01*
X193450500Y-102389060D01*
X193450501Y-102389047D01*
X193450501Y-102220944D01*
X193443802Y-102195943D01*
X193409577Y-102068216D01*
X193409573Y-102068209D01*
X193330524Y-101931290D01*
X193330518Y-101931282D01*
X193061818Y-101662582D01*
X193028333Y-101601259D01*
X193025499Y-101574901D01*
X193025499Y-101127129D01*
X193025498Y-101127123D01*
X193019091Y-101067516D01*
X192968797Y-100932671D01*
X192968793Y-100932664D01*
X192882547Y-100817455D01*
X192882544Y-100817452D01*
X192767335Y-100731206D01*
X192767328Y-100731202D01*
X192632482Y-100680908D01*
X192632483Y-100680908D01*
X192572883Y-100674501D01*
X192572881Y-100674500D01*
X192572873Y-100674500D01*
X192572864Y-100674500D01*
X191727129Y-100674500D01*
X191727123Y-100674501D01*
X191667516Y-100680908D01*
X191532671Y-100731202D01*
X191532669Y-100731203D01*
X191499310Y-100756176D01*
X191433845Y-100780592D01*
X191365572Y-100765740D01*
X191350690Y-100756176D01*
X191317330Y-100731203D01*
X191317328Y-100731202D01*
X191182482Y-100680908D01*
X191182483Y-100680908D01*
X191122883Y-100674501D01*
X191122881Y-100674500D01*
X191122873Y-100674500D01*
X191122865Y-100674500D01*
X190974096Y-100674500D01*
X190907057Y-100654815D01*
X190861302Y-100602011D01*
X190851358Y-100532853D01*
X190880383Y-100469297D01*
X190886415Y-100462819D01*
X191119107Y-100230128D01*
X191462417Y-99886818D01*
X191523740Y-99853333D01*
X191550098Y-99850499D01*
X191700002Y-99850499D01*
X191700008Y-99850499D01*
X191802797Y-99839999D01*
X191969334Y-99784814D01*
X192118656Y-99692712D01*
X192242712Y-99568656D01*
X192334814Y-99419334D01*
X192389999Y-99252797D01*
X192400500Y-99150009D01*
X192400499Y-98349992D01*
X192400213Y-98347196D01*
X192389999Y-98247203D01*
X192389998Y-98247200D01*
X192389075Y-98244416D01*
X192334814Y-98080666D01*
X192242712Y-97931344D01*
X192149049Y-97837681D01*
X192115564Y-97776358D01*
X192120548Y-97706666D01*
X192149049Y-97662319D01*
X192160688Y-97650680D01*
X192242712Y-97568656D01*
X192334814Y-97419334D01*
X192389999Y-97252797D01*
X192400500Y-97150009D01*
X192400499Y-96349992D01*
X192396863Y-96314402D01*
X192389999Y-96247203D01*
X192389998Y-96247200D01*
X192376734Y-96207173D01*
X192334814Y-96080666D01*
X192242712Y-95931344D01*
X192118656Y-95807288D01*
X191969334Y-95715186D01*
X191802797Y-95660001D01*
X191802795Y-95660000D01*
X191700010Y-95649500D01*
X190699998Y-95649500D01*
X190699980Y-95649501D01*
X190597203Y-95660000D01*
X190597200Y-95660001D01*
X190430668Y-95715185D01*
X190430663Y-95715187D01*
X190281342Y-95807289D01*
X190157289Y-95931342D01*
X190065185Y-96080667D01*
X190062256Y-96089507D01*
X190022482Y-96146951D01*
X189957965Y-96173772D01*
X189944551Y-96174500D01*
X187506371Y-96174500D01*
X187439332Y-96154815D01*
X187393577Y-96102011D01*
X187388666Y-96089506D01*
X187388039Y-96087615D01*
X187384814Y-96077882D01*
X187292712Y-95928560D01*
X187168656Y-95804504D01*
X187075888Y-95747285D01*
X187019336Y-95712403D01*
X187019331Y-95712401D01*
X187017862Y-95711914D01*
X186852797Y-95657217D01*
X186852795Y-95657216D01*
X186750010Y-95646716D01*
X185749998Y-95646716D01*
X185749980Y-95646717D01*
X185647203Y-95657216D01*
X185647200Y-95657217D01*
X185480668Y-95712401D01*
X185480663Y-95712403D01*
X185331342Y-95804505D01*
X185207289Y-95928558D01*
X185115187Y-96077879D01*
X185115184Y-96077888D01*
X185111334Y-96089506D01*
X185071561Y-96146950D01*
X185007045Y-96173772D01*
X184993629Y-96174500D01*
X182505449Y-96174500D01*
X182438410Y-96154815D01*
X182392655Y-96102011D01*
X182387744Y-96089507D01*
X182386267Y-96085053D01*
X182384814Y-96080666D01*
X182292712Y-95931344D01*
X182168656Y-95807288D01*
X182019334Y-95715186D01*
X181852797Y-95660001D01*
X181852795Y-95660000D01*
X181750010Y-95649500D01*
X180749998Y-95649500D01*
X180749980Y-95649501D01*
X180647203Y-95660000D01*
X180647200Y-95660001D01*
X180480668Y-95715185D01*
X180480663Y-95715187D01*
X180331342Y-95807289D01*
X180207289Y-95931342D01*
X180115185Y-96080667D01*
X180112256Y-96089507D01*
X180072482Y-96146951D01*
X180007965Y-96173772D01*
X179994551Y-96174500D01*
X177505449Y-96174500D01*
X177438410Y-96154815D01*
X177392655Y-96102011D01*
X177387744Y-96089507D01*
X177386267Y-96085053D01*
X177384814Y-96080666D01*
X177292712Y-95931344D01*
X177168656Y-95807288D01*
X177019334Y-95715186D01*
X176852797Y-95660001D01*
X176852795Y-95660000D01*
X176750010Y-95649500D01*
X175749998Y-95649500D01*
X175749980Y-95649501D01*
X175647203Y-95660000D01*
X175647200Y-95660001D01*
X175480668Y-95715185D01*
X175480663Y-95715187D01*
X175331342Y-95807289D01*
X175207289Y-95931342D01*
X175115185Y-96080667D01*
X175112256Y-96089507D01*
X175072482Y-96146951D01*
X175007965Y-96173772D01*
X174994551Y-96174500D01*
X172505449Y-96174500D01*
X172438410Y-96154815D01*
X172392655Y-96102011D01*
X172387744Y-96089507D01*
X172386267Y-96085053D01*
X172384814Y-96080666D01*
X172292712Y-95931344D01*
X172168656Y-95807288D01*
X172019334Y-95715186D01*
X171852797Y-95660001D01*
X171852795Y-95660000D01*
X171750010Y-95649500D01*
X170749998Y-95649500D01*
X170749980Y-95649501D01*
X170647203Y-95660000D01*
X170647200Y-95660001D01*
X170480668Y-95715185D01*
X170480663Y-95715187D01*
X170331342Y-95807289D01*
X170207289Y-95931342D01*
X170115185Y-96080667D01*
X170112256Y-96089507D01*
X170072482Y-96146951D01*
X170007965Y-96173772D01*
X169994551Y-96174500D01*
X167505449Y-96174500D01*
X167438410Y-96154815D01*
X167392655Y-96102011D01*
X167387744Y-96089507D01*
X167386267Y-96085053D01*
X167384814Y-96080666D01*
X167292712Y-95931344D01*
X167168656Y-95807288D01*
X167019334Y-95715186D01*
X166852797Y-95660001D01*
X166852795Y-95660000D01*
X166750010Y-95649500D01*
X165749998Y-95649500D01*
X165749980Y-95649501D01*
X165647203Y-95660000D01*
X165647200Y-95660001D01*
X165480668Y-95715185D01*
X165480663Y-95715187D01*
X165331342Y-95807289D01*
X165207289Y-95931342D01*
X165115185Y-96080667D01*
X165112256Y-96089507D01*
X165072482Y-96146951D01*
X165007965Y-96173772D01*
X164994551Y-96174500D01*
X162505449Y-96174500D01*
X162438410Y-96154815D01*
X162392655Y-96102011D01*
X162387744Y-96089507D01*
X162386267Y-96085053D01*
X162384814Y-96080666D01*
X162292712Y-95931344D01*
X162168656Y-95807288D01*
X162019334Y-95715186D01*
X161852797Y-95660001D01*
X161852795Y-95660000D01*
X161750010Y-95649500D01*
X160749998Y-95649500D01*
X160749980Y-95649501D01*
X160647203Y-95660000D01*
X160647200Y-95660001D01*
X160480668Y-95715185D01*
X160480663Y-95715187D01*
X160331342Y-95807289D01*
X160207289Y-95931342D01*
X160115185Y-96080667D01*
X160112256Y-96089507D01*
X160072482Y-96146951D01*
X160007965Y-96173772D01*
X159994551Y-96174500D01*
X157505449Y-96174500D01*
X157438410Y-96154815D01*
X157392655Y-96102011D01*
X157387744Y-96089507D01*
X157386267Y-96085053D01*
X157384814Y-96080666D01*
X157292712Y-95931344D01*
X157168656Y-95807288D01*
X157019334Y-95715186D01*
X156852797Y-95660001D01*
X156852795Y-95660000D01*
X156750010Y-95649500D01*
X155749998Y-95649500D01*
X155749980Y-95649501D01*
X155647203Y-95660000D01*
X155647200Y-95660001D01*
X155480668Y-95715185D01*
X155480663Y-95715187D01*
X155331342Y-95807289D01*
X155207289Y-95931342D01*
X155115185Y-96080667D01*
X155112256Y-96089507D01*
X155072482Y-96146951D01*
X155007965Y-96173772D01*
X154994551Y-96174500D01*
X152505449Y-96174500D01*
X152438410Y-96154815D01*
X152392655Y-96102011D01*
X152387744Y-96089507D01*
X152386267Y-96085053D01*
X152384814Y-96080666D01*
X152292712Y-95931344D01*
X152168656Y-95807288D01*
X152019334Y-95715186D01*
X151852797Y-95660001D01*
X151852795Y-95660000D01*
X151750010Y-95649500D01*
X150749998Y-95649500D01*
X150749980Y-95649501D01*
X150647203Y-95660000D01*
X150647200Y-95660001D01*
X150480668Y-95715185D01*
X150480663Y-95715187D01*
X150331342Y-95807289D01*
X150207289Y-95931342D01*
X150115185Y-96080667D01*
X150112256Y-96089507D01*
X150072482Y-96146951D01*
X150007965Y-96173772D01*
X149994551Y-96174500D01*
X147505449Y-96174500D01*
X147438410Y-96154815D01*
X147392655Y-96102011D01*
X147387744Y-96089507D01*
X147386267Y-96085053D01*
X147384814Y-96080666D01*
X147292712Y-95931344D01*
X147168656Y-95807288D01*
X147019334Y-95715186D01*
X146852797Y-95660001D01*
X146852795Y-95660000D01*
X146750010Y-95649500D01*
X145749998Y-95649500D01*
X145749980Y-95649501D01*
X145647203Y-95660000D01*
X145647200Y-95660001D01*
X145480668Y-95715185D01*
X145480663Y-95715187D01*
X145331342Y-95807289D01*
X145207289Y-95931342D01*
X145115185Y-96080667D01*
X145112256Y-96089507D01*
X145072482Y-96146951D01*
X145007965Y-96173772D01*
X144994551Y-96174500D01*
X142505449Y-96174500D01*
X142438410Y-96154815D01*
X142392655Y-96102011D01*
X142387744Y-96089507D01*
X142386267Y-96085053D01*
X142384814Y-96080666D01*
X142292712Y-95931344D01*
X142168656Y-95807288D01*
X142019334Y-95715186D01*
X141852797Y-95660001D01*
X141852795Y-95660000D01*
X141750010Y-95649500D01*
X140749998Y-95649500D01*
X140749980Y-95649501D01*
X140647203Y-95660000D01*
X140647200Y-95660001D01*
X140480668Y-95715185D01*
X140480663Y-95715187D01*
X140331342Y-95807289D01*
X140207289Y-95931342D01*
X140115185Y-96080667D01*
X140112256Y-96089507D01*
X140072482Y-96146951D01*
X140007965Y-96173772D01*
X139994551Y-96174500D01*
X137505449Y-96174500D01*
X137438410Y-96154815D01*
X137392655Y-96102011D01*
X137387744Y-96089507D01*
X137386267Y-96085053D01*
X137384814Y-96080666D01*
X137292712Y-95931344D01*
X137168656Y-95807288D01*
X137019334Y-95715186D01*
X136852797Y-95660001D01*
X136852795Y-95660000D01*
X136750010Y-95649500D01*
X135749998Y-95649500D01*
X135749980Y-95649501D01*
X135647203Y-95660000D01*
X135647200Y-95660001D01*
X135480668Y-95715185D01*
X135480663Y-95715187D01*
X135331342Y-95807289D01*
X135207289Y-95931342D01*
X135115185Y-96080667D01*
X135112256Y-96089507D01*
X135072482Y-96146951D01*
X135007965Y-96173772D01*
X134994551Y-96174500D01*
X132505449Y-96174500D01*
X132438410Y-96154815D01*
X132392655Y-96102011D01*
X132387744Y-96089507D01*
X132386267Y-96085053D01*
X132384814Y-96080666D01*
X132292712Y-95931344D01*
X132168656Y-95807288D01*
X132019334Y-95715186D01*
X131852797Y-95660001D01*
X131852795Y-95660000D01*
X131750010Y-95649500D01*
X130749998Y-95649500D01*
X130749980Y-95649501D01*
X130647203Y-95660000D01*
X130647200Y-95660001D01*
X130480668Y-95715185D01*
X130480663Y-95715187D01*
X130331342Y-95807289D01*
X130207289Y-95931342D01*
X130115185Y-96080667D01*
X130112256Y-96089507D01*
X130072482Y-96146951D01*
X130007965Y-96173772D01*
X129994551Y-96174500D01*
X127505449Y-96174500D01*
X127438410Y-96154815D01*
X127392655Y-96102011D01*
X127387744Y-96089507D01*
X127386267Y-96085053D01*
X127384814Y-96080666D01*
X127292712Y-95931344D01*
X127168656Y-95807288D01*
X127019334Y-95715186D01*
X126852797Y-95660001D01*
X126852795Y-95660000D01*
X126750010Y-95649500D01*
X125749998Y-95649500D01*
X125749980Y-95649501D01*
X125647203Y-95660000D01*
X125647200Y-95660001D01*
X125480668Y-95715185D01*
X125480663Y-95715187D01*
X125331342Y-95807289D01*
X125207289Y-95931342D01*
X125115187Y-96080663D01*
X125115185Y-96080668D01*
X125104446Y-96113077D01*
X125060001Y-96247203D01*
X125060001Y-96247204D01*
X125060000Y-96247204D01*
X125049500Y-96349983D01*
X125049500Y-97049902D01*
X125029815Y-97116941D01*
X125013181Y-97137583D01*
X124500084Y-97650680D01*
X124438761Y-97684165D01*
X124369069Y-97679181D01*
X124346431Y-97667993D01*
X124199521Y-97575683D01*
X124029249Y-97516103D01*
X123960616Y-97508370D01*
X123896202Y-97481303D01*
X123856647Y-97423708D01*
X123850500Y-97385150D01*
X123850500Y-97166912D01*
X123850501Y-97166899D01*
X123850501Y-96998796D01*
X123850501Y-96998795D01*
X123809577Y-96846068D01*
X123796491Y-96823402D01*
X123730524Y-96709142D01*
X123730518Y-96709134D01*
X123666774Y-96645390D01*
X123633289Y-96584067D01*
X123631237Y-96571610D01*
X123621442Y-96484671D01*
X123561863Y-96314404D01*
X123465890Y-96161664D01*
X123338336Y-96034110D01*
X123185597Y-95938137D01*
X123015328Y-95878557D01*
X123015323Y-95878556D01*
X122836078Y-95858361D01*
X122836070Y-95858361D01*
X122656824Y-95878556D01*
X122656819Y-95878557D01*
X122486550Y-95938137D01*
X122333811Y-96034110D01*
X122206258Y-96161663D01*
X122110285Y-96314402D01*
X122050705Y-96484671D01*
X122050704Y-96484676D01*
X122030509Y-96663922D01*
X122030509Y-96663929D01*
X122050704Y-96843175D01*
X122050705Y-96843180D01*
X122110285Y-97013449D01*
X122175314Y-97116941D01*
X122206258Y-97166188D01*
X122333812Y-97293742D01*
X122424154Y-97350508D01*
X122483311Y-97387679D01*
X122486552Y-97389715D01*
X122566455Y-97417673D01*
X122623230Y-97458394D01*
X122648978Y-97523347D01*
X122649500Y-97534715D01*
X122649500Y-105402216D01*
X122629815Y-105469255D01*
X122577011Y-105515010D01*
X122507853Y-105524954D01*
X122459528Y-105507210D01*
X122315065Y-105416438D01*
X122144793Y-105356858D01*
X122057874Y-105347065D01*
X121993460Y-105319998D01*
X121984077Y-105311526D01*
X120310906Y-103638355D01*
X120310904Y-103638352D01*
X120192033Y-103519481D01*
X120192032Y-103519480D01*
X120105220Y-103469360D01*
X120105220Y-103469359D01*
X120105216Y-103469358D01*
X120055101Y-103440423D01*
X119902373Y-103399499D01*
X119744259Y-103399499D01*
X119736663Y-103399499D01*
X119736647Y-103399500D01*
X109724500Y-103399500D01*
X109657461Y-103379815D01*
X109611706Y-103327011D01*
X109600500Y-103275500D01*
X109600500Y-102573713D01*
X109598580Y-102561592D01*
X109567246Y-102363757D01*
X109501557Y-102161588D01*
X109405051Y-101972184D01*
X109405049Y-101972181D01*
X109405048Y-101972179D01*
X109280109Y-101800213D01*
X109129786Y-101649890D01*
X108957820Y-101524951D01*
X108768414Y-101428444D01*
X108768413Y-101428443D01*
X108768412Y-101428443D01*
X108566243Y-101362754D01*
X108566241Y-101362753D01*
X108566240Y-101362753D01*
X108401177Y-101336610D01*
X108356287Y-101329500D01*
X108143713Y-101329500D01*
X108098823Y-101336610D01*
X107933760Y-101362753D01*
X107731585Y-101428444D01*
X107542179Y-101524951D01*
X107370215Y-101649889D01*
X107231035Y-101789069D01*
X107169712Y-101822553D01*
X107100020Y-101817569D01*
X107044087Y-101775697D01*
X107037815Y-101766484D01*
X106942315Y-101611654D01*
X106818345Y-101487684D01*
X106669124Y-101395643D01*
X106669119Y-101395641D01*
X106502697Y-101340494D01*
X106502690Y-101340493D01*
X106399986Y-101330000D01*
X106000000Y-101330000D01*
X106000000Y-102381517D01*
X105981591Y-102370889D01*
X105828991Y-102330000D01*
X105671009Y-102330000D01*
X105518409Y-102370889D01*
X105500000Y-102381517D01*
X105500000Y-101330000D01*
X105100028Y-101330000D01*
X105100012Y-101330001D01*
X104997302Y-101340494D01*
X104830880Y-101395641D01*
X104830875Y-101395643D01*
X104681654Y-101487684D01*
X104557684Y-101611654D01*
X104465643Y-101760875D01*
X104465641Y-101760880D01*
X104410494Y-101927302D01*
X104410493Y-101927309D01*
X104400000Y-102030013D01*
X104400000Y-102680000D01*
X105201518Y-102680000D01*
X105190889Y-102698409D01*
X105150000Y-102851009D01*
X105150000Y-103008991D01*
X105190889Y-103161591D01*
X105201518Y-103180000D01*
X104400001Y-103180000D01*
X104400001Y-103829986D01*
X104410494Y-103932697D01*
X104465641Y-104099119D01*
X104465643Y-104099124D01*
X104557684Y-104248345D01*
X104681654Y-104372315D01*
X104830875Y-104464356D01*
X104830880Y-104464358D01*
X104997302Y-104519505D01*
X104997309Y-104519506D01*
X105100019Y-104529999D01*
X105499999Y-104529999D01*
X105500000Y-104529998D01*
X105500000Y-103478482D01*
X105518409Y-103489111D01*
X105671009Y-103530000D01*
X105828991Y-103530000D01*
X105981591Y-103489111D01*
X106000000Y-103478482D01*
X106000000Y-104529999D01*
X106399972Y-104529999D01*
X106399986Y-104529998D01*
X106502697Y-104519505D01*
X106669119Y-104464358D01*
X106669124Y-104464356D01*
X106818345Y-104372315D01*
X106942317Y-104248343D01*
X107037815Y-104093516D01*
X107089763Y-104046791D01*
X107158725Y-104035568D01*
X107222808Y-104063412D01*
X107231035Y-104070931D01*
X107370213Y-104210109D01*
X107542182Y-104335050D01*
X107542184Y-104335051D01*
X107637563Y-104383648D01*
X107688358Y-104431622D01*
X107705154Y-104499443D01*
X107682617Y-104565578D01*
X107668949Y-104581814D01*
X107231465Y-105019298D01*
X107170142Y-105052783D01*
X107157668Y-105054837D01*
X107070750Y-105064630D01*
X106900478Y-105124210D01*
X106747737Y-105220184D01*
X106620184Y-105347737D01*
X106524211Y-105500476D01*
X106464631Y-105670745D01*
X106464630Y-105670750D01*
X106444435Y-105849996D01*
X106444435Y-105850003D01*
X106464630Y-106029249D01*
X106464633Y-106029262D01*
X106483978Y-106084545D01*
X106487540Y-106154324D01*
X106452812Y-106214951D01*
X106390818Y-106247179D01*
X106366937Y-106249500D01*
X92828783Y-106249500D01*
X92828767Y-106249499D01*
X92821171Y-106249499D01*
X92663057Y-106249499D01*
X92548511Y-106280192D01*
X92510328Y-106290423D01*
X92495396Y-106299045D01*
X92495393Y-106299046D01*
X92373404Y-106369475D01*
X92373396Y-106369481D01*
X90769481Y-107973396D01*
X90769480Y-107973398D01*
X90724965Y-108050501D01*
X90690423Y-108110329D01*
X90649499Y-108263057D01*
X90649499Y-108263059D01*
X90649499Y-108431160D01*
X90649500Y-108431173D01*
X90649500Y-108685001D01*
X90649499Y-108685019D01*
X90649499Y-108850725D01*
X90649498Y-108850725D01*
X73750500Y-108850725D01*
X73750500Y-106163389D01*
X79469500Y-106163389D01*
X79469500Y-106336610D01*
X79492462Y-106481591D01*
X79496598Y-106507701D01*
X79550127Y-106672445D01*
X79628768Y-106826788D01*
X79730586Y-106966928D01*
X79853072Y-107089414D01*
X79993212Y-107191232D01*
X80147555Y-107269873D01*
X80312299Y-107323402D01*
X80483389Y-107350500D01*
X80483390Y-107350500D01*
X80656610Y-107350500D01*
X80656611Y-107350500D01*
X80827701Y-107323402D01*
X80992445Y-107269873D01*
X81146788Y-107191232D01*
X81286928Y-107089414D01*
X81409414Y-106966928D01*
X81511232Y-106826788D01*
X81589873Y-106672445D01*
X81643402Y-106507701D01*
X81670500Y-106336611D01*
X81670500Y-106163389D01*
X81643402Y-105992299D01*
X81589873Y-105827555D01*
X81511232Y-105673212D01*
X81409414Y-105533072D01*
X81286928Y-105410586D01*
X81146788Y-105308768D01*
X80992445Y-105230127D01*
X80827701Y-105176598D01*
X80827699Y-105176597D01*
X80827698Y-105176597D01*
X80696271Y-105155781D01*
X80656611Y-105149500D01*
X80483389Y-105149500D01*
X80443728Y-105155781D01*
X80312302Y-105176597D01*
X80147552Y-105230128D01*
X79993211Y-105308768D01*
X79935773Y-105350500D01*
X79853072Y-105410586D01*
X79853070Y-105410588D01*
X79853069Y-105410588D01*
X79730588Y-105533069D01*
X79730588Y-105533070D01*
X79730586Y-105533072D01*
X79700004Y-105575165D01*
X79628768Y-105673211D01*
X79550128Y-105827552D01*
X79496597Y-105992302D01*
X79469500Y-106163389D01*
X73750500Y-106163389D01*
X73750500Y-101163389D01*
X79469500Y-101163389D01*
X79469500Y-101336611D01*
X79473641Y-101362754D01*
X79493427Y-101487684D01*
X79496598Y-101507701D01*
X79546922Y-101662582D01*
X79550128Y-101672447D01*
X79586829Y-101744478D01*
X79628768Y-101826788D01*
X79730586Y-101966928D01*
X79853072Y-102089414D01*
X79993212Y-102191232D01*
X80147555Y-102269873D01*
X80312299Y-102323402D01*
X80483389Y-102350500D01*
X80483390Y-102350500D01*
X80656610Y-102350500D01*
X80656611Y-102350500D01*
X80827701Y-102323402D01*
X80992445Y-102269873D01*
X81146788Y-102191232D01*
X81286928Y-102089414D01*
X81409414Y-101966928D01*
X81511232Y-101826788D01*
X81589873Y-101672445D01*
X81643402Y-101507701D01*
X81670500Y-101336611D01*
X81670500Y-101163389D01*
X81667384Y-101143713D01*
X86149500Y-101143713D01*
X86149500Y-101356286D01*
X86176213Y-101524949D01*
X86182754Y-101566243D01*
X86246548Y-101762581D01*
X86248444Y-101768414D01*
X86344951Y-101957820D01*
X86469890Y-102129786D01*
X86620209Y-102280105D01*
X86620214Y-102280109D01*
X86784793Y-102399682D01*
X86827459Y-102455011D01*
X86833438Y-102524625D01*
X86800833Y-102586420D01*
X86784793Y-102600318D01*
X86620214Y-102719890D01*
X86620209Y-102719894D01*
X86469890Y-102870213D01*
X86344951Y-103042179D01*
X86248444Y-103231585D01*
X86182753Y-103433760D01*
X86156439Y-103599903D01*
X86149500Y-103643713D01*
X86149500Y-103856287D01*
X86159534Y-103919644D01*
X86182305Y-104063412D01*
X86182754Y-104066243D01*
X86241922Y-104248343D01*
X86248444Y-104268414D01*
X86344951Y-104457820D01*
X86469890Y-104629786D01*
X86609068Y-104768964D01*
X86642553Y-104830287D01*
X86637569Y-104899979D01*
X86595697Y-104955912D01*
X86586484Y-104962183D01*
X86431659Y-105057680D01*
X86431655Y-105057683D01*
X86307684Y-105181654D01*
X86215643Y-105330875D01*
X86215641Y-105330880D01*
X86160494Y-105497302D01*
X86160493Y-105497309D01*
X86150000Y-105600013D01*
X86150000Y-106000000D01*
X87201518Y-106000000D01*
X87190889Y-106018409D01*
X87150000Y-106171009D01*
X87150000Y-106328991D01*
X87190889Y-106481591D01*
X87201518Y-106500000D01*
X86150001Y-106500000D01*
X86150001Y-106899986D01*
X86160494Y-107002697D01*
X86215641Y-107169119D01*
X86215643Y-107169124D01*
X86307684Y-107318345D01*
X86431654Y-107442315D01*
X86580875Y-107534356D01*
X86580880Y-107534358D01*
X86747302Y-107589505D01*
X86747309Y-107589506D01*
X86850019Y-107599999D01*
X87499999Y-107599999D01*
X87500000Y-107599998D01*
X87500000Y-106798482D01*
X87518409Y-106809111D01*
X87671009Y-106850000D01*
X87828991Y-106850000D01*
X87981591Y-106809111D01*
X88000000Y-106798482D01*
X88000000Y-107599999D01*
X88649972Y-107599999D01*
X88649986Y-107599998D01*
X88752697Y-107589505D01*
X88919119Y-107534358D01*
X88919124Y-107534356D01*
X89068345Y-107442315D01*
X89192315Y-107318345D01*
X89284356Y-107169124D01*
X89284358Y-107169119D01*
X89339505Y-107002697D01*
X89339506Y-107002690D01*
X89349999Y-106899986D01*
X89350000Y-106899973D01*
X89350000Y-106500000D01*
X88298482Y-106500000D01*
X88309111Y-106481591D01*
X88350000Y-106328991D01*
X88350000Y-106171009D01*
X88309111Y-106018409D01*
X88298482Y-106000000D01*
X89349999Y-106000000D01*
X89349999Y-105600028D01*
X89349998Y-105600013D01*
X89339505Y-105497302D01*
X89284358Y-105330880D01*
X89284356Y-105330875D01*
X89192315Y-105181654D01*
X89068345Y-105057684D01*
X88913515Y-104962184D01*
X88866791Y-104910236D01*
X88855568Y-104841273D01*
X88883412Y-104777191D01*
X88890909Y-104768986D01*
X89030104Y-104629792D01*
X89155051Y-104457816D01*
X89251557Y-104268412D01*
X89317246Y-104066243D01*
X89350500Y-103856287D01*
X89350500Y-103643713D01*
X89317246Y-103433757D01*
X89251557Y-103231588D01*
X89155051Y-103042184D01*
X89155049Y-103042181D01*
X89155048Y-103042179D01*
X89030109Y-102870213D01*
X88879792Y-102719896D01*
X88850217Y-102698409D01*
X88715204Y-102600316D01*
X88672540Y-102544989D01*
X88666561Y-102475376D01*
X88699166Y-102413580D01*
X88715199Y-102399686D01*
X88879792Y-102280104D01*
X89030104Y-102129792D01*
X89030106Y-102129788D01*
X89030109Y-102129786D01*
X89102597Y-102030013D01*
X93650000Y-102030013D01*
X93650000Y-102680000D01*
X94451518Y-102680000D01*
X94440889Y-102698409D01*
X94400000Y-102851009D01*
X94400000Y-103008991D01*
X94440889Y-103161591D01*
X94451518Y-103180000D01*
X93650001Y-103180000D01*
X93650001Y-103829986D01*
X93660494Y-103932697D01*
X93715641Y-104099119D01*
X93715643Y-104099124D01*
X93807684Y-104248345D01*
X93931654Y-104372315D01*
X94080875Y-104464356D01*
X94080880Y-104464358D01*
X94247302Y-104519505D01*
X94247309Y-104519506D01*
X94350019Y-104529999D01*
X94749999Y-104529999D01*
X94750000Y-104529998D01*
X94750000Y-103478482D01*
X94768409Y-103489111D01*
X94921009Y-103530000D01*
X95078991Y-103530000D01*
X95231591Y-103489111D01*
X95250000Y-103478482D01*
X95250000Y-104529999D01*
X95649972Y-104529999D01*
X95649986Y-104529998D01*
X95752697Y-104519505D01*
X95919119Y-104464358D01*
X95919124Y-104464356D01*
X96068345Y-104372315D01*
X96192317Y-104248343D01*
X96287815Y-104093516D01*
X96339763Y-104046791D01*
X96408725Y-104035568D01*
X96472808Y-104063412D01*
X96481035Y-104070931D01*
X96620213Y-104210109D01*
X96792179Y-104335048D01*
X96792181Y-104335049D01*
X96792184Y-104335051D01*
X96981588Y-104431557D01*
X97183757Y-104497246D01*
X97393713Y-104530500D01*
X97393714Y-104530500D01*
X97606286Y-104530500D01*
X97606287Y-104530500D01*
X97816243Y-104497246D01*
X98018412Y-104431557D01*
X98207816Y-104335051D01*
X98299119Y-104268716D01*
X98379786Y-104210109D01*
X98379788Y-104210106D01*
X98379792Y-104210104D01*
X98530104Y-104059792D01*
X98530106Y-104059788D01*
X98530109Y-104059786D01*
X98655048Y-103887820D01*
X98655047Y-103887820D01*
X98655051Y-103887816D01*
X98751557Y-103698412D01*
X98817246Y-103496243D01*
X98850500Y-103286287D01*
X98850500Y-102573713D01*
X98817246Y-102363757D01*
X98751557Y-102161588D01*
X98655051Y-101972184D01*
X98655049Y-101972181D01*
X98655048Y-101972179D01*
X98530109Y-101800213D01*
X98379786Y-101649890D01*
X98207820Y-101524951D01*
X98018414Y-101428444D01*
X98018413Y-101428443D01*
X98018412Y-101428443D01*
X97816243Y-101362754D01*
X97816241Y-101362753D01*
X97816240Y-101362753D01*
X97651177Y-101336610D01*
X97606287Y-101329500D01*
X97393713Y-101329500D01*
X97348823Y-101336610D01*
X97183760Y-101362753D01*
X96981585Y-101428444D01*
X96792179Y-101524951D01*
X96620215Y-101649889D01*
X96481035Y-101789069D01*
X96419712Y-101822553D01*
X96350020Y-101817569D01*
X96294087Y-101775697D01*
X96287815Y-101766484D01*
X96192315Y-101611654D01*
X96068345Y-101487684D01*
X95919124Y-101395643D01*
X95919119Y-101395641D01*
X95752697Y-101340494D01*
X95752690Y-101340493D01*
X95649986Y-101330000D01*
X95250000Y-101330000D01*
X95250000Y-102381517D01*
X95231591Y-102370889D01*
X95078991Y-102330000D01*
X94921009Y-102330000D01*
X94768409Y-102370889D01*
X94750000Y-102381517D01*
X94750000Y-101330000D01*
X94350028Y-101330000D01*
X94350012Y-101330001D01*
X94247302Y-101340494D01*
X94080880Y-101395641D01*
X94080875Y-101395643D01*
X93931654Y-101487684D01*
X93807684Y-101611654D01*
X93715643Y-101760875D01*
X93715641Y-101760880D01*
X93660494Y-101927302D01*
X93660493Y-101927309D01*
X93650000Y-102030013D01*
X89102597Y-102030013D01*
X89155048Y-101957820D01*
X89155047Y-101957820D01*
X89155051Y-101957816D01*
X89251557Y-101768412D01*
X89317246Y-101566243D01*
X89350500Y-101356287D01*
X89350500Y-101143713D01*
X89317246Y-100933757D01*
X89251557Y-100731588D01*
X89155051Y-100542184D01*
X89155049Y-100542181D01*
X89155048Y-100542179D01*
X89030109Y-100370213D01*
X88879786Y-100219890D01*
X88707820Y-100094951D01*
X88518414Y-99998444D01*
X88518413Y-99998443D01*
X88518412Y-99998443D01*
X88316243Y-99932754D01*
X88316241Y-99932753D01*
X88316240Y-99932753D01*
X88154957Y-99907208D01*
X88106287Y-99899500D01*
X87393713Y-99899500D01*
X87345042Y-99907208D01*
X87183760Y-99932753D01*
X86981585Y-99998444D01*
X86792179Y-100094951D01*
X86620213Y-100219890D01*
X86469890Y-100370213D01*
X86344951Y-100542179D01*
X86248444Y-100731585D01*
X86182753Y-100933760D01*
X86149500Y-101143713D01*
X81667384Y-101143713D01*
X81643402Y-100992299D01*
X81589873Y-100827555D01*
X81511232Y-100673212D01*
X81409414Y-100533072D01*
X81286928Y-100410586D01*
X81146788Y-100308768D01*
X80992445Y-100230127D01*
X80827701Y-100176598D01*
X80827699Y-100176597D01*
X80827698Y-100176597D01*
X80696271Y-100155781D01*
X80656611Y-100149500D01*
X80483389Y-100149500D01*
X80443728Y-100155781D01*
X80312302Y-100176597D01*
X80147552Y-100230128D01*
X79993211Y-100308768D01*
X79853069Y-100410588D01*
X79730588Y-100533069D01*
X79730588Y-100533070D01*
X79730586Y-100533072D01*
X79723966Y-100542184D01*
X79628768Y-100673211D01*
X79550128Y-100827552D01*
X79496597Y-100992302D01*
X79475244Y-101127123D01*
X79469500Y-101163389D01*
X73750500Y-101163389D01*
X73750500Y-95249992D01*
X76474671Y-95249992D01*
X76474671Y-95250007D01*
X76493964Y-95544363D01*
X76493965Y-95544373D01*
X76493966Y-95544380D01*
X76549531Y-95823730D01*
X76551518Y-95833716D01*
X76551521Y-95833730D01*
X76646349Y-96113080D01*
X76776825Y-96377660D01*
X76776829Y-96377667D01*
X76940725Y-96622955D01*
X77135241Y-96844758D01*
X77357044Y-97039274D01*
X77548049Y-97166899D01*
X77602335Y-97203172D01*
X77866923Y-97333652D01*
X78146278Y-97428481D01*
X78435620Y-97486034D01*
X78463888Y-97487886D01*
X78729993Y-97505329D01*
X78730000Y-97505329D01*
X78730007Y-97505329D01*
X78965675Y-97489881D01*
X79024380Y-97486034D01*
X79313722Y-97428481D01*
X79593077Y-97333652D01*
X79857665Y-97203172D01*
X80102957Y-97039273D01*
X80324758Y-96844758D01*
X80519273Y-96622957D01*
X80683172Y-96377665D01*
X80813652Y-96113077D01*
X80908481Y-95833722D01*
X80942362Y-95663389D01*
X93899500Y-95663389D01*
X93899500Y-95836611D01*
X93926598Y-96007701D01*
X93980127Y-96172445D01*
X94058768Y-96326788D01*
X94160586Y-96466928D01*
X94283072Y-96589414D01*
X94423212Y-96691232D01*
X94577555Y-96769873D01*
X94742299Y-96823402D01*
X94913389Y-96850500D01*
X94913390Y-96850500D01*
X95086610Y-96850500D01*
X95086611Y-96850500D01*
X95257701Y-96823402D01*
X95422445Y-96769873D01*
X95576788Y-96691232D01*
X95716928Y-96589414D01*
X95839414Y-96466928D01*
X95941232Y-96326788D01*
X96019873Y-96172445D01*
X96073402Y-96007701D01*
X96100500Y-95836611D01*
X96100500Y-95663389D01*
X96399500Y-95663389D01*
X96399500Y-95836611D01*
X96426598Y-96007701D01*
X96480127Y-96172445D01*
X96558768Y-96326788D01*
X96660586Y-96466928D01*
X96783072Y-96589414D01*
X96923212Y-96691232D01*
X97077555Y-96769873D01*
X97242299Y-96823402D01*
X97413389Y-96850500D01*
X97413390Y-96850500D01*
X97586610Y-96850500D01*
X97586611Y-96850500D01*
X97757701Y-96823402D01*
X97922445Y-96769873D01*
X98076788Y-96691232D01*
X98216928Y-96589414D01*
X98339414Y-96466928D01*
X98441232Y-96326788D01*
X98519873Y-96172445D01*
X98573402Y-96007701D01*
X98600500Y-95836611D01*
X98600500Y-95663389D01*
X104649500Y-95663389D01*
X104649500Y-95836611D01*
X104676598Y-96007701D01*
X104730127Y-96172445D01*
X104808768Y-96326788D01*
X104910586Y-96466928D01*
X105033072Y-96589414D01*
X105173212Y-96691232D01*
X105327555Y-96769873D01*
X105492299Y-96823402D01*
X105663389Y-96850500D01*
X105663390Y-96850500D01*
X105836610Y-96850500D01*
X105836611Y-96850500D01*
X106007701Y-96823402D01*
X106172445Y-96769873D01*
X106326788Y-96691232D01*
X106466928Y-96589414D01*
X106589414Y-96466928D01*
X106691232Y-96326788D01*
X106769873Y-96172445D01*
X106823402Y-96007701D01*
X106850500Y-95836611D01*
X106850500Y-95663389D01*
X107149500Y-95663389D01*
X107149500Y-95836611D01*
X107176598Y-96007701D01*
X107230127Y-96172445D01*
X107308768Y-96326788D01*
X107410586Y-96466928D01*
X107533072Y-96589414D01*
X107673212Y-96691232D01*
X107827555Y-96769873D01*
X107992299Y-96823402D01*
X108163389Y-96850500D01*
X108163390Y-96850500D01*
X108336610Y-96850500D01*
X108336611Y-96850500D01*
X108507701Y-96823402D01*
X108672445Y-96769873D01*
X108826788Y-96691232D01*
X108966928Y-96589414D01*
X109089414Y-96466928D01*
X109191232Y-96326788D01*
X109269873Y-96172445D01*
X109323402Y-96007701D01*
X109350500Y-95836611D01*
X109350500Y-95663389D01*
X109323402Y-95492299D01*
X109269873Y-95327555D01*
X109225258Y-95239992D01*
X206014671Y-95239992D01*
X206014671Y-95240007D01*
X206033964Y-95534363D01*
X206033965Y-95534373D01*
X206033966Y-95534380D01*
X206087696Y-95804504D01*
X206091518Y-95823716D01*
X206091521Y-95823730D01*
X206186349Y-96103080D01*
X206316825Y-96367660D01*
X206316829Y-96367667D01*
X206480725Y-96612955D01*
X206675241Y-96834758D01*
X206897044Y-97029274D01*
X207101951Y-97166188D01*
X207142335Y-97193172D01*
X207406923Y-97323652D01*
X207588089Y-97385150D01*
X207680589Y-97416550D01*
X207686278Y-97418481D01*
X207975620Y-97476034D01*
X208003888Y-97477886D01*
X208269993Y-97495329D01*
X208270000Y-97495329D01*
X208270007Y-97495329D01*
X208505675Y-97479881D01*
X208564380Y-97476034D01*
X208853722Y-97418481D01*
X209133077Y-97323652D01*
X209397665Y-97193172D01*
X209642957Y-97029273D01*
X209864758Y-96834758D01*
X210059273Y-96612957D01*
X210223172Y-96367665D01*
X210353652Y-96103077D01*
X210448481Y-95823722D01*
X210506034Y-95534380D01*
X210511108Y-95456973D01*
X210525329Y-95240007D01*
X210525329Y-95239992D01*
X210506035Y-94945636D01*
X210506034Y-94945620D01*
X210448481Y-94656278D01*
X210353652Y-94376923D01*
X210223172Y-94112336D01*
X210059273Y-93867043D01*
X210016655Y-93818447D01*
X209864758Y-93645241D01*
X209642955Y-93450725D01*
X209397667Y-93286829D01*
X209397660Y-93286825D01*
X209133080Y-93156349D01*
X208853730Y-93061521D01*
X208853724Y-93061519D01*
X208853722Y-93061519D01*
X208564380Y-93003966D01*
X208564373Y-93003965D01*
X208564363Y-93003964D01*
X208270007Y-92984671D01*
X208269993Y-92984671D01*
X207975636Y-93003964D01*
X207975624Y-93003965D01*
X207975620Y-93003966D01*
X207975612Y-93003967D01*
X207975609Y-93003968D01*
X207686283Y-93061518D01*
X207686269Y-93061521D01*
X207406919Y-93156349D01*
X207142334Y-93286828D01*
X206897041Y-93450728D01*
X206675241Y-93645241D01*
X206480728Y-93867041D01*
X206316828Y-94112334D01*
X206186349Y-94376919D01*
X206091521Y-94656269D01*
X206091518Y-94656283D01*
X206033968Y-94945609D01*
X206033964Y-94945636D01*
X206014671Y-95239992D01*
X109225258Y-95239992D01*
X109191232Y-95173212D01*
X109089414Y-95033072D01*
X108966928Y-94910586D01*
X108826788Y-94808768D01*
X108672445Y-94730127D01*
X108507701Y-94676598D01*
X108507699Y-94676597D01*
X108507698Y-94676597D01*
X108376271Y-94655781D01*
X108336611Y-94649500D01*
X108163389Y-94649500D01*
X108123728Y-94655781D01*
X107992302Y-94676597D01*
X107827552Y-94730128D01*
X107673211Y-94808768D01*
X107593256Y-94866859D01*
X107533072Y-94910586D01*
X107533070Y-94910588D01*
X107533069Y-94910588D01*
X107410588Y-95033069D01*
X107410588Y-95033070D01*
X107410586Y-95033072D01*
X107366859Y-95093256D01*
X107308768Y-95173211D01*
X107230128Y-95327552D01*
X107176597Y-95492302D01*
X107152141Y-95646716D01*
X107149500Y-95663389D01*
X106850500Y-95663389D01*
X106823402Y-95492299D01*
X106769873Y-95327555D01*
X106691232Y-95173212D01*
X106589414Y-95033072D01*
X106466928Y-94910586D01*
X106326788Y-94808768D01*
X106172445Y-94730127D01*
X106007701Y-94676598D01*
X106007699Y-94676597D01*
X106007698Y-94676597D01*
X105876271Y-94655781D01*
X105836611Y-94649500D01*
X105663389Y-94649500D01*
X105623728Y-94655781D01*
X105492302Y-94676597D01*
X105327552Y-94730128D01*
X105173211Y-94808768D01*
X105093256Y-94866859D01*
X105033072Y-94910586D01*
X105033070Y-94910588D01*
X105033069Y-94910588D01*
X104910588Y-95033069D01*
X104910588Y-95033070D01*
X104910586Y-95033072D01*
X104866859Y-95093256D01*
X104808768Y-95173211D01*
X104730128Y-95327552D01*
X104676597Y-95492302D01*
X104652141Y-95646716D01*
X104649500Y-95663389D01*
X98600500Y-95663389D01*
X98573402Y-95492299D01*
X98519873Y-95327555D01*
X98441232Y-95173212D01*
X98339414Y-95033072D01*
X98216928Y-94910586D01*
X98076788Y-94808768D01*
X97922445Y-94730127D01*
X97757701Y-94676598D01*
X97757699Y-94676597D01*
X97757698Y-94676597D01*
X97626271Y-94655781D01*
X97586611Y-94649500D01*
X97413389Y-94649500D01*
X97373728Y-94655781D01*
X97242302Y-94676597D01*
X97077552Y-94730128D01*
X96923211Y-94808768D01*
X96843256Y-94866859D01*
X96783072Y-94910586D01*
X96783070Y-94910588D01*
X96783069Y-94910588D01*
X96660588Y-95033069D01*
X96660588Y-95033070D01*
X96660586Y-95033072D01*
X96616859Y-95093256D01*
X96558768Y-95173211D01*
X96480128Y-95327552D01*
X96426597Y-95492302D01*
X96402141Y-95646716D01*
X96399500Y-95663389D01*
X96100500Y-95663389D01*
X96073402Y-95492299D01*
X96019873Y-95327555D01*
X95941232Y-95173212D01*
X95839414Y-95033072D01*
X95716928Y-94910586D01*
X95576788Y-94808768D01*
X95422445Y-94730127D01*
X95257701Y-94676598D01*
X95257699Y-94676597D01*
X95257698Y-94676597D01*
X95126271Y-94655781D01*
X95086611Y-94649500D01*
X94913389Y-94649500D01*
X94873728Y-94655781D01*
X94742302Y-94676597D01*
X94577552Y-94730128D01*
X94423211Y-94808768D01*
X94343256Y-94866859D01*
X94283072Y-94910586D01*
X94283070Y-94910588D01*
X94283069Y-94910588D01*
X94160588Y-95033069D01*
X94160588Y-95033070D01*
X94160586Y-95033072D01*
X94116859Y-95093256D01*
X94058768Y-95173211D01*
X93980128Y-95327552D01*
X93926597Y-95492302D01*
X93902141Y-95646716D01*
X93899500Y-95663389D01*
X80942362Y-95663389D01*
X80966034Y-95544380D01*
X80985329Y-95250000D01*
X80985329Y-95249992D01*
X80966035Y-94955636D01*
X80966034Y-94955620D01*
X80908481Y-94666278D01*
X80813652Y-94386923D01*
X80683172Y-94122336D01*
X80676490Y-94112336D01*
X80595082Y-93990500D01*
X80519273Y-93877043D01*
X80476655Y-93828447D01*
X80324758Y-93655241D01*
X80102955Y-93460725D01*
X79857667Y-93296829D01*
X79857660Y-93296825D01*
X79593080Y-93166349D01*
X79313730Y-93071521D01*
X79313724Y-93071519D01*
X79313722Y-93071519D01*
X79024380Y-93013966D01*
X79024373Y-93013965D01*
X79024363Y-93013964D01*
X78730007Y-92994671D01*
X78729993Y-92994671D01*
X78435636Y-93013964D01*
X78435624Y-93013965D01*
X78435620Y-93013966D01*
X78435612Y-93013967D01*
X78435609Y-93013968D01*
X78146283Y-93071518D01*
X78146269Y-93071521D01*
X77866919Y-93166349D01*
X77602334Y-93296828D01*
X77357041Y-93460728D01*
X77135241Y-93655241D01*
X76940728Y-93877041D01*
X76776828Y-94122334D01*
X76646349Y-94386919D01*
X76551521Y-94666269D01*
X76551518Y-94666283D01*
X76493968Y-94955609D01*
X76493964Y-94955636D01*
X76474671Y-95249992D01*
X73750500Y-95249992D01*
X73750500Y-91374500D01*
X73770185Y-91307461D01*
X73822989Y-91261706D01*
X73874500Y-91250500D01*
X212625500Y-91250500D01*
X212692539Y-91270185D01*
G37*
%TD.AperFunction*%
%TD*%
M02*
