%TF.GenerationSoftware,KiCad,Pcbnew,8.0.9-8.0.9-0~ubuntu25.04.1*%
%TF.CreationDate,2025-05-05T12:51:32-07:00*%
%TF.ProjectId,TSSI,54535349-2e6b-4696-9361-645f70636258,3*%
%TF.SameCoordinates,Original*%
%TF.FileFunction,Copper,L2,Bot*%
%TF.FilePolarity,Positive*%
%FSLAX46Y46*%
G04 Gerber Fmt 4.6, Leading zero omitted, Abs format (unit mm)*
G04 Created by KiCad (PCBNEW 8.0.9-8.0.9-0~ubuntu25.04.1) date 2025-05-05 12:51:32*
%MOMM*%
%LPD*%
G01*
G04 APERTURE LIST*
G04 Aperture macros list*
%AMRoundRect*
0 Rectangle with rounded corners*
0 $1 Rounding radius*
0 $2 $3 $4 $5 $6 $7 $8 $9 X,Y pos of 4 corners*
0 Add a 4 corners polygon primitive as box body*
4,1,4,$2,$3,$4,$5,$6,$7,$8,$9,$2,$3,0*
0 Add four circle primitives for the rounded corners*
1,1,$1+$1,$2,$3*
1,1,$1+$1,$4,$5*
1,1,$1+$1,$6,$7*
1,1,$1+$1,$8,$9*
0 Add four rect primitives between the rounded corners*
20,1,$1+$1,$2,$3,$4,$5,0*
20,1,$1+$1,$4,$5,$6,$7,0*
20,1,$1+$1,$6,$7,$8,$9,0*
20,1,$1+$1,$8,$9,$2,$3,0*%
G04 Aperture macros list end*
%TA.AperFunction,ComponentPad*%
%ADD10RoundRect,0.250000X0.850000X0.600000X-0.850000X0.600000X-0.850000X-0.600000X0.850000X-0.600000X0*%
%TD*%
%TA.AperFunction,ComponentPad*%
%ADD11O,2.200000X1.700000*%
%TD*%
%TA.AperFunction,ComponentPad*%
%ADD12RoundRect,0.250000X0.600000X-0.850000X0.600000X0.850000X-0.600000X0.850000X-0.600000X-0.850000X0*%
%TD*%
%TA.AperFunction,ComponentPad*%
%ADD13O,1.700000X2.200000*%
%TD*%
%TA.AperFunction,SMDPad,CuDef*%
%ADD14R,0.750000X1.150000*%
%TD*%
%TA.AperFunction,SMDPad,CuDef*%
%ADD15RoundRect,0.250000X-0.450000X0.350000X-0.450000X-0.350000X0.450000X-0.350000X0.450000X0.350000X0*%
%TD*%
%TA.AperFunction,ViaPad*%
%ADD16C,0.600000*%
%TD*%
%TA.AperFunction,Conductor*%
%ADD17C,0.200000*%
%TD*%
G04 APERTURE END LIST*
D10*
%TO.P,J3,1,Pin_1*%
%TO.N,GND*%
X87750000Y-106250000D03*
D11*
%TO.P,J3,2,Pin_2*%
%TO.N,/RTML_5V*%
X87750000Y-103750000D03*
%TO.P,J3,3,Pin_3*%
%TO.N,/RTDS_SIGNAL*%
X87750000Y-101250000D03*
%TD*%
D12*
%TO.P,J4,1,Pin_1*%
%TO.N,/RTML_12V*%
X95000000Y-102930000D03*
D13*
%TO.P,J4,2,Pin_2*%
%TO.N,+12V*%
X97500000Y-102930000D03*
%TD*%
D10*
%TO.P,J1,1,Pin_1*%
%TO.N,GND*%
X87890000Y-120000000D03*
D11*
%TO.P,J1,2,Pin_2*%
%TO.N,+12V*%
X87890000Y-117500000D03*
%TO.P,J1,3,Pin_3*%
%TO.N,/BMS_STATUS*%
X87890000Y-115000000D03*
%TO.P,J1,4,Pin_4*%
%TO.N,/IMD_STATUS*%
X87890000Y-112500000D03*
%TD*%
D12*
%TO.P,J2,1,Pin_1*%
%TO.N,/RTML_12V*%
X105750000Y-102930000D03*
D13*
%TO.P,J2,2,Pin_2*%
%TO.N,+12V*%
X108250000Y-102930000D03*
%TD*%
D14*
%TO.P,D57,1,K*%
%TO.N,/RED_LIGHTS*%
X138050000Y-114850000D03*
%TO.P,D57,2,K*%
X139500000Y-114850000D03*
%TO.P,D57,3,K*%
X139500000Y-118000000D03*
%TO.P,D57,4,A*%
%TO.N,Net-(D57-A)*%
X138050000Y-118000000D03*
%TD*%
%TO.P,D33,1,K*%
%TO.N,/GREEN_LIGHTS*%
X185950000Y-114850000D03*
%TO.P,D33,2,K*%
X187400000Y-114850000D03*
%TO.P,D33,3,K*%
X187400000Y-118000000D03*
%TO.P,D33,4,A*%
%TO.N,Net-(D33-A)*%
X185950000Y-118000000D03*
%TD*%
%TO.P,D56,1,K*%
%TO.N,Net-(D57-A)*%
X138050000Y-107350000D03*
%TO.P,D56,2,K*%
X139500000Y-107350000D03*
%TO.P,D56,3,K*%
X139500000Y-110500000D03*
%TO.P,D56,4,A*%
%TO.N,Net-(D56-A)*%
X138050000Y-110500000D03*
%TD*%
%TO.P,D50,1,K*%
%TO.N,Net-(D51-A)*%
X148700000Y-107350000D03*
%TO.P,D50,2,K*%
X150150000Y-107350000D03*
%TO.P,D50,3,K*%
X150150000Y-110500000D03*
%TO.P,D50,4,A*%
%TO.N,Net-(D50-A)*%
X148700000Y-110500000D03*
%TD*%
%TO.P,D54,1,K*%
%TO.N,/RED_LIGHTS*%
X143350000Y-114850000D03*
%TO.P,D54,2,K*%
X144800000Y-114850000D03*
%TO.P,D54,3,K*%
X144800000Y-118000000D03*
%TO.P,D54,4,A*%
%TO.N,Net-(D54-A)*%
X143350000Y-118000000D03*
%TD*%
%TO.P,D55,1,K*%
%TO.N,Net-(D56-A)*%
X138050000Y-99850000D03*
%TO.P,D55,2,K*%
X139500000Y-99850000D03*
%TO.P,D55,3,K*%
X139500000Y-103000000D03*
%TO.P,D55,4,A*%
%TO.N,Net-(D55-A)*%
X138050000Y-103000000D03*
%TD*%
%TO.P,D31,1,K*%
%TO.N,Net-(D32-A)*%
X185950000Y-99850000D03*
%TO.P,D31,2,K*%
X187400000Y-99850000D03*
%TO.P,D31,3,K*%
X187400000Y-103000000D03*
%TO.P,D31,4,A*%
%TO.N,Net-(D31-A)*%
X185950000Y-103000000D03*
%TD*%
%TO.P,D36,1,K*%
%TO.N,/GREEN_LIGHTS*%
X180650000Y-114850000D03*
%TO.P,D36,2,K*%
X182100000Y-114850000D03*
%TO.P,D36,3,K*%
X182100000Y-118000000D03*
%TO.P,D36,4,A*%
%TO.N,Net-(D36-A)*%
X180650000Y-118000000D03*
%TD*%
%TO.P,D40,1,K*%
%TO.N,Net-(D41-A)*%
X170050000Y-99850000D03*
%TO.P,D40,2,K*%
X171500000Y-99850000D03*
%TO.P,D40,3,K*%
X171500000Y-103000000D03*
%TO.P,D40,4,A*%
%TO.N,Net-(D40-A)*%
X170050000Y-103000000D03*
%TD*%
%TO.P,D51,1,K*%
%TO.N,/RED_LIGHTS*%
X148700000Y-114850000D03*
%TO.P,D51,2,K*%
X150150000Y-114850000D03*
%TO.P,D51,3,K*%
X150150000Y-118000000D03*
%TO.P,D51,4,A*%
%TO.N,Net-(D51-A)*%
X148700000Y-118000000D03*
%TD*%
D15*
%TO.P,R15,1*%
%TO.N,+12V*%
X186600000Y-94000000D03*
%TO.P,R15,2*%
%TO.N,Net-(D31-A)*%
X186600000Y-96000000D03*
%TD*%
%TO.P,R23,1*%
%TO.N,+12V*%
X138800000Y-94100000D03*
%TO.P,R23,2*%
%TO.N,Net-(D55-A)*%
X138800000Y-96100000D03*
%TD*%
D14*
%TO.P,D38,1,K*%
%TO.N,Net-(D39-A)*%
X175350000Y-107350000D03*
%TO.P,D38,2,K*%
X176800000Y-107350000D03*
%TO.P,D38,3,K*%
X176800000Y-110500000D03*
%TO.P,D38,4,A*%
%TO.N,Net-(D38-A)*%
X175350000Y-110500000D03*
%TD*%
%TO.P,D58,1,K*%
%TO.N,Net-(D59-A)*%
X132750000Y-99850000D03*
%TO.P,D58,2,K*%
X134200000Y-99850000D03*
%TO.P,D58,3,K*%
X134200000Y-103000000D03*
%TO.P,D58,4,A*%
%TO.N,Net-(D58-A)*%
X132750000Y-103000000D03*
%TD*%
%TO.P,D42,1,K*%
%TO.N,/GREEN_LIGHTS*%
X170050000Y-114850000D03*
%TO.P,D42,2,K*%
X171500000Y-114850000D03*
%TO.P,D42,3,K*%
X171500000Y-118000000D03*
%TO.P,D42,4,A*%
%TO.N,Net-(D42-A)*%
X170050000Y-118000000D03*
%TD*%
%TO.P,D32,1,K*%
%TO.N,Net-(D33-A)*%
X185950000Y-107350000D03*
%TO.P,D32,2,K*%
X187400000Y-107350000D03*
%TO.P,D32,3,K*%
X187400000Y-110500000D03*
%TO.P,D32,4,A*%
%TO.N,Net-(D32-A)*%
X185950000Y-110500000D03*
%TD*%
D15*
%TO.P,R21,1*%
%TO.N,+12V*%
X149500000Y-94100000D03*
%TO.P,R21,2*%
%TO.N,Net-(D49-A)*%
X149500000Y-96100000D03*
%TD*%
D14*
%TO.P,D53,1,K*%
%TO.N,Net-(D54-A)*%
X143350000Y-107350000D03*
%TO.P,D53,2,K*%
X144800000Y-107350000D03*
%TO.P,D53,3,K*%
X144800000Y-110500000D03*
%TO.P,D53,4,A*%
%TO.N,Net-(D53-A)*%
X143350000Y-110500000D03*
%TD*%
%TO.P,D49,1,K*%
%TO.N,Net-(D50-A)*%
X148700000Y-99850000D03*
%TO.P,D49,2,K*%
X150150000Y-99850000D03*
%TO.P,D49,3,K*%
X150150000Y-103000000D03*
%TO.P,D49,4,A*%
%TO.N,Net-(D49-A)*%
X148700000Y-103000000D03*
%TD*%
%TO.P,D46,1,K*%
%TO.N,Net-(D47-A)*%
X154050000Y-99850000D03*
%TO.P,D46,2,K*%
X155500000Y-99850000D03*
%TO.P,D46,3,K*%
X155500000Y-103000000D03*
%TO.P,D46,4,A*%
%TO.N,Net-(D46-A)*%
X154050000Y-103000000D03*
%TD*%
D15*
%TO.P,R22,1*%
%TO.N,+12V*%
X144100000Y-94100000D03*
%TO.P,R22,2*%
%TO.N,Net-(D52-A)*%
X144100000Y-96100000D03*
%TD*%
D14*
%TO.P,D35,1,K*%
%TO.N,Net-(D36-A)*%
X180650000Y-107350000D03*
%TO.P,D35,2,K*%
X182100000Y-107350000D03*
%TO.P,D35,3,K*%
X182100000Y-110500000D03*
%TO.P,D35,4,A*%
%TO.N,Net-(D35-A)*%
X180650000Y-110500000D03*
%TD*%
%TO.P,D45,1,K*%
%TO.N,/GREEN_LIGHTS*%
X164700000Y-114850000D03*
%TO.P,D45,2,K*%
X166150000Y-114850000D03*
%TO.P,D45,3,K*%
X166150000Y-118000000D03*
%TO.P,D45,4,A*%
%TO.N,Net-(D45-A)*%
X164700000Y-118000000D03*
%TD*%
%TO.P,D48,1,K*%
%TO.N,/RED_LIGHTS*%
X154050000Y-114850000D03*
%TO.P,D48,2,K*%
X155500000Y-114850000D03*
%TO.P,D48,3,K*%
X155500000Y-118000000D03*
%TO.P,D48,4,A*%
%TO.N,Net-(D48-A)*%
X154050000Y-118000000D03*
%TD*%
%TO.P,D60,1,K*%
%TO.N,/RED_LIGHTS*%
X132750000Y-114850000D03*
%TO.P,D60,2,K*%
X134200000Y-114850000D03*
%TO.P,D60,3,K*%
X134200000Y-118000000D03*
%TO.P,D60,4,A*%
%TO.N,Net-(D60-A)*%
X132750000Y-118000000D03*
%TD*%
%TO.P,D41,1,K*%
%TO.N,Net-(D42-A)*%
X170050000Y-107350000D03*
%TO.P,D41,2,K*%
X171500000Y-107350000D03*
%TO.P,D41,3,K*%
X171500000Y-110500000D03*
%TO.P,D41,4,A*%
%TO.N,Net-(D41-A)*%
X170050000Y-110500000D03*
%TD*%
%TO.P,D59,1,K*%
%TO.N,Net-(D60-A)*%
X132750000Y-107350000D03*
%TO.P,D59,2,K*%
X134200000Y-107350000D03*
%TO.P,D59,3,K*%
X134200000Y-110500000D03*
%TO.P,D59,4,A*%
%TO.N,Net-(D59-A)*%
X132750000Y-110500000D03*
%TD*%
D15*
%TO.P,R17,1*%
%TO.N,+12V*%
X176100000Y-94100000D03*
%TO.P,R17,2*%
%TO.N,Net-(D37-A)*%
X176100000Y-96100000D03*
%TD*%
%TO.P,R18,1*%
%TO.N,+12V*%
X170800000Y-94100000D03*
%TO.P,R18,2*%
%TO.N,Net-(D40-A)*%
X170800000Y-96100000D03*
%TD*%
%TO.P,R16,1*%
%TO.N,+12V*%
X181400000Y-94000000D03*
%TO.P,R16,2*%
%TO.N,Net-(D34-A)*%
X181400000Y-96000000D03*
%TD*%
D14*
%TO.P,D47,1,K*%
%TO.N,Net-(D48-A)*%
X154050000Y-107350000D03*
%TO.P,D47,2,K*%
X155500000Y-107350000D03*
%TO.P,D47,3,K*%
X155500000Y-110500000D03*
%TO.P,D47,4,A*%
%TO.N,Net-(D47-A)*%
X154050000Y-110500000D03*
%TD*%
%TO.P,D39,1,K*%
%TO.N,/GREEN_LIGHTS*%
X175350000Y-114850000D03*
%TO.P,D39,2,K*%
X176800000Y-114850000D03*
%TO.P,D39,3,K*%
X176800000Y-118000000D03*
%TO.P,D39,4,A*%
%TO.N,Net-(D39-A)*%
X175350000Y-118000000D03*
%TD*%
D15*
%TO.P,R19,1*%
%TO.N,+12V*%
X165400000Y-94100000D03*
%TO.P,R19,2*%
%TO.N,Net-(D43-A)*%
X165400000Y-96100000D03*
%TD*%
D14*
%TO.P,D34,1,K*%
%TO.N,Net-(D35-A)*%
X180650000Y-99850000D03*
%TO.P,D34,2,K*%
X182100000Y-99850000D03*
%TO.P,D34,3,K*%
X182100000Y-103000000D03*
%TO.P,D34,4,A*%
%TO.N,Net-(D34-A)*%
X180650000Y-103000000D03*
%TD*%
%TO.P,D43,1,K*%
%TO.N,Net-(D44-A)*%
X164650000Y-99850000D03*
%TO.P,D43,2,K*%
X166100000Y-99850000D03*
%TO.P,D43,3,K*%
X166100000Y-103000000D03*
%TO.P,D43,4,A*%
%TO.N,Net-(D43-A)*%
X164650000Y-103000000D03*
%TD*%
D15*
%TO.P,R24,1*%
%TO.N,+12V*%
X133500000Y-94100000D03*
%TO.P,R24,2*%
%TO.N,Net-(D58-A)*%
X133500000Y-96100000D03*
%TD*%
%TO.P,R20,1*%
%TO.N,+12V*%
X154800000Y-94100000D03*
%TO.P,R20,2*%
%TO.N,Net-(D46-A)*%
X154800000Y-96100000D03*
%TD*%
D14*
%TO.P,D44,1,K*%
%TO.N,Net-(D45-A)*%
X164650000Y-107350000D03*
%TO.P,D44,2,K*%
X166100000Y-107350000D03*
%TO.P,D44,3,K*%
X166100000Y-110500000D03*
%TO.P,D44,4,A*%
%TO.N,Net-(D44-A)*%
X164650000Y-110500000D03*
%TD*%
%TO.P,D37,1,K*%
%TO.N,Net-(D38-A)*%
X175350000Y-99850000D03*
%TO.P,D37,2,K*%
X176800000Y-99850000D03*
%TO.P,D37,3,K*%
X176800000Y-103000000D03*
%TO.P,D37,4,A*%
%TO.N,Net-(D37-A)*%
X175350000Y-103000000D03*
%TD*%
%TO.P,D52,1,K*%
%TO.N,Net-(D53-A)*%
X143350000Y-99850000D03*
%TO.P,D52,2,K*%
X144800000Y-99850000D03*
%TO.P,D52,3,K*%
X144800000Y-103000000D03*
%TO.P,D52,4,A*%
%TO.N,Net-(D52-A)*%
X143350000Y-103000000D03*
%TD*%
D16*
%TO.N,/RED_LIGHTS*%
X163150000Y-119550000D03*
%TO.N,/GREEN_LIGHTS*%
X151675000Y-120300000D03*
%TO.N,GND*%
X108500000Y-110114254D03*
X93500000Y-109000000D03*
X114046015Y-114690456D03*
%TO.N,Net-(U3-CV)*%
X100682943Y-109900000D03*
X97691723Y-116522394D03*
%TO.N,+12V*%
X92234906Y-109871194D03*
X109224265Y-104724265D03*
X124675945Y-98924057D03*
X121872574Y-106936808D03*
%TO.N,+5V*%
X96779555Y-116478314D03*
X122836074Y-96663926D03*
X116500000Y-110300000D03*
X114750000Y-108750000D03*
%TO.N,/FLASH_LEDS*%
X113523617Y-115296348D03*
X98759400Y-111522071D03*
%TO.N,/RTDS_BUZZER*%
X124500000Y-113500000D03*
X123850000Y-98901472D03*
%TO.N,/RTDS_SIGNAL*%
X106925000Y-106175000D03*
X121965544Y-106142228D03*
%TO.N,/RED_LIGHT_LOGIC*%
X96844682Y-117372412D03*
X95981800Y-116538235D03*
%TO.N,/GREEN_LIGHT_LOGIC*%
X108300000Y-113400000D03*
X115224265Y-115275735D03*
%TO.N,/IMD_STATUS*%
X111072431Y-110068547D03*
X92064807Y-108375836D03*
X118950000Y-108750000D03*
%TO.N,/BMS_STATUS*%
X119615682Y-109193701D03*
X112034510Y-110134509D03*
X92419680Y-109092822D03*
%TO.N,Net-(U3-DIS)*%
X101520000Y-112174051D03*
X101936397Y-113782132D03*
%TO.N,/RTML_12V*%
X111000000Y-108468547D03*
X102000000Y-105500000D03*
X102000000Y-104000000D03*
X109375000Y-107125000D03*
%TD*%
D17*
%TO.N,/RED_LIGHTS*%
X140600000Y-117100000D02*
X140600000Y-115950000D01*
X150150000Y-118000000D02*
X150150000Y-118200000D01*
X150300000Y-118100000D02*
X151300000Y-117100000D01*
X134300000Y-118100000D02*
X135300000Y-117100000D01*
X139600000Y-118100000D02*
X140600000Y-117100000D01*
X163100000Y-119600000D02*
X157300000Y-119600000D01*
X132850000Y-114950000D02*
X134300000Y-114950000D01*
X156600000Y-117100000D02*
X156600000Y-115950000D01*
X150150000Y-118200000D02*
X151550000Y-119600000D01*
X155600000Y-118100000D02*
X156600000Y-117100000D01*
X151550000Y-119600000D02*
X152300000Y-119600000D01*
X148850000Y-114950000D02*
X150300000Y-114950000D01*
X152300000Y-119600000D02*
X146800000Y-119600000D01*
X135300000Y-115950000D02*
X134300000Y-114950000D01*
X144800000Y-118000000D02*
X146400000Y-119600000D01*
X146800000Y-119600000D02*
X141100000Y-119600000D01*
X157300000Y-119600000D02*
X152300000Y-119600000D01*
X140600000Y-115950000D02*
X139600000Y-114950000D01*
X145900000Y-117100000D02*
X145900000Y-115950000D01*
X151300000Y-115950000D02*
X150300000Y-114950000D01*
X163150000Y-119550000D02*
X163100000Y-119600000D01*
X156600000Y-115950000D02*
X155600000Y-114950000D01*
X143450000Y-114950000D02*
X144900000Y-114950000D01*
X144900000Y-118100000D02*
X145900000Y-117100000D01*
X151300000Y-117100000D02*
X151300000Y-115950000D01*
X135800000Y-119600000D02*
X141100000Y-119600000D01*
X157100000Y-119600000D02*
X157300000Y-119600000D01*
X134200000Y-118000000D02*
X135800000Y-119600000D01*
X155500000Y-118000000D02*
X157100000Y-119600000D01*
X141100000Y-119600000D02*
X139500000Y-118000000D01*
X145900000Y-115950000D02*
X144900000Y-114950000D01*
X146400000Y-119600000D02*
X146800000Y-119600000D01*
X135300000Y-117100000D02*
X135300000Y-115950000D01*
X154150000Y-114950000D02*
X155600000Y-114950000D01*
X138150000Y-114950000D02*
X139600000Y-114950000D01*
%TO.N,/GREEN_LIGHTS*%
X164750000Y-114950000D02*
X166200000Y-114950000D01*
X187400000Y-118000000D02*
X184500000Y-120900000D01*
X180750000Y-114850000D02*
X182200000Y-114850000D01*
X176800000Y-118000000D02*
X173900000Y-120900000D01*
X188400000Y-115850000D02*
X187400000Y-114850000D01*
X177900000Y-115950000D02*
X176900000Y-114950000D01*
X172600000Y-115950000D02*
X171600000Y-114950000D01*
X152275000Y-120900000D02*
X163100000Y-120900000D01*
X184500000Y-120900000D02*
X178500000Y-120900000D01*
X173900000Y-120900000D02*
X172100000Y-120900000D01*
X182100000Y-118000000D02*
X179200000Y-120900000D01*
X170150000Y-114950000D02*
X171600000Y-114950000D01*
X182200000Y-118000000D02*
X183200000Y-117000000D01*
X166200000Y-118100000D02*
X167200000Y-117100000D01*
X167200000Y-117100000D02*
X167200000Y-115950000D01*
X176900000Y-118100000D02*
X177900000Y-117100000D01*
X151675000Y-120300000D02*
X152275000Y-120900000D01*
X172100000Y-120900000D02*
X167700000Y-120900000D01*
X167200000Y-115950000D02*
X166200000Y-114950000D01*
X167700000Y-120900000D02*
X163100000Y-120900000D01*
X178500000Y-120900000D02*
X172100000Y-120900000D01*
X168600000Y-120900000D02*
X167700000Y-120900000D01*
X188400000Y-117000000D02*
X188400000Y-115850000D01*
X183200000Y-117000000D02*
X183200000Y-115850000D01*
X175450000Y-114950000D02*
X176900000Y-114950000D01*
X187400000Y-118000000D02*
X188400000Y-117000000D01*
X183200000Y-115850000D02*
X182200000Y-114850000D01*
X172600000Y-117100000D02*
X172600000Y-115950000D01*
X166150000Y-118000000D02*
X163250000Y-120900000D01*
X185950000Y-114850000D02*
X187400000Y-114850000D01*
X171500000Y-118000000D02*
X168600000Y-120900000D01*
X177900000Y-117100000D02*
X177900000Y-115950000D01*
X171600000Y-118100000D02*
X172600000Y-117100000D01*
X179200000Y-120900000D02*
X178500000Y-120900000D01*
X163250000Y-120900000D02*
X163100000Y-120900000D01*
%TO.N,GND*%
X108500000Y-110434314D02*
X112565686Y-114500000D01*
X113855559Y-114500000D02*
X114046015Y-114690456D01*
X112565686Y-114500000D02*
X113855559Y-114500000D01*
X108500000Y-110114254D02*
X107685746Y-109300000D01*
X93800000Y-109300000D02*
X93500000Y-109000000D01*
X108500000Y-110114254D02*
X108500000Y-110434314D01*
X107685746Y-109300000D02*
X93800000Y-109300000D01*
%TO.N,Net-(U3-CV)*%
X99532942Y-109900000D02*
X97250000Y-112182942D01*
X100682943Y-109900000D02*
X99532942Y-109900000D01*
X97250000Y-116080671D02*
X97691723Y-116522394D01*
X97250000Y-112182942D02*
X97250000Y-116080671D01*
%TO.N,+12V*%
X107098530Y-106850000D02*
X92742114Y-106850000D01*
X92742114Y-106850000D02*
X91250000Y-108342114D01*
X129200000Y-94100000D02*
X133500000Y-94100000D01*
X121872574Y-106936808D02*
X121909382Y-106900000D01*
X119335766Y-104400000D02*
X121872574Y-106936808D01*
X91250000Y-108342114D02*
X91250000Y-108850000D01*
X91250000Y-108850000D02*
X92234906Y-109834906D01*
X133600000Y-94000000D02*
X133500000Y-94100000D01*
X124675945Y-98924057D02*
X124675945Y-98624055D01*
X92234906Y-109834906D02*
X92234906Y-109871194D01*
X186600000Y-94000000D02*
X133600000Y-94000000D01*
X124675945Y-98624055D02*
X129200000Y-94100000D01*
X121909382Y-106900000D02*
X122056301Y-106900000D01*
X109548530Y-104400000D02*
X119335766Y-104400000D01*
X109224265Y-104724265D02*
X109548530Y-104400000D01*
X109224265Y-104724265D02*
X107098530Y-106850000D01*
%TO.N,+5V*%
X119357912Y-110300000D02*
X123250000Y-106407912D01*
X116500000Y-110300000D02*
X116300000Y-110300000D01*
X116500000Y-110300000D02*
X119357912Y-110300000D01*
X118736721Y-110250000D02*
X118686721Y-110300000D01*
X123250000Y-97077852D02*
X122836074Y-96663926D01*
X96799114Y-116478314D02*
X96779555Y-116478314D01*
X116300000Y-110300000D02*
X114750000Y-108750000D01*
X118686721Y-110300000D02*
X116500000Y-110300000D01*
X123250000Y-106407912D02*
X123250000Y-97077852D01*
%TO.N,/FLASH_LEDS*%
X113127269Y-114900000D02*
X112400000Y-114900000D01*
X112400000Y-114900000D02*
X108000000Y-110500000D01*
X113523617Y-115296348D02*
X113127269Y-114900000D01*
X108000000Y-110500000D02*
X99781471Y-110500000D01*
X99781471Y-110500000D02*
X98759400Y-111522071D01*
%TO.N,/RTDS_BUZZER*%
X125000000Y-113000000D02*
X125000000Y-100096641D01*
X125000000Y-100096641D02*
X123850000Y-98946641D01*
X123850000Y-98946641D02*
X123850000Y-98901472D01*
X124500000Y-113500000D02*
X125000000Y-113000000D01*
%TO.N,/RTDS_SIGNAL*%
X119823316Y-104000000D02*
X121965544Y-106142228D01*
X106925000Y-106175000D02*
X109100000Y-104000000D01*
X109100000Y-104000000D02*
X119823316Y-104000000D01*
%TO.N,/RED_LIGHT_LOGIC*%
X96815977Y-117372412D02*
X95981800Y-116538235D01*
X96844682Y-117372412D02*
X96815977Y-117372412D01*
%TO.N,/GREEN_LIGHT_LOGIC*%
X115224265Y-115275735D02*
X114600000Y-115900000D01*
X114600000Y-115900000D02*
X110800000Y-115900000D01*
X110800000Y-115900000D02*
X108300000Y-113400000D01*
%TO.N,/IMD_STATUS*%
X117950000Y-107750000D02*
X113570489Y-107750000D01*
X110543471Y-110068547D02*
X107724924Y-107250000D01*
X113570489Y-107750000D02*
X111251942Y-110068547D01*
X111251942Y-110068547D02*
X111072431Y-110068547D01*
X107724924Y-107250000D02*
X93190643Y-107250000D01*
X111072431Y-110068547D02*
X110543471Y-110068547D01*
X93190643Y-107250000D02*
X92064807Y-108375836D01*
X118950000Y-108750000D02*
X117950000Y-107750000D01*
%TO.N,/BMS_STATUS*%
X93762502Y-107750000D02*
X92419680Y-109092822D01*
X119459383Y-109350000D02*
X119615682Y-109193701D01*
X114150000Y-108150000D02*
X117501471Y-108150000D01*
X111419019Y-110750000D02*
X110659238Y-110750000D01*
X110659238Y-110750000D02*
X107659238Y-107750000D01*
X112165491Y-110134509D02*
X114150000Y-108150000D01*
X112034510Y-110134509D02*
X111419019Y-110750000D01*
X117501471Y-108150000D02*
X118701471Y-109350000D01*
X112034510Y-110134509D02*
X112165491Y-110134509D01*
X107659238Y-107750000D02*
X93762502Y-107750000D01*
X118701471Y-109350000D02*
X119459383Y-109350000D01*
%TO.N,Net-(U3-DIS)*%
X101936397Y-112590448D02*
X101936397Y-113782132D01*
X101520000Y-112174051D02*
X101936397Y-112590448D01*
%TO.N,/RTML_12V*%
X101500000Y-105000000D02*
X102000000Y-105500000D01*
X109375000Y-107125000D02*
X109656453Y-107125000D01*
X109656453Y-107125000D02*
X111000000Y-108468547D01*
X101500000Y-104500000D02*
X101500000Y-105000000D01*
X102000000Y-104000000D02*
X101500000Y-104500000D01*
%TO.N,Net-(D32-A)*%
X187400000Y-103000000D02*
X188375000Y-102025000D01*
X188375000Y-102025000D02*
X188375000Y-100825000D01*
X184900000Y-105500000D02*
X184900000Y-109450000D01*
X187400000Y-103000000D02*
X184900000Y-105500000D01*
X184900000Y-109450000D02*
X185950000Y-110500000D01*
X185950000Y-99850000D02*
X187400000Y-99850000D01*
X188375000Y-100825000D02*
X187400000Y-99850000D01*
%TO.N,Net-(D31-A)*%
X184900000Y-97700000D02*
X184900000Y-102425000D01*
X186600000Y-96000000D02*
X184900000Y-97700000D01*
X185475000Y-103000000D02*
X185950000Y-103000000D01*
X186600000Y-96000000D02*
X186150000Y-96000000D01*
X184900000Y-102425000D02*
X185475000Y-103000000D01*
%TO.N,Net-(D33-A)*%
X187400000Y-110500000D02*
X188400000Y-109500000D01*
X184900000Y-116950000D02*
X185950000Y-118000000D01*
X184900000Y-113000000D02*
X184900000Y-116950000D01*
X188400000Y-108350000D02*
X187400000Y-107350000D01*
X185950000Y-107350000D02*
X187400000Y-107350000D01*
X187400000Y-110500000D02*
X184900000Y-113000000D01*
X188400000Y-109500000D02*
X188400000Y-108350000D01*
%TO.N,Net-(D35-A)*%
X183175000Y-100825000D02*
X182200000Y-99850000D01*
X180750000Y-99850000D02*
X182200000Y-99850000D01*
X183175000Y-102025000D02*
X183175000Y-100825000D01*
X179700000Y-105500000D02*
X179700000Y-109450000D01*
X182200000Y-103000000D02*
X179700000Y-105500000D01*
X182200000Y-103000000D02*
X183175000Y-102025000D01*
X179700000Y-109450000D02*
X180750000Y-110500000D01*
%TO.N,Net-(D34-A)*%
X181400000Y-96000000D02*
X180950000Y-96000000D01*
X180275000Y-103000000D02*
X180750000Y-103000000D01*
X181400000Y-96000000D02*
X179700000Y-97700000D01*
X179700000Y-102425000D02*
X180275000Y-103000000D01*
X179700000Y-97700000D02*
X179700000Y-102425000D01*
%TO.N,Net-(D36-A)*%
X180750000Y-107350000D02*
X182200000Y-107350000D01*
X182200000Y-110500000D02*
X183200000Y-109500000D01*
X179700000Y-113000000D02*
X179700000Y-116950000D01*
X182200000Y-110500000D02*
X179700000Y-113000000D01*
X183200000Y-108350000D02*
X182200000Y-107350000D01*
X179700000Y-116950000D02*
X180750000Y-118000000D01*
X183200000Y-109500000D02*
X183200000Y-108350000D01*
%TO.N,Net-(D38-A)*%
X174400000Y-105600000D02*
X174400000Y-109550000D01*
X176900000Y-103100000D02*
X174400000Y-105600000D01*
X177875000Y-102125000D02*
X177875000Y-100925000D01*
X174400000Y-109550000D02*
X175450000Y-110600000D01*
X177875000Y-100925000D02*
X176900000Y-99950000D01*
X176900000Y-103100000D02*
X177875000Y-102125000D01*
X175450000Y-99950000D02*
X176900000Y-99950000D01*
%TO.N,Net-(D37-A)*%
X176100000Y-96100000D02*
X175650000Y-96100000D01*
X176100000Y-96100000D02*
X174400000Y-97800000D01*
X174975000Y-103100000D02*
X175450000Y-103100000D01*
X174400000Y-102525000D02*
X174975000Y-103100000D01*
X174400000Y-97800000D02*
X174400000Y-102525000D01*
%TO.N,Net-(D39-A)*%
X177900000Y-108450000D02*
X176900000Y-107450000D01*
X174400000Y-117050000D02*
X175450000Y-118100000D01*
X175450000Y-107450000D02*
X176900000Y-107450000D01*
X174400000Y-113100000D02*
X174400000Y-117050000D01*
X176900000Y-110600000D02*
X177900000Y-109600000D01*
X176900000Y-110600000D02*
X174400000Y-113100000D01*
X177900000Y-109600000D02*
X177900000Y-108450000D01*
%TO.N,Net-(D41-A)*%
X170150000Y-99950000D02*
X171600000Y-99950000D01*
X172575000Y-102125000D02*
X172575000Y-100925000D01*
X169100000Y-109550000D02*
X170150000Y-110600000D01*
X169100000Y-105550000D02*
X169100000Y-109500000D01*
X171600000Y-103050000D02*
X169100000Y-105550000D01*
X171600000Y-103100000D02*
X172575000Y-102125000D01*
X172575000Y-100925000D02*
X171600000Y-99950000D01*
%TO.N,Net-(D40-A)*%
X170800000Y-96100000D02*
X169100000Y-97800000D01*
X169100000Y-102525000D02*
X169675000Y-103100000D01*
X169675000Y-103100000D02*
X170150000Y-103100000D01*
X169100000Y-97800000D02*
X169100000Y-102525000D01*
X170800000Y-96100000D02*
X170350000Y-96100000D01*
%TO.N,Net-(D42-A)*%
X172600000Y-108450000D02*
X171600000Y-107450000D01*
X169100000Y-117050000D02*
X170150000Y-118100000D01*
X171600000Y-110600000D02*
X172600000Y-109600000D01*
X172600000Y-109600000D02*
X172600000Y-108450000D01*
X171600000Y-110600000D02*
X169100000Y-113100000D01*
X169100000Y-113100000D02*
X169100000Y-117050000D01*
X170150000Y-107450000D02*
X171600000Y-107450000D01*
%TO.N,Net-(D44-A)*%
X167175000Y-102125000D02*
X167175000Y-100925000D01*
X164750000Y-99950000D02*
X166200000Y-99950000D01*
X166200000Y-103100000D02*
X167175000Y-102125000D01*
X163700000Y-109550000D02*
X164750000Y-110600000D01*
X166200000Y-103100000D02*
X163700000Y-105600000D01*
X167175000Y-100925000D02*
X166200000Y-99950000D01*
X163700000Y-105600000D02*
X163700000Y-109550000D01*
%TO.N,Net-(D43-A)*%
X163700000Y-102525000D02*
X164275000Y-103100000D01*
X165400000Y-96100000D02*
X164950000Y-96100000D01*
X165400000Y-96100000D02*
X163700000Y-97800000D01*
X164275000Y-103100000D02*
X164750000Y-103100000D01*
X163700000Y-97800000D02*
X163700000Y-102525000D01*
%TO.N,Net-(D45-A)*%
X163700000Y-113100000D02*
X163700000Y-117050000D01*
X166200000Y-110600000D02*
X167200000Y-109600000D01*
X163700000Y-117050000D02*
X164750000Y-118100000D01*
X167200000Y-109600000D02*
X167200000Y-108450000D01*
X167200000Y-108450000D02*
X166200000Y-107450000D01*
X166200000Y-110600000D02*
X163700000Y-113100000D01*
X164750000Y-107450000D02*
X166200000Y-107450000D01*
%TO.N,Net-(D47-A)*%
X153100000Y-105600000D02*
X153100000Y-109550000D01*
X155600000Y-103100000D02*
X153100000Y-105600000D01*
X155600000Y-103100000D02*
X156575000Y-102125000D01*
X156575000Y-100925000D02*
X155600000Y-99950000D01*
X154150000Y-99950000D02*
X155600000Y-99950000D01*
X156575000Y-102125000D02*
X156575000Y-100925000D01*
X153100000Y-109550000D02*
X154150000Y-110600000D01*
%TO.N,Net-(D46-A)*%
X153675000Y-103100000D02*
X154150000Y-103100000D01*
X153100000Y-102525000D02*
X153675000Y-103100000D01*
X154700000Y-96100000D02*
X153100000Y-97700000D01*
X154800000Y-96100000D02*
X154350000Y-96100000D01*
X153100000Y-97700000D02*
X153100000Y-102525000D01*
%TO.N,Net-(D48-A)*%
X153100000Y-113100000D02*
X153100000Y-117050000D01*
X154150000Y-107450000D02*
X155600000Y-107450000D01*
X153100000Y-117050000D02*
X154150000Y-118100000D01*
X155600000Y-110600000D02*
X153100000Y-113100000D01*
X156600000Y-108450000D02*
X155600000Y-107450000D01*
X156600000Y-109600000D02*
X156600000Y-108450000D01*
X155600000Y-110600000D02*
X156600000Y-109600000D01*
%TO.N,Net-(D49-A)*%
X147800000Y-102525000D02*
X148375000Y-103100000D01*
X149500000Y-96100000D02*
X147800000Y-97800000D01*
X148375000Y-103100000D02*
X148850000Y-103100000D01*
X149500000Y-96100000D02*
X149050000Y-96100000D01*
X147800000Y-97800000D02*
X147800000Y-102525000D01*
%TO.N,Net-(D50-A)*%
X151275000Y-100925000D02*
X150300000Y-99950000D01*
X150300000Y-103100000D02*
X147800000Y-105600000D01*
X151275000Y-102125000D02*
X151275000Y-100925000D01*
X147800000Y-105600000D02*
X147800000Y-109550000D01*
X150300000Y-103100000D02*
X151275000Y-102125000D01*
X147800000Y-109550000D02*
X148850000Y-110600000D01*
X148850000Y-99950000D02*
X150300000Y-99950000D01*
%TO.N,Net-(D51-A)*%
X151300000Y-108450000D02*
X150300000Y-107450000D01*
X151300000Y-109600000D02*
X151300000Y-108450000D01*
X150300000Y-110600000D02*
X151300000Y-109600000D01*
X148850000Y-107450000D02*
X150300000Y-107450000D01*
X150300000Y-110600000D02*
X147800000Y-113100000D01*
X147800000Y-117050000D02*
X148850000Y-118100000D01*
X147800000Y-113100000D02*
X147800000Y-117050000D01*
%TO.N,Net-(D53-A)*%
X142400000Y-105600000D02*
X142400000Y-109550000D01*
X144900000Y-103100000D02*
X145875000Y-102125000D01*
X145875000Y-102125000D02*
X145875000Y-100925000D01*
X144900000Y-103100000D02*
X142400000Y-105600000D01*
X142400000Y-109550000D02*
X143450000Y-110600000D01*
X145875000Y-100925000D02*
X144900000Y-99950000D01*
X143450000Y-99950000D02*
X144900000Y-99950000D01*
%TO.N,Net-(D52-A)*%
X144100000Y-96100000D02*
X142400000Y-97800000D01*
X142400000Y-102525000D02*
X142975000Y-103100000D01*
X142975000Y-103100000D02*
X143450000Y-103100000D01*
X144100000Y-96100000D02*
X143650000Y-96100000D01*
X142400000Y-97800000D02*
X142400000Y-102525000D01*
%TO.N,Net-(D54-A)*%
X145900000Y-109600000D02*
X145900000Y-108450000D01*
X142400000Y-117050000D02*
X143450000Y-118100000D01*
X142400000Y-113100000D02*
X142400000Y-117050000D01*
X143450000Y-107450000D02*
X144900000Y-107450000D01*
X144900000Y-110600000D02*
X145900000Y-109600000D01*
X145900000Y-108450000D02*
X144900000Y-107450000D01*
X144900000Y-110600000D02*
X142400000Y-113100000D01*
%TO.N,Net-(D55-A)*%
X137675000Y-103100000D02*
X138150000Y-103100000D01*
X138800000Y-96100000D02*
X137100000Y-97800000D01*
X137100000Y-97800000D02*
X137100000Y-102525000D01*
X137100000Y-102525000D02*
X137675000Y-103100000D01*
X138800000Y-96100000D02*
X138350000Y-96100000D01*
%TO.N,Net-(D56-A)*%
X139600000Y-103100000D02*
X137100000Y-105600000D01*
X137100000Y-105600000D02*
X137100000Y-109550000D01*
X138150000Y-99950000D02*
X139600000Y-99950000D01*
X139600000Y-103100000D02*
X140575000Y-102125000D01*
X137100000Y-109550000D02*
X138150000Y-110600000D01*
X140575000Y-100925000D02*
X139600000Y-99950000D01*
X140575000Y-102125000D02*
X140575000Y-100925000D01*
%TO.N,Net-(D57-A)*%
X140600000Y-108450000D02*
X140600000Y-109600000D01*
X137100000Y-117050000D02*
X138150000Y-118100000D01*
X140600000Y-109600000D02*
X137100000Y-113100000D01*
X139600000Y-107450000D02*
X140600000Y-108450000D01*
X138150000Y-107450000D02*
X139600000Y-107450000D01*
X137100000Y-113100000D02*
X137100000Y-117050000D01*
%TO.N,Net-(D59-A)*%
X135275000Y-100925000D02*
X134200000Y-99850000D01*
X132750000Y-99850000D02*
X134200000Y-99850000D01*
X131800000Y-109550000D02*
X131800000Y-105600000D01*
X132850000Y-110600000D02*
X131800000Y-109550000D01*
X131800000Y-105600000D02*
X135275000Y-102125000D01*
X135275000Y-102125000D02*
X135275000Y-100925000D01*
%TO.N,Net-(D58-A)*%
X133500000Y-96100000D02*
X133050000Y-96100000D01*
X131800000Y-97800000D02*
X131800000Y-102525000D01*
X131800000Y-102525000D02*
X132375000Y-103100000D01*
X133500000Y-96100000D02*
X131800000Y-97800000D01*
X132375000Y-103100000D02*
X132850000Y-103100000D01*
%TO.N,Net-(D60-A)*%
X131800000Y-117050000D02*
X132850000Y-118100000D01*
X132850000Y-107450000D02*
X134300000Y-107450000D01*
X135300000Y-109600000D02*
X135300000Y-108450000D01*
X134300000Y-110600000D02*
X131800000Y-113100000D01*
X134300000Y-110600000D02*
X135300000Y-109600000D01*
X135300000Y-108450000D02*
X134300000Y-107450000D01*
X131800000Y-113100000D02*
X131800000Y-117050000D01*
%TD*%
%TA.AperFunction,Conductor*%
%TO.N,GND*%
G36*
X212692539Y-91270185D02*
G01*
X212738294Y-91322989D01*
X212749500Y-91374500D01*
X212749500Y-122625500D01*
X212729815Y-122692539D01*
X212677011Y-122738294D01*
X212625500Y-122749500D01*
X73874500Y-122749500D01*
X73807461Y-122729815D01*
X73761706Y-122677011D01*
X73750500Y-122625500D01*
X73750500Y-119913389D01*
X79609500Y-119913389D01*
X79609500Y-120086610D01*
X79632462Y-120231591D01*
X79636598Y-120257701D01*
X79690127Y-120422445D01*
X79768768Y-120576788D01*
X79870586Y-120716928D01*
X79993072Y-120839414D01*
X80133212Y-120941232D01*
X80287555Y-121019873D01*
X80452299Y-121073402D01*
X80623389Y-121100500D01*
X80623390Y-121100500D01*
X80796610Y-121100500D01*
X80796611Y-121100500D01*
X80967701Y-121073402D01*
X81132445Y-121019873D01*
X81286788Y-120941232D01*
X81426928Y-120839414D01*
X81549414Y-120716928D01*
X81651232Y-120576788D01*
X81729873Y-120422445D01*
X81783402Y-120257701D01*
X81810500Y-120086611D01*
X81810500Y-119913389D01*
X81783402Y-119742299D01*
X81729873Y-119577555D01*
X81651232Y-119423212D01*
X81549414Y-119283072D01*
X81426928Y-119160586D01*
X81286788Y-119058768D01*
X81132445Y-118980127D01*
X80967701Y-118926598D01*
X80967699Y-118926597D01*
X80967698Y-118926597D01*
X80836271Y-118905781D01*
X80796611Y-118899500D01*
X80623389Y-118899500D01*
X80583728Y-118905781D01*
X80452302Y-118926597D01*
X80287552Y-118980128D01*
X80133211Y-119058768D01*
X80083091Y-119095183D01*
X79993072Y-119160586D01*
X79993070Y-119160588D01*
X79993069Y-119160588D01*
X79870588Y-119283069D01*
X79870588Y-119283070D01*
X79870586Y-119283072D01*
X79826859Y-119343256D01*
X79768768Y-119423211D01*
X79690128Y-119577552D01*
X79636597Y-119742302D01*
X79609500Y-119913389D01*
X73750500Y-119913389D01*
X73750500Y-112413389D01*
X79609500Y-112413389D01*
X79609500Y-112586610D01*
X79632413Y-112731282D01*
X79636598Y-112757701D01*
X79689637Y-112920938D01*
X79690128Y-112922447D01*
X79768768Y-113076788D01*
X79870586Y-113216928D01*
X79993072Y-113339414D01*
X80133212Y-113441232D01*
X80287555Y-113519873D01*
X80452299Y-113573402D01*
X80623389Y-113600500D01*
X80623390Y-113600500D01*
X80796610Y-113600500D01*
X80796611Y-113600500D01*
X80967701Y-113573402D01*
X81132445Y-113519873D01*
X81286788Y-113441232D01*
X81426928Y-113339414D01*
X81549414Y-113216928D01*
X81651232Y-113076788D01*
X81729873Y-112922445D01*
X81783402Y-112757701D01*
X81810500Y-112586611D01*
X81810500Y-112413389D01*
X81807384Y-112393713D01*
X86289500Y-112393713D01*
X86289500Y-112606287D01*
X86290822Y-112614631D01*
X86320793Y-112803867D01*
X86322754Y-112816243D01*
X86381725Y-112997737D01*
X86388444Y-113018414D01*
X86484951Y-113207820D01*
X86609890Y-113379786D01*
X86760209Y-113530105D01*
X86760214Y-113530109D01*
X86924793Y-113649682D01*
X86967459Y-113705011D01*
X86973438Y-113774625D01*
X86940833Y-113836420D01*
X86924793Y-113850318D01*
X86760214Y-113969890D01*
X86760209Y-113969894D01*
X86609890Y-114120213D01*
X86484951Y-114292179D01*
X86388444Y-114481585D01*
X86322753Y-114683760D01*
X86289500Y-114893713D01*
X86289500Y-115106286D01*
X86316338Y-115275738D01*
X86322754Y-115316243D01*
X86376381Y-115481290D01*
X86388444Y-115518414D01*
X86484951Y-115707820D01*
X86609890Y-115879786D01*
X86760209Y-116030105D01*
X86760214Y-116030109D01*
X86924793Y-116149682D01*
X86967459Y-116205011D01*
X86973438Y-116274625D01*
X86940833Y-116336420D01*
X86924793Y-116350318D01*
X86760214Y-116469890D01*
X86760209Y-116469894D01*
X86609890Y-116620213D01*
X86484951Y-116792179D01*
X86388444Y-116981585D01*
X86322753Y-117183760D01*
X86298284Y-117338254D01*
X86289500Y-117393713D01*
X86289500Y-117606287D01*
X86322754Y-117816243D01*
X86386463Y-118012319D01*
X86388444Y-118018414D01*
X86484951Y-118207820D01*
X86609890Y-118379786D01*
X86749068Y-118518964D01*
X86782553Y-118580287D01*
X86777569Y-118649979D01*
X86735697Y-118705912D01*
X86726484Y-118712183D01*
X86571659Y-118807680D01*
X86571655Y-118807683D01*
X86447684Y-118931654D01*
X86355643Y-119080875D01*
X86355641Y-119080880D01*
X86300494Y-119247302D01*
X86300493Y-119247309D01*
X86290000Y-119350013D01*
X86290000Y-119750000D01*
X87341518Y-119750000D01*
X87330889Y-119768409D01*
X87290000Y-119921009D01*
X87290000Y-120078991D01*
X87330889Y-120231591D01*
X87341518Y-120250000D01*
X86290001Y-120250000D01*
X86290001Y-120649986D01*
X86300494Y-120752697D01*
X86355641Y-120919119D01*
X86355643Y-120919124D01*
X86447684Y-121068345D01*
X86571654Y-121192315D01*
X86720875Y-121284356D01*
X86720880Y-121284358D01*
X86887302Y-121339505D01*
X86887309Y-121339506D01*
X86990019Y-121349999D01*
X87639999Y-121349999D01*
X87640000Y-121349998D01*
X87640000Y-120548482D01*
X87658409Y-120559111D01*
X87811009Y-120600000D01*
X87968991Y-120600000D01*
X88121591Y-120559111D01*
X88140000Y-120548482D01*
X88140000Y-121349999D01*
X88789972Y-121349999D01*
X88789986Y-121349998D01*
X88892697Y-121339505D01*
X89059119Y-121284358D01*
X89059124Y-121284356D01*
X89208345Y-121192315D01*
X89332315Y-121068345D01*
X89424356Y-120919124D01*
X89424358Y-120919119D01*
X89479505Y-120752697D01*
X89479506Y-120752690D01*
X89489999Y-120649986D01*
X89490000Y-120649973D01*
X89490000Y-120250000D01*
X88438482Y-120250000D01*
X88449111Y-120231591D01*
X88490000Y-120078991D01*
X88490000Y-119921009D01*
X88449111Y-119768409D01*
X88438482Y-119750000D01*
X89489999Y-119750000D01*
X89489999Y-119350028D01*
X89489998Y-119350013D01*
X89479505Y-119247302D01*
X89424358Y-119080880D01*
X89424356Y-119080875D01*
X89332315Y-118931654D01*
X89208345Y-118807684D01*
X89053515Y-118712184D01*
X89006791Y-118660236D01*
X88995568Y-118591273D01*
X89023412Y-118527191D01*
X89030909Y-118518986D01*
X89170104Y-118379792D01*
X89295051Y-118207816D01*
X89391557Y-118018412D01*
X89457246Y-117816243D01*
X89490500Y-117606287D01*
X89490500Y-117393713D01*
X89457246Y-117183757D01*
X89391557Y-116981588D01*
X89295051Y-116792184D01*
X89295049Y-116792181D01*
X89295048Y-116792179D01*
X89170109Y-116620213D01*
X89088127Y-116538231D01*
X95176235Y-116538231D01*
X95176235Y-116538238D01*
X95196430Y-116717484D01*
X95196431Y-116717489D01*
X95256011Y-116887758D01*
X95336428Y-117015740D01*
X95351984Y-117040497D01*
X95479538Y-117168051D01*
X95632278Y-117264024D01*
X95802545Y-117323603D01*
X95889469Y-117333396D01*
X95953880Y-117360461D01*
X95963265Y-117368935D01*
X96017625Y-117423295D01*
X96051110Y-117484618D01*
X96053164Y-117497092D01*
X96059312Y-117551659D01*
X96059313Y-117551664D01*
X96118892Y-117721933D01*
X96178149Y-117816239D01*
X96214866Y-117874674D01*
X96342420Y-118002228D01*
X96416442Y-118048739D01*
X96477995Y-118087416D01*
X96495160Y-118098201D01*
X96606950Y-118137318D01*
X96665427Y-118157780D01*
X96665432Y-118157781D01*
X96844678Y-118177977D01*
X96844682Y-118177977D01*
X96844686Y-118177977D01*
X97023931Y-118157781D01*
X97023934Y-118157780D01*
X97023937Y-118157780D01*
X97194204Y-118098201D01*
X97346944Y-118002228D01*
X97474498Y-117874674D01*
X97570471Y-117721934D01*
X97630050Y-117551667D01*
X97643715Y-117430386D01*
X97670781Y-117365972D01*
X97728376Y-117326417D01*
X97753052Y-117321049D01*
X97870972Y-117307763D01*
X97870975Y-117307762D01*
X97870978Y-117307762D01*
X98041245Y-117248183D01*
X98193985Y-117152210D01*
X98321539Y-117024656D01*
X98417512Y-116871916D01*
X98477091Y-116701649D01*
X98477092Y-116701643D01*
X98497288Y-116522397D01*
X98497288Y-116522390D01*
X98477092Y-116343144D01*
X98477091Y-116343139D01*
X98417511Y-116172870D01*
X98354727Y-116072950D01*
X98321539Y-116020132D01*
X98193985Y-115892578D01*
X98077533Y-115819406D01*
X98041242Y-115796603D01*
X97933545Y-115758918D01*
X97876769Y-115718197D01*
X97851022Y-115653244D01*
X97850500Y-115641877D01*
X97850500Y-112483039D01*
X97870185Y-112416000D01*
X97886819Y-112395358D01*
X97974738Y-112307439D01*
X98109316Y-112172860D01*
X98170637Y-112139377D01*
X98240328Y-112144361D01*
X98262967Y-112155550D01*
X98409873Y-112247858D01*
X98409877Y-112247859D01*
X98409878Y-112247860D01*
X98450285Y-112261999D01*
X98580145Y-112307439D01*
X98580150Y-112307440D01*
X98759396Y-112327636D01*
X98759400Y-112327636D01*
X98759404Y-112327636D01*
X98938649Y-112307440D01*
X98938652Y-112307439D01*
X98938655Y-112307439D01*
X99108922Y-112247860D01*
X99226395Y-112174047D01*
X100714435Y-112174047D01*
X100714435Y-112174054D01*
X100734630Y-112353300D01*
X100734631Y-112353305D01*
X100794211Y-112523574D01*
X100851427Y-112614632D01*
X100890184Y-112676313D01*
X101017738Y-112803867D01*
X101108080Y-112860633D01*
X101167132Y-112897738D01*
X101170478Y-112899840D01*
X101252851Y-112928663D01*
X101309627Y-112969385D01*
X101335375Y-113034337D01*
X101335897Y-113045705D01*
X101335897Y-113199719D01*
X101316212Y-113266758D01*
X101308847Y-113277028D01*
X101306583Y-113279866D01*
X101210608Y-113432608D01*
X101151028Y-113602877D01*
X101151027Y-113602882D01*
X101130832Y-113782128D01*
X101130832Y-113782135D01*
X101151027Y-113961381D01*
X101151028Y-113961386D01*
X101210608Y-114131655D01*
X101267518Y-114222226D01*
X101306581Y-114284394D01*
X101434135Y-114411948D01*
X101446124Y-114419481D01*
X101576154Y-114501185D01*
X101586875Y-114507921D01*
X101706976Y-114549946D01*
X101757142Y-114567500D01*
X101757147Y-114567501D01*
X101936393Y-114587697D01*
X101936397Y-114587697D01*
X101936401Y-114587697D01*
X102115646Y-114567501D01*
X102115649Y-114567500D01*
X102115652Y-114567500D01*
X102285919Y-114507921D01*
X102438659Y-114411948D01*
X102566213Y-114284394D01*
X102662186Y-114131654D01*
X102721765Y-113961387D01*
X102726715Y-113917454D01*
X102741962Y-113782135D01*
X102741962Y-113782128D01*
X102721766Y-113602882D01*
X102721765Y-113602877D01*
X102696301Y-113530105D01*
X102662186Y-113432610D01*
X102566213Y-113279870D01*
X102566211Y-113279868D01*
X102566210Y-113279866D01*
X102563947Y-113277028D01*
X102563056Y-113274847D01*
X102562508Y-113273974D01*
X102562661Y-113273877D01*
X102537541Y-113212341D01*
X102536897Y-113199719D01*
X102536897Y-112511393D01*
X102536897Y-112511391D01*
X102510638Y-112413389D01*
X102495974Y-112358663D01*
X102467036Y-112308543D01*
X102416917Y-112221732D01*
X102350700Y-112155515D01*
X102317215Y-112094192D01*
X102315163Y-112081735D01*
X102305368Y-111994796D01*
X102245789Y-111824529D01*
X102149816Y-111671789D01*
X102022262Y-111544235D01*
X102003863Y-111532674D01*
X101869523Y-111448262D01*
X101699254Y-111388682D01*
X101699249Y-111388681D01*
X101520004Y-111368486D01*
X101519996Y-111368486D01*
X101340750Y-111388681D01*
X101340745Y-111388682D01*
X101170476Y-111448262D01*
X101017737Y-111544235D01*
X100890184Y-111671788D01*
X100794211Y-111824527D01*
X100734631Y-111994796D01*
X100734630Y-111994801D01*
X100714435Y-112174047D01*
X99226395Y-112174047D01*
X99261662Y-112151887D01*
X99389216Y-112024333D01*
X99485189Y-111871593D01*
X99544768Y-111701326D01*
X99554561Y-111614400D01*
X99581626Y-111549989D01*
X99590080Y-111540624D01*
X99993889Y-111136816D01*
X100055211Y-111103334D01*
X100081569Y-111100500D01*
X107699903Y-111100500D01*
X107766942Y-111120185D01*
X107787584Y-111136819D01*
X111738583Y-115087819D01*
X111772068Y-115149142D01*
X111767084Y-115218834D01*
X111725212Y-115274767D01*
X111659748Y-115299184D01*
X111650902Y-115299500D01*
X111100097Y-115299500D01*
X111033058Y-115279815D01*
X111012416Y-115263181D01*
X109130700Y-113381465D01*
X109097215Y-113320142D01*
X109095163Y-113307686D01*
X109085368Y-113220745D01*
X109025789Y-113050478D01*
X108929816Y-112897738D01*
X108802262Y-112770184D01*
X108799125Y-112768213D01*
X108649523Y-112674211D01*
X108479254Y-112614631D01*
X108479249Y-112614630D01*
X108300004Y-112594435D01*
X108299996Y-112594435D01*
X108120750Y-112614630D01*
X108120745Y-112614631D01*
X107950476Y-112674211D01*
X107797737Y-112770184D01*
X107670184Y-112897737D01*
X107574211Y-113050476D01*
X107514631Y-113220745D01*
X107514630Y-113220750D01*
X107494435Y-113399996D01*
X107494435Y-113400003D01*
X107514630Y-113579249D01*
X107514631Y-113579254D01*
X107574211Y-113749523D01*
X107637045Y-113849522D01*
X107670184Y-113902262D01*
X107797738Y-114029816D01*
X107950478Y-114125789D01*
X108120745Y-114185368D01*
X108207669Y-114195161D01*
X108272080Y-114222226D01*
X108281465Y-114230700D01*
X110315139Y-116264374D01*
X110315149Y-116264385D01*
X110319479Y-116268715D01*
X110319480Y-116268716D01*
X110431284Y-116380520D01*
X110431286Y-116380521D01*
X110431290Y-116380524D01*
X110481610Y-116409576D01*
X110481615Y-116409578D01*
X110568209Y-116459574D01*
X110568210Y-116459575D01*
X110568212Y-116459575D01*
X110568215Y-116459577D01*
X110720943Y-116500501D01*
X110720946Y-116500501D01*
X110886653Y-116500501D01*
X110886669Y-116500500D01*
X114513331Y-116500500D01*
X114513347Y-116500501D01*
X114520943Y-116500501D01*
X114679054Y-116500501D01*
X114679057Y-116500501D01*
X114831785Y-116459577D01*
X114918387Y-116409577D01*
X114968716Y-116380520D01*
X115080520Y-116268716D01*
X115080520Y-116268714D01*
X115090724Y-116258511D01*
X115090728Y-116258506D01*
X115242800Y-116106433D01*
X115304121Y-116072950D01*
X115316576Y-116070898D01*
X115403520Y-116061103D01*
X115573787Y-116001524D01*
X115726527Y-115905551D01*
X115854081Y-115777997D01*
X115950054Y-115625257D01*
X116009633Y-115454990D01*
X116025266Y-115316243D01*
X116029830Y-115275738D01*
X116029830Y-115275731D01*
X116009634Y-115096485D01*
X116009633Y-115096480D01*
X115990029Y-115040456D01*
X115950054Y-114926213D01*
X115934374Y-114901259D01*
X115867032Y-114794085D01*
X115854081Y-114773473D01*
X115726527Y-114645919D01*
X115573788Y-114549946D01*
X115403519Y-114490366D01*
X115403514Y-114490365D01*
X115224269Y-114470170D01*
X115224261Y-114470170D01*
X115045015Y-114490365D01*
X115045010Y-114490366D01*
X114874741Y-114549946D01*
X114722002Y-114645919D01*
X114594449Y-114773472D01*
X114498475Y-114926213D01*
X114487375Y-114957935D01*
X114446652Y-115014710D01*
X114381699Y-115040456D01*
X114313138Y-115026999D01*
X114262736Y-114978611D01*
X114253291Y-114957930D01*
X114249405Y-114946824D01*
X114153432Y-114794085D01*
X114025879Y-114666532D01*
X113873138Y-114570558D01*
X113702866Y-114510978D01*
X113615948Y-114501185D01*
X113551534Y-114474118D01*
X113542151Y-114465646D01*
X113495986Y-114419481D01*
X113495985Y-114419480D01*
X113409173Y-114369360D01*
X113409173Y-114369359D01*
X113409169Y-114369358D01*
X113359054Y-114340423D01*
X113206326Y-114299499D01*
X113048212Y-114299499D01*
X113040616Y-114299499D01*
X113040600Y-114299500D01*
X112700098Y-114299500D01*
X112633059Y-114279815D01*
X112612417Y-114263181D01*
X108487590Y-110138355D01*
X108487588Y-110138352D01*
X108368717Y-110019481D01*
X108368709Y-110019475D01*
X108280789Y-109968715D01*
X108280788Y-109968715D01*
X108260077Y-109956757D01*
X108231785Y-109940423D01*
X108079057Y-109899499D01*
X107920943Y-109899499D01*
X107913347Y-109899499D01*
X107913331Y-109899500D01*
X101599265Y-109899500D01*
X101532226Y-109879815D01*
X101486471Y-109827011D01*
X101476045Y-109789383D01*
X101468312Y-109720750D01*
X101468311Y-109720748D01*
X101468311Y-109720745D01*
X101408732Y-109550478D01*
X101312759Y-109397738D01*
X101185205Y-109270184D01*
X101159313Y-109253915D01*
X101032466Y-109174211D01*
X100862197Y-109114631D01*
X100862192Y-109114630D01*
X100682947Y-109094435D01*
X100682939Y-109094435D01*
X100503693Y-109114630D01*
X100503688Y-109114631D01*
X100333419Y-109174211D01*
X100180679Y-109270185D01*
X100177846Y-109272445D01*
X100175667Y-109273334D01*
X100174785Y-109273889D01*
X100174687Y-109273734D01*
X100113160Y-109298855D01*
X100100531Y-109299500D01*
X99619612Y-109299500D01*
X99619596Y-109299499D01*
X99612000Y-109299499D01*
X99453885Y-109299499D01*
X99377521Y-109319961D01*
X99301156Y-109340423D01*
X99301151Y-109340426D01*
X99164232Y-109419475D01*
X99164224Y-109419481D01*
X96769481Y-111814224D01*
X96769479Y-111814227D01*
X96725279Y-111890786D01*
X96725277Y-111890788D01*
X96690425Y-111951151D01*
X96690423Y-111951154D01*
X96678728Y-111994801D01*
X96649499Y-112103885D01*
X96649499Y-112103887D01*
X96649499Y-112271988D01*
X96649500Y-112272001D01*
X96649500Y-115587747D01*
X96629815Y-115654786D01*
X96577011Y-115700541D01*
X96566455Y-115704788D01*
X96430035Y-115752523D01*
X96384032Y-115781428D01*
X96316795Y-115800427D01*
X96277108Y-115793475D01*
X96161057Y-115752867D01*
X96161049Y-115752865D01*
X95981804Y-115732670D01*
X95981796Y-115732670D01*
X95802550Y-115752865D01*
X95802545Y-115752866D01*
X95632276Y-115812446D01*
X95479537Y-115908419D01*
X95351984Y-116035972D01*
X95256011Y-116188711D01*
X95196431Y-116358980D01*
X95196430Y-116358985D01*
X95176235Y-116538231D01*
X89088127Y-116538231D01*
X89019792Y-116469896D01*
X89005585Y-116459574D01*
X88855204Y-116350316D01*
X88812540Y-116294989D01*
X88806561Y-116225376D01*
X88839166Y-116163580D01*
X88855199Y-116149686D01*
X89019792Y-116030104D01*
X89170104Y-115879792D01*
X89170106Y-115879788D01*
X89170109Y-115879786D01*
X89295048Y-115707820D01*
X89295047Y-115707820D01*
X89295051Y-115707816D01*
X89391557Y-115518412D01*
X89457246Y-115316243D01*
X89490500Y-115106287D01*
X89490500Y-114893713D01*
X89457246Y-114683757D01*
X89391557Y-114481588D01*
X89295051Y-114292184D01*
X89295049Y-114292181D01*
X89295048Y-114292179D01*
X89170109Y-114120213D01*
X89019792Y-113969896D01*
X89008072Y-113961381D01*
X88855204Y-113850316D01*
X88812540Y-113794989D01*
X88806561Y-113725376D01*
X88839166Y-113663580D01*
X88855199Y-113649686D01*
X89019792Y-113530104D01*
X89170104Y-113379792D01*
X89170106Y-113379788D01*
X89170109Y-113379786D01*
X89295048Y-113207820D01*
X89295047Y-113207820D01*
X89295051Y-113207816D01*
X89391557Y-113018412D01*
X89457246Y-112816243D01*
X89490500Y-112606287D01*
X89490500Y-112393713D01*
X89457246Y-112183757D01*
X89391557Y-111981588D01*
X89295051Y-111792184D01*
X89295049Y-111792181D01*
X89295048Y-111792179D01*
X89170109Y-111620213D01*
X89019786Y-111469890D01*
X88847820Y-111344951D01*
X88658414Y-111248444D01*
X88658413Y-111248443D01*
X88658412Y-111248443D01*
X88456243Y-111182754D01*
X88456241Y-111182753D01*
X88456240Y-111182753D01*
X88294957Y-111157208D01*
X88246287Y-111149500D01*
X87533713Y-111149500D01*
X87485042Y-111157208D01*
X87323760Y-111182753D01*
X87121585Y-111248444D01*
X86932179Y-111344951D01*
X86760213Y-111469890D01*
X86609890Y-111620213D01*
X86484951Y-111792179D01*
X86388444Y-111981585D01*
X86322753Y-112183760D01*
X86295051Y-112358663D01*
X86289500Y-112393713D01*
X81807384Y-112393713D01*
X81783402Y-112242299D01*
X81729873Y-112077555D01*
X81651232Y-111923212D01*
X81549414Y-111783072D01*
X81426928Y-111660586D01*
X81286788Y-111558768D01*
X81132445Y-111480127D01*
X80967701Y-111426598D01*
X80967699Y-111426597D01*
X80967698Y-111426597D01*
X80836271Y-111405781D01*
X80796611Y-111399500D01*
X80623389Y-111399500D01*
X80583728Y-111405781D01*
X80452302Y-111426597D01*
X80287552Y-111480128D01*
X80133211Y-111558768D01*
X80110182Y-111575500D01*
X79993072Y-111660586D01*
X79993070Y-111660588D01*
X79993069Y-111660588D01*
X79870588Y-111783069D01*
X79870588Y-111783070D01*
X79870586Y-111783072D01*
X79840467Y-111824527D01*
X79768768Y-111923211D01*
X79690128Y-112077552D01*
X79636597Y-112242302D01*
X79609500Y-112413389D01*
X73750500Y-112413389D01*
X73750500Y-108929054D01*
X90649498Y-108929054D01*
X90690424Y-109081789D01*
X90690425Y-109081790D01*
X90712186Y-109119480D01*
X90712187Y-109119482D01*
X90769475Y-109218709D01*
X90769481Y-109218717D01*
X90888348Y-109337584D01*
X90888355Y-109337590D01*
X91399596Y-109848831D01*
X91433081Y-109910154D01*
X91435135Y-109922628D01*
X91449536Y-110050443D01*
X91509116Y-110220715D01*
X91582654Y-110337750D01*
X91605090Y-110373456D01*
X91732644Y-110501010D01*
X91885384Y-110596983D01*
X91997234Y-110636121D01*
X92055651Y-110656562D01*
X92055656Y-110656563D01*
X92234902Y-110676759D01*
X92234906Y-110676759D01*
X92234910Y-110676759D01*
X92414155Y-110656563D01*
X92414158Y-110656562D01*
X92414161Y-110656562D01*
X92584428Y-110596983D01*
X92737168Y-110501010D01*
X92864722Y-110373456D01*
X92960695Y-110220716D01*
X93020274Y-110050449D01*
X93021723Y-110037590D01*
X93040471Y-109871197D01*
X93040471Y-109871190D01*
X93020081Y-109690220D01*
X93032136Y-109621398D01*
X93046356Y-109599021D01*
X93049498Y-109595081D01*
X93090019Y-109530592D01*
X93145469Y-109442344D01*
X93205048Y-109272077D01*
X93214841Y-109185151D01*
X93241906Y-109120740D01*
X93250370Y-109111365D01*
X93974918Y-108386819D01*
X94036241Y-108353334D01*
X94062599Y-108350500D01*
X107359141Y-108350500D01*
X107426180Y-108370185D01*
X107446821Y-108386818D01*
X110290522Y-111230520D01*
X110290524Y-111230521D01*
X110290528Y-111230524D01*
X110427447Y-111309573D01*
X110427454Y-111309577D01*
X110580181Y-111350501D01*
X110580183Y-111350501D01*
X110745892Y-111350501D01*
X110745908Y-111350500D01*
X111332350Y-111350500D01*
X111332366Y-111350501D01*
X111339962Y-111350501D01*
X111498073Y-111350501D01*
X111498076Y-111350501D01*
X111650804Y-111309577D01*
X111700923Y-111280639D01*
X111787735Y-111230520D01*
X111899539Y-111118716D01*
X111899539Y-111118714D01*
X111909747Y-111108507D01*
X111909749Y-111108504D01*
X112053045Y-110965207D01*
X112114366Y-110931724D01*
X112126821Y-110929672D01*
X112213765Y-110919877D01*
X112384032Y-110860298D01*
X112536772Y-110764325D01*
X112664326Y-110636771D01*
X112760299Y-110484031D01*
X112802137Y-110364462D01*
X112831495Y-110317738D01*
X113924104Y-109225129D01*
X113985425Y-109191646D01*
X114055117Y-109196630D01*
X114111050Y-109238502D01*
X114116774Y-109246836D01*
X114120184Y-109252262D01*
X114247738Y-109379816D01*
X114400478Y-109475789D01*
X114570745Y-109535368D01*
X114657669Y-109545161D01*
X114722080Y-109572226D01*
X114731465Y-109580700D01*
X115740162Y-110589397D01*
X115769522Y-110636121D01*
X115774212Y-110649524D01*
X115786271Y-110668716D01*
X115870184Y-110802262D01*
X115997738Y-110929816D01*
X116150478Y-111025789D01*
X116320745Y-111085368D01*
X116320750Y-111085369D01*
X116499996Y-111105565D01*
X116500000Y-111105565D01*
X116500004Y-111105565D01*
X116679249Y-111085369D01*
X116679252Y-111085368D01*
X116679255Y-111085368D01*
X116849522Y-111025789D01*
X117002262Y-110929816D01*
X117002267Y-110929810D01*
X117005097Y-110927555D01*
X117007275Y-110926665D01*
X117008158Y-110926111D01*
X117008255Y-110926265D01*
X117069783Y-110901145D01*
X117082412Y-110900500D01*
X118600052Y-110900500D01*
X118600068Y-110900501D01*
X118607664Y-110900501D01*
X118773374Y-110900501D01*
X118773390Y-110900500D01*
X119271243Y-110900500D01*
X119271259Y-110900501D01*
X119278855Y-110900501D01*
X119436966Y-110900501D01*
X119436969Y-110900501D01*
X119589697Y-110859577D01*
X119642559Y-110829057D01*
X119642560Y-110829057D01*
X119726621Y-110780524D01*
X119726620Y-110780524D01*
X119726628Y-110780520D01*
X119838432Y-110668716D01*
X119838432Y-110668714D01*
X119848636Y-110658511D01*
X119848639Y-110658506D01*
X123730520Y-106776628D01*
X123809577Y-106639696D01*
X123850501Y-106486969D01*
X123850501Y-106328854D01*
X123850501Y-106321259D01*
X123850500Y-106321241D01*
X123850500Y-100095738D01*
X123870185Y-100028699D01*
X123922989Y-99982944D01*
X123992147Y-99973000D01*
X124055703Y-100002025D01*
X124062181Y-100008057D01*
X124363181Y-100309057D01*
X124396666Y-100370380D01*
X124399500Y-100396738D01*
X124399500Y-112599092D01*
X124379815Y-112666131D01*
X124327011Y-112711886D01*
X124316463Y-112716130D01*
X124260093Y-112735854D01*
X124150478Y-112774210D01*
X123997737Y-112870184D01*
X123870184Y-112997737D01*
X123774211Y-113150476D01*
X123714631Y-113320745D01*
X123714630Y-113320750D01*
X123694435Y-113499996D01*
X123694435Y-113500003D01*
X123714630Y-113679249D01*
X123714631Y-113679254D01*
X123774211Y-113849523D01*
X123849843Y-113969890D01*
X123870184Y-114002262D01*
X123997738Y-114129816D01*
X124000665Y-114131655D01*
X124144807Y-114222226D01*
X124150478Y-114225789D01*
X124317961Y-114284394D01*
X124320745Y-114285368D01*
X124320750Y-114285369D01*
X124499996Y-114305565D01*
X124500000Y-114305565D01*
X124500004Y-114305565D01*
X124679249Y-114285369D01*
X124679252Y-114285368D01*
X124679255Y-114285368D01*
X124849522Y-114225789D01*
X125002262Y-114129816D01*
X125129816Y-114002262D01*
X125225789Y-113849522D01*
X125285368Y-113679255D01*
X125295161Y-113592330D01*
X125322226Y-113527920D01*
X125330700Y-113518534D01*
X125480520Y-113368716D01*
X125559577Y-113231784D01*
X125600501Y-113079057D01*
X125600501Y-112920942D01*
X125600501Y-112913347D01*
X125600500Y-112913329D01*
X125600500Y-100185701D01*
X125600501Y-100185688D01*
X125600501Y-100017585D01*
X125572365Y-99912582D01*
X125559577Y-99864857D01*
X125520040Y-99796376D01*
X125480524Y-99727931D01*
X125480518Y-99727923D01*
X125326737Y-99574142D01*
X125293252Y-99512819D01*
X125298236Y-99443127D01*
X125309424Y-99420489D01*
X125401733Y-99273580D01*
X125401734Y-99273579D01*
X125461313Y-99103312D01*
X125461314Y-99103306D01*
X125481510Y-98924060D01*
X125481510Y-98924054D01*
X125462239Y-98753020D01*
X125474293Y-98684198D01*
X125497775Y-98651458D01*
X129412416Y-94736819D01*
X129473739Y-94703334D01*
X129500097Y-94700500D01*
X132254092Y-94700500D01*
X132321131Y-94720185D01*
X132359636Y-94764271D01*
X132361395Y-94763187D01*
X132365185Y-94769331D01*
X132365186Y-94769334D01*
X132457288Y-94918656D01*
X132457289Y-94918657D01*
X132550951Y-95012319D01*
X132584436Y-95073642D01*
X132579452Y-95143334D01*
X132550951Y-95187681D01*
X132457289Y-95281342D01*
X132365187Y-95430663D01*
X132365185Y-95430668D01*
X132353155Y-95466973D01*
X132310001Y-95597203D01*
X132310001Y-95597204D01*
X132310000Y-95597204D01*
X132299500Y-95699983D01*
X132299500Y-96399902D01*
X132279815Y-96466941D01*
X132263181Y-96487583D01*
X131319481Y-97431282D01*
X131319480Y-97431284D01*
X131276731Y-97505329D01*
X131269361Y-97518094D01*
X131269359Y-97518096D01*
X131240425Y-97568209D01*
X131240424Y-97568210D01*
X131240423Y-97568215D01*
X131199499Y-97720943D01*
X131199499Y-97720945D01*
X131199499Y-97889046D01*
X131199500Y-97889059D01*
X131199500Y-102438330D01*
X131199499Y-102438348D01*
X131199499Y-102604054D01*
X131199498Y-102604054D01*
X131220193Y-102681287D01*
X131240423Y-102756785D01*
X131261746Y-102793717D01*
X131269358Y-102806900D01*
X131269359Y-102806904D01*
X131269360Y-102806904D01*
X131319479Y-102893714D01*
X131319481Y-102893717D01*
X131838181Y-103412417D01*
X131871666Y-103473740D01*
X131874500Y-103500097D01*
X131874500Y-103622869D01*
X131874501Y-103622876D01*
X131880908Y-103682483D01*
X131931202Y-103817328D01*
X131931206Y-103817335D01*
X132017452Y-103932544D01*
X132017455Y-103932547D01*
X132132664Y-104018793D01*
X132132673Y-104018798D01*
X132178610Y-104035931D01*
X132242712Y-104059839D01*
X132298646Y-104101709D01*
X132323064Y-104167173D01*
X132308213Y-104235446D01*
X132287061Y-104263702D01*
X131431286Y-105119478D01*
X131319481Y-105231282D01*
X131319479Y-105231284D01*
X131300851Y-105263550D01*
X131289136Y-105283842D01*
X131240423Y-105368215D01*
X131199499Y-105520943D01*
X131199499Y-105520945D01*
X131199499Y-105689046D01*
X131199500Y-105689059D01*
X131199500Y-109463330D01*
X131199499Y-109463348D01*
X131199499Y-109629054D01*
X131199498Y-109629054D01*
X131224067Y-109720745D01*
X131240423Y-109781785D01*
X131261746Y-109818717D01*
X131263029Y-109820938D01*
X131263030Y-109820942D01*
X131263031Y-109820942D01*
X131319479Y-109918715D01*
X131319481Y-109918717D01*
X131438349Y-110037585D01*
X131438355Y-110037590D01*
X131838181Y-110437416D01*
X131871666Y-110498739D01*
X131874500Y-110525097D01*
X131874500Y-111122870D01*
X131874501Y-111122876D01*
X131880908Y-111182483D01*
X131931202Y-111317328D01*
X131931206Y-111317335D01*
X132017452Y-111432544D01*
X132017455Y-111432547D01*
X132132664Y-111518793D01*
X132132673Y-111518798D01*
X132198383Y-111543305D01*
X132242712Y-111559839D01*
X132298646Y-111601709D01*
X132323064Y-111667173D01*
X132308213Y-111735446D01*
X132287061Y-111763702D01*
X131431286Y-112619478D01*
X131319481Y-112731282D01*
X131319479Y-112731285D01*
X131277576Y-112803865D01*
X131277575Y-112803866D01*
X131240423Y-112868214D01*
X131240423Y-112868215D01*
X131199499Y-113020943D01*
X131199499Y-113020945D01*
X131199499Y-113189046D01*
X131199500Y-113189059D01*
X131199500Y-116963330D01*
X131199499Y-116963348D01*
X131199499Y-117129054D01*
X131199498Y-117129054D01*
X131240423Y-117281785D01*
X131255421Y-117307763D01*
X131264567Y-117323603D01*
X131290739Y-117368935D01*
X131319479Y-117418714D01*
X131319481Y-117418717D01*
X131438349Y-117537585D01*
X131438355Y-117537590D01*
X131838181Y-117937416D01*
X131871666Y-117998739D01*
X131874500Y-118025097D01*
X131874500Y-118622870D01*
X131874501Y-118622876D01*
X131880908Y-118682483D01*
X131931202Y-118817328D01*
X131931206Y-118817335D01*
X132017452Y-118932544D01*
X132017455Y-118932547D01*
X132132664Y-119018793D01*
X132132671Y-119018797D01*
X132267517Y-119069091D01*
X132267516Y-119069091D01*
X132274444Y-119069835D01*
X132327127Y-119075500D01*
X133172872Y-119075499D01*
X133232483Y-119069091D01*
X133232488Y-119069089D01*
X133367329Y-119018797D01*
X133367329Y-119018796D01*
X133367331Y-119018796D01*
X133400689Y-118993823D01*
X133466151Y-118969406D01*
X133534425Y-118984257D01*
X133549305Y-118993820D01*
X133582669Y-119018796D01*
X133582670Y-119018796D01*
X133582670Y-119018797D01*
X133657155Y-119046577D01*
X133717517Y-119069091D01*
X133777127Y-119075500D01*
X134374901Y-119075499D01*
X134441940Y-119095183D01*
X134462582Y-119111818D01*
X135431284Y-120080520D01*
X135431286Y-120080521D01*
X135431290Y-120080524D01*
X135565230Y-120157853D01*
X135568216Y-120159577D01*
X135720943Y-120200501D01*
X135720945Y-120200501D01*
X135886654Y-120200501D01*
X135886670Y-120200500D01*
X141013331Y-120200500D01*
X141013347Y-120200501D01*
X141020943Y-120200501D01*
X141186654Y-120200501D01*
X141186670Y-120200500D01*
X146313331Y-120200500D01*
X146313347Y-120200501D01*
X146320943Y-120200501D01*
X146486654Y-120200501D01*
X146486670Y-120200500D01*
X146720943Y-120200500D01*
X150747411Y-120200500D01*
X150814450Y-120220185D01*
X150860205Y-120272989D01*
X150870631Y-120310617D01*
X150889630Y-120479249D01*
X150889631Y-120479254D01*
X150949211Y-120649523D01*
X150991566Y-120716930D01*
X151045184Y-120802262D01*
X151172738Y-120929816D01*
X151325478Y-121025789D01*
X151495745Y-121085368D01*
X151582669Y-121095161D01*
X151647080Y-121122226D01*
X151656465Y-121130700D01*
X151790139Y-121264374D01*
X151790149Y-121264385D01*
X151794479Y-121268715D01*
X151794480Y-121268716D01*
X151906284Y-121380520D01*
X151993095Y-121430639D01*
X151993097Y-121430641D01*
X152031151Y-121452611D01*
X152043215Y-121459577D01*
X152195943Y-121500500D01*
X152354057Y-121500500D01*
X163020943Y-121500500D01*
X163163331Y-121500500D01*
X163163347Y-121500501D01*
X163170943Y-121500501D01*
X163336653Y-121500501D01*
X163336669Y-121500500D01*
X167620943Y-121500500D01*
X168513331Y-121500500D01*
X168513347Y-121500501D01*
X168520943Y-121500501D01*
X168686653Y-121500501D01*
X168686669Y-121500500D01*
X172020943Y-121500500D01*
X173813331Y-121500500D01*
X173813347Y-121500501D01*
X173820943Y-121500501D01*
X173986653Y-121500501D01*
X173986669Y-121500500D01*
X178420943Y-121500500D01*
X179113331Y-121500500D01*
X179113347Y-121500501D01*
X179120943Y-121500501D01*
X179286653Y-121500501D01*
X179286669Y-121500500D01*
X184413331Y-121500500D01*
X184413347Y-121500501D01*
X184420943Y-121500501D01*
X184579054Y-121500501D01*
X184579057Y-121500501D01*
X184731785Y-121459577D01*
X184781904Y-121430639D01*
X184868716Y-121380520D01*
X184980520Y-121268716D01*
X184980520Y-121268714D01*
X184990728Y-121258507D01*
X184990730Y-121258504D01*
X187137416Y-119111818D01*
X187198739Y-119078333D01*
X187225097Y-119075499D01*
X187822871Y-119075499D01*
X187822872Y-119075499D01*
X187882483Y-119069091D01*
X188017331Y-119018796D01*
X188132546Y-118932546D01*
X188218796Y-118817331D01*
X188269091Y-118682483D01*
X188275500Y-118622873D01*
X188275499Y-118025096D01*
X188295183Y-117958058D01*
X188311818Y-117937416D01*
X188411818Y-117837416D01*
X188880520Y-117368716D01*
X188959577Y-117231784D01*
X189000501Y-117079057D01*
X189000501Y-116920942D01*
X189000501Y-116913347D01*
X189000500Y-116913329D01*
X189000500Y-115939060D01*
X189000501Y-115939047D01*
X189000501Y-115770944D01*
X188995565Y-115752523D01*
X188959577Y-115618216D01*
X188938258Y-115581290D01*
X188880524Y-115481290D01*
X188880518Y-115481282D01*
X188311818Y-114912582D01*
X188278333Y-114851259D01*
X188275499Y-114824901D01*
X188275499Y-114227129D01*
X188275498Y-114227123D01*
X188272062Y-114195160D01*
X188269091Y-114167517D01*
X188255715Y-114131655D01*
X188218797Y-114032671D01*
X188218793Y-114032664D01*
X188132547Y-113917455D01*
X188132544Y-113917452D01*
X188017335Y-113831206D01*
X188017328Y-113831202D01*
X187882482Y-113780908D01*
X187882483Y-113780908D01*
X187822883Y-113774501D01*
X187822881Y-113774500D01*
X187822873Y-113774500D01*
X187822864Y-113774500D01*
X186977129Y-113774500D01*
X186977123Y-113774501D01*
X186917516Y-113780908D01*
X186782671Y-113831202D01*
X186782669Y-113831203D01*
X186749310Y-113856176D01*
X186683845Y-113880592D01*
X186615572Y-113865740D01*
X186600690Y-113856176D01*
X186567330Y-113831203D01*
X186567328Y-113831202D01*
X186432482Y-113780908D01*
X186432483Y-113780908D01*
X186372883Y-113774501D01*
X186372881Y-113774500D01*
X186372873Y-113774500D01*
X186372865Y-113774500D01*
X185624500Y-113774500D01*
X185557461Y-113754815D01*
X185511706Y-113702011D01*
X185500500Y-113650500D01*
X185500500Y-113300096D01*
X185520185Y-113233057D01*
X185536814Y-113212420D01*
X187137416Y-111611817D01*
X187198739Y-111578333D01*
X187225097Y-111575499D01*
X187822871Y-111575499D01*
X187822872Y-111575499D01*
X187882483Y-111569091D01*
X188017331Y-111518796D01*
X188132546Y-111432546D01*
X188218796Y-111317331D01*
X188269091Y-111182483D01*
X188275500Y-111122873D01*
X188275499Y-110525096D01*
X188295183Y-110458058D01*
X188311818Y-110437416D01*
X188411818Y-110337416D01*
X188880520Y-109868716D01*
X188959577Y-109731784D01*
X189000501Y-109579057D01*
X189000501Y-109420942D01*
X189000501Y-109413347D01*
X189000500Y-109413329D01*
X189000500Y-108439060D01*
X189000501Y-108439047D01*
X189000501Y-108270944D01*
X188994283Y-108247737D01*
X188959577Y-108118216D01*
X188959573Y-108118209D01*
X188880524Y-107981290D01*
X188880518Y-107981282D01*
X188311818Y-107412582D01*
X188278333Y-107351259D01*
X188275499Y-107324901D01*
X188275499Y-106727129D01*
X188275498Y-106727123D01*
X188269091Y-106667516D01*
X188218797Y-106532671D01*
X188218793Y-106532664D01*
X188132547Y-106417455D01*
X188132544Y-106417452D01*
X188017335Y-106331206D01*
X188017328Y-106331202D01*
X187882482Y-106280908D01*
X187882483Y-106280908D01*
X187822883Y-106274501D01*
X187822881Y-106274500D01*
X187822873Y-106274500D01*
X187822864Y-106274500D01*
X186977129Y-106274500D01*
X186977123Y-106274501D01*
X186917516Y-106280908D01*
X186782671Y-106331202D01*
X186782669Y-106331203D01*
X186749310Y-106356176D01*
X186683845Y-106380592D01*
X186615572Y-106365740D01*
X186600690Y-106356176D01*
X186567330Y-106331203D01*
X186567328Y-106331202D01*
X186432482Y-106280908D01*
X186432483Y-106280908D01*
X186372883Y-106274501D01*
X186372881Y-106274500D01*
X186372873Y-106274500D01*
X186372865Y-106274500D01*
X185624500Y-106274500D01*
X185557461Y-106254815D01*
X185511706Y-106202011D01*
X185500500Y-106150500D01*
X185500500Y-105800096D01*
X185520185Y-105733057D01*
X185536814Y-105712420D01*
X187137416Y-104111817D01*
X187198739Y-104078333D01*
X187225097Y-104075499D01*
X187822871Y-104075499D01*
X187822872Y-104075499D01*
X187882483Y-104069091D01*
X188017331Y-104018796D01*
X188132546Y-103932546D01*
X188218796Y-103817331D01*
X188269091Y-103682483D01*
X188275500Y-103622873D01*
X188275499Y-103025095D01*
X188295183Y-102958057D01*
X188311813Y-102937420D01*
X188733506Y-102515728D01*
X188733511Y-102515724D01*
X188743714Y-102505520D01*
X188743716Y-102505520D01*
X188855520Y-102393716D01*
X188896116Y-102323402D01*
X188913544Y-102293216D01*
X188913545Y-102293214D01*
X188934574Y-102256790D01*
X188934573Y-102256790D01*
X188934577Y-102256785D01*
X188975500Y-102104058D01*
X188975500Y-101945943D01*
X188975500Y-100745943D01*
X188951459Y-100656218D01*
X188934577Y-100593215D01*
X188886288Y-100509577D01*
X188855520Y-100456284D01*
X188743716Y-100344480D01*
X188743715Y-100344479D01*
X188739385Y-100340149D01*
X188739374Y-100340139D01*
X188311818Y-99912583D01*
X188278333Y-99851260D01*
X188275499Y-99824902D01*
X188275499Y-99227129D01*
X188275498Y-99227123D01*
X188269091Y-99167516D01*
X188218797Y-99032671D01*
X188218793Y-99032664D01*
X188132547Y-98917455D01*
X188132544Y-98917452D01*
X188017335Y-98831206D01*
X188017328Y-98831202D01*
X187882482Y-98780908D01*
X187882483Y-98780908D01*
X187822883Y-98774501D01*
X187822881Y-98774500D01*
X187822873Y-98774500D01*
X187822864Y-98774500D01*
X186977129Y-98774500D01*
X186977123Y-98774501D01*
X186917516Y-98780908D01*
X186782671Y-98831202D01*
X186782669Y-98831203D01*
X186749310Y-98856176D01*
X186683845Y-98880592D01*
X186615572Y-98865740D01*
X186600690Y-98856176D01*
X186567330Y-98831203D01*
X186567328Y-98831202D01*
X186432482Y-98780908D01*
X186432483Y-98780908D01*
X186372883Y-98774501D01*
X186372881Y-98774500D01*
X186372873Y-98774500D01*
X186372865Y-98774500D01*
X185624500Y-98774500D01*
X185557461Y-98754815D01*
X185511706Y-98702011D01*
X185500500Y-98650500D01*
X185500500Y-98000096D01*
X185520185Y-97933057D01*
X185536815Y-97912419D01*
X186312416Y-97136817D01*
X186373739Y-97103333D01*
X186400097Y-97100499D01*
X187100002Y-97100499D01*
X187100008Y-97100499D01*
X187202797Y-97089999D01*
X187369334Y-97034814D01*
X187518656Y-96942712D01*
X187642712Y-96818656D01*
X187734814Y-96669334D01*
X187789999Y-96502797D01*
X187800500Y-96400009D01*
X187800499Y-95599992D01*
X187794816Y-95544363D01*
X187789999Y-95497203D01*
X187789998Y-95497200D01*
X187767950Y-95430663D01*
X187734814Y-95330666D01*
X187678886Y-95239992D01*
X206014671Y-95239992D01*
X206014671Y-95240007D01*
X206033964Y-95534363D01*
X206033965Y-95534373D01*
X206033966Y-95534380D01*
X206066905Y-95699980D01*
X206091518Y-95823716D01*
X206091521Y-95823730D01*
X206186349Y-96103080D01*
X206316825Y-96367660D01*
X206316829Y-96367667D01*
X206480725Y-96612955D01*
X206675241Y-96834758D01*
X206897044Y-97029274D01*
X207142332Y-97193170D01*
X207142339Y-97193174D01*
X207195678Y-97219478D01*
X207406923Y-97323652D01*
X207686278Y-97418481D01*
X207975620Y-97476034D01*
X208003888Y-97477886D01*
X208269993Y-97495329D01*
X208270000Y-97495329D01*
X208270007Y-97495329D01*
X208505675Y-97479881D01*
X208564380Y-97476034D01*
X208853722Y-97418481D01*
X209133077Y-97323652D01*
X209397665Y-97193172D01*
X209642957Y-97029273D01*
X209864758Y-96834758D01*
X210059273Y-96612957D01*
X210223172Y-96367665D01*
X210353652Y-96103077D01*
X210448481Y-95823722D01*
X210506034Y-95534380D01*
X210519386Y-95330668D01*
X210525329Y-95240007D01*
X210525329Y-95239992D01*
X210506035Y-94945636D01*
X210506034Y-94945620D01*
X210448481Y-94656278D01*
X210353652Y-94376923D01*
X210223172Y-94112336D01*
X210059273Y-93867043D01*
X209940217Y-93731286D01*
X209864758Y-93645241D01*
X209642955Y-93450725D01*
X209397667Y-93286829D01*
X209397660Y-93286825D01*
X209133080Y-93156349D01*
X208853730Y-93061521D01*
X208853724Y-93061519D01*
X208853722Y-93061519D01*
X208564380Y-93003966D01*
X208564373Y-93003965D01*
X208564363Y-93003964D01*
X208270007Y-92984671D01*
X208269993Y-92984671D01*
X207975636Y-93003964D01*
X207975624Y-93003965D01*
X207975620Y-93003966D01*
X207975612Y-93003967D01*
X207975609Y-93003968D01*
X207686283Y-93061518D01*
X207686269Y-93061521D01*
X207406919Y-93156349D01*
X207142334Y-93286828D01*
X206897041Y-93450728D01*
X206675241Y-93645241D01*
X206480728Y-93867041D01*
X206316828Y-94112334D01*
X206186349Y-94376919D01*
X206091521Y-94656269D01*
X206091518Y-94656283D01*
X206033968Y-94945609D01*
X206033964Y-94945636D01*
X206014671Y-95239992D01*
X187678886Y-95239992D01*
X187642712Y-95181344D01*
X187549049Y-95087681D01*
X187515564Y-95026358D01*
X187520548Y-94956666D01*
X187549049Y-94912319D01*
X187550782Y-94910586D01*
X187642712Y-94818656D01*
X187734814Y-94669334D01*
X187789999Y-94502797D01*
X187800500Y-94400009D01*
X187800499Y-93599992D01*
X187789999Y-93497203D01*
X187734814Y-93330666D01*
X187642712Y-93181344D01*
X187518656Y-93057288D01*
X187417137Y-92994671D01*
X187369336Y-92965187D01*
X187369331Y-92965185D01*
X187367862Y-92964698D01*
X187202797Y-92910001D01*
X187202795Y-92910000D01*
X187100010Y-92899500D01*
X186099998Y-92899500D01*
X186099980Y-92899501D01*
X185997203Y-92910000D01*
X185997200Y-92910001D01*
X185830668Y-92965185D01*
X185830663Y-92965187D01*
X185681342Y-93057289D01*
X185557289Y-93181342D01*
X185557288Y-93181344D01*
X185486058Y-93296828D01*
X185461395Y-93336813D01*
X185459600Y-93335706D01*
X185420313Y-93380337D01*
X185354092Y-93399500D01*
X182645908Y-93399500D01*
X182578869Y-93379815D01*
X182540363Y-93335728D01*
X182538605Y-93336813D01*
X182513943Y-93296829D01*
X182442712Y-93181344D01*
X182318656Y-93057288D01*
X182217137Y-92994671D01*
X182169336Y-92965187D01*
X182169331Y-92965185D01*
X182167862Y-92964698D01*
X182002797Y-92910001D01*
X182002795Y-92910000D01*
X181900010Y-92899500D01*
X180899998Y-92899500D01*
X180899980Y-92899501D01*
X180797203Y-92910000D01*
X180797200Y-92910001D01*
X180630668Y-92965185D01*
X180630663Y-92965187D01*
X180481342Y-93057289D01*
X180357289Y-93181342D01*
X180357288Y-93181344D01*
X180286058Y-93296828D01*
X180261395Y-93336813D01*
X180259600Y-93335706D01*
X180220313Y-93380337D01*
X180154092Y-93399500D01*
X177284798Y-93399500D01*
X177217759Y-93379815D01*
X177179259Y-93340597D01*
X177176256Y-93335728D01*
X177142712Y-93281344D01*
X177018656Y-93157288D01*
X176879605Y-93071521D01*
X176869336Y-93065187D01*
X176869331Y-93065185D01*
X176845499Y-93057288D01*
X176702797Y-93010001D01*
X176702795Y-93010000D01*
X176600010Y-92999500D01*
X175599998Y-92999500D01*
X175599980Y-92999501D01*
X175497203Y-93010000D01*
X175497200Y-93010001D01*
X175330668Y-93065185D01*
X175330663Y-93065187D01*
X175181342Y-93157289D01*
X175057289Y-93281342D01*
X175057288Y-93281344D01*
X175023758Y-93335706D01*
X175020741Y-93340597D01*
X174968793Y-93387321D01*
X174915202Y-93399500D01*
X171984798Y-93399500D01*
X171917759Y-93379815D01*
X171879259Y-93340597D01*
X171876256Y-93335728D01*
X171842712Y-93281344D01*
X171718656Y-93157288D01*
X171579605Y-93071521D01*
X171569336Y-93065187D01*
X171569331Y-93065185D01*
X171545499Y-93057288D01*
X171402797Y-93010001D01*
X171402795Y-93010000D01*
X171300010Y-92999500D01*
X170299998Y-92999500D01*
X170299980Y-92999501D01*
X170197203Y-93010000D01*
X170197200Y-93010001D01*
X170030668Y-93065185D01*
X170030663Y-93065187D01*
X169881342Y-93157289D01*
X169757289Y-93281342D01*
X169757288Y-93281344D01*
X169723758Y-93335706D01*
X169720741Y-93340597D01*
X169668793Y-93387321D01*
X169615202Y-93399500D01*
X166584798Y-93399500D01*
X166517759Y-93379815D01*
X166479259Y-93340597D01*
X166476256Y-93335728D01*
X166442712Y-93281344D01*
X166318656Y-93157288D01*
X166179605Y-93071521D01*
X166169336Y-93065187D01*
X166169331Y-93065185D01*
X166145499Y-93057288D01*
X166002797Y-93010001D01*
X166002795Y-93010000D01*
X165900010Y-92999500D01*
X164899998Y-92999500D01*
X164899980Y-92999501D01*
X164797203Y-93010000D01*
X164797200Y-93010001D01*
X164630668Y-93065185D01*
X164630663Y-93065187D01*
X164481342Y-93157289D01*
X164357289Y-93281342D01*
X164357288Y-93281344D01*
X164323758Y-93335706D01*
X164320741Y-93340597D01*
X164268793Y-93387321D01*
X164215202Y-93399500D01*
X155984798Y-93399500D01*
X155917759Y-93379815D01*
X155879259Y-93340597D01*
X155876256Y-93335728D01*
X155842712Y-93281344D01*
X155718656Y-93157288D01*
X155579605Y-93071521D01*
X155569336Y-93065187D01*
X155569331Y-93065185D01*
X155545499Y-93057288D01*
X155402797Y-93010001D01*
X155402795Y-93010000D01*
X155300010Y-92999500D01*
X154299998Y-92999500D01*
X154299980Y-92999501D01*
X154197203Y-93010000D01*
X154197200Y-93010001D01*
X154030668Y-93065185D01*
X154030663Y-93065187D01*
X153881342Y-93157289D01*
X153757289Y-93281342D01*
X153757288Y-93281344D01*
X153723758Y-93335706D01*
X153720741Y-93340597D01*
X153668793Y-93387321D01*
X153615202Y-93399500D01*
X150684798Y-93399500D01*
X150617759Y-93379815D01*
X150579259Y-93340597D01*
X150576256Y-93335728D01*
X150542712Y-93281344D01*
X150418656Y-93157288D01*
X150279605Y-93071521D01*
X150269336Y-93065187D01*
X150269331Y-93065185D01*
X150245499Y-93057288D01*
X150102797Y-93010001D01*
X150102795Y-93010000D01*
X150000010Y-92999500D01*
X148999998Y-92999500D01*
X148999980Y-92999501D01*
X148897203Y-93010000D01*
X148897200Y-93010001D01*
X148730668Y-93065185D01*
X148730663Y-93065187D01*
X148581342Y-93157289D01*
X148457289Y-93281342D01*
X148457288Y-93281344D01*
X148423758Y-93335706D01*
X148420741Y-93340597D01*
X148368793Y-93387321D01*
X148315202Y-93399500D01*
X145284798Y-93399500D01*
X145217759Y-93379815D01*
X145179259Y-93340597D01*
X145176256Y-93335728D01*
X145142712Y-93281344D01*
X145018656Y-93157288D01*
X144879605Y-93071521D01*
X144869336Y-93065187D01*
X144869331Y-93065185D01*
X144845499Y-93057288D01*
X144702797Y-93010001D01*
X144702795Y-93010000D01*
X144600010Y-92999500D01*
X143599998Y-92999500D01*
X143599980Y-92999501D01*
X143497203Y-93010000D01*
X143497200Y-93010001D01*
X143330668Y-93065185D01*
X143330663Y-93065187D01*
X143181342Y-93157289D01*
X143057289Y-93281342D01*
X143057288Y-93281344D01*
X143023758Y-93335706D01*
X143020741Y-93340597D01*
X142968793Y-93387321D01*
X142915202Y-93399500D01*
X139984798Y-93399500D01*
X139917759Y-93379815D01*
X139879259Y-93340597D01*
X139876256Y-93335728D01*
X139842712Y-93281344D01*
X139718656Y-93157288D01*
X139579605Y-93071521D01*
X139569336Y-93065187D01*
X139569331Y-93065185D01*
X139545499Y-93057288D01*
X139402797Y-93010001D01*
X139402795Y-93010000D01*
X139300010Y-92999500D01*
X138299998Y-92999500D01*
X138299980Y-92999501D01*
X138197203Y-93010000D01*
X138197200Y-93010001D01*
X138030668Y-93065185D01*
X138030663Y-93065187D01*
X137881342Y-93157289D01*
X137757289Y-93281342D01*
X137757288Y-93281344D01*
X137723758Y-93335706D01*
X137720741Y-93340597D01*
X137668793Y-93387321D01*
X137615202Y-93399500D01*
X134684798Y-93399500D01*
X134617759Y-93379815D01*
X134579259Y-93340597D01*
X134576256Y-93335728D01*
X134542712Y-93281344D01*
X134418656Y-93157288D01*
X134279605Y-93071521D01*
X134269336Y-93065187D01*
X134269331Y-93065185D01*
X134245499Y-93057288D01*
X134102797Y-93010001D01*
X134102795Y-93010000D01*
X134000010Y-92999500D01*
X132999998Y-92999500D01*
X132999980Y-92999501D01*
X132897203Y-93010000D01*
X132897200Y-93010001D01*
X132730668Y-93065185D01*
X132730663Y-93065187D01*
X132581342Y-93157289D01*
X132457289Y-93281342D01*
X132457288Y-93281344D01*
X132384410Y-93399500D01*
X132361395Y-93436813D01*
X132359600Y-93435706D01*
X132320313Y-93480337D01*
X132254092Y-93499500D01*
X129286669Y-93499500D01*
X129286653Y-93499499D01*
X129279057Y-93499499D01*
X129120943Y-93499499D01*
X129013587Y-93528265D01*
X128968210Y-93540424D01*
X128968209Y-93540425D01*
X128918096Y-93569359D01*
X128918095Y-93569360D01*
X128874689Y-93594420D01*
X128831285Y-93619479D01*
X128831282Y-93619481D01*
X128719478Y-93731286D01*
X124310589Y-98140174D01*
X124249266Y-98173659D01*
X124181954Y-98169535D01*
X124029249Y-98116102D01*
X123960616Y-98108369D01*
X123896202Y-98081302D01*
X123856647Y-98023707D01*
X123850500Y-97985149D01*
X123850500Y-97166912D01*
X123850501Y-97166899D01*
X123850501Y-96998796D01*
X123835473Y-96942712D01*
X123809577Y-96846068D01*
X123796491Y-96823402D01*
X123730524Y-96709142D01*
X123730518Y-96709134D01*
X123666774Y-96645390D01*
X123633289Y-96584067D01*
X123631237Y-96571610D01*
X123621442Y-96484671D01*
X123561863Y-96314404D01*
X123465890Y-96161664D01*
X123338336Y-96034110D01*
X123185597Y-95938137D01*
X123015328Y-95878557D01*
X123015323Y-95878556D01*
X122836078Y-95858361D01*
X122836070Y-95858361D01*
X122656824Y-95878556D01*
X122656819Y-95878557D01*
X122486550Y-95938137D01*
X122333811Y-96034110D01*
X122206258Y-96161663D01*
X122110285Y-96314402D01*
X122050705Y-96484671D01*
X122050704Y-96484676D01*
X122030509Y-96663922D01*
X122030509Y-96663929D01*
X122050704Y-96843175D01*
X122050705Y-96843180D01*
X122110285Y-97013449D01*
X122200428Y-97156910D01*
X122206258Y-97166188D01*
X122333812Y-97293742D01*
X122486552Y-97389715D01*
X122566455Y-97417673D01*
X122623230Y-97458394D01*
X122648978Y-97523347D01*
X122649500Y-97534715D01*
X122649500Y-105402216D01*
X122629815Y-105469255D01*
X122577011Y-105515010D01*
X122507853Y-105524954D01*
X122459528Y-105507210D01*
X122315065Y-105416438D01*
X122144793Y-105356858D01*
X122057874Y-105347065D01*
X121993460Y-105319998D01*
X121984077Y-105311526D01*
X120310906Y-103638355D01*
X120310904Y-103638352D01*
X120192033Y-103519481D01*
X120192025Y-103519475D01*
X120090252Y-103460717D01*
X120090250Y-103460716D01*
X120055106Y-103440425D01*
X120055105Y-103440424D01*
X120042579Y-103437067D01*
X119902373Y-103399499D01*
X119744259Y-103399499D01*
X119736663Y-103399499D01*
X119736647Y-103399500D01*
X109724500Y-103399500D01*
X109657461Y-103379815D01*
X109611706Y-103327011D01*
X109600500Y-103275500D01*
X109600500Y-102573713D01*
X109567246Y-102363757D01*
X109501557Y-102161588D01*
X109405051Y-101972184D01*
X109405049Y-101972181D01*
X109405048Y-101972179D01*
X109280109Y-101800213D01*
X109129786Y-101649890D01*
X108957820Y-101524951D01*
X108768414Y-101428444D01*
X108768413Y-101428443D01*
X108768412Y-101428443D01*
X108566243Y-101362754D01*
X108566241Y-101362753D01*
X108566240Y-101362753D01*
X108401177Y-101336610D01*
X108356287Y-101329500D01*
X108143713Y-101329500D01*
X108098823Y-101336610D01*
X107933760Y-101362753D01*
X107731585Y-101428444D01*
X107542179Y-101524951D01*
X107370215Y-101649889D01*
X107231398Y-101788706D01*
X107170075Y-101822190D01*
X107100383Y-101817206D01*
X107044450Y-101775334D01*
X107038178Y-101766120D01*
X106942712Y-101611344D01*
X106818657Y-101487289D01*
X106818656Y-101487288D01*
X106669334Y-101395186D01*
X106502797Y-101340001D01*
X106502795Y-101340000D01*
X106400010Y-101329500D01*
X105099998Y-101329500D01*
X105099981Y-101329501D01*
X104997203Y-101340000D01*
X104997200Y-101340001D01*
X104830668Y-101395185D01*
X104830663Y-101395187D01*
X104681342Y-101487289D01*
X104557289Y-101611342D01*
X104465187Y-101760663D01*
X104465185Y-101760668D01*
X104460325Y-101775334D01*
X104410001Y-101927203D01*
X104410001Y-101927204D01*
X104410000Y-101927204D01*
X104399500Y-102029983D01*
X104399500Y-103830001D01*
X104399501Y-103830018D01*
X104410000Y-103932796D01*
X104410001Y-103932799D01*
X104457288Y-104075499D01*
X104465186Y-104099334D01*
X104557288Y-104248656D01*
X104681344Y-104372712D01*
X104830666Y-104464814D01*
X104997203Y-104519999D01*
X105099991Y-104530500D01*
X106400008Y-104530499D01*
X106502797Y-104519999D01*
X106669334Y-104464814D01*
X106818656Y-104372712D01*
X106942712Y-104248656D01*
X107034814Y-104099334D01*
X107034814Y-104099331D01*
X107038178Y-104093879D01*
X107090126Y-104047154D01*
X107159088Y-104035931D01*
X107223170Y-104063774D01*
X107231398Y-104071294D01*
X107370213Y-104210109D01*
X107542182Y-104335050D01*
X107542184Y-104335051D01*
X107637563Y-104383648D01*
X107688358Y-104431622D01*
X107705154Y-104499443D01*
X107682617Y-104565578D01*
X107668949Y-104581814D01*
X106906465Y-105344298D01*
X106845142Y-105377783D01*
X106832668Y-105379837D01*
X106745750Y-105389630D01*
X106575478Y-105449210D01*
X106422737Y-105545184D01*
X106295184Y-105672737D01*
X106199211Y-105825476D01*
X106139631Y-105995745D01*
X106139630Y-105995750D01*
X106123448Y-106139383D01*
X106096382Y-106203797D01*
X106038787Y-106243352D01*
X106000228Y-106249500D01*
X102681940Y-106249500D01*
X102614901Y-106229815D01*
X102569146Y-106177011D01*
X102559202Y-106107853D01*
X102588227Y-106044297D01*
X102594259Y-106037819D01*
X102629816Y-106002262D01*
X102725789Y-105849522D01*
X102785368Y-105679255D01*
X102785390Y-105679060D01*
X102805565Y-105500003D01*
X102805565Y-105499996D01*
X102785369Y-105320750D01*
X102785368Y-105320745D01*
X102765354Y-105263548D01*
X102725789Y-105150478D01*
X102725174Y-105149500D01*
X102675660Y-105070698D01*
X102629816Y-104997738D01*
X102502262Y-104870184D01*
X102478084Y-104854992D01*
X102431796Y-104802661D01*
X102421146Y-104733607D01*
X102449521Y-104669758D01*
X102478082Y-104645009D01*
X102502262Y-104629816D01*
X102629816Y-104502262D01*
X102725789Y-104349522D01*
X102785368Y-104179255D01*
X102785369Y-104179249D01*
X102805565Y-104000003D01*
X102805565Y-103999996D01*
X102785369Y-103820750D01*
X102785368Y-103820745D01*
X102784172Y-103817328D01*
X102725789Y-103650478D01*
X102708445Y-103622876D01*
X102629815Y-103497737D01*
X102502262Y-103370184D01*
X102349523Y-103274211D01*
X102179254Y-103214631D01*
X102179249Y-103214630D01*
X102000004Y-103194435D01*
X101999996Y-103194435D01*
X101820750Y-103214630D01*
X101820745Y-103214631D01*
X101650476Y-103274211D01*
X101497737Y-103370184D01*
X101370184Y-103497737D01*
X101274210Y-103650478D01*
X101214630Y-103820750D01*
X101204837Y-103907666D01*
X101177770Y-103972080D01*
X101169299Y-103981462D01*
X101124237Y-104026524D01*
X101124212Y-104026552D01*
X101019480Y-104131284D01*
X100988478Y-104184982D01*
X100951715Y-104248657D01*
X100943029Y-104263702D01*
X100940423Y-104268215D01*
X100899499Y-104420943D01*
X100899499Y-104420945D01*
X100899499Y-104589046D01*
X100899500Y-104589059D01*
X100899500Y-104913330D01*
X100899499Y-104913348D01*
X100899499Y-105079054D01*
X100899498Y-105079054D01*
X100899499Y-105079057D01*
X100940423Y-105231785D01*
X100940424Y-105231787D01*
X100940423Y-105231787D01*
X100958759Y-105263544D01*
X100958761Y-105263546D01*
X100958762Y-105263548D01*
X100990324Y-105318215D01*
X101019479Y-105368715D01*
X101131284Y-105480520D01*
X101131285Y-105480522D01*
X101169298Y-105518535D01*
X101202783Y-105579858D01*
X101204837Y-105592332D01*
X101214630Y-105679249D01*
X101274210Y-105849521D01*
X101370184Y-106002262D01*
X101405741Y-106037819D01*
X101439226Y-106099142D01*
X101434242Y-106168834D01*
X101392370Y-106224767D01*
X101326906Y-106249184D01*
X101318060Y-106249500D01*
X92828783Y-106249500D01*
X92828767Y-106249499D01*
X92821171Y-106249499D01*
X92663057Y-106249499D01*
X92510329Y-106290423D01*
X92510328Y-106290423D01*
X92510326Y-106290424D01*
X92484104Y-106305564D01*
X92484103Y-106305565D01*
X92456920Y-106321259D01*
X92373399Y-106369479D01*
X92373396Y-106369481D01*
X90769481Y-107973396D01*
X90769479Y-107973399D01*
X90735369Y-108032481D01*
X90735368Y-108032483D01*
X90690423Y-108110328D01*
X90688093Y-108119023D01*
X90649499Y-108263057D01*
X90649499Y-108263059D01*
X90649499Y-108431160D01*
X90649500Y-108431173D01*
X90649500Y-108763330D01*
X90649499Y-108763348D01*
X90649499Y-108929054D01*
X90649498Y-108929054D01*
X73750500Y-108929054D01*
X73750500Y-106163389D01*
X79469500Y-106163389D01*
X79469500Y-106336611D01*
X79472599Y-106356176D01*
X79494615Y-106495184D01*
X79496598Y-106507701D01*
X79550127Y-106672445D01*
X79628768Y-106826788D01*
X79730586Y-106966928D01*
X79853072Y-107089414D01*
X79993212Y-107191232D01*
X80147555Y-107269873D01*
X80312299Y-107323402D01*
X80483389Y-107350500D01*
X80483390Y-107350500D01*
X80656610Y-107350500D01*
X80656611Y-107350500D01*
X80827701Y-107323402D01*
X80992445Y-107269873D01*
X81146788Y-107191232D01*
X81286928Y-107089414D01*
X81409414Y-106966928D01*
X81511232Y-106826788D01*
X81589873Y-106672445D01*
X81643402Y-106507701D01*
X81670500Y-106336611D01*
X81670500Y-106163389D01*
X81643402Y-105992299D01*
X81589873Y-105827555D01*
X81511232Y-105673212D01*
X81409414Y-105533072D01*
X81286928Y-105410586D01*
X81146788Y-105308768D01*
X80992445Y-105230127D01*
X80827701Y-105176598D01*
X80827699Y-105176597D01*
X80827698Y-105176597D01*
X80696271Y-105155781D01*
X80656611Y-105149500D01*
X80483389Y-105149500D01*
X80443728Y-105155781D01*
X80312302Y-105176597D01*
X80147552Y-105230128D01*
X79993211Y-105308768D01*
X79930844Y-105354081D01*
X79853072Y-105410586D01*
X79853070Y-105410588D01*
X79853069Y-105410588D01*
X79730588Y-105533069D01*
X79730588Y-105533070D01*
X79730586Y-105533072D01*
X79714680Y-105554965D01*
X79628768Y-105673211D01*
X79550128Y-105827552D01*
X79496597Y-105992302D01*
X79489388Y-106037819D01*
X79469500Y-106163389D01*
X73750500Y-106163389D01*
X73750500Y-101163389D01*
X79469500Y-101163389D01*
X79469500Y-101336611D01*
X79496598Y-101507701D01*
X79550127Y-101672445D01*
X79628768Y-101826788D01*
X79730586Y-101966928D01*
X79853072Y-102089414D01*
X79993212Y-102191232D01*
X80147555Y-102269873D01*
X80312299Y-102323402D01*
X80483389Y-102350500D01*
X80483390Y-102350500D01*
X80656610Y-102350500D01*
X80656611Y-102350500D01*
X80827701Y-102323402D01*
X80992445Y-102269873D01*
X81146788Y-102191232D01*
X81286928Y-102089414D01*
X81409414Y-101966928D01*
X81511232Y-101826788D01*
X81589873Y-101672445D01*
X81643402Y-101507701D01*
X81670500Y-101336611D01*
X81670500Y-101163389D01*
X81667384Y-101143713D01*
X86149500Y-101143713D01*
X86149500Y-101356286D01*
X86176213Y-101524949D01*
X86182754Y-101566243D01*
X86247698Y-101766120D01*
X86248444Y-101768414D01*
X86344951Y-101957820D01*
X86469890Y-102129786D01*
X86620209Y-102280105D01*
X86620214Y-102280109D01*
X86784793Y-102399682D01*
X86827459Y-102455011D01*
X86833438Y-102524625D01*
X86800833Y-102586420D01*
X86784793Y-102600318D01*
X86620214Y-102719890D01*
X86620209Y-102719894D01*
X86469890Y-102870213D01*
X86344951Y-103042179D01*
X86248444Y-103231585D01*
X86182753Y-103433760D01*
X86149500Y-103643713D01*
X86149500Y-103856286D01*
X86181739Y-104059839D01*
X86182754Y-104066243D01*
X86248378Y-104268213D01*
X86248444Y-104268414D01*
X86344951Y-104457820D01*
X86469890Y-104629786D01*
X86609068Y-104768964D01*
X86642553Y-104830287D01*
X86637569Y-104899979D01*
X86595697Y-104955912D01*
X86586484Y-104962183D01*
X86431659Y-105057680D01*
X86431655Y-105057683D01*
X86307684Y-105181654D01*
X86215643Y-105330875D01*
X86215641Y-105330880D01*
X86160494Y-105497302D01*
X86160493Y-105497309D01*
X86150000Y-105600013D01*
X86150000Y-106000000D01*
X87201518Y-106000000D01*
X87190889Y-106018409D01*
X87150000Y-106171009D01*
X87150000Y-106328991D01*
X87190889Y-106481591D01*
X87201518Y-106500000D01*
X86150001Y-106500000D01*
X86150001Y-106899986D01*
X86160494Y-107002697D01*
X86215641Y-107169119D01*
X86215643Y-107169124D01*
X86307684Y-107318345D01*
X86431654Y-107442315D01*
X86580875Y-107534356D01*
X86580880Y-107534358D01*
X86747302Y-107589505D01*
X86747309Y-107589506D01*
X86850019Y-107599999D01*
X87499999Y-107599999D01*
X87500000Y-107599998D01*
X87500000Y-106798482D01*
X87518409Y-106809111D01*
X87671009Y-106850000D01*
X87828991Y-106850000D01*
X87981591Y-106809111D01*
X88000000Y-106798482D01*
X88000000Y-107599999D01*
X88649972Y-107599999D01*
X88649986Y-107599998D01*
X88752697Y-107589505D01*
X88919119Y-107534358D01*
X88919124Y-107534356D01*
X89068345Y-107442315D01*
X89192315Y-107318345D01*
X89284356Y-107169124D01*
X89284358Y-107169119D01*
X89339505Y-107002697D01*
X89339506Y-107002690D01*
X89349999Y-106899986D01*
X89350000Y-106899973D01*
X89350000Y-106500000D01*
X88298482Y-106500000D01*
X88309111Y-106481591D01*
X88350000Y-106328991D01*
X88350000Y-106171009D01*
X88309111Y-106018409D01*
X88298482Y-106000000D01*
X89349999Y-106000000D01*
X89349999Y-105600028D01*
X89349998Y-105600013D01*
X89339505Y-105497302D01*
X89284358Y-105330880D01*
X89284356Y-105330875D01*
X89192315Y-105181654D01*
X89068345Y-105057684D01*
X88913515Y-104962184D01*
X88866791Y-104910236D01*
X88855568Y-104841273D01*
X88883412Y-104777191D01*
X88890909Y-104768986D01*
X89030104Y-104629792D01*
X89059708Y-104589046D01*
X89155048Y-104457820D01*
X89155047Y-104457820D01*
X89155051Y-104457816D01*
X89251557Y-104268412D01*
X89317246Y-104066243D01*
X89350500Y-103856287D01*
X89350500Y-103643713D01*
X89317246Y-103433757D01*
X89251557Y-103231588D01*
X89155051Y-103042184D01*
X89155049Y-103042181D01*
X89155048Y-103042179D01*
X89030109Y-102870213D01*
X88879792Y-102719896D01*
X88826648Y-102681285D01*
X88715204Y-102600316D01*
X88672540Y-102544989D01*
X88666561Y-102475376D01*
X88699166Y-102413580D01*
X88715199Y-102399686D01*
X88879792Y-102280104D01*
X89030104Y-102129792D01*
X89030106Y-102129788D01*
X89030109Y-102129786D01*
X89102619Y-102029983D01*
X93649500Y-102029983D01*
X93649500Y-103830001D01*
X93649501Y-103830018D01*
X93660000Y-103932796D01*
X93660001Y-103932799D01*
X93707288Y-104075499D01*
X93715186Y-104099334D01*
X93807288Y-104248656D01*
X93931344Y-104372712D01*
X94080666Y-104464814D01*
X94247203Y-104519999D01*
X94349991Y-104530500D01*
X95650008Y-104530499D01*
X95752797Y-104519999D01*
X95919334Y-104464814D01*
X96068656Y-104372712D01*
X96192712Y-104248656D01*
X96284814Y-104099334D01*
X96284814Y-104099331D01*
X96288178Y-104093879D01*
X96340126Y-104047154D01*
X96409088Y-104035931D01*
X96473170Y-104063774D01*
X96481398Y-104071294D01*
X96620213Y-104210109D01*
X96792179Y-104335048D01*
X96792181Y-104335049D01*
X96792184Y-104335051D01*
X96981588Y-104431557D01*
X97183757Y-104497246D01*
X97393713Y-104530500D01*
X97393714Y-104530500D01*
X97606286Y-104530500D01*
X97606287Y-104530500D01*
X97816243Y-104497246D01*
X98018412Y-104431557D01*
X98207816Y-104335051D01*
X98229789Y-104319086D01*
X98379786Y-104210109D01*
X98379788Y-104210106D01*
X98379792Y-104210104D01*
X98530104Y-104059792D01*
X98530106Y-104059788D01*
X98530109Y-104059786D01*
X98655048Y-103887820D01*
X98655047Y-103887820D01*
X98655051Y-103887816D01*
X98751557Y-103698412D01*
X98817246Y-103496243D01*
X98850500Y-103286287D01*
X98850500Y-102573713D01*
X98817246Y-102363757D01*
X98751557Y-102161588D01*
X98655051Y-101972184D01*
X98655049Y-101972181D01*
X98655048Y-101972179D01*
X98530109Y-101800213D01*
X98379786Y-101649890D01*
X98207820Y-101524951D01*
X98018414Y-101428444D01*
X98018413Y-101428443D01*
X98018412Y-101428443D01*
X97816243Y-101362754D01*
X97816241Y-101362753D01*
X97816240Y-101362753D01*
X97651177Y-101336610D01*
X97606287Y-101329500D01*
X97393713Y-101329500D01*
X97348823Y-101336610D01*
X97183760Y-101362753D01*
X96981585Y-101428444D01*
X96792179Y-101524951D01*
X96620215Y-101649889D01*
X96481398Y-101788706D01*
X96420075Y-101822190D01*
X96350383Y-101817206D01*
X96294450Y-101775334D01*
X96288178Y-101766120D01*
X96192712Y-101611344D01*
X96068657Y-101487289D01*
X96068656Y-101487288D01*
X95919334Y-101395186D01*
X95752797Y-101340001D01*
X95752795Y-101340000D01*
X95650010Y-101329500D01*
X94349998Y-101329500D01*
X94349981Y-101329501D01*
X94247203Y-101340000D01*
X94247200Y-101340001D01*
X94080668Y-101395185D01*
X94080663Y-101395187D01*
X93931342Y-101487289D01*
X93807289Y-101611342D01*
X93715187Y-101760663D01*
X93715185Y-101760668D01*
X93710325Y-101775334D01*
X93660001Y-101927203D01*
X93660001Y-101927204D01*
X93660000Y-101927204D01*
X93649500Y-102029983D01*
X89102619Y-102029983D01*
X89155048Y-101957820D01*
X89155047Y-101957820D01*
X89155051Y-101957816D01*
X89251557Y-101768412D01*
X89317246Y-101566243D01*
X89350500Y-101356287D01*
X89350500Y-101143713D01*
X89317246Y-100933757D01*
X89251557Y-100731588D01*
X89155051Y-100542184D01*
X89155049Y-100542181D01*
X89155048Y-100542179D01*
X89030109Y-100370213D01*
X88879786Y-100219890D01*
X88707820Y-100094951D01*
X88518414Y-99998444D01*
X88518413Y-99998443D01*
X88518412Y-99998443D01*
X88316243Y-99932754D01*
X88316241Y-99932753D01*
X88316240Y-99932753D01*
X88154957Y-99907208D01*
X88106287Y-99899500D01*
X87393713Y-99899500D01*
X87345042Y-99907208D01*
X87183760Y-99932753D01*
X86981585Y-99998444D01*
X86792179Y-100094951D01*
X86620213Y-100219890D01*
X86469890Y-100370213D01*
X86344951Y-100542179D01*
X86248444Y-100731585D01*
X86182753Y-100933760D01*
X86149500Y-101143713D01*
X81667384Y-101143713D01*
X81643402Y-100992299D01*
X81589873Y-100827555D01*
X81511232Y-100673212D01*
X81409414Y-100533072D01*
X81286928Y-100410586D01*
X81146788Y-100308768D01*
X80992445Y-100230127D01*
X80827701Y-100176598D01*
X80827699Y-100176597D01*
X80827698Y-100176597D01*
X80696271Y-100155781D01*
X80656611Y-100149500D01*
X80483389Y-100149500D01*
X80443728Y-100155781D01*
X80312302Y-100176597D01*
X80147552Y-100230128D01*
X79993211Y-100308768D01*
X79913256Y-100366859D01*
X79853072Y-100410586D01*
X79853070Y-100410588D01*
X79853069Y-100410588D01*
X79730588Y-100533069D01*
X79730588Y-100533070D01*
X79730586Y-100533072D01*
X79713721Y-100556285D01*
X79628768Y-100673211D01*
X79550128Y-100827552D01*
X79496597Y-100992302D01*
X79475565Y-101125097D01*
X79469500Y-101163389D01*
X73750500Y-101163389D01*
X73750500Y-95249992D01*
X76474671Y-95249992D01*
X76474671Y-95250007D01*
X76493964Y-95544363D01*
X76493965Y-95544373D01*
X76493966Y-95544380D01*
X76549531Y-95823730D01*
X76551518Y-95833716D01*
X76551521Y-95833730D01*
X76646349Y-96113080D01*
X76776825Y-96377660D01*
X76776829Y-96377667D01*
X76940725Y-96622955D01*
X77135241Y-96844758D01*
X77357044Y-97039274D01*
X77548049Y-97166899D01*
X77602335Y-97203172D01*
X77866923Y-97333652D01*
X78146278Y-97428481D01*
X78435620Y-97486034D01*
X78463888Y-97487886D01*
X78729993Y-97505329D01*
X78730000Y-97505329D01*
X78730007Y-97505329D01*
X78965675Y-97489881D01*
X79024380Y-97486034D01*
X79313722Y-97428481D01*
X79593077Y-97333652D01*
X79857665Y-97203172D01*
X80102957Y-97039273D01*
X80324758Y-96844758D01*
X80519273Y-96622957D01*
X80683172Y-96377665D01*
X80813652Y-96113077D01*
X80908481Y-95833722D01*
X80942362Y-95663389D01*
X93899500Y-95663389D01*
X93899500Y-95836611D01*
X93926598Y-96007701D01*
X93980127Y-96172445D01*
X94058768Y-96326788D01*
X94160586Y-96466928D01*
X94283072Y-96589414D01*
X94423212Y-96691232D01*
X94577555Y-96769873D01*
X94742299Y-96823402D01*
X94913389Y-96850500D01*
X94913390Y-96850500D01*
X95086610Y-96850500D01*
X95086611Y-96850500D01*
X95257701Y-96823402D01*
X95422445Y-96769873D01*
X95576788Y-96691232D01*
X95716928Y-96589414D01*
X95839414Y-96466928D01*
X95941232Y-96326788D01*
X96019873Y-96172445D01*
X96073402Y-96007701D01*
X96100500Y-95836611D01*
X96100500Y-95663389D01*
X96399500Y-95663389D01*
X96399500Y-95836611D01*
X96426598Y-96007701D01*
X96480127Y-96172445D01*
X96558768Y-96326788D01*
X96660586Y-96466928D01*
X96783072Y-96589414D01*
X96923212Y-96691232D01*
X97077555Y-96769873D01*
X97242299Y-96823402D01*
X97413389Y-96850500D01*
X97413390Y-96850500D01*
X97586610Y-96850500D01*
X97586611Y-96850500D01*
X97757701Y-96823402D01*
X97922445Y-96769873D01*
X98076788Y-96691232D01*
X98216928Y-96589414D01*
X98339414Y-96466928D01*
X98441232Y-96326788D01*
X98519873Y-96172445D01*
X98573402Y-96007701D01*
X98600500Y-95836611D01*
X98600500Y-95663389D01*
X104649500Y-95663389D01*
X104649500Y-95836611D01*
X104676598Y-96007701D01*
X104730127Y-96172445D01*
X104808768Y-96326788D01*
X104910586Y-96466928D01*
X105033072Y-96589414D01*
X105173212Y-96691232D01*
X105327555Y-96769873D01*
X105492299Y-96823402D01*
X105663389Y-96850500D01*
X105663390Y-96850500D01*
X105836610Y-96850500D01*
X105836611Y-96850500D01*
X106007701Y-96823402D01*
X106172445Y-96769873D01*
X106326788Y-96691232D01*
X106466928Y-96589414D01*
X106589414Y-96466928D01*
X106691232Y-96326788D01*
X106769873Y-96172445D01*
X106823402Y-96007701D01*
X106850500Y-95836611D01*
X106850500Y-95663389D01*
X107149500Y-95663389D01*
X107149500Y-95836611D01*
X107176598Y-96007701D01*
X107230127Y-96172445D01*
X107308768Y-96326788D01*
X107410586Y-96466928D01*
X107533072Y-96589414D01*
X107673212Y-96691232D01*
X107827555Y-96769873D01*
X107992299Y-96823402D01*
X108163389Y-96850500D01*
X108163390Y-96850500D01*
X108336610Y-96850500D01*
X108336611Y-96850500D01*
X108507701Y-96823402D01*
X108672445Y-96769873D01*
X108826788Y-96691232D01*
X108966928Y-96589414D01*
X109089414Y-96466928D01*
X109191232Y-96326788D01*
X109269873Y-96172445D01*
X109323402Y-96007701D01*
X109350500Y-95836611D01*
X109350500Y-95663389D01*
X109323402Y-95492299D01*
X109269873Y-95327555D01*
X109191232Y-95173212D01*
X109089414Y-95033072D01*
X108966928Y-94910586D01*
X108826788Y-94808768D01*
X108672445Y-94730127D01*
X108507701Y-94676598D01*
X108507699Y-94676597D01*
X108507698Y-94676597D01*
X108376271Y-94655781D01*
X108336611Y-94649500D01*
X108163389Y-94649500D01*
X108123728Y-94655781D01*
X107992302Y-94676597D01*
X107827552Y-94730128D01*
X107673211Y-94808768D01*
X107593256Y-94866859D01*
X107533072Y-94910586D01*
X107533070Y-94910588D01*
X107533069Y-94910588D01*
X107410588Y-95033069D01*
X107410588Y-95033070D01*
X107410586Y-95033072D01*
X107393444Y-95056666D01*
X107308768Y-95173211D01*
X107230128Y-95327552D01*
X107176597Y-95492302D01*
X107159541Y-95599991D01*
X107149500Y-95663389D01*
X106850500Y-95663389D01*
X106823402Y-95492299D01*
X106769873Y-95327555D01*
X106691232Y-95173212D01*
X106589414Y-95033072D01*
X106466928Y-94910586D01*
X106326788Y-94808768D01*
X106172445Y-94730127D01*
X106007701Y-94676598D01*
X106007699Y-94676597D01*
X106007698Y-94676597D01*
X105876271Y-94655781D01*
X105836611Y-94649500D01*
X105663389Y-94649500D01*
X105623728Y-94655781D01*
X105492302Y-94676597D01*
X105327552Y-94730128D01*
X105173211Y-94808768D01*
X105093256Y-94866859D01*
X105033072Y-94910586D01*
X105033070Y-94910588D01*
X105033069Y-94910588D01*
X104910588Y-95033069D01*
X104910588Y-95033070D01*
X104910586Y-95033072D01*
X104893444Y-95056666D01*
X104808768Y-95173211D01*
X104730128Y-95327552D01*
X104676597Y-95492302D01*
X104659541Y-95599991D01*
X104649500Y-95663389D01*
X98600500Y-95663389D01*
X98573402Y-95492299D01*
X98519873Y-95327555D01*
X98441232Y-95173212D01*
X98339414Y-95033072D01*
X98216928Y-94910586D01*
X98076788Y-94808768D01*
X97922445Y-94730127D01*
X97757701Y-94676598D01*
X97757699Y-94676597D01*
X97757698Y-94676597D01*
X97626271Y-94655781D01*
X97586611Y-94649500D01*
X97413389Y-94649500D01*
X97373728Y-94655781D01*
X97242302Y-94676597D01*
X97077552Y-94730128D01*
X96923211Y-94808768D01*
X96843256Y-94866859D01*
X96783072Y-94910586D01*
X96783070Y-94910588D01*
X96783069Y-94910588D01*
X96660588Y-95033069D01*
X96660588Y-95033070D01*
X96660586Y-95033072D01*
X96643444Y-95056666D01*
X96558768Y-95173211D01*
X96480128Y-95327552D01*
X96426597Y-95492302D01*
X96409541Y-95599991D01*
X96399500Y-95663389D01*
X96100500Y-95663389D01*
X96073402Y-95492299D01*
X96019873Y-95327555D01*
X95941232Y-95173212D01*
X95839414Y-95033072D01*
X95716928Y-94910586D01*
X95576788Y-94808768D01*
X95422445Y-94730127D01*
X95257701Y-94676598D01*
X95257699Y-94676597D01*
X95257698Y-94676597D01*
X95126271Y-94655781D01*
X95086611Y-94649500D01*
X94913389Y-94649500D01*
X94873728Y-94655781D01*
X94742302Y-94676597D01*
X94577552Y-94730128D01*
X94423211Y-94808768D01*
X94343256Y-94866859D01*
X94283072Y-94910586D01*
X94283070Y-94910588D01*
X94283069Y-94910588D01*
X94160588Y-95033069D01*
X94160588Y-95033070D01*
X94160586Y-95033072D01*
X94143444Y-95056666D01*
X94058768Y-95173211D01*
X93980128Y-95327552D01*
X93926597Y-95492302D01*
X93909541Y-95599991D01*
X93899500Y-95663389D01*
X80942362Y-95663389D01*
X80966034Y-95544380D01*
X80985329Y-95250000D01*
X80985329Y-95249992D01*
X80966035Y-94955636D01*
X80966034Y-94955620D01*
X80908481Y-94666278D01*
X80813652Y-94386923D01*
X80683172Y-94122336D01*
X80676490Y-94112336D01*
X80595082Y-93990500D01*
X80519273Y-93877043D01*
X80476655Y-93828447D01*
X80324758Y-93655241D01*
X80102955Y-93460725D01*
X79857667Y-93296829D01*
X79857660Y-93296825D01*
X79593080Y-93166349D01*
X79313730Y-93071521D01*
X79313724Y-93071519D01*
X79313722Y-93071519D01*
X79024380Y-93013966D01*
X79024373Y-93013965D01*
X79024363Y-93013964D01*
X78730007Y-92994671D01*
X78729993Y-92994671D01*
X78435636Y-93013964D01*
X78435624Y-93013965D01*
X78435620Y-93013966D01*
X78435612Y-93013967D01*
X78435609Y-93013968D01*
X78146283Y-93071518D01*
X78146269Y-93071521D01*
X77866919Y-93166349D01*
X77602334Y-93296828D01*
X77357041Y-93460728D01*
X77135241Y-93655241D01*
X76940728Y-93877041D01*
X76776828Y-94122334D01*
X76646349Y-94386919D01*
X76551521Y-94666269D01*
X76551518Y-94666283D01*
X76493968Y-94955609D01*
X76493964Y-94955636D01*
X76474671Y-95249992D01*
X73750500Y-95249992D01*
X73750500Y-91374500D01*
X73770185Y-91307461D01*
X73822989Y-91261706D01*
X73874500Y-91250500D01*
X212625500Y-91250500D01*
X212692539Y-91270185D01*
G37*
%TD.AperFunction*%
%TD*%
M02*
