%TF.GenerationSoftware,KiCad,Pcbnew,8.0.8+dfsg-1*%
%TF.CreationDate,2025-04-05T15:10:42-07:00*%
%TF.ProjectId,TSSI,54535349-2e6b-4696-9361-645f70636258,rev?*%
%TF.SameCoordinates,Original*%
%TF.FileFunction,Paste,Bot*%
%TF.FilePolarity,Positive*%
%FSLAX46Y46*%
G04 Gerber Fmt 4.6, Leading zero omitted, Abs format (unit mm)*
G04 Created by KiCad (PCBNEW 8.0.8+dfsg-1) date 2025-04-05 15:10:42*
%MOMM*%
%LPD*%
G01*
G04 APERTURE LIST*
G04 Aperture macros list*
%AMRoundRect*
0 Rectangle with rounded corners*
0 $1 Rounding radius*
0 $2 $3 $4 $5 $6 $7 $8 $9 X,Y pos of 4 corners*
0 Add a 4 corners polygon primitive as box body*
4,1,4,$2,$3,$4,$5,$6,$7,$8,$9,$2,$3,0*
0 Add four circle primitives for the rounded corners*
1,1,$1+$1,$2,$3*
1,1,$1+$1,$4,$5*
1,1,$1+$1,$6,$7*
1,1,$1+$1,$8,$9*
0 Add four rect primitives between the rounded corners*
20,1,$1+$1,$2,$3,$4,$5,0*
20,1,$1+$1,$4,$5,$6,$7,0*
20,1,$1+$1,$6,$7,$8,$9,0*
20,1,$1+$1,$8,$9,$2,$3,0*%
G04 Aperture macros list end*
%ADD10R,0.750000X1.150000*%
%ADD11RoundRect,0.250000X-0.450000X0.350000X-0.450000X-0.350000X0.450000X-0.350000X0.450000X0.350000X0*%
G04 APERTURE END LIST*
D10*
%TO.C,D54*%
X175750000Y-114750000D03*
X177200000Y-114750000D03*
X177200000Y-117900000D03*
X175750000Y-117900000D03*
%TD*%
D11*
%TO.C,R22*%
X176250000Y-96750000D03*
X176250000Y-98750000D03*
%TD*%
%TO.C,R25*%
X161250000Y-96750000D03*
X161250000Y-98750000D03*
%TD*%
%TO.C,R31*%
X131250000Y-96750000D03*
X131250000Y-98750000D03*
%TD*%
D10*
%TO.C,D45*%
X190750000Y-114750000D03*
X192200000Y-114750000D03*
X192200000Y-117900000D03*
X190750000Y-117900000D03*
%TD*%
%TO.C,D83*%
X125800000Y-108250000D03*
X127250000Y-108250000D03*
X127250000Y-111400000D03*
X125800000Y-111400000D03*
%TD*%
%TO.C,D73*%
X140750000Y-101750000D03*
X142200000Y-101750000D03*
X142200000Y-104900000D03*
X140750000Y-104900000D03*
%TD*%
D11*
%TO.C,R26*%
X156250000Y-96750000D03*
X156250000Y-98750000D03*
%TD*%
%TO.C,R24*%
X166250000Y-96750000D03*
X166250000Y-98750000D03*
%TD*%
D10*
%TO.C,D61*%
X160750000Y-101750000D03*
X162200000Y-101750000D03*
X162200000Y-104900000D03*
X160750000Y-104900000D03*
%TD*%
%TO.C,D47*%
X185630755Y-108250000D03*
X187080755Y-108250000D03*
X187080755Y-111400000D03*
X185630755Y-111400000D03*
%TD*%
%TO.C,D55*%
X170750000Y-101750000D03*
X172200000Y-101750000D03*
X172200000Y-104900000D03*
X170750000Y-104900000D03*
%TD*%
D11*
%TO.C,R32*%
X126250000Y-96750000D03*
X126250000Y-98750000D03*
%TD*%
D10*
%TO.C,D43*%
X190700000Y-101750000D03*
X192150000Y-101750000D03*
X192150000Y-104900000D03*
X190700000Y-104900000D03*
%TD*%
D11*
%TO.C,R20*%
X186250000Y-96747216D03*
X186250000Y-98747216D03*
%TD*%
D10*
%TO.C,D79*%
X130750000Y-101750000D03*
X132200000Y-101750000D03*
X132200000Y-104900000D03*
X130750000Y-104900000D03*
%TD*%
%TO.C,D71*%
X145750000Y-108250000D03*
X147200000Y-108250000D03*
X147200000Y-111400000D03*
X145750000Y-111400000D03*
%TD*%
%TO.C,D46*%
X185580755Y-101750000D03*
X187030755Y-101750000D03*
X187030755Y-104900000D03*
X185580755Y-104900000D03*
%TD*%
D11*
%TO.C,R19*%
X191200000Y-96750000D03*
X191200000Y-98750000D03*
%TD*%
D10*
%TO.C,D52*%
X175750000Y-101750000D03*
X177200000Y-101750000D03*
X177200000Y-104900000D03*
X175750000Y-104900000D03*
%TD*%
%TO.C,D82*%
X125750000Y-101750000D03*
X127200000Y-101750000D03*
X127200000Y-104900000D03*
X125750000Y-104900000D03*
%TD*%
%TO.C,D78*%
X135750000Y-114750000D03*
X137200000Y-114750000D03*
X137200000Y-117900000D03*
X135750000Y-117900000D03*
%TD*%
%TO.C,D60*%
X165750000Y-114750000D03*
X167200000Y-114750000D03*
X167200000Y-117900000D03*
X165750000Y-117900000D03*
%TD*%
D11*
%TO.C,R21*%
X181250000Y-96750000D03*
X181250000Y-98750000D03*
%TD*%
D10*
%TO.C,D76*%
X135750000Y-101750000D03*
X137200000Y-101750000D03*
X137200000Y-104900000D03*
X135750000Y-104900000D03*
%TD*%
%TO.C,D74*%
X140750000Y-108250000D03*
X142200000Y-108250000D03*
X142200000Y-111400000D03*
X140750000Y-111400000D03*
%TD*%
%TO.C,D70*%
X145750000Y-101750000D03*
X147200000Y-101750000D03*
X147200000Y-104900000D03*
X145750000Y-104900000D03*
%TD*%
%TO.C,D64*%
X155750000Y-101750000D03*
X157200000Y-101750000D03*
X157200000Y-104900000D03*
X155750000Y-104900000D03*
%TD*%
D11*
%TO.C,R29*%
X141250000Y-96750000D03*
X141250000Y-98750000D03*
%TD*%
D10*
%TO.C,D81*%
X130750000Y-114750000D03*
X132200000Y-114750000D03*
X132200000Y-117900000D03*
X130750000Y-117900000D03*
%TD*%
%TO.C,D75*%
X140750000Y-114750000D03*
X142200000Y-114750000D03*
X142200000Y-117900000D03*
X140750000Y-117900000D03*
%TD*%
%TO.C,D80*%
X130750000Y-108250000D03*
X132200000Y-108250000D03*
X132200000Y-111400000D03*
X130750000Y-111400000D03*
%TD*%
%TO.C,D58*%
X165800000Y-101750000D03*
X167250000Y-101750000D03*
X167250000Y-104900000D03*
X165800000Y-104900000D03*
%TD*%
D11*
%TO.C,R30*%
X136250000Y-96750000D03*
X136250000Y-98750000D03*
%TD*%
D10*
%TO.C,D49*%
X180750000Y-101750000D03*
X182200000Y-101750000D03*
X182200000Y-104900000D03*
X180750000Y-104900000D03*
%TD*%
%TO.C,D65*%
X155750000Y-108250000D03*
X157200000Y-108250000D03*
X157200000Y-111400000D03*
X155750000Y-111400000D03*
%TD*%
%TO.C,D68*%
X150750000Y-108250000D03*
X152200000Y-108250000D03*
X152200000Y-111400000D03*
X150750000Y-111400000D03*
%TD*%
%TO.C,D63*%
X160750000Y-114750000D03*
X162200000Y-114750000D03*
X162200000Y-117900000D03*
X160750000Y-117900000D03*
%TD*%
%TO.C,D50*%
X180750000Y-108250000D03*
X182200000Y-108250000D03*
X182200000Y-111400000D03*
X180750000Y-111400000D03*
%TD*%
%TO.C,D57*%
X170800000Y-114750000D03*
X172250000Y-114750000D03*
X172250000Y-117900000D03*
X170800000Y-117900000D03*
%TD*%
%TO.C,D77*%
X135750000Y-108250000D03*
X137200000Y-108250000D03*
X137200000Y-111400000D03*
X135750000Y-111400000D03*
%TD*%
%TO.C,D62*%
X160750000Y-108250000D03*
X162200000Y-108250000D03*
X162200000Y-111400000D03*
X160750000Y-111400000D03*
%TD*%
%TO.C,D53*%
X175800000Y-108250000D03*
X177250000Y-108250000D03*
X177250000Y-111400000D03*
X175800000Y-111400000D03*
%TD*%
%TO.C,D72*%
X145750000Y-114750000D03*
X147200000Y-114750000D03*
X147200000Y-117900000D03*
X145750000Y-117900000D03*
%TD*%
%TO.C,D56*%
X170750000Y-108250000D03*
X172200000Y-108250000D03*
X172200000Y-111400000D03*
X170750000Y-111400000D03*
%TD*%
%TO.C,D69*%
X150750000Y-114750000D03*
X152200000Y-114750000D03*
X152200000Y-117900000D03*
X150750000Y-117900000D03*
%TD*%
%TO.C,D51*%
X180750000Y-114750000D03*
X182200000Y-114750000D03*
X182200000Y-117900000D03*
X180750000Y-117900000D03*
%TD*%
D11*
%TO.C,R28*%
X146250000Y-96750000D03*
X146250000Y-98750000D03*
%TD*%
D10*
%TO.C,D44*%
X190750000Y-108250000D03*
X192200000Y-108250000D03*
X192200000Y-111400000D03*
X190750000Y-111400000D03*
%TD*%
D11*
%TO.C,R27*%
X151250000Y-96750000D03*
X151250000Y-98750000D03*
%TD*%
D10*
%TO.C,D84*%
X125750000Y-114750000D03*
X127200000Y-114750000D03*
X127200000Y-117900000D03*
X125750000Y-117900000D03*
%TD*%
%TO.C,D59*%
X165800000Y-108250000D03*
X167250000Y-108250000D03*
X167250000Y-111400000D03*
X165800000Y-111400000D03*
%TD*%
D11*
%TO.C,R23*%
X171250000Y-96750000D03*
X171250000Y-98750000D03*
%TD*%
D10*
%TO.C,D66*%
X155750000Y-114750000D03*
X157200000Y-114750000D03*
X157200000Y-117900000D03*
X155750000Y-117900000D03*
%TD*%
%TO.C,D48*%
X185630755Y-114750000D03*
X187080755Y-114750000D03*
X187080755Y-117900000D03*
X185630755Y-117900000D03*
%TD*%
%TO.C,D67*%
X150750000Y-101750000D03*
X152200000Y-101750000D03*
X152200000Y-104900000D03*
X150750000Y-104900000D03*
%TD*%
M02*
