%TF.GenerationSoftware,KiCad,Pcbnew,8.0.9-8.0.9-0~ubuntu25.04.1*%
%TF.CreationDate,2025-05-05T12:51:32-07:00*%
%TF.ProjectId,TSSI,54535349-2e6b-4696-9361-645f70636258,3*%
%TF.SameCoordinates,Original*%
%TF.FileFunction,Paste,Top*%
%TF.FilePolarity,Positive*%
%FSLAX46Y46*%
G04 Gerber Fmt 4.6, Leading zero omitted, Abs format (unit mm)*
G04 Created by KiCad (PCBNEW 8.0.9-8.0.9-0~ubuntu25.04.1) date 2025-05-05 12:51:32*
%MOMM*%
%LPD*%
G01*
G04 APERTURE LIST*
G04 Aperture macros list*
%AMRoundRect*
0 Rectangle with rounded corners*
0 $1 Rounding radius*
0 $2 $3 $4 $5 $6 $7 $8 $9 X,Y pos of 4 corners*
0 Add a 4 corners polygon primitive as box body*
4,1,4,$2,$3,$4,$5,$6,$7,$8,$9,$2,$3,0*
0 Add four circle primitives for the rounded corners*
1,1,$1+$1,$2,$3*
1,1,$1+$1,$4,$5*
1,1,$1+$1,$6,$7*
1,1,$1+$1,$8,$9*
0 Add four rect primitives between the rounded corners*
20,1,$1+$1,$2,$3,$4,$5,0*
20,1,$1+$1,$4,$5,$6,$7,0*
20,1,$1+$1,$6,$7,$8,$9,0*
20,1,$1+$1,$8,$9,$2,$3,0*%
G04 Aperture macros list end*
%ADD10RoundRect,0.250000X-0.337500X-0.475000X0.337500X-0.475000X0.337500X0.475000X-0.337500X0.475000X0*%
%ADD11RoundRect,0.250000X-0.475000X0.337500X-0.475000X-0.337500X0.475000X-0.337500X0.475000X0.337500X0*%
%ADD12R,0.750000X1.150000*%
%ADD13RoundRect,0.250000X-0.450000X0.350000X-0.450000X-0.350000X0.450000X-0.350000X0.450000X0.350000X0*%
%ADD14RoundRect,0.250000X0.475000X-0.337500X0.475000X0.337500X-0.475000X0.337500X-0.475000X-0.337500X0*%
%ADD15RoundRect,0.250000X0.337500X0.475000X-0.337500X0.475000X-0.337500X-0.475000X0.337500X-0.475000X0*%
%ADD16R,2.500000X2.000000*%
%ADD17R,0.558800X0.863600*%
%ADD18RoundRect,0.050000X-0.150000X0.545000X-0.150000X-0.545000X0.150000X-0.545000X0.150000X0.545000X0*%
%ADD19R,1.981200X0.558800*%
%ADD20R,1.500000X2.800000*%
%ADD21R,6.300000X6.100000*%
G04 APERTURE END LIST*
D10*
%TO.C,C5*%
X96712500Y-109500000D03*
X98787500Y-109500000D03*
%TD*%
D11*
%TO.C,C2*%
X92150000Y-115520000D03*
X92150000Y-117595000D03*
%TD*%
D12*
%TO.C,D8*%
X144800000Y-107350000D03*
X143350000Y-107350000D03*
X143350000Y-110500000D03*
X144800000Y-110500000D03*
%TD*%
D13*
%TO.C,R11*%
X170800000Y-94100000D03*
X170800000Y-96100000D03*
%TD*%
D12*
%TO.C,D24*%
X176800000Y-114850000D03*
X175350000Y-114850000D03*
X175350000Y-118000000D03*
X176800000Y-118000000D03*
%TD*%
%TO.C,D28*%
X187400000Y-99850000D03*
X185950000Y-99850000D03*
X185950000Y-103000000D03*
X187400000Y-103000000D03*
%TD*%
%TO.C,D5*%
X139500000Y-107350000D03*
X138050000Y-107350000D03*
X138050000Y-110500000D03*
X139500000Y-110500000D03*
%TD*%
%TO.C,D12*%
X150150000Y-114850000D03*
X148700000Y-114850000D03*
X148700000Y-118000000D03*
X150150000Y-118000000D03*
%TD*%
%TO.C,D20*%
X171500000Y-107350000D03*
X170050000Y-107350000D03*
X170050000Y-110500000D03*
X171500000Y-110500000D03*
%TD*%
D11*
%TO.C,C1*%
X92150000Y-111492500D03*
X92150000Y-113567500D03*
%TD*%
D14*
%TO.C,C6*%
X118000000Y-113500000D03*
X118000000Y-111425000D03*
%TD*%
D12*
%TO.C,D16*%
X166150000Y-99850000D03*
X164700000Y-99850000D03*
X164700000Y-103000000D03*
X166150000Y-103000000D03*
%TD*%
%TO.C,D11*%
X150150000Y-107350000D03*
X148700000Y-107350000D03*
X148700000Y-110500000D03*
X150150000Y-110500000D03*
%TD*%
%TO.C,D14*%
X155500000Y-107350000D03*
X154050000Y-107350000D03*
X154050000Y-110500000D03*
X155500000Y-110500000D03*
%TD*%
%TO.C,D29*%
X187400000Y-107350000D03*
X185950000Y-107350000D03*
X185950000Y-110500000D03*
X187400000Y-110500000D03*
%TD*%
%TO.C,D23*%
X176800000Y-107350000D03*
X175350000Y-107350000D03*
X175350000Y-110500000D03*
X176800000Y-110500000D03*
%TD*%
D15*
%TO.C,C3*%
X119787500Y-107250000D03*
X117712500Y-107250000D03*
%TD*%
D12*
%TO.C,D21*%
X171500000Y-114850000D03*
X170050000Y-114850000D03*
X170050000Y-118000000D03*
X171500000Y-118000000D03*
%TD*%
D16*
%TO.C,L1*%
X202750000Y-114750000D03*
X202750000Y-99750000D03*
%TD*%
D12*
%TO.C,D26*%
X182100000Y-107350000D03*
X180650000Y-107350000D03*
X180650000Y-110500000D03*
X182100000Y-110500000D03*
%TD*%
%TO.C,D30*%
X187400000Y-114850000D03*
X185950000Y-114850000D03*
X185950000Y-118000000D03*
X187400000Y-118000000D03*
%TD*%
D17*
%TO.C,CR2*%
X123500002Y-111000000D03*
X121600000Y-111000000D03*
X122550001Y-113387600D03*
%TD*%
D11*
%TO.C,C4*%
X113250000Y-94212500D03*
X113250000Y-96287500D03*
%TD*%
D13*
%TO.C,R14*%
X186600000Y-94000000D03*
X186600000Y-96000000D03*
%TD*%
D12*
%TO.C,D3*%
X134200000Y-114850000D03*
X132750000Y-114850000D03*
X132750000Y-118000000D03*
X134200000Y-118000000D03*
%TD*%
D17*
%TO.C,CR4*%
X113000000Y-105500000D03*
X111099998Y-105500000D03*
X112049999Y-107887600D03*
%TD*%
D18*
%TO.C,U1*%
X110650000Y-111500000D03*
X110000000Y-111500000D03*
X109350000Y-111500000D03*
X109350000Y-113420000D03*
X110650000Y-113420000D03*
%TD*%
D13*
%TO.C,R7*%
X144100000Y-94100000D03*
X144100000Y-96100000D03*
%TD*%
D19*
%TO.C,U3*%
X95322400Y-111480000D03*
X95322400Y-112750000D03*
X95322400Y-114020000D03*
X95322400Y-115290000D03*
X100250000Y-115290000D03*
X100250000Y-114020000D03*
X100250000Y-112750000D03*
X100250000Y-111480000D03*
%TD*%
D12*
%TO.C,D22*%
X176800000Y-99850000D03*
X175350000Y-99850000D03*
X175350000Y-103000000D03*
X176800000Y-103000000D03*
%TD*%
%TO.C,D1*%
X134200000Y-99850000D03*
X132750000Y-99850000D03*
X132750000Y-103000000D03*
X134200000Y-103000000D03*
%TD*%
%TO.C,D27*%
X182100000Y-114850000D03*
X180650000Y-114850000D03*
X180650000Y-118000000D03*
X182100000Y-118000000D03*
%TD*%
%TO.C,D6*%
X139500000Y-114850000D03*
X138050000Y-114850000D03*
X138050000Y-118000000D03*
X139500000Y-118000000D03*
%TD*%
%TO.C,D17*%
X166150000Y-107350000D03*
X164700000Y-107350000D03*
X164700000Y-110500000D03*
X166150000Y-110500000D03*
%TD*%
%TO.C,D18*%
X166150000Y-114850000D03*
X164700000Y-114850000D03*
X164700000Y-118000000D03*
X166150000Y-118000000D03*
%TD*%
D17*
%TO.C,CR3*%
X120200002Y-117306200D03*
X118300000Y-117306200D03*
X119250001Y-119693800D03*
%TD*%
D12*
%TO.C,D2*%
X134200000Y-107350000D03*
X132750000Y-107350000D03*
X132750000Y-110500000D03*
X134200000Y-110500000D03*
%TD*%
D13*
%TO.C,R4*%
X103500000Y-115520000D03*
X103500000Y-117520000D03*
%TD*%
%TO.C,R9*%
X154800000Y-94100000D03*
X154800000Y-96100000D03*
%TD*%
%TO.C,R13*%
X181400000Y-94000000D03*
X181400000Y-96000000D03*
%TD*%
%TO.C,R6*%
X138800000Y-94100000D03*
X138800000Y-96100000D03*
%TD*%
D12*
%TO.C,D7*%
X144800000Y-99850000D03*
X143350000Y-99850000D03*
X143350000Y-103000000D03*
X144800000Y-103000000D03*
%TD*%
%TO.C,D10*%
X150150000Y-99850000D03*
X148700000Y-99850000D03*
X148700000Y-103000000D03*
X150150000Y-103000000D03*
%TD*%
D18*
%TO.C,U2*%
X115150000Y-111500000D03*
X114500000Y-111500000D03*
X113850000Y-111500000D03*
X113850000Y-113420000D03*
X115150000Y-113420000D03*
%TD*%
D20*
%TO.C,U4*%
X116464000Y-102550000D03*
D21*
X118750000Y-96300000D03*
D20*
X121036000Y-102550000D03*
%TD*%
D14*
%TO.C,C7*%
X107000000Y-113575000D03*
X107000000Y-111500000D03*
%TD*%
D13*
%TO.C,R3*%
X103500000Y-111020000D03*
X103500000Y-113020000D03*
%TD*%
%TO.C,R8*%
X149500000Y-94100000D03*
X149500000Y-96100000D03*
%TD*%
D12*
%TO.C,D15*%
X155500000Y-114850000D03*
X154050000Y-114850000D03*
X154050000Y-118000000D03*
X155500000Y-118000000D03*
%TD*%
%TO.C,D25*%
X182100000Y-99850000D03*
X180650000Y-99850000D03*
X180650000Y-103000000D03*
X182100000Y-103000000D03*
%TD*%
%TO.C,D9*%
X144800000Y-114850000D03*
X143350000Y-114850000D03*
X143350000Y-118000000D03*
X144800000Y-118000000D03*
%TD*%
%TO.C,D19*%
X171500000Y-99850000D03*
X170050000Y-99850000D03*
X170050000Y-103000000D03*
X171500000Y-103000000D03*
%TD*%
D13*
%TO.C,R10*%
X165400000Y-94100000D03*
X165400000Y-96100000D03*
%TD*%
%TO.C,R12*%
X176100000Y-94100000D03*
X176100000Y-96100000D03*
%TD*%
D12*
%TO.C,D4*%
X139500000Y-99850000D03*
X138050000Y-99850000D03*
X138050000Y-103000000D03*
X139500000Y-103000000D03*
%TD*%
D13*
%TO.C,R5*%
X133500000Y-94100000D03*
X133500000Y-96100000D03*
%TD*%
D17*
%TO.C,CR1*%
X113600000Y-117300000D03*
X111699998Y-117300000D03*
X112649999Y-119687600D03*
%TD*%
D12*
%TO.C,D13*%
X155500000Y-99850000D03*
X154050000Y-99850000D03*
X154050000Y-103000000D03*
X155500000Y-103000000D03*
%TD*%
M02*
