%TF.GenerationSoftware,KiCad,Pcbnew,8.0.9-8.0.9-0~ubuntu25.04.1*%
%TF.CreationDate,2025-04-13T18:27:55-07:00*%
%TF.ProjectId,TSSI,54535349-2e6b-4696-9361-645f70636258,rev?*%
%TF.SameCoordinates,Original*%
%TF.FileFunction,Legend,Bot*%
%TF.FilePolarity,Positive*%
%FSLAX46Y46*%
G04 Gerber Fmt 4.6, Leading zero omitted, Abs format (unit mm)*
G04 Created by KiCad (PCBNEW 8.0.9-8.0.9-0~ubuntu25.04.1) date 2025-04-13 18:27:55*
%MOMM*%
%LPD*%
G01*
G04 APERTURE LIST*
%ADD10C,0.100000*%
%ADD11C,0.150000*%
%ADD12C,0.120000*%
G04 APERTURE END LIST*
D10*
X177539285Y-116732419D02*
X177539285Y-115732419D01*
X177539285Y-115732419D02*
X177301190Y-115732419D01*
X177301190Y-115732419D02*
X177158333Y-115780038D01*
X177158333Y-115780038D02*
X177063095Y-115875276D01*
X177063095Y-115875276D02*
X177015476Y-115970514D01*
X177015476Y-115970514D02*
X176967857Y-116160990D01*
X176967857Y-116160990D02*
X176967857Y-116303847D01*
X176967857Y-116303847D02*
X177015476Y-116494323D01*
X177015476Y-116494323D02*
X177063095Y-116589561D01*
X177063095Y-116589561D02*
X177158333Y-116684800D01*
X177158333Y-116684800D02*
X177301190Y-116732419D01*
X177301190Y-116732419D02*
X177539285Y-116732419D01*
X176063095Y-115732419D02*
X176539285Y-115732419D01*
X176539285Y-115732419D02*
X176586904Y-116208609D01*
X176586904Y-116208609D02*
X176539285Y-116160990D01*
X176539285Y-116160990D02*
X176444047Y-116113371D01*
X176444047Y-116113371D02*
X176205952Y-116113371D01*
X176205952Y-116113371D02*
X176110714Y-116160990D01*
X176110714Y-116160990D02*
X176063095Y-116208609D01*
X176063095Y-116208609D02*
X176015476Y-116303847D01*
X176015476Y-116303847D02*
X176015476Y-116541942D01*
X176015476Y-116541942D02*
X176063095Y-116637180D01*
X176063095Y-116637180D02*
X176110714Y-116684800D01*
X176110714Y-116684800D02*
X176205952Y-116732419D01*
X176205952Y-116732419D02*
X176444047Y-116732419D01*
X176444047Y-116732419D02*
X176539285Y-116684800D01*
X176539285Y-116684800D02*
X176586904Y-116637180D01*
X175158333Y-116065752D02*
X175158333Y-116732419D01*
X175396428Y-115684800D02*
X175634523Y-116399085D01*
X175634523Y-116399085D02*
X175015476Y-116399085D01*
D11*
X175054819Y-97107142D02*
X174578628Y-96773809D01*
X175054819Y-96535714D02*
X174054819Y-96535714D01*
X174054819Y-96535714D02*
X174054819Y-96916666D01*
X174054819Y-96916666D02*
X174102438Y-97011904D01*
X174102438Y-97011904D02*
X174150057Y-97059523D01*
X174150057Y-97059523D02*
X174245295Y-97107142D01*
X174245295Y-97107142D02*
X174388152Y-97107142D01*
X174388152Y-97107142D02*
X174483390Y-97059523D01*
X174483390Y-97059523D02*
X174531009Y-97011904D01*
X174531009Y-97011904D02*
X174578628Y-96916666D01*
X174578628Y-96916666D02*
X174578628Y-96535714D01*
X174150057Y-97488095D02*
X174102438Y-97535714D01*
X174102438Y-97535714D02*
X174054819Y-97630952D01*
X174054819Y-97630952D02*
X174054819Y-97869047D01*
X174054819Y-97869047D02*
X174102438Y-97964285D01*
X174102438Y-97964285D02*
X174150057Y-98011904D01*
X174150057Y-98011904D02*
X174245295Y-98059523D01*
X174245295Y-98059523D02*
X174340533Y-98059523D01*
X174340533Y-98059523D02*
X174483390Y-98011904D01*
X174483390Y-98011904D02*
X175054819Y-97440476D01*
X175054819Y-97440476D02*
X175054819Y-98059523D01*
X174150057Y-98440476D02*
X174102438Y-98488095D01*
X174102438Y-98488095D02*
X174054819Y-98583333D01*
X174054819Y-98583333D02*
X174054819Y-98821428D01*
X174054819Y-98821428D02*
X174102438Y-98916666D01*
X174102438Y-98916666D02*
X174150057Y-98964285D01*
X174150057Y-98964285D02*
X174245295Y-99011904D01*
X174245295Y-99011904D02*
X174340533Y-99011904D01*
X174340533Y-99011904D02*
X174483390Y-98964285D01*
X174483390Y-98964285D02*
X175054819Y-98392857D01*
X175054819Y-98392857D02*
X175054819Y-99011904D01*
X163204819Y-97107142D02*
X162728628Y-96773809D01*
X163204819Y-96535714D02*
X162204819Y-96535714D01*
X162204819Y-96535714D02*
X162204819Y-96916666D01*
X162204819Y-96916666D02*
X162252438Y-97011904D01*
X162252438Y-97011904D02*
X162300057Y-97059523D01*
X162300057Y-97059523D02*
X162395295Y-97107142D01*
X162395295Y-97107142D02*
X162538152Y-97107142D01*
X162538152Y-97107142D02*
X162633390Y-97059523D01*
X162633390Y-97059523D02*
X162681009Y-97011904D01*
X162681009Y-97011904D02*
X162728628Y-96916666D01*
X162728628Y-96916666D02*
X162728628Y-96535714D01*
X162300057Y-97488095D02*
X162252438Y-97535714D01*
X162252438Y-97535714D02*
X162204819Y-97630952D01*
X162204819Y-97630952D02*
X162204819Y-97869047D01*
X162204819Y-97869047D02*
X162252438Y-97964285D01*
X162252438Y-97964285D02*
X162300057Y-98011904D01*
X162300057Y-98011904D02*
X162395295Y-98059523D01*
X162395295Y-98059523D02*
X162490533Y-98059523D01*
X162490533Y-98059523D02*
X162633390Y-98011904D01*
X162633390Y-98011904D02*
X163204819Y-97440476D01*
X163204819Y-97440476D02*
X163204819Y-98059523D01*
X162204819Y-98964285D02*
X162204819Y-98488095D01*
X162204819Y-98488095D02*
X162681009Y-98440476D01*
X162681009Y-98440476D02*
X162633390Y-98488095D01*
X162633390Y-98488095D02*
X162585771Y-98583333D01*
X162585771Y-98583333D02*
X162585771Y-98821428D01*
X162585771Y-98821428D02*
X162633390Y-98916666D01*
X162633390Y-98916666D02*
X162681009Y-98964285D01*
X162681009Y-98964285D02*
X162776247Y-99011904D01*
X162776247Y-99011904D02*
X163014342Y-99011904D01*
X163014342Y-99011904D02*
X163109580Y-98964285D01*
X163109580Y-98964285D02*
X163157200Y-98916666D01*
X163157200Y-98916666D02*
X163204819Y-98821428D01*
X163204819Y-98821428D02*
X163204819Y-98583333D01*
X163204819Y-98583333D02*
X163157200Y-98488095D01*
X163157200Y-98488095D02*
X163109580Y-98440476D01*
X133204819Y-97107142D02*
X132728628Y-96773809D01*
X133204819Y-96535714D02*
X132204819Y-96535714D01*
X132204819Y-96535714D02*
X132204819Y-96916666D01*
X132204819Y-96916666D02*
X132252438Y-97011904D01*
X132252438Y-97011904D02*
X132300057Y-97059523D01*
X132300057Y-97059523D02*
X132395295Y-97107142D01*
X132395295Y-97107142D02*
X132538152Y-97107142D01*
X132538152Y-97107142D02*
X132633390Y-97059523D01*
X132633390Y-97059523D02*
X132681009Y-97011904D01*
X132681009Y-97011904D02*
X132728628Y-96916666D01*
X132728628Y-96916666D02*
X132728628Y-96535714D01*
X132204819Y-97440476D02*
X132204819Y-98059523D01*
X132204819Y-98059523D02*
X132585771Y-97726190D01*
X132585771Y-97726190D02*
X132585771Y-97869047D01*
X132585771Y-97869047D02*
X132633390Y-97964285D01*
X132633390Y-97964285D02*
X132681009Y-98011904D01*
X132681009Y-98011904D02*
X132776247Y-98059523D01*
X132776247Y-98059523D02*
X133014342Y-98059523D01*
X133014342Y-98059523D02*
X133109580Y-98011904D01*
X133109580Y-98011904D02*
X133157200Y-97964285D01*
X133157200Y-97964285D02*
X133204819Y-97869047D01*
X133204819Y-97869047D02*
X133204819Y-97583333D01*
X133204819Y-97583333D02*
X133157200Y-97488095D01*
X133157200Y-97488095D02*
X133109580Y-97440476D01*
X133204819Y-99011904D02*
X133204819Y-98440476D01*
X133204819Y-98726190D02*
X132204819Y-98726190D01*
X132204819Y-98726190D02*
X132347676Y-98630952D01*
X132347676Y-98630952D02*
X132442914Y-98535714D01*
X132442914Y-98535714D02*
X132490533Y-98440476D01*
D10*
X192539285Y-116732419D02*
X192539285Y-115732419D01*
X192539285Y-115732419D02*
X192301190Y-115732419D01*
X192301190Y-115732419D02*
X192158333Y-115780038D01*
X192158333Y-115780038D02*
X192063095Y-115875276D01*
X192063095Y-115875276D02*
X192015476Y-115970514D01*
X192015476Y-115970514D02*
X191967857Y-116160990D01*
X191967857Y-116160990D02*
X191967857Y-116303847D01*
X191967857Y-116303847D02*
X192015476Y-116494323D01*
X192015476Y-116494323D02*
X192063095Y-116589561D01*
X192063095Y-116589561D02*
X192158333Y-116684800D01*
X192158333Y-116684800D02*
X192301190Y-116732419D01*
X192301190Y-116732419D02*
X192539285Y-116732419D01*
X191110714Y-116065752D02*
X191110714Y-116732419D01*
X191348809Y-115684800D02*
X191586904Y-116399085D01*
X191586904Y-116399085D02*
X190967857Y-116399085D01*
X190110714Y-115732419D02*
X190586904Y-115732419D01*
X190586904Y-115732419D02*
X190634523Y-116208609D01*
X190634523Y-116208609D02*
X190586904Y-116160990D01*
X190586904Y-116160990D02*
X190491666Y-116113371D01*
X190491666Y-116113371D02*
X190253571Y-116113371D01*
X190253571Y-116113371D02*
X190158333Y-116160990D01*
X190158333Y-116160990D02*
X190110714Y-116208609D01*
X190110714Y-116208609D02*
X190063095Y-116303847D01*
X190063095Y-116303847D02*
X190063095Y-116541942D01*
X190063095Y-116541942D02*
X190110714Y-116637180D01*
X190110714Y-116637180D02*
X190158333Y-116684800D01*
X190158333Y-116684800D02*
X190253571Y-116732419D01*
X190253571Y-116732419D02*
X190491666Y-116732419D01*
X190491666Y-116732419D02*
X190586904Y-116684800D01*
X190586904Y-116684800D02*
X190634523Y-116637180D01*
X127589285Y-110232419D02*
X127589285Y-109232419D01*
X127589285Y-109232419D02*
X127351190Y-109232419D01*
X127351190Y-109232419D02*
X127208333Y-109280038D01*
X127208333Y-109280038D02*
X127113095Y-109375276D01*
X127113095Y-109375276D02*
X127065476Y-109470514D01*
X127065476Y-109470514D02*
X127017857Y-109660990D01*
X127017857Y-109660990D02*
X127017857Y-109803847D01*
X127017857Y-109803847D02*
X127065476Y-109994323D01*
X127065476Y-109994323D02*
X127113095Y-110089561D01*
X127113095Y-110089561D02*
X127208333Y-110184800D01*
X127208333Y-110184800D02*
X127351190Y-110232419D01*
X127351190Y-110232419D02*
X127589285Y-110232419D01*
X126446428Y-109660990D02*
X126541666Y-109613371D01*
X126541666Y-109613371D02*
X126589285Y-109565752D01*
X126589285Y-109565752D02*
X126636904Y-109470514D01*
X126636904Y-109470514D02*
X126636904Y-109422895D01*
X126636904Y-109422895D02*
X126589285Y-109327657D01*
X126589285Y-109327657D02*
X126541666Y-109280038D01*
X126541666Y-109280038D02*
X126446428Y-109232419D01*
X126446428Y-109232419D02*
X126255952Y-109232419D01*
X126255952Y-109232419D02*
X126160714Y-109280038D01*
X126160714Y-109280038D02*
X126113095Y-109327657D01*
X126113095Y-109327657D02*
X126065476Y-109422895D01*
X126065476Y-109422895D02*
X126065476Y-109470514D01*
X126065476Y-109470514D02*
X126113095Y-109565752D01*
X126113095Y-109565752D02*
X126160714Y-109613371D01*
X126160714Y-109613371D02*
X126255952Y-109660990D01*
X126255952Y-109660990D02*
X126446428Y-109660990D01*
X126446428Y-109660990D02*
X126541666Y-109708609D01*
X126541666Y-109708609D02*
X126589285Y-109756228D01*
X126589285Y-109756228D02*
X126636904Y-109851466D01*
X126636904Y-109851466D02*
X126636904Y-110041942D01*
X126636904Y-110041942D02*
X126589285Y-110137180D01*
X126589285Y-110137180D02*
X126541666Y-110184800D01*
X126541666Y-110184800D02*
X126446428Y-110232419D01*
X126446428Y-110232419D02*
X126255952Y-110232419D01*
X126255952Y-110232419D02*
X126160714Y-110184800D01*
X126160714Y-110184800D02*
X126113095Y-110137180D01*
X126113095Y-110137180D02*
X126065476Y-110041942D01*
X126065476Y-110041942D02*
X126065476Y-109851466D01*
X126065476Y-109851466D02*
X126113095Y-109756228D01*
X126113095Y-109756228D02*
X126160714Y-109708609D01*
X126160714Y-109708609D02*
X126255952Y-109660990D01*
X125732142Y-109232419D02*
X125113095Y-109232419D01*
X125113095Y-109232419D02*
X125446428Y-109613371D01*
X125446428Y-109613371D02*
X125303571Y-109613371D01*
X125303571Y-109613371D02*
X125208333Y-109660990D01*
X125208333Y-109660990D02*
X125160714Y-109708609D01*
X125160714Y-109708609D02*
X125113095Y-109803847D01*
X125113095Y-109803847D02*
X125113095Y-110041942D01*
X125113095Y-110041942D02*
X125160714Y-110137180D01*
X125160714Y-110137180D02*
X125208333Y-110184800D01*
X125208333Y-110184800D02*
X125303571Y-110232419D01*
X125303571Y-110232419D02*
X125589285Y-110232419D01*
X125589285Y-110232419D02*
X125684523Y-110184800D01*
X125684523Y-110184800D02*
X125732142Y-110137180D01*
X142539285Y-103732419D02*
X142539285Y-102732419D01*
X142539285Y-102732419D02*
X142301190Y-102732419D01*
X142301190Y-102732419D02*
X142158333Y-102780038D01*
X142158333Y-102780038D02*
X142063095Y-102875276D01*
X142063095Y-102875276D02*
X142015476Y-102970514D01*
X142015476Y-102970514D02*
X141967857Y-103160990D01*
X141967857Y-103160990D02*
X141967857Y-103303847D01*
X141967857Y-103303847D02*
X142015476Y-103494323D01*
X142015476Y-103494323D02*
X142063095Y-103589561D01*
X142063095Y-103589561D02*
X142158333Y-103684800D01*
X142158333Y-103684800D02*
X142301190Y-103732419D01*
X142301190Y-103732419D02*
X142539285Y-103732419D01*
X141634523Y-102732419D02*
X140967857Y-102732419D01*
X140967857Y-102732419D02*
X141396428Y-103732419D01*
X140682142Y-102732419D02*
X140063095Y-102732419D01*
X140063095Y-102732419D02*
X140396428Y-103113371D01*
X140396428Y-103113371D02*
X140253571Y-103113371D01*
X140253571Y-103113371D02*
X140158333Y-103160990D01*
X140158333Y-103160990D02*
X140110714Y-103208609D01*
X140110714Y-103208609D02*
X140063095Y-103303847D01*
X140063095Y-103303847D02*
X140063095Y-103541942D01*
X140063095Y-103541942D02*
X140110714Y-103637180D01*
X140110714Y-103637180D02*
X140158333Y-103684800D01*
X140158333Y-103684800D02*
X140253571Y-103732419D01*
X140253571Y-103732419D02*
X140539285Y-103732419D01*
X140539285Y-103732419D02*
X140634523Y-103684800D01*
X140634523Y-103684800D02*
X140682142Y-103637180D01*
D11*
X155054819Y-97107142D02*
X154578628Y-96773809D01*
X155054819Y-96535714D02*
X154054819Y-96535714D01*
X154054819Y-96535714D02*
X154054819Y-96916666D01*
X154054819Y-96916666D02*
X154102438Y-97011904D01*
X154102438Y-97011904D02*
X154150057Y-97059523D01*
X154150057Y-97059523D02*
X154245295Y-97107142D01*
X154245295Y-97107142D02*
X154388152Y-97107142D01*
X154388152Y-97107142D02*
X154483390Y-97059523D01*
X154483390Y-97059523D02*
X154531009Y-97011904D01*
X154531009Y-97011904D02*
X154578628Y-96916666D01*
X154578628Y-96916666D02*
X154578628Y-96535714D01*
X154150057Y-97488095D02*
X154102438Y-97535714D01*
X154102438Y-97535714D02*
X154054819Y-97630952D01*
X154054819Y-97630952D02*
X154054819Y-97869047D01*
X154054819Y-97869047D02*
X154102438Y-97964285D01*
X154102438Y-97964285D02*
X154150057Y-98011904D01*
X154150057Y-98011904D02*
X154245295Y-98059523D01*
X154245295Y-98059523D02*
X154340533Y-98059523D01*
X154340533Y-98059523D02*
X154483390Y-98011904D01*
X154483390Y-98011904D02*
X155054819Y-97440476D01*
X155054819Y-97440476D02*
X155054819Y-98059523D01*
X154054819Y-98916666D02*
X154054819Y-98726190D01*
X154054819Y-98726190D02*
X154102438Y-98630952D01*
X154102438Y-98630952D02*
X154150057Y-98583333D01*
X154150057Y-98583333D02*
X154292914Y-98488095D01*
X154292914Y-98488095D02*
X154483390Y-98440476D01*
X154483390Y-98440476D02*
X154864342Y-98440476D01*
X154864342Y-98440476D02*
X154959580Y-98488095D01*
X154959580Y-98488095D02*
X155007200Y-98535714D01*
X155007200Y-98535714D02*
X155054819Y-98630952D01*
X155054819Y-98630952D02*
X155054819Y-98821428D01*
X155054819Y-98821428D02*
X155007200Y-98916666D01*
X155007200Y-98916666D02*
X154959580Y-98964285D01*
X154959580Y-98964285D02*
X154864342Y-99011904D01*
X154864342Y-99011904D02*
X154626247Y-99011904D01*
X154626247Y-99011904D02*
X154531009Y-98964285D01*
X154531009Y-98964285D02*
X154483390Y-98916666D01*
X154483390Y-98916666D02*
X154435771Y-98821428D01*
X154435771Y-98821428D02*
X154435771Y-98630952D01*
X154435771Y-98630952D02*
X154483390Y-98535714D01*
X154483390Y-98535714D02*
X154531009Y-98488095D01*
X154531009Y-98488095D02*
X154626247Y-98440476D01*
X165054819Y-97107142D02*
X164578628Y-96773809D01*
X165054819Y-96535714D02*
X164054819Y-96535714D01*
X164054819Y-96535714D02*
X164054819Y-96916666D01*
X164054819Y-96916666D02*
X164102438Y-97011904D01*
X164102438Y-97011904D02*
X164150057Y-97059523D01*
X164150057Y-97059523D02*
X164245295Y-97107142D01*
X164245295Y-97107142D02*
X164388152Y-97107142D01*
X164388152Y-97107142D02*
X164483390Y-97059523D01*
X164483390Y-97059523D02*
X164531009Y-97011904D01*
X164531009Y-97011904D02*
X164578628Y-96916666D01*
X164578628Y-96916666D02*
X164578628Y-96535714D01*
X164150057Y-97488095D02*
X164102438Y-97535714D01*
X164102438Y-97535714D02*
X164054819Y-97630952D01*
X164054819Y-97630952D02*
X164054819Y-97869047D01*
X164054819Y-97869047D02*
X164102438Y-97964285D01*
X164102438Y-97964285D02*
X164150057Y-98011904D01*
X164150057Y-98011904D02*
X164245295Y-98059523D01*
X164245295Y-98059523D02*
X164340533Y-98059523D01*
X164340533Y-98059523D02*
X164483390Y-98011904D01*
X164483390Y-98011904D02*
X165054819Y-97440476D01*
X165054819Y-97440476D02*
X165054819Y-98059523D01*
X164388152Y-98916666D02*
X165054819Y-98916666D01*
X164007200Y-98678571D02*
X164721485Y-98440476D01*
X164721485Y-98440476D02*
X164721485Y-99059523D01*
D10*
X162539285Y-103732419D02*
X162539285Y-102732419D01*
X162539285Y-102732419D02*
X162301190Y-102732419D01*
X162301190Y-102732419D02*
X162158333Y-102780038D01*
X162158333Y-102780038D02*
X162063095Y-102875276D01*
X162063095Y-102875276D02*
X162015476Y-102970514D01*
X162015476Y-102970514D02*
X161967857Y-103160990D01*
X161967857Y-103160990D02*
X161967857Y-103303847D01*
X161967857Y-103303847D02*
X162015476Y-103494323D01*
X162015476Y-103494323D02*
X162063095Y-103589561D01*
X162063095Y-103589561D02*
X162158333Y-103684800D01*
X162158333Y-103684800D02*
X162301190Y-103732419D01*
X162301190Y-103732419D02*
X162539285Y-103732419D01*
X161110714Y-102732419D02*
X161301190Y-102732419D01*
X161301190Y-102732419D02*
X161396428Y-102780038D01*
X161396428Y-102780038D02*
X161444047Y-102827657D01*
X161444047Y-102827657D02*
X161539285Y-102970514D01*
X161539285Y-102970514D02*
X161586904Y-103160990D01*
X161586904Y-103160990D02*
X161586904Y-103541942D01*
X161586904Y-103541942D02*
X161539285Y-103637180D01*
X161539285Y-103637180D02*
X161491666Y-103684800D01*
X161491666Y-103684800D02*
X161396428Y-103732419D01*
X161396428Y-103732419D02*
X161205952Y-103732419D01*
X161205952Y-103732419D02*
X161110714Y-103684800D01*
X161110714Y-103684800D02*
X161063095Y-103637180D01*
X161063095Y-103637180D02*
X161015476Y-103541942D01*
X161015476Y-103541942D02*
X161015476Y-103303847D01*
X161015476Y-103303847D02*
X161063095Y-103208609D01*
X161063095Y-103208609D02*
X161110714Y-103160990D01*
X161110714Y-103160990D02*
X161205952Y-103113371D01*
X161205952Y-103113371D02*
X161396428Y-103113371D01*
X161396428Y-103113371D02*
X161491666Y-103160990D01*
X161491666Y-103160990D02*
X161539285Y-103208609D01*
X161539285Y-103208609D02*
X161586904Y-103303847D01*
X160063095Y-103732419D02*
X160634523Y-103732419D01*
X160348809Y-103732419D02*
X160348809Y-102732419D01*
X160348809Y-102732419D02*
X160444047Y-102875276D01*
X160444047Y-102875276D02*
X160539285Y-102970514D01*
X160539285Y-102970514D02*
X160634523Y-103018133D01*
X187420040Y-110232419D02*
X187420040Y-109232419D01*
X187420040Y-109232419D02*
X187181945Y-109232419D01*
X187181945Y-109232419D02*
X187039088Y-109280038D01*
X187039088Y-109280038D02*
X186943850Y-109375276D01*
X186943850Y-109375276D02*
X186896231Y-109470514D01*
X186896231Y-109470514D02*
X186848612Y-109660990D01*
X186848612Y-109660990D02*
X186848612Y-109803847D01*
X186848612Y-109803847D02*
X186896231Y-109994323D01*
X186896231Y-109994323D02*
X186943850Y-110089561D01*
X186943850Y-110089561D02*
X187039088Y-110184800D01*
X187039088Y-110184800D02*
X187181945Y-110232419D01*
X187181945Y-110232419D02*
X187420040Y-110232419D01*
X185991469Y-109565752D02*
X185991469Y-110232419D01*
X186229564Y-109184800D02*
X186467659Y-109899085D01*
X186467659Y-109899085D02*
X185848612Y-109899085D01*
X185562897Y-109232419D02*
X184896231Y-109232419D01*
X184896231Y-109232419D02*
X185324802Y-110232419D01*
X172539285Y-103732419D02*
X172539285Y-102732419D01*
X172539285Y-102732419D02*
X172301190Y-102732419D01*
X172301190Y-102732419D02*
X172158333Y-102780038D01*
X172158333Y-102780038D02*
X172063095Y-102875276D01*
X172063095Y-102875276D02*
X172015476Y-102970514D01*
X172015476Y-102970514D02*
X171967857Y-103160990D01*
X171967857Y-103160990D02*
X171967857Y-103303847D01*
X171967857Y-103303847D02*
X172015476Y-103494323D01*
X172015476Y-103494323D02*
X172063095Y-103589561D01*
X172063095Y-103589561D02*
X172158333Y-103684800D01*
X172158333Y-103684800D02*
X172301190Y-103732419D01*
X172301190Y-103732419D02*
X172539285Y-103732419D01*
X171063095Y-102732419D02*
X171539285Y-102732419D01*
X171539285Y-102732419D02*
X171586904Y-103208609D01*
X171586904Y-103208609D02*
X171539285Y-103160990D01*
X171539285Y-103160990D02*
X171444047Y-103113371D01*
X171444047Y-103113371D02*
X171205952Y-103113371D01*
X171205952Y-103113371D02*
X171110714Y-103160990D01*
X171110714Y-103160990D02*
X171063095Y-103208609D01*
X171063095Y-103208609D02*
X171015476Y-103303847D01*
X171015476Y-103303847D02*
X171015476Y-103541942D01*
X171015476Y-103541942D02*
X171063095Y-103637180D01*
X171063095Y-103637180D02*
X171110714Y-103684800D01*
X171110714Y-103684800D02*
X171205952Y-103732419D01*
X171205952Y-103732419D02*
X171444047Y-103732419D01*
X171444047Y-103732419D02*
X171539285Y-103684800D01*
X171539285Y-103684800D02*
X171586904Y-103637180D01*
X170110714Y-102732419D02*
X170586904Y-102732419D01*
X170586904Y-102732419D02*
X170634523Y-103208609D01*
X170634523Y-103208609D02*
X170586904Y-103160990D01*
X170586904Y-103160990D02*
X170491666Y-103113371D01*
X170491666Y-103113371D02*
X170253571Y-103113371D01*
X170253571Y-103113371D02*
X170158333Y-103160990D01*
X170158333Y-103160990D02*
X170110714Y-103208609D01*
X170110714Y-103208609D02*
X170063095Y-103303847D01*
X170063095Y-103303847D02*
X170063095Y-103541942D01*
X170063095Y-103541942D02*
X170110714Y-103637180D01*
X170110714Y-103637180D02*
X170158333Y-103684800D01*
X170158333Y-103684800D02*
X170253571Y-103732419D01*
X170253571Y-103732419D02*
X170491666Y-103732419D01*
X170491666Y-103732419D02*
X170586904Y-103684800D01*
X170586904Y-103684800D02*
X170634523Y-103637180D01*
D11*
X125054819Y-97107142D02*
X124578628Y-96773809D01*
X125054819Y-96535714D02*
X124054819Y-96535714D01*
X124054819Y-96535714D02*
X124054819Y-96916666D01*
X124054819Y-96916666D02*
X124102438Y-97011904D01*
X124102438Y-97011904D02*
X124150057Y-97059523D01*
X124150057Y-97059523D02*
X124245295Y-97107142D01*
X124245295Y-97107142D02*
X124388152Y-97107142D01*
X124388152Y-97107142D02*
X124483390Y-97059523D01*
X124483390Y-97059523D02*
X124531009Y-97011904D01*
X124531009Y-97011904D02*
X124578628Y-96916666D01*
X124578628Y-96916666D02*
X124578628Y-96535714D01*
X124054819Y-97440476D02*
X124054819Y-98059523D01*
X124054819Y-98059523D02*
X124435771Y-97726190D01*
X124435771Y-97726190D02*
X124435771Y-97869047D01*
X124435771Y-97869047D02*
X124483390Y-97964285D01*
X124483390Y-97964285D02*
X124531009Y-98011904D01*
X124531009Y-98011904D02*
X124626247Y-98059523D01*
X124626247Y-98059523D02*
X124864342Y-98059523D01*
X124864342Y-98059523D02*
X124959580Y-98011904D01*
X124959580Y-98011904D02*
X125007200Y-97964285D01*
X125007200Y-97964285D02*
X125054819Y-97869047D01*
X125054819Y-97869047D02*
X125054819Y-97583333D01*
X125054819Y-97583333D02*
X125007200Y-97488095D01*
X125007200Y-97488095D02*
X124959580Y-97440476D01*
X124150057Y-98440476D02*
X124102438Y-98488095D01*
X124102438Y-98488095D02*
X124054819Y-98583333D01*
X124054819Y-98583333D02*
X124054819Y-98821428D01*
X124054819Y-98821428D02*
X124102438Y-98916666D01*
X124102438Y-98916666D02*
X124150057Y-98964285D01*
X124150057Y-98964285D02*
X124245295Y-99011904D01*
X124245295Y-99011904D02*
X124340533Y-99011904D01*
X124340533Y-99011904D02*
X124483390Y-98964285D01*
X124483390Y-98964285D02*
X125054819Y-98392857D01*
X125054819Y-98392857D02*
X125054819Y-99011904D01*
D10*
X192489285Y-103732419D02*
X192489285Y-102732419D01*
X192489285Y-102732419D02*
X192251190Y-102732419D01*
X192251190Y-102732419D02*
X192108333Y-102780038D01*
X192108333Y-102780038D02*
X192013095Y-102875276D01*
X192013095Y-102875276D02*
X191965476Y-102970514D01*
X191965476Y-102970514D02*
X191917857Y-103160990D01*
X191917857Y-103160990D02*
X191917857Y-103303847D01*
X191917857Y-103303847D02*
X191965476Y-103494323D01*
X191965476Y-103494323D02*
X192013095Y-103589561D01*
X192013095Y-103589561D02*
X192108333Y-103684800D01*
X192108333Y-103684800D02*
X192251190Y-103732419D01*
X192251190Y-103732419D02*
X192489285Y-103732419D01*
X191060714Y-103065752D02*
X191060714Y-103732419D01*
X191298809Y-102684800D02*
X191536904Y-103399085D01*
X191536904Y-103399085D02*
X190917857Y-103399085D01*
X190632142Y-102732419D02*
X190013095Y-102732419D01*
X190013095Y-102732419D02*
X190346428Y-103113371D01*
X190346428Y-103113371D02*
X190203571Y-103113371D01*
X190203571Y-103113371D02*
X190108333Y-103160990D01*
X190108333Y-103160990D02*
X190060714Y-103208609D01*
X190060714Y-103208609D02*
X190013095Y-103303847D01*
X190013095Y-103303847D02*
X190013095Y-103541942D01*
X190013095Y-103541942D02*
X190060714Y-103637180D01*
X190060714Y-103637180D02*
X190108333Y-103684800D01*
X190108333Y-103684800D02*
X190203571Y-103732419D01*
X190203571Y-103732419D02*
X190489285Y-103732419D01*
X190489285Y-103732419D02*
X190584523Y-103684800D01*
X190584523Y-103684800D02*
X190632142Y-103637180D01*
D11*
X185054819Y-97104358D02*
X184578628Y-96771025D01*
X185054819Y-96532930D02*
X184054819Y-96532930D01*
X184054819Y-96532930D02*
X184054819Y-96913882D01*
X184054819Y-96913882D02*
X184102438Y-97009120D01*
X184102438Y-97009120D02*
X184150057Y-97056739D01*
X184150057Y-97056739D02*
X184245295Y-97104358D01*
X184245295Y-97104358D02*
X184388152Y-97104358D01*
X184388152Y-97104358D02*
X184483390Y-97056739D01*
X184483390Y-97056739D02*
X184531009Y-97009120D01*
X184531009Y-97009120D02*
X184578628Y-96913882D01*
X184578628Y-96913882D02*
X184578628Y-96532930D01*
X184150057Y-97485311D02*
X184102438Y-97532930D01*
X184102438Y-97532930D02*
X184054819Y-97628168D01*
X184054819Y-97628168D02*
X184054819Y-97866263D01*
X184054819Y-97866263D02*
X184102438Y-97961501D01*
X184102438Y-97961501D02*
X184150057Y-98009120D01*
X184150057Y-98009120D02*
X184245295Y-98056739D01*
X184245295Y-98056739D02*
X184340533Y-98056739D01*
X184340533Y-98056739D02*
X184483390Y-98009120D01*
X184483390Y-98009120D02*
X185054819Y-97437692D01*
X185054819Y-97437692D02*
X185054819Y-98056739D01*
X184054819Y-98675787D02*
X184054819Y-98771025D01*
X184054819Y-98771025D02*
X184102438Y-98866263D01*
X184102438Y-98866263D02*
X184150057Y-98913882D01*
X184150057Y-98913882D02*
X184245295Y-98961501D01*
X184245295Y-98961501D02*
X184435771Y-99009120D01*
X184435771Y-99009120D02*
X184673866Y-99009120D01*
X184673866Y-99009120D02*
X184864342Y-98961501D01*
X184864342Y-98961501D02*
X184959580Y-98913882D01*
X184959580Y-98913882D02*
X185007200Y-98866263D01*
X185007200Y-98866263D02*
X185054819Y-98771025D01*
X185054819Y-98771025D02*
X185054819Y-98675787D01*
X185054819Y-98675787D02*
X185007200Y-98580549D01*
X185007200Y-98580549D02*
X184959580Y-98532930D01*
X184959580Y-98532930D02*
X184864342Y-98485311D01*
X184864342Y-98485311D02*
X184673866Y-98437692D01*
X184673866Y-98437692D02*
X184435771Y-98437692D01*
X184435771Y-98437692D02*
X184245295Y-98485311D01*
X184245295Y-98485311D02*
X184150057Y-98532930D01*
X184150057Y-98532930D02*
X184102438Y-98580549D01*
X184102438Y-98580549D02*
X184054819Y-98675787D01*
D10*
X132539285Y-103732419D02*
X132539285Y-102732419D01*
X132539285Y-102732419D02*
X132301190Y-102732419D01*
X132301190Y-102732419D02*
X132158333Y-102780038D01*
X132158333Y-102780038D02*
X132063095Y-102875276D01*
X132063095Y-102875276D02*
X132015476Y-102970514D01*
X132015476Y-102970514D02*
X131967857Y-103160990D01*
X131967857Y-103160990D02*
X131967857Y-103303847D01*
X131967857Y-103303847D02*
X132015476Y-103494323D01*
X132015476Y-103494323D02*
X132063095Y-103589561D01*
X132063095Y-103589561D02*
X132158333Y-103684800D01*
X132158333Y-103684800D02*
X132301190Y-103732419D01*
X132301190Y-103732419D02*
X132539285Y-103732419D01*
X131634523Y-102732419D02*
X130967857Y-102732419D01*
X130967857Y-102732419D02*
X131396428Y-103732419D01*
X130539285Y-103732419D02*
X130348809Y-103732419D01*
X130348809Y-103732419D02*
X130253571Y-103684800D01*
X130253571Y-103684800D02*
X130205952Y-103637180D01*
X130205952Y-103637180D02*
X130110714Y-103494323D01*
X130110714Y-103494323D02*
X130063095Y-103303847D01*
X130063095Y-103303847D02*
X130063095Y-102922895D01*
X130063095Y-102922895D02*
X130110714Y-102827657D01*
X130110714Y-102827657D02*
X130158333Y-102780038D01*
X130158333Y-102780038D02*
X130253571Y-102732419D01*
X130253571Y-102732419D02*
X130444047Y-102732419D01*
X130444047Y-102732419D02*
X130539285Y-102780038D01*
X130539285Y-102780038D02*
X130586904Y-102827657D01*
X130586904Y-102827657D02*
X130634523Y-102922895D01*
X130634523Y-102922895D02*
X130634523Y-103160990D01*
X130634523Y-103160990D02*
X130586904Y-103256228D01*
X130586904Y-103256228D02*
X130539285Y-103303847D01*
X130539285Y-103303847D02*
X130444047Y-103351466D01*
X130444047Y-103351466D02*
X130253571Y-103351466D01*
X130253571Y-103351466D02*
X130158333Y-103303847D01*
X130158333Y-103303847D02*
X130110714Y-103256228D01*
X130110714Y-103256228D02*
X130063095Y-103160990D01*
X147539285Y-110232419D02*
X147539285Y-109232419D01*
X147539285Y-109232419D02*
X147301190Y-109232419D01*
X147301190Y-109232419D02*
X147158333Y-109280038D01*
X147158333Y-109280038D02*
X147063095Y-109375276D01*
X147063095Y-109375276D02*
X147015476Y-109470514D01*
X147015476Y-109470514D02*
X146967857Y-109660990D01*
X146967857Y-109660990D02*
X146967857Y-109803847D01*
X146967857Y-109803847D02*
X147015476Y-109994323D01*
X147015476Y-109994323D02*
X147063095Y-110089561D01*
X147063095Y-110089561D02*
X147158333Y-110184800D01*
X147158333Y-110184800D02*
X147301190Y-110232419D01*
X147301190Y-110232419D02*
X147539285Y-110232419D01*
X146634523Y-109232419D02*
X145967857Y-109232419D01*
X145967857Y-109232419D02*
X146396428Y-110232419D01*
X145063095Y-110232419D02*
X145634523Y-110232419D01*
X145348809Y-110232419D02*
X145348809Y-109232419D01*
X145348809Y-109232419D02*
X145444047Y-109375276D01*
X145444047Y-109375276D02*
X145539285Y-109470514D01*
X145539285Y-109470514D02*
X145634523Y-109518133D01*
X187370040Y-103732419D02*
X187370040Y-102732419D01*
X187370040Y-102732419D02*
X187131945Y-102732419D01*
X187131945Y-102732419D02*
X186989088Y-102780038D01*
X186989088Y-102780038D02*
X186893850Y-102875276D01*
X186893850Y-102875276D02*
X186846231Y-102970514D01*
X186846231Y-102970514D02*
X186798612Y-103160990D01*
X186798612Y-103160990D02*
X186798612Y-103303847D01*
X186798612Y-103303847D02*
X186846231Y-103494323D01*
X186846231Y-103494323D02*
X186893850Y-103589561D01*
X186893850Y-103589561D02*
X186989088Y-103684800D01*
X186989088Y-103684800D02*
X187131945Y-103732419D01*
X187131945Y-103732419D02*
X187370040Y-103732419D01*
X185941469Y-103065752D02*
X185941469Y-103732419D01*
X186179564Y-102684800D02*
X186417659Y-103399085D01*
X186417659Y-103399085D02*
X185798612Y-103399085D01*
X184989088Y-102732419D02*
X185179564Y-102732419D01*
X185179564Y-102732419D02*
X185274802Y-102780038D01*
X185274802Y-102780038D02*
X185322421Y-102827657D01*
X185322421Y-102827657D02*
X185417659Y-102970514D01*
X185417659Y-102970514D02*
X185465278Y-103160990D01*
X185465278Y-103160990D02*
X185465278Y-103541942D01*
X185465278Y-103541942D02*
X185417659Y-103637180D01*
X185417659Y-103637180D02*
X185370040Y-103684800D01*
X185370040Y-103684800D02*
X185274802Y-103732419D01*
X185274802Y-103732419D02*
X185084326Y-103732419D01*
X185084326Y-103732419D02*
X184989088Y-103684800D01*
X184989088Y-103684800D02*
X184941469Y-103637180D01*
X184941469Y-103637180D02*
X184893850Y-103541942D01*
X184893850Y-103541942D02*
X184893850Y-103303847D01*
X184893850Y-103303847D02*
X184941469Y-103208609D01*
X184941469Y-103208609D02*
X184989088Y-103160990D01*
X184989088Y-103160990D02*
X185084326Y-103113371D01*
X185084326Y-103113371D02*
X185274802Y-103113371D01*
X185274802Y-103113371D02*
X185370040Y-103160990D01*
X185370040Y-103160990D02*
X185417659Y-103208609D01*
X185417659Y-103208609D02*
X185465278Y-103303847D01*
D11*
X193493840Y-97107142D02*
X193017649Y-96773809D01*
X193493840Y-96535714D02*
X192493840Y-96535714D01*
X192493840Y-96535714D02*
X192493840Y-96916666D01*
X192493840Y-96916666D02*
X192541459Y-97011904D01*
X192541459Y-97011904D02*
X192589078Y-97059523D01*
X192589078Y-97059523D02*
X192684316Y-97107142D01*
X192684316Y-97107142D02*
X192827173Y-97107142D01*
X192827173Y-97107142D02*
X192922411Y-97059523D01*
X192922411Y-97059523D02*
X192970030Y-97011904D01*
X192970030Y-97011904D02*
X193017649Y-96916666D01*
X193017649Y-96916666D02*
X193017649Y-96535714D01*
X193493840Y-98059523D02*
X193493840Y-97488095D01*
X193493840Y-97773809D02*
X192493840Y-97773809D01*
X192493840Y-97773809D02*
X192636697Y-97678571D01*
X192636697Y-97678571D02*
X192731935Y-97583333D01*
X192731935Y-97583333D02*
X192779554Y-97488095D01*
X193493840Y-98535714D02*
X193493840Y-98726190D01*
X193493840Y-98726190D02*
X193446221Y-98821428D01*
X193446221Y-98821428D02*
X193398601Y-98869047D01*
X193398601Y-98869047D02*
X193255744Y-98964285D01*
X193255744Y-98964285D02*
X193065268Y-99011904D01*
X193065268Y-99011904D02*
X192684316Y-99011904D01*
X192684316Y-99011904D02*
X192589078Y-98964285D01*
X192589078Y-98964285D02*
X192541459Y-98916666D01*
X192541459Y-98916666D02*
X192493840Y-98821428D01*
X192493840Y-98821428D02*
X192493840Y-98630952D01*
X192493840Y-98630952D02*
X192541459Y-98535714D01*
X192541459Y-98535714D02*
X192589078Y-98488095D01*
X192589078Y-98488095D02*
X192684316Y-98440476D01*
X192684316Y-98440476D02*
X192922411Y-98440476D01*
X192922411Y-98440476D02*
X193017649Y-98488095D01*
X193017649Y-98488095D02*
X193065268Y-98535714D01*
X193065268Y-98535714D02*
X193112887Y-98630952D01*
X193112887Y-98630952D02*
X193112887Y-98821428D01*
X193112887Y-98821428D02*
X193065268Y-98916666D01*
X193065268Y-98916666D02*
X193017649Y-98964285D01*
X193017649Y-98964285D02*
X192922411Y-99011904D01*
D10*
X177539285Y-103732419D02*
X177539285Y-102732419D01*
X177539285Y-102732419D02*
X177301190Y-102732419D01*
X177301190Y-102732419D02*
X177158333Y-102780038D01*
X177158333Y-102780038D02*
X177063095Y-102875276D01*
X177063095Y-102875276D02*
X177015476Y-102970514D01*
X177015476Y-102970514D02*
X176967857Y-103160990D01*
X176967857Y-103160990D02*
X176967857Y-103303847D01*
X176967857Y-103303847D02*
X177015476Y-103494323D01*
X177015476Y-103494323D02*
X177063095Y-103589561D01*
X177063095Y-103589561D02*
X177158333Y-103684800D01*
X177158333Y-103684800D02*
X177301190Y-103732419D01*
X177301190Y-103732419D02*
X177539285Y-103732419D01*
X176063095Y-102732419D02*
X176539285Y-102732419D01*
X176539285Y-102732419D02*
X176586904Y-103208609D01*
X176586904Y-103208609D02*
X176539285Y-103160990D01*
X176539285Y-103160990D02*
X176444047Y-103113371D01*
X176444047Y-103113371D02*
X176205952Y-103113371D01*
X176205952Y-103113371D02*
X176110714Y-103160990D01*
X176110714Y-103160990D02*
X176063095Y-103208609D01*
X176063095Y-103208609D02*
X176015476Y-103303847D01*
X176015476Y-103303847D02*
X176015476Y-103541942D01*
X176015476Y-103541942D02*
X176063095Y-103637180D01*
X176063095Y-103637180D02*
X176110714Y-103684800D01*
X176110714Y-103684800D02*
X176205952Y-103732419D01*
X176205952Y-103732419D02*
X176444047Y-103732419D01*
X176444047Y-103732419D02*
X176539285Y-103684800D01*
X176539285Y-103684800D02*
X176586904Y-103637180D01*
X175634523Y-102827657D02*
X175586904Y-102780038D01*
X175586904Y-102780038D02*
X175491666Y-102732419D01*
X175491666Y-102732419D02*
X175253571Y-102732419D01*
X175253571Y-102732419D02*
X175158333Y-102780038D01*
X175158333Y-102780038D02*
X175110714Y-102827657D01*
X175110714Y-102827657D02*
X175063095Y-102922895D01*
X175063095Y-102922895D02*
X175063095Y-103018133D01*
X175063095Y-103018133D02*
X175110714Y-103160990D01*
X175110714Y-103160990D02*
X175682142Y-103732419D01*
X175682142Y-103732419D02*
X175063095Y-103732419D01*
X127539285Y-103732419D02*
X127539285Y-102732419D01*
X127539285Y-102732419D02*
X127301190Y-102732419D01*
X127301190Y-102732419D02*
X127158333Y-102780038D01*
X127158333Y-102780038D02*
X127063095Y-102875276D01*
X127063095Y-102875276D02*
X127015476Y-102970514D01*
X127015476Y-102970514D02*
X126967857Y-103160990D01*
X126967857Y-103160990D02*
X126967857Y-103303847D01*
X126967857Y-103303847D02*
X127015476Y-103494323D01*
X127015476Y-103494323D02*
X127063095Y-103589561D01*
X127063095Y-103589561D02*
X127158333Y-103684800D01*
X127158333Y-103684800D02*
X127301190Y-103732419D01*
X127301190Y-103732419D02*
X127539285Y-103732419D01*
X126396428Y-103160990D02*
X126491666Y-103113371D01*
X126491666Y-103113371D02*
X126539285Y-103065752D01*
X126539285Y-103065752D02*
X126586904Y-102970514D01*
X126586904Y-102970514D02*
X126586904Y-102922895D01*
X126586904Y-102922895D02*
X126539285Y-102827657D01*
X126539285Y-102827657D02*
X126491666Y-102780038D01*
X126491666Y-102780038D02*
X126396428Y-102732419D01*
X126396428Y-102732419D02*
X126205952Y-102732419D01*
X126205952Y-102732419D02*
X126110714Y-102780038D01*
X126110714Y-102780038D02*
X126063095Y-102827657D01*
X126063095Y-102827657D02*
X126015476Y-102922895D01*
X126015476Y-102922895D02*
X126015476Y-102970514D01*
X126015476Y-102970514D02*
X126063095Y-103065752D01*
X126063095Y-103065752D02*
X126110714Y-103113371D01*
X126110714Y-103113371D02*
X126205952Y-103160990D01*
X126205952Y-103160990D02*
X126396428Y-103160990D01*
X126396428Y-103160990D02*
X126491666Y-103208609D01*
X126491666Y-103208609D02*
X126539285Y-103256228D01*
X126539285Y-103256228D02*
X126586904Y-103351466D01*
X126586904Y-103351466D02*
X126586904Y-103541942D01*
X126586904Y-103541942D02*
X126539285Y-103637180D01*
X126539285Y-103637180D02*
X126491666Y-103684800D01*
X126491666Y-103684800D02*
X126396428Y-103732419D01*
X126396428Y-103732419D02*
X126205952Y-103732419D01*
X126205952Y-103732419D02*
X126110714Y-103684800D01*
X126110714Y-103684800D02*
X126063095Y-103637180D01*
X126063095Y-103637180D02*
X126015476Y-103541942D01*
X126015476Y-103541942D02*
X126015476Y-103351466D01*
X126015476Y-103351466D02*
X126063095Y-103256228D01*
X126063095Y-103256228D02*
X126110714Y-103208609D01*
X126110714Y-103208609D02*
X126205952Y-103160990D01*
X125634523Y-102827657D02*
X125586904Y-102780038D01*
X125586904Y-102780038D02*
X125491666Y-102732419D01*
X125491666Y-102732419D02*
X125253571Y-102732419D01*
X125253571Y-102732419D02*
X125158333Y-102780038D01*
X125158333Y-102780038D02*
X125110714Y-102827657D01*
X125110714Y-102827657D02*
X125063095Y-102922895D01*
X125063095Y-102922895D02*
X125063095Y-103018133D01*
X125063095Y-103018133D02*
X125110714Y-103160990D01*
X125110714Y-103160990D02*
X125682142Y-103732419D01*
X125682142Y-103732419D02*
X125063095Y-103732419D01*
X137539285Y-116732419D02*
X137539285Y-115732419D01*
X137539285Y-115732419D02*
X137301190Y-115732419D01*
X137301190Y-115732419D02*
X137158333Y-115780038D01*
X137158333Y-115780038D02*
X137063095Y-115875276D01*
X137063095Y-115875276D02*
X137015476Y-115970514D01*
X137015476Y-115970514D02*
X136967857Y-116160990D01*
X136967857Y-116160990D02*
X136967857Y-116303847D01*
X136967857Y-116303847D02*
X137015476Y-116494323D01*
X137015476Y-116494323D02*
X137063095Y-116589561D01*
X137063095Y-116589561D02*
X137158333Y-116684800D01*
X137158333Y-116684800D02*
X137301190Y-116732419D01*
X137301190Y-116732419D02*
X137539285Y-116732419D01*
X136634523Y-115732419D02*
X135967857Y-115732419D01*
X135967857Y-115732419D02*
X136396428Y-116732419D01*
X135444047Y-116160990D02*
X135539285Y-116113371D01*
X135539285Y-116113371D02*
X135586904Y-116065752D01*
X135586904Y-116065752D02*
X135634523Y-115970514D01*
X135634523Y-115970514D02*
X135634523Y-115922895D01*
X135634523Y-115922895D02*
X135586904Y-115827657D01*
X135586904Y-115827657D02*
X135539285Y-115780038D01*
X135539285Y-115780038D02*
X135444047Y-115732419D01*
X135444047Y-115732419D02*
X135253571Y-115732419D01*
X135253571Y-115732419D02*
X135158333Y-115780038D01*
X135158333Y-115780038D02*
X135110714Y-115827657D01*
X135110714Y-115827657D02*
X135063095Y-115922895D01*
X135063095Y-115922895D02*
X135063095Y-115970514D01*
X135063095Y-115970514D02*
X135110714Y-116065752D01*
X135110714Y-116065752D02*
X135158333Y-116113371D01*
X135158333Y-116113371D02*
X135253571Y-116160990D01*
X135253571Y-116160990D02*
X135444047Y-116160990D01*
X135444047Y-116160990D02*
X135539285Y-116208609D01*
X135539285Y-116208609D02*
X135586904Y-116256228D01*
X135586904Y-116256228D02*
X135634523Y-116351466D01*
X135634523Y-116351466D02*
X135634523Y-116541942D01*
X135634523Y-116541942D02*
X135586904Y-116637180D01*
X135586904Y-116637180D02*
X135539285Y-116684800D01*
X135539285Y-116684800D02*
X135444047Y-116732419D01*
X135444047Y-116732419D02*
X135253571Y-116732419D01*
X135253571Y-116732419D02*
X135158333Y-116684800D01*
X135158333Y-116684800D02*
X135110714Y-116637180D01*
X135110714Y-116637180D02*
X135063095Y-116541942D01*
X135063095Y-116541942D02*
X135063095Y-116351466D01*
X135063095Y-116351466D02*
X135110714Y-116256228D01*
X135110714Y-116256228D02*
X135158333Y-116208609D01*
X135158333Y-116208609D02*
X135253571Y-116160990D01*
X167539285Y-116732419D02*
X167539285Y-115732419D01*
X167539285Y-115732419D02*
X167301190Y-115732419D01*
X167301190Y-115732419D02*
X167158333Y-115780038D01*
X167158333Y-115780038D02*
X167063095Y-115875276D01*
X167063095Y-115875276D02*
X167015476Y-115970514D01*
X167015476Y-115970514D02*
X166967857Y-116160990D01*
X166967857Y-116160990D02*
X166967857Y-116303847D01*
X166967857Y-116303847D02*
X167015476Y-116494323D01*
X167015476Y-116494323D02*
X167063095Y-116589561D01*
X167063095Y-116589561D02*
X167158333Y-116684800D01*
X167158333Y-116684800D02*
X167301190Y-116732419D01*
X167301190Y-116732419D02*
X167539285Y-116732419D01*
X166110714Y-115732419D02*
X166301190Y-115732419D01*
X166301190Y-115732419D02*
X166396428Y-115780038D01*
X166396428Y-115780038D02*
X166444047Y-115827657D01*
X166444047Y-115827657D02*
X166539285Y-115970514D01*
X166539285Y-115970514D02*
X166586904Y-116160990D01*
X166586904Y-116160990D02*
X166586904Y-116541942D01*
X166586904Y-116541942D02*
X166539285Y-116637180D01*
X166539285Y-116637180D02*
X166491666Y-116684800D01*
X166491666Y-116684800D02*
X166396428Y-116732419D01*
X166396428Y-116732419D02*
X166205952Y-116732419D01*
X166205952Y-116732419D02*
X166110714Y-116684800D01*
X166110714Y-116684800D02*
X166063095Y-116637180D01*
X166063095Y-116637180D02*
X166015476Y-116541942D01*
X166015476Y-116541942D02*
X166015476Y-116303847D01*
X166015476Y-116303847D02*
X166063095Y-116208609D01*
X166063095Y-116208609D02*
X166110714Y-116160990D01*
X166110714Y-116160990D02*
X166205952Y-116113371D01*
X166205952Y-116113371D02*
X166396428Y-116113371D01*
X166396428Y-116113371D02*
X166491666Y-116160990D01*
X166491666Y-116160990D02*
X166539285Y-116208609D01*
X166539285Y-116208609D02*
X166586904Y-116303847D01*
X165396428Y-115732419D02*
X165301190Y-115732419D01*
X165301190Y-115732419D02*
X165205952Y-115780038D01*
X165205952Y-115780038D02*
X165158333Y-115827657D01*
X165158333Y-115827657D02*
X165110714Y-115922895D01*
X165110714Y-115922895D02*
X165063095Y-116113371D01*
X165063095Y-116113371D02*
X165063095Y-116351466D01*
X165063095Y-116351466D02*
X165110714Y-116541942D01*
X165110714Y-116541942D02*
X165158333Y-116637180D01*
X165158333Y-116637180D02*
X165205952Y-116684800D01*
X165205952Y-116684800D02*
X165301190Y-116732419D01*
X165301190Y-116732419D02*
X165396428Y-116732419D01*
X165396428Y-116732419D02*
X165491666Y-116684800D01*
X165491666Y-116684800D02*
X165539285Y-116637180D01*
X165539285Y-116637180D02*
X165586904Y-116541942D01*
X165586904Y-116541942D02*
X165634523Y-116351466D01*
X165634523Y-116351466D02*
X165634523Y-116113371D01*
X165634523Y-116113371D02*
X165586904Y-115922895D01*
X165586904Y-115922895D02*
X165539285Y-115827657D01*
X165539285Y-115827657D02*
X165491666Y-115780038D01*
X165491666Y-115780038D02*
X165396428Y-115732419D01*
D11*
X183534973Y-97107142D02*
X183058782Y-96773809D01*
X183534973Y-96535714D02*
X182534973Y-96535714D01*
X182534973Y-96535714D02*
X182534973Y-96916666D01*
X182534973Y-96916666D02*
X182582592Y-97011904D01*
X182582592Y-97011904D02*
X182630211Y-97059523D01*
X182630211Y-97059523D02*
X182725449Y-97107142D01*
X182725449Y-97107142D02*
X182868306Y-97107142D01*
X182868306Y-97107142D02*
X182963544Y-97059523D01*
X182963544Y-97059523D02*
X183011163Y-97011904D01*
X183011163Y-97011904D02*
X183058782Y-96916666D01*
X183058782Y-96916666D02*
X183058782Y-96535714D01*
X182630211Y-97488095D02*
X182582592Y-97535714D01*
X182582592Y-97535714D02*
X182534973Y-97630952D01*
X182534973Y-97630952D02*
X182534973Y-97869047D01*
X182534973Y-97869047D02*
X182582592Y-97964285D01*
X182582592Y-97964285D02*
X182630211Y-98011904D01*
X182630211Y-98011904D02*
X182725449Y-98059523D01*
X182725449Y-98059523D02*
X182820687Y-98059523D01*
X182820687Y-98059523D02*
X182963544Y-98011904D01*
X182963544Y-98011904D02*
X183534973Y-97440476D01*
X183534973Y-97440476D02*
X183534973Y-98059523D01*
X183534973Y-99011904D02*
X183534973Y-98440476D01*
X183534973Y-98726190D02*
X182534973Y-98726190D01*
X182534973Y-98726190D02*
X182677830Y-98630952D01*
X182677830Y-98630952D02*
X182773068Y-98535714D01*
X182773068Y-98535714D02*
X182820687Y-98440476D01*
D10*
X137539285Y-103732419D02*
X137539285Y-102732419D01*
X137539285Y-102732419D02*
X137301190Y-102732419D01*
X137301190Y-102732419D02*
X137158333Y-102780038D01*
X137158333Y-102780038D02*
X137063095Y-102875276D01*
X137063095Y-102875276D02*
X137015476Y-102970514D01*
X137015476Y-102970514D02*
X136967857Y-103160990D01*
X136967857Y-103160990D02*
X136967857Y-103303847D01*
X136967857Y-103303847D02*
X137015476Y-103494323D01*
X137015476Y-103494323D02*
X137063095Y-103589561D01*
X137063095Y-103589561D02*
X137158333Y-103684800D01*
X137158333Y-103684800D02*
X137301190Y-103732419D01*
X137301190Y-103732419D02*
X137539285Y-103732419D01*
X136634523Y-102732419D02*
X135967857Y-102732419D01*
X135967857Y-102732419D02*
X136396428Y-103732419D01*
X135158333Y-102732419D02*
X135348809Y-102732419D01*
X135348809Y-102732419D02*
X135444047Y-102780038D01*
X135444047Y-102780038D02*
X135491666Y-102827657D01*
X135491666Y-102827657D02*
X135586904Y-102970514D01*
X135586904Y-102970514D02*
X135634523Y-103160990D01*
X135634523Y-103160990D02*
X135634523Y-103541942D01*
X135634523Y-103541942D02*
X135586904Y-103637180D01*
X135586904Y-103637180D02*
X135539285Y-103684800D01*
X135539285Y-103684800D02*
X135444047Y-103732419D01*
X135444047Y-103732419D02*
X135253571Y-103732419D01*
X135253571Y-103732419D02*
X135158333Y-103684800D01*
X135158333Y-103684800D02*
X135110714Y-103637180D01*
X135110714Y-103637180D02*
X135063095Y-103541942D01*
X135063095Y-103541942D02*
X135063095Y-103303847D01*
X135063095Y-103303847D02*
X135110714Y-103208609D01*
X135110714Y-103208609D02*
X135158333Y-103160990D01*
X135158333Y-103160990D02*
X135253571Y-103113371D01*
X135253571Y-103113371D02*
X135444047Y-103113371D01*
X135444047Y-103113371D02*
X135539285Y-103160990D01*
X135539285Y-103160990D02*
X135586904Y-103208609D01*
X135586904Y-103208609D02*
X135634523Y-103303847D01*
X142539285Y-110232419D02*
X142539285Y-109232419D01*
X142539285Y-109232419D02*
X142301190Y-109232419D01*
X142301190Y-109232419D02*
X142158333Y-109280038D01*
X142158333Y-109280038D02*
X142063095Y-109375276D01*
X142063095Y-109375276D02*
X142015476Y-109470514D01*
X142015476Y-109470514D02*
X141967857Y-109660990D01*
X141967857Y-109660990D02*
X141967857Y-109803847D01*
X141967857Y-109803847D02*
X142015476Y-109994323D01*
X142015476Y-109994323D02*
X142063095Y-110089561D01*
X142063095Y-110089561D02*
X142158333Y-110184800D01*
X142158333Y-110184800D02*
X142301190Y-110232419D01*
X142301190Y-110232419D02*
X142539285Y-110232419D01*
X141634523Y-109232419D02*
X140967857Y-109232419D01*
X140967857Y-109232419D02*
X141396428Y-110232419D01*
X140158333Y-109565752D02*
X140158333Y-110232419D01*
X140396428Y-109184800D02*
X140634523Y-109899085D01*
X140634523Y-109899085D02*
X140015476Y-109899085D01*
X147539285Y-103732419D02*
X147539285Y-102732419D01*
X147539285Y-102732419D02*
X147301190Y-102732419D01*
X147301190Y-102732419D02*
X147158333Y-102780038D01*
X147158333Y-102780038D02*
X147063095Y-102875276D01*
X147063095Y-102875276D02*
X147015476Y-102970514D01*
X147015476Y-102970514D02*
X146967857Y-103160990D01*
X146967857Y-103160990D02*
X146967857Y-103303847D01*
X146967857Y-103303847D02*
X147015476Y-103494323D01*
X147015476Y-103494323D02*
X147063095Y-103589561D01*
X147063095Y-103589561D02*
X147158333Y-103684800D01*
X147158333Y-103684800D02*
X147301190Y-103732419D01*
X147301190Y-103732419D02*
X147539285Y-103732419D01*
X146634523Y-102732419D02*
X145967857Y-102732419D01*
X145967857Y-102732419D02*
X146396428Y-103732419D01*
X145396428Y-102732419D02*
X145301190Y-102732419D01*
X145301190Y-102732419D02*
X145205952Y-102780038D01*
X145205952Y-102780038D02*
X145158333Y-102827657D01*
X145158333Y-102827657D02*
X145110714Y-102922895D01*
X145110714Y-102922895D02*
X145063095Y-103113371D01*
X145063095Y-103113371D02*
X145063095Y-103351466D01*
X145063095Y-103351466D02*
X145110714Y-103541942D01*
X145110714Y-103541942D02*
X145158333Y-103637180D01*
X145158333Y-103637180D02*
X145205952Y-103684800D01*
X145205952Y-103684800D02*
X145301190Y-103732419D01*
X145301190Y-103732419D02*
X145396428Y-103732419D01*
X145396428Y-103732419D02*
X145491666Y-103684800D01*
X145491666Y-103684800D02*
X145539285Y-103637180D01*
X145539285Y-103637180D02*
X145586904Y-103541942D01*
X145586904Y-103541942D02*
X145634523Y-103351466D01*
X145634523Y-103351466D02*
X145634523Y-103113371D01*
X145634523Y-103113371D02*
X145586904Y-102922895D01*
X145586904Y-102922895D02*
X145539285Y-102827657D01*
X145539285Y-102827657D02*
X145491666Y-102780038D01*
X145491666Y-102780038D02*
X145396428Y-102732419D01*
X157539285Y-103732419D02*
X157539285Y-102732419D01*
X157539285Y-102732419D02*
X157301190Y-102732419D01*
X157301190Y-102732419D02*
X157158333Y-102780038D01*
X157158333Y-102780038D02*
X157063095Y-102875276D01*
X157063095Y-102875276D02*
X157015476Y-102970514D01*
X157015476Y-102970514D02*
X156967857Y-103160990D01*
X156967857Y-103160990D02*
X156967857Y-103303847D01*
X156967857Y-103303847D02*
X157015476Y-103494323D01*
X157015476Y-103494323D02*
X157063095Y-103589561D01*
X157063095Y-103589561D02*
X157158333Y-103684800D01*
X157158333Y-103684800D02*
X157301190Y-103732419D01*
X157301190Y-103732419D02*
X157539285Y-103732419D01*
X156110714Y-102732419D02*
X156301190Y-102732419D01*
X156301190Y-102732419D02*
X156396428Y-102780038D01*
X156396428Y-102780038D02*
X156444047Y-102827657D01*
X156444047Y-102827657D02*
X156539285Y-102970514D01*
X156539285Y-102970514D02*
X156586904Y-103160990D01*
X156586904Y-103160990D02*
X156586904Y-103541942D01*
X156586904Y-103541942D02*
X156539285Y-103637180D01*
X156539285Y-103637180D02*
X156491666Y-103684800D01*
X156491666Y-103684800D02*
X156396428Y-103732419D01*
X156396428Y-103732419D02*
X156205952Y-103732419D01*
X156205952Y-103732419D02*
X156110714Y-103684800D01*
X156110714Y-103684800D02*
X156063095Y-103637180D01*
X156063095Y-103637180D02*
X156015476Y-103541942D01*
X156015476Y-103541942D02*
X156015476Y-103303847D01*
X156015476Y-103303847D02*
X156063095Y-103208609D01*
X156063095Y-103208609D02*
X156110714Y-103160990D01*
X156110714Y-103160990D02*
X156205952Y-103113371D01*
X156205952Y-103113371D02*
X156396428Y-103113371D01*
X156396428Y-103113371D02*
X156491666Y-103160990D01*
X156491666Y-103160990D02*
X156539285Y-103208609D01*
X156539285Y-103208609D02*
X156586904Y-103303847D01*
X155158333Y-103065752D02*
X155158333Y-103732419D01*
X155396428Y-102684800D02*
X155634523Y-103399085D01*
X155634523Y-103399085D02*
X155015476Y-103399085D01*
D11*
X143204819Y-97107142D02*
X142728628Y-96773809D01*
X143204819Y-96535714D02*
X142204819Y-96535714D01*
X142204819Y-96535714D02*
X142204819Y-96916666D01*
X142204819Y-96916666D02*
X142252438Y-97011904D01*
X142252438Y-97011904D02*
X142300057Y-97059523D01*
X142300057Y-97059523D02*
X142395295Y-97107142D01*
X142395295Y-97107142D02*
X142538152Y-97107142D01*
X142538152Y-97107142D02*
X142633390Y-97059523D01*
X142633390Y-97059523D02*
X142681009Y-97011904D01*
X142681009Y-97011904D02*
X142728628Y-96916666D01*
X142728628Y-96916666D02*
X142728628Y-96535714D01*
X142300057Y-97488095D02*
X142252438Y-97535714D01*
X142252438Y-97535714D02*
X142204819Y-97630952D01*
X142204819Y-97630952D02*
X142204819Y-97869047D01*
X142204819Y-97869047D02*
X142252438Y-97964285D01*
X142252438Y-97964285D02*
X142300057Y-98011904D01*
X142300057Y-98011904D02*
X142395295Y-98059523D01*
X142395295Y-98059523D02*
X142490533Y-98059523D01*
X142490533Y-98059523D02*
X142633390Y-98011904D01*
X142633390Y-98011904D02*
X143204819Y-97440476D01*
X143204819Y-97440476D02*
X143204819Y-98059523D01*
X143204819Y-98535714D02*
X143204819Y-98726190D01*
X143204819Y-98726190D02*
X143157200Y-98821428D01*
X143157200Y-98821428D02*
X143109580Y-98869047D01*
X143109580Y-98869047D02*
X142966723Y-98964285D01*
X142966723Y-98964285D02*
X142776247Y-99011904D01*
X142776247Y-99011904D02*
X142395295Y-99011904D01*
X142395295Y-99011904D02*
X142300057Y-98964285D01*
X142300057Y-98964285D02*
X142252438Y-98916666D01*
X142252438Y-98916666D02*
X142204819Y-98821428D01*
X142204819Y-98821428D02*
X142204819Y-98630952D01*
X142204819Y-98630952D02*
X142252438Y-98535714D01*
X142252438Y-98535714D02*
X142300057Y-98488095D01*
X142300057Y-98488095D02*
X142395295Y-98440476D01*
X142395295Y-98440476D02*
X142633390Y-98440476D01*
X142633390Y-98440476D02*
X142728628Y-98488095D01*
X142728628Y-98488095D02*
X142776247Y-98535714D01*
X142776247Y-98535714D02*
X142823866Y-98630952D01*
X142823866Y-98630952D02*
X142823866Y-98821428D01*
X142823866Y-98821428D02*
X142776247Y-98916666D01*
X142776247Y-98916666D02*
X142728628Y-98964285D01*
X142728628Y-98964285D02*
X142633390Y-99011904D01*
D10*
X132539285Y-116732419D02*
X132539285Y-115732419D01*
X132539285Y-115732419D02*
X132301190Y-115732419D01*
X132301190Y-115732419D02*
X132158333Y-115780038D01*
X132158333Y-115780038D02*
X132063095Y-115875276D01*
X132063095Y-115875276D02*
X132015476Y-115970514D01*
X132015476Y-115970514D02*
X131967857Y-116160990D01*
X131967857Y-116160990D02*
X131967857Y-116303847D01*
X131967857Y-116303847D02*
X132015476Y-116494323D01*
X132015476Y-116494323D02*
X132063095Y-116589561D01*
X132063095Y-116589561D02*
X132158333Y-116684800D01*
X132158333Y-116684800D02*
X132301190Y-116732419D01*
X132301190Y-116732419D02*
X132539285Y-116732419D01*
X131396428Y-116160990D02*
X131491666Y-116113371D01*
X131491666Y-116113371D02*
X131539285Y-116065752D01*
X131539285Y-116065752D02*
X131586904Y-115970514D01*
X131586904Y-115970514D02*
X131586904Y-115922895D01*
X131586904Y-115922895D02*
X131539285Y-115827657D01*
X131539285Y-115827657D02*
X131491666Y-115780038D01*
X131491666Y-115780038D02*
X131396428Y-115732419D01*
X131396428Y-115732419D02*
X131205952Y-115732419D01*
X131205952Y-115732419D02*
X131110714Y-115780038D01*
X131110714Y-115780038D02*
X131063095Y-115827657D01*
X131063095Y-115827657D02*
X131015476Y-115922895D01*
X131015476Y-115922895D02*
X131015476Y-115970514D01*
X131015476Y-115970514D02*
X131063095Y-116065752D01*
X131063095Y-116065752D02*
X131110714Y-116113371D01*
X131110714Y-116113371D02*
X131205952Y-116160990D01*
X131205952Y-116160990D02*
X131396428Y-116160990D01*
X131396428Y-116160990D02*
X131491666Y-116208609D01*
X131491666Y-116208609D02*
X131539285Y-116256228D01*
X131539285Y-116256228D02*
X131586904Y-116351466D01*
X131586904Y-116351466D02*
X131586904Y-116541942D01*
X131586904Y-116541942D02*
X131539285Y-116637180D01*
X131539285Y-116637180D02*
X131491666Y-116684800D01*
X131491666Y-116684800D02*
X131396428Y-116732419D01*
X131396428Y-116732419D02*
X131205952Y-116732419D01*
X131205952Y-116732419D02*
X131110714Y-116684800D01*
X131110714Y-116684800D02*
X131063095Y-116637180D01*
X131063095Y-116637180D02*
X131015476Y-116541942D01*
X131015476Y-116541942D02*
X131015476Y-116351466D01*
X131015476Y-116351466D02*
X131063095Y-116256228D01*
X131063095Y-116256228D02*
X131110714Y-116208609D01*
X131110714Y-116208609D02*
X131205952Y-116160990D01*
X130063095Y-116732419D02*
X130634523Y-116732419D01*
X130348809Y-116732419D02*
X130348809Y-115732419D01*
X130348809Y-115732419D02*
X130444047Y-115875276D01*
X130444047Y-115875276D02*
X130539285Y-115970514D01*
X130539285Y-115970514D02*
X130634523Y-116018133D01*
X142539285Y-116732419D02*
X142539285Y-115732419D01*
X142539285Y-115732419D02*
X142301190Y-115732419D01*
X142301190Y-115732419D02*
X142158333Y-115780038D01*
X142158333Y-115780038D02*
X142063095Y-115875276D01*
X142063095Y-115875276D02*
X142015476Y-115970514D01*
X142015476Y-115970514D02*
X141967857Y-116160990D01*
X141967857Y-116160990D02*
X141967857Y-116303847D01*
X141967857Y-116303847D02*
X142015476Y-116494323D01*
X142015476Y-116494323D02*
X142063095Y-116589561D01*
X142063095Y-116589561D02*
X142158333Y-116684800D01*
X142158333Y-116684800D02*
X142301190Y-116732419D01*
X142301190Y-116732419D02*
X142539285Y-116732419D01*
X141634523Y-115732419D02*
X140967857Y-115732419D01*
X140967857Y-115732419D02*
X141396428Y-116732419D01*
X140110714Y-115732419D02*
X140586904Y-115732419D01*
X140586904Y-115732419D02*
X140634523Y-116208609D01*
X140634523Y-116208609D02*
X140586904Y-116160990D01*
X140586904Y-116160990D02*
X140491666Y-116113371D01*
X140491666Y-116113371D02*
X140253571Y-116113371D01*
X140253571Y-116113371D02*
X140158333Y-116160990D01*
X140158333Y-116160990D02*
X140110714Y-116208609D01*
X140110714Y-116208609D02*
X140063095Y-116303847D01*
X140063095Y-116303847D02*
X140063095Y-116541942D01*
X140063095Y-116541942D02*
X140110714Y-116637180D01*
X140110714Y-116637180D02*
X140158333Y-116684800D01*
X140158333Y-116684800D02*
X140253571Y-116732419D01*
X140253571Y-116732419D02*
X140491666Y-116732419D01*
X140491666Y-116732419D02*
X140586904Y-116684800D01*
X140586904Y-116684800D02*
X140634523Y-116637180D01*
X132539285Y-110232419D02*
X132539285Y-109232419D01*
X132539285Y-109232419D02*
X132301190Y-109232419D01*
X132301190Y-109232419D02*
X132158333Y-109280038D01*
X132158333Y-109280038D02*
X132063095Y-109375276D01*
X132063095Y-109375276D02*
X132015476Y-109470514D01*
X132015476Y-109470514D02*
X131967857Y-109660990D01*
X131967857Y-109660990D02*
X131967857Y-109803847D01*
X131967857Y-109803847D02*
X132015476Y-109994323D01*
X132015476Y-109994323D02*
X132063095Y-110089561D01*
X132063095Y-110089561D02*
X132158333Y-110184800D01*
X132158333Y-110184800D02*
X132301190Y-110232419D01*
X132301190Y-110232419D02*
X132539285Y-110232419D01*
X131396428Y-109660990D02*
X131491666Y-109613371D01*
X131491666Y-109613371D02*
X131539285Y-109565752D01*
X131539285Y-109565752D02*
X131586904Y-109470514D01*
X131586904Y-109470514D02*
X131586904Y-109422895D01*
X131586904Y-109422895D02*
X131539285Y-109327657D01*
X131539285Y-109327657D02*
X131491666Y-109280038D01*
X131491666Y-109280038D02*
X131396428Y-109232419D01*
X131396428Y-109232419D02*
X131205952Y-109232419D01*
X131205952Y-109232419D02*
X131110714Y-109280038D01*
X131110714Y-109280038D02*
X131063095Y-109327657D01*
X131063095Y-109327657D02*
X131015476Y-109422895D01*
X131015476Y-109422895D02*
X131015476Y-109470514D01*
X131015476Y-109470514D02*
X131063095Y-109565752D01*
X131063095Y-109565752D02*
X131110714Y-109613371D01*
X131110714Y-109613371D02*
X131205952Y-109660990D01*
X131205952Y-109660990D02*
X131396428Y-109660990D01*
X131396428Y-109660990D02*
X131491666Y-109708609D01*
X131491666Y-109708609D02*
X131539285Y-109756228D01*
X131539285Y-109756228D02*
X131586904Y-109851466D01*
X131586904Y-109851466D02*
X131586904Y-110041942D01*
X131586904Y-110041942D02*
X131539285Y-110137180D01*
X131539285Y-110137180D02*
X131491666Y-110184800D01*
X131491666Y-110184800D02*
X131396428Y-110232419D01*
X131396428Y-110232419D02*
X131205952Y-110232419D01*
X131205952Y-110232419D02*
X131110714Y-110184800D01*
X131110714Y-110184800D02*
X131063095Y-110137180D01*
X131063095Y-110137180D02*
X131015476Y-110041942D01*
X131015476Y-110041942D02*
X131015476Y-109851466D01*
X131015476Y-109851466D02*
X131063095Y-109756228D01*
X131063095Y-109756228D02*
X131110714Y-109708609D01*
X131110714Y-109708609D02*
X131205952Y-109660990D01*
X130396428Y-109232419D02*
X130301190Y-109232419D01*
X130301190Y-109232419D02*
X130205952Y-109280038D01*
X130205952Y-109280038D02*
X130158333Y-109327657D01*
X130158333Y-109327657D02*
X130110714Y-109422895D01*
X130110714Y-109422895D02*
X130063095Y-109613371D01*
X130063095Y-109613371D02*
X130063095Y-109851466D01*
X130063095Y-109851466D02*
X130110714Y-110041942D01*
X130110714Y-110041942D02*
X130158333Y-110137180D01*
X130158333Y-110137180D02*
X130205952Y-110184800D01*
X130205952Y-110184800D02*
X130301190Y-110232419D01*
X130301190Y-110232419D02*
X130396428Y-110232419D01*
X130396428Y-110232419D02*
X130491666Y-110184800D01*
X130491666Y-110184800D02*
X130539285Y-110137180D01*
X130539285Y-110137180D02*
X130586904Y-110041942D01*
X130586904Y-110041942D02*
X130634523Y-109851466D01*
X130634523Y-109851466D02*
X130634523Y-109613371D01*
X130634523Y-109613371D02*
X130586904Y-109422895D01*
X130586904Y-109422895D02*
X130539285Y-109327657D01*
X130539285Y-109327657D02*
X130491666Y-109280038D01*
X130491666Y-109280038D02*
X130396428Y-109232419D01*
X167589285Y-103732419D02*
X167589285Y-102732419D01*
X167589285Y-102732419D02*
X167351190Y-102732419D01*
X167351190Y-102732419D02*
X167208333Y-102780038D01*
X167208333Y-102780038D02*
X167113095Y-102875276D01*
X167113095Y-102875276D02*
X167065476Y-102970514D01*
X167065476Y-102970514D02*
X167017857Y-103160990D01*
X167017857Y-103160990D02*
X167017857Y-103303847D01*
X167017857Y-103303847D02*
X167065476Y-103494323D01*
X167065476Y-103494323D02*
X167113095Y-103589561D01*
X167113095Y-103589561D02*
X167208333Y-103684800D01*
X167208333Y-103684800D02*
X167351190Y-103732419D01*
X167351190Y-103732419D02*
X167589285Y-103732419D01*
X166113095Y-102732419D02*
X166589285Y-102732419D01*
X166589285Y-102732419D02*
X166636904Y-103208609D01*
X166636904Y-103208609D02*
X166589285Y-103160990D01*
X166589285Y-103160990D02*
X166494047Y-103113371D01*
X166494047Y-103113371D02*
X166255952Y-103113371D01*
X166255952Y-103113371D02*
X166160714Y-103160990D01*
X166160714Y-103160990D02*
X166113095Y-103208609D01*
X166113095Y-103208609D02*
X166065476Y-103303847D01*
X166065476Y-103303847D02*
X166065476Y-103541942D01*
X166065476Y-103541942D02*
X166113095Y-103637180D01*
X166113095Y-103637180D02*
X166160714Y-103684800D01*
X166160714Y-103684800D02*
X166255952Y-103732419D01*
X166255952Y-103732419D02*
X166494047Y-103732419D01*
X166494047Y-103732419D02*
X166589285Y-103684800D01*
X166589285Y-103684800D02*
X166636904Y-103637180D01*
X165494047Y-103160990D02*
X165589285Y-103113371D01*
X165589285Y-103113371D02*
X165636904Y-103065752D01*
X165636904Y-103065752D02*
X165684523Y-102970514D01*
X165684523Y-102970514D02*
X165684523Y-102922895D01*
X165684523Y-102922895D02*
X165636904Y-102827657D01*
X165636904Y-102827657D02*
X165589285Y-102780038D01*
X165589285Y-102780038D02*
X165494047Y-102732419D01*
X165494047Y-102732419D02*
X165303571Y-102732419D01*
X165303571Y-102732419D02*
X165208333Y-102780038D01*
X165208333Y-102780038D02*
X165160714Y-102827657D01*
X165160714Y-102827657D02*
X165113095Y-102922895D01*
X165113095Y-102922895D02*
X165113095Y-102970514D01*
X165113095Y-102970514D02*
X165160714Y-103065752D01*
X165160714Y-103065752D02*
X165208333Y-103113371D01*
X165208333Y-103113371D02*
X165303571Y-103160990D01*
X165303571Y-103160990D02*
X165494047Y-103160990D01*
X165494047Y-103160990D02*
X165589285Y-103208609D01*
X165589285Y-103208609D02*
X165636904Y-103256228D01*
X165636904Y-103256228D02*
X165684523Y-103351466D01*
X165684523Y-103351466D02*
X165684523Y-103541942D01*
X165684523Y-103541942D02*
X165636904Y-103637180D01*
X165636904Y-103637180D02*
X165589285Y-103684800D01*
X165589285Y-103684800D02*
X165494047Y-103732419D01*
X165494047Y-103732419D02*
X165303571Y-103732419D01*
X165303571Y-103732419D02*
X165208333Y-103684800D01*
X165208333Y-103684800D02*
X165160714Y-103637180D01*
X165160714Y-103637180D02*
X165113095Y-103541942D01*
X165113095Y-103541942D02*
X165113095Y-103351466D01*
X165113095Y-103351466D02*
X165160714Y-103256228D01*
X165160714Y-103256228D02*
X165208333Y-103208609D01*
X165208333Y-103208609D02*
X165303571Y-103160990D01*
D11*
X135054819Y-97107142D02*
X134578628Y-96773809D01*
X135054819Y-96535714D02*
X134054819Y-96535714D01*
X134054819Y-96535714D02*
X134054819Y-96916666D01*
X134054819Y-96916666D02*
X134102438Y-97011904D01*
X134102438Y-97011904D02*
X134150057Y-97059523D01*
X134150057Y-97059523D02*
X134245295Y-97107142D01*
X134245295Y-97107142D02*
X134388152Y-97107142D01*
X134388152Y-97107142D02*
X134483390Y-97059523D01*
X134483390Y-97059523D02*
X134531009Y-97011904D01*
X134531009Y-97011904D02*
X134578628Y-96916666D01*
X134578628Y-96916666D02*
X134578628Y-96535714D01*
X134054819Y-97440476D02*
X134054819Y-98059523D01*
X134054819Y-98059523D02*
X134435771Y-97726190D01*
X134435771Y-97726190D02*
X134435771Y-97869047D01*
X134435771Y-97869047D02*
X134483390Y-97964285D01*
X134483390Y-97964285D02*
X134531009Y-98011904D01*
X134531009Y-98011904D02*
X134626247Y-98059523D01*
X134626247Y-98059523D02*
X134864342Y-98059523D01*
X134864342Y-98059523D02*
X134959580Y-98011904D01*
X134959580Y-98011904D02*
X135007200Y-97964285D01*
X135007200Y-97964285D02*
X135054819Y-97869047D01*
X135054819Y-97869047D02*
X135054819Y-97583333D01*
X135054819Y-97583333D02*
X135007200Y-97488095D01*
X135007200Y-97488095D02*
X134959580Y-97440476D01*
X134054819Y-98678571D02*
X134054819Y-98773809D01*
X134054819Y-98773809D02*
X134102438Y-98869047D01*
X134102438Y-98869047D02*
X134150057Y-98916666D01*
X134150057Y-98916666D02*
X134245295Y-98964285D01*
X134245295Y-98964285D02*
X134435771Y-99011904D01*
X134435771Y-99011904D02*
X134673866Y-99011904D01*
X134673866Y-99011904D02*
X134864342Y-98964285D01*
X134864342Y-98964285D02*
X134959580Y-98916666D01*
X134959580Y-98916666D02*
X135007200Y-98869047D01*
X135007200Y-98869047D02*
X135054819Y-98773809D01*
X135054819Y-98773809D02*
X135054819Y-98678571D01*
X135054819Y-98678571D02*
X135007200Y-98583333D01*
X135007200Y-98583333D02*
X134959580Y-98535714D01*
X134959580Y-98535714D02*
X134864342Y-98488095D01*
X134864342Y-98488095D02*
X134673866Y-98440476D01*
X134673866Y-98440476D02*
X134435771Y-98440476D01*
X134435771Y-98440476D02*
X134245295Y-98488095D01*
X134245295Y-98488095D02*
X134150057Y-98535714D01*
X134150057Y-98535714D02*
X134102438Y-98583333D01*
X134102438Y-98583333D02*
X134054819Y-98678571D01*
D10*
X182539285Y-103732419D02*
X182539285Y-102732419D01*
X182539285Y-102732419D02*
X182301190Y-102732419D01*
X182301190Y-102732419D02*
X182158333Y-102780038D01*
X182158333Y-102780038D02*
X182063095Y-102875276D01*
X182063095Y-102875276D02*
X182015476Y-102970514D01*
X182015476Y-102970514D02*
X181967857Y-103160990D01*
X181967857Y-103160990D02*
X181967857Y-103303847D01*
X181967857Y-103303847D02*
X182015476Y-103494323D01*
X182015476Y-103494323D02*
X182063095Y-103589561D01*
X182063095Y-103589561D02*
X182158333Y-103684800D01*
X182158333Y-103684800D02*
X182301190Y-103732419D01*
X182301190Y-103732419D02*
X182539285Y-103732419D01*
X181110714Y-103065752D02*
X181110714Y-103732419D01*
X181348809Y-102684800D02*
X181586904Y-103399085D01*
X181586904Y-103399085D02*
X180967857Y-103399085D01*
X180539285Y-103732419D02*
X180348809Y-103732419D01*
X180348809Y-103732419D02*
X180253571Y-103684800D01*
X180253571Y-103684800D02*
X180205952Y-103637180D01*
X180205952Y-103637180D02*
X180110714Y-103494323D01*
X180110714Y-103494323D02*
X180063095Y-103303847D01*
X180063095Y-103303847D02*
X180063095Y-102922895D01*
X180063095Y-102922895D02*
X180110714Y-102827657D01*
X180110714Y-102827657D02*
X180158333Y-102780038D01*
X180158333Y-102780038D02*
X180253571Y-102732419D01*
X180253571Y-102732419D02*
X180444047Y-102732419D01*
X180444047Y-102732419D02*
X180539285Y-102780038D01*
X180539285Y-102780038D02*
X180586904Y-102827657D01*
X180586904Y-102827657D02*
X180634523Y-102922895D01*
X180634523Y-102922895D02*
X180634523Y-103160990D01*
X180634523Y-103160990D02*
X180586904Y-103256228D01*
X180586904Y-103256228D02*
X180539285Y-103303847D01*
X180539285Y-103303847D02*
X180444047Y-103351466D01*
X180444047Y-103351466D02*
X180253571Y-103351466D01*
X180253571Y-103351466D02*
X180158333Y-103303847D01*
X180158333Y-103303847D02*
X180110714Y-103256228D01*
X180110714Y-103256228D02*
X180063095Y-103160990D01*
X157539285Y-110232419D02*
X157539285Y-109232419D01*
X157539285Y-109232419D02*
X157301190Y-109232419D01*
X157301190Y-109232419D02*
X157158333Y-109280038D01*
X157158333Y-109280038D02*
X157063095Y-109375276D01*
X157063095Y-109375276D02*
X157015476Y-109470514D01*
X157015476Y-109470514D02*
X156967857Y-109660990D01*
X156967857Y-109660990D02*
X156967857Y-109803847D01*
X156967857Y-109803847D02*
X157015476Y-109994323D01*
X157015476Y-109994323D02*
X157063095Y-110089561D01*
X157063095Y-110089561D02*
X157158333Y-110184800D01*
X157158333Y-110184800D02*
X157301190Y-110232419D01*
X157301190Y-110232419D02*
X157539285Y-110232419D01*
X156110714Y-109232419D02*
X156301190Y-109232419D01*
X156301190Y-109232419D02*
X156396428Y-109280038D01*
X156396428Y-109280038D02*
X156444047Y-109327657D01*
X156444047Y-109327657D02*
X156539285Y-109470514D01*
X156539285Y-109470514D02*
X156586904Y-109660990D01*
X156586904Y-109660990D02*
X156586904Y-110041942D01*
X156586904Y-110041942D02*
X156539285Y-110137180D01*
X156539285Y-110137180D02*
X156491666Y-110184800D01*
X156491666Y-110184800D02*
X156396428Y-110232419D01*
X156396428Y-110232419D02*
X156205952Y-110232419D01*
X156205952Y-110232419D02*
X156110714Y-110184800D01*
X156110714Y-110184800D02*
X156063095Y-110137180D01*
X156063095Y-110137180D02*
X156015476Y-110041942D01*
X156015476Y-110041942D02*
X156015476Y-109803847D01*
X156015476Y-109803847D02*
X156063095Y-109708609D01*
X156063095Y-109708609D02*
X156110714Y-109660990D01*
X156110714Y-109660990D02*
X156205952Y-109613371D01*
X156205952Y-109613371D02*
X156396428Y-109613371D01*
X156396428Y-109613371D02*
X156491666Y-109660990D01*
X156491666Y-109660990D02*
X156539285Y-109708609D01*
X156539285Y-109708609D02*
X156586904Y-109803847D01*
X155110714Y-109232419D02*
X155586904Y-109232419D01*
X155586904Y-109232419D02*
X155634523Y-109708609D01*
X155634523Y-109708609D02*
X155586904Y-109660990D01*
X155586904Y-109660990D02*
X155491666Y-109613371D01*
X155491666Y-109613371D02*
X155253571Y-109613371D01*
X155253571Y-109613371D02*
X155158333Y-109660990D01*
X155158333Y-109660990D02*
X155110714Y-109708609D01*
X155110714Y-109708609D02*
X155063095Y-109803847D01*
X155063095Y-109803847D02*
X155063095Y-110041942D01*
X155063095Y-110041942D02*
X155110714Y-110137180D01*
X155110714Y-110137180D02*
X155158333Y-110184800D01*
X155158333Y-110184800D02*
X155253571Y-110232419D01*
X155253571Y-110232419D02*
X155491666Y-110232419D01*
X155491666Y-110232419D02*
X155586904Y-110184800D01*
X155586904Y-110184800D02*
X155634523Y-110137180D01*
X152539285Y-110232419D02*
X152539285Y-109232419D01*
X152539285Y-109232419D02*
X152301190Y-109232419D01*
X152301190Y-109232419D02*
X152158333Y-109280038D01*
X152158333Y-109280038D02*
X152063095Y-109375276D01*
X152063095Y-109375276D02*
X152015476Y-109470514D01*
X152015476Y-109470514D02*
X151967857Y-109660990D01*
X151967857Y-109660990D02*
X151967857Y-109803847D01*
X151967857Y-109803847D02*
X152015476Y-109994323D01*
X152015476Y-109994323D02*
X152063095Y-110089561D01*
X152063095Y-110089561D02*
X152158333Y-110184800D01*
X152158333Y-110184800D02*
X152301190Y-110232419D01*
X152301190Y-110232419D02*
X152539285Y-110232419D01*
X151110714Y-109232419D02*
X151301190Y-109232419D01*
X151301190Y-109232419D02*
X151396428Y-109280038D01*
X151396428Y-109280038D02*
X151444047Y-109327657D01*
X151444047Y-109327657D02*
X151539285Y-109470514D01*
X151539285Y-109470514D02*
X151586904Y-109660990D01*
X151586904Y-109660990D02*
X151586904Y-110041942D01*
X151586904Y-110041942D02*
X151539285Y-110137180D01*
X151539285Y-110137180D02*
X151491666Y-110184800D01*
X151491666Y-110184800D02*
X151396428Y-110232419D01*
X151396428Y-110232419D02*
X151205952Y-110232419D01*
X151205952Y-110232419D02*
X151110714Y-110184800D01*
X151110714Y-110184800D02*
X151063095Y-110137180D01*
X151063095Y-110137180D02*
X151015476Y-110041942D01*
X151015476Y-110041942D02*
X151015476Y-109803847D01*
X151015476Y-109803847D02*
X151063095Y-109708609D01*
X151063095Y-109708609D02*
X151110714Y-109660990D01*
X151110714Y-109660990D02*
X151205952Y-109613371D01*
X151205952Y-109613371D02*
X151396428Y-109613371D01*
X151396428Y-109613371D02*
X151491666Y-109660990D01*
X151491666Y-109660990D02*
X151539285Y-109708609D01*
X151539285Y-109708609D02*
X151586904Y-109803847D01*
X150444047Y-109660990D02*
X150539285Y-109613371D01*
X150539285Y-109613371D02*
X150586904Y-109565752D01*
X150586904Y-109565752D02*
X150634523Y-109470514D01*
X150634523Y-109470514D02*
X150634523Y-109422895D01*
X150634523Y-109422895D02*
X150586904Y-109327657D01*
X150586904Y-109327657D02*
X150539285Y-109280038D01*
X150539285Y-109280038D02*
X150444047Y-109232419D01*
X150444047Y-109232419D02*
X150253571Y-109232419D01*
X150253571Y-109232419D02*
X150158333Y-109280038D01*
X150158333Y-109280038D02*
X150110714Y-109327657D01*
X150110714Y-109327657D02*
X150063095Y-109422895D01*
X150063095Y-109422895D02*
X150063095Y-109470514D01*
X150063095Y-109470514D02*
X150110714Y-109565752D01*
X150110714Y-109565752D02*
X150158333Y-109613371D01*
X150158333Y-109613371D02*
X150253571Y-109660990D01*
X150253571Y-109660990D02*
X150444047Y-109660990D01*
X150444047Y-109660990D02*
X150539285Y-109708609D01*
X150539285Y-109708609D02*
X150586904Y-109756228D01*
X150586904Y-109756228D02*
X150634523Y-109851466D01*
X150634523Y-109851466D02*
X150634523Y-110041942D01*
X150634523Y-110041942D02*
X150586904Y-110137180D01*
X150586904Y-110137180D02*
X150539285Y-110184800D01*
X150539285Y-110184800D02*
X150444047Y-110232419D01*
X150444047Y-110232419D02*
X150253571Y-110232419D01*
X150253571Y-110232419D02*
X150158333Y-110184800D01*
X150158333Y-110184800D02*
X150110714Y-110137180D01*
X150110714Y-110137180D02*
X150063095Y-110041942D01*
X150063095Y-110041942D02*
X150063095Y-109851466D01*
X150063095Y-109851466D02*
X150110714Y-109756228D01*
X150110714Y-109756228D02*
X150158333Y-109708609D01*
X150158333Y-109708609D02*
X150253571Y-109660990D01*
X162539285Y-116732419D02*
X162539285Y-115732419D01*
X162539285Y-115732419D02*
X162301190Y-115732419D01*
X162301190Y-115732419D02*
X162158333Y-115780038D01*
X162158333Y-115780038D02*
X162063095Y-115875276D01*
X162063095Y-115875276D02*
X162015476Y-115970514D01*
X162015476Y-115970514D02*
X161967857Y-116160990D01*
X161967857Y-116160990D02*
X161967857Y-116303847D01*
X161967857Y-116303847D02*
X162015476Y-116494323D01*
X162015476Y-116494323D02*
X162063095Y-116589561D01*
X162063095Y-116589561D02*
X162158333Y-116684800D01*
X162158333Y-116684800D02*
X162301190Y-116732419D01*
X162301190Y-116732419D02*
X162539285Y-116732419D01*
X161110714Y-115732419D02*
X161301190Y-115732419D01*
X161301190Y-115732419D02*
X161396428Y-115780038D01*
X161396428Y-115780038D02*
X161444047Y-115827657D01*
X161444047Y-115827657D02*
X161539285Y-115970514D01*
X161539285Y-115970514D02*
X161586904Y-116160990D01*
X161586904Y-116160990D02*
X161586904Y-116541942D01*
X161586904Y-116541942D02*
X161539285Y-116637180D01*
X161539285Y-116637180D02*
X161491666Y-116684800D01*
X161491666Y-116684800D02*
X161396428Y-116732419D01*
X161396428Y-116732419D02*
X161205952Y-116732419D01*
X161205952Y-116732419D02*
X161110714Y-116684800D01*
X161110714Y-116684800D02*
X161063095Y-116637180D01*
X161063095Y-116637180D02*
X161015476Y-116541942D01*
X161015476Y-116541942D02*
X161015476Y-116303847D01*
X161015476Y-116303847D02*
X161063095Y-116208609D01*
X161063095Y-116208609D02*
X161110714Y-116160990D01*
X161110714Y-116160990D02*
X161205952Y-116113371D01*
X161205952Y-116113371D02*
X161396428Y-116113371D01*
X161396428Y-116113371D02*
X161491666Y-116160990D01*
X161491666Y-116160990D02*
X161539285Y-116208609D01*
X161539285Y-116208609D02*
X161586904Y-116303847D01*
X160682142Y-115732419D02*
X160063095Y-115732419D01*
X160063095Y-115732419D02*
X160396428Y-116113371D01*
X160396428Y-116113371D02*
X160253571Y-116113371D01*
X160253571Y-116113371D02*
X160158333Y-116160990D01*
X160158333Y-116160990D02*
X160110714Y-116208609D01*
X160110714Y-116208609D02*
X160063095Y-116303847D01*
X160063095Y-116303847D02*
X160063095Y-116541942D01*
X160063095Y-116541942D02*
X160110714Y-116637180D01*
X160110714Y-116637180D02*
X160158333Y-116684800D01*
X160158333Y-116684800D02*
X160253571Y-116732419D01*
X160253571Y-116732419D02*
X160539285Y-116732419D01*
X160539285Y-116732419D02*
X160634523Y-116684800D01*
X160634523Y-116684800D02*
X160682142Y-116637180D01*
X182539285Y-110232419D02*
X182539285Y-109232419D01*
X182539285Y-109232419D02*
X182301190Y-109232419D01*
X182301190Y-109232419D02*
X182158333Y-109280038D01*
X182158333Y-109280038D02*
X182063095Y-109375276D01*
X182063095Y-109375276D02*
X182015476Y-109470514D01*
X182015476Y-109470514D02*
X181967857Y-109660990D01*
X181967857Y-109660990D02*
X181967857Y-109803847D01*
X181967857Y-109803847D02*
X182015476Y-109994323D01*
X182015476Y-109994323D02*
X182063095Y-110089561D01*
X182063095Y-110089561D02*
X182158333Y-110184800D01*
X182158333Y-110184800D02*
X182301190Y-110232419D01*
X182301190Y-110232419D02*
X182539285Y-110232419D01*
X181063095Y-109232419D02*
X181539285Y-109232419D01*
X181539285Y-109232419D02*
X181586904Y-109708609D01*
X181586904Y-109708609D02*
X181539285Y-109660990D01*
X181539285Y-109660990D02*
X181444047Y-109613371D01*
X181444047Y-109613371D02*
X181205952Y-109613371D01*
X181205952Y-109613371D02*
X181110714Y-109660990D01*
X181110714Y-109660990D02*
X181063095Y-109708609D01*
X181063095Y-109708609D02*
X181015476Y-109803847D01*
X181015476Y-109803847D02*
X181015476Y-110041942D01*
X181015476Y-110041942D02*
X181063095Y-110137180D01*
X181063095Y-110137180D02*
X181110714Y-110184800D01*
X181110714Y-110184800D02*
X181205952Y-110232419D01*
X181205952Y-110232419D02*
X181444047Y-110232419D01*
X181444047Y-110232419D02*
X181539285Y-110184800D01*
X181539285Y-110184800D02*
X181586904Y-110137180D01*
X180396428Y-109232419D02*
X180301190Y-109232419D01*
X180301190Y-109232419D02*
X180205952Y-109280038D01*
X180205952Y-109280038D02*
X180158333Y-109327657D01*
X180158333Y-109327657D02*
X180110714Y-109422895D01*
X180110714Y-109422895D02*
X180063095Y-109613371D01*
X180063095Y-109613371D02*
X180063095Y-109851466D01*
X180063095Y-109851466D02*
X180110714Y-110041942D01*
X180110714Y-110041942D02*
X180158333Y-110137180D01*
X180158333Y-110137180D02*
X180205952Y-110184800D01*
X180205952Y-110184800D02*
X180301190Y-110232419D01*
X180301190Y-110232419D02*
X180396428Y-110232419D01*
X180396428Y-110232419D02*
X180491666Y-110184800D01*
X180491666Y-110184800D02*
X180539285Y-110137180D01*
X180539285Y-110137180D02*
X180586904Y-110041942D01*
X180586904Y-110041942D02*
X180634523Y-109851466D01*
X180634523Y-109851466D02*
X180634523Y-109613371D01*
X180634523Y-109613371D02*
X180586904Y-109422895D01*
X180586904Y-109422895D02*
X180539285Y-109327657D01*
X180539285Y-109327657D02*
X180491666Y-109280038D01*
X180491666Y-109280038D02*
X180396428Y-109232419D01*
X172589285Y-116732419D02*
X172589285Y-115732419D01*
X172589285Y-115732419D02*
X172351190Y-115732419D01*
X172351190Y-115732419D02*
X172208333Y-115780038D01*
X172208333Y-115780038D02*
X172113095Y-115875276D01*
X172113095Y-115875276D02*
X172065476Y-115970514D01*
X172065476Y-115970514D02*
X172017857Y-116160990D01*
X172017857Y-116160990D02*
X172017857Y-116303847D01*
X172017857Y-116303847D02*
X172065476Y-116494323D01*
X172065476Y-116494323D02*
X172113095Y-116589561D01*
X172113095Y-116589561D02*
X172208333Y-116684800D01*
X172208333Y-116684800D02*
X172351190Y-116732419D01*
X172351190Y-116732419D02*
X172589285Y-116732419D01*
X171113095Y-115732419D02*
X171589285Y-115732419D01*
X171589285Y-115732419D02*
X171636904Y-116208609D01*
X171636904Y-116208609D02*
X171589285Y-116160990D01*
X171589285Y-116160990D02*
X171494047Y-116113371D01*
X171494047Y-116113371D02*
X171255952Y-116113371D01*
X171255952Y-116113371D02*
X171160714Y-116160990D01*
X171160714Y-116160990D02*
X171113095Y-116208609D01*
X171113095Y-116208609D02*
X171065476Y-116303847D01*
X171065476Y-116303847D02*
X171065476Y-116541942D01*
X171065476Y-116541942D02*
X171113095Y-116637180D01*
X171113095Y-116637180D02*
X171160714Y-116684800D01*
X171160714Y-116684800D02*
X171255952Y-116732419D01*
X171255952Y-116732419D02*
X171494047Y-116732419D01*
X171494047Y-116732419D02*
X171589285Y-116684800D01*
X171589285Y-116684800D02*
X171636904Y-116637180D01*
X170732142Y-115732419D02*
X170065476Y-115732419D01*
X170065476Y-115732419D02*
X170494047Y-116732419D01*
X137539285Y-110232419D02*
X137539285Y-109232419D01*
X137539285Y-109232419D02*
X137301190Y-109232419D01*
X137301190Y-109232419D02*
X137158333Y-109280038D01*
X137158333Y-109280038D02*
X137063095Y-109375276D01*
X137063095Y-109375276D02*
X137015476Y-109470514D01*
X137015476Y-109470514D02*
X136967857Y-109660990D01*
X136967857Y-109660990D02*
X136967857Y-109803847D01*
X136967857Y-109803847D02*
X137015476Y-109994323D01*
X137015476Y-109994323D02*
X137063095Y-110089561D01*
X137063095Y-110089561D02*
X137158333Y-110184800D01*
X137158333Y-110184800D02*
X137301190Y-110232419D01*
X137301190Y-110232419D02*
X137539285Y-110232419D01*
X136634523Y-109232419D02*
X135967857Y-109232419D01*
X135967857Y-109232419D02*
X136396428Y-110232419D01*
X135682142Y-109232419D02*
X135015476Y-109232419D01*
X135015476Y-109232419D02*
X135444047Y-110232419D01*
X162539285Y-110232419D02*
X162539285Y-109232419D01*
X162539285Y-109232419D02*
X162301190Y-109232419D01*
X162301190Y-109232419D02*
X162158333Y-109280038D01*
X162158333Y-109280038D02*
X162063095Y-109375276D01*
X162063095Y-109375276D02*
X162015476Y-109470514D01*
X162015476Y-109470514D02*
X161967857Y-109660990D01*
X161967857Y-109660990D02*
X161967857Y-109803847D01*
X161967857Y-109803847D02*
X162015476Y-109994323D01*
X162015476Y-109994323D02*
X162063095Y-110089561D01*
X162063095Y-110089561D02*
X162158333Y-110184800D01*
X162158333Y-110184800D02*
X162301190Y-110232419D01*
X162301190Y-110232419D02*
X162539285Y-110232419D01*
X161110714Y-109232419D02*
X161301190Y-109232419D01*
X161301190Y-109232419D02*
X161396428Y-109280038D01*
X161396428Y-109280038D02*
X161444047Y-109327657D01*
X161444047Y-109327657D02*
X161539285Y-109470514D01*
X161539285Y-109470514D02*
X161586904Y-109660990D01*
X161586904Y-109660990D02*
X161586904Y-110041942D01*
X161586904Y-110041942D02*
X161539285Y-110137180D01*
X161539285Y-110137180D02*
X161491666Y-110184800D01*
X161491666Y-110184800D02*
X161396428Y-110232419D01*
X161396428Y-110232419D02*
X161205952Y-110232419D01*
X161205952Y-110232419D02*
X161110714Y-110184800D01*
X161110714Y-110184800D02*
X161063095Y-110137180D01*
X161063095Y-110137180D02*
X161015476Y-110041942D01*
X161015476Y-110041942D02*
X161015476Y-109803847D01*
X161015476Y-109803847D02*
X161063095Y-109708609D01*
X161063095Y-109708609D02*
X161110714Y-109660990D01*
X161110714Y-109660990D02*
X161205952Y-109613371D01*
X161205952Y-109613371D02*
X161396428Y-109613371D01*
X161396428Y-109613371D02*
X161491666Y-109660990D01*
X161491666Y-109660990D02*
X161539285Y-109708609D01*
X161539285Y-109708609D02*
X161586904Y-109803847D01*
X160634523Y-109327657D02*
X160586904Y-109280038D01*
X160586904Y-109280038D02*
X160491666Y-109232419D01*
X160491666Y-109232419D02*
X160253571Y-109232419D01*
X160253571Y-109232419D02*
X160158333Y-109280038D01*
X160158333Y-109280038D02*
X160110714Y-109327657D01*
X160110714Y-109327657D02*
X160063095Y-109422895D01*
X160063095Y-109422895D02*
X160063095Y-109518133D01*
X160063095Y-109518133D02*
X160110714Y-109660990D01*
X160110714Y-109660990D02*
X160682142Y-110232419D01*
X160682142Y-110232419D02*
X160063095Y-110232419D01*
X177589285Y-110232419D02*
X177589285Y-109232419D01*
X177589285Y-109232419D02*
X177351190Y-109232419D01*
X177351190Y-109232419D02*
X177208333Y-109280038D01*
X177208333Y-109280038D02*
X177113095Y-109375276D01*
X177113095Y-109375276D02*
X177065476Y-109470514D01*
X177065476Y-109470514D02*
X177017857Y-109660990D01*
X177017857Y-109660990D02*
X177017857Y-109803847D01*
X177017857Y-109803847D02*
X177065476Y-109994323D01*
X177065476Y-109994323D02*
X177113095Y-110089561D01*
X177113095Y-110089561D02*
X177208333Y-110184800D01*
X177208333Y-110184800D02*
X177351190Y-110232419D01*
X177351190Y-110232419D02*
X177589285Y-110232419D01*
X176113095Y-109232419D02*
X176589285Y-109232419D01*
X176589285Y-109232419D02*
X176636904Y-109708609D01*
X176636904Y-109708609D02*
X176589285Y-109660990D01*
X176589285Y-109660990D02*
X176494047Y-109613371D01*
X176494047Y-109613371D02*
X176255952Y-109613371D01*
X176255952Y-109613371D02*
X176160714Y-109660990D01*
X176160714Y-109660990D02*
X176113095Y-109708609D01*
X176113095Y-109708609D02*
X176065476Y-109803847D01*
X176065476Y-109803847D02*
X176065476Y-110041942D01*
X176065476Y-110041942D02*
X176113095Y-110137180D01*
X176113095Y-110137180D02*
X176160714Y-110184800D01*
X176160714Y-110184800D02*
X176255952Y-110232419D01*
X176255952Y-110232419D02*
X176494047Y-110232419D01*
X176494047Y-110232419D02*
X176589285Y-110184800D01*
X176589285Y-110184800D02*
X176636904Y-110137180D01*
X175732142Y-109232419D02*
X175113095Y-109232419D01*
X175113095Y-109232419D02*
X175446428Y-109613371D01*
X175446428Y-109613371D02*
X175303571Y-109613371D01*
X175303571Y-109613371D02*
X175208333Y-109660990D01*
X175208333Y-109660990D02*
X175160714Y-109708609D01*
X175160714Y-109708609D02*
X175113095Y-109803847D01*
X175113095Y-109803847D02*
X175113095Y-110041942D01*
X175113095Y-110041942D02*
X175160714Y-110137180D01*
X175160714Y-110137180D02*
X175208333Y-110184800D01*
X175208333Y-110184800D02*
X175303571Y-110232419D01*
X175303571Y-110232419D02*
X175589285Y-110232419D01*
X175589285Y-110232419D02*
X175684523Y-110184800D01*
X175684523Y-110184800D02*
X175732142Y-110137180D01*
X147539285Y-116732419D02*
X147539285Y-115732419D01*
X147539285Y-115732419D02*
X147301190Y-115732419D01*
X147301190Y-115732419D02*
X147158333Y-115780038D01*
X147158333Y-115780038D02*
X147063095Y-115875276D01*
X147063095Y-115875276D02*
X147015476Y-115970514D01*
X147015476Y-115970514D02*
X146967857Y-116160990D01*
X146967857Y-116160990D02*
X146967857Y-116303847D01*
X146967857Y-116303847D02*
X147015476Y-116494323D01*
X147015476Y-116494323D02*
X147063095Y-116589561D01*
X147063095Y-116589561D02*
X147158333Y-116684800D01*
X147158333Y-116684800D02*
X147301190Y-116732419D01*
X147301190Y-116732419D02*
X147539285Y-116732419D01*
X146634523Y-115732419D02*
X145967857Y-115732419D01*
X145967857Y-115732419D02*
X146396428Y-116732419D01*
X145634523Y-115827657D02*
X145586904Y-115780038D01*
X145586904Y-115780038D02*
X145491666Y-115732419D01*
X145491666Y-115732419D02*
X145253571Y-115732419D01*
X145253571Y-115732419D02*
X145158333Y-115780038D01*
X145158333Y-115780038D02*
X145110714Y-115827657D01*
X145110714Y-115827657D02*
X145063095Y-115922895D01*
X145063095Y-115922895D02*
X145063095Y-116018133D01*
X145063095Y-116018133D02*
X145110714Y-116160990D01*
X145110714Y-116160990D02*
X145682142Y-116732419D01*
X145682142Y-116732419D02*
X145063095Y-116732419D01*
X172539285Y-110232419D02*
X172539285Y-109232419D01*
X172539285Y-109232419D02*
X172301190Y-109232419D01*
X172301190Y-109232419D02*
X172158333Y-109280038D01*
X172158333Y-109280038D02*
X172063095Y-109375276D01*
X172063095Y-109375276D02*
X172015476Y-109470514D01*
X172015476Y-109470514D02*
X171967857Y-109660990D01*
X171967857Y-109660990D02*
X171967857Y-109803847D01*
X171967857Y-109803847D02*
X172015476Y-109994323D01*
X172015476Y-109994323D02*
X172063095Y-110089561D01*
X172063095Y-110089561D02*
X172158333Y-110184800D01*
X172158333Y-110184800D02*
X172301190Y-110232419D01*
X172301190Y-110232419D02*
X172539285Y-110232419D01*
X171063095Y-109232419D02*
X171539285Y-109232419D01*
X171539285Y-109232419D02*
X171586904Y-109708609D01*
X171586904Y-109708609D02*
X171539285Y-109660990D01*
X171539285Y-109660990D02*
X171444047Y-109613371D01*
X171444047Y-109613371D02*
X171205952Y-109613371D01*
X171205952Y-109613371D02*
X171110714Y-109660990D01*
X171110714Y-109660990D02*
X171063095Y-109708609D01*
X171063095Y-109708609D02*
X171015476Y-109803847D01*
X171015476Y-109803847D02*
X171015476Y-110041942D01*
X171015476Y-110041942D02*
X171063095Y-110137180D01*
X171063095Y-110137180D02*
X171110714Y-110184800D01*
X171110714Y-110184800D02*
X171205952Y-110232419D01*
X171205952Y-110232419D02*
X171444047Y-110232419D01*
X171444047Y-110232419D02*
X171539285Y-110184800D01*
X171539285Y-110184800D02*
X171586904Y-110137180D01*
X170158333Y-109232419D02*
X170348809Y-109232419D01*
X170348809Y-109232419D02*
X170444047Y-109280038D01*
X170444047Y-109280038D02*
X170491666Y-109327657D01*
X170491666Y-109327657D02*
X170586904Y-109470514D01*
X170586904Y-109470514D02*
X170634523Y-109660990D01*
X170634523Y-109660990D02*
X170634523Y-110041942D01*
X170634523Y-110041942D02*
X170586904Y-110137180D01*
X170586904Y-110137180D02*
X170539285Y-110184800D01*
X170539285Y-110184800D02*
X170444047Y-110232419D01*
X170444047Y-110232419D02*
X170253571Y-110232419D01*
X170253571Y-110232419D02*
X170158333Y-110184800D01*
X170158333Y-110184800D02*
X170110714Y-110137180D01*
X170110714Y-110137180D02*
X170063095Y-110041942D01*
X170063095Y-110041942D02*
X170063095Y-109803847D01*
X170063095Y-109803847D02*
X170110714Y-109708609D01*
X170110714Y-109708609D02*
X170158333Y-109660990D01*
X170158333Y-109660990D02*
X170253571Y-109613371D01*
X170253571Y-109613371D02*
X170444047Y-109613371D01*
X170444047Y-109613371D02*
X170539285Y-109660990D01*
X170539285Y-109660990D02*
X170586904Y-109708609D01*
X170586904Y-109708609D02*
X170634523Y-109803847D01*
X152539285Y-116732419D02*
X152539285Y-115732419D01*
X152539285Y-115732419D02*
X152301190Y-115732419D01*
X152301190Y-115732419D02*
X152158333Y-115780038D01*
X152158333Y-115780038D02*
X152063095Y-115875276D01*
X152063095Y-115875276D02*
X152015476Y-115970514D01*
X152015476Y-115970514D02*
X151967857Y-116160990D01*
X151967857Y-116160990D02*
X151967857Y-116303847D01*
X151967857Y-116303847D02*
X152015476Y-116494323D01*
X152015476Y-116494323D02*
X152063095Y-116589561D01*
X152063095Y-116589561D02*
X152158333Y-116684800D01*
X152158333Y-116684800D02*
X152301190Y-116732419D01*
X152301190Y-116732419D02*
X152539285Y-116732419D01*
X151110714Y-115732419D02*
X151301190Y-115732419D01*
X151301190Y-115732419D02*
X151396428Y-115780038D01*
X151396428Y-115780038D02*
X151444047Y-115827657D01*
X151444047Y-115827657D02*
X151539285Y-115970514D01*
X151539285Y-115970514D02*
X151586904Y-116160990D01*
X151586904Y-116160990D02*
X151586904Y-116541942D01*
X151586904Y-116541942D02*
X151539285Y-116637180D01*
X151539285Y-116637180D02*
X151491666Y-116684800D01*
X151491666Y-116684800D02*
X151396428Y-116732419D01*
X151396428Y-116732419D02*
X151205952Y-116732419D01*
X151205952Y-116732419D02*
X151110714Y-116684800D01*
X151110714Y-116684800D02*
X151063095Y-116637180D01*
X151063095Y-116637180D02*
X151015476Y-116541942D01*
X151015476Y-116541942D02*
X151015476Y-116303847D01*
X151015476Y-116303847D02*
X151063095Y-116208609D01*
X151063095Y-116208609D02*
X151110714Y-116160990D01*
X151110714Y-116160990D02*
X151205952Y-116113371D01*
X151205952Y-116113371D02*
X151396428Y-116113371D01*
X151396428Y-116113371D02*
X151491666Y-116160990D01*
X151491666Y-116160990D02*
X151539285Y-116208609D01*
X151539285Y-116208609D02*
X151586904Y-116303847D01*
X150539285Y-116732419D02*
X150348809Y-116732419D01*
X150348809Y-116732419D02*
X150253571Y-116684800D01*
X150253571Y-116684800D02*
X150205952Y-116637180D01*
X150205952Y-116637180D02*
X150110714Y-116494323D01*
X150110714Y-116494323D02*
X150063095Y-116303847D01*
X150063095Y-116303847D02*
X150063095Y-115922895D01*
X150063095Y-115922895D02*
X150110714Y-115827657D01*
X150110714Y-115827657D02*
X150158333Y-115780038D01*
X150158333Y-115780038D02*
X150253571Y-115732419D01*
X150253571Y-115732419D02*
X150444047Y-115732419D01*
X150444047Y-115732419D02*
X150539285Y-115780038D01*
X150539285Y-115780038D02*
X150586904Y-115827657D01*
X150586904Y-115827657D02*
X150634523Y-115922895D01*
X150634523Y-115922895D02*
X150634523Y-116160990D01*
X150634523Y-116160990D02*
X150586904Y-116256228D01*
X150586904Y-116256228D02*
X150539285Y-116303847D01*
X150539285Y-116303847D02*
X150444047Y-116351466D01*
X150444047Y-116351466D02*
X150253571Y-116351466D01*
X150253571Y-116351466D02*
X150158333Y-116303847D01*
X150158333Y-116303847D02*
X150110714Y-116256228D01*
X150110714Y-116256228D02*
X150063095Y-116160990D01*
X182539285Y-116732419D02*
X182539285Y-115732419D01*
X182539285Y-115732419D02*
X182301190Y-115732419D01*
X182301190Y-115732419D02*
X182158333Y-115780038D01*
X182158333Y-115780038D02*
X182063095Y-115875276D01*
X182063095Y-115875276D02*
X182015476Y-115970514D01*
X182015476Y-115970514D02*
X181967857Y-116160990D01*
X181967857Y-116160990D02*
X181967857Y-116303847D01*
X181967857Y-116303847D02*
X182015476Y-116494323D01*
X182015476Y-116494323D02*
X182063095Y-116589561D01*
X182063095Y-116589561D02*
X182158333Y-116684800D01*
X182158333Y-116684800D02*
X182301190Y-116732419D01*
X182301190Y-116732419D02*
X182539285Y-116732419D01*
X181063095Y-115732419D02*
X181539285Y-115732419D01*
X181539285Y-115732419D02*
X181586904Y-116208609D01*
X181586904Y-116208609D02*
X181539285Y-116160990D01*
X181539285Y-116160990D02*
X181444047Y-116113371D01*
X181444047Y-116113371D02*
X181205952Y-116113371D01*
X181205952Y-116113371D02*
X181110714Y-116160990D01*
X181110714Y-116160990D02*
X181063095Y-116208609D01*
X181063095Y-116208609D02*
X181015476Y-116303847D01*
X181015476Y-116303847D02*
X181015476Y-116541942D01*
X181015476Y-116541942D02*
X181063095Y-116637180D01*
X181063095Y-116637180D02*
X181110714Y-116684800D01*
X181110714Y-116684800D02*
X181205952Y-116732419D01*
X181205952Y-116732419D02*
X181444047Y-116732419D01*
X181444047Y-116732419D02*
X181539285Y-116684800D01*
X181539285Y-116684800D02*
X181586904Y-116637180D01*
X180063095Y-116732419D02*
X180634523Y-116732419D01*
X180348809Y-116732419D02*
X180348809Y-115732419D01*
X180348809Y-115732419D02*
X180444047Y-115875276D01*
X180444047Y-115875276D02*
X180539285Y-115970514D01*
X180539285Y-115970514D02*
X180634523Y-116018133D01*
D11*
X148454819Y-97107142D02*
X147978628Y-96773809D01*
X148454819Y-96535714D02*
X147454819Y-96535714D01*
X147454819Y-96535714D02*
X147454819Y-96916666D01*
X147454819Y-96916666D02*
X147502438Y-97011904D01*
X147502438Y-97011904D02*
X147550057Y-97059523D01*
X147550057Y-97059523D02*
X147645295Y-97107142D01*
X147645295Y-97107142D02*
X147788152Y-97107142D01*
X147788152Y-97107142D02*
X147883390Y-97059523D01*
X147883390Y-97059523D02*
X147931009Y-97011904D01*
X147931009Y-97011904D02*
X147978628Y-96916666D01*
X147978628Y-96916666D02*
X147978628Y-96535714D01*
X147550057Y-97488095D02*
X147502438Y-97535714D01*
X147502438Y-97535714D02*
X147454819Y-97630952D01*
X147454819Y-97630952D02*
X147454819Y-97869047D01*
X147454819Y-97869047D02*
X147502438Y-97964285D01*
X147502438Y-97964285D02*
X147550057Y-98011904D01*
X147550057Y-98011904D02*
X147645295Y-98059523D01*
X147645295Y-98059523D02*
X147740533Y-98059523D01*
X147740533Y-98059523D02*
X147883390Y-98011904D01*
X147883390Y-98011904D02*
X148454819Y-97440476D01*
X148454819Y-97440476D02*
X148454819Y-98059523D01*
X147883390Y-98630952D02*
X147835771Y-98535714D01*
X147835771Y-98535714D02*
X147788152Y-98488095D01*
X147788152Y-98488095D02*
X147692914Y-98440476D01*
X147692914Y-98440476D02*
X147645295Y-98440476D01*
X147645295Y-98440476D02*
X147550057Y-98488095D01*
X147550057Y-98488095D02*
X147502438Y-98535714D01*
X147502438Y-98535714D02*
X147454819Y-98630952D01*
X147454819Y-98630952D02*
X147454819Y-98821428D01*
X147454819Y-98821428D02*
X147502438Y-98916666D01*
X147502438Y-98916666D02*
X147550057Y-98964285D01*
X147550057Y-98964285D02*
X147645295Y-99011904D01*
X147645295Y-99011904D02*
X147692914Y-99011904D01*
X147692914Y-99011904D02*
X147788152Y-98964285D01*
X147788152Y-98964285D02*
X147835771Y-98916666D01*
X147835771Y-98916666D02*
X147883390Y-98821428D01*
X147883390Y-98821428D02*
X147883390Y-98630952D01*
X147883390Y-98630952D02*
X147931009Y-98535714D01*
X147931009Y-98535714D02*
X147978628Y-98488095D01*
X147978628Y-98488095D02*
X148073866Y-98440476D01*
X148073866Y-98440476D02*
X148264342Y-98440476D01*
X148264342Y-98440476D02*
X148359580Y-98488095D01*
X148359580Y-98488095D02*
X148407200Y-98535714D01*
X148407200Y-98535714D02*
X148454819Y-98630952D01*
X148454819Y-98630952D02*
X148454819Y-98821428D01*
X148454819Y-98821428D02*
X148407200Y-98916666D01*
X148407200Y-98916666D02*
X148359580Y-98964285D01*
X148359580Y-98964285D02*
X148264342Y-99011904D01*
X148264342Y-99011904D02*
X148073866Y-99011904D01*
X148073866Y-99011904D02*
X147978628Y-98964285D01*
X147978628Y-98964285D02*
X147931009Y-98916666D01*
X147931009Y-98916666D02*
X147883390Y-98821428D01*
D10*
X192539285Y-110232419D02*
X192539285Y-109232419D01*
X192539285Y-109232419D02*
X192301190Y-109232419D01*
X192301190Y-109232419D02*
X192158333Y-109280038D01*
X192158333Y-109280038D02*
X192063095Y-109375276D01*
X192063095Y-109375276D02*
X192015476Y-109470514D01*
X192015476Y-109470514D02*
X191967857Y-109660990D01*
X191967857Y-109660990D02*
X191967857Y-109803847D01*
X191967857Y-109803847D02*
X192015476Y-109994323D01*
X192015476Y-109994323D02*
X192063095Y-110089561D01*
X192063095Y-110089561D02*
X192158333Y-110184800D01*
X192158333Y-110184800D02*
X192301190Y-110232419D01*
X192301190Y-110232419D02*
X192539285Y-110232419D01*
X191110714Y-109565752D02*
X191110714Y-110232419D01*
X191348809Y-109184800D02*
X191586904Y-109899085D01*
X191586904Y-109899085D02*
X190967857Y-109899085D01*
X190158333Y-109565752D02*
X190158333Y-110232419D01*
X190396428Y-109184800D02*
X190634523Y-109899085D01*
X190634523Y-109899085D02*
X190015476Y-109899085D01*
D11*
X153204819Y-97107142D02*
X152728628Y-96773809D01*
X153204819Y-96535714D02*
X152204819Y-96535714D01*
X152204819Y-96535714D02*
X152204819Y-96916666D01*
X152204819Y-96916666D02*
X152252438Y-97011904D01*
X152252438Y-97011904D02*
X152300057Y-97059523D01*
X152300057Y-97059523D02*
X152395295Y-97107142D01*
X152395295Y-97107142D02*
X152538152Y-97107142D01*
X152538152Y-97107142D02*
X152633390Y-97059523D01*
X152633390Y-97059523D02*
X152681009Y-97011904D01*
X152681009Y-97011904D02*
X152728628Y-96916666D01*
X152728628Y-96916666D02*
X152728628Y-96535714D01*
X152300057Y-97488095D02*
X152252438Y-97535714D01*
X152252438Y-97535714D02*
X152204819Y-97630952D01*
X152204819Y-97630952D02*
X152204819Y-97869047D01*
X152204819Y-97869047D02*
X152252438Y-97964285D01*
X152252438Y-97964285D02*
X152300057Y-98011904D01*
X152300057Y-98011904D02*
X152395295Y-98059523D01*
X152395295Y-98059523D02*
X152490533Y-98059523D01*
X152490533Y-98059523D02*
X152633390Y-98011904D01*
X152633390Y-98011904D02*
X153204819Y-97440476D01*
X153204819Y-97440476D02*
X153204819Y-98059523D01*
X152204819Y-98392857D02*
X152204819Y-99059523D01*
X152204819Y-99059523D02*
X153204819Y-98630952D01*
D10*
X127539285Y-116732419D02*
X127539285Y-115732419D01*
X127539285Y-115732419D02*
X127301190Y-115732419D01*
X127301190Y-115732419D02*
X127158333Y-115780038D01*
X127158333Y-115780038D02*
X127063095Y-115875276D01*
X127063095Y-115875276D02*
X127015476Y-115970514D01*
X127015476Y-115970514D02*
X126967857Y-116160990D01*
X126967857Y-116160990D02*
X126967857Y-116303847D01*
X126967857Y-116303847D02*
X127015476Y-116494323D01*
X127015476Y-116494323D02*
X127063095Y-116589561D01*
X127063095Y-116589561D02*
X127158333Y-116684800D01*
X127158333Y-116684800D02*
X127301190Y-116732419D01*
X127301190Y-116732419D02*
X127539285Y-116732419D01*
X126396428Y-116160990D02*
X126491666Y-116113371D01*
X126491666Y-116113371D02*
X126539285Y-116065752D01*
X126539285Y-116065752D02*
X126586904Y-115970514D01*
X126586904Y-115970514D02*
X126586904Y-115922895D01*
X126586904Y-115922895D02*
X126539285Y-115827657D01*
X126539285Y-115827657D02*
X126491666Y-115780038D01*
X126491666Y-115780038D02*
X126396428Y-115732419D01*
X126396428Y-115732419D02*
X126205952Y-115732419D01*
X126205952Y-115732419D02*
X126110714Y-115780038D01*
X126110714Y-115780038D02*
X126063095Y-115827657D01*
X126063095Y-115827657D02*
X126015476Y-115922895D01*
X126015476Y-115922895D02*
X126015476Y-115970514D01*
X126015476Y-115970514D02*
X126063095Y-116065752D01*
X126063095Y-116065752D02*
X126110714Y-116113371D01*
X126110714Y-116113371D02*
X126205952Y-116160990D01*
X126205952Y-116160990D02*
X126396428Y-116160990D01*
X126396428Y-116160990D02*
X126491666Y-116208609D01*
X126491666Y-116208609D02*
X126539285Y-116256228D01*
X126539285Y-116256228D02*
X126586904Y-116351466D01*
X126586904Y-116351466D02*
X126586904Y-116541942D01*
X126586904Y-116541942D02*
X126539285Y-116637180D01*
X126539285Y-116637180D02*
X126491666Y-116684800D01*
X126491666Y-116684800D02*
X126396428Y-116732419D01*
X126396428Y-116732419D02*
X126205952Y-116732419D01*
X126205952Y-116732419D02*
X126110714Y-116684800D01*
X126110714Y-116684800D02*
X126063095Y-116637180D01*
X126063095Y-116637180D02*
X126015476Y-116541942D01*
X126015476Y-116541942D02*
X126015476Y-116351466D01*
X126015476Y-116351466D02*
X126063095Y-116256228D01*
X126063095Y-116256228D02*
X126110714Y-116208609D01*
X126110714Y-116208609D02*
X126205952Y-116160990D01*
X125158333Y-116065752D02*
X125158333Y-116732419D01*
X125396428Y-115684800D02*
X125634523Y-116399085D01*
X125634523Y-116399085D02*
X125015476Y-116399085D01*
X167589285Y-110232419D02*
X167589285Y-109232419D01*
X167589285Y-109232419D02*
X167351190Y-109232419D01*
X167351190Y-109232419D02*
X167208333Y-109280038D01*
X167208333Y-109280038D02*
X167113095Y-109375276D01*
X167113095Y-109375276D02*
X167065476Y-109470514D01*
X167065476Y-109470514D02*
X167017857Y-109660990D01*
X167017857Y-109660990D02*
X167017857Y-109803847D01*
X167017857Y-109803847D02*
X167065476Y-109994323D01*
X167065476Y-109994323D02*
X167113095Y-110089561D01*
X167113095Y-110089561D02*
X167208333Y-110184800D01*
X167208333Y-110184800D02*
X167351190Y-110232419D01*
X167351190Y-110232419D02*
X167589285Y-110232419D01*
X166113095Y-109232419D02*
X166589285Y-109232419D01*
X166589285Y-109232419D02*
X166636904Y-109708609D01*
X166636904Y-109708609D02*
X166589285Y-109660990D01*
X166589285Y-109660990D02*
X166494047Y-109613371D01*
X166494047Y-109613371D02*
X166255952Y-109613371D01*
X166255952Y-109613371D02*
X166160714Y-109660990D01*
X166160714Y-109660990D02*
X166113095Y-109708609D01*
X166113095Y-109708609D02*
X166065476Y-109803847D01*
X166065476Y-109803847D02*
X166065476Y-110041942D01*
X166065476Y-110041942D02*
X166113095Y-110137180D01*
X166113095Y-110137180D02*
X166160714Y-110184800D01*
X166160714Y-110184800D02*
X166255952Y-110232419D01*
X166255952Y-110232419D02*
X166494047Y-110232419D01*
X166494047Y-110232419D02*
X166589285Y-110184800D01*
X166589285Y-110184800D02*
X166636904Y-110137180D01*
X165589285Y-110232419D02*
X165398809Y-110232419D01*
X165398809Y-110232419D02*
X165303571Y-110184800D01*
X165303571Y-110184800D02*
X165255952Y-110137180D01*
X165255952Y-110137180D02*
X165160714Y-109994323D01*
X165160714Y-109994323D02*
X165113095Y-109803847D01*
X165113095Y-109803847D02*
X165113095Y-109422895D01*
X165113095Y-109422895D02*
X165160714Y-109327657D01*
X165160714Y-109327657D02*
X165208333Y-109280038D01*
X165208333Y-109280038D02*
X165303571Y-109232419D01*
X165303571Y-109232419D02*
X165494047Y-109232419D01*
X165494047Y-109232419D02*
X165589285Y-109280038D01*
X165589285Y-109280038D02*
X165636904Y-109327657D01*
X165636904Y-109327657D02*
X165684523Y-109422895D01*
X165684523Y-109422895D02*
X165684523Y-109660990D01*
X165684523Y-109660990D02*
X165636904Y-109756228D01*
X165636904Y-109756228D02*
X165589285Y-109803847D01*
X165589285Y-109803847D02*
X165494047Y-109851466D01*
X165494047Y-109851466D02*
X165303571Y-109851466D01*
X165303571Y-109851466D02*
X165208333Y-109803847D01*
X165208333Y-109803847D02*
X165160714Y-109756228D01*
X165160714Y-109756228D02*
X165113095Y-109660990D01*
D11*
X173204819Y-97107142D02*
X172728628Y-96773809D01*
X173204819Y-96535714D02*
X172204819Y-96535714D01*
X172204819Y-96535714D02*
X172204819Y-96916666D01*
X172204819Y-96916666D02*
X172252438Y-97011904D01*
X172252438Y-97011904D02*
X172300057Y-97059523D01*
X172300057Y-97059523D02*
X172395295Y-97107142D01*
X172395295Y-97107142D02*
X172538152Y-97107142D01*
X172538152Y-97107142D02*
X172633390Y-97059523D01*
X172633390Y-97059523D02*
X172681009Y-97011904D01*
X172681009Y-97011904D02*
X172728628Y-96916666D01*
X172728628Y-96916666D02*
X172728628Y-96535714D01*
X172300057Y-97488095D02*
X172252438Y-97535714D01*
X172252438Y-97535714D02*
X172204819Y-97630952D01*
X172204819Y-97630952D02*
X172204819Y-97869047D01*
X172204819Y-97869047D02*
X172252438Y-97964285D01*
X172252438Y-97964285D02*
X172300057Y-98011904D01*
X172300057Y-98011904D02*
X172395295Y-98059523D01*
X172395295Y-98059523D02*
X172490533Y-98059523D01*
X172490533Y-98059523D02*
X172633390Y-98011904D01*
X172633390Y-98011904D02*
X173204819Y-97440476D01*
X173204819Y-97440476D02*
X173204819Y-98059523D01*
X172204819Y-98392857D02*
X172204819Y-99011904D01*
X172204819Y-99011904D02*
X172585771Y-98678571D01*
X172585771Y-98678571D02*
X172585771Y-98821428D01*
X172585771Y-98821428D02*
X172633390Y-98916666D01*
X172633390Y-98916666D02*
X172681009Y-98964285D01*
X172681009Y-98964285D02*
X172776247Y-99011904D01*
X172776247Y-99011904D02*
X173014342Y-99011904D01*
X173014342Y-99011904D02*
X173109580Y-98964285D01*
X173109580Y-98964285D02*
X173157200Y-98916666D01*
X173157200Y-98916666D02*
X173204819Y-98821428D01*
X173204819Y-98821428D02*
X173204819Y-98535714D01*
X173204819Y-98535714D02*
X173157200Y-98440476D01*
X173157200Y-98440476D02*
X173109580Y-98392857D01*
D10*
X157539285Y-116732419D02*
X157539285Y-115732419D01*
X157539285Y-115732419D02*
X157301190Y-115732419D01*
X157301190Y-115732419D02*
X157158333Y-115780038D01*
X157158333Y-115780038D02*
X157063095Y-115875276D01*
X157063095Y-115875276D02*
X157015476Y-115970514D01*
X157015476Y-115970514D02*
X156967857Y-116160990D01*
X156967857Y-116160990D02*
X156967857Y-116303847D01*
X156967857Y-116303847D02*
X157015476Y-116494323D01*
X157015476Y-116494323D02*
X157063095Y-116589561D01*
X157063095Y-116589561D02*
X157158333Y-116684800D01*
X157158333Y-116684800D02*
X157301190Y-116732419D01*
X157301190Y-116732419D02*
X157539285Y-116732419D01*
X156110714Y-115732419D02*
X156301190Y-115732419D01*
X156301190Y-115732419D02*
X156396428Y-115780038D01*
X156396428Y-115780038D02*
X156444047Y-115827657D01*
X156444047Y-115827657D02*
X156539285Y-115970514D01*
X156539285Y-115970514D02*
X156586904Y-116160990D01*
X156586904Y-116160990D02*
X156586904Y-116541942D01*
X156586904Y-116541942D02*
X156539285Y-116637180D01*
X156539285Y-116637180D02*
X156491666Y-116684800D01*
X156491666Y-116684800D02*
X156396428Y-116732419D01*
X156396428Y-116732419D02*
X156205952Y-116732419D01*
X156205952Y-116732419D02*
X156110714Y-116684800D01*
X156110714Y-116684800D02*
X156063095Y-116637180D01*
X156063095Y-116637180D02*
X156015476Y-116541942D01*
X156015476Y-116541942D02*
X156015476Y-116303847D01*
X156015476Y-116303847D02*
X156063095Y-116208609D01*
X156063095Y-116208609D02*
X156110714Y-116160990D01*
X156110714Y-116160990D02*
X156205952Y-116113371D01*
X156205952Y-116113371D02*
X156396428Y-116113371D01*
X156396428Y-116113371D02*
X156491666Y-116160990D01*
X156491666Y-116160990D02*
X156539285Y-116208609D01*
X156539285Y-116208609D02*
X156586904Y-116303847D01*
X155158333Y-115732419D02*
X155348809Y-115732419D01*
X155348809Y-115732419D02*
X155444047Y-115780038D01*
X155444047Y-115780038D02*
X155491666Y-115827657D01*
X155491666Y-115827657D02*
X155586904Y-115970514D01*
X155586904Y-115970514D02*
X155634523Y-116160990D01*
X155634523Y-116160990D02*
X155634523Y-116541942D01*
X155634523Y-116541942D02*
X155586904Y-116637180D01*
X155586904Y-116637180D02*
X155539285Y-116684800D01*
X155539285Y-116684800D02*
X155444047Y-116732419D01*
X155444047Y-116732419D02*
X155253571Y-116732419D01*
X155253571Y-116732419D02*
X155158333Y-116684800D01*
X155158333Y-116684800D02*
X155110714Y-116637180D01*
X155110714Y-116637180D02*
X155063095Y-116541942D01*
X155063095Y-116541942D02*
X155063095Y-116303847D01*
X155063095Y-116303847D02*
X155110714Y-116208609D01*
X155110714Y-116208609D02*
X155158333Y-116160990D01*
X155158333Y-116160990D02*
X155253571Y-116113371D01*
X155253571Y-116113371D02*
X155444047Y-116113371D01*
X155444047Y-116113371D02*
X155539285Y-116160990D01*
X155539285Y-116160990D02*
X155586904Y-116208609D01*
X155586904Y-116208609D02*
X155634523Y-116303847D01*
X187420040Y-116732419D02*
X187420040Y-115732419D01*
X187420040Y-115732419D02*
X187181945Y-115732419D01*
X187181945Y-115732419D02*
X187039088Y-115780038D01*
X187039088Y-115780038D02*
X186943850Y-115875276D01*
X186943850Y-115875276D02*
X186896231Y-115970514D01*
X186896231Y-115970514D02*
X186848612Y-116160990D01*
X186848612Y-116160990D02*
X186848612Y-116303847D01*
X186848612Y-116303847D02*
X186896231Y-116494323D01*
X186896231Y-116494323D02*
X186943850Y-116589561D01*
X186943850Y-116589561D02*
X187039088Y-116684800D01*
X187039088Y-116684800D02*
X187181945Y-116732419D01*
X187181945Y-116732419D02*
X187420040Y-116732419D01*
X185991469Y-116065752D02*
X185991469Y-116732419D01*
X186229564Y-115684800D02*
X186467659Y-116399085D01*
X186467659Y-116399085D02*
X185848612Y-116399085D01*
X185324802Y-116160990D02*
X185420040Y-116113371D01*
X185420040Y-116113371D02*
X185467659Y-116065752D01*
X185467659Y-116065752D02*
X185515278Y-115970514D01*
X185515278Y-115970514D02*
X185515278Y-115922895D01*
X185515278Y-115922895D02*
X185467659Y-115827657D01*
X185467659Y-115827657D02*
X185420040Y-115780038D01*
X185420040Y-115780038D02*
X185324802Y-115732419D01*
X185324802Y-115732419D02*
X185134326Y-115732419D01*
X185134326Y-115732419D02*
X185039088Y-115780038D01*
X185039088Y-115780038D02*
X184991469Y-115827657D01*
X184991469Y-115827657D02*
X184943850Y-115922895D01*
X184943850Y-115922895D02*
X184943850Y-115970514D01*
X184943850Y-115970514D02*
X184991469Y-116065752D01*
X184991469Y-116065752D02*
X185039088Y-116113371D01*
X185039088Y-116113371D02*
X185134326Y-116160990D01*
X185134326Y-116160990D02*
X185324802Y-116160990D01*
X185324802Y-116160990D02*
X185420040Y-116208609D01*
X185420040Y-116208609D02*
X185467659Y-116256228D01*
X185467659Y-116256228D02*
X185515278Y-116351466D01*
X185515278Y-116351466D02*
X185515278Y-116541942D01*
X185515278Y-116541942D02*
X185467659Y-116637180D01*
X185467659Y-116637180D02*
X185420040Y-116684800D01*
X185420040Y-116684800D02*
X185324802Y-116732419D01*
X185324802Y-116732419D02*
X185134326Y-116732419D01*
X185134326Y-116732419D02*
X185039088Y-116684800D01*
X185039088Y-116684800D02*
X184991469Y-116637180D01*
X184991469Y-116637180D02*
X184943850Y-116541942D01*
X184943850Y-116541942D02*
X184943850Y-116351466D01*
X184943850Y-116351466D02*
X184991469Y-116256228D01*
X184991469Y-116256228D02*
X185039088Y-116208609D01*
X185039088Y-116208609D02*
X185134326Y-116160990D01*
X152539285Y-103732419D02*
X152539285Y-102732419D01*
X152539285Y-102732419D02*
X152301190Y-102732419D01*
X152301190Y-102732419D02*
X152158333Y-102780038D01*
X152158333Y-102780038D02*
X152063095Y-102875276D01*
X152063095Y-102875276D02*
X152015476Y-102970514D01*
X152015476Y-102970514D02*
X151967857Y-103160990D01*
X151967857Y-103160990D02*
X151967857Y-103303847D01*
X151967857Y-103303847D02*
X152015476Y-103494323D01*
X152015476Y-103494323D02*
X152063095Y-103589561D01*
X152063095Y-103589561D02*
X152158333Y-103684800D01*
X152158333Y-103684800D02*
X152301190Y-103732419D01*
X152301190Y-103732419D02*
X152539285Y-103732419D01*
X151110714Y-102732419D02*
X151301190Y-102732419D01*
X151301190Y-102732419D02*
X151396428Y-102780038D01*
X151396428Y-102780038D02*
X151444047Y-102827657D01*
X151444047Y-102827657D02*
X151539285Y-102970514D01*
X151539285Y-102970514D02*
X151586904Y-103160990D01*
X151586904Y-103160990D02*
X151586904Y-103541942D01*
X151586904Y-103541942D02*
X151539285Y-103637180D01*
X151539285Y-103637180D02*
X151491666Y-103684800D01*
X151491666Y-103684800D02*
X151396428Y-103732419D01*
X151396428Y-103732419D02*
X151205952Y-103732419D01*
X151205952Y-103732419D02*
X151110714Y-103684800D01*
X151110714Y-103684800D02*
X151063095Y-103637180D01*
X151063095Y-103637180D02*
X151015476Y-103541942D01*
X151015476Y-103541942D02*
X151015476Y-103303847D01*
X151015476Y-103303847D02*
X151063095Y-103208609D01*
X151063095Y-103208609D02*
X151110714Y-103160990D01*
X151110714Y-103160990D02*
X151205952Y-103113371D01*
X151205952Y-103113371D02*
X151396428Y-103113371D01*
X151396428Y-103113371D02*
X151491666Y-103160990D01*
X151491666Y-103160990D02*
X151539285Y-103208609D01*
X151539285Y-103208609D02*
X151586904Y-103303847D01*
X150682142Y-102732419D02*
X150015476Y-102732419D01*
X150015476Y-102732419D02*
X150444047Y-103732419D01*
%TO.C,D54*%
X174875000Y-113975000D02*
X174875000Y-114375000D01*
X175287500Y-113975000D02*
X174875000Y-113975000D01*
D12*
%TO.C,R22*%
X175515000Y-97977064D02*
X175515000Y-97522936D01*
X176985000Y-97977064D02*
X176985000Y-97522936D01*
%TO.C,R25*%
X160515000Y-97977064D02*
X160515000Y-97522936D01*
X161985000Y-97977064D02*
X161985000Y-97522936D01*
%TO.C,R31*%
X130515000Y-97977064D02*
X130515000Y-97522936D01*
X131985000Y-97977064D02*
X131985000Y-97522936D01*
D10*
%TO.C,D45*%
X189875000Y-113975000D02*
X189875000Y-114375000D01*
X190287500Y-113975000D02*
X189875000Y-113975000D01*
%TO.C,D83*%
X124925000Y-107475000D02*
X124925000Y-107875000D01*
X125337500Y-107475000D02*
X124925000Y-107475000D01*
%TO.C,D73*%
X139875000Y-100975000D02*
X139875000Y-101375000D01*
X140287500Y-100975000D02*
X139875000Y-100975000D01*
D12*
%TO.C,R26*%
X155515000Y-97977064D02*
X155515000Y-97522936D01*
X156985000Y-97977064D02*
X156985000Y-97522936D01*
%TO.C,R24*%
X165515000Y-97977064D02*
X165515000Y-97522936D01*
X166985000Y-97977064D02*
X166985000Y-97522936D01*
D10*
%TO.C,D61*%
X159875000Y-100975000D02*
X159875000Y-101375000D01*
X160287500Y-100975000D02*
X159875000Y-100975000D01*
%TO.C,D47*%
X184755755Y-107475000D02*
X184755755Y-107875000D01*
X185168255Y-107475000D02*
X184755755Y-107475000D01*
%TO.C,D55*%
X169875000Y-100975000D02*
X169875000Y-101375000D01*
X170287500Y-100975000D02*
X169875000Y-100975000D01*
D12*
%TO.C,R32*%
X125515000Y-97977064D02*
X125515000Y-97522936D01*
X126985000Y-97977064D02*
X126985000Y-97522936D01*
D10*
%TO.C,D43*%
X189825000Y-100975000D02*
X189825000Y-101375000D01*
X190237500Y-100975000D02*
X189825000Y-100975000D01*
D12*
%TO.C,R20*%
X185515000Y-97974280D02*
X185515000Y-97520152D01*
X186985000Y-97974280D02*
X186985000Y-97520152D01*
D10*
%TO.C,D79*%
X129875000Y-100975000D02*
X129875000Y-101375000D01*
X130287500Y-100975000D02*
X129875000Y-100975000D01*
%TO.C,D71*%
X144875000Y-107475000D02*
X144875000Y-107875000D01*
X145287500Y-107475000D02*
X144875000Y-107475000D01*
%TO.C,D46*%
X184705755Y-100975000D02*
X184705755Y-101375000D01*
X185118255Y-100975000D02*
X184705755Y-100975000D01*
D12*
%TO.C,R19*%
X190465000Y-97977064D02*
X190465000Y-97522936D01*
X191935000Y-97977064D02*
X191935000Y-97522936D01*
D10*
%TO.C,D52*%
X174875000Y-100975000D02*
X174875000Y-101375000D01*
X175287500Y-100975000D02*
X174875000Y-100975000D01*
%TO.C,D82*%
X124875000Y-100975000D02*
X124875000Y-101375000D01*
X125287500Y-100975000D02*
X124875000Y-100975000D01*
%TO.C,D78*%
X134875000Y-113975000D02*
X134875000Y-114375000D01*
X135287500Y-113975000D02*
X134875000Y-113975000D01*
%TO.C,D60*%
X164875000Y-113975000D02*
X164875000Y-114375000D01*
X165287500Y-113975000D02*
X164875000Y-113975000D01*
D12*
%TO.C,R21*%
X180515000Y-97977064D02*
X180515000Y-97522936D01*
X181985000Y-97977064D02*
X181985000Y-97522936D01*
D10*
%TO.C,D76*%
X134875000Y-100975000D02*
X134875000Y-101375000D01*
X135287500Y-100975000D02*
X134875000Y-100975000D01*
%TO.C,D74*%
X139875000Y-107475000D02*
X139875000Y-107875000D01*
X140287500Y-107475000D02*
X139875000Y-107475000D01*
%TO.C,D70*%
X144875000Y-100975000D02*
X144875000Y-101375000D01*
X145287500Y-100975000D02*
X144875000Y-100975000D01*
%TO.C,D64*%
X154875000Y-100975000D02*
X154875000Y-101375000D01*
X155287500Y-100975000D02*
X154875000Y-100975000D01*
D12*
%TO.C,R29*%
X140515000Y-97977064D02*
X140515000Y-97522936D01*
X141985000Y-97977064D02*
X141985000Y-97522936D01*
D10*
%TO.C,D81*%
X129875000Y-113975000D02*
X129875000Y-114375000D01*
X130287500Y-113975000D02*
X129875000Y-113975000D01*
%TO.C,D75*%
X139875000Y-113975000D02*
X139875000Y-114375000D01*
X140287500Y-113975000D02*
X139875000Y-113975000D01*
%TO.C,D80*%
X129875000Y-107475000D02*
X129875000Y-107875000D01*
X130287500Y-107475000D02*
X129875000Y-107475000D01*
%TO.C,D58*%
X164925000Y-100975000D02*
X164925000Y-101375000D01*
X165337500Y-100975000D02*
X164925000Y-100975000D01*
D12*
%TO.C,R30*%
X135515000Y-97977064D02*
X135515000Y-97522936D01*
X136985000Y-97977064D02*
X136985000Y-97522936D01*
D10*
%TO.C,D49*%
X179875000Y-100975000D02*
X179875000Y-101375000D01*
X180287500Y-100975000D02*
X179875000Y-100975000D01*
%TO.C,D65*%
X154875000Y-107475000D02*
X154875000Y-107875000D01*
X155287500Y-107475000D02*
X154875000Y-107475000D01*
%TO.C,D68*%
X149875000Y-107475000D02*
X149875000Y-107875000D01*
X150287500Y-107475000D02*
X149875000Y-107475000D01*
%TO.C,D63*%
X159875000Y-113975000D02*
X159875000Y-114375000D01*
X160287500Y-113975000D02*
X159875000Y-113975000D01*
%TO.C,D50*%
X179875000Y-107475000D02*
X179875000Y-107875000D01*
X180287500Y-107475000D02*
X179875000Y-107475000D01*
%TO.C,D57*%
X169925000Y-113975000D02*
X169925000Y-114375000D01*
X170337500Y-113975000D02*
X169925000Y-113975000D01*
%TO.C,D77*%
X134875000Y-107475000D02*
X134875000Y-107875000D01*
X135287500Y-107475000D02*
X134875000Y-107475000D01*
%TO.C,D62*%
X159875000Y-107475000D02*
X159875000Y-107875000D01*
X160287500Y-107475000D02*
X159875000Y-107475000D01*
%TO.C,D53*%
X174925000Y-107475000D02*
X174925000Y-107875000D01*
X175337500Y-107475000D02*
X174925000Y-107475000D01*
%TO.C,D72*%
X144875000Y-113975000D02*
X144875000Y-114375000D01*
X145287500Y-113975000D02*
X144875000Y-113975000D01*
%TO.C,D56*%
X169875000Y-107475000D02*
X169875000Y-107875000D01*
X170287500Y-107475000D02*
X169875000Y-107475000D01*
%TO.C,D69*%
X149875000Y-113975000D02*
X149875000Y-114375000D01*
X150287500Y-113975000D02*
X149875000Y-113975000D01*
%TO.C,D51*%
X179875000Y-113975000D02*
X179875000Y-114375000D01*
X180287500Y-113975000D02*
X179875000Y-113975000D01*
D12*
%TO.C,R28*%
X145515000Y-97977064D02*
X145515000Y-97522936D01*
X146985000Y-97977064D02*
X146985000Y-97522936D01*
D10*
%TO.C,D44*%
X189875000Y-107475000D02*
X189875000Y-107875000D01*
X190287500Y-107475000D02*
X189875000Y-107475000D01*
D12*
%TO.C,R27*%
X150515000Y-97977064D02*
X150515000Y-97522936D01*
X151985000Y-97977064D02*
X151985000Y-97522936D01*
D10*
%TO.C,D84*%
X124875000Y-113975000D02*
X124875000Y-114375000D01*
X125287500Y-113975000D02*
X124875000Y-113975000D01*
%TO.C,D59*%
X164925000Y-107475000D02*
X164925000Y-107875000D01*
X165337500Y-107475000D02*
X164925000Y-107475000D01*
D12*
%TO.C,R23*%
X170515000Y-97977064D02*
X170515000Y-97522936D01*
X171985000Y-97977064D02*
X171985000Y-97522936D01*
D10*
%TO.C,D66*%
X154875000Y-113975000D02*
X154875000Y-114375000D01*
X155287500Y-113975000D02*
X154875000Y-113975000D01*
%TO.C,D48*%
X184755755Y-113975000D02*
X184755755Y-114375000D01*
X185168255Y-113975000D02*
X184755755Y-113975000D01*
%TO.C,D67*%
X149875000Y-100975000D02*
X149875000Y-101375000D01*
X150287500Y-100975000D02*
X149875000Y-100975000D01*
%TD*%
M02*
