%TF.GenerationSoftware,KiCad,Pcbnew,8.0.9-8.0.9-0~ubuntu25.04.1*%
%TF.CreationDate,2025-04-13T18:27:55-07:00*%
%TF.ProjectId,TSSI,54535349-2e6b-4696-9361-645f70636258,rev?*%
%TF.SameCoordinates,Original*%
%TF.FileFunction,Copper,L1,Top*%
%TF.FilePolarity,Positive*%
%FSLAX46Y46*%
G04 Gerber Fmt 4.6, Leading zero omitted, Abs format (unit mm)*
G04 Created by KiCad (PCBNEW 8.0.9-8.0.9-0~ubuntu25.04.1) date 2025-04-13 18:27:55*
%MOMM*%
%LPD*%
G01*
G04 APERTURE LIST*
G04 Aperture macros list*
%AMRoundRect*
0 Rectangle with rounded corners*
0 $1 Rounding radius*
0 $2 $3 $4 $5 $6 $7 $8 $9 X,Y pos of 4 corners*
0 Add a 4 corners polygon primitive as box body*
4,1,4,$2,$3,$4,$5,$6,$7,$8,$9,$2,$3,0*
0 Add four circle primitives for the rounded corners*
1,1,$1+$1,$2,$3*
1,1,$1+$1,$4,$5*
1,1,$1+$1,$6,$7*
1,1,$1+$1,$8,$9*
0 Add four rect primitives between the rounded corners*
20,1,$1+$1,$2,$3,$4,$5,0*
20,1,$1+$1,$4,$5,$6,$7,0*
20,1,$1+$1,$6,$7,$8,$9,0*
20,1,$1+$1,$8,$9,$2,$3,0*%
G04 Aperture macros list end*
%TA.AperFunction,SMDPad,CuDef*%
%ADD10R,0.750000X1.150000*%
%TD*%
%TA.AperFunction,SMDPad,CuDef*%
%ADD11RoundRect,0.250000X-0.450000X0.350000X-0.450000X-0.350000X0.450000X-0.350000X0.450000X0.350000X0*%
%TD*%
%TA.AperFunction,SMDPad,CuDef*%
%ADD12RoundRect,0.250000X-0.337500X-0.475000X0.337500X-0.475000X0.337500X0.475000X-0.337500X0.475000X0*%
%TD*%
%TA.AperFunction,SMDPad,CuDef*%
%ADD13RoundRect,0.250000X-0.475000X0.337500X-0.475000X-0.337500X0.475000X-0.337500X0.475000X0.337500X0*%
%TD*%
%TA.AperFunction,SMDPad,CuDef*%
%ADD14RoundRect,0.050000X-0.150000X0.545000X-0.150000X-0.545000X0.150000X-0.545000X0.150000X0.545000X0*%
%TD*%
%TA.AperFunction,ComponentPad*%
%ADD15O,2.200000X1.700000*%
%TD*%
%TA.AperFunction,ComponentPad*%
%ADD16RoundRect,0.250000X0.850000X0.600000X-0.850000X0.600000X-0.850000X-0.600000X0.850000X-0.600000X0*%
%TD*%
%TA.AperFunction,SMDPad,CuDef*%
%ADD17RoundRect,0.250000X0.450000X-0.350000X0.450000X0.350000X-0.450000X0.350000X-0.450000X-0.350000X0*%
%TD*%
%TA.AperFunction,ComponentPad*%
%ADD18O,1.700000X2.200000*%
%TD*%
%TA.AperFunction,ComponentPad*%
%ADD19RoundRect,0.250000X0.600000X-0.850000X0.600000X0.850000X-0.600000X0.850000X-0.600000X-0.850000X0*%
%TD*%
%TA.AperFunction,SMDPad,CuDef*%
%ADD20RoundRect,0.250000X0.337500X0.475000X-0.337500X0.475000X-0.337500X-0.475000X0.337500X-0.475000X0*%
%TD*%
%TA.AperFunction,SMDPad,CuDef*%
%ADD21R,2.500000X2.000000*%
%TD*%
%TA.AperFunction,SMDPad,CuDef*%
%ADD22R,0.558800X0.863600*%
%TD*%
%TA.AperFunction,SMDPad,CuDef*%
%ADD23R,1.981200X0.558800*%
%TD*%
%TA.AperFunction,SMDPad,CuDef*%
%ADD24R,1.500000X2.800000*%
%TD*%
%TA.AperFunction,SMDPad,CuDef*%
%ADD25R,6.300000X6.100000*%
%TD*%
%TA.AperFunction,ViaPad*%
%ADD26C,0.600000*%
%TD*%
%TA.AperFunction,Conductor*%
%ADD27C,0.200000*%
%TD*%
G04 APERTURE END LIST*
D10*
%TO.P,D4,1,K*%
%TO.N,Net-(D5-A)*%
X132200000Y-101750000D03*
%TO.P,D4,2,K*%
X130750000Y-101750000D03*
%TO.P,D4,3,K*%
X130750000Y-104900000D03*
%TO.P,D4,4,A*%
%TO.N,Net-(D4-A)*%
X132200000Y-104900000D03*
%TD*%
D11*
%TO.P,R10,1*%
%TO.N,+12V*%
X151250000Y-96750000D03*
%TO.P,R10,2*%
%TO.N,Net-(D16-A)*%
X151250000Y-98750000D03*
%TD*%
D12*
%TO.P,C5,1*%
%TO.N,GND*%
X96712500Y-109500000D03*
%TO.P,C5,2*%
%TO.N,Net-(U3-CV)*%
X98787500Y-109500000D03*
%TD*%
D10*
%TO.P,D20,1,K*%
%TO.N,Net-(D21-A)*%
X157200000Y-108250000D03*
%TO.P,D20,2,K*%
X155750000Y-108250000D03*
%TO.P,D20,3,K*%
X155750000Y-111400000D03*
%TO.P,D20,4,A*%
%TO.N,Net-(D20-A)*%
X157200000Y-111400000D03*
%TD*%
D13*
%TO.P,C2,1*%
%TO.N,+5V*%
X92150000Y-115520000D03*
%TO.P,C2,2*%
%TO.N,GND*%
X92150000Y-117595000D03*
%TD*%
D10*
%TO.P,D21,1,K*%
%TO.N,/GREEN_LIGHTS*%
X157200000Y-114750000D03*
%TO.P,D21,2,K*%
X155750000Y-114750000D03*
%TO.P,D21,3,K*%
X155750000Y-117900000D03*
%TO.P,D21,4,A*%
%TO.N,Net-(D21-A)*%
X157200000Y-117900000D03*
%TD*%
%TO.P,D30,1,K*%
%TO.N,/RED_LIGHTS*%
X172250000Y-114750000D03*
%TO.P,D30,2,K*%
X170800000Y-114750000D03*
%TO.P,D30,3,K*%
X170800000Y-117900000D03*
%TO.P,D30,4,A*%
%TO.N,Net-(D30-A)*%
X172250000Y-117900000D03*
%TD*%
D14*
%TO.P,U4,1*%
%TO.N,/BMS_STATUS*%
X116600000Y-111300000D03*
%TO.P,U4,2*%
%TO.N,/IMD_STATUS*%
X115950000Y-111300000D03*
%TO.P,U4,3,GND*%
%TO.N,GND*%
X115300000Y-111300000D03*
%TO.P,U4,4*%
%TO.N,/GREEN_LIGHT_LOGIC*%
X115300000Y-113220000D03*
%TO.P,U4,5,VCC*%
%TO.N,Net-(U4-VCC)*%
X116600000Y-113220000D03*
%TD*%
D10*
%TO.P,D25,1,K*%
%TO.N,Net-(D26-A)*%
X167250000Y-101750000D03*
%TO.P,D25,2,K*%
X165800000Y-101750000D03*
%TO.P,D25,3,K*%
X165800000Y-104900000D03*
%TO.P,D25,4,A*%
%TO.N,Net-(D25-A)*%
X167250000Y-104900000D03*
%TD*%
%TO.P,D16,1,K*%
%TO.N,Net-(D17-A)*%
X152200000Y-101750000D03*
%TO.P,D16,2,K*%
X150750000Y-101750000D03*
%TO.P,D16,3,K*%
X150750000Y-104900000D03*
%TO.P,D16,4,A*%
%TO.N,Net-(D16-A)*%
X152200000Y-104900000D03*
%TD*%
%TO.P,D14,1,K*%
%TO.N,Net-(D15-A)*%
X147200000Y-108250000D03*
%TO.P,D14,2,K*%
X145750000Y-108250000D03*
%TO.P,D14,3,K*%
X145750000Y-111400000D03*
%TO.P,D14,4,A*%
%TO.N,Net-(D14-A)*%
X147200000Y-111400000D03*
%TD*%
%TO.P,D5,1,K*%
%TO.N,Net-(D6-A)*%
X132200000Y-108250000D03*
%TO.P,D5,2,K*%
X130750000Y-108250000D03*
%TO.P,D5,3,K*%
X130750000Y-111400000D03*
%TO.P,D5,4,A*%
%TO.N,Net-(D5-A)*%
X132200000Y-111400000D03*
%TD*%
%TO.P,D37,1,K*%
%TO.N,Net-(D38-A)*%
X187030755Y-101750000D03*
%TO.P,D37,2,K*%
X185580755Y-101750000D03*
%TO.P,D37,3,K*%
X185580755Y-104900000D03*
%TO.P,D37,4,A*%
%TO.N,Net-(D37-A)*%
X187030755Y-104900000D03*
%TD*%
D13*
%TO.P,C1,1*%
%TO.N,GND*%
X92150000Y-111492500D03*
%TO.P,C1,2*%
%TO.N,Net-(U3-THR)*%
X92150000Y-113567500D03*
%TD*%
D10*
%TO.P,D12,1,K*%
%TO.N,/RED_LIGHTS*%
X142200000Y-114750000D03*
%TO.P,D12,2,K*%
X140750000Y-114750000D03*
%TO.P,D12,3,K*%
X140750000Y-117900000D03*
%TO.P,D12,4,A*%
%TO.N,Net-(D12-A)*%
X142200000Y-117900000D03*
%TD*%
D15*
%TO.P,J3,3,Pin_3*%
%TO.N,/RTDS_SIGNAL*%
X87750000Y-101250000D03*
%TO.P,J3,2,Pin_2*%
%TO.N,/RTML_5V*%
X87750000Y-103750000D03*
D16*
%TO.P,J3,1,Pin_1*%
%TO.N,GND*%
X87750000Y-106250000D03*
%TD*%
D11*
%TO.P,R16,1*%
%TO.N,+12V*%
X181250000Y-96750000D03*
%TO.P,R16,2*%
%TO.N,Net-(D34-A)*%
X181250000Y-98750000D03*
%TD*%
D10*
%TO.P,D26,1,K*%
%TO.N,Net-(D27-A)*%
X167250000Y-108250000D03*
%TO.P,D26,2,K*%
X165800000Y-108250000D03*
%TO.P,D26,3,K*%
X165800000Y-111400000D03*
%TO.P,D26,4,A*%
%TO.N,Net-(D26-A)*%
X167250000Y-111400000D03*
%TD*%
D17*
%TO.P,R2,1*%
%TO.N,Net-(U2-VCC)*%
X106500000Y-113000000D03*
%TO.P,R2,2*%
%TO.N,+5V*%
X106500000Y-111000000D03*
%TD*%
D18*
%TO.P,J4,2,Pin_2*%
%TO.N,/RTML_12V*%
X97500000Y-102930000D03*
D19*
%TO.P,J4,1,Pin_1*%
%TO.N,GND*%
X95000000Y-102930000D03*
%TD*%
D10*
%TO.P,D6,1,K*%
%TO.N,/RED_LIGHTS*%
X132200000Y-114750000D03*
%TO.P,D6,2,K*%
X130750000Y-114750000D03*
%TO.P,D6,3,K*%
X130750000Y-117900000D03*
%TO.P,D6,4,A*%
%TO.N,Net-(D6-A)*%
X132200000Y-117900000D03*
%TD*%
D11*
%TO.P,R12,1*%
%TO.N,+12V*%
X161250000Y-96750000D03*
%TO.P,R12,2*%
%TO.N,Net-(D22-A)*%
X161250000Y-98750000D03*
%TD*%
%TO.P,R7,1*%
%TO.N,+12V*%
X136250000Y-96750000D03*
%TO.P,R7,2*%
%TO.N,Net-(D7-A)*%
X136250000Y-98750000D03*
%TD*%
D20*
%TO.P,C3,1*%
%TO.N,+12V*%
X119787500Y-107250000D03*
%TO.P,C3,2*%
%TO.N,GND*%
X117712500Y-107250000D03*
%TD*%
D10*
%TO.P,D19,1,K*%
%TO.N,Net-(D20-A)*%
X157200000Y-101750000D03*
%TO.P,D19,2,K*%
X155750000Y-101750000D03*
%TO.P,D19,3,K*%
X155750000Y-104900000D03*
%TO.P,D19,4,A*%
%TO.N,Net-(D19-A)*%
X157200000Y-104900000D03*
%TD*%
%TO.P,D2,1,K*%
%TO.N,Net-(D3-A)*%
X127200000Y-108250000D03*
%TO.P,D2,2,K*%
X125750000Y-108250000D03*
%TO.P,D2,3,K*%
X125750000Y-111400000D03*
%TO.P,D2,4,A*%
%TO.N,Net-(D2-A)*%
X127200000Y-111400000D03*
%TD*%
%TO.P,D1,1,K*%
%TO.N,Net-(D2-A)*%
X127200000Y-101750000D03*
%TO.P,D1,2,K*%
X125750000Y-101750000D03*
%TO.P,D1,3,K*%
X125750000Y-104900000D03*
%TO.P,D1,4,A*%
%TO.N,Net-(D1-A)*%
X127200000Y-104900000D03*
%TD*%
D11*
%TO.P,R15,1*%
%TO.N,+12V*%
X176250000Y-96750000D03*
%TO.P,R15,2*%
%TO.N,Net-(D31-A)*%
X176250000Y-98750000D03*
%TD*%
D21*
%TO.P,L1,N*%
%TO.N,GND*%
X202750000Y-114750000D03*
%TO.P,L1,P*%
%TO.N,/RTDS_BUZZER*%
X202750000Y-99750000D03*
%TD*%
D11*
%TO.P,R9,1*%
%TO.N,+12V*%
X146250000Y-96750000D03*
%TO.P,R9,2*%
%TO.N,Net-(D13-A)*%
X146250000Y-98750000D03*
%TD*%
D10*
%TO.P,D33,1,K*%
%TO.N,/GREEN_LIGHTS*%
X177200000Y-114750000D03*
%TO.P,D33,2,K*%
X175750000Y-114750000D03*
%TO.P,D33,3,K*%
X175750000Y-117900000D03*
%TO.P,D33,4,A*%
%TO.N,Net-(D33-A)*%
X177200000Y-117900000D03*
%TD*%
%TO.P,D38,1,K*%
%TO.N,Net-(D39-A)*%
X187030755Y-108250000D03*
%TO.P,D38,2,K*%
X185580755Y-108250000D03*
%TO.P,D38,3,K*%
X185580755Y-111400000D03*
%TO.P,D38,4,A*%
%TO.N,Net-(D38-A)*%
X187030755Y-111400000D03*
%TD*%
D22*
%TO.P,CR2,3*%
%TO.N,+5V*%
X120650002Y-112750000D03*
%TO.P,CR2,2*%
%TO.N,/RTDS_BUZZER*%
X118750000Y-112750000D03*
%TO.P,CR2,1*%
%TO.N,/RTDS_SIGNAL*%
X119700001Y-115137600D03*
%TD*%
D13*
%TO.P,C4,1*%
%TO.N,+5V*%
X113250000Y-94212500D03*
%TO.P,C4,2*%
%TO.N,GND*%
X113250000Y-96287500D03*
%TD*%
D22*
%TO.P,CR5,3*%
%TO.N,+12V*%
X113250000Y-105750000D03*
%TO.P,CR5,2*%
%TO.N,/RTML_12V*%
X111349998Y-105750000D03*
%TO.P,CR5,1*%
%TO.N,/RTML_5V*%
X112299999Y-108137600D03*
%TD*%
D23*
%TO.P,U3,1,GND*%
%TO.N,GND*%
X95322400Y-111480000D03*
%TO.P,U3,2,TR*%
%TO.N,Net-(U3-THR)*%
X95322400Y-112750000D03*
%TO.P,U3,3,Q*%
%TO.N,/FLASH_LEDS*%
X95322400Y-114020000D03*
%TO.P,U3,4,R*%
%TO.N,/RED_LIGHT_LOGIC*%
X95322400Y-115290000D03*
%TO.P,U3,5,CV*%
%TO.N,Net-(U3-CV)*%
X100250000Y-115290000D03*
%TO.P,U3,6,THR*%
%TO.N,Net-(U3-THR)*%
X100250000Y-114020000D03*
%TO.P,U3,7,DIS*%
%TO.N,Net-(U3-DIS)*%
X100250000Y-112750000D03*
%TO.P,U3,8,VCC*%
%TO.N,+5V*%
X100250000Y-111480000D03*
%TD*%
D10*
%TO.P,D32,1,K*%
%TO.N,Net-(D33-A)*%
X177200000Y-108250000D03*
%TO.P,D32,2,K*%
X175750000Y-108250000D03*
%TO.P,D32,3,K*%
X175750000Y-111400000D03*
%TO.P,D32,4,A*%
%TO.N,Net-(D32-A)*%
X177200000Y-111400000D03*
%TD*%
%TO.P,D31,1,K*%
%TO.N,Net-(D32-A)*%
X177200000Y-101750000D03*
%TO.P,D31,2,K*%
X175750000Y-101750000D03*
%TO.P,D31,3,K*%
X175750000Y-104900000D03*
%TO.P,D31,4,A*%
%TO.N,Net-(D31-A)*%
X177200000Y-104900000D03*
%TD*%
%TO.P,D40,1,K*%
%TO.N,Net-(D41-A)*%
X192150000Y-101750000D03*
%TO.P,D40,2,K*%
X190700000Y-101750000D03*
%TO.P,D40,3,K*%
X190700000Y-104900000D03*
%TO.P,D40,4,A*%
%TO.N,Net-(D40-A)*%
X192150000Y-104900000D03*
%TD*%
D14*
%TO.P,U2,1*%
%TO.N,/BMS_STATUS*%
X110750000Y-111340000D03*
%TO.P,U2,2*%
%TO.N,/IMD_STATUS*%
X110100000Y-111340000D03*
%TO.P,U2,3,GND*%
%TO.N,GND*%
X109450000Y-111340000D03*
%TO.P,U2,4*%
%TO.N,/RED_LIGHT_LOGIC*%
X109450000Y-113260000D03*
%TO.P,U2,5,VCC*%
%TO.N,Net-(U2-VCC)*%
X110750000Y-113260000D03*
%TD*%
D11*
%TO.P,R11,1*%
%TO.N,+12V*%
X156250000Y-96750000D03*
%TO.P,R11,2*%
%TO.N,Net-(D19-A)*%
X156250000Y-98750000D03*
%TD*%
D10*
%TO.P,D8,1,K*%
%TO.N,Net-(D9-A)*%
X137200000Y-108250000D03*
%TO.P,D8,2,K*%
X135750000Y-108250000D03*
%TO.P,D8,3,K*%
X135750000Y-111400000D03*
%TO.P,D8,4,A*%
%TO.N,Net-(D8-A)*%
X137200000Y-111400000D03*
%TD*%
%TO.P,D23,1,K*%
%TO.N,Net-(D24-A)*%
X162200000Y-108250000D03*
%TO.P,D23,2,K*%
X160750000Y-108250000D03*
%TO.P,D23,3,K*%
X160750000Y-111400000D03*
%TO.P,D23,4,A*%
%TO.N,Net-(D23-A)*%
X162200000Y-111400000D03*
%TD*%
%TO.P,D28,1,K*%
%TO.N,Net-(D29-A)*%
X172200000Y-101750000D03*
%TO.P,D28,2,K*%
X170750000Y-101750000D03*
%TO.P,D28,3,K*%
X170750000Y-104900000D03*
%TO.P,D28,4,A*%
%TO.N,Net-(D28-A)*%
X172200000Y-104900000D03*
%TD*%
D11*
%TO.P,R13,1*%
%TO.N,+12V*%
X166250000Y-96750000D03*
%TO.P,R13,2*%
%TO.N,Net-(D25-A)*%
X166250000Y-98750000D03*
%TD*%
D15*
%TO.P,J1,4,Pin_4*%
%TO.N,/IMD_STATUS*%
X87890000Y-112500000D03*
%TO.P,J1,3,Pin_3*%
%TO.N,/BMS_STATUS*%
X87890000Y-115000000D03*
%TO.P,J1,2,Pin_2*%
%TO.N,+12V*%
X87890000Y-117500000D03*
D16*
%TO.P,J1,1,Pin_1*%
%TO.N,GND*%
X87890000Y-120000000D03*
%TD*%
D10*
%TO.P,D10,1,K*%
%TO.N,Net-(D11-A)*%
X142200000Y-101750000D03*
%TO.P,D10,2,K*%
X140750000Y-101750000D03*
%TO.P,D10,3,K*%
X140750000Y-104900000D03*
%TO.P,D10,4,A*%
%TO.N,Net-(D10-A)*%
X142200000Y-104900000D03*
%TD*%
%TO.P,D3,1,K*%
%TO.N,/GREEN_LIGHTS*%
X127200000Y-114750000D03*
%TO.P,D3,2,K*%
X125750000Y-114750000D03*
%TO.P,D3,3,K*%
X125750000Y-117900000D03*
%TO.P,D3,4,A*%
%TO.N,Net-(D3-A)*%
X127200000Y-117900000D03*
%TD*%
D11*
%TO.P,R18,1*%
%TO.N,+12V*%
X191200000Y-96750000D03*
%TO.P,R18,2*%
%TO.N,Net-(D40-A)*%
X191200000Y-98750000D03*
%TD*%
D10*
%TO.P,D42,1,K*%
%TO.N,/RED_LIGHTS*%
X192150000Y-114750000D03*
%TO.P,D42,2,K*%
X190700000Y-114750000D03*
%TO.P,D42,3,K*%
X190700000Y-117900000D03*
%TO.P,D42,4,A*%
%TO.N,Net-(D42-A)*%
X192150000Y-117900000D03*
%TD*%
D22*
%TO.P,CR4,3*%
%TO.N,/GREEN_LIGHTS*%
X117850002Y-116800000D03*
%TO.P,CR4,2*%
%TO.N,GND*%
X115950000Y-116800000D03*
%TO.P,CR4,1*%
%TO.N,/GREEN_LIGHT_LOGIC*%
X116900001Y-119187600D03*
%TD*%
D11*
%TO.P,R14,1*%
%TO.N,+12V*%
X171250000Y-96750000D03*
%TO.P,R14,2*%
%TO.N,Net-(D28-A)*%
X171250000Y-98750000D03*
%TD*%
%TO.P,R4,1*%
%TO.N,Net-(U3-DIS)*%
X103500000Y-115520000D03*
%TO.P,R4,2*%
%TO.N,+5V*%
X103500000Y-117520000D03*
%TD*%
D10*
%TO.P,D29,1,K*%
%TO.N,Net-(D30-A)*%
X172200000Y-108250000D03*
%TO.P,D29,2,K*%
X170750000Y-108250000D03*
%TO.P,D29,3,K*%
X170750000Y-111400000D03*
%TO.P,D29,4,A*%
%TO.N,Net-(D29-A)*%
X172200000Y-111400000D03*
%TD*%
D18*
%TO.P,J2,2,Pin_2*%
%TO.N,/RTML_12V*%
X108250000Y-102930000D03*
D19*
%TO.P,J2,1,Pin_1*%
%TO.N,GND*%
X105750000Y-102930000D03*
%TD*%
D11*
%TO.P,R6,1*%
%TO.N,+12V*%
X131250000Y-96750000D03*
%TO.P,R6,2*%
%TO.N,Net-(D4-A)*%
X131250000Y-98750000D03*
%TD*%
%TO.P,R5,1*%
%TO.N,+12V*%
X126250000Y-96750000D03*
%TO.P,R5,2*%
%TO.N,Net-(D1-A)*%
X126250000Y-98750000D03*
%TD*%
D10*
%TO.P,D35,1,K*%
%TO.N,Net-(D36-A)*%
X182200000Y-108250000D03*
%TO.P,D35,2,K*%
X180750000Y-108250000D03*
%TO.P,D35,3,K*%
X180750000Y-111400000D03*
%TO.P,D35,4,A*%
%TO.N,Net-(D35-A)*%
X182200000Y-111400000D03*
%TD*%
%TO.P,D27,1,K*%
%TO.N,/GREEN_LIGHTS*%
X167200000Y-114750000D03*
%TO.P,D27,2,K*%
X165750000Y-114750000D03*
%TO.P,D27,3,K*%
X165750000Y-117900000D03*
%TO.P,D27,4,A*%
%TO.N,Net-(D27-A)*%
X167200000Y-117900000D03*
%TD*%
%TO.P,D13,1,K*%
%TO.N,Net-(D14-A)*%
X147200000Y-101750000D03*
%TO.P,D13,2,K*%
X145750000Y-101750000D03*
%TO.P,D13,3,K*%
X145750000Y-104900000D03*
%TO.P,D13,4,A*%
%TO.N,Net-(D13-A)*%
X147200000Y-104900000D03*
%TD*%
%TO.P,D11,1,K*%
%TO.N,Net-(D12-A)*%
X142200000Y-108250000D03*
%TO.P,D11,2,K*%
X140750000Y-108250000D03*
%TO.P,D11,3,K*%
X140750000Y-111400000D03*
%TO.P,D11,4,A*%
%TO.N,Net-(D11-A)*%
X142200000Y-111400000D03*
%TD*%
D17*
%TO.P,R1,1*%
%TO.N,Net-(U4-VCC)*%
X112950000Y-113300000D03*
%TO.P,R1,2*%
%TO.N,+5V*%
X112950000Y-111300000D03*
%TD*%
D10*
%TO.P,D36,1,K*%
%TO.N,/RED_LIGHTS*%
X182200000Y-114750000D03*
%TO.P,D36,2,K*%
X180750000Y-114750000D03*
%TO.P,D36,3,K*%
X180750000Y-117900000D03*
%TO.P,D36,4,A*%
%TO.N,Net-(D36-A)*%
X182200000Y-117900000D03*
%TD*%
%TO.P,D24,1,K*%
%TO.N,/RED_LIGHTS*%
X162200000Y-114750000D03*
%TO.P,D24,2,K*%
X160750000Y-114750000D03*
%TO.P,D24,3,K*%
X160750000Y-117900000D03*
%TO.P,D24,4,A*%
%TO.N,Net-(D24-A)*%
X162200000Y-117900000D03*
%TD*%
%TO.P,D22,1,K*%
%TO.N,Net-(D23-A)*%
X162250000Y-101750000D03*
%TO.P,D22,2,K*%
X160800000Y-101750000D03*
%TO.P,D22,3,K*%
X160800000Y-104900000D03*
%TO.P,D22,4,A*%
%TO.N,Net-(D22-A)*%
X162250000Y-104900000D03*
%TD*%
D24*
%TO.P,U5,1,GND/ADJ*%
%TO.N,GND*%
X116464000Y-102550000D03*
D25*
%TO.P,U5,2,OUT*%
%TO.N,+5V*%
X118750000Y-96300000D03*
D24*
%TO.P,U5,3,IN*%
%TO.N,+12V*%
X121036000Y-102550000D03*
%TD*%
D11*
%TO.P,R3,1*%
%TO.N,Net-(U3-THR)*%
X103500000Y-111020000D03*
%TO.P,R3,2*%
%TO.N,Net-(U3-DIS)*%
X103500000Y-113020000D03*
%TD*%
D10*
%TO.P,D39,1,K*%
%TO.N,/GREEN_LIGHTS*%
X187030755Y-114750000D03*
%TO.P,D39,2,K*%
X185580755Y-114750000D03*
%TO.P,D39,3,K*%
X185580755Y-117900000D03*
%TO.P,D39,4,A*%
%TO.N,Net-(D39-A)*%
X187030755Y-117900000D03*
%TD*%
%TO.P,D9,1,K*%
%TO.N,/GREEN_LIGHTS*%
X137200000Y-114750000D03*
%TO.P,D9,2,K*%
X135750000Y-114750000D03*
%TO.P,D9,3,K*%
X135750000Y-117900000D03*
%TO.P,D9,4,A*%
%TO.N,Net-(D9-A)*%
X137200000Y-117900000D03*
%TD*%
%TO.P,D41,1,K*%
%TO.N,Net-(D42-A)*%
X192150000Y-108250000D03*
%TO.P,D41,2,K*%
X190700000Y-108250000D03*
%TO.P,D41,3,K*%
X190700000Y-111400000D03*
%TO.P,D41,4,A*%
%TO.N,Net-(D41-A)*%
X192150000Y-111400000D03*
%TD*%
%TO.P,D18,1,K*%
%TO.N,/RED_LIGHTS*%
X152200000Y-114750000D03*
%TO.P,D18,2,K*%
X150750000Y-114750000D03*
%TO.P,D18,3,K*%
X150750000Y-117900000D03*
%TO.P,D18,4,A*%
%TO.N,Net-(D18-A)*%
X152200000Y-117900000D03*
%TD*%
%TO.P,D15,1,K*%
%TO.N,/GREEN_LIGHTS*%
X147200000Y-114750000D03*
%TO.P,D15,2,K*%
X145750000Y-114750000D03*
%TO.P,D15,3,K*%
X145750000Y-117900000D03*
%TO.P,D15,4,A*%
%TO.N,Net-(D15-A)*%
X147200000Y-117900000D03*
%TD*%
D11*
%TO.P,R17,1*%
%TO.N,+12V*%
X186251174Y-96750000D03*
%TO.P,R17,2*%
%TO.N,Net-(D37-A)*%
X186251174Y-98750000D03*
%TD*%
D10*
%TO.P,D7,1,K*%
%TO.N,Net-(D8-A)*%
X137200000Y-101750000D03*
%TO.P,D7,2,K*%
X135750000Y-101750000D03*
%TO.P,D7,3,K*%
X135750000Y-104900000D03*
%TO.P,D7,4,A*%
%TO.N,Net-(D7-A)*%
X137200000Y-104900000D03*
%TD*%
D11*
%TO.P,R8,1*%
%TO.N,+12V*%
X141250000Y-96750000D03*
%TO.P,R8,2*%
%TO.N,Net-(D10-A)*%
X141250000Y-98750000D03*
%TD*%
D22*
%TO.P,CR1,3*%
%TO.N,/RED_LIGHTS*%
X112950000Y-116800000D03*
%TO.P,CR1,2*%
%TO.N,GND*%
X111049998Y-116800000D03*
%TO.P,CR1,1*%
%TO.N,/FLASH_LEDS*%
X111999999Y-119187600D03*
%TD*%
D10*
%TO.P,D34,1,K*%
%TO.N,Net-(D35-A)*%
X182200000Y-101750000D03*
%TO.P,D34,2,K*%
X180750000Y-101750000D03*
%TO.P,D34,3,K*%
X180750000Y-104900000D03*
%TO.P,D34,4,A*%
%TO.N,Net-(D34-A)*%
X182200000Y-104900000D03*
%TD*%
%TO.P,D17,1,K*%
%TO.N,Net-(D18-A)*%
X152200000Y-108250000D03*
%TO.P,D17,2,K*%
X150750000Y-108250000D03*
%TO.P,D17,3,K*%
X150750000Y-111400000D03*
%TO.P,D17,4,A*%
%TO.N,Net-(D17-A)*%
X152200000Y-111400000D03*
%TD*%
D26*
%TO.N,+5V*%
X118786721Y-110300000D03*
%TO.N,/RED_LIGHTS*%
X140125000Y-120625000D03*
X169000000Y-116250000D03*
X129000000Y-116250000D03*
X180625000Y-120625000D03*
X189000000Y-116250000D03*
X170625000Y-120625000D03*
X130125000Y-120625000D03*
X159000000Y-116250000D03*
X150650000Y-120650000D03*
X160750000Y-120650000D03*
X149000000Y-116250000D03*
X179000000Y-116250000D03*
X139000000Y-116250000D03*
%TO.N,/GREEN_LIGHTS*%
X164000000Y-120000000D03*
X154000000Y-120000000D03*
X173750000Y-120000000D03*
X183500000Y-120000000D03*
X144062500Y-120000000D03*
X133750000Y-120000000D03*
%TO.N,GND*%
X108609276Y-110114254D03*
X114500000Y-116500000D03*
X109750000Y-116500000D03*
X90627328Y-106372672D03*
X92250000Y-105250000D03*
%TO.N,Net-(U3-CV)*%
X100682943Y-108750000D03*
X97691723Y-116522394D03*
%TO.N,+12V*%
X92234906Y-109871194D03*
X112250000Y-104750000D03*
X121250000Y-106500000D03*
%TO.N,+5V*%
X96779555Y-116478314D03*
X113875000Y-110375000D03*
X122836074Y-96663926D03*
X114750000Y-108750000D03*
%TO.N,/FLASH_LEDS*%
X112750000Y-115750000D03*
X98759400Y-111522071D03*
%TO.N,/RTDS_BUZZER*%
X118250000Y-110900000D03*
X123850000Y-98301473D03*
%TO.N,/RTDS_SIGNAL*%
X107250000Y-105850000D03*
X121965544Y-106142228D03*
%TO.N,/RED_LIGHT_LOGIC*%
X96844682Y-117372412D03*
X95981800Y-116538235D03*
%TO.N,/IMD_STATUS*%
X111072431Y-110068547D03*
X92064807Y-108375836D03*
X118950000Y-108750000D03*
%TO.N,/BMS_STATUS*%
X119615682Y-109193701D03*
X111750000Y-110550000D03*
X92419680Y-109092822D03*
%TO.N,Net-(U3-DIS)*%
X101520000Y-112174051D03*
X101936397Y-113782132D03*
%TD*%
D27*
%TO.N,GND*%
X114500000Y-116500000D02*
X114750000Y-116750000D01*
X114750000Y-116750000D02*
X115900000Y-116750000D01*
X115900000Y-116750000D02*
X115950000Y-116800000D01*
X110684314Y-120250000D02*
X115118628Y-120250000D01*
X109750000Y-116500000D02*
X109750000Y-119315686D01*
X109750000Y-116500000D02*
X110050000Y-116800000D01*
X109750000Y-119315686D02*
X110684314Y-120250000D01*
X115118628Y-120250000D02*
X116118628Y-121250000D01*
X116118628Y-121250000D02*
X196250000Y-121250000D01*
X196250000Y-121250000D02*
X202750000Y-114750000D01*
X110050000Y-116800000D02*
X111049998Y-116800000D01*
%TO.N,/GREEN_LIGHT_LOGIC*%
X115300000Y-113220000D02*
X115300000Y-113300000D01*
X115300000Y-113300000D02*
X118068200Y-116068200D01*
X119083800Y-116722598D02*
X119083800Y-118416200D01*
X118068200Y-116068200D02*
X118429402Y-116068200D01*
X118429402Y-116068200D02*
X119083800Y-116722598D01*
X119083800Y-118416200D02*
X118312400Y-119187600D01*
X118312400Y-119187600D02*
X116900001Y-119187600D01*
%TO.N,/RED_LIGHTS*%
X130125000Y-120625000D02*
X130000000Y-120750000D01*
X130000000Y-120750000D02*
X116184314Y-120750000D01*
X116184314Y-120750000D02*
X112950000Y-117515686D01*
X112950000Y-117515686D02*
X112950000Y-116800000D01*
%TO.N,/GREEN_LIGHTS*%
X123500000Y-120000000D02*
X123150000Y-120350000D01*
X123150000Y-120350000D02*
X116350000Y-120350000D01*
X116350000Y-120350000D02*
X116000000Y-120000000D01*
X116000000Y-120000000D02*
X116000000Y-118650002D01*
X116000000Y-118650002D02*
X117850002Y-116800000D01*
%TO.N,/RTDS_BUZZER*%
X118250000Y-110900000D02*
X118750000Y-111400000D01*
X118750000Y-111400000D02*
X118750000Y-112750000D01*
%TO.N,+5V*%
X118786721Y-110300000D02*
X120650002Y-112163281D01*
X120650002Y-112163281D02*
X120650002Y-112750000D01*
%TO.N,+12V*%
X112250000Y-104750000D02*
X113250000Y-105750000D01*
%TO.N,/RTML_12V*%
X111349998Y-105750000D02*
X110349998Y-104750000D01*
X110349998Y-104750000D02*
X107000000Y-104750000D01*
X107000000Y-104750000D02*
X99320000Y-104750000D01*
X99320000Y-104750000D02*
X97500000Y-102930000D01*
X107000000Y-104750000D02*
X108250000Y-103500000D01*
X108250000Y-103500000D02*
X108250000Y-102930000D01*
%TO.N,/RED_LIGHT_LOGIC*%
X96844682Y-117372412D02*
X98659870Y-119187600D01*
X98659870Y-119187600D02*
X103428086Y-119187600D01*
X103428086Y-119187600D02*
X109265686Y-113350000D01*
X109265686Y-113350000D02*
X109450000Y-113350000D01*
%TO.N,+5V*%
X114750000Y-108750000D02*
X114431453Y-109068547D01*
X105500000Y-116550000D02*
X104550000Y-117500000D01*
X114431453Y-109068547D02*
X108431453Y-109068547D01*
X108431453Y-109068547D02*
X105500000Y-112000000D01*
X105500000Y-112000000D02*
X105500000Y-116550000D01*
X104550000Y-117500000D02*
X103570000Y-117500000D01*
X103570000Y-117500000D02*
X103550000Y-117520000D01*
%TO.N,/RED_LIGHTS*%
X140750000Y-114750000D02*
X139750000Y-114750000D01*
X190700000Y-117900000D02*
X189900000Y-117900000D01*
X130750000Y-114750000D02*
X132200000Y-114750000D01*
X129900000Y-117900000D02*
X129000000Y-117000000D01*
X179000000Y-116250000D02*
X179000000Y-117000000D01*
X129000000Y-116250000D02*
X129000000Y-115500000D01*
X160750000Y-120650000D02*
X160650000Y-120750000D01*
X180750000Y-114750000D02*
X179750000Y-114750000D01*
X192150000Y-114750000D02*
X190700000Y-114750000D01*
X149000000Y-117250000D02*
X149000000Y-116250000D01*
X182200000Y-114750000D02*
X180750000Y-114750000D01*
X187800000Y-120750000D02*
X190650000Y-117900000D01*
X160750000Y-117900000D02*
X159900000Y-117900000D01*
X189000000Y-115500000D02*
X189750000Y-114750000D01*
X129000000Y-115500000D02*
X129750000Y-114750000D01*
X189000000Y-117000000D02*
X189000000Y-116250000D01*
X169750000Y-114750000D02*
X170800000Y-114750000D01*
X169000000Y-115500000D02*
X169750000Y-114750000D01*
X160650000Y-120750000D02*
X150750000Y-120750000D01*
X159000000Y-117000000D02*
X159000000Y-116250000D01*
X139000000Y-117000000D02*
X139900000Y-117900000D01*
X149000000Y-115250000D02*
X149500000Y-114750000D01*
X180500000Y-120750000D02*
X170750000Y-120750000D01*
X179000000Y-115500000D02*
X179000000Y-116250000D01*
X159900000Y-117900000D02*
X159000000Y-117000000D01*
X140000000Y-120750000D02*
X140125000Y-120625000D01*
X139000000Y-116250000D02*
X139000000Y-117000000D01*
X190650000Y-117900000D02*
X190700000Y-117900000D01*
X160750000Y-120650000D02*
X160850000Y-120750000D01*
X150750000Y-120750000D02*
X150650000Y-120650000D01*
X179750000Y-114750000D02*
X179000000Y-115500000D01*
X180625000Y-120625000D02*
X180500000Y-120750000D01*
X189750000Y-114750000D02*
X190700000Y-114750000D01*
X140750000Y-114750000D02*
X142200000Y-114750000D01*
X179900000Y-117900000D02*
X180750000Y-117900000D01*
X172250000Y-114750000D02*
X170800000Y-114750000D01*
X160850000Y-120750000D02*
X170500000Y-120750000D01*
X139000000Y-115500000D02*
X139000000Y-116250000D01*
X130250000Y-120750000D02*
X140000000Y-120750000D01*
X170800000Y-117900000D02*
X169900000Y-117900000D01*
X169000000Y-117000000D02*
X169000000Y-115500000D01*
X149500000Y-114750000D02*
X150750000Y-114750000D01*
X179000000Y-117000000D02*
X179900000Y-117900000D01*
X189000000Y-116250000D02*
X189000000Y-115500000D01*
X170500000Y-120750000D02*
X170625000Y-120625000D01*
X150650000Y-120650000D02*
X150550000Y-120750000D01*
X130125000Y-120625000D02*
X130250000Y-120750000D01*
X129000000Y-117000000D02*
X129000000Y-116250000D01*
X149000000Y-116250000D02*
X149000000Y-115250000D01*
X159000000Y-116250000D02*
X159000000Y-115500000D01*
X180625000Y-120625000D02*
X180750000Y-120750000D01*
X140250000Y-120750000D02*
X140125000Y-120625000D01*
X169900000Y-117900000D02*
X169000000Y-117000000D01*
X159000000Y-115500000D02*
X159750000Y-114750000D01*
X150550000Y-120750000D02*
X140250000Y-120750000D01*
X139900000Y-117900000D02*
X140750000Y-117900000D01*
X139750000Y-114750000D02*
X139000000Y-115500000D01*
X180750000Y-120750000D02*
X187800000Y-120750000D01*
X149650000Y-117900000D02*
X149000000Y-117250000D01*
X160750000Y-114750000D02*
X162200000Y-114750000D01*
X170750000Y-120750000D02*
X170625000Y-120625000D01*
X150750000Y-114750000D02*
X152200000Y-114750000D01*
X129750000Y-114750000D02*
X130750000Y-114750000D01*
X159750000Y-114750000D02*
X160750000Y-114750000D01*
X130750000Y-117900000D02*
X129900000Y-117900000D01*
X189900000Y-117900000D02*
X189000000Y-117000000D01*
X150750000Y-117900000D02*
X149650000Y-117900000D01*
%TO.N,/GREEN_LIGHTS*%
X164900000Y-117900000D02*
X164250000Y-117250000D01*
X154000000Y-120000000D02*
X164000000Y-120000000D01*
X164250000Y-117250000D02*
X164250000Y-115250000D01*
X165750000Y-117900000D02*
X164900000Y-117900000D01*
X155750000Y-118250000D02*
X155750000Y-117900000D01*
X164250000Y-115250000D02*
X164750000Y-114750000D01*
X164000000Y-120000000D02*
X164000000Y-119650000D01*
X164750000Y-114750000D02*
X165750000Y-114750000D01*
X124900000Y-117900000D02*
X124250000Y-117250000D01*
X135750000Y-114750000D02*
X134750000Y-114750000D01*
X184900000Y-117900000D02*
X184250000Y-117250000D01*
X174250000Y-115250000D02*
X174250000Y-117250000D01*
X145750000Y-118312500D02*
X145750000Y-117900000D01*
X144750000Y-114750000D02*
X145750000Y-114750000D01*
X175750000Y-114750000D02*
X174750000Y-114750000D01*
X164000000Y-119650000D02*
X165750000Y-117900000D01*
X154000000Y-120000000D02*
X155750000Y-118250000D01*
X125750000Y-117900000D02*
X125600000Y-117900000D01*
X145750000Y-117900000D02*
X144650000Y-117900000D01*
X174900000Y-117900000D02*
X175750000Y-117900000D01*
X183480755Y-120000000D02*
X185580755Y-117900000D01*
X184915378Y-114750000D02*
X185580755Y-114750000D01*
X184250000Y-117250000D02*
X184250000Y-115415378D01*
X133750000Y-120000000D02*
X144062500Y-120000000D01*
X174250000Y-117250000D02*
X174900000Y-117900000D01*
X155750000Y-117900000D02*
X154900000Y-117900000D01*
X174750000Y-114750000D02*
X174250000Y-115250000D01*
X184250000Y-115415378D02*
X184915378Y-114750000D01*
X133750000Y-119900000D02*
X135750000Y-117900000D01*
X124250000Y-115250000D02*
X124750000Y-114750000D01*
X167200000Y-114750000D02*
X165750000Y-114750000D01*
X173750000Y-120000000D02*
X164000000Y-120000000D01*
X125600000Y-117900000D02*
X123500000Y-120000000D01*
X173750000Y-120000000D02*
X173750000Y-119900000D01*
X154250000Y-117250000D02*
X154250000Y-115250000D01*
X133750000Y-120000000D02*
X123500000Y-120000000D01*
X144250000Y-115250000D02*
X144750000Y-114750000D01*
X154750000Y-114750000D02*
X155750000Y-114750000D01*
X127200000Y-114750000D02*
X125750000Y-114750000D01*
X147200000Y-114750000D02*
X145750000Y-114750000D01*
X185580755Y-117900000D02*
X184900000Y-117900000D01*
X124250000Y-117250000D02*
X124250000Y-115250000D01*
X173750000Y-119900000D02*
X175750000Y-117900000D01*
X173750000Y-120000000D02*
X183480755Y-120000000D01*
X134750000Y-114750000D02*
X134250000Y-115250000D01*
X175750000Y-114750000D02*
X177200000Y-114750000D01*
X144650000Y-117900000D02*
X144250000Y-117500000D01*
X187030755Y-114750000D02*
X185580755Y-114750000D01*
X154250000Y-115250000D02*
X154750000Y-114750000D01*
X134250000Y-117250000D02*
X134900000Y-117900000D01*
X124750000Y-114750000D02*
X125750000Y-114750000D01*
X125750000Y-117900000D02*
X124900000Y-117900000D01*
X144062500Y-120000000D02*
X145750000Y-118312500D01*
X144062500Y-120000000D02*
X154000000Y-120000000D01*
X135750000Y-114750000D02*
X137200000Y-114750000D01*
X154900000Y-117900000D02*
X154250000Y-117250000D01*
X144250000Y-117500000D02*
X144250000Y-115250000D01*
X134250000Y-115250000D02*
X134250000Y-117250000D01*
X133750000Y-120000000D02*
X133750000Y-119900000D01*
X134900000Y-117900000D02*
X135750000Y-117900000D01*
X155750000Y-114750000D02*
X157200000Y-114750000D01*
%TO.N,GND*%
X88137258Y-105862742D02*
X87750000Y-106250000D01*
X92680000Y-105250000D02*
X96400000Y-101530000D01*
X107150000Y-101530000D02*
X105750000Y-102930000D01*
X87872672Y-106372672D02*
X87750000Y-106250000D01*
X116464000Y-102550000D02*
X118250000Y-104336000D01*
X96712500Y-109500000D02*
X95322400Y-110890100D01*
X108669254Y-110114254D02*
X109450000Y-110895000D01*
X105350000Y-102530000D02*
X105750000Y-102930000D01*
X117712500Y-107287500D02*
X115300000Y-109700000D01*
X110780093Y-109468547D02*
X115068547Y-109468547D01*
X109450000Y-110895000D02*
X109450000Y-111340000D01*
X90627328Y-106372672D02*
X87872672Y-106372672D01*
X87890000Y-120000000D02*
X90295000Y-117595000D01*
X108609276Y-110114254D02*
X108669254Y-110114254D01*
X117712500Y-107250000D02*
X117712500Y-107287500D01*
X115300000Y-110051471D02*
X115300000Y-111300000D01*
X92250000Y-105250000D02*
X92680000Y-105250000D01*
X90910172Y-106372672D02*
X95322400Y-110784900D01*
X90295000Y-117595000D02*
X92670000Y-117595000D01*
X109450000Y-111250000D02*
X109450000Y-110798640D01*
X92150000Y-110982500D02*
X92150000Y-111492500D01*
X92150000Y-111492500D02*
X95309900Y-111492500D01*
X92887500Y-111720000D02*
X92660000Y-111492500D01*
X90627328Y-106372672D02*
X90910172Y-106372672D01*
X115444000Y-101530000D02*
X107150000Y-101530000D01*
X109450000Y-110798640D02*
X110780093Y-109468547D01*
X95309900Y-111492500D02*
X95322400Y-111480000D01*
X116464000Y-102550000D02*
X115444000Y-101530000D01*
X97976346Y-101530000D02*
X98976346Y-102530000D01*
X92075000Y-117595000D02*
X92150000Y-117595000D01*
X96400000Y-101530000D02*
X97976346Y-101530000D01*
X113250000Y-99336000D02*
X116464000Y-102550000D01*
X118250000Y-106712500D02*
X117712500Y-107250000D01*
X113250000Y-96287500D02*
X113250000Y-99336000D01*
X118100000Y-107637500D02*
X117712500Y-107250000D01*
X95322400Y-110890100D02*
X95322400Y-111480000D01*
X115300000Y-109700000D02*
X115300000Y-111300000D01*
X95322400Y-110784900D02*
X95322400Y-111480000D01*
X118250000Y-104336000D02*
X118250000Y-106712500D01*
X98976346Y-102530000D02*
X105350000Y-102530000D01*
X115068547Y-109468547D02*
X115300000Y-109700000D01*
%TO.N,Net-(U3-THR)*%
X100961200Y-114020000D02*
X100250000Y-114020000D01*
X101540600Y-110900600D02*
X98532341Y-110900600D01*
X102580000Y-111020000D02*
X102120000Y-111480000D01*
X102120000Y-112750000D02*
X102120000Y-111480000D01*
X92150000Y-113567500D02*
X92967500Y-112750000D01*
X100850000Y-114020000D02*
X102120000Y-112750000D01*
X100250000Y-114020000D02*
X99650000Y-114020000D01*
X100250000Y-114020000D02*
X100850000Y-114020000D01*
X92660000Y-113567500D02*
X92660000Y-114030000D01*
X98532341Y-110900600D02*
X96682941Y-112750000D01*
X102120000Y-111480000D02*
X101540600Y-110900600D01*
X92967500Y-112750000D02*
X95322400Y-112750000D01*
X103150000Y-111020000D02*
X102580000Y-111020000D01*
X96682941Y-112750000D02*
X95322400Y-112750000D01*
%TO.N,Net-(U3-CV)*%
X97691723Y-116522394D02*
X98964117Y-115250000D01*
X99932943Y-109500000D02*
X98787500Y-109500000D01*
X98964117Y-115250000D02*
X100210000Y-115250000D01*
X100682943Y-108750000D02*
X99932943Y-109500000D01*
X100210000Y-115250000D02*
X100250000Y-115290000D01*
%TO.N,+12V*%
X121036000Y-102550000D02*
X121036000Y-101964000D01*
X89690000Y-111882015D02*
X89690000Y-115700000D01*
X121036000Y-102550000D02*
X119250000Y-104336000D01*
X126250000Y-96750000D02*
X191200000Y-96750000D01*
X121036000Y-101964000D02*
X126250000Y-96750000D01*
X89690000Y-115700000D02*
X87890000Y-117500000D01*
X92234906Y-109871194D02*
X91700821Y-109871194D01*
X119250000Y-106712500D02*
X119787500Y-107250000D01*
X121250000Y-106500000D02*
X119867157Y-107882843D01*
X119250000Y-104336000D02*
X119250000Y-106712500D01*
X91700821Y-109871194D02*
X89690000Y-111882015D01*
X120500000Y-107250000D02*
X119787500Y-107250000D01*
X121250000Y-106500000D02*
X120500000Y-107250000D01*
%TO.N,+5V*%
X122836074Y-96663926D02*
X122472148Y-96300000D01*
X96779555Y-116478314D02*
X96779555Y-114350445D01*
X118750000Y-96300000D02*
X115337500Y-96300000D01*
X96581800Y-116786764D02*
X96230329Y-117138235D01*
X94598235Y-117138235D02*
X92980000Y-115520000D01*
X92980000Y-115520000D02*
X92150000Y-115520000D01*
X96779555Y-116478314D02*
X96799113Y-116478314D01*
X96799113Y-116478314D02*
X97840799Y-117520000D01*
X122472148Y-96300000D02*
X118750000Y-96300000D01*
X97840799Y-117520000D02*
X103500000Y-117520000D01*
X96230329Y-117138235D02*
X94598235Y-117138235D01*
X96779555Y-116478314D02*
X96581800Y-116676069D01*
X99650000Y-111480000D02*
X100250000Y-111480000D01*
X103150000Y-117520000D02*
X102867157Y-117802843D01*
X99690000Y-111480000D02*
X100250000Y-111480000D01*
X113875000Y-110375000D02*
X112950000Y-111300000D01*
X115337500Y-96300000D02*
X113250000Y-94212500D01*
X96581800Y-116676069D02*
X96581800Y-116786764D01*
X96779555Y-114350445D02*
X99650000Y-111480000D01*
%TO.N,/FLASH_LEDS*%
X96261471Y-114020000D02*
X95322400Y-114020000D01*
X111999999Y-116500001D02*
X111999999Y-119187600D01*
X112750000Y-115750000D02*
X111999999Y-116500001D01*
X98759400Y-111522071D02*
X96261471Y-114020000D01*
%TO.N,/RTDS_BUZZER*%
X123850000Y-96498529D02*
X125098529Y-95250000D01*
X202750000Y-99750000D02*
X202750000Y-100750000D01*
X125098529Y-95250000D02*
X198250000Y-95250000D01*
X198250000Y-95250000D02*
X202750000Y-99750000D01*
X123850000Y-98301473D02*
X123850000Y-96498529D01*
%TO.N,/RTDS_SIGNAL*%
X105350000Y-107750000D02*
X93750000Y-107750000D01*
X87750000Y-101750000D02*
X87750000Y-101250000D01*
X93750000Y-107750000D02*
X87750000Y-101750000D01*
X107250000Y-105850000D02*
X105350000Y-107750000D01*
%TO.N,/RED_LIGHT_LOGIC*%
X95322400Y-115878835D02*
X95322400Y-115290000D01*
X95981800Y-116538235D02*
X95322400Y-115878835D01*
%TO.N,/IMD_STATUS*%
X116815686Y-108750000D02*
X115950000Y-109615686D01*
X110100000Y-110798640D02*
X110100000Y-111340000D01*
X111072431Y-110068547D02*
X110830093Y-110068547D01*
X88540000Y-111850000D02*
X87890000Y-112500000D01*
X115950000Y-109615686D02*
X115950000Y-111300000D01*
X110100000Y-110756449D02*
X110100000Y-111250000D01*
X88590643Y-111850000D02*
X88540000Y-111850000D01*
X118950000Y-108750000D02*
X116815686Y-108750000D01*
X92064807Y-108375836D02*
X88590643Y-111850000D01*
X110830093Y-110068547D02*
X110100000Y-110798640D01*
%TO.N,/BMS_STATUS*%
X111750000Y-110550000D02*
X111450000Y-110550000D01*
X119459383Y-109350000D02*
X118701471Y-109350000D01*
X116600000Y-109531372D02*
X116600000Y-111300000D01*
X89290000Y-113600000D02*
X87890000Y-115000000D01*
X89290000Y-111716329D02*
X89290000Y-113600000D01*
X116981372Y-109150000D02*
X116600000Y-109531372D01*
X111450000Y-110550000D02*
X110750000Y-111250000D01*
X119615682Y-109193701D02*
X119459383Y-109350000D01*
X91913507Y-109092822D02*
X89290000Y-111716329D01*
X92419680Y-109092822D02*
X91913507Y-109092822D01*
X118501471Y-109150000D02*
X116981372Y-109150000D01*
X118701471Y-109350000D02*
X118501471Y-109150000D01*
%TO.N,Net-(U4-VCC)*%
X115580000Y-112200000D02*
X114050000Y-112200000D01*
X112950000Y-113300000D02*
X113550000Y-113300000D01*
X114050000Y-112200000D02*
X112950000Y-113300000D01*
X116600000Y-113220000D02*
X115580000Y-112200000D01*
%TO.N,Net-(U2-VCC)*%
X107059053Y-112440947D02*
X107809053Y-112440947D01*
X107885001Y-112365000D02*
X109765000Y-112365000D01*
X109765000Y-112365000D02*
X110750000Y-113350000D01*
X106500000Y-113000000D02*
X107059053Y-112440947D01*
%TO.N,Net-(U3-DIS)*%
X103500000Y-113020000D02*
X104250000Y-113770000D01*
X104250000Y-114770000D02*
X103500000Y-115520000D01*
X101520000Y-112174051D02*
X100825949Y-112174051D01*
X101936397Y-113782132D02*
X102698529Y-113020000D01*
X102698529Y-113020000D02*
X103500000Y-113020000D01*
X100825949Y-112174051D02*
X100250000Y-112750000D01*
X104250000Y-113770000D02*
X104250000Y-114770000D01*
%TO.N,/RTML_5V*%
X112299999Y-108150000D02*
X93584314Y-108150000D01*
X88853186Y-103750000D02*
X87750000Y-103750000D01*
X93584314Y-108150000D02*
X93350000Y-107915685D01*
X92853186Y-107750000D02*
X88853186Y-103750000D01*
X93350000Y-107915685D02*
X93184314Y-107750000D01*
X93184314Y-107750000D02*
X92853186Y-107750000D01*
%TO.N,/RTML_12V*%
X108250000Y-103750000D02*
X108250000Y-102930000D01*
%TO.N,Net-(D2-A)*%
X127875000Y-107025000D02*
X127875000Y-110725000D01*
X127875000Y-110725000D02*
X127200000Y-111400000D01*
X125125000Y-104425000D02*
X125125000Y-102275000D01*
X127075000Y-101775000D02*
X125625000Y-101775000D01*
X125750000Y-104900000D02*
X127875000Y-107025000D01*
X125625000Y-104925000D02*
X125125000Y-104425000D01*
X125125000Y-102275000D02*
X125625000Y-101775000D01*
%TO.N,Net-(D1-A)*%
X127875000Y-100375000D02*
X127875000Y-104225000D01*
X126250000Y-98750000D02*
X127875000Y-100375000D01*
X127875000Y-104225000D02*
X127200000Y-104900000D01*
%TO.N,Net-(D3-A)*%
X125125000Y-110925000D02*
X125125000Y-108775000D01*
X127075000Y-108275000D02*
X125625000Y-108275000D01*
X125625000Y-111425000D02*
X125125000Y-110925000D01*
X128250000Y-113900000D02*
X128250000Y-116850000D01*
X125750000Y-111400000D02*
X128250000Y-113900000D01*
X128250000Y-116850000D02*
X127200000Y-117900000D01*
X125125000Y-108775000D02*
X125625000Y-108275000D01*
%TO.N,Net-(D5-A)*%
X130250000Y-104400000D02*
X130250000Y-102250000D01*
X130750000Y-104900000D02*
X130250000Y-104400000D01*
X132875000Y-107025000D02*
X132875000Y-110725000D01*
X130250000Y-102250000D02*
X130750000Y-101750000D01*
X132875000Y-110725000D02*
X132200000Y-111400000D01*
X132200000Y-101750000D02*
X130750000Y-101750000D01*
X130750000Y-104900000D02*
X132875000Y-107025000D01*
%TO.N,Net-(D4-A)*%
X131250000Y-98750000D02*
X132875000Y-100375000D01*
X132875000Y-104225000D02*
X132200000Y-104900000D01*
X132875000Y-100375000D02*
X132875000Y-104225000D01*
%TO.N,Net-(D6-A)*%
X133250000Y-113900000D02*
X133250000Y-116850000D01*
X133250000Y-116850000D02*
X132200000Y-117900000D01*
X130125000Y-110925000D02*
X130125000Y-108775000D01*
X130625000Y-111425000D02*
X130125000Y-110925000D01*
X130125000Y-108775000D02*
X130625000Y-108275000D01*
X130750000Y-111400000D02*
X133250000Y-113900000D01*
X132075000Y-108275000D02*
X130625000Y-108275000D01*
%TO.N,Net-(D8-A)*%
X135750000Y-104900000D02*
X137875000Y-107025000D01*
X137200000Y-101750000D02*
X135750000Y-101750000D01*
X137875000Y-110725000D02*
X137200000Y-111400000D01*
X137875000Y-107025000D02*
X137875000Y-110725000D01*
X135250000Y-102250000D02*
X135250000Y-104400000D01*
X135750000Y-101750000D02*
X135250000Y-102250000D01*
X135250000Y-104400000D02*
X135750000Y-104900000D01*
%TO.N,Net-(D7-A)*%
X136250000Y-98750000D02*
X137875000Y-100375000D01*
X137875000Y-100375000D02*
X137875000Y-104225000D01*
X137875000Y-104225000D02*
X137200000Y-104900000D01*
%TO.N,Net-(D9-A)*%
X138250000Y-116850000D02*
X137200000Y-117900000D01*
X135125000Y-110925000D02*
X135125000Y-108775000D01*
X135625000Y-111425000D02*
X135125000Y-110925000D01*
X135125000Y-108775000D02*
X135625000Y-108275000D01*
X135750000Y-111400000D02*
X138250000Y-113900000D01*
X138250000Y-113900000D02*
X138250000Y-116850000D01*
X137075000Y-108275000D02*
X135625000Y-108275000D01*
%TO.N,Net-(D10-A)*%
X141250000Y-98750000D02*
X142875000Y-100375000D01*
X142875000Y-100375000D02*
X142875000Y-104225000D01*
X142875000Y-104225000D02*
X142200000Y-104900000D01*
%TO.N,Net-(D11-A)*%
X142875000Y-110725000D02*
X142200000Y-111400000D01*
X140250000Y-104400000D02*
X140250000Y-102250000D01*
X140750000Y-104900000D02*
X140250000Y-104400000D01*
X140250000Y-102250000D02*
X140750000Y-101750000D01*
X142875000Y-107025000D02*
X142875000Y-110725000D01*
X140750000Y-104900000D02*
X142875000Y-107025000D01*
X142200000Y-101750000D02*
X140750000Y-101750000D01*
%TO.N,Net-(D12-A)*%
X140125000Y-110925000D02*
X140125000Y-108775000D01*
X143250000Y-116850000D02*
X142200000Y-117900000D01*
X140125000Y-108775000D02*
X140625000Y-108275000D01*
X142075000Y-108275000D02*
X140625000Y-108275000D01*
X140625000Y-111425000D02*
X140125000Y-110925000D01*
X140750000Y-111400000D02*
X143250000Y-113900000D01*
X143250000Y-113900000D02*
X143250000Y-116850000D01*
%TO.N,Net-(D14-A)*%
X148250000Y-107400000D02*
X148250000Y-110350000D01*
X145250000Y-102250000D02*
X145750000Y-101750000D01*
X145750000Y-104900000D02*
X148250000Y-107400000D01*
X147200000Y-101750000D02*
X145750000Y-101750000D01*
X148250000Y-110350000D02*
X147200000Y-111400000D01*
X145750000Y-104900000D02*
X145250000Y-104400000D01*
X145250000Y-104400000D02*
X145250000Y-102250000D01*
%TO.N,Net-(D13-A)*%
X146250000Y-98750000D02*
X147875000Y-100375000D01*
X147875000Y-104225000D02*
X147200000Y-104900000D01*
X147875000Y-100375000D02*
X147875000Y-104225000D01*
%TO.N,Net-(D15-A)*%
X145750000Y-111400000D02*
X148250000Y-113900000D01*
X147075000Y-108275000D02*
X145625000Y-108275000D01*
X145625000Y-111425000D02*
X145125000Y-110925000D01*
X148250000Y-113900000D02*
X148250000Y-116850000D01*
X148250000Y-116850000D02*
X147200000Y-117900000D01*
X145125000Y-108775000D02*
X145625000Y-108275000D01*
X145125000Y-110925000D02*
X145125000Y-108775000D01*
%TO.N,Net-(D16-A)*%
X152875000Y-104225000D02*
X152200000Y-104900000D01*
X152875000Y-100375000D02*
X152875000Y-104225000D01*
X151250000Y-98750000D02*
X152875000Y-100375000D01*
%TO.N,Net-(D17-A)*%
X150750000Y-104900000D02*
X153250000Y-107400000D01*
X152200000Y-101750000D02*
X150750000Y-101750000D01*
X153250000Y-110350000D02*
X152200000Y-111400000D01*
X150250000Y-104400000D02*
X150750000Y-104900000D01*
X150250000Y-102250000D02*
X150250000Y-104400000D01*
X153250000Y-107400000D02*
X153250000Y-110350000D01*
X150750000Y-101750000D02*
X150250000Y-102250000D01*
%TO.N,Net-(D18-A)*%
X150250000Y-110900000D02*
X150750000Y-111400000D01*
X152200000Y-117900000D02*
X153250000Y-116850000D01*
X150750000Y-108250000D02*
X152200000Y-108250000D01*
X150750000Y-108250000D02*
X150250000Y-108750000D01*
X150250000Y-108750000D02*
X150250000Y-110900000D01*
X153250000Y-116850000D02*
X153250000Y-113900000D01*
X153250000Y-113900000D02*
X150750000Y-111400000D01*
%TO.N,Net-(D19-A)*%
X156250000Y-98750000D02*
X157875000Y-100375000D01*
X157875000Y-100375000D02*
X157875000Y-104225000D01*
X157875000Y-104225000D02*
X157200000Y-104900000D01*
%TO.N,Net-(D20-A)*%
X155250000Y-102250000D02*
X155250000Y-104400000D01*
X157875000Y-107025000D02*
X157875000Y-110725000D01*
X157875000Y-110725000D02*
X157200000Y-111400000D01*
X155750000Y-101750000D02*
X157200000Y-101750000D01*
X155750000Y-101750000D02*
X155250000Y-102250000D01*
X155250000Y-104400000D02*
X155750000Y-104900000D01*
X155750000Y-104900000D02*
X157875000Y-107025000D01*
%TO.N,Net-(D21-A)*%
X155250000Y-110900000D02*
X155750000Y-111400000D01*
X158250000Y-116850000D02*
X158250000Y-113900000D01*
X157200000Y-117900000D02*
X158250000Y-116850000D01*
X155750000Y-108250000D02*
X155250000Y-108750000D01*
X155250000Y-108750000D02*
X155250000Y-110900000D01*
X158250000Y-113900000D02*
X155750000Y-111400000D01*
X155750000Y-108250000D02*
X157200000Y-108250000D01*
%TO.N,Net-(D22-A)*%
X162925000Y-104225000D02*
X162250000Y-104900000D01*
X162925000Y-100425000D02*
X162925000Y-104225000D01*
X161250000Y-98750000D02*
X162925000Y-100425000D01*
%TO.N,Net-(D23-A)*%
X162875000Y-106975000D02*
X162875000Y-110725000D01*
X162875000Y-110725000D02*
X162200000Y-111400000D01*
X160800000Y-104900000D02*
X162875000Y-106975000D01*
X160250000Y-104350000D02*
X160250000Y-102300000D01*
X160800000Y-104900000D02*
X160250000Y-104350000D01*
X162250000Y-101750000D02*
X160800000Y-101750000D01*
X160250000Y-102300000D02*
X160800000Y-101750000D01*
%TO.N,Net-(D24-A)*%
X163250000Y-113900000D02*
X163250000Y-116850000D01*
X160125000Y-110925000D02*
X160125000Y-108775000D01*
X160125000Y-108775000D02*
X160625000Y-108275000D01*
X162075000Y-108275000D02*
X160625000Y-108275000D01*
X160625000Y-111425000D02*
X160125000Y-110925000D01*
X160750000Y-111400000D02*
X163250000Y-113900000D01*
X163250000Y-116850000D02*
X162200000Y-117900000D01*
%TO.N,Net-(D26-A)*%
X167925000Y-107025000D02*
X167925000Y-110725000D01*
X167925000Y-110725000D02*
X167250000Y-111400000D01*
X167250000Y-101750000D02*
X165800000Y-101750000D01*
X165800000Y-104900000D02*
X165250000Y-104350000D01*
X165250000Y-104350000D02*
X165250000Y-102300000D01*
X165250000Y-102300000D02*
X165800000Y-101750000D01*
X165800000Y-104900000D02*
X167925000Y-107025000D01*
%TO.N,Net-(D25-A)*%
X167925000Y-100425000D02*
X167925000Y-104225000D01*
X166250000Y-98750000D02*
X167925000Y-100425000D01*
X167925000Y-104225000D02*
X167250000Y-104900000D01*
%TO.N,Net-(D27-A)*%
X167075000Y-108275000D02*
X165625000Y-108275000D01*
X165800000Y-111400000D02*
X168250000Y-113850000D01*
X168250000Y-113850000D02*
X168250000Y-116850000D01*
X165625000Y-111425000D02*
X165125000Y-110925000D01*
X165125000Y-110925000D02*
X165125000Y-108775000D01*
X168250000Y-116850000D02*
X167200000Y-117900000D01*
X165125000Y-108775000D02*
X165625000Y-108275000D01*
%TO.N,Net-(D29-A)*%
X172200000Y-101750000D02*
X170750000Y-101750000D01*
X170250000Y-104400000D02*
X170750000Y-104900000D01*
X170250000Y-102250000D02*
X170250000Y-104400000D01*
X172875000Y-107025000D02*
X172875000Y-110725000D01*
X172875000Y-110725000D02*
X172200000Y-111400000D01*
X170750000Y-104900000D02*
X172875000Y-107025000D01*
X170750000Y-101750000D02*
X170250000Y-102250000D01*
%TO.N,Net-(D28-A)*%
X172875000Y-104225000D02*
X172200000Y-104900000D01*
X172875000Y-100375000D02*
X172875000Y-104225000D01*
X171250000Y-98750000D02*
X172875000Y-100375000D01*
%TO.N,Net-(D30-A)*%
X170750000Y-111400000D02*
X173250000Y-113900000D01*
X170750000Y-108250000D02*
X170250000Y-108750000D01*
X170250000Y-108750000D02*
X170250000Y-110900000D01*
X173250000Y-116900000D02*
X172250000Y-117900000D01*
X170250000Y-110900000D02*
X170750000Y-111400000D01*
X170750000Y-108250000D02*
X172200000Y-108250000D01*
X173250000Y-113900000D02*
X173250000Y-116900000D01*
%TO.N,Net-(D32-A)*%
X177200000Y-101750000D02*
X175750000Y-101750000D01*
X177875000Y-110725000D02*
X177200000Y-111400000D01*
X175750000Y-101750000D02*
X175250000Y-102250000D01*
X175250000Y-104400000D02*
X175750000Y-104900000D01*
X175750000Y-104900000D02*
X177875000Y-107025000D01*
X175250000Y-102250000D02*
X175250000Y-104400000D01*
X177875000Y-107025000D02*
X177875000Y-110725000D01*
%TO.N,Net-(D31-A)*%
X177875000Y-100375000D02*
X177875000Y-104225000D01*
X176250000Y-98750000D02*
X177875000Y-100375000D01*
X177875000Y-104225000D02*
X177200000Y-104900000D01*
%TO.N,Net-(D33-A)*%
X175750000Y-108250000D02*
X175750000Y-111400000D01*
X178250000Y-113900000D02*
X178250000Y-116850000D01*
X178250000Y-116850000D02*
X177200000Y-117900000D01*
X175750000Y-111400000D02*
X178250000Y-113900000D01*
X177200000Y-108250000D02*
X175750000Y-108250000D01*
%TO.N,Net-(D35-A)*%
X182875000Y-110725000D02*
X182200000Y-111400000D01*
X180750000Y-104900000D02*
X182875000Y-107025000D01*
X182875000Y-107025000D02*
X182875000Y-110725000D01*
X180250000Y-104400000D02*
X180250000Y-102250000D01*
X182200000Y-101750000D02*
X180750000Y-101750000D01*
X180250000Y-102250000D02*
X180750000Y-101750000D01*
X180750000Y-104900000D02*
X180250000Y-104400000D01*
%TO.N,Net-(D34-A)*%
X182875000Y-104225000D02*
X182200000Y-104900000D01*
X182875000Y-100375000D02*
X182875000Y-104225000D01*
X181250000Y-98750000D02*
X182875000Y-100375000D01*
%TO.N,Net-(D36-A)*%
X183250000Y-116850000D02*
X182200000Y-117900000D01*
X182075000Y-108275000D02*
X180625000Y-108275000D01*
X180750000Y-111400000D02*
X183250000Y-113900000D01*
X180125000Y-108775000D02*
X180625000Y-108275000D01*
X180625000Y-111425000D02*
X180125000Y-110925000D01*
X180125000Y-110925000D02*
X180125000Y-108775000D01*
X183250000Y-113900000D02*
X183250000Y-116850000D01*
%TO.N,Net-(D38-A)*%
X185580755Y-101750000D02*
X187030755Y-101750000D01*
X185250000Y-104569245D02*
X185250000Y-102080755D01*
X187750000Y-110750000D02*
X187750000Y-107069245D01*
X187750000Y-110750000D02*
X187075000Y-111425000D01*
X185580755Y-104900000D02*
X185250000Y-104569245D01*
X185250000Y-102080755D02*
X185580755Y-101750000D01*
X187750000Y-107069245D02*
X185580755Y-104900000D01*
%TO.N,Net-(D37-A)*%
X186251174Y-98750000D02*
X187705755Y-100204581D01*
X187705755Y-100204581D02*
X187705755Y-104225000D01*
X187705755Y-104225000D02*
X187030755Y-104900000D01*
%TO.N,Net-(D39-A)*%
X185125000Y-110925000D02*
X185125000Y-108775000D01*
X188250000Y-114069245D02*
X188250000Y-116680755D01*
X185125000Y-108775000D02*
X185625000Y-108275000D01*
X185625000Y-111425000D02*
X185125000Y-110925000D01*
X185580755Y-111400000D02*
X188250000Y-114069245D01*
X187075000Y-108275000D02*
X185625000Y-108275000D01*
X188250000Y-116680755D02*
X187030755Y-117900000D01*
%TO.N,Net-(D41-A)*%
X192150000Y-101750000D02*
X190700000Y-101750000D01*
X192825000Y-110675000D02*
X192825000Y-107025000D01*
X192825000Y-107025000D02*
X190700000Y-104900000D01*
X190250000Y-102200000D02*
X190250000Y-104450000D01*
X190250000Y-104450000D02*
X190700000Y-104900000D01*
X192075000Y-111425000D02*
X192825000Y-110675000D01*
X190700000Y-101750000D02*
X190250000Y-102200000D01*
%TO.N,Net-(D40-A)*%
X192825000Y-104225000D02*
X192150000Y-104900000D01*
X191200000Y-98750000D02*
X192825000Y-100375000D01*
X192825000Y-100375000D02*
X192825000Y-104225000D01*
%TO.N,Net-(D42-A)*%
X192075000Y-108275000D02*
X190625000Y-108275000D01*
X190125000Y-110925000D02*
X190125000Y-108775000D01*
X190125000Y-108775000D02*
X190625000Y-108275000D01*
X190625000Y-111425000D02*
X190125000Y-110925000D01*
X193250000Y-116800000D02*
X192150000Y-117900000D01*
X190700000Y-111400000D02*
X193250000Y-113950000D01*
X193250000Y-113950000D02*
X193250000Y-116800000D01*
%TO.N,/RTDS_SIGNAL*%
X121965544Y-106142228D02*
X122000000Y-106176684D01*
X122000000Y-106176684D02*
X122000000Y-113065686D01*
X119928086Y-115137600D02*
X119700001Y-115137600D01*
X122000000Y-113065686D02*
X119928086Y-115137600D01*
%TD*%
%TA.AperFunction,Conductor*%
%TO.N,GND*%
G36*
X93344455Y-108708301D02*
G01*
X93344677Y-108707473D01*
X93349503Y-108708765D01*
X93350829Y-108708888D01*
X93352526Y-108709575D01*
X93352530Y-108709577D01*
X93393446Y-108720539D01*
X93393450Y-108720542D01*
X93393451Y-108720541D01*
X93505256Y-108750501D01*
X93670966Y-108750501D01*
X93670982Y-108750500D01*
X95510624Y-108750500D01*
X95577663Y-108770185D01*
X95623418Y-108822989D01*
X95633982Y-108887103D01*
X95625000Y-108975013D01*
X95625000Y-109250000D01*
X96588500Y-109250000D01*
X96655539Y-109269685D01*
X96701294Y-109322489D01*
X96712500Y-109374000D01*
X96712500Y-109500000D01*
X96838500Y-109500000D01*
X96905539Y-109519685D01*
X96951294Y-109572489D01*
X96962500Y-109624000D01*
X96962500Y-110724999D01*
X97099972Y-110724999D01*
X97099986Y-110724998D01*
X97202697Y-110714505D01*
X97369119Y-110659358D01*
X97369124Y-110659356D01*
X97518345Y-110567315D01*
X97642318Y-110443342D01*
X97644165Y-110440348D01*
X97645969Y-110438724D01*
X97646798Y-110437677D01*
X97646976Y-110437818D01*
X97696110Y-110393621D01*
X97765073Y-110382396D01*
X97829156Y-110410236D01*
X97855243Y-110440341D01*
X97857288Y-110443656D01*
X97857289Y-110443657D01*
X97910987Y-110497355D01*
X97944472Y-110558678D01*
X97939488Y-110628370D01*
X97910987Y-110672717D01*
X96890023Y-111693681D01*
X96828700Y-111727166D01*
X96802342Y-111730000D01*
X93831800Y-111730000D01*
X93831800Y-111807244D01*
X93838201Y-111866772D01*
X93838203Y-111866779D01*
X93881240Y-111982167D01*
X93886224Y-112051858D01*
X93852739Y-112113182D01*
X93791416Y-112146666D01*
X93765058Y-112149500D01*
X93480952Y-112149500D01*
X93413913Y-112129815D01*
X93368158Y-112077011D01*
X93358214Y-112007853D01*
X93363248Y-111986492D01*
X93364504Y-111982701D01*
X93364506Y-111982690D01*
X93374999Y-111879986D01*
X93375000Y-111879973D01*
X93375000Y-111742500D01*
X92274000Y-111742500D01*
X92206961Y-111722815D01*
X92161206Y-111670011D01*
X92150000Y-111618500D01*
X92150000Y-111366500D01*
X92169685Y-111299461D01*
X92222489Y-111253706D01*
X92274000Y-111242500D01*
X93374999Y-111242500D01*
X93374999Y-111152755D01*
X93831800Y-111152755D01*
X93831800Y-111230000D01*
X95072400Y-111230000D01*
X95072400Y-110700600D01*
X95572400Y-110700600D01*
X95572400Y-111230000D01*
X96813000Y-111230000D01*
X96813000Y-111152772D01*
X96812999Y-111152755D01*
X96806598Y-111093227D01*
X96806596Y-111093220D01*
X96756354Y-110958513D01*
X96756352Y-110958510D01*
X96678865Y-110855000D01*
X96586500Y-110855000D01*
X96519461Y-110835315D01*
X96473706Y-110782511D01*
X96462500Y-110731000D01*
X96462500Y-109750000D01*
X95625001Y-109750000D01*
X95625001Y-110024986D01*
X95635494Y-110127697D01*
X95690641Y-110294119D01*
X95690643Y-110294124D01*
X95782684Y-110443345D01*
X95828258Y-110488919D01*
X95861743Y-110550242D01*
X95856759Y-110619934D01*
X95814887Y-110675867D01*
X95749423Y-110700284D01*
X95740577Y-110700600D01*
X95572400Y-110700600D01*
X95072400Y-110700600D01*
X94283955Y-110700600D01*
X94224427Y-110707001D01*
X94224420Y-110707003D01*
X94089713Y-110757245D01*
X94089706Y-110757249D01*
X93974612Y-110843409D01*
X93974609Y-110843412D01*
X93888449Y-110958506D01*
X93888445Y-110958513D01*
X93838203Y-111093220D01*
X93838201Y-111093227D01*
X93831800Y-111152755D01*
X93374999Y-111152755D01*
X93374999Y-111105028D01*
X93374998Y-111105013D01*
X93364505Y-111002302D01*
X93309358Y-110835880D01*
X93309356Y-110835875D01*
X93217315Y-110686654D01*
X93093345Y-110562684D01*
X92949309Y-110473842D01*
X92902585Y-110421894D01*
X92891362Y-110352931D01*
X92909413Y-110302330D01*
X92910815Y-110300100D01*
X92960695Y-110220716D01*
X93020274Y-110050449D01*
X93020336Y-110049902D01*
X93040471Y-109871197D01*
X93040471Y-109871190D01*
X93020081Y-109690220D01*
X93032136Y-109621398D01*
X93046356Y-109599021D01*
X93049497Y-109595083D01*
X93145469Y-109442344D01*
X93205048Y-109272077D01*
X93207281Y-109252262D01*
X93225245Y-109092825D01*
X93225245Y-109092818D01*
X93205049Y-108913572D01*
X93205047Y-108913562D01*
X93188095Y-108865118D01*
X93184532Y-108795339D01*
X93219261Y-108734711D01*
X93281254Y-108702484D01*
X93344455Y-108708301D01*
G37*
%TD.AperFunction*%
%TA.AperFunction,Conductor*%
G36*
X110148034Y-109688732D02*
G01*
X110193789Y-109741536D01*
X110203733Y-109810694D01*
X110174708Y-109874250D01*
X110168676Y-109880728D01*
X109842655Y-110206748D01*
X109816974Y-110226454D01*
X109796210Y-110238442D01*
X109728309Y-110254915D01*
X109719425Y-110254170D01*
X109650000Y-110245832D01*
X109650000Y-110270023D01*
X109630315Y-110337062D01*
X109600927Y-110368826D01*
X109557076Y-110402079D01*
X109557074Y-110402082D01*
X109472804Y-110513209D01*
X109416611Y-110554733D01*
X109346890Y-110559284D01*
X109285776Y-110525419D01*
X109252672Y-110463889D01*
X109250000Y-110438284D01*
X109250000Y-110245832D01*
X109168557Y-110255613D01*
X109168556Y-110255613D01*
X109027904Y-110311079D01*
X108907435Y-110402435D01*
X108816079Y-110522904D01*
X108760613Y-110663556D01*
X108750000Y-110751946D01*
X108750000Y-111140000D01*
X109275500Y-111140000D01*
X109342539Y-111159685D01*
X109388294Y-111212489D01*
X109399500Y-111264000D01*
X109399500Y-111416000D01*
X109379815Y-111483039D01*
X109327011Y-111528794D01*
X109275500Y-111540000D01*
X108750000Y-111540000D01*
X108750000Y-111640500D01*
X108730315Y-111707539D01*
X108677511Y-111753294D01*
X108626000Y-111764500D01*
X107805939Y-111764500D01*
X107805659Y-111764576D01*
X107805413Y-111764570D01*
X107797888Y-111765561D01*
X107797733Y-111764386D01*
X107735809Y-111762908D01*
X107677950Y-111723742D01*
X107650450Y-111659511D01*
X107655867Y-111605798D01*
X107689999Y-111502797D01*
X107700500Y-111400009D01*
X107700499Y-110700096D01*
X107720183Y-110633058D01*
X107736813Y-110612421D01*
X108643870Y-109705366D01*
X108705193Y-109671881D01*
X108731551Y-109669047D01*
X110080995Y-109669047D01*
X110148034Y-109688732D01*
G37*
%TD.AperFunction*%
%TA.AperFunction,Conductor*%
G36*
X114519334Y-110965258D02*
G01*
X114575267Y-111007130D01*
X114599684Y-111072594D01*
X114600000Y-111081440D01*
X114600000Y-111100000D01*
X115125500Y-111100000D01*
X115192539Y-111119685D01*
X115238294Y-111172489D01*
X115249500Y-111224000D01*
X115249500Y-111376000D01*
X115229815Y-111443039D01*
X115177011Y-111488794D01*
X115125500Y-111500000D01*
X114600000Y-111500000D01*
X114589815Y-111510184D01*
X114580315Y-111542539D01*
X114527511Y-111588294D01*
X114476000Y-111599500D01*
X114274500Y-111599500D01*
X114207461Y-111579815D01*
X114161706Y-111527011D01*
X114150500Y-111475500D01*
X114150499Y-111214351D01*
X114170183Y-111147312D01*
X114220697Y-111102631D01*
X114224514Y-111100791D01*
X114224522Y-111100789D01*
X114377262Y-111004816D01*
X114388319Y-110993759D01*
X114449642Y-110960274D01*
X114519334Y-110965258D01*
G37*
%TD.AperFunction*%
%TA.AperFunction,Conductor*%
G36*
X115293598Y-109439452D02*
G01*
X115338813Y-109492720D01*
X115349499Y-109543079D01*
X115349499Y-109704732D01*
X115349500Y-109704745D01*
X115349500Y-110396306D01*
X115329815Y-110463345D01*
X115324303Y-110471232D01*
X115322803Y-110473210D01*
X115266610Y-110514733D01*
X115196889Y-110519284D01*
X115135775Y-110485418D01*
X115102672Y-110423888D01*
X115100000Y-110398284D01*
X115100000Y-110205832D01*
X115018557Y-110215613D01*
X115018556Y-110215613D01*
X114877903Y-110271080D01*
X114859041Y-110285383D01*
X114793728Y-110310203D01*
X114725365Y-110295773D01*
X114675656Y-110246673D01*
X114660898Y-110200451D01*
X114660368Y-110195745D01*
X114618918Y-110077288D01*
X114600789Y-110025478D01*
X114592252Y-110011892D01*
X114534199Y-109919501D01*
X114504816Y-109872738D01*
X114497241Y-109865163D01*
X114463756Y-109803840D01*
X114468740Y-109734148D01*
X114510612Y-109678215D01*
X114552822Y-109657710D01*
X114663238Y-109628124D01*
X114685802Y-109615096D01*
X114720437Y-109595100D01*
X114720444Y-109595095D01*
X114720464Y-109595084D01*
X114775944Y-109563052D01*
X114824059Y-109547220D01*
X114861195Y-109543036D01*
X114929249Y-109535369D01*
X114929252Y-109535368D01*
X114929255Y-109535368D01*
X115099522Y-109475789D01*
X115159526Y-109438086D01*
X115226763Y-109419085D01*
X115293598Y-109439452D01*
G37*
%TD.AperFunction*%
%TA.AperFunction,Conductor*%
G36*
X212692539Y-91270185D02*
G01*
X212738294Y-91322989D01*
X212749500Y-91374500D01*
X212749500Y-122625500D01*
X212729815Y-122692539D01*
X212677011Y-122738294D01*
X212625500Y-122749500D01*
X73874500Y-122749500D01*
X73807461Y-122729815D01*
X73761706Y-122677011D01*
X73750500Y-122625500D01*
X73750500Y-119913389D01*
X79609500Y-119913389D01*
X79609500Y-120086611D01*
X79616343Y-120129815D01*
X79632462Y-120231591D01*
X79636598Y-120257701D01*
X79690127Y-120422445D01*
X79768768Y-120576788D01*
X79870586Y-120716928D01*
X79993072Y-120839414D01*
X80133212Y-120941232D01*
X80287555Y-121019873D01*
X80452299Y-121073402D01*
X80623389Y-121100500D01*
X80623390Y-121100500D01*
X80796610Y-121100500D01*
X80796611Y-121100500D01*
X80967701Y-121073402D01*
X81132445Y-121019873D01*
X81286788Y-120941232D01*
X81426928Y-120839414D01*
X81549414Y-120716928D01*
X81651232Y-120576788D01*
X81729873Y-120422445D01*
X81783402Y-120257701D01*
X81810500Y-120086611D01*
X81810500Y-119913389D01*
X81783402Y-119742299D01*
X81729873Y-119577555D01*
X81651232Y-119423212D01*
X81549414Y-119283072D01*
X81426928Y-119160586D01*
X81286788Y-119058768D01*
X81132445Y-118980127D01*
X80967701Y-118926598D01*
X80967699Y-118926597D01*
X80967698Y-118926597D01*
X80826721Y-118904269D01*
X80796611Y-118899500D01*
X80623389Y-118899500D01*
X80593279Y-118904269D01*
X80452302Y-118926597D01*
X80452299Y-118926598D01*
X80301802Y-118975498D01*
X80287552Y-118980128D01*
X80133211Y-119058768D01*
X80054508Y-119115950D01*
X79993072Y-119160586D01*
X79993070Y-119160588D01*
X79993069Y-119160588D01*
X79870588Y-119283069D01*
X79870588Y-119283070D01*
X79870586Y-119283072D01*
X79838662Y-119327011D01*
X79768768Y-119423211D01*
X79690128Y-119577552D01*
X79636597Y-119742302D01*
X79617682Y-119861728D01*
X79609500Y-119913389D01*
X73750500Y-119913389D01*
X73750500Y-112413389D01*
X79609500Y-112413389D01*
X79609500Y-112586611D01*
X79636598Y-112757701D01*
X79690127Y-112922445D01*
X79768768Y-113076788D01*
X79870586Y-113216928D01*
X79993072Y-113339414D01*
X80133212Y-113441232D01*
X80287555Y-113519873D01*
X80452299Y-113573402D01*
X80623389Y-113600500D01*
X80623390Y-113600500D01*
X80796610Y-113600500D01*
X80796611Y-113600500D01*
X80967701Y-113573402D01*
X81132445Y-113519873D01*
X81286788Y-113441232D01*
X81426928Y-113339414D01*
X81549414Y-113216928D01*
X81651232Y-113076788D01*
X81729873Y-112922445D01*
X81783402Y-112757701D01*
X81810500Y-112586611D01*
X81810500Y-112413389D01*
X81783402Y-112242299D01*
X81729873Y-112077555D01*
X81651232Y-111923212D01*
X81549414Y-111783072D01*
X81426928Y-111660586D01*
X81286788Y-111558768D01*
X81132445Y-111480127D01*
X80967701Y-111426598D01*
X80967699Y-111426597D01*
X80967698Y-111426597D01*
X80834620Y-111405520D01*
X80796611Y-111399500D01*
X80623389Y-111399500D01*
X80585380Y-111405520D01*
X80452302Y-111426597D01*
X80287552Y-111480128D01*
X80133211Y-111558768D01*
X80104243Y-111579815D01*
X79993072Y-111660586D01*
X79993070Y-111660588D01*
X79993069Y-111660588D01*
X79870588Y-111783069D01*
X79870588Y-111783070D01*
X79870586Y-111783072D01*
X79826859Y-111843256D01*
X79768768Y-111923211D01*
X79690128Y-112077552D01*
X79690127Y-112077554D01*
X79690127Y-112077555D01*
X79686393Y-112089046D01*
X79636597Y-112242302D01*
X79615592Y-112374926D01*
X79609500Y-112413389D01*
X73750500Y-112413389D01*
X73750500Y-106163389D01*
X79469500Y-106163389D01*
X79469500Y-106336610D01*
X79494503Y-106494478D01*
X79496598Y-106507701D01*
X79542840Y-106650019D01*
X79550128Y-106672447D01*
X79579513Y-106730119D01*
X79628768Y-106826788D01*
X79730586Y-106966928D01*
X79853072Y-107089414D01*
X79993212Y-107191232D01*
X80147555Y-107269873D01*
X80312299Y-107323402D01*
X80483389Y-107350500D01*
X80483390Y-107350500D01*
X80656610Y-107350500D01*
X80656611Y-107350500D01*
X80827701Y-107323402D01*
X80992445Y-107269873D01*
X81146788Y-107191232D01*
X81286928Y-107089414D01*
X81409414Y-106966928D01*
X81511232Y-106826788D01*
X81589873Y-106672445D01*
X81643402Y-106507701D01*
X81670500Y-106336611D01*
X81670500Y-106163389D01*
X81643402Y-105992299D01*
X81589873Y-105827555D01*
X81511232Y-105673212D01*
X81409414Y-105533072D01*
X81286928Y-105410586D01*
X81146788Y-105308768D01*
X80992445Y-105230127D01*
X80827701Y-105176598D01*
X80827699Y-105176597D01*
X80827698Y-105176597D01*
X80696271Y-105155781D01*
X80656611Y-105149500D01*
X80483389Y-105149500D01*
X80443728Y-105155781D01*
X80312302Y-105176597D01*
X80147552Y-105230128D01*
X79993211Y-105308768D01*
X79927019Y-105356860D01*
X79853072Y-105410586D01*
X79853070Y-105410588D01*
X79853069Y-105410588D01*
X79730588Y-105533069D01*
X79730588Y-105533070D01*
X79730586Y-105533072D01*
X79694687Y-105582483D01*
X79628768Y-105673211D01*
X79550128Y-105827552D01*
X79550127Y-105827554D01*
X79550127Y-105827555D01*
X79496598Y-105992299D01*
X79492463Y-106018409D01*
X79469500Y-106163389D01*
X73750500Y-106163389D01*
X73750500Y-101163389D01*
X79469500Y-101163389D01*
X79469500Y-101336611D01*
X79473641Y-101362754D01*
X79493427Y-101487684D01*
X79496598Y-101507701D01*
X79550127Y-101672445D01*
X79628768Y-101826788D01*
X79730586Y-101966928D01*
X79853072Y-102089414D01*
X79993212Y-102191232D01*
X80147555Y-102269873D01*
X80312299Y-102323402D01*
X80483389Y-102350500D01*
X80483390Y-102350500D01*
X80656610Y-102350500D01*
X80656611Y-102350500D01*
X80827701Y-102323402D01*
X80992445Y-102269873D01*
X81146788Y-102191232D01*
X81286928Y-102089414D01*
X81409414Y-101966928D01*
X81511232Y-101826788D01*
X81589873Y-101672445D01*
X81643402Y-101507701D01*
X81670500Y-101336611D01*
X81670500Y-101163389D01*
X81667384Y-101143713D01*
X86149500Y-101143713D01*
X86149500Y-101356286D01*
X86182198Y-101562736D01*
X86182754Y-101566243D01*
X86234305Y-101724901D01*
X86248444Y-101768414D01*
X86344951Y-101957820D01*
X86469890Y-102129786D01*
X86620209Y-102280105D01*
X86620214Y-102280109D01*
X86784793Y-102399682D01*
X86827459Y-102455011D01*
X86833438Y-102524625D01*
X86800833Y-102586420D01*
X86784793Y-102600318D01*
X86620214Y-102719890D01*
X86620209Y-102719894D01*
X86469890Y-102870213D01*
X86344951Y-103042179D01*
X86248444Y-103231585D01*
X86182753Y-103433760D01*
X86172857Y-103496243D01*
X86149500Y-103643713D01*
X86149500Y-103856287D01*
X86159534Y-103919644D01*
X86182305Y-104063412D01*
X86182754Y-104066243D01*
X86244716Y-104256943D01*
X86248444Y-104268414D01*
X86344951Y-104457820D01*
X86469890Y-104629786D01*
X86609068Y-104768964D01*
X86642553Y-104830287D01*
X86637569Y-104899979D01*
X86595697Y-104955912D01*
X86586484Y-104962183D01*
X86431659Y-105057680D01*
X86431655Y-105057683D01*
X86307684Y-105181654D01*
X86215643Y-105330875D01*
X86215641Y-105330880D01*
X86160494Y-105497302D01*
X86160493Y-105497309D01*
X86150000Y-105600013D01*
X86150000Y-106000000D01*
X87201518Y-106000000D01*
X87190889Y-106018409D01*
X87150000Y-106171009D01*
X87150000Y-106328991D01*
X87190889Y-106481591D01*
X87201518Y-106500000D01*
X86150001Y-106500000D01*
X86150001Y-106899986D01*
X86160494Y-107002697D01*
X86215641Y-107169119D01*
X86215643Y-107169124D01*
X86307684Y-107318345D01*
X86431654Y-107442315D01*
X86580875Y-107534356D01*
X86580880Y-107534358D01*
X86747302Y-107589505D01*
X86747309Y-107589506D01*
X86850019Y-107599999D01*
X87499999Y-107599999D01*
X87500000Y-107599998D01*
X87500000Y-106798482D01*
X87518409Y-106809111D01*
X87671009Y-106850000D01*
X87828991Y-106850000D01*
X87981591Y-106809111D01*
X88000000Y-106798482D01*
X88000000Y-107599999D01*
X88649972Y-107599999D01*
X88649986Y-107599998D01*
X88752697Y-107589505D01*
X88919119Y-107534358D01*
X88919124Y-107534356D01*
X89068345Y-107442315D01*
X89192315Y-107318345D01*
X89284356Y-107169124D01*
X89284358Y-107169119D01*
X89339505Y-107002697D01*
X89339506Y-107002690D01*
X89349999Y-106899986D01*
X89350000Y-106899973D01*
X89350000Y-106500000D01*
X88298482Y-106500000D01*
X88309111Y-106481591D01*
X88350000Y-106328991D01*
X88350000Y-106171009D01*
X88309111Y-106018409D01*
X88298482Y-106000000D01*
X89349999Y-106000000D01*
X89349999Y-105600028D01*
X89349998Y-105600013D01*
X89339506Y-105497304D01*
X89300018Y-105378140D01*
X89297616Y-105308311D01*
X89333347Y-105248269D01*
X89395868Y-105217076D01*
X89465327Y-105224636D01*
X89505405Y-105251454D01*
X91721228Y-107467277D01*
X91754713Y-107528600D01*
X91749729Y-107598292D01*
X91707857Y-107654225D01*
X91699520Y-107659951D01*
X91562547Y-107746018D01*
X91562544Y-107746020D01*
X91434991Y-107873573D01*
X91339017Y-108026314D01*
X91279437Y-108196586D01*
X91269644Y-108283504D01*
X91242577Y-108347918D01*
X91234105Y-108357301D01*
X88459835Y-111131571D01*
X88398512Y-111165056D01*
X88352756Y-111166363D01*
X88284302Y-111155521D01*
X88246287Y-111149500D01*
X87533713Y-111149500D01*
X87495698Y-111155521D01*
X87323760Y-111182753D01*
X87121585Y-111248444D01*
X86932179Y-111344951D01*
X86760213Y-111469890D01*
X86609890Y-111620213D01*
X86484951Y-111792179D01*
X86388444Y-111981585D01*
X86322753Y-112183760D01*
X86307181Y-112282078D01*
X86289500Y-112393713D01*
X86289500Y-112606287D01*
X86293557Y-112631903D01*
X86320260Y-112800500D01*
X86322754Y-112816243D01*
X86387968Y-113016951D01*
X86388444Y-113018414D01*
X86484951Y-113207820D01*
X86609890Y-113379786D01*
X86760209Y-113530105D01*
X86760214Y-113530109D01*
X86924793Y-113649682D01*
X86967459Y-113705011D01*
X86973438Y-113774625D01*
X86940833Y-113836420D01*
X86924793Y-113850318D01*
X86760214Y-113969890D01*
X86760209Y-113969894D01*
X86609890Y-114120213D01*
X86484951Y-114292179D01*
X86388444Y-114481585D01*
X86322753Y-114683760D01*
X86289500Y-114893713D01*
X86289500Y-115106286D01*
X86318556Y-115289742D01*
X86322754Y-115316243D01*
X86385262Y-115508623D01*
X86388444Y-115518414D01*
X86484951Y-115707820D01*
X86609890Y-115879786D01*
X86760209Y-116030105D01*
X86760214Y-116030109D01*
X86924793Y-116149682D01*
X86967459Y-116205011D01*
X86973438Y-116274625D01*
X86940833Y-116336420D01*
X86924793Y-116350318D01*
X86760214Y-116469890D01*
X86760209Y-116469894D01*
X86609890Y-116620213D01*
X86484951Y-116792179D01*
X86388444Y-116981585D01*
X86322753Y-117183760D01*
X86298121Y-117339283D01*
X86289500Y-117393713D01*
X86289500Y-117606287D01*
X86296344Y-117649498D01*
X86320860Y-117804289D01*
X86322754Y-117816243D01*
X86383184Y-118002228D01*
X86388444Y-118018414D01*
X86484951Y-118207820D01*
X86609890Y-118379786D01*
X86749068Y-118518964D01*
X86782553Y-118580287D01*
X86777569Y-118649979D01*
X86735697Y-118705912D01*
X86726484Y-118712183D01*
X86571659Y-118807680D01*
X86571655Y-118807683D01*
X86447684Y-118931654D01*
X86355643Y-119080875D01*
X86355641Y-119080880D01*
X86300494Y-119247302D01*
X86300493Y-119247309D01*
X86290000Y-119350013D01*
X86290000Y-119750000D01*
X87341518Y-119750000D01*
X87330889Y-119768409D01*
X87290000Y-119921009D01*
X87290000Y-120078991D01*
X87330889Y-120231591D01*
X87341518Y-120250000D01*
X86290001Y-120250000D01*
X86290001Y-120649986D01*
X86300494Y-120752697D01*
X86355641Y-120919119D01*
X86355643Y-120919124D01*
X86447684Y-121068345D01*
X86571654Y-121192315D01*
X86720875Y-121284356D01*
X86720880Y-121284358D01*
X86887302Y-121339505D01*
X86887309Y-121339506D01*
X86990019Y-121349999D01*
X87639999Y-121349999D01*
X87640000Y-121349998D01*
X87640000Y-120548482D01*
X87658409Y-120559111D01*
X87811009Y-120600000D01*
X87968991Y-120600000D01*
X88121591Y-120559111D01*
X88140000Y-120548482D01*
X88140000Y-121349999D01*
X88789972Y-121349999D01*
X88789986Y-121349998D01*
X88892697Y-121339505D01*
X89059119Y-121284358D01*
X89059124Y-121284356D01*
X89208345Y-121192315D01*
X89332315Y-121068345D01*
X89424356Y-120919124D01*
X89424358Y-120919119D01*
X89479505Y-120752697D01*
X89479506Y-120752690D01*
X89489999Y-120649986D01*
X89490000Y-120649973D01*
X89490000Y-120250000D01*
X88438482Y-120250000D01*
X88449111Y-120231591D01*
X88490000Y-120078991D01*
X88490000Y-119921009D01*
X88449111Y-119768409D01*
X88438482Y-119750000D01*
X89489999Y-119750000D01*
X89489999Y-119350028D01*
X89489998Y-119350013D01*
X89479505Y-119247302D01*
X89424358Y-119080880D01*
X89424356Y-119080875D01*
X89332315Y-118931654D01*
X89208345Y-118807684D01*
X89053515Y-118712184D01*
X89006791Y-118660236D01*
X88995568Y-118591273D01*
X89023412Y-118527191D01*
X89030909Y-118518986D01*
X89170104Y-118379792D01*
X89178430Y-118368333D01*
X89275429Y-118234824D01*
X89295051Y-118207816D01*
X89391557Y-118018412D01*
X89403230Y-117982486D01*
X90925001Y-117982486D01*
X90935494Y-118085197D01*
X90990641Y-118251619D01*
X90990643Y-118251624D01*
X91082684Y-118400845D01*
X91206654Y-118524815D01*
X91355875Y-118616856D01*
X91355880Y-118616858D01*
X91522302Y-118672005D01*
X91522309Y-118672006D01*
X91625019Y-118682499D01*
X91899999Y-118682499D01*
X92400000Y-118682499D01*
X92674972Y-118682499D01*
X92674986Y-118682498D01*
X92777697Y-118672005D01*
X92944119Y-118616858D01*
X92944124Y-118616856D01*
X93093345Y-118524815D01*
X93217315Y-118400845D01*
X93309356Y-118251624D01*
X93309358Y-118251619D01*
X93364505Y-118085197D01*
X93364506Y-118085190D01*
X93374999Y-117982486D01*
X93375000Y-117982473D01*
X93375000Y-117845000D01*
X92400000Y-117845000D01*
X92400000Y-118682499D01*
X91899999Y-118682499D01*
X91900000Y-118682498D01*
X91900000Y-117845000D01*
X90925001Y-117845000D01*
X90925001Y-117982486D01*
X89403230Y-117982486D01*
X89457246Y-117816243D01*
X89490500Y-117606287D01*
X89490500Y-117393713D01*
X89457246Y-117183757D01*
X89391557Y-116981588D01*
X89388843Y-116976261D01*
X89387256Y-116973146D01*
X89374361Y-116904477D01*
X89400639Y-116839737D01*
X89410052Y-116829181D01*
X90048506Y-116190728D01*
X90048511Y-116190724D01*
X90058714Y-116180520D01*
X90058716Y-116180520D01*
X90170520Y-116068716D01*
X90249577Y-115931784D01*
X90280743Y-115815470D01*
X90290500Y-115779058D01*
X90290500Y-115620943D01*
X90290500Y-112182111D01*
X90310185Y-112115072D01*
X90326814Y-112094435D01*
X90713322Y-111707926D01*
X90774642Y-111674444D01*
X90844333Y-111679428D01*
X90900267Y-111721299D01*
X90924684Y-111786764D01*
X90925000Y-111795609D01*
X90925000Y-111879970D01*
X90925001Y-111879987D01*
X90935494Y-111982697D01*
X90990641Y-112149119D01*
X90990643Y-112149124D01*
X91082684Y-112298345D01*
X91206655Y-112422316D01*
X91206659Y-112422319D01*
X91209656Y-112424168D01*
X91211279Y-112425972D01*
X91212323Y-112426798D01*
X91212181Y-112426976D01*
X91256381Y-112476116D01*
X91267602Y-112545079D01*
X91239759Y-112609161D01*
X91209661Y-112635241D01*
X91206349Y-112637283D01*
X91206343Y-112637288D01*
X91082289Y-112761342D01*
X90990187Y-112910663D01*
X90990185Y-112910668D01*
X90977571Y-112948735D01*
X90935001Y-113077203D01*
X90935001Y-113077204D01*
X90935000Y-113077204D01*
X90924500Y-113179983D01*
X90924500Y-113955001D01*
X90924501Y-113955019D01*
X90935000Y-114057796D01*
X90935001Y-114057799D01*
X90990185Y-114224331D01*
X90990187Y-114224336D01*
X91002624Y-114244499D01*
X91078234Y-114367084D01*
X91082289Y-114373657D01*
X91164701Y-114456069D01*
X91198186Y-114517392D01*
X91193202Y-114587084D01*
X91164701Y-114631431D01*
X91082289Y-114713842D01*
X90990187Y-114863163D01*
X90990185Y-114863168D01*
X90966430Y-114934856D01*
X90935001Y-115029703D01*
X90935001Y-115029704D01*
X90935000Y-115029704D01*
X90924500Y-115132483D01*
X90924500Y-115907501D01*
X90924501Y-115907519D01*
X90935000Y-116010296D01*
X90935001Y-116010299D01*
X90990185Y-116176831D01*
X90990187Y-116176836D01*
X91015498Y-116217871D01*
X91082288Y-116326156D01*
X91206344Y-116450212D01*
X91209628Y-116452237D01*
X91209653Y-116452253D01*
X91211445Y-116454246D01*
X91212011Y-116454693D01*
X91211934Y-116454789D01*
X91256379Y-116504199D01*
X91267603Y-116573161D01*
X91239761Y-116637244D01*
X91209665Y-116663326D01*
X91206660Y-116665179D01*
X91206655Y-116665183D01*
X91082684Y-116789154D01*
X90990643Y-116938375D01*
X90990641Y-116938380D01*
X90935494Y-117104802D01*
X90935493Y-117104809D01*
X90925000Y-117207513D01*
X90925000Y-117345000D01*
X93374999Y-117345000D01*
X93374999Y-117207528D01*
X93374998Y-117207513D01*
X93364505Y-117104800D01*
X93355095Y-117076402D01*
X93352692Y-117006574D01*
X93388423Y-116946532D01*
X93450943Y-116915339D01*
X93520402Y-116922898D01*
X93560481Y-116949716D01*
X94113374Y-117502609D01*
X94113384Y-117502620D01*
X94117714Y-117506950D01*
X94117715Y-117506951D01*
X94229519Y-117618755D01*
X94229521Y-117618756D01*
X94229525Y-117618759D01*
X94282767Y-117649498D01*
X94282772Y-117649500D01*
X94366444Y-117697809D01*
X94366445Y-117697810D01*
X94366447Y-117697810D01*
X94366450Y-117697812D01*
X94519178Y-117738736D01*
X94519181Y-117738736D01*
X94684888Y-117738736D01*
X94684904Y-117738735D01*
X96060917Y-117738735D01*
X96127956Y-117758420D01*
X96165910Y-117796763D01*
X96214861Y-117874668D01*
X96214866Y-117874674D01*
X96342420Y-118002228D01*
X96495160Y-118098201D01*
X96665427Y-118157780D01*
X96752351Y-118167573D01*
X96816762Y-118194638D01*
X96826147Y-118203112D01*
X98175009Y-119551974D01*
X98175019Y-119551985D01*
X98179349Y-119556315D01*
X98179350Y-119556316D01*
X98291154Y-119668120D01*
X98291156Y-119668121D01*
X98291160Y-119668124D01*
X98392935Y-119726883D01*
X98428086Y-119747177D01*
X98539889Y-119777134D01*
X98580812Y-119788100D01*
X98580813Y-119788100D01*
X103341417Y-119788100D01*
X103341433Y-119788101D01*
X103349029Y-119788101D01*
X103507140Y-119788101D01*
X103507143Y-119788101D01*
X103659871Y-119747177D01*
X103709990Y-119718239D01*
X103796802Y-119668120D01*
X103908606Y-119556316D01*
X103908606Y-119556314D01*
X103918814Y-119546107D01*
X103918816Y-119546104D01*
X106185275Y-117279644D01*
X110270598Y-117279644D01*
X110276999Y-117339172D01*
X110277001Y-117339179D01*
X110327243Y-117473886D01*
X110327247Y-117473893D01*
X110413407Y-117588987D01*
X110413410Y-117588990D01*
X110528504Y-117675150D01*
X110528511Y-117675154D01*
X110663218Y-117725396D01*
X110663225Y-117725398D01*
X110722753Y-117731799D01*
X110722770Y-117731800D01*
X110799998Y-117731800D01*
X110799998Y-117050000D01*
X110270598Y-117050000D01*
X110270598Y-117279644D01*
X106185275Y-117279644D01*
X107144564Y-116320355D01*
X110270598Y-116320355D01*
X110270598Y-116550000D01*
X110799998Y-116550000D01*
X110799998Y-115868200D01*
X110722753Y-115868200D01*
X110663225Y-115874601D01*
X110663218Y-115874603D01*
X110528511Y-115924845D01*
X110528504Y-115924849D01*
X110413410Y-116011009D01*
X110413407Y-116011012D01*
X110327247Y-116126106D01*
X110327243Y-116126113D01*
X110277001Y-116260820D01*
X110276999Y-116260827D01*
X110270598Y-116320355D01*
X107144564Y-116320355D01*
X109082612Y-114382307D01*
X109143933Y-114348824D01*
X109185074Y-114346875D01*
X109226245Y-114351819D01*
X109256897Y-114355500D01*
X109256898Y-114355500D01*
X109643097Y-114355500D01*
X109643102Y-114355500D01*
X109731564Y-114344877D01*
X109872342Y-114289361D01*
X109992922Y-114197922D01*
X110001195Y-114187013D01*
X110057386Y-114145488D01*
X110127107Y-114140935D01*
X110188222Y-114174799D01*
X110198805Y-114187013D01*
X110207077Y-114197921D01*
X110207078Y-114197922D01*
X110241903Y-114224331D01*
X110327656Y-114289360D01*
X110327657Y-114289360D01*
X110327658Y-114289361D01*
X110468436Y-114344877D01*
X110556898Y-114355500D01*
X110556903Y-114355500D01*
X110943097Y-114355500D01*
X110943102Y-114355500D01*
X111031564Y-114344877D01*
X111172342Y-114289361D01*
X111292922Y-114197922D01*
X111384361Y-114077342D01*
X111439877Y-113936564D01*
X111450500Y-113848102D01*
X111450500Y-112671898D01*
X111439877Y-112583436D01*
X111384361Y-112442658D01*
X111384360Y-112442657D01*
X111384360Y-112442656D01*
X111332998Y-112374926D01*
X111308174Y-112309615D01*
X111322602Y-112241251D01*
X111332998Y-112225074D01*
X111343885Y-112210717D01*
X111384361Y-112157342D01*
X111439877Y-112016564D01*
X111450500Y-111928102D01*
X111450500Y-111460575D01*
X111470185Y-111393536D01*
X111522989Y-111347781D01*
X111588382Y-111337355D01*
X111639384Y-111343101D01*
X111703797Y-111370167D01*
X111743352Y-111427762D01*
X111749500Y-111466320D01*
X111749500Y-111700000D01*
X111749501Y-111700006D01*
X111760000Y-111802796D01*
X111760001Y-111802799D01*
X111815185Y-111969331D01*
X111815187Y-111969336D01*
X111846437Y-112020000D01*
X111906478Y-112117343D01*
X111907289Y-112118657D01*
X112000951Y-112212319D01*
X112034436Y-112273642D01*
X112029452Y-112343334D01*
X112000951Y-112387681D01*
X111907289Y-112481342D01*
X111815187Y-112630663D01*
X111815185Y-112630668D01*
X111801523Y-112671898D01*
X111760001Y-112797203D01*
X111760001Y-112797204D01*
X111760000Y-112797204D01*
X111749500Y-112899983D01*
X111749500Y-113700001D01*
X111749501Y-113700008D01*
X111760000Y-113802796D01*
X111760001Y-113802799D01*
X111815185Y-113969331D01*
X111815187Y-113969336D01*
X111821183Y-113979057D01*
X111907288Y-114118656D01*
X112031344Y-114242712D01*
X112180666Y-114334814D01*
X112347203Y-114389999D01*
X112449991Y-114400500D01*
X113450008Y-114400499D01*
X113450016Y-114400498D01*
X113450019Y-114400498D01*
X113506302Y-114394748D01*
X113552797Y-114389999D01*
X113719334Y-114334814D01*
X113868656Y-114242712D01*
X113992712Y-114118656D01*
X114084814Y-113969334D01*
X114139999Y-113802797D01*
X114150500Y-113700009D01*
X114150500Y-113309577D01*
X114150500Y-113220943D01*
X114150500Y-113210954D01*
X114150499Y-113210940D01*
X114150499Y-113000098D01*
X114170184Y-112933059D01*
X114186818Y-112912416D01*
X114262417Y-112836818D01*
X114323741Y-112803334D01*
X114350098Y-112800500D01*
X114475500Y-112800500D01*
X114542539Y-112820185D01*
X114588294Y-112872989D01*
X114599500Y-112924500D01*
X114599500Y-113808102D01*
X114604570Y-113850318D01*
X114610122Y-113896561D01*
X114665639Y-114037343D01*
X114757077Y-114157922D01*
X114877656Y-114249360D01*
X114877657Y-114249360D01*
X114877658Y-114249361D01*
X115018436Y-114304877D01*
X115106898Y-114315500D01*
X115414903Y-114315500D01*
X115481942Y-114335185D01*
X115502584Y-114351819D01*
X117114972Y-115964207D01*
X117148457Y-116025530D01*
X117143473Y-116095222D01*
X117131004Y-116118057D01*
X117131056Y-116118086D01*
X117126804Y-116125871D01*
X117076510Y-116260717D01*
X117072151Y-116301265D01*
X117070103Y-116320323D01*
X117070102Y-116320335D01*
X117070102Y-116679302D01*
X117050417Y-116746341D01*
X117033783Y-116766983D01*
X116787085Y-117013681D01*
X116725762Y-117047166D01*
X116699404Y-117050000D01*
X115170600Y-117050000D01*
X115170600Y-117279644D01*
X115177001Y-117339172D01*
X115177003Y-117339179D01*
X115227245Y-117473886D01*
X115227249Y-117473893D01*
X115313409Y-117588987D01*
X115313412Y-117588990D01*
X115428506Y-117675150D01*
X115428513Y-117675154D01*
X115563220Y-117725396D01*
X115563227Y-117725398D01*
X115622755Y-117731799D01*
X115622772Y-117731800D01*
X115769604Y-117731800D01*
X115836643Y-117751485D01*
X115882398Y-117804289D01*
X115892342Y-117873447D01*
X115863317Y-117937003D01*
X115857285Y-117943481D01*
X115519481Y-118281284D01*
X115519479Y-118281286D01*
X115498091Y-118318333D01*
X115486358Y-118338656D01*
X115440423Y-118418217D01*
X115399499Y-118570945D01*
X115399499Y-118570947D01*
X115399499Y-118739048D01*
X115399500Y-118739061D01*
X115399500Y-118816588D01*
X115379815Y-118883627D01*
X115327011Y-118929382D01*
X115257853Y-118939326D01*
X115194297Y-118910301D01*
X115187819Y-118904269D01*
X113752495Y-117468946D01*
X113719010Y-117407623D01*
X113723330Y-117347214D01*
X113721707Y-117346831D01*
X113723488Y-117339289D01*
X113723491Y-117339283D01*
X113729900Y-117279673D01*
X113729899Y-116320355D01*
X115170600Y-116320355D01*
X115170600Y-116550000D01*
X115700000Y-116550000D01*
X116200000Y-116550000D01*
X116729400Y-116550000D01*
X116729400Y-116320372D01*
X116729399Y-116320355D01*
X116722998Y-116260827D01*
X116722996Y-116260820D01*
X116672754Y-116126113D01*
X116672750Y-116126106D01*
X116586590Y-116011012D01*
X116586587Y-116011009D01*
X116471493Y-115924849D01*
X116471486Y-115924845D01*
X116336779Y-115874603D01*
X116336772Y-115874601D01*
X116277244Y-115868200D01*
X116200000Y-115868200D01*
X116200000Y-116550000D01*
X115700000Y-116550000D01*
X115700000Y-115868200D01*
X115622755Y-115868200D01*
X115563227Y-115874601D01*
X115563220Y-115874603D01*
X115428513Y-115924845D01*
X115428506Y-115924849D01*
X115313412Y-116011009D01*
X115313409Y-116011012D01*
X115227249Y-116126106D01*
X115227245Y-116126113D01*
X115177003Y-116260820D01*
X115177001Y-116260827D01*
X115170600Y-116320355D01*
X113729899Y-116320355D01*
X113729899Y-116320328D01*
X113723491Y-116260717D01*
X113719493Y-116249999D01*
X113673197Y-116125871D01*
X113673196Y-116125870D01*
X113673196Y-116125869D01*
X113586946Y-116010654D01*
X113586942Y-116010651D01*
X113580678Y-116004387D01*
X113581790Y-116003274D01*
X113545913Y-115955348D01*
X113538875Y-115898131D01*
X113555565Y-115750002D01*
X113555565Y-115749996D01*
X113535369Y-115570750D01*
X113535368Y-115570745D01*
X113517981Y-115521057D01*
X113475789Y-115400478D01*
X113465710Y-115384438D01*
X113422969Y-115316416D01*
X113379816Y-115247738D01*
X113252262Y-115120184D01*
X113230145Y-115106287D01*
X113099523Y-115024211D01*
X112929254Y-114964631D01*
X112929249Y-114964630D01*
X112750004Y-114944435D01*
X112749996Y-114944435D01*
X112570750Y-114964630D01*
X112570745Y-114964631D01*
X112400476Y-115024211D01*
X112247737Y-115120184D01*
X112120184Y-115247737D01*
X112024210Y-115400478D01*
X111964630Y-115570750D01*
X111954837Y-115657668D01*
X111927770Y-115722082D01*
X111919298Y-115731465D01*
X111735779Y-115914983D01*
X111674456Y-115948468D01*
X111604764Y-115943484D01*
X111573786Y-115926568D01*
X111571487Y-115924847D01*
X111571484Y-115924845D01*
X111436777Y-115874603D01*
X111436770Y-115874601D01*
X111377242Y-115868200D01*
X111299998Y-115868200D01*
X111299998Y-117731800D01*
X111310182Y-117741984D01*
X111342538Y-117751485D01*
X111388293Y-117804289D01*
X111399499Y-117855800D01*
X111399499Y-118310446D01*
X111379814Y-118377485D01*
X111363180Y-118398127D01*
X111363051Y-118398255D01*
X111276805Y-118513464D01*
X111276801Y-118513471D01*
X111226507Y-118648317D01*
X111220100Y-118707916D01*
X111220100Y-118707923D01*
X111220099Y-118707935D01*
X111220099Y-119667270D01*
X111220100Y-119667276D01*
X111226507Y-119726883D01*
X111276801Y-119861728D01*
X111276805Y-119861735D01*
X111363051Y-119976944D01*
X111363054Y-119976947D01*
X111478263Y-120063193D01*
X111478270Y-120063197D01*
X111515308Y-120077011D01*
X111613116Y-120113491D01*
X111672726Y-120119900D01*
X112327271Y-120119899D01*
X112386882Y-120113491D01*
X112521730Y-120063196D01*
X112636945Y-119976946D01*
X112723195Y-119861731D01*
X112773490Y-119726883D01*
X112779899Y-119667273D01*
X112779898Y-118707928D01*
X112773490Y-118648317D01*
X112773365Y-118647983D01*
X112723196Y-118513471D01*
X112723194Y-118513468D01*
X112723191Y-118513464D01*
X112644540Y-118408400D01*
X112620124Y-118342940D01*
X112634975Y-118274667D01*
X112684380Y-118225261D01*
X112752652Y-118210408D01*
X112818117Y-118234824D01*
X112831489Y-118246411D01*
X114216670Y-119631592D01*
X115815598Y-121230520D01*
X115815600Y-121230521D01*
X115815604Y-121230524D01*
X115952523Y-121309573D01*
X115952526Y-121309575D01*
X115952530Y-121309577D01*
X116105257Y-121350501D01*
X116105259Y-121350501D01*
X116270968Y-121350501D01*
X116270984Y-121350500D01*
X129753584Y-121350500D01*
X129794539Y-121357459D01*
X129945737Y-121410366D01*
X129945743Y-121410367D01*
X129945745Y-121410368D01*
X129945746Y-121410368D01*
X129945750Y-121410369D01*
X130124996Y-121430565D01*
X130125000Y-121430565D01*
X130125004Y-121430565D01*
X130304249Y-121410369D01*
X130304251Y-121410368D01*
X130304255Y-121410368D01*
X130304258Y-121410366D01*
X130304262Y-121410366D01*
X130455461Y-121357459D01*
X130496416Y-121350500D01*
X139753584Y-121350500D01*
X139794539Y-121357459D01*
X139945737Y-121410366D01*
X139945743Y-121410367D01*
X139945745Y-121410368D01*
X139945746Y-121410368D01*
X139945750Y-121410369D01*
X140124996Y-121430565D01*
X140125000Y-121430565D01*
X140125004Y-121430565D01*
X140304249Y-121410369D01*
X140304251Y-121410368D01*
X140304255Y-121410368D01*
X140304258Y-121410366D01*
X140304262Y-121410366D01*
X140455461Y-121357459D01*
X140496416Y-121350500D01*
X150224506Y-121350500D01*
X150290477Y-121369506D01*
X150300474Y-121375787D01*
X150300475Y-121375787D01*
X150300478Y-121375789D01*
X150457019Y-121430565D01*
X150470745Y-121435368D01*
X150470750Y-121435369D01*
X150649996Y-121455565D01*
X150650000Y-121455565D01*
X150650004Y-121455565D01*
X150829249Y-121435369D01*
X150829252Y-121435368D01*
X150829255Y-121435368D01*
X150999522Y-121375789D01*
X151000488Y-121375181D01*
X151009523Y-121369506D01*
X151075494Y-121350500D01*
X160324506Y-121350500D01*
X160390477Y-121369506D01*
X160400474Y-121375787D01*
X160400475Y-121375787D01*
X160400478Y-121375789D01*
X160557019Y-121430565D01*
X160570745Y-121435368D01*
X160570750Y-121435369D01*
X160749996Y-121455565D01*
X160750000Y-121455565D01*
X160750004Y-121455565D01*
X160929249Y-121435369D01*
X160929252Y-121435368D01*
X160929255Y-121435368D01*
X161099522Y-121375789D01*
X161100488Y-121375181D01*
X161109523Y-121369506D01*
X161175494Y-121350500D01*
X170253584Y-121350500D01*
X170294539Y-121357459D01*
X170445737Y-121410366D01*
X170445743Y-121410367D01*
X170445745Y-121410368D01*
X170445746Y-121410368D01*
X170445750Y-121410369D01*
X170624996Y-121430565D01*
X170625000Y-121430565D01*
X170625004Y-121430565D01*
X170804249Y-121410369D01*
X170804251Y-121410368D01*
X170804255Y-121410368D01*
X170804258Y-121410366D01*
X170804262Y-121410366D01*
X170955461Y-121357459D01*
X170996416Y-121350500D01*
X180253584Y-121350500D01*
X180294539Y-121357459D01*
X180445737Y-121410366D01*
X180445743Y-121410367D01*
X180445745Y-121410368D01*
X180445746Y-121410368D01*
X180445750Y-121410369D01*
X180624996Y-121430565D01*
X180625000Y-121430565D01*
X180625004Y-121430565D01*
X180804249Y-121410369D01*
X180804251Y-121410368D01*
X180804255Y-121410368D01*
X180804258Y-121410366D01*
X180804262Y-121410366D01*
X180955461Y-121357459D01*
X180996416Y-121350500D01*
X187713331Y-121350500D01*
X187713347Y-121350501D01*
X187720943Y-121350501D01*
X187879054Y-121350501D01*
X187879057Y-121350501D01*
X188031785Y-121309577D01*
X188083332Y-121279816D01*
X188168716Y-121230520D01*
X188280520Y-121118716D01*
X188280520Y-121118714D01*
X188290724Y-121108511D01*
X188290728Y-121108506D01*
X190387416Y-119011818D01*
X190448739Y-118978333D01*
X190475097Y-118975499D01*
X191122871Y-118975499D01*
X191122872Y-118975499D01*
X191182483Y-118969091D01*
X191317329Y-118918797D01*
X191317329Y-118918796D01*
X191317331Y-118918796D01*
X191350689Y-118893823D01*
X191416151Y-118869406D01*
X191484425Y-118884257D01*
X191499305Y-118893820D01*
X191532669Y-118918796D01*
X191532670Y-118918796D01*
X191532670Y-118918797D01*
X191667517Y-118969091D01*
X191667516Y-118969091D01*
X191674444Y-118969835D01*
X191727127Y-118975500D01*
X192572872Y-118975499D01*
X192632483Y-118969091D01*
X192767331Y-118918796D01*
X192882546Y-118832546D01*
X192968796Y-118717331D01*
X193019091Y-118582483D01*
X193025500Y-118522873D01*
X193025499Y-117925095D01*
X193045183Y-117858057D01*
X193061813Y-117837420D01*
X193608506Y-117290728D01*
X193608511Y-117290724D01*
X193618714Y-117280520D01*
X193618716Y-117280520D01*
X193730520Y-117168716D01*
X193782284Y-117079057D01*
X193809577Y-117031785D01*
X193850501Y-116879057D01*
X193850501Y-116720943D01*
X193850501Y-116713348D01*
X193850500Y-116713330D01*
X193850500Y-115797844D01*
X201000000Y-115797844D01*
X201006401Y-115857372D01*
X201006403Y-115857379D01*
X201056645Y-115992086D01*
X201056649Y-115992093D01*
X201142809Y-116107187D01*
X201142812Y-116107190D01*
X201257906Y-116193350D01*
X201257913Y-116193354D01*
X201392620Y-116243596D01*
X201392627Y-116243598D01*
X201452155Y-116249999D01*
X201452172Y-116250000D01*
X202500000Y-116250000D01*
X203000000Y-116250000D01*
X204047828Y-116250000D01*
X204047844Y-116249999D01*
X204107372Y-116243598D01*
X204107379Y-116243596D01*
X204242086Y-116193354D01*
X204242093Y-116193350D01*
X204357187Y-116107190D01*
X204357190Y-116107187D01*
X204443350Y-115992093D01*
X204443354Y-115992086D01*
X204493596Y-115857379D01*
X204493598Y-115857372D01*
X204499999Y-115797844D01*
X204500000Y-115797827D01*
X204500000Y-115000000D01*
X203000000Y-115000000D01*
X203000000Y-116250000D01*
X202500000Y-116250000D01*
X202500000Y-115000000D01*
X201000000Y-115000000D01*
X201000000Y-115797844D01*
X193850500Y-115797844D01*
X193850500Y-114039060D01*
X193850501Y-114039047D01*
X193850501Y-113870944D01*
X193844974Y-113850318D01*
X193809577Y-113718216D01*
X193800305Y-113702155D01*
X201000000Y-113702155D01*
X201000000Y-114500000D01*
X202500000Y-114500000D01*
X203000000Y-114500000D01*
X204500000Y-114500000D01*
X204500000Y-113702172D01*
X204499999Y-113702155D01*
X204493598Y-113642627D01*
X204493596Y-113642620D01*
X204443354Y-113507913D01*
X204443350Y-113507906D01*
X204357190Y-113392812D01*
X204357187Y-113392809D01*
X204242093Y-113306649D01*
X204242086Y-113306645D01*
X204107379Y-113256403D01*
X204107372Y-113256401D01*
X204047844Y-113250000D01*
X203000000Y-113250000D01*
X203000000Y-114500000D01*
X202500000Y-114500000D01*
X202500000Y-113250000D01*
X201452155Y-113250000D01*
X201392627Y-113256401D01*
X201392620Y-113256403D01*
X201257913Y-113306645D01*
X201257906Y-113306649D01*
X201142812Y-113392809D01*
X201142809Y-113392812D01*
X201056649Y-113507906D01*
X201056645Y-113507913D01*
X201006403Y-113642620D01*
X201006401Y-113642627D01*
X201000000Y-113702155D01*
X193800305Y-113702155D01*
X193799367Y-113700531D01*
X193730524Y-113581290D01*
X193730518Y-113581282D01*
X193247644Y-113098408D01*
X192754542Y-112605307D01*
X192721058Y-112543985D01*
X192726042Y-112474294D01*
X192767913Y-112418360D01*
X192882546Y-112332546D01*
X192968796Y-112217331D01*
X193019091Y-112082483D01*
X193025500Y-112022873D01*
X193025499Y-111375095D01*
X193045183Y-111308057D01*
X193061813Y-111287420D01*
X193183506Y-111165728D01*
X193183511Y-111165724D01*
X193193714Y-111155520D01*
X193193716Y-111155520D01*
X193305520Y-111043716D01*
X193327979Y-111004816D01*
X193359338Y-110950501D01*
X193359339Y-110950499D01*
X193384574Y-110906790D01*
X193384573Y-110906790D01*
X193384577Y-110906785D01*
X193425500Y-110754057D01*
X193425500Y-110595943D01*
X193425500Y-107114059D01*
X193425501Y-107114046D01*
X193425501Y-106945945D01*
X193425501Y-106945943D01*
X193384577Y-106793215D01*
X193384576Y-106793214D01*
X193384576Y-106793212D01*
X193384575Y-106793211D01*
X193345188Y-106724991D01*
X193305522Y-106656287D01*
X193305521Y-106656286D01*
X193305520Y-106656284D01*
X193193716Y-106544480D01*
X193193715Y-106544479D01*
X193189385Y-106540149D01*
X193189374Y-106540139D01*
X192754543Y-106105308D01*
X192721058Y-106043985D01*
X192726042Y-105974293D01*
X192767913Y-105918360D01*
X192882546Y-105832546D01*
X192968796Y-105717331D01*
X193019091Y-105582483D01*
X193025500Y-105522873D01*
X193025499Y-104925095D01*
X193045183Y-104858057D01*
X193061813Y-104837420D01*
X193183506Y-104715728D01*
X193183511Y-104715724D01*
X193193714Y-104705520D01*
X193193716Y-104705520D01*
X193305520Y-104593716D01*
X193357284Y-104504057D01*
X193384577Y-104456785D01*
X193425500Y-104304057D01*
X193425500Y-104145943D01*
X193425500Y-100464059D01*
X193425501Y-100464046D01*
X193425501Y-100295945D01*
X193425501Y-100295943D01*
X193384577Y-100143215D01*
X193334387Y-100056284D01*
X193305520Y-100006284D01*
X193193716Y-99894480D01*
X193193715Y-99894479D01*
X193189385Y-99890149D01*
X193189374Y-99890139D01*
X192436818Y-99137583D01*
X192403333Y-99076260D01*
X192400499Y-99049902D01*
X192400499Y-98349998D01*
X192400498Y-98349981D01*
X192389999Y-98247203D01*
X192389998Y-98247200D01*
X192378725Y-98213181D01*
X192334814Y-98080666D01*
X192242712Y-97931344D01*
X192149049Y-97837681D01*
X192115564Y-97776358D01*
X192120548Y-97706666D01*
X192149049Y-97662319D01*
X192242712Y-97568656D01*
X192334814Y-97419334D01*
X192389999Y-97252797D01*
X192400500Y-97150009D01*
X192400499Y-96349992D01*
X192389999Y-96247203D01*
X192334814Y-96080666D01*
X192309481Y-96039595D01*
X192291042Y-95972204D01*
X192311965Y-95905541D01*
X192365607Y-95860771D01*
X192415021Y-95850500D01*
X197949903Y-95850500D01*
X198016942Y-95870185D01*
X198037584Y-95886819D01*
X200963181Y-98812416D01*
X200996666Y-98873739D01*
X200999500Y-98900097D01*
X200999500Y-100797870D01*
X200999501Y-100797876D01*
X201005908Y-100857483D01*
X201056202Y-100992328D01*
X201056206Y-100992335D01*
X201142452Y-101107544D01*
X201142455Y-101107547D01*
X201257664Y-101193793D01*
X201257671Y-101193797D01*
X201392517Y-101244091D01*
X201392516Y-101244091D01*
X201399444Y-101244835D01*
X201452127Y-101250500D01*
X202382664Y-101250499D01*
X202444664Y-101267112D01*
X202483966Y-101289803D01*
X202518216Y-101309577D01*
X202670943Y-101350500D01*
X202670945Y-101350500D01*
X202829055Y-101350500D01*
X202829057Y-101350500D01*
X202981784Y-101309577D01*
X203055335Y-101267111D01*
X203117335Y-101250499D01*
X204047871Y-101250499D01*
X204047872Y-101250499D01*
X204107483Y-101244091D01*
X204242331Y-101193796D01*
X204357546Y-101107546D01*
X204443796Y-100992331D01*
X204494091Y-100857483D01*
X204500500Y-100797873D01*
X204500499Y-98702128D01*
X204494091Y-98642517D01*
X204443796Y-98507669D01*
X204443795Y-98507668D01*
X204443793Y-98507664D01*
X204357547Y-98392455D01*
X204357544Y-98392452D01*
X204242335Y-98306206D01*
X204242328Y-98306202D01*
X204107482Y-98255908D01*
X204107483Y-98255908D01*
X204047883Y-98249501D01*
X204047881Y-98249500D01*
X204047873Y-98249500D01*
X204047865Y-98249500D01*
X202150097Y-98249500D01*
X202083058Y-98229815D01*
X202062416Y-98213181D01*
X199089227Y-95239992D01*
X206014671Y-95239992D01*
X206014671Y-95240007D01*
X206033964Y-95534363D01*
X206033965Y-95534373D01*
X206033966Y-95534380D01*
X206090675Y-95819481D01*
X206091518Y-95823716D01*
X206091521Y-95823730D01*
X206186349Y-96103080D01*
X206316825Y-96367660D01*
X206316829Y-96367667D01*
X206480725Y-96612955D01*
X206675241Y-96834758D01*
X206897044Y-97029274D01*
X207142332Y-97193170D01*
X207142335Y-97193172D01*
X207406923Y-97323652D01*
X207660549Y-97409747D01*
X207682869Y-97417324D01*
X207686278Y-97418481D01*
X207975620Y-97476034D01*
X208003888Y-97477886D01*
X208269993Y-97495329D01*
X208270000Y-97495329D01*
X208270007Y-97495329D01*
X208505675Y-97479881D01*
X208564380Y-97476034D01*
X208853722Y-97418481D01*
X209133077Y-97323652D01*
X209397665Y-97193172D01*
X209642957Y-97029273D01*
X209864758Y-96834758D01*
X210059273Y-96612957D01*
X210223172Y-96367665D01*
X210353652Y-96103077D01*
X210448481Y-95823722D01*
X210506034Y-95534380D01*
X210519447Y-95329744D01*
X210525329Y-95240007D01*
X210525329Y-95239992D01*
X210506035Y-94945636D01*
X210506034Y-94945620D01*
X210448481Y-94656278D01*
X210353652Y-94376923D01*
X210223172Y-94112336D01*
X210059273Y-93867043D01*
X210016655Y-93818447D01*
X209864758Y-93645241D01*
X209642955Y-93450725D01*
X209397667Y-93286829D01*
X209397660Y-93286825D01*
X209133080Y-93156349D01*
X208853730Y-93061521D01*
X208853724Y-93061519D01*
X208853722Y-93061519D01*
X208564380Y-93003966D01*
X208564373Y-93003965D01*
X208564363Y-93003964D01*
X208270007Y-92984671D01*
X208269993Y-92984671D01*
X207975636Y-93003964D01*
X207975624Y-93003965D01*
X207975620Y-93003966D01*
X207975612Y-93003967D01*
X207975609Y-93003968D01*
X207686283Y-93061518D01*
X207686269Y-93061521D01*
X207406919Y-93156349D01*
X207142334Y-93286828D01*
X206897041Y-93450728D01*
X206675241Y-93645241D01*
X206480728Y-93867041D01*
X206316828Y-94112334D01*
X206186349Y-94376919D01*
X206091521Y-94656269D01*
X206091518Y-94656283D01*
X206033968Y-94945609D01*
X206033964Y-94945636D01*
X206014671Y-95239992D01*
X199089227Y-95239992D01*
X198737590Y-94888355D01*
X198737588Y-94888352D01*
X198618717Y-94769481D01*
X198618709Y-94769475D01*
X198503218Y-94702797D01*
X198503217Y-94702796D01*
X198488152Y-94694099D01*
X198481785Y-94690423D01*
X198329057Y-94649499D01*
X198170943Y-94649499D01*
X198163347Y-94649499D01*
X198163331Y-94649500D01*
X125185199Y-94649500D01*
X125185183Y-94649499D01*
X125177587Y-94649499D01*
X125019472Y-94649499D01*
X124956835Y-94666283D01*
X124866743Y-94690423D01*
X124866738Y-94690426D01*
X124729819Y-94769475D01*
X124729811Y-94769481D01*
X123486158Y-96013134D01*
X123424835Y-96046619D01*
X123355143Y-96041635D01*
X123332507Y-96030447D01*
X123267976Y-95989899D01*
X123185597Y-95938137D01*
X123053018Y-95891746D01*
X123015329Y-95878558D01*
X123015328Y-95878557D01*
X123015323Y-95878556D01*
X122928405Y-95868763D01*
X122863991Y-95841696D01*
X122854608Y-95833224D01*
X122840865Y-95819481D01*
X122840864Y-95819480D01*
X122754052Y-95769360D01*
X122754052Y-95769359D01*
X122754048Y-95769358D01*
X122703933Y-95740423D01*
X122551205Y-95699499D01*
X122551202Y-95699499D01*
X122524499Y-95699499D01*
X122457460Y-95679814D01*
X122411705Y-95627010D01*
X122400499Y-95575499D01*
X122400499Y-93202129D01*
X122400498Y-93202123D01*
X122400497Y-93202116D01*
X122394091Y-93142517D01*
X122391287Y-93135000D01*
X122343797Y-93007671D01*
X122343793Y-93007664D01*
X122257547Y-92892455D01*
X122257544Y-92892452D01*
X122142335Y-92806206D01*
X122142328Y-92806202D01*
X122007482Y-92755908D01*
X122007483Y-92755908D01*
X121947883Y-92749501D01*
X121947881Y-92749500D01*
X121947873Y-92749500D01*
X121947864Y-92749500D01*
X115552129Y-92749500D01*
X115552123Y-92749501D01*
X115492516Y-92755908D01*
X115357671Y-92806202D01*
X115357664Y-92806206D01*
X115242455Y-92892452D01*
X115242452Y-92892455D01*
X115156206Y-93007664D01*
X115156202Y-93007671D01*
X115105908Y-93142517D01*
X115099501Y-93202116D01*
X115099501Y-93202123D01*
X115099500Y-93202135D01*
X115099500Y-94913403D01*
X115079815Y-94980442D01*
X115027011Y-95026197D01*
X114957853Y-95036141D01*
X114894297Y-95007116D01*
X114887819Y-95001084D01*
X114511818Y-94625083D01*
X114478333Y-94563760D01*
X114475499Y-94537402D01*
X114475499Y-93824998D01*
X114475498Y-93824981D01*
X114464999Y-93722203D01*
X114464998Y-93722200D01*
X114442810Y-93655241D01*
X114409814Y-93555666D01*
X114317712Y-93406344D01*
X114193656Y-93282288D01*
X114044334Y-93190186D01*
X113877797Y-93135001D01*
X113877795Y-93135000D01*
X113775010Y-93124500D01*
X112724998Y-93124500D01*
X112724980Y-93124501D01*
X112622203Y-93135000D01*
X112622200Y-93135001D01*
X112455668Y-93190185D01*
X112455663Y-93190187D01*
X112306342Y-93282289D01*
X112182289Y-93406342D01*
X112090187Y-93555663D01*
X112090186Y-93555666D01*
X112035001Y-93722203D01*
X112035001Y-93722204D01*
X112035000Y-93722204D01*
X112024500Y-93824983D01*
X112024500Y-94600001D01*
X112024501Y-94600019D01*
X112035000Y-94702796D01*
X112035001Y-94702797D01*
X112090185Y-94869331D01*
X112090187Y-94869336D01*
X112117368Y-94913403D01*
X112182288Y-95018656D01*
X112306344Y-95142712D01*
X112309628Y-95144737D01*
X112309653Y-95144753D01*
X112311445Y-95146746D01*
X112312011Y-95147193D01*
X112311934Y-95147289D01*
X112356379Y-95196699D01*
X112367603Y-95265661D01*
X112339761Y-95329744D01*
X112309665Y-95355826D01*
X112306660Y-95357679D01*
X112306655Y-95357683D01*
X112182684Y-95481654D01*
X112090643Y-95630875D01*
X112090641Y-95630880D01*
X112035494Y-95797302D01*
X112035493Y-95797309D01*
X112025000Y-95900013D01*
X112025000Y-96037500D01*
X113126000Y-96037500D01*
X113193039Y-96057185D01*
X113238794Y-96109989D01*
X113250000Y-96161500D01*
X113250000Y-96287500D01*
X113376000Y-96287500D01*
X113443039Y-96307185D01*
X113488794Y-96359989D01*
X113500000Y-96411500D01*
X113500000Y-97374999D01*
X113774972Y-97374999D01*
X113774986Y-97374998D01*
X113877697Y-97364505D01*
X114044119Y-97309358D01*
X114044124Y-97309356D01*
X114193345Y-97217315D01*
X114317315Y-97093345D01*
X114409356Y-96944124D01*
X114409358Y-96944119D01*
X114464505Y-96777697D01*
X114464506Y-96777690D01*
X114474999Y-96674986D01*
X114474999Y-96586097D01*
X114494683Y-96519058D01*
X114547486Y-96473302D01*
X114616645Y-96463358D01*
X114680201Y-96492382D01*
X114686680Y-96498415D01*
X114852639Y-96664374D01*
X114852649Y-96664385D01*
X114856979Y-96668715D01*
X114856980Y-96668716D01*
X114968784Y-96780520D01*
X115037499Y-96820192D01*
X115085715Y-96870759D01*
X115099500Y-96927580D01*
X115099500Y-99397870D01*
X115099501Y-99397876D01*
X115105908Y-99457483D01*
X115156202Y-99592328D01*
X115156206Y-99592335D01*
X115242452Y-99707544D01*
X115242455Y-99707547D01*
X115357664Y-99793793D01*
X115357671Y-99793797D01*
X115492517Y-99844091D01*
X115492516Y-99844091D01*
X115499444Y-99844835D01*
X115552127Y-99850500D01*
X121947872Y-99850499D01*
X121993236Y-99845622D01*
X122061994Y-99858028D01*
X122113131Y-99905639D01*
X122130410Y-99973338D01*
X122108345Y-100039632D01*
X122094170Y-100056593D01*
X121537582Y-100613181D01*
X121476259Y-100646666D01*
X121449901Y-100649500D01*
X120238129Y-100649500D01*
X120238123Y-100649501D01*
X120178516Y-100655908D01*
X120043671Y-100706202D01*
X120043664Y-100706206D01*
X119928455Y-100792452D01*
X119928452Y-100792455D01*
X119842206Y-100907664D01*
X119842202Y-100907671D01*
X119791908Y-101042517D01*
X119785501Y-101102116D01*
X119785500Y-101102135D01*
X119785500Y-102899902D01*
X119765815Y-102966941D01*
X119749181Y-102987583D01*
X118769481Y-103967282D01*
X118769479Y-103967285D01*
X118732984Y-104030498D01*
X118732983Y-104030500D01*
X118690423Y-104104214D01*
X118687167Y-104116367D01*
X118649499Y-104256943D01*
X118649499Y-104256945D01*
X118649499Y-104425046D01*
X118649500Y-104425059D01*
X118649500Y-106041406D01*
X118629815Y-106108445D01*
X118577011Y-106154200D01*
X118507853Y-106164144D01*
X118460403Y-106146945D01*
X118369124Y-106090643D01*
X118369119Y-106090641D01*
X118202697Y-106035494D01*
X118202690Y-106035493D01*
X118099986Y-106025000D01*
X117962500Y-106025000D01*
X117962500Y-107126000D01*
X117942815Y-107193039D01*
X117890011Y-107238794D01*
X117838500Y-107250000D01*
X117712500Y-107250000D01*
X117712500Y-107376000D01*
X117692815Y-107443039D01*
X117640011Y-107488794D01*
X117588500Y-107500000D01*
X116625001Y-107500000D01*
X116625001Y-107774986D01*
X116635494Y-107877697D01*
X116685121Y-108027462D01*
X116687523Y-108097291D01*
X116651791Y-108157332D01*
X116599511Y-108186240D01*
X116583900Y-108190423D01*
X116583895Y-108190425D01*
X116548752Y-108210716D01*
X116548750Y-108210717D01*
X116446976Y-108269475D01*
X116446968Y-108269481D01*
X116335164Y-108381286D01*
X115753969Y-108962480D01*
X115692646Y-108995965D01*
X115622954Y-108990981D01*
X115567021Y-108949109D01*
X115542604Y-108883645D01*
X115543068Y-108860915D01*
X115555565Y-108750002D01*
X115555565Y-108749996D01*
X115535369Y-108570750D01*
X115535368Y-108570745D01*
X115517162Y-108518716D01*
X115475789Y-108400478D01*
X115463732Y-108381290D01*
X115420559Y-108312580D01*
X115379816Y-108247738D01*
X115252262Y-108120184D01*
X115180195Y-108074901D01*
X115099523Y-108024211D01*
X114929254Y-107964631D01*
X114929249Y-107964630D01*
X114750004Y-107944435D01*
X114749996Y-107944435D01*
X114570750Y-107964630D01*
X114570745Y-107964631D01*
X114400476Y-108024211D01*
X114247737Y-108120184D01*
X114120184Y-108247737D01*
X114020506Y-108406374D01*
X114018764Y-108405279D01*
X113978663Y-108449703D01*
X113913757Y-108468047D01*
X113203899Y-108468047D01*
X113136860Y-108448362D01*
X113091105Y-108395558D01*
X113079899Y-108344047D01*
X113079898Y-107657929D01*
X113079897Y-107657923D01*
X113079050Y-107650047D01*
X113073490Y-107598317D01*
X113070203Y-107589505D01*
X113023196Y-107463471D01*
X113023192Y-107463464D01*
X112936946Y-107348255D01*
X112936943Y-107348252D01*
X112821734Y-107262006D01*
X112821727Y-107262002D01*
X112686885Y-107211710D01*
X112686884Y-107211709D01*
X112686882Y-107211709D01*
X112627272Y-107205300D01*
X112627262Y-107205300D01*
X111972728Y-107205300D01*
X111972722Y-107205301D01*
X111913115Y-107211708D01*
X111778270Y-107262002D01*
X111778263Y-107262006D01*
X111663054Y-107348252D01*
X111663051Y-107348255D01*
X111576804Y-107463466D01*
X111576802Y-107463470D01*
X111574801Y-107468835D01*
X111532929Y-107524768D01*
X111467464Y-107549184D01*
X111458620Y-107549500D01*
X106699097Y-107549500D01*
X106632058Y-107529815D01*
X106586303Y-107477011D01*
X106576359Y-107407853D01*
X106605384Y-107344297D01*
X106611416Y-107337819D01*
X106925093Y-107024142D01*
X107224221Y-106725013D01*
X116625000Y-106725013D01*
X116625000Y-107000000D01*
X117462500Y-107000000D01*
X117462500Y-106025000D01*
X117325027Y-106025000D01*
X117325012Y-106025001D01*
X117222302Y-106035494D01*
X117055880Y-106090641D01*
X117055875Y-106090643D01*
X116906654Y-106182684D01*
X116782684Y-106306654D01*
X116690643Y-106455875D01*
X116690641Y-106455880D01*
X116635494Y-106622302D01*
X116635493Y-106622309D01*
X116625000Y-106725013D01*
X107224221Y-106725013D01*
X107268536Y-106680698D01*
X107329857Y-106647215D01*
X107342310Y-106645163D01*
X107429255Y-106635368D01*
X107599522Y-106575789D01*
X107752262Y-106479816D01*
X107879816Y-106352262D01*
X107975789Y-106199522D01*
X108035368Y-106029255D01*
X108035369Y-106029249D01*
X108055565Y-105850003D01*
X108055565Y-105849996D01*
X108035369Y-105670750D01*
X108035367Y-105670742D01*
X107981030Y-105515454D01*
X107977469Y-105445676D01*
X108012198Y-105385048D01*
X108074191Y-105352821D01*
X108098072Y-105350500D01*
X110049901Y-105350500D01*
X110116940Y-105370185D01*
X110137582Y-105386819D01*
X110533779Y-105783017D01*
X110567264Y-105844340D01*
X110570098Y-105870698D01*
X110570098Y-106229669D01*
X110570099Y-106229676D01*
X110576506Y-106289283D01*
X110626800Y-106424128D01*
X110626804Y-106424135D01*
X110713050Y-106539344D01*
X110713053Y-106539347D01*
X110828262Y-106625593D01*
X110828269Y-106625597D01*
X110849295Y-106633439D01*
X110963115Y-106675891D01*
X111022725Y-106682300D01*
X111677270Y-106682299D01*
X111736881Y-106675891D01*
X111871729Y-106625596D01*
X111986944Y-106539346D01*
X112073194Y-106424131D01*
X112123489Y-106289283D01*
X112129898Y-106229673D01*
X112129897Y-105778492D01*
X112149581Y-105711455D01*
X112202385Y-105665700D01*
X112271544Y-105655756D01*
X112335100Y-105684781D01*
X112341570Y-105690805D01*
X112433782Y-105783017D01*
X112467266Y-105844339D01*
X112470100Y-105870697D01*
X112470100Y-106229669D01*
X112470101Y-106229676D01*
X112476508Y-106289283D01*
X112526802Y-106424128D01*
X112526806Y-106424135D01*
X112613052Y-106539344D01*
X112613055Y-106539347D01*
X112728264Y-106625593D01*
X112728271Y-106625597D01*
X112749297Y-106633439D01*
X112863117Y-106675891D01*
X112922727Y-106682300D01*
X113577272Y-106682299D01*
X113636883Y-106675891D01*
X113771731Y-106625596D01*
X113886946Y-106539346D01*
X113973196Y-106424131D01*
X114023491Y-106289283D01*
X114029900Y-106229673D01*
X114029899Y-105270328D01*
X114023491Y-105210717D01*
X114012651Y-105181654D01*
X113973197Y-105075871D01*
X113973193Y-105075864D01*
X113886947Y-104960655D01*
X113886944Y-104960652D01*
X113771735Y-104874406D01*
X113771728Y-104874402D01*
X113636882Y-104824108D01*
X113636883Y-104824108D01*
X113577283Y-104817701D01*
X113577281Y-104817700D01*
X113577273Y-104817700D01*
X113577265Y-104817700D01*
X113218299Y-104817700D01*
X113151260Y-104798015D01*
X113130619Y-104781382D01*
X113080701Y-104731465D01*
X113047215Y-104670142D01*
X113045162Y-104657683D01*
X113035368Y-104570745D01*
X112975789Y-104400478D01*
X112879816Y-104247738D01*
X112752262Y-104120184D01*
X112683553Y-104077011D01*
X112599523Y-104024211D01*
X112524171Y-103997844D01*
X115214000Y-103997844D01*
X115220401Y-104057372D01*
X115220403Y-104057379D01*
X115270645Y-104192086D01*
X115270649Y-104192093D01*
X115356809Y-104307187D01*
X115356812Y-104307190D01*
X115471906Y-104393350D01*
X115471913Y-104393354D01*
X115606620Y-104443596D01*
X115606627Y-104443598D01*
X115666155Y-104449999D01*
X115666172Y-104450000D01*
X116214000Y-104450000D01*
X116714000Y-104450000D01*
X117261828Y-104450000D01*
X117261844Y-104449999D01*
X117321372Y-104443598D01*
X117321379Y-104443596D01*
X117456086Y-104393354D01*
X117456093Y-104393350D01*
X117571187Y-104307190D01*
X117571190Y-104307187D01*
X117657350Y-104192093D01*
X117657354Y-104192086D01*
X117707596Y-104057379D01*
X117707598Y-104057372D01*
X117713999Y-103997844D01*
X117714000Y-103997827D01*
X117714000Y-102800000D01*
X116714000Y-102800000D01*
X116714000Y-104450000D01*
X116214000Y-104450000D01*
X116214000Y-102800000D01*
X115214000Y-102800000D01*
X115214000Y-103997844D01*
X112524171Y-103997844D01*
X112429254Y-103964631D01*
X112429249Y-103964630D01*
X112250004Y-103944435D01*
X112249996Y-103944435D01*
X112070750Y-103964630D01*
X112070745Y-103964631D01*
X111900476Y-104024211D01*
X111747737Y-104120184D01*
X111620184Y-104247737D01*
X111524211Y-104400476D01*
X111464631Y-104570745D01*
X111464630Y-104570750D01*
X111449214Y-104707583D01*
X111422148Y-104771997D01*
X111364553Y-104811552D01*
X111325994Y-104817700D01*
X111318296Y-104817700D01*
X111251257Y-104798015D01*
X111230615Y-104781381D01*
X110837588Y-104388355D01*
X110837586Y-104388352D01*
X110718715Y-104269481D01*
X110718707Y-104269475D01*
X110615872Y-104210104D01*
X110615871Y-104210103D01*
X110615871Y-104210104D01*
X110581783Y-104190423D01*
X110429055Y-104149499D01*
X110270941Y-104149499D01*
X110263345Y-104149499D01*
X110263329Y-104149500D01*
X109458291Y-104149500D01*
X109391252Y-104129815D01*
X109345497Y-104077011D01*
X109335553Y-104007853D01*
X109357973Y-103952615D01*
X109405048Y-103887820D01*
X109405047Y-103887820D01*
X109405051Y-103887816D01*
X109501557Y-103698412D01*
X109567246Y-103496243D01*
X109600500Y-103286287D01*
X109600500Y-102573713D01*
X109567246Y-102363757D01*
X109501557Y-102161588D01*
X109405051Y-101972184D01*
X109405049Y-101972181D01*
X109405048Y-101972179D01*
X109280109Y-101800213D01*
X109129786Y-101649890D01*
X108957820Y-101524951D01*
X108768414Y-101428444D01*
X108768413Y-101428443D01*
X108768412Y-101428443D01*
X108566243Y-101362754D01*
X108566241Y-101362753D01*
X108566240Y-101362753D01*
X108401177Y-101336610D01*
X108356287Y-101329500D01*
X108143713Y-101329500D01*
X108098823Y-101336610D01*
X107933760Y-101362753D01*
X107731585Y-101428444D01*
X107542179Y-101524951D01*
X107370215Y-101649889D01*
X107231035Y-101789069D01*
X107169712Y-101822553D01*
X107100020Y-101817569D01*
X107044087Y-101775697D01*
X107037815Y-101766484D01*
X106942315Y-101611654D01*
X106818345Y-101487684D01*
X106669124Y-101395643D01*
X106669119Y-101395641D01*
X106502697Y-101340494D01*
X106502690Y-101340493D01*
X106399986Y-101330000D01*
X106000000Y-101330000D01*
X106000000Y-102381517D01*
X105981591Y-102370889D01*
X105828991Y-102330000D01*
X105671009Y-102330000D01*
X105518409Y-102370889D01*
X105500000Y-102381517D01*
X105500000Y-101330000D01*
X105100028Y-101330000D01*
X105100012Y-101330001D01*
X104997302Y-101340494D01*
X104830880Y-101395641D01*
X104830875Y-101395643D01*
X104681654Y-101487684D01*
X104557684Y-101611654D01*
X104465643Y-101760875D01*
X104465641Y-101760880D01*
X104410494Y-101927302D01*
X104410493Y-101927309D01*
X104400000Y-102030013D01*
X104400000Y-102680000D01*
X105201518Y-102680000D01*
X105190889Y-102698409D01*
X105150000Y-102851009D01*
X105150000Y-103008991D01*
X105190889Y-103161591D01*
X105201518Y-103180000D01*
X104400001Y-103180000D01*
X104400001Y-103829986D01*
X104410494Y-103932698D01*
X104428321Y-103986497D01*
X104430723Y-104056325D01*
X104394991Y-104116367D01*
X104332470Y-104147559D01*
X104310615Y-104149500D01*
X99620098Y-104149500D01*
X99553059Y-104129815D01*
X99532417Y-104113181D01*
X98875352Y-103456116D01*
X98841867Y-103394793D01*
X98840560Y-103349042D01*
X98850500Y-103286287D01*
X98850500Y-102573713D01*
X98817246Y-102363757D01*
X98751557Y-102161588D01*
X98655051Y-101972184D01*
X98655049Y-101972181D01*
X98655048Y-101972179D01*
X98530109Y-101800213D01*
X98379786Y-101649890D01*
X98207820Y-101524951D01*
X98018414Y-101428444D01*
X98018413Y-101428443D01*
X98018412Y-101428443D01*
X97816243Y-101362754D01*
X97816241Y-101362753D01*
X97816240Y-101362753D01*
X97651177Y-101336610D01*
X97606287Y-101329500D01*
X97393713Y-101329500D01*
X97348823Y-101336610D01*
X97183760Y-101362753D01*
X96981585Y-101428444D01*
X96792179Y-101524951D01*
X96620215Y-101649889D01*
X96481035Y-101789069D01*
X96419712Y-101822553D01*
X96350020Y-101817569D01*
X96294087Y-101775697D01*
X96287815Y-101766484D01*
X96192315Y-101611654D01*
X96068345Y-101487684D01*
X95919124Y-101395643D01*
X95919119Y-101395641D01*
X95752697Y-101340494D01*
X95752690Y-101340493D01*
X95649986Y-101330000D01*
X95250000Y-101330000D01*
X95250000Y-102381517D01*
X95231591Y-102370889D01*
X95078991Y-102330000D01*
X94921009Y-102330000D01*
X94768409Y-102370889D01*
X94750000Y-102381517D01*
X94750000Y-101330000D01*
X94350028Y-101330000D01*
X94350012Y-101330001D01*
X94247302Y-101340494D01*
X94080880Y-101395641D01*
X94080875Y-101395643D01*
X93931654Y-101487684D01*
X93807684Y-101611654D01*
X93715643Y-101760875D01*
X93715641Y-101760880D01*
X93660494Y-101927302D01*
X93660493Y-101927309D01*
X93650000Y-102030013D01*
X93650000Y-102680000D01*
X94451518Y-102680000D01*
X94440889Y-102698409D01*
X94400000Y-102851009D01*
X94400000Y-103008991D01*
X94440889Y-103161591D01*
X94451518Y-103180000D01*
X93650001Y-103180000D01*
X93650001Y-103829986D01*
X93660494Y-103932697D01*
X93715641Y-104099119D01*
X93715643Y-104099124D01*
X93807684Y-104248345D01*
X93931654Y-104372315D01*
X94080875Y-104464356D01*
X94080880Y-104464358D01*
X94247302Y-104519505D01*
X94247309Y-104519506D01*
X94350019Y-104529999D01*
X94749999Y-104529999D01*
X94750000Y-104529998D01*
X94750000Y-103478482D01*
X94768409Y-103489111D01*
X94921009Y-103530000D01*
X95078991Y-103530000D01*
X95231591Y-103489111D01*
X95250000Y-103478482D01*
X95250000Y-104529999D01*
X95649972Y-104529999D01*
X95649986Y-104529998D01*
X95752697Y-104519505D01*
X95919119Y-104464358D01*
X95919124Y-104464356D01*
X96068345Y-104372315D01*
X96192317Y-104248343D01*
X96287815Y-104093516D01*
X96339763Y-104046791D01*
X96408725Y-104035568D01*
X96472808Y-104063412D01*
X96481035Y-104070931D01*
X96620213Y-104210109D01*
X96792179Y-104335048D01*
X96792181Y-104335049D01*
X96792184Y-104335051D01*
X96981588Y-104431557D01*
X97183757Y-104497246D01*
X97393713Y-104530500D01*
X97393714Y-104530500D01*
X97606286Y-104530500D01*
X97606287Y-104530500D01*
X97816243Y-104497246D01*
X98018412Y-104431557D01*
X98026850Y-104427257D01*
X98095516Y-104414361D01*
X98160257Y-104440636D01*
X98170825Y-104450061D01*
X98951284Y-105230520D01*
X98951286Y-105230521D01*
X98951290Y-105230524D01*
X99086023Y-105308311D01*
X99088216Y-105309577D01*
X99240943Y-105350501D01*
X99240945Y-105350501D01*
X99406654Y-105350501D01*
X99406670Y-105350500D01*
X106401928Y-105350500D01*
X106468967Y-105370185D01*
X106514722Y-105422989D01*
X106524666Y-105492147D01*
X106518970Y-105515454D01*
X106464630Y-105670750D01*
X106454837Y-105757667D01*
X106427770Y-105822081D01*
X106419298Y-105831464D01*
X105137584Y-107113181D01*
X105076261Y-107146666D01*
X105049903Y-107149500D01*
X94050097Y-107149500D01*
X93983058Y-107129815D01*
X93962416Y-107113181D01*
X89083497Y-102234262D01*
X89050012Y-102172939D01*
X89054996Y-102103247D01*
X89070860Y-102073696D01*
X89111256Y-102018095D01*
X89155051Y-101957816D01*
X89251557Y-101768412D01*
X89317246Y-101566243D01*
X89350500Y-101356287D01*
X89350500Y-101143713D01*
X89343918Y-101102155D01*
X115214000Y-101102155D01*
X115214000Y-102300000D01*
X116214000Y-102300000D01*
X116714000Y-102300000D01*
X117714000Y-102300000D01*
X117714000Y-101102172D01*
X117713999Y-101102155D01*
X117707598Y-101042627D01*
X117707596Y-101042620D01*
X117657354Y-100907913D01*
X117657350Y-100907906D01*
X117571190Y-100792812D01*
X117571187Y-100792809D01*
X117456093Y-100706649D01*
X117456086Y-100706645D01*
X117321379Y-100656403D01*
X117321372Y-100656401D01*
X117261844Y-100650000D01*
X116714000Y-100650000D01*
X116714000Y-102300000D01*
X116214000Y-102300000D01*
X116214000Y-100650000D01*
X115666155Y-100650000D01*
X115606627Y-100656401D01*
X115606620Y-100656403D01*
X115471913Y-100706645D01*
X115471906Y-100706649D01*
X115356812Y-100792809D01*
X115356809Y-100792812D01*
X115270649Y-100907906D01*
X115270645Y-100907913D01*
X115220403Y-101042620D01*
X115220401Y-101042627D01*
X115214000Y-101102155D01*
X89343918Y-101102155D01*
X89317246Y-100933757D01*
X89251557Y-100731588D01*
X89155051Y-100542184D01*
X89155049Y-100542181D01*
X89155048Y-100542179D01*
X89030109Y-100370213D01*
X88879786Y-100219890D01*
X88707820Y-100094951D01*
X88518414Y-99998444D01*
X88518413Y-99998443D01*
X88518412Y-99998443D01*
X88316243Y-99932754D01*
X88316241Y-99932753D01*
X88316240Y-99932753D01*
X88145047Y-99905639D01*
X88106287Y-99899500D01*
X87393713Y-99899500D01*
X87354953Y-99905639D01*
X87183760Y-99932753D01*
X86981585Y-99998444D01*
X86792179Y-100094951D01*
X86620213Y-100219890D01*
X86469890Y-100370213D01*
X86344951Y-100542179D01*
X86248444Y-100731585D01*
X86182753Y-100933760D01*
X86149500Y-101143713D01*
X81667384Y-101143713D01*
X81643402Y-100992299D01*
X81589873Y-100827555D01*
X81511232Y-100673212D01*
X81409414Y-100533072D01*
X81286928Y-100410586D01*
X81146788Y-100308768D01*
X80992445Y-100230127D01*
X80827701Y-100176598D01*
X80827699Y-100176597D01*
X80827698Y-100176597D01*
X80696271Y-100155781D01*
X80656611Y-100149500D01*
X80483389Y-100149500D01*
X80443728Y-100155781D01*
X80312302Y-100176597D01*
X80147552Y-100230128D01*
X79993211Y-100308768D01*
X79913256Y-100366859D01*
X79853072Y-100410586D01*
X79853070Y-100410588D01*
X79853069Y-100410588D01*
X79730588Y-100533069D01*
X79730588Y-100533070D01*
X79730586Y-100533072D01*
X79723966Y-100542184D01*
X79628768Y-100673211D01*
X79550128Y-100827552D01*
X79496597Y-100992302D01*
X79475245Y-101127116D01*
X79469500Y-101163389D01*
X73750500Y-101163389D01*
X73750500Y-95249992D01*
X76474671Y-95249992D01*
X76474671Y-95250007D01*
X76493964Y-95544363D01*
X76493965Y-95544373D01*
X76493966Y-95544380D01*
X76549531Y-95823730D01*
X76551518Y-95833716D01*
X76551521Y-95833730D01*
X76646349Y-96113080D01*
X76776825Y-96377660D01*
X76776829Y-96377667D01*
X76940725Y-96622955D01*
X77135241Y-96844758D01*
X77357044Y-97039274D01*
X77473280Y-97116940D01*
X77602335Y-97203172D01*
X77866923Y-97333652D01*
X78146278Y-97428481D01*
X78435620Y-97486034D01*
X78463888Y-97487886D01*
X78729993Y-97505329D01*
X78730000Y-97505329D01*
X78730007Y-97505329D01*
X78965675Y-97489881D01*
X79024380Y-97486034D01*
X79313722Y-97428481D01*
X79593077Y-97333652D01*
X79857665Y-97203172D01*
X80102957Y-97039273D01*
X80324758Y-96844758D01*
X80519273Y-96622957D01*
X80683172Y-96377665D01*
X80813652Y-96113077D01*
X80908481Y-95833722D01*
X80942362Y-95663389D01*
X93899500Y-95663389D01*
X93899500Y-95836611D01*
X93926598Y-96007701D01*
X93980127Y-96172445D01*
X94058768Y-96326788D01*
X94160586Y-96466928D01*
X94283072Y-96589414D01*
X94423212Y-96691232D01*
X94577555Y-96769873D01*
X94742299Y-96823402D01*
X94913389Y-96850500D01*
X94913390Y-96850500D01*
X95086610Y-96850500D01*
X95086611Y-96850500D01*
X95257701Y-96823402D01*
X95422445Y-96769873D01*
X95576788Y-96691232D01*
X95716928Y-96589414D01*
X95839414Y-96466928D01*
X95941232Y-96326788D01*
X96019873Y-96172445D01*
X96073402Y-96007701D01*
X96100500Y-95836611D01*
X96100500Y-95663389D01*
X96399500Y-95663389D01*
X96399500Y-95836611D01*
X96426598Y-96007701D01*
X96480127Y-96172445D01*
X96558768Y-96326788D01*
X96660586Y-96466928D01*
X96783072Y-96589414D01*
X96923212Y-96691232D01*
X97077555Y-96769873D01*
X97242299Y-96823402D01*
X97413389Y-96850500D01*
X97413390Y-96850500D01*
X97586610Y-96850500D01*
X97586611Y-96850500D01*
X97757701Y-96823402D01*
X97922445Y-96769873D01*
X98076788Y-96691232D01*
X98216928Y-96589414D01*
X98339414Y-96466928D01*
X98441232Y-96326788D01*
X98519873Y-96172445D01*
X98573402Y-96007701D01*
X98600500Y-95836611D01*
X98600500Y-95663389D01*
X104649500Y-95663389D01*
X104649500Y-95836611D01*
X104676598Y-96007701D01*
X104730127Y-96172445D01*
X104808768Y-96326788D01*
X104910586Y-96466928D01*
X105033072Y-96589414D01*
X105173212Y-96691232D01*
X105327555Y-96769873D01*
X105492299Y-96823402D01*
X105663389Y-96850500D01*
X105663390Y-96850500D01*
X105836610Y-96850500D01*
X105836611Y-96850500D01*
X106007701Y-96823402D01*
X106172445Y-96769873D01*
X106326788Y-96691232D01*
X106466928Y-96589414D01*
X106589414Y-96466928D01*
X106691232Y-96326788D01*
X106769873Y-96172445D01*
X106823402Y-96007701D01*
X106850500Y-95836611D01*
X106850500Y-95663389D01*
X107149500Y-95663389D01*
X107149500Y-95836611D01*
X107176598Y-96007701D01*
X107230127Y-96172445D01*
X107308768Y-96326788D01*
X107410586Y-96466928D01*
X107533072Y-96589414D01*
X107673212Y-96691232D01*
X107827555Y-96769873D01*
X107992299Y-96823402D01*
X108163389Y-96850500D01*
X108163390Y-96850500D01*
X108336610Y-96850500D01*
X108336611Y-96850500D01*
X108507701Y-96823402D01*
X108672445Y-96769873D01*
X108826788Y-96691232D01*
X108849149Y-96674986D01*
X112025001Y-96674986D01*
X112035494Y-96777697D01*
X112090641Y-96944119D01*
X112090643Y-96944124D01*
X112182684Y-97093345D01*
X112306654Y-97217315D01*
X112455875Y-97309356D01*
X112455880Y-97309358D01*
X112622302Y-97364505D01*
X112622309Y-97364506D01*
X112725019Y-97374999D01*
X112999999Y-97374999D01*
X113000000Y-97374998D01*
X113000000Y-96537500D01*
X112025001Y-96537500D01*
X112025001Y-96674986D01*
X108849149Y-96674986D01*
X108966928Y-96589414D01*
X109089414Y-96466928D01*
X109191232Y-96326788D01*
X109269873Y-96172445D01*
X109323402Y-96007701D01*
X109350500Y-95836611D01*
X109350500Y-95663389D01*
X109323402Y-95492299D01*
X109269873Y-95327555D01*
X109191232Y-95173212D01*
X109089414Y-95033072D01*
X108966928Y-94910586D01*
X108826788Y-94808768D01*
X108672445Y-94730127D01*
X108507701Y-94676598D01*
X108507699Y-94676597D01*
X108507698Y-94676597D01*
X108376271Y-94655781D01*
X108336611Y-94649500D01*
X108163389Y-94649500D01*
X108123728Y-94655781D01*
X107992302Y-94676597D01*
X107827552Y-94730128D01*
X107673211Y-94808768D01*
X107593256Y-94866859D01*
X107533072Y-94910586D01*
X107533070Y-94910588D01*
X107533069Y-94910588D01*
X107410588Y-95033069D01*
X107410588Y-95033070D01*
X107410586Y-95033072D01*
X107366859Y-95093256D01*
X107308768Y-95173211D01*
X107230128Y-95327552D01*
X107176597Y-95492302D01*
X107163420Y-95575499D01*
X107149500Y-95663389D01*
X106850500Y-95663389D01*
X106823402Y-95492299D01*
X106769873Y-95327555D01*
X106691232Y-95173212D01*
X106589414Y-95033072D01*
X106466928Y-94910586D01*
X106326788Y-94808768D01*
X106172445Y-94730127D01*
X106007701Y-94676598D01*
X106007699Y-94676597D01*
X106007698Y-94676597D01*
X105876271Y-94655781D01*
X105836611Y-94649500D01*
X105663389Y-94649500D01*
X105623728Y-94655781D01*
X105492302Y-94676597D01*
X105327552Y-94730128D01*
X105173211Y-94808768D01*
X105093256Y-94866859D01*
X105033072Y-94910586D01*
X105033070Y-94910588D01*
X105033069Y-94910588D01*
X104910588Y-95033069D01*
X104910588Y-95033070D01*
X104910586Y-95033072D01*
X104866859Y-95093256D01*
X104808768Y-95173211D01*
X104730128Y-95327552D01*
X104676597Y-95492302D01*
X104663420Y-95575499D01*
X104649500Y-95663389D01*
X98600500Y-95663389D01*
X98573402Y-95492299D01*
X98519873Y-95327555D01*
X98441232Y-95173212D01*
X98339414Y-95033072D01*
X98216928Y-94910586D01*
X98076788Y-94808768D01*
X97922445Y-94730127D01*
X97757701Y-94676598D01*
X97757699Y-94676597D01*
X97757698Y-94676597D01*
X97626271Y-94655781D01*
X97586611Y-94649500D01*
X97413389Y-94649500D01*
X97373728Y-94655781D01*
X97242302Y-94676597D01*
X97077552Y-94730128D01*
X96923211Y-94808768D01*
X96843256Y-94866859D01*
X96783072Y-94910586D01*
X96783070Y-94910588D01*
X96783069Y-94910588D01*
X96660588Y-95033069D01*
X96660588Y-95033070D01*
X96660586Y-95033072D01*
X96616859Y-95093256D01*
X96558768Y-95173211D01*
X96480128Y-95327552D01*
X96426597Y-95492302D01*
X96413420Y-95575499D01*
X96399500Y-95663389D01*
X96100500Y-95663389D01*
X96073402Y-95492299D01*
X96019873Y-95327555D01*
X95941232Y-95173212D01*
X95839414Y-95033072D01*
X95716928Y-94910586D01*
X95576788Y-94808768D01*
X95422445Y-94730127D01*
X95257701Y-94676598D01*
X95257699Y-94676597D01*
X95257698Y-94676597D01*
X95126271Y-94655781D01*
X95086611Y-94649500D01*
X94913389Y-94649500D01*
X94873728Y-94655781D01*
X94742302Y-94676597D01*
X94577552Y-94730128D01*
X94423211Y-94808768D01*
X94343256Y-94866859D01*
X94283072Y-94910586D01*
X94283070Y-94910588D01*
X94283069Y-94910588D01*
X94160588Y-95033069D01*
X94160588Y-95033070D01*
X94160586Y-95033072D01*
X94116859Y-95093256D01*
X94058768Y-95173211D01*
X93980128Y-95327552D01*
X93926597Y-95492302D01*
X93913420Y-95575499D01*
X93899500Y-95663389D01*
X80942362Y-95663389D01*
X80966034Y-95544380D01*
X80978393Y-95355826D01*
X80985329Y-95250007D01*
X80985329Y-95249992D01*
X80966035Y-94955636D01*
X80966034Y-94955620D01*
X80908481Y-94666278D01*
X80813652Y-94386923D01*
X80683172Y-94122336D01*
X80676490Y-94112336D01*
X80595082Y-93990500D01*
X80519273Y-93877043D01*
X80473616Y-93824981D01*
X80324758Y-93655241D01*
X80102955Y-93460725D01*
X79857667Y-93296829D01*
X79857660Y-93296825D01*
X79593080Y-93166349D01*
X79313730Y-93071521D01*
X79313724Y-93071519D01*
X79313722Y-93071519D01*
X79024380Y-93013966D01*
X79024373Y-93013965D01*
X79024363Y-93013964D01*
X78730007Y-92994671D01*
X78729993Y-92994671D01*
X78435636Y-93013964D01*
X78435624Y-93013965D01*
X78435620Y-93013966D01*
X78435612Y-93013967D01*
X78435609Y-93013968D01*
X78146283Y-93071518D01*
X78146269Y-93071521D01*
X77866919Y-93166349D01*
X77602334Y-93296828D01*
X77357041Y-93460728D01*
X77135241Y-93655241D01*
X76940728Y-93877041D01*
X76776828Y-94122334D01*
X76646349Y-94386919D01*
X76551521Y-94666269D01*
X76551518Y-94666283D01*
X76493968Y-94955609D01*
X76493964Y-94955636D01*
X76474671Y-95249992D01*
X73750500Y-95249992D01*
X73750500Y-91374500D01*
X73770185Y-91307461D01*
X73822989Y-91261706D01*
X73874500Y-91250500D01*
X212625500Y-91250500D01*
X212692539Y-91270185D01*
G37*
%TD.AperFunction*%
%TD*%
M02*
