M48
; DRILL file {KiCad 8.0.3} date 2025-04-13T18:48:35-0700
; FORMAT={-:-/ absolute / inch / decimal}
; #@! TF.CreationDate,2025-04-13T18:48:35-07:00
; #@! TF.GenerationSoftware,Kicad,Pcbnew,8.0.3
; #@! TF.FileFunction,Plated,1,2,PTH
FMAT,2
INCH
; #@! TA.AperFunction,Plated,PTH,ViaDrill
T1C0.0118
; #@! TA.AperFunction,Plated,PTH,ComponentDrill
T2C0.0315
; #@! TA.AperFunction,Plated,PTH,ComponentDrill
T3C0.0394
; #@! TA.AperFunction,Plated,PTH,ComponentDrill
T4C0.0402
; #@! TA.AperFunction,Plated,PTH,ComponentDrill
T5C0.0430
; #@! TA.AperFunction,Plated,PTH,ComponentDrill
T6C0.0433
; #@! TA.AperFunction,Plated,PTH,ComponentDrill
T7C0.0450
; #@! TA.AperFunction,Plated,PTH,ComponentDrill
T8C0.0472
; #@! TA.AperFunction,Plated,PTH,ComponentDrill
T9C0.0512
%
G90
G05
T1
X1.0039Y-1.9291
X1.0039Y-2.4016
X1.0827Y-3.4291
X1.1417Y-2.4409
X1.1614Y-3.1693
X1.1678Y-3.4385
X1.21Y-1.29
X1.2205Y-3.6614
X1.2795Y-2.0669
X1.2795Y-2.115
X1.3Y-1.55
X1.3031Y-1.62
X1.31Y-1.58
X1.3189Y-3.7205
X1.3947Y-3.26
X1.3976Y-2.74
X1.43Y-1.4164
X1.4697Y-1.8797
X1.4764Y-2.1654
X1.4961Y-3.7008
X1.497Y-1.8395
X1.5157Y-3.1693
X1.5551Y-1.76
X1.63Y-1.3
X1.64Y-2.22
X1.65Y-1.27
X1.6732Y-4.0138
X1.7Y-4.13
X1.7126Y-2.4213
X1.73Y-1.87
X1.74Y-1.96
X1.74Y-2.09
X1.75Y-3.17
X1.75Y-3.311
X1.752Y-2.82
X1.77Y-2.12
X1.7717Y-3.6614
X1.78Y-4.26
X1.79Y-1.77
X1.83Y-4.13
X1.8307Y-2.874
X1.8701Y-1.1417
X1.8852Y-3.0952
X1.9552Y-3.0252
X1.99Y-1.76
X2.06Y-1.4164
X2.11Y-1.44
X2.1142Y-1.2205
X2.1378Y-1.3583
X2.1378Y-1.4633
X2.1614Y-1.08
X2.18Y-4.06
X2.2087Y-1.2205
X2.2087Y-1.3583
X2.2244Y-2.4213
X2.2402Y-1.5354
X2.2502Y-3.3658
X2.36Y-4.21
X2.3622Y-1.0827
X2.3622Y-1.2795
X2.3622Y-2.49
X2.37Y-2.72
X2.5197Y-3.0906
X2.5224Y-2.7193
X2.56Y-4.06
X2.57Y-4.26
X2.6378Y-3.622
X2.645Y-1.4101
X2.6476Y-2.1752
X2.6969Y-1.3189
X2.6969Y-2.3228
X2.6969Y-2.9134
X2.6998Y-3.3298
X2.7756Y-2.1654
X2.78Y-2.3228
X2.815Y-1.5157
X2.874Y-3.3071
X2.9528Y-1.7126
X2.9912Y-1.6588
X2.9921Y-1.752
X3.038Y-1.4305
X3.038Y-1.7836
X3.1693Y-1.9134
X3.2087Y-1.03
X3.5433Y-1.3386
X4.3701Y-4.1732
X4.4882Y-4.0945
X4.5276Y-4.2559
X4.6025Y-3.9801
X4.6218Y-4.248
X4.6526Y-3.878
X4.6654Y-4.248
X4.7244Y-4.2126
X4.9213Y-3.9961
X5.23Y-1.32
X5.3Y-1.32
T2
X2.0941Y-2.9421
X2.0941Y-3.2421
X2.1941Y-2.9421
X2.1941Y-3.2421
X2.2941Y-2.9421
X2.2941Y-3.2421
X2.3941Y-2.9421
X2.3941Y-3.2421
T3
X3.7772Y-1.0827
X3.7772Y-1.378
X5.2362Y-2.8937
X5.2362Y-3.0709
T4
X2.115Y-3.563
X2.115Y-4.163
X2.215Y-3.563
X2.215Y-4.163
X2.315Y-3.563
X2.315Y-4.163
X2.415Y-3.563
X2.415Y-4.163
X2.515Y-3.563
X2.515Y-4.163
X2.615Y-3.563
X2.615Y-4.163
X2.715Y-3.563
X2.715Y-4.163
X2.815Y-3.563
X2.815Y-4.163
X2.915Y-3.563
X2.915Y-4.163
X3.015Y-3.563
X3.015Y-4.163
X3.115Y-3.563
X3.115Y-4.163
X3.215Y-3.563
X3.215Y-4.163
X3.315Y-3.563
X3.315Y-4.163
X3.415Y-3.563
X3.415Y-4.163
X3.515Y-3.563
X3.515Y-4.163
T5
X2.3106Y-1.6907
X2.3106Y-1.7907
X2.3106Y-2.0907
X2.3106Y-2.3907
X2.6106Y-1.6907
X2.6106Y-1.7907
T6
X0.9024Y-2.0276
X0.9039Y-2.2244
X1.0024Y-2.0276
X1.0039Y-2.2244
X1.1024Y-2.0276
X1.1039Y-2.2244
T7
X3.0055Y-2.6181
X3.0055Y-3.0181
X3.3465Y-1.6732
X3.3465Y-2.0732
X3.3465Y-2.3732
X3.4055Y-2.6181
X3.4055Y-3.0181
X3.7055Y-2.6181
X3.7055Y-3.0181
X3.7465Y-1.6732
X3.7465Y-2.0732
X3.7465Y-2.3732
T8
X0.8921Y-1.1516
X0.8921Y-1.25
X0.8921Y-1.3484
X0.8921Y-1.4469
X0.8921Y-1.5453
X0.8921Y-1.6437
X0.9252Y-2.5787
X0.9252Y-2.6772
X0.9252Y-2.7756
X0.9252Y-2.874
X0.9252Y-2.9724
X0.9252Y-3.0709
X0.9252Y-3.1693
X0.9252Y-3.2677
X0.987Y-3.5335
X0.987Y-3.6319
X0.987Y-3.7303
X0.987Y-3.8287
X0.9906Y-1.1516
X0.9906Y-1.25
X0.9906Y-1.3484
X0.9906Y-1.4469
X0.9906Y-1.5453
X0.9906Y-1.6437
X1.0236Y-2.5787
X1.0236Y-2.6772
X1.0236Y-2.7756
X1.0236Y-2.874
X1.0236Y-2.9724
X1.0236Y-3.0709
X1.0236Y-3.1693
X1.0236Y-3.2677
X1.2616Y-4.1863
X1.36Y-4.1863
X1.4584Y-4.1863
X1.565Y-0.9252
X1.6634Y-0.9252
X1.7618Y-0.9252
X2.0866Y-0.9252
X2.185Y-0.9252
X2.5787Y-0.927
X2.6772Y-0.927
X2.7756Y-0.927
X2.874Y-0.927
X4.8917Y-1.0799
X4.9902Y-1.0799
X5.2264Y-0.9646
X5.3248Y-0.9646
X5.5146Y-2.9035
X5.5146Y-3.002
X5.561Y-1.3555
X5.6594Y-1.3555
T9
X4.4268Y-1.378
X4.5646Y-1.0827
M30
