%TF.GenerationSoftware,KiCad,Pcbnew,8.0.3*%
%TF.CreationDate,2025-04-13T18:48:38-07:00*%
%TF.ProjectId,Accumulator_Board,41636375-6d75-46c6-9174-6f725f426f61,4.2*%
%TF.SameCoordinates,Original*%
%TF.FileFunction,Copper,L1,Top*%
%TF.FilePolarity,Positive*%
%FSLAX46Y46*%
G04 Gerber Fmt 4.6, Leading zero omitted, Abs format (unit mm)*
G04 Created by KiCad (PCBNEW 8.0.3) date 2025-04-13 18:48:38*
%MOMM*%
%LPD*%
G01*
G04 APERTURE LIST*
G04 Aperture macros list*
%AMRoundRect*
0 Rectangle with rounded corners*
0 $1 Rounding radius*
0 $2 $3 $4 $5 $6 $7 $8 $9 X,Y pos of 4 corners*
0 Add a 4 corners polygon primitive as box body*
4,1,4,$2,$3,$4,$5,$6,$7,$8,$9,$2,$3,0*
0 Add four circle primitives for the rounded corners*
1,1,$1+$1,$2,$3*
1,1,$1+$1,$4,$5*
1,1,$1+$1,$6,$7*
1,1,$1+$1,$8,$9*
0 Add four rect primitives between the rounded corners*
20,1,$1+$1,$2,$3,$4,$5,0*
20,1,$1+$1,$4,$5,$6,$7,0*
20,1,$1+$1,$6,$7,$8,$9,0*
20,1,$1+$1,$8,$9,$2,$3,0*%
%AMFreePoly0*
4,1,22,0.945671,0.830970,1.026777,0.776777,1.080970,0.695671,1.100000,0.600000,1.100000,-0.600000,1.080970,-0.695671,1.026777,-0.776777,0.945671,-0.830970,0.850000,-0.850000,-0.450000,-0.850000,-0.545671,-0.830970,-0.626777,-0.776777,-1.026777,-0.376777,-1.080970,-0.295671,-1.100000,-0.200000,-1.100000,0.600000,-1.080970,0.695671,-1.026777,0.776777,-0.945671,0.830970,-0.850000,0.850000,
0.850000,0.850000,0.945671,0.830970,0.945671,0.830970,$1*%
G04 Aperture macros list end*
%TA.AperFunction,Conductor*%
%ADD10C,0.200000*%
%TD*%
%TA.AperFunction,EtchedComponent*%
%ADD11C,0.000000*%
%TD*%
%TA.AperFunction,SMDPad,CuDef*%
%ADD12RoundRect,0.250000X0.350000X0.450000X-0.350000X0.450000X-0.350000X-0.450000X0.350000X-0.450000X0*%
%TD*%
%TA.AperFunction,ComponentPad*%
%ADD13FreePoly0,270.000000*%
%TD*%
%TA.AperFunction,ComponentPad*%
%ADD14O,1.700000X2.200000*%
%TD*%
%TA.AperFunction,SMDPad,CuDef*%
%ADD15RoundRect,0.250000X0.450000X-0.350000X0.450000X0.350000X-0.450000X0.350000X-0.450000X-0.350000X0*%
%TD*%
%TA.AperFunction,SMDPad,CuDef*%
%ADD16RoundRect,0.250000X-0.350000X-0.450000X0.350000X-0.450000X0.350000X0.450000X-0.350000X0.450000X0*%
%TD*%
%TA.AperFunction,ComponentPad*%
%ADD17FreePoly0,90.000000*%
%TD*%
%TA.AperFunction,SMDPad,CuDef*%
%ADD18RoundRect,0.250000X-0.337500X-0.475000X0.337500X-0.475000X0.337500X0.475000X-0.337500X0.475000X0*%
%TD*%
%TA.AperFunction,SMDPad,CuDef*%
%ADD19RoundRect,0.150000X0.150000X-0.825000X0.150000X0.825000X-0.150000X0.825000X-0.150000X-0.825000X0*%
%TD*%
%TA.AperFunction,ComponentPad*%
%ADD20R,1.600000X1.600000*%
%TD*%
%TA.AperFunction,ComponentPad*%
%ADD21O,1.600000X1.600000*%
%TD*%
%TA.AperFunction,ComponentPad*%
%ADD22C,1.608074*%
%TD*%
%TA.AperFunction,SMDPad,CuDef*%
%ADD23RoundRect,0.249999X1.075001X-0.512501X1.075001X0.512501X-1.075001X0.512501X-1.075001X-0.512501X0*%
%TD*%
%TA.AperFunction,ComponentPad*%
%ADD24R,1.905000X2.000000*%
%TD*%
%TA.AperFunction,ComponentPad*%
%ADD25O,1.905000X2.000000*%
%TD*%
%TA.AperFunction,ComponentPad*%
%ADD26FreePoly0,180.000000*%
%TD*%
%TA.AperFunction,ComponentPad*%
%ADD27O,2.200000X1.700000*%
%TD*%
%TA.AperFunction,SMDPad,CuDef*%
%ADD28RoundRect,0.162500X1.012500X0.162500X-1.012500X0.162500X-1.012500X-0.162500X1.012500X-0.162500X0*%
%TD*%
%TA.AperFunction,ComponentPad*%
%ADD29RoundRect,0.625000X-0.625000X-0.625000X0.625000X-0.625000X0.625000X0.625000X-0.625000X0.625000X0*%
%TD*%
%TA.AperFunction,ComponentPad*%
%ADD30C,2.800000*%
%TD*%
%TA.AperFunction,ComponentPad*%
%ADD31C,2.500000*%
%TD*%
%TA.AperFunction,SMDPad,CuDef*%
%ADD32RoundRect,0.250000X-0.475000X0.337500X-0.475000X-0.337500X0.475000X-0.337500X0.475000X0.337500X0*%
%TD*%
%TA.AperFunction,SMDPad,CuDef*%
%ADD33RoundRect,0.150000X0.825000X0.150000X-0.825000X0.150000X-0.825000X-0.150000X0.825000X-0.150000X0*%
%TD*%
%TA.AperFunction,SMDPad,CuDef*%
%ADD34RoundRect,0.100000X-0.712500X-0.100000X0.712500X-0.100000X0.712500X0.100000X-0.712500X0.100000X0*%
%TD*%
%TA.AperFunction,ComponentPad*%
%ADD35RoundRect,0.250000X0.600000X0.600000X-0.600000X0.600000X-0.600000X-0.600000X0.600000X-0.600000X0*%
%TD*%
%TA.AperFunction,ComponentPad*%
%ADD36C,1.700000*%
%TD*%
%TA.AperFunction,ComponentPad*%
%ADD37RoundRect,0.250000X0.600000X-0.850000X0.600000X0.850000X-0.600000X0.850000X-0.600000X-0.850000X0*%
%TD*%
%TA.AperFunction,SMDPad,CuDef*%
%ADD38RoundRect,0.150000X-0.825000X-0.150000X0.825000X-0.150000X0.825000X0.150000X-0.825000X0.150000X0*%
%TD*%
%TA.AperFunction,SMDPad,CuDef*%
%ADD39RoundRect,0.250000X-0.450000X0.350000X-0.450000X-0.350000X0.450000X-0.350000X0.450000X0.350000X0*%
%TD*%
%TA.AperFunction,SMDPad,CuDef*%
%ADD40RoundRect,0.249999X-1.075001X0.512501X-1.075001X-0.512501X1.075001X-0.512501X1.075001X0.512501X0*%
%TD*%
%TA.AperFunction,ComponentPad*%
%ADD41C,2.000000*%
%TD*%
%TA.AperFunction,SMDPad,CuDef*%
%ADD42RoundRect,0.249999X0.512501X1.075001X-0.512501X1.075001X-0.512501X-1.075001X0.512501X-1.075001X0*%
%TD*%
%TA.AperFunction,SMDPad,CuDef*%
%ADD43RoundRect,0.075000X0.075000X-0.650000X0.075000X0.650000X-0.075000X0.650000X-0.075000X-0.650000X0*%
%TD*%
%TA.AperFunction,SMDPad,CuDef*%
%ADD44R,0.533400X1.397000*%
%TD*%
%TA.AperFunction,SMDPad,CuDef*%
%ADD45RoundRect,0.250000X0.337500X0.475000X-0.337500X0.475000X-0.337500X-0.475000X0.337500X-0.475000X0*%
%TD*%
%TA.AperFunction,ComponentPad*%
%ADD46C,1.651000*%
%TD*%
%TA.AperFunction,SMDPad,CuDef*%
%ADD47RoundRect,0.249999X-0.512501X-1.075001X0.512501X-1.075001X0.512501X1.075001X-0.512501X1.075001X0*%
%TD*%
%TA.AperFunction,ComponentPad*%
%ADD48RoundRect,0.250000X0.850000X0.600000X-0.850000X0.600000X-0.850000X-0.600000X0.850000X-0.600000X0*%
%TD*%
%TA.AperFunction,SMDPad,CuDef*%
%ADD49R,1.020000X1.890000*%
%TD*%
%TA.AperFunction,SMDPad,CuDef*%
%ADD50RoundRect,0.150000X-0.150000X0.825000X-0.150000X-0.825000X0.150000X-0.825000X0.150000X0.825000X0*%
%TD*%
%TA.AperFunction,SMDPad,CuDef*%
%ADD51R,1.200000X1.200000*%
%TD*%
%TA.AperFunction,ComponentPad*%
%ADD52R,1.530000X1.530000*%
%TD*%
%TA.AperFunction,ComponentPad*%
%ADD53C,1.530000*%
%TD*%
%TA.AperFunction,ViaPad*%
%ADD54C,0.600000*%
%TD*%
%TA.AperFunction,Conductor*%
%ADD55C,0.300000*%
%TD*%
%TA.AperFunction,Conductor*%
%ADD56C,0.400000*%
%TD*%
%TA.AperFunction,Conductor*%
%ADD57C,1.000000*%
%TD*%
G04 APERTURE END LIST*
%TO.N,Net-(D8-A)*%
D10*
X111250000Y-39500000D02*
X146000000Y-39500000D01*
X146000000Y-69500000D01*
X111250000Y-69500000D01*
X111250000Y-39500000D01*
%TA.AperFunction,Conductor*%
G36*
X111250000Y-39500000D02*
G01*
X146000000Y-39500000D01*
X146000000Y-69500000D01*
X111250000Y-69500000D01*
X111250000Y-39500000D01*
G37*
%TD.AperFunction*%
D11*
%TA.AperFunction,EtchedComponent*%
%TD*%
%TO.C,U15*%
G36*
X132766700Y-38927100D02*
G01*
X133300100Y-39435100D01*
X133300100Y-42102100D01*
X132912750Y-42102100D01*
X132087250Y-42102100D01*
X131699900Y-42102100D01*
X131699900Y-39435100D01*
X132233300Y-38927100D01*
X132233300Y-38406400D01*
X132766700Y-38406400D01*
X132766700Y-38927100D01*
G37*
%TD.AperFunction*%
D12*
%TO.P,R24,1*%
%TO.N,+3.3V*%
X44180000Y-106426000D03*
%TO.P,R24,2*%
%TO.N,/ACC_Temp_Sense*%
X42180000Y-106426000D03*
%TD*%
D13*
%TO.P,J3,1,Pin_1*%
%TO.N,GND*%
X37044000Y-106332000D03*
D14*
%TO.P,J3,2,Pin_2*%
%TO.N,/ACC_Temp_Sense*%
X34544000Y-106332000D03*
%TO.P,J3,3,Pin_3*%
%TO.N,+5V*%
X32044000Y-106332000D03*
%TD*%
D15*
%TO.P,R10,1*%
%TO.N,/MISO*%
X123000000Y-108500000D03*
%TO.P,R10,2*%
%TO.N,+3.3V*%
X123000000Y-106500000D03*
%TD*%
D13*
%TO.P,J8,1,1*%
%TO.N,Net-(J8-Pad1)*%
X126750000Y-27430000D03*
D14*
%TO.P,J8,2,2*%
%TO.N,Net-(J8-Pad2)*%
X124250000Y-27430000D03*
%TD*%
D16*
%TO.P,R36,1*%
%TO.N,/GLV Voltage*%
X71000000Y-81000000D03*
%TO.P,R36,2*%
%TO.N,+12V*%
X73000000Y-81000000D03*
%TD*%
D12*
%TO.P,R6,1*%
%TO.N,GND*%
X44000000Y-93000000D03*
%TO.P,R6,2*%
%TO.N,Net-(U5A-+)*%
X42000000Y-93000000D03*
%TD*%
D17*
%TO.P,J1,1,1*%
%TO.N,/IMD_FAULT_12V*%
X39750000Y-23500000D03*
D14*
%TO.P,J1,2,2*%
%TO.N,+12V*%
X42250000Y-23500000D03*
%TO.P,J1,3,3*%
%TO.N,GND*%
X44750000Y-23500000D03*
%TD*%
D18*
%TO.P,C23,1*%
%TO.N,Net-(D8-A)*%
X131500000Y-35000000D03*
%TO.P,C23,2*%
%TO.N,/TS-*%
X133575000Y-35000000D03*
%TD*%
D15*
%TO.P,R29,1*%
%TO.N,+5V*%
X70000000Y-35557500D03*
%TO.P,R29,2*%
%TO.N,/BMS_LED_Control*%
X70000000Y-33557500D03*
%TD*%
D19*
%TO.P,Q1,1,S*%
%TO.N,GND*%
X60845000Y-32450000D03*
%TO.P,Q1,2,S*%
X62115000Y-32450000D03*
%TO.P,Q1,3,S*%
X63385000Y-32450000D03*
%TO.P,Q1,4,G*%
%TO.N,/Precharge_Control*%
X64655000Y-32450000D03*
%TO.P,Q1,5,D*%
%TO.N,/IR+_GND*%
X64655000Y-27500000D03*
%TO.P,Q1,6,D*%
X63385000Y-27500000D03*
%TO.P,Q1,7,D*%
X62115000Y-27500000D03*
%TO.P,Q1,8,D*%
X60845000Y-27500000D03*
%TD*%
D20*
%TO.P,U12,1,GND*%
%TO.N,GND*%
X60810000Y-74730000D03*
D21*
%TO.P,U12,2,TR*%
%TO.N,Net-(U12-THR)*%
X58270000Y-74730000D03*
%TO.P,U12,3,Q*%
%TO.N,Net-(U12-Q)*%
X55730000Y-74730000D03*
%TO.P,U12,4,R*%
%TO.N,+5V*%
X53190000Y-74730000D03*
%TO.P,U12,5,CV*%
%TO.N,unconnected-(U12-CV-Pad5)*%
X53190000Y-82350000D03*
%TO.P,U12,6,THR*%
%TO.N,Net-(U12-THR)*%
X55730000Y-82350000D03*
%TO.P,U12,7,DIS*%
%TO.N,unconnected-(U12-DIS-Pad7)*%
X58270000Y-82350000D03*
%TO.P,U12,8,VCC*%
%TO.N,+5V*%
X60810000Y-82350000D03*
%TD*%
D22*
%TO.P,K4,1*%
%TO.N,GND*%
X58690000Y-42944001D03*
%TO.P,K4,2*%
%TO.N,/LATCH_RL*%
X58690000Y-45484001D03*
%TO.P,K4,3*%
%TO.N,/Shutdown_ACC_Out*%
X58690000Y-53104001D03*
%TO.P,K4,4*%
%TO.N,/Shutdown_ACC_IL_TP*%
X58690000Y-60724001D03*
%TO.P,K4,5*%
%TO.N,Net-(D5-K)*%
X66310000Y-45484001D03*
%TO.P,K4,6*%
%TO.N,/SH_RESET*%
X66310000Y-42944001D03*
%TD*%
D23*
%TO.P,D2,1,K*%
%TO.N,+12V*%
X80000000Y-46837500D03*
%TO.P,D2,2,A*%
%TO.N,/BMS_RL*%
X80000000Y-42162500D03*
%TD*%
D24*
%TO.P,U9,1,IN*%
%TO.N,+12V*%
X28000000Y-51500000D03*
D25*
%TO.P,U9,2,GND*%
%TO.N,GND*%
X25460000Y-51500000D03*
%TO.P,U9,3,OUT*%
%TO.N,+5V*%
X22920000Y-51500000D03*
%TD*%
D26*
%TO.P,J5,1,1*%
%TO.N,/Iso SPI/extIsoSPI_N*%
X140070000Y-76250000D03*
D27*
%TO.P,J5,2,2*%
%TO.N,/Iso SPI/extIsoSPI_P*%
X140070000Y-73750000D03*
%TD*%
D28*
%TO.P,U1,1,VCC1*%
%TO.N,+3.3V*%
X44525000Y-78120000D03*
%TO.P,U1,2,RXD*%
%TO.N,/CAN1_RD*%
X44525000Y-75580000D03*
%TO.P,U1,3,TXD*%
%TO.N,/CAN1_TD*%
X44525000Y-73040000D03*
%TO.P,U1,4,GND1*%
%TO.N,GND*%
X44525000Y-70500000D03*
%TO.P,U1,5,GND2*%
X35475000Y-70500000D03*
%TO.P,U1,6,CANL*%
%TO.N,/CAN_L1*%
X35475000Y-73040000D03*
%TO.P,U1,7,CANH*%
%TO.N,/CAN_H1*%
X35475000Y-75580000D03*
%TO.P,U1,8,VCC2*%
%TO.N,+5V*%
X35475000Y-78120000D03*
%TD*%
D29*
%TO.P,K2,1*%
%TO.N,/IR+_12V*%
X95940000Y-35000000D03*
D30*
%TO.P,K2,2*%
%TO.N,Net-(J8-Pad1)*%
X112440000Y-35000000D03*
%TO.P,K2,3*%
%TO.N,Net-(J8-Pad2)*%
X115940000Y-27500000D03*
D31*
%TO.P,K2,4*%
%TO.N,Net-(D7-A)*%
X95940000Y-27500000D03*
%TD*%
D32*
%TO.P,C7,1*%
%TO.N,/Iso SPI/isoSPI_-*%
X120675000Y-96000000D03*
%TO.P,C7,2*%
%TO.N,Net-(C7-Pad2)*%
X120675000Y-98075000D03*
%TD*%
D33*
%TO.P,CR3,1,S*%
%TO.N,GND*%
X43475000Y-60810000D03*
%TO.P,CR3,2,S*%
X43475000Y-59540000D03*
%TO.P,CR3,3,S*%
X43475000Y-58270000D03*
%TO.P,CR3,4,G*%
%TO.N,Net-(CR3-G)*%
X43475000Y-57000000D03*
%TO.P,CR3,5,D*%
%TO.N,/BMS_RL*%
X38525000Y-57000000D03*
%TO.P,CR3,6,D*%
X38525000Y-58270000D03*
%TO.P,CR3,7,D*%
X38525000Y-59540000D03*
%TO.P,CR3,8,D*%
X38525000Y-60810000D03*
%TD*%
D34*
%TO.P,U6,1,DQ*%
%TO.N,/Temp_Sense_One_Wire*%
X30275000Y-28500000D03*
%TO.P,U6,2,NC*%
%TO.N,unconnected-(U6-NC-Pad2)*%
X30275000Y-29150000D03*
%TO.P,U6,3,NC*%
%TO.N,unconnected-(U6-NC-Pad3)*%
X30275000Y-29800000D03*
%TO.P,U6,4,GND*%
%TO.N,/Temp_Sense_GND*%
X30275000Y-30450000D03*
%TO.P,U6,5,NC*%
%TO.N,unconnected-(U6-NC-Pad5)*%
X34500000Y-30450000D03*
%TO.P,U6,6,NC*%
%TO.N,unconnected-(U6-NC-Pad6)*%
X34500000Y-29800000D03*
%TO.P,U6,7,NC*%
%TO.N,unconnected-(U6-NC-Pad7)*%
X34500000Y-29150000D03*
%TO.P,U6,8,V_{DD}*%
%TO.N,/Temp_Sense_GND*%
X34500000Y-28500000D03*
%TD*%
D12*
%TO.P,R30,1*%
%TO.N,Net-(CR3-G)*%
X43500000Y-55000000D03*
%TO.P,R30,2*%
%TO.N,/BMS_FAULT_3.3V*%
X41500000Y-55000000D03*
%TD*%
D35*
%TO.P,J2,1,Pin_1*%
%TO.N,/BMS_LED_Control*%
X25160000Y-41750000D03*
D36*
%TO.P,J2,2,Pin_2*%
%TO.N,GND*%
X25160000Y-39250000D03*
%TO.P,J2,3,Pin_3*%
%TO.N,/IMD_LED_Control*%
X25160000Y-36750000D03*
%TO.P,J2,4,Pin_4*%
%TO.N,/BSPD_FAULT_5V*%
X25160000Y-34250000D03*
%TO.P,J2,5,Pin_5*%
%TO.N,/Shutdown_ACC_In*%
X25160000Y-31750000D03*
%TO.P,J2,6,Pin_6*%
%TO.N,/Shutdown_ACC_Out*%
X25160000Y-29250000D03*
%TO.P,J2,7,Pin_7*%
%TO.N,/IR+_12V*%
X22660000Y-41750000D03*
%TO.P,J2,8,Pin_8*%
%TO.N,/Current_Vref*%
X22660000Y-39250000D03*
%TO.P,J2,9,Pin_9*%
%TO.N,/Current_Vout*%
X22660000Y-36750000D03*
%TO.P,J2,10,Pin_10*%
%TO.N,/SH_RESET*%
X22660000Y-34250000D03*
%TO.P,J2,11,Pin_11*%
%TO.N,/Temp_Sense_GND*%
X22660000Y-31750000D03*
%TO.P,J2,12,Pin_12*%
%TO.N,/Temp_Sense_One_Wire*%
X22660000Y-29250000D03*
%TD*%
D12*
%TO.P,R32,1*%
%TO.N,Net-(CR5-G)*%
X74960000Y-61500000D03*
%TO.P,R32,2*%
%TO.N,/IMD_RL*%
X72960000Y-61500000D03*
%TD*%
D18*
%TO.P,C22,1*%
%TO.N,GND*%
X59962500Y-64500000D03*
%TO.P,C22,2*%
%TO.N,+5V*%
X62037500Y-64500000D03*
%TD*%
D12*
%TO.P,R12,1*%
%TO.N,GND*%
X113000000Y-104500000D03*
%TO.P,R12,2*%
%TO.N,/Iso SPI/ICMP*%
X111000000Y-104500000D03*
%TD*%
D16*
%TO.P,R11,1*%
%TO.N,/Iso SPI/ICMP*%
X111000000Y-102000000D03*
%TO.P,R11,2*%
%TO.N,/Iso SPI/IBIAS*%
X113000000Y-102000000D03*
%TD*%
D37*
%TO.P,J7,1,1*%
%TO.N,/IR+_GND*%
X65500000Y-23545000D03*
D14*
%TO.P,J7,2,2*%
%TO.N,/IR+_12V*%
X68000000Y-23545000D03*
%TO.P,J7,3,3*%
%TO.N,GND*%
X70500000Y-23545000D03*
%TO.P,J7,4,4*%
%TO.N,/IR+_12V*%
X73000000Y-23545000D03*
%TD*%
D38*
%TO.P,U7,1*%
%TO.N,/IMD_DELAY*%
X42550000Y-45500000D03*
%TO.P,U7,2*%
%TO.N,/BMS_FAULT_3.3V*%
X42550000Y-46770000D03*
%TO.P,U7,3*%
%TO.N,Net-(U16-Pad1)*%
X42550000Y-48040000D03*
%TO.P,U7,4*%
%TO.N,Net-(CR2-G)*%
X42550000Y-49310000D03*
%TO.P,U7,5*%
%TO.N,/BSPD_FAULT_5V*%
X42550000Y-50580000D03*
%TO.P,U7,6*%
%TO.N,/TSSI_TP*%
X42550000Y-51850000D03*
%TO.P,U7,7,GND*%
%TO.N,GND*%
X42550000Y-53120000D03*
%TO.P,U7,8*%
%TO.N,N/C*%
X47500000Y-53120000D03*
%TO.P,U7,9*%
X47500000Y-51850000D03*
%TO.P,U7,10*%
X47500000Y-50580000D03*
%TO.P,U7,11*%
X47500000Y-49310000D03*
%TO.P,U7,12*%
X47500000Y-48040000D03*
%TO.P,U7,13*%
X47500000Y-46770000D03*
%TO.P,U7,14,VCC*%
%TO.N,+5V*%
X47500000Y-45500000D03*
%TD*%
%TO.P,CR2,1,S*%
%TO.N,GND*%
X50525000Y-45595000D03*
%TO.P,CR2,2,S*%
X50525000Y-46865000D03*
%TO.P,CR2,3,S*%
X50525000Y-48135000D03*
%TO.P,CR2,4,G*%
%TO.N,Net-(CR2-G)*%
X50525000Y-49405000D03*
%TO.P,CR2,5,D*%
%TO.N,/LATCH_RL*%
X55475000Y-49405000D03*
%TO.P,CR2,6,D*%
X55475000Y-48135000D03*
%TO.P,CR2,7,D*%
X55475000Y-46865000D03*
%TO.P,CR2,8,D*%
X55475000Y-45595000D03*
%TD*%
D39*
%TO.P,R17,1*%
%TO.N,/IR+_12V*%
X92000000Y-35000000D03*
%TO.P,R17,2*%
%TO.N,/Shutdown_Measure*%
X92000000Y-37000000D03*
%TD*%
D18*
%TO.P,C24,1*%
%TO.N,/HVIL*%
X131500000Y-31000000D03*
%TO.P,C24,2*%
%TO.N,/TS-*%
X133575000Y-31000000D03*
%TD*%
D40*
%TO.P,D4,1,K*%
%TO.N,+12V*%
X72500000Y-67892500D03*
%TO.P,D4,2,A*%
%TO.N,/IMD_RL*%
X72500000Y-72567500D03*
%TD*%
D41*
%TO.P,TP1,1,1*%
%TO.N,/Iso SPI/extIsoSPI_P*%
X133000000Y-73500000D03*
%TD*%
D24*
%TO.P,U10,1,VI*%
%TO.N,+12V*%
X28040000Y-56500000D03*
D25*
%TO.P,U10,2,GND*%
%TO.N,GND*%
X25500000Y-56500000D03*
%TO.P,U10,3,VO*%
%TO.N,+9V*%
X22960000Y-56500000D03*
%TD*%
D39*
%TO.P,R13,1*%
%TO.N,/Iso SPI/isoSPI_+*%
X113675000Y-96000000D03*
%TO.P,R13,2*%
%TO.N,Net-(C7-Pad2)*%
X113675000Y-98000000D03*
%TD*%
D12*
%TO.P,R15,1*%
%TO.N,/Iso SPI/extIsoSPI_P*%
X128000000Y-72500000D03*
%TO.P,R15,2*%
%TO.N,Net-(L1-Pad3)*%
X126000000Y-72500000D03*
%TD*%
D32*
%TO.P,C17,1*%
%TO.N,Net-(U12-THR)*%
X56500000Y-84425000D03*
%TO.P,C17,2*%
%TO.N,GND*%
X56500000Y-86500000D03*
%TD*%
D39*
%TO.P,R21,1*%
%TO.N,GND*%
X47500000Y-29930000D03*
%TO.P,R21,2*%
%TO.N,/IMD_Status*%
X47500000Y-31930000D03*
%TD*%
D35*
%TO.P,J11,1,Pin_1*%
%TO.N,+12V*%
X26000000Y-83000000D03*
D36*
%TO.P,J11,2,Pin_2*%
%TO.N,GND*%
X26000000Y-80500000D03*
%TO.P,J11,3,Pin_3*%
%TO.N,/CAN_H1*%
X26000000Y-78000000D03*
%TO.P,J11,4,Pin_4*%
%TO.N,/CAN_L1*%
X26000000Y-75500000D03*
%TO.P,J11,5,Pin_5*%
%TO.N,/CAN_H1*%
X26000000Y-73000000D03*
%TO.P,J11,6,Pin_6*%
%TO.N,/CAN_L_RES1*%
X26000000Y-70500000D03*
%TO.P,J11,7,Pin_7*%
%TO.N,/Fan_PWM*%
X26000000Y-68000000D03*
%TO.P,J11,8,Pin_8*%
%TO.N,/IR+_GND*%
X26000000Y-65500000D03*
%TO.P,J11,9,Pin_9*%
%TO.N,/Charge_State*%
X23500000Y-83000000D03*
%TO.P,J11,10,Pin_10*%
%TO.N,unconnected-(J11-Pin_10-Pad10)*%
X23500000Y-80500000D03*
%TO.P,J11,11,Pin_11*%
%TO.N,unconnected-(J11-Pin_11-Pad11)*%
X23500000Y-78000000D03*
%TO.P,J11,12,Pin_12*%
%TO.N,unconnected-(J11-Pin_12-Pad12)*%
X23500000Y-75500000D03*
%TO.P,J11,13,Pin_13*%
%TO.N,unconnected-(J11-Pin_13-Pad13)*%
X23500000Y-73000000D03*
%TO.P,J11,14,Pin_14*%
%TO.N,unconnected-(J11-Pin_14-Pad14)*%
X23500000Y-70500000D03*
%TO.P,J11,15,Pin_15*%
%TO.N,unconnected-(J11-Pin_15-Pad15)*%
X23500000Y-68000000D03*
%TO.P,J11,16,Pin_16*%
%TO.N,unconnected-(J11-Pin_16-Pad16)*%
X23500000Y-65500000D03*
%TD*%
D42*
%TO.P,D5,1,K*%
%TO.N,Net-(D5-K)*%
X65175000Y-40000000D03*
%TO.P,D5,2,A*%
%TO.N,/LATCH_RL*%
X60500000Y-40000000D03*
%TD*%
D43*
%TO.P,U8,1,EN*%
%TO.N,+3.3V*%
X115750000Y-106650000D03*
%TO.P,U8,2,MOSI*%
%TO.N,/MOSI*%
X116250000Y-106650000D03*
%TO.P,U8,3,MISO*%
%TO.N,/MISO*%
X116750000Y-106650000D03*
%TO.P,U8,4,SCK*%
%TO.N,/CLK*%
X117250000Y-106650000D03*
%TO.P,U8,5,CS*%
%TO.N,/BMS_CS*%
X117750000Y-106650000D03*
%TO.P,U8,6,V_DDS*%
%TO.N,+3.3V*%
X118250000Y-106650000D03*
%TO.P,U8,7,POL*%
%TO.N,GND*%
X118750000Y-106650000D03*
%TO.P,U8,8,PHA*%
X119250000Y-106650000D03*
%TO.P,U8,9,V_DD*%
%TO.N,+3.3V*%
X119250000Y-102350000D03*
%TO.P,U8,10,IM*%
%TO.N,/Iso SPI/isoSPI_-*%
X118750000Y-102350000D03*
%TO.P,U8,11,IP*%
%TO.N,/Iso SPI/isoSPI_+*%
X118250000Y-102350000D03*
%TO.P,U8,12,MSTR*%
%TO.N,+3.3V*%
X117750000Y-102350000D03*
%TO.P,U8,13,SLOW*%
%TO.N,GND*%
X117250000Y-102350000D03*
%TO.P,U8,14,GND*%
X116750000Y-102350000D03*
%TO.P,U8,15,ICMP*%
%TO.N,/Iso SPI/ICMP*%
X116250000Y-102350000D03*
%TO.P,U8,16,IBIAS*%
%TO.N,/Iso SPI/IBIAS*%
X115750000Y-102350000D03*
%TD*%
D33*
%TO.P,U5,1*%
%TO.N,Net-(R4-Pad2)*%
X39500000Y-97810000D03*
%TO.P,U5,2,-*%
%TO.N,Net-(U5A--)*%
X39500000Y-96540000D03*
%TO.P,U5,3,+*%
%TO.N,Net-(U5A-+)*%
X39500000Y-95270000D03*
%TO.P,U5,4,V+*%
%TO.N,+5V*%
X39500000Y-94000000D03*
%TO.P,U5,5,+*%
%TO.N,/Raw_Curr_VRef*%
X39500000Y-92730000D03*
%TO.P,U5,6,-*%
%TO.N,/Current_Vref*%
X39500000Y-91460000D03*
%TO.P,U5,7*%
X39500000Y-90190000D03*
%TO.P,U5,8*%
%TO.N,/Current_Vout*%
X34550000Y-90190000D03*
%TO.P,U5,9,-*%
X34550000Y-91460000D03*
%TO.P,U5,10,+*%
%TO.N,/Raw_Curr_Out*%
X34550000Y-92730000D03*
%TO.P,U5,11,V-*%
%TO.N,GND*%
X34550000Y-94000000D03*
%TO.P,U5,12*%
%TO.N,N/C*%
X34550000Y-95270000D03*
%TO.P,U5,13*%
X34550000Y-96540000D03*
%TO.P,U5,14*%
X34550000Y-97810000D03*
%TD*%
D39*
%TO.P,R14,1*%
%TO.N,Net-(L1-Pad3)*%
X120305000Y-72875000D03*
%TO.P,R14,2*%
%TO.N,Net-(L1-Pad1)*%
X120305000Y-74875000D03*
%TD*%
D12*
%TO.P,R5,1*%
%TO.N,Net-(R4-Pad2)*%
X44000000Y-97000000D03*
%TO.P,R5,2*%
%TO.N,Net-(U5A--)*%
X42000000Y-97000000D03*
%TD*%
D44*
%TO.P,U15,1,GND*%
%TO.N,/TS-*%
X134000000Y-38000000D03*
%TO.P,U15,2,Vin*%
%TO.N,Net-(D8-A)*%
X132500000Y-38000000D03*
%TO.P,U15,3,Vout*%
%TO.N,/HVIL*%
X131000000Y-38000000D03*
%TD*%
D39*
%TO.P,R19,1*%
%TO.N,/IMD_DELAY*%
X63500000Y-75730000D03*
%TO.P,R19,2*%
%TO.N,GND*%
X63500000Y-77730000D03*
%TD*%
D18*
%TO.P,C14,1*%
%TO.N,+5V*%
X22462500Y-49000000D03*
%TO.P,C14,2*%
%TO.N,GND*%
X24537500Y-49000000D03*
%TD*%
D32*
%TO.P,C8,1*%
%TO.N,Net-(C8-Pad1)*%
X117175000Y-95962500D03*
%TO.P,C8,2*%
%TO.N,GND*%
X117175000Y-98037500D03*
%TD*%
D45*
%TO.P,C20,1*%
%TO.N,+5V*%
X60537500Y-86500000D03*
%TO.P,C20,2*%
%TO.N,GND*%
X58462500Y-86500000D03*
%TD*%
%TO.P,C1,1*%
%TO.N,GND*%
X37500000Y-80500000D03*
%TO.P,C1,2*%
%TO.N,+5V*%
X35425000Y-80500000D03*
%TD*%
D38*
%TO.P,Q2,1,S*%
%TO.N,GND*%
X81500000Y-27000000D03*
%TO.P,Q2,2,S*%
X81500000Y-28270000D03*
%TO.P,Q2,3,S*%
X81500000Y-29540000D03*
%TO.P,Q2,4,G*%
%TO.N,Net-(Q2-G)*%
X81500000Y-30810000D03*
%TO.P,Q2,5,D*%
%TO.N,Net-(D7-A)*%
X86450000Y-30810000D03*
%TO.P,Q2,6,D*%
X86450000Y-29540000D03*
%TO.P,Q2,7,D*%
X86450000Y-28270000D03*
%TO.P,Q2,8,D*%
X86450000Y-27000000D03*
%TD*%
D23*
%TO.P,D7,1,K*%
%TO.N,/IR+_12V*%
X90500000Y-31500000D03*
%TO.P,D7,2,A*%
%TO.N,Net-(D7-A)*%
X90500000Y-26825000D03*
%TD*%
D18*
%TO.P,C13,1*%
%TO.N,+9V*%
X22385000Y-61000000D03*
%TO.P,C13,2*%
%TO.N,GND*%
X24460000Y-61000000D03*
%TD*%
D15*
%TO.P,R27,1*%
%TO.N,Net-(R26-Pad2)*%
X59810000Y-72205000D03*
%TO.P,R27,2*%
%TO.N,GND*%
X59810000Y-70205000D03*
%TD*%
D19*
%TO.P,CR5,1,S*%
%TO.N,GND*%
X71460000Y-59000000D03*
%TO.P,CR5,2,S*%
X72730000Y-59000000D03*
%TO.P,CR5,3,S*%
X74000000Y-59000000D03*
%TO.P,CR5,4,G*%
%TO.N,Net-(CR5-G)*%
X75270000Y-59000000D03*
%TO.P,CR5,5,D*%
%TO.N,/IMD_LED_Control*%
X75270000Y-54050000D03*
%TO.P,CR5,6,D*%
X74000000Y-54050000D03*
%TO.P,CR5,7,D*%
X72730000Y-54050000D03*
%TO.P,CR5,8,D*%
X71460000Y-54050000D03*
%TD*%
D15*
%TO.P,R18,1*%
%TO.N,/Shutdown_Measure*%
X90000000Y-37000000D03*
%TO.P,R18,2*%
%TO.N,GND*%
X90000000Y-35000000D03*
%TD*%
D46*
%TO.P,K1,1,-*%
%TO.N,/BMS_RL*%
X85000000Y-42500000D03*
%TO.P,K1,3*%
%TO.N,/Shutdown_ACC_In*%
X85000000Y-52660000D03*
%TO.P,K1,4*%
%TO.N,/Shutdown_ACC_BMS_TP*%
X85000000Y-60280000D03*
%TO.P,K1,5*%
%TO.N,unconnected-(K1-Pad5)*%
X95160000Y-60280000D03*
%TO.P,K1,6*%
%TO.N,unconnected-(K1-Pad6)*%
X95160000Y-52660000D03*
%TO.P,K1,8,+*%
%TO.N,+12V*%
X95160000Y-42500000D03*
%TD*%
D16*
%TO.P,R23,1*%
%TO.N,Net-(U12-THR)*%
X58500000Y-84500000D03*
%TO.P,R23,2*%
%TO.N,+5V*%
X60500000Y-84500000D03*
%TD*%
D15*
%TO.P,R20,1*%
%TO.N,/IMD_Status*%
X45500000Y-31930000D03*
%TO.P,R20,2*%
%TO.N,/IMD_FAULT_12V*%
X45500000Y-29930000D03*
%TD*%
D46*
%TO.P,K3,1,-*%
%TO.N,/IMD_RL*%
X76340000Y-76660000D03*
%TO.P,K3,3*%
%TO.N,/Shutdown_ACC_BMS_TP*%
X86500000Y-76660000D03*
%TO.P,K3,4*%
%TO.N,/Shutdown_ACC_IMD_TP*%
X94120000Y-76660000D03*
%TO.P,K3,5*%
%TO.N,unconnected-(K3-Pad5)*%
X94120000Y-66500000D03*
%TO.P,K3,6*%
%TO.N,unconnected-(K3-Pad6)*%
X86500000Y-66500000D03*
%TO.P,K3,8,+*%
%TO.N,+12V*%
X76340000Y-66500000D03*
%TD*%
D38*
%TO.P,CR1,1,S*%
%TO.N,GND*%
X68000000Y-74690000D03*
%TO.P,CR1,2,S*%
X68000000Y-75960000D03*
%TO.P,CR1,3,S*%
X68000000Y-77230000D03*
%TO.P,CR1,4,G*%
%TO.N,Net-(CR1-G)*%
X68000000Y-78500000D03*
%TO.P,CR1,5,D*%
%TO.N,/IMD_RL*%
X72950000Y-78500000D03*
%TO.P,CR1,6,D*%
X72950000Y-77230000D03*
%TO.P,CR1,7,D*%
X72950000Y-75960000D03*
%TO.P,CR1,8,D*%
X72950000Y-74690000D03*
%TD*%
D16*
%TO.P,R22,1*%
%TO.N,+12V*%
X46500000Y-27000000D03*
%TO.P,R22,2*%
%TO.N,Net-(D5-K)*%
X48500000Y-27000000D03*
%TD*%
D12*
%TO.P,R16,1*%
%TO.N,/Iso SPI/extIsoSPI_N*%
X128000000Y-75500000D03*
%TO.P,R16,2*%
%TO.N,Net-(L1-Pad1)*%
X126000000Y-75500000D03*
%TD*%
D33*
%TO.P,U16,1*%
%TO.N,Net-(U16-Pad1)*%
X39500000Y-53120000D03*
%TO.P,U16,2*%
%TO.N,/TSSI_TP*%
X39500000Y-51850000D03*
%TO.P,U16,3*%
%TO.N,N/C*%
X39500000Y-50580000D03*
%TO.P,U16,4*%
X39500000Y-49310000D03*
%TO.P,U16,5*%
X39500000Y-48040000D03*
%TO.P,U16,6*%
X39500000Y-46770000D03*
%TO.P,U16,7,VSS*%
%TO.N,GND*%
X39500000Y-45500000D03*
%TO.P,U16,8*%
%TO.N,N/C*%
X34550000Y-45500000D03*
%TO.P,U16,9*%
X34550000Y-46770000D03*
%TO.P,U16,10*%
X34550000Y-48040000D03*
%TO.P,U16,11*%
X34550000Y-49310000D03*
%TO.P,U16,12*%
X34550000Y-50580000D03*
%TO.P,U16,13*%
X34550000Y-51850000D03*
%TO.P,U16,14,VDD*%
%TO.N,+5V*%
X34550000Y-53120000D03*
%TD*%
D12*
%TO.P,R3,1*%
%TO.N,/Amp_Curr_Sensor*%
X45500000Y-101950000D03*
%TO.P,R3,2*%
%TO.N,GND*%
X43500000Y-101950000D03*
%TD*%
D15*
%TO.P,R31,1*%
%TO.N,Net-(CR1-G)*%
X65500000Y-77730000D03*
%TO.P,R31,2*%
%TO.N,/IMD_DELAY*%
X65500000Y-75730000D03*
%TD*%
D39*
%TO.P,R26,1*%
%TO.N,/IMD_FAULT_12V*%
X57810000Y-70205000D03*
%TO.P,R26,2*%
%TO.N,Net-(R26-Pad2)*%
X57810000Y-72205000D03*
%TD*%
D12*
%TO.P,R35,1*%
%TO.N,GND*%
X73000000Y-83000000D03*
%TO.P,R35,2*%
%TO.N,/GLV Voltage*%
X71000000Y-83000000D03*
%TD*%
D45*
%TO.P,C10,1*%
%TO.N,+12V*%
X28575000Y-49000000D03*
%TO.P,C10,2*%
%TO.N,GND*%
X26500000Y-49000000D03*
%TD*%
D47*
%TO.P,D6,1,K*%
%TO.N,/SH_RESET*%
X69162500Y-43500000D03*
%TO.P,D6,2,A*%
%TO.N,GND*%
X73837500Y-43500000D03*
%TD*%
D41*
%TO.P,TP2,1,1*%
%TO.N,/Iso SPI/extIsoSPI_N*%
X133000000Y-78000000D03*
%TD*%
D39*
%TO.P,R28,1*%
%TO.N,Net-(CR4-G)*%
X77835000Y-37557500D03*
%TO.P,R28,2*%
%TO.N,/BMS_RL*%
X77835000Y-39557500D03*
%TD*%
%TO.P,R1,1*%
%TO.N,/CAN_L_RES1*%
X32500000Y-72000000D03*
%TO.P,R1,2*%
%TO.N,/CAN_L1*%
X32500000Y-74000000D03*
%TD*%
D45*
%TO.P,C5,1*%
%TO.N,+3.3V*%
X113000000Y-107000000D03*
%TO.P,C5,2*%
%TO.N,GND*%
X110925000Y-107000000D03*
%TD*%
D48*
%TO.P,J4,1,1*%
%TO.N,+5V*%
X25070000Y-97250000D03*
D27*
%TO.P,J4,2,2*%
%TO.N,GND*%
X25070000Y-94750000D03*
%TO.P,J4,3,3*%
%TO.N,/Raw_Curr_Out*%
X25070000Y-92250000D03*
%TO.P,J4,4,4*%
%TO.N,/Raw_Curr_VRef*%
X25070000Y-89750000D03*
%TD*%
D18*
%TO.P,C6,1*%
%TO.N,+3.3V*%
X121962500Y-101500000D03*
%TO.P,C6,2*%
%TO.N,GND*%
X124037500Y-101500000D03*
%TD*%
D39*
%TO.P,R2,1*%
%TO.N,GND*%
X29500000Y-81500000D03*
%TO.P,R2,2*%
%TO.N,/Charge_State*%
X29500000Y-83500000D03*
%TD*%
D13*
%TO.P,J9,1,Pin_1*%
%TO.N,/TS+*%
X143750000Y-34430000D03*
D14*
%TO.P,J9,2,Pin_2*%
%TO.N,/TS-*%
X141250000Y-34430000D03*
%TD*%
D39*
%TO.P,R9,1*%
%TO.N,/Raw_Curr_Out*%
X32000000Y-93000000D03*
%TO.P,R9,2*%
%TO.N,GND*%
X32000000Y-95000000D03*
%TD*%
D17*
%TO.P,J6,1,1*%
%TO.N,/Shutdown_ACC_IMD_TP*%
X53000000Y-23500000D03*
D14*
%TO.P,J6,2,2*%
%TO.N,/Shutdown_ACC_IL_TP*%
X55500000Y-23500000D03*
%TD*%
D45*
%TO.P,C11,1*%
%TO.N,+12V*%
X28460000Y-61000000D03*
%TO.P,C11,2*%
%TO.N,GND*%
X26385000Y-61000000D03*
%TD*%
D19*
%TO.P,CR4,1,S*%
%TO.N,GND*%
X72000000Y-38450000D03*
%TO.P,CR4,2,S*%
X73270000Y-38450000D03*
%TO.P,CR4,3,S*%
X74540000Y-38450000D03*
%TO.P,CR4,4,G*%
%TO.N,Net-(CR4-G)*%
X75810000Y-38450000D03*
%TO.P,CR4,5,D*%
%TO.N,/BMS_LED_Control*%
X75810000Y-33500000D03*
%TO.P,CR4,6,D*%
X74540000Y-33500000D03*
%TO.P,CR4,7,D*%
X73270000Y-33500000D03*
%TO.P,CR4,8,D*%
X72000000Y-33500000D03*
%TD*%
D18*
%TO.P,C18,1*%
%TO.N,GND*%
X45425000Y-43500000D03*
%TO.P,C18,2*%
%TO.N,+5V*%
X47500000Y-43500000D03*
%TD*%
D49*
%TO.P,L1,1,1*%
%TO.N,Net-(L1-Pad1)*%
X119790000Y-78730000D03*
%TO.P,L1,2,2*%
%TO.N,unconnected-(L1-Pad2)*%
X117250000Y-78730000D03*
%TO.P,L1,3,3*%
%TO.N,Net-(L1-Pad3)*%
X114710000Y-78730000D03*
%TO.P,L1,4,4*%
%TO.N,/Iso SPI/isoSPI_+*%
X114710000Y-93020000D03*
%TO.P,L1,5,5*%
%TO.N,Net-(C8-Pad1)*%
X117250000Y-93020000D03*
%TO.P,L1,6,6*%
%TO.N,/Iso SPI/isoSPI_-*%
X119790000Y-93020000D03*
%TD*%
D15*
%TO.P,R33,1*%
%TO.N,+5V*%
X69500000Y-56000000D03*
%TO.P,R33,2*%
%TO.N,/IMD_LED_Control*%
X69500000Y-54000000D03*
%TD*%
D18*
%TO.P,C2,1*%
%TO.N,GND*%
X39500000Y-80500000D03*
%TO.P,C2,2*%
%TO.N,+3.3V*%
X41575000Y-80500000D03*
%TD*%
D16*
%TO.P,R7,1*%
%TO.N,Net-(U5A-+)*%
X42000000Y-91000000D03*
%TO.P,R7,2*%
%TO.N,/Current_Vout*%
X44000000Y-91000000D03*
%TD*%
D50*
%TO.P,U3,1*%
%TO.N,N/C*%
X87500000Y-33500000D03*
%TO.P,U3,2*%
X86230000Y-33500000D03*
%TO.P,U3,3*%
X84960000Y-33500000D03*
%TO.P,U3,4*%
X83690000Y-33500000D03*
%TO.P,U3,5*%
%TO.N,/Precharge_Control*%
X82420000Y-33500000D03*
%TO.P,U3,6*%
%TO.N,Net-(Q2-G)*%
X81150000Y-33500000D03*
%TO.P,U3,7*%
%TO.N,N/C*%
X79880000Y-33500000D03*
%TO.P,U3,8*%
X79880000Y-38450000D03*
%TO.P,U3,9*%
X81150000Y-38450000D03*
%TO.P,U3,10*%
X82420000Y-38450000D03*
%TO.P,U3,11*%
X83690000Y-38450000D03*
%TO.P,U3,12*%
X84960000Y-38450000D03*
%TO.P,U3,13*%
X86230000Y-38450000D03*
%TO.P,U3,14*%
X87500000Y-38450000D03*
%TD*%
D45*
%TO.P,C9,1*%
%TO.N,GND*%
X36537500Y-55000000D03*
%TO.P,C9,2*%
%TO.N,+5V*%
X34462500Y-55000000D03*
%TD*%
D51*
%TO.P,D8,1,K*%
%TO.N,/TS+*%
X136500000Y-32100000D03*
%TO.P,D8,2,A*%
%TO.N,Net-(D8-A)*%
X136500000Y-34900000D03*
%TD*%
D52*
%TO.P,U2,CN3_1,PA9*%
%TO.N,unconnected-(U2A-PA9-PadCN3_1)*%
X89280000Y-90500000D03*
D53*
%TO.P,U2,CN3_2,PA10*%
%TO.N,/Charge_State*%
X86740000Y-90500000D03*
%TO.P,U2,CN3_3,NRST*%
%TO.N,unconnected-(U2A-NRST-PadCN3_3)*%
X84200000Y-90500000D03*
%TO.P,U2,CN3_4,GND*%
%TO.N,GND*%
X81660000Y-90500000D03*
%TO.P,U2,CN3_5,PA12*%
%TO.N,/CAN1_TD*%
X79120000Y-90500000D03*
%TO.P,U2,CN3_6,PB0*%
%TO.N,/IMD_Status*%
X76580000Y-90500000D03*
%TO.P,U2,CN3_7,PB7*%
%TO.N,/BMS_FAULT_3.3V*%
X74040000Y-90500000D03*
%TO.P,U2,CN3_8,PB6*%
%TO.N,/ACC_Temp_Sense*%
X71500000Y-90500000D03*
%TO.P,U2,CN3_9,PB1*%
%TO.N,/Precharge_Control*%
X68960000Y-90500000D03*
%TO.P,U2,CN3_10,D7*%
%TO.N,unconnected-(U2A-D7-PadCN3_10)*%
X66420000Y-90500000D03*
%TO.P,U2,CN3_11,D8*%
%TO.N,unconnected-(U2A-D8-PadCN3_11)*%
X63880000Y-90500000D03*
%TO.P,U2,CN3_12,PA8*%
%TO.N,/Fan_PWM*%
X61340000Y-90500000D03*
%TO.P,U2,CN3_13,PA11*%
%TO.N,/CAN1_RD*%
X58800000Y-90500000D03*
%TO.P,U2,CN3_14,PB5*%
%TO.N,/MOSI*%
X56260000Y-90500000D03*
%TO.P,U2,CN3_15,PB4*%
%TO.N,/MISO*%
X53720000Y-90500000D03*
D52*
%TO.P,U2,CN4_1,VIN*%
%TO.N,+9V*%
X89280000Y-105740000D03*
D53*
%TO.P,U2,CN4_2,GND*%
%TO.N,GND*%
X86740000Y-105740000D03*
%TO.P,U2,CN4_3,NRST*%
%TO.N,unconnected-(U2A-NRST-PadCN4_3)*%
X84200000Y-105740000D03*
%TO.P,U2,CN4_4,5V*%
%TO.N,unconnected-(U2A-5V-PadCN4_4)*%
X81660000Y-105740000D03*
%TO.P,U2,CN4_5,PA2*%
%TO.N,/Shutdown_Measure*%
X79120000Y-105740000D03*
%TO.P,U2,CN4_6,PA7*%
%TO.N,unconnected-(U2A-PA7-PadCN4_6)*%
X76580000Y-105740000D03*
%TO.P,U2,CN4_7,PA6*%
%TO.N,unconnected-(U2A-PA6-PadCN4_7)*%
X74040000Y-105740000D03*
%TO.P,U2,CN4_8,PA5*%
%TO.N,unconnected-(U2A-PA5-PadCN4_8)*%
X71500000Y-105740000D03*
%TO.P,U2,CN4_9,PA4*%
%TO.N,/BMS_CS*%
X68960000Y-105740000D03*
%TO.P,U2,CN4_10,PA3*%
%TO.N,/Amp_Curr_Sensor*%
X66420000Y-105740000D03*
%TO.P,U2,CN4_11,PA1*%
%TO.N,unconnected-(U2A-PA1-PadCN4_11)*%
X63880000Y-105740000D03*
%TO.P,U2,CN4_12,PA0*%
%TO.N,/GLV Voltage*%
X61340000Y-105740000D03*
%TO.P,U2,CN4_13,AREF*%
%TO.N,unconnected-(U2A-AREF-PadCN4_13)*%
X58800000Y-105740000D03*
%TO.P,U2,CN4_14,3V3*%
%TO.N,+3.3V*%
X56260000Y-105740000D03*
%TO.P,U2,CN4_15,PB3*%
%TO.N,/CLK*%
X53720000Y-105740000D03*
%TD*%
D16*
%TO.P,R8,1*%
%TO.N,Net-(U5A--)*%
X42000000Y-95000000D03*
%TO.P,R8,2*%
%TO.N,/Current_Vref*%
X44000000Y-95000000D03*
%TD*%
D17*
%TO.P,J10,1,Pin_1*%
%TO.N,/HVIL*%
X132750000Y-24500000D03*
D14*
%TO.P,J10,2,Pin_2*%
%TO.N,/TS-*%
X135250000Y-24500000D03*
%TD*%
D12*
%TO.P,R4,1*%
%TO.N,/Amp_Curr_Sensor*%
X45500000Y-99500000D03*
%TO.P,R4,2*%
%TO.N,Net-(R4-Pad2)*%
X43500000Y-99500000D03*
%TD*%
D19*
%TO.P,U4,1*%
%TO.N,Net-(R26-Pad2)*%
X62000000Y-72180000D03*
%TO.P,U4,2*%
%TO.N,Net-(U12-Q)*%
X63270000Y-72180000D03*
%TO.P,U4,3*%
%TO.N,/IMD_DELAY*%
X64540000Y-72180000D03*
%TO.P,U4,4*%
%TO.N,N/C*%
X65810000Y-72180000D03*
%TO.P,U4,5*%
X67080000Y-72180000D03*
%TO.P,U4,6*%
X68350000Y-72180000D03*
%TO.P,U4,7,GND*%
%TO.N,GND*%
X69620000Y-72180000D03*
%TO.P,U4,8*%
%TO.N,N/C*%
X69620000Y-67230000D03*
%TO.P,U4,9*%
X68350000Y-67230000D03*
%TO.P,U4,10*%
X67080000Y-67230000D03*
%TO.P,U4,11*%
X65810000Y-67230000D03*
%TO.P,U4,12*%
X64540000Y-67230000D03*
%TO.P,U4,13*%
X63270000Y-67230000D03*
%TO.P,U4,14,VCC*%
%TO.N,+5V*%
X62000000Y-67230000D03*
%TD*%
D54*
%TO.N,/MISO*%
X65278000Y-108204000D03*
X59944000Y-106934000D03*
%TO.N,/IMD_LED_Control*%
X37330959Y-47744959D03*
X33100000Y-41148000D03*
%TO.N,/BSPD_FAULT_5V*%
X33274000Y-40132000D03*
X38025000Y-46722732D03*
%TO.N,/Shutdown_ACC_Out*%
X41402000Y-33020000D03*
X30734000Y-32766000D03*
%TO.N,/Shutdown_ACC_In*%
X41910000Y-32258000D03*
%TO.N,+3.3V*%
X45212000Y-108204000D03*
%TO.N,/ACC_Temp_Sense*%
X43180000Y-104902000D03*
X46482000Y-104902000D03*
X55372000Y-103124000D03*
X65024000Y-103124000D03*
%TO.N,+5V*%
X47883000Y-78617000D03*
X35425000Y-82804000D03*
X49661000Y-76839000D03*
X67183989Y-35816011D03*
X70500000Y-55000000D03*
X38000000Y-94000000D03*
X56900000Y-39000000D03*
%TO.N,GND*%
X120000000Y-107000000D03*
X60198000Y-69088000D03*
X37500000Y-55000000D03*
X114000000Y-104000000D03*
X125000000Y-101500000D03*
X60000000Y-63246000D03*
X111000000Y-106000000D03*
X25500000Y-49000000D03*
X25500000Y-61000000D03*
X68500000Y-74000000D03*
X47500000Y-29000000D03*
X35500000Y-69596000D03*
X44500000Y-71628000D03*
X90000000Y-34000000D03*
X60000000Y-32500000D03*
X45000000Y-93000000D03*
X118175000Y-98500000D03*
X64000000Y-78500000D03*
X73000000Y-84000000D03*
X38500000Y-80500000D03*
X50546000Y-44704000D03*
X44196000Y-53086000D03*
X39500000Y-44704000D03*
X29500000Y-80500000D03*
X42500000Y-101950000D03*
X70612000Y-59000000D03*
X43500000Y-61500000D03*
X45466000Y-44958000D03*
X75000000Y-43500000D03*
X71500000Y-38500000D03*
X57155225Y-85491345D03*
X81500000Y-26162000D03*
X33500000Y-94500000D03*
X116904440Y-101095560D03*
%TO.N,+3.3V*%
X115000000Y-108100000D03*
X44450000Y-80518000D03*
X44450000Y-84100000D03*
%TO.N,+12V*%
X80500000Y-48600000D03*
X29000000Y-62000000D03*
X53700000Y-31000000D03*
X56100000Y-31000000D03*
%TO.N,/BMS_RL*%
X76000000Y-44500000D03*
X75975557Y-42134443D03*
%TO.N,Net-(D5-K)*%
X56100000Y-34500000D03*
X54300000Y-34500000D03*
%TO.N,/SH_RESET*%
X53594000Y-36576000D03*
%TO.N,/Current_Vout*%
X29661489Y-87338511D03*
X27500000Y-87100000D03*
%TO.N,/BSPD_FAULT_5V*%
X44196000Y-49784000D03*
%TO.N,/BMS_LED_Control*%
X54300000Y-37168630D03*
X68500000Y-33500000D03*
%TO.N,/IMD_LED_Control*%
X67250000Y-55250000D03*
%TO.N,/Charge_State*%
X67000000Y-92000000D03*
%TO.N,/IMD_FAULT_12V*%
X32500000Y-52500000D03*
X36322000Y-35976000D03*
X32500000Y-53720000D03*
X33020000Y-39370000D03*
%TO.N,/IMD_Status*%
X68500000Y-59000000D03*
X52324000Y-35976000D03*
X68574735Y-84576735D03*
%TO.N,/CAN1_TD*%
X46500000Y-73000000D03*
%TO.N,Net-(D8-A)*%
X132842000Y-33528000D03*
X134620000Y-33528000D03*
%TO.N,/Raw_Curr_Out*%
X31000000Y-93000000D03*
%TO.N,/IR+_GND*%
X60000000Y-27500000D03*
X54900000Y-27432000D03*
%TO.N,/Precharge_Control*%
X77165668Y-45304454D03*
X77165668Y-36334332D03*
%TO.N,/BMS_FAULT_3.3V*%
X44958000Y-53848000D03*
X41656000Y-56388000D03*
X43942000Y-47498000D03*
%TO.N,/IMD_DELAY*%
X64070000Y-69070000D03*
X56500000Y-61500000D03*
%TO.N,/BMS_CS*%
X118500000Y-107900000D03*
%TO.N,/CLK*%
X117394062Y-107900000D03*
%TD*%
D10*
%TO.N,/Precharge_Control*%
X79500000Y-77500000D02*
X79500000Y-50065685D01*
X77165668Y-47731353D02*
X77165668Y-45304454D01*
X75500000Y-81500000D02*
X79500000Y-77500000D01*
X75500000Y-83000000D02*
X75500000Y-81500000D01*
X68960000Y-89540000D02*
X75500000Y-83000000D01*
X79500000Y-50065685D02*
X77165668Y-47731353D01*
X68960000Y-90500000D02*
X68960000Y-89540000D01*
D55*
%TO.N,/TS+*%
X142934924Y-32040000D02*
X136560000Y-32040000D01*
X143750000Y-34430000D02*
X143750000Y-32855076D01*
X143750000Y-32855076D02*
X142934924Y-32040000D01*
%TO.N,Net-(D8-A)*%
X132842000Y-33528000D02*
X132842000Y-33658000D01*
X132842000Y-33658000D02*
X131500000Y-35000000D01*
X135992000Y-34900000D02*
X136500000Y-34900000D01*
X134620000Y-33528000D02*
X135992000Y-34900000D01*
D10*
%TO.N,/MISO*%
X109220000Y-108204000D02*
X65278000Y-108204000D01*
X110116000Y-109100000D02*
X109220000Y-108204000D01*
X116434578Y-109100000D02*
X110116000Y-109100000D01*
X117034578Y-108500000D02*
X116434578Y-109100000D01*
%TO.N,/MOSI*%
X116250000Y-108150000D02*
X116250000Y-106650000D01*
X115700000Y-108700000D02*
X116250000Y-108150000D01*
X110478000Y-108700000D02*
X115700000Y-108700000D01*
X109474000Y-107696000D02*
X110478000Y-108700000D01*
X67485000Y-105985000D02*
X69196000Y-107696000D01*
X66758981Y-104572843D02*
X67485000Y-105298862D01*
X62405000Y-106181138D02*
X62405000Y-105500000D01*
X62405000Y-105500000D02*
X63332157Y-104572843D01*
X61781138Y-106805000D02*
X62405000Y-106181138D01*
X63332157Y-104572843D02*
X66758981Y-104572843D01*
X60898862Y-106805000D02*
X61781138Y-106805000D01*
X60000000Y-105906138D02*
X60898862Y-106805000D01*
X60000000Y-94240000D02*
X60000000Y-105906138D01*
X69196000Y-107696000D02*
X109474000Y-107696000D01*
X56260000Y-90500000D02*
X60000000Y-94240000D01*
X67485000Y-105298862D02*
X67485000Y-105985000D01*
%TO.N,/MISO*%
X58420000Y-106934000D02*
X59944000Y-106934000D01*
X57325000Y-105839000D02*
X58420000Y-106934000D01*
X57325000Y-94105000D02*
X57325000Y-105839000D01*
X53720000Y-90500000D02*
X57325000Y-94105000D01*
%TO.N,/BSPD_FAULT_5V*%
X38025000Y-44883000D02*
X33274000Y-40132000D01*
X38025000Y-46722732D02*
X38025000Y-44883000D01*
%TO.N,/IMD_LED_Control*%
X37330959Y-45378959D02*
X37330959Y-47744959D01*
X33100000Y-41148000D02*
X37330959Y-45378959D01*
%TO.N,/IMD_FAULT_12V*%
X32500000Y-39890000D02*
X32500000Y-52500000D01*
X33020000Y-39370000D02*
X32500000Y-39890000D01*
X38516000Y-33782000D02*
X41648000Y-33782000D01*
X41648000Y-33782000D02*
X45500000Y-29930000D01*
X36322000Y-35976000D02*
X38516000Y-33782000D01*
%TO.N,/Shutdown_ACC_Out*%
X30734000Y-32766000D02*
X41148000Y-32766000D01*
X41148000Y-32766000D02*
X41402000Y-33020000D01*
%TO.N,/Shutdown_ACC_In*%
X41910000Y-32258000D02*
X41402000Y-31750000D01*
X41402000Y-31750000D02*
X25160000Y-31750000D01*
%TO.N,/IMD_Status*%
X51546000Y-35976000D02*
X47500000Y-31930000D01*
X52324000Y-35976000D02*
X51546000Y-35976000D01*
D56*
%TO.N,+12V*%
X50500000Y-31000000D02*
X46500000Y-27000000D01*
X53700000Y-31000000D02*
X50500000Y-31000000D01*
D10*
%TO.N,Net-(D5-K)*%
X54300000Y-29408000D02*
X54300000Y-34500000D01*
X51892000Y-27000000D02*
X54300000Y-29408000D01*
X48500000Y-27000000D02*
X51892000Y-27000000D01*
%TO.N,/Precharge_Control*%
X76200000Y-32250000D02*
X78725000Y-34775000D01*
X76200000Y-32225000D02*
X76200000Y-32250000D01*
X64880000Y-32225000D02*
X76200000Y-32225000D01*
X64655000Y-32450000D02*
X64880000Y-32225000D01*
X77165668Y-36334332D02*
X78725000Y-34775000D01*
X78725000Y-34775000D02*
X82119999Y-34775000D01*
%TO.N,/BMS_RL*%
X77835000Y-40275000D02*
X77835000Y-39557500D01*
X75975557Y-42134443D02*
X77835000Y-40275000D01*
%TO.N,/Shutdown_ACC_IL_TP*%
X54200000Y-56234001D02*
X58690000Y-60724001D01*
X57500000Y-41954448D02*
X54200000Y-45254448D01*
X54200000Y-45254448D02*
X54200000Y-56234001D01*
X57500000Y-36748529D02*
X57500000Y-41954448D01*
X55500000Y-34748529D02*
X57500000Y-36748529D01*
X55500000Y-23500000D02*
X55500000Y-34748529D01*
%TO.N,/IR+_GND*%
X21400000Y-61612244D02*
X25287756Y-65500000D01*
X21400000Y-48465256D02*
X21400000Y-61612244D01*
X31365256Y-38500000D02*
X21400000Y-48465256D01*
X54900000Y-27432000D02*
X54900000Y-38100000D01*
X54500000Y-38500000D02*
X31365256Y-38500000D01*
X54900000Y-38100000D02*
X54500000Y-38500000D01*
%TO.N,/SH_RESET*%
X29112346Y-36576000D02*
X25636346Y-33100000D01*
X53594000Y-36576000D02*
X29112346Y-36576000D01*
X25636346Y-33100000D02*
X23810000Y-33100000D01*
X23810000Y-33100000D02*
X22660000Y-34250000D01*
%TO.N,GND*%
X81500000Y-27000000D02*
X81500000Y-26162000D01*
%TO.N,/BMS_FAULT_3.3V*%
X41656000Y-56388000D02*
X41656000Y-55156000D01*
X42652000Y-53848000D02*
X41500000Y-55000000D01*
X44958000Y-53848000D02*
X42652000Y-53848000D01*
%TO.N,GND*%
X44196000Y-53086000D02*
X42584000Y-53086000D01*
%TO.N,/BSPD_FAULT_5V*%
X44196000Y-49784000D02*
X43400000Y-50580000D01*
%TO.N,/BMS_FAULT_3.3V*%
X43942000Y-47498000D02*
X43214000Y-46770000D01*
%TO.N,GND*%
X39500000Y-45500000D02*
X39500000Y-44704000D01*
X45425000Y-44917000D02*
X45425000Y-43500000D01*
X45466000Y-44958000D02*
X45425000Y-44917000D01*
X50525000Y-44725000D02*
X50525000Y-45595000D01*
X50546000Y-44704000D02*
X50525000Y-44725000D01*
X71460000Y-59000000D02*
X70612000Y-59000000D01*
%TO.N,/IMD_DELAY*%
X64070000Y-69070000D02*
X64540000Y-69540000D01*
X64540000Y-69540000D02*
X64540000Y-72180000D01*
%TO.N,GND*%
X60198000Y-69088000D02*
X59810000Y-69476000D01*
X59810000Y-69476000D02*
X59810000Y-70205000D01*
X59962500Y-63283500D02*
X59962500Y-64500000D01*
X60000000Y-63246000D02*
X59962500Y-63283500D01*
X35475000Y-69621000D02*
X35475000Y-70500000D01*
X35500000Y-69596000D02*
X35475000Y-69621000D01*
%TO.N,+3.3V*%
X44180000Y-107172000D02*
X45212000Y-108204000D01*
X44180000Y-106426000D02*
X44180000Y-107172000D01*
%TO.N,/ACC_Temp_Sense*%
X42180000Y-105394000D02*
X42180000Y-106426000D01*
X42672000Y-104902000D02*
X42180000Y-105394000D01*
X48260000Y-103124000D02*
X46482000Y-104902000D01*
X71500000Y-96648000D02*
X65024000Y-103124000D01*
X55372000Y-103124000D02*
X48260000Y-103124000D01*
X43180000Y-104902000D02*
X42672000Y-104902000D01*
X71500000Y-90500000D02*
X71500000Y-96648000D01*
%TO.N,/IMD_Status*%
X70220000Y-73195552D02*
X70220000Y-60720000D01*
X69532843Y-73882709D02*
X70220000Y-73195552D01*
X69532843Y-83618627D02*
X69532843Y-73882709D01*
X68574735Y-84576735D02*
X69532843Y-83618627D01*
X70220000Y-60720000D02*
X68500000Y-59000000D01*
%TO.N,/Fan_PWM*%
X46664000Y-68000000D02*
X26000000Y-68000000D01*
X49022000Y-82042000D02*
X49022000Y-70358000D01*
X57752756Y-87387500D02*
X54367500Y-87387500D01*
X60865256Y-90500000D02*
X57752756Y-87387500D01*
X54367500Y-87387500D02*
X49022000Y-82042000D01*
X49022000Y-70358000D02*
X46664000Y-68000000D01*
%TO.N,/CAN1_RD*%
X46624000Y-75580000D02*
X44525000Y-75580000D01*
X48514000Y-82296000D02*
X48514000Y-77470000D01*
X48514000Y-77470000D02*
X46624000Y-75580000D01*
X55253000Y-89035000D02*
X48514000Y-82296000D01*
X56866824Y-89035000D02*
X55253000Y-89035000D01*
X58331824Y-90500000D02*
X56866824Y-89035000D01*
%TO.N,/Charge_State*%
X57500000Y-90233862D02*
X57500000Y-90706138D01*
X56701138Y-89435000D02*
X57500000Y-90233862D01*
X57500000Y-90706138D02*
X58793862Y-92000000D01*
X48956000Y-83500000D02*
X54891000Y-89435000D01*
X58793862Y-92000000D02*
X67000000Y-92000000D01*
X29500000Y-83500000D02*
X48956000Y-83500000D01*
X54891000Y-89435000D02*
X56701138Y-89435000D01*
%TO.N,GND*%
X44500000Y-71628000D02*
X44500000Y-70525000D01*
%TO.N,+5V*%
X49661000Y-76839000D02*
X51770000Y-74730000D01*
X51770000Y-74730000D02*
X53190000Y-74730000D01*
X36713000Y-81788000D02*
X35425000Y-80500000D01*
X44712000Y-81788000D02*
X36713000Y-81788000D01*
X47883000Y-78617000D02*
X44712000Y-81788000D01*
%TO.N,/IMD_FAULT_12V*%
X32500000Y-56400552D02*
X32500000Y-53720000D01*
X38599448Y-62500000D02*
X32500000Y-56400552D01*
X50054000Y-62500000D02*
X38599448Y-62500000D01*
X57759000Y-70205000D02*
X50054000Y-62500000D01*
%TO.N,GND*%
X58163880Y-86500000D02*
X57155225Y-85491345D01*
X56500000Y-86146570D02*
X57155225Y-85491345D01*
%TO.N,+3.3V*%
X44450000Y-80518000D02*
X44432000Y-80500000D01*
X44450000Y-80518000D02*
X44450000Y-78195000D01*
X44432000Y-80500000D02*
X41575000Y-80500000D01*
X56260000Y-98860000D02*
X56260000Y-105740000D01*
X44450000Y-87050000D02*
X56260000Y-98860000D01*
X44450000Y-84100000D02*
X44450000Y-87050000D01*
%TO.N,+5V*%
X35425000Y-82804000D02*
X35425000Y-80500000D01*
%TO.N,/ACC_Temp_Sense*%
X40356000Y-108250000D02*
X42180000Y-106426000D01*
X34544000Y-106840000D02*
X35954000Y-108250000D01*
X35954000Y-108250000D02*
X40356000Y-108250000D01*
%TO.N,+5V*%
X32044000Y-97290000D02*
X32004000Y-97250000D01*
X32004000Y-97250000D02*
X32154448Y-97250000D01*
X25070000Y-97250000D02*
X32004000Y-97250000D01*
X32044000Y-106840000D02*
X32044000Y-97290000D01*
X41102224Y-45332224D02*
X41102224Y-46602224D01*
X46830000Y-46170000D02*
X41534448Y-46170000D01*
X56615000Y-71305000D02*
X53190000Y-74730000D01*
X40515552Y-47440000D02*
X38484448Y-47440000D01*
X47514347Y-38920101D02*
X41102224Y-45332224D01*
X69500000Y-57037500D02*
X69500000Y-56000000D01*
X36000000Y-49924448D02*
X36000000Y-52644999D01*
X70500000Y-55000000D02*
X69500000Y-56000000D01*
X58695000Y-71305000D02*
X56615000Y-71305000D01*
X34550000Y-53120000D02*
X34550000Y-54912500D01*
X36130000Y-95870000D02*
X38000000Y-94000000D01*
X56900000Y-39000000D02*
X56820101Y-38920101D01*
X40775000Y-47180552D02*
X40515552Y-47440000D01*
X35524999Y-53120000D02*
X34550000Y-53120000D01*
X60500000Y-84500000D02*
X60500000Y-82660000D01*
X40775000Y-46929448D02*
X40775000Y-47180552D01*
X70000000Y-35557500D02*
X67442500Y-35557500D01*
X67442500Y-35557500D02*
X67183989Y-35816011D01*
X22920000Y-51500000D02*
X22920000Y-49457500D01*
X62037500Y-66392756D02*
X61200256Y-67230000D01*
X47500000Y-45500000D02*
X46830000Y-46170000D01*
X35425000Y-80500000D02*
X35425000Y-78170000D01*
X38000000Y-94000000D02*
X39500000Y-94000000D01*
X61200256Y-67230000D02*
X58810000Y-69620256D01*
X33534448Y-95870000D02*
X36130000Y-95870000D01*
X60537500Y-86500000D02*
X60537500Y-84537500D01*
X62037500Y-64500000D02*
X69500000Y-57037500D01*
X32154448Y-97250000D02*
X33534448Y-95870000D01*
X58810000Y-71190000D02*
X58695000Y-71305000D01*
X41534448Y-46170000D02*
X41102224Y-46602224D01*
X62000000Y-67230000D02*
X61200256Y-67230000D01*
X41102224Y-46602224D02*
X40775000Y-46929448D01*
X58810000Y-69620256D02*
X58810000Y-71190000D01*
X24540000Y-53120000D02*
X34550000Y-53120000D01*
X62037500Y-64500000D02*
X62037500Y-66392756D01*
X22920000Y-51500000D02*
X24540000Y-53120000D01*
X47500000Y-43500000D02*
X47500000Y-45500000D01*
X36000000Y-52644999D02*
X35524999Y-53120000D01*
X56820101Y-38920101D02*
X47514347Y-38920101D01*
X38484448Y-47440000D02*
X36000000Y-49924448D01*
%TO.N,GND*%
X68000000Y-74500000D02*
X68500000Y-74000000D01*
X43475000Y-58270000D02*
X43475000Y-59540000D01*
X69620000Y-72880000D02*
X68500000Y-74000000D01*
X33000000Y-95000000D02*
X33500000Y-94500000D01*
X117000000Y-101191120D02*
X116904440Y-101095560D01*
X124037500Y-101500000D02*
X125000000Y-101500000D01*
X43500000Y-101950000D02*
X42500000Y-101950000D01*
X24460000Y-61000000D02*
X25500000Y-61000000D01*
X43475000Y-59540000D02*
X43475000Y-60810000D01*
X24537500Y-49000000D02*
X25500000Y-49000000D01*
X119650000Y-106650000D02*
X120000000Y-107000000D01*
X39500000Y-80500000D02*
X38500000Y-80500000D01*
X43475000Y-60810000D02*
X43475000Y-61475000D01*
X117000000Y-102350000D02*
X117250000Y-102350000D01*
X68000000Y-77230000D02*
X68000000Y-75960000D01*
X63500000Y-78000000D02*
X64000000Y-78500000D01*
X117000000Y-102350000D02*
X117000000Y-101191120D01*
X74540000Y-38450000D02*
X73270000Y-38450000D01*
X73270000Y-38450000D02*
X72000000Y-38450000D01*
X34000000Y-94000000D02*
X33500000Y-94500000D01*
X32000000Y-95000000D02*
X33000000Y-95000000D01*
X44000000Y-93000000D02*
X45000000Y-93000000D01*
X73837500Y-43500000D02*
X75000000Y-43500000D01*
X72730000Y-59000000D02*
X71460000Y-59000000D01*
X50525000Y-46865000D02*
X50525000Y-45595000D01*
X72000000Y-38450000D02*
X71550000Y-38450000D01*
X117712500Y-98037500D02*
X118175000Y-98500000D01*
X60050000Y-32450000D02*
X60000000Y-32500000D01*
X119250000Y-106650000D02*
X119650000Y-106650000D01*
X26500000Y-49000000D02*
X25500000Y-49000000D01*
X37500000Y-80500000D02*
X38500000Y-80500000D01*
X81500000Y-28270000D02*
X81500000Y-27000000D01*
X43475000Y-61475000D02*
X43500000Y-61500000D01*
X68000000Y-75960000D02*
X68000000Y-74690000D01*
X60845000Y-32450000D02*
X60050000Y-32450000D01*
X118750000Y-106650000D02*
X119250000Y-106650000D01*
X110925000Y-106075000D02*
X111000000Y-106000000D01*
X63385000Y-32450000D02*
X62115000Y-32450000D01*
X47500000Y-29930000D02*
X47500000Y-29000000D01*
X110925000Y-107000000D02*
X110925000Y-106075000D01*
X113500000Y-104500000D02*
X114000000Y-104000000D01*
X73000000Y-83000000D02*
X73000000Y-84000000D01*
X36537500Y-55000000D02*
X37500000Y-55000000D01*
X62115000Y-32450000D02*
X60845000Y-32450000D01*
X71550000Y-38450000D02*
X71500000Y-38500000D01*
X26385000Y-61000000D02*
X25500000Y-61000000D01*
X29500000Y-81500000D02*
X29500000Y-80500000D01*
X81500000Y-29540000D02*
X81500000Y-28270000D01*
X116750000Y-102350000D02*
X117000000Y-102350000D01*
X69620000Y-72180000D02*
X69620000Y-73070000D01*
X90000000Y-35000000D02*
X90000000Y-34000000D01*
X50525000Y-48135000D02*
X50525000Y-46865000D01*
X74000000Y-59000000D02*
X72730000Y-59000000D01*
%TO.N,+3.3V*%
X119357410Y-105000000D02*
X119142590Y-105000000D01*
X119250000Y-103000000D02*
X119250000Y-102350000D01*
X120100000Y-101500000D02*
X121962500Y-101500000D01*
X118250000Y-105250000D02*
X118500000Y-105000000D01*
X120857410Y-106500000D02*
X119357410Y-105000000D01*
X123000000Y-106500000D02*
X120857410Y-106500000D01*
X118500000Y-105000000D02*
X119142590Y-105000000D01*
X115000000Y-108100000D02*
X115000000Y-107400000D01*
X118142590Y-103500000D02*
X118857410Y-103500000D01*
X115400000Y-107000000D02*
X115750000Y-106650000D01*
X117750000Y-102350000D02*
X117750000Y-103107410D01*
X115750000Y-106650000D02*
X115750000Y-105892590D01*
X119250000Y-104892590D02*
X119250000Y-103000000D01*
X115750000Y-105892590D02*
X116642590Y-105000000D01*
X118250000Y-106650000D02*
X118250000Y-105250000D01*
X119250000Y-103107410D02*
X119250000Y-103000000D01*
X119142590Y-105000000D02*
X119250000Y-104892590D01*
X117750000Y-103107410D02*
X118142590Y-103500000D01*
X118857410Y-103500000D02*
X119250000Y-103107410D01*
X115000000Y-107400000D02*
X115400000Y-107000000D01*
X116642590Y-105000000D02*
X118500000Y-105000000D01*
X119250000Y-102350000D02*
X120100000Y-101500000D01*
X113000000Y-107000000D02*
X115400000Y-107000000D01*
%TO.N,Net-(C7-Pad2)*%
X119750000Y-97150000D02*
X120675000Y-98075000D01*
X114525000Y-97150000D02*
X119750000Y-97150000D01*
X113675000Y-98000000D02*
X114525000Y-97150000D01*
%TO.N,/Iso SPI/isoSPI_-*%
X118750000Y-101250000D02*
X118750000Y-102350000D01*
X120775000Y-100475000D02*
X121700000Y-99550000D01*
X120675000Y-96000000D02*
X120675000Y-93905000D01*
X120675000Y-96000000D02*
X121700000Y-97025000D01*
X120775000Y-100475000D02*
X119525000Y-100475000D01*
X120675000Y-93905000D02*
X119790000Y-93020000D01*
X121700000Y-99550000D02*
X121700000Y-97025000D01*
X119525000Y-100475000D02*
X118750000Y-101250000D01*
%TO.N,Net-(C8-Pad1)*%
X117175000Y-95962500D02*
X117175000Y-93095000D01*
D56*
%TO.N,+12V*%
X80500000Y-48600000D02*
X80500000Y-47337500D01*
X42250000Y-23500000D02*
X45750000Y-27000000D01*
X73892500Y-66500000D02*
X72500000Y-67892500D01*
X95160000Y-42500000D02*
X90822500Y-46837500D01*
X29000000Y-62000000D02*
X29000000Y-61540000D01*
X29000000Y-61540000D02*
X28460000Y-61000000D01*
X76340000Y-66500000D02*
X73892500Y-66500000D01*
X72500000Y-67892500D02*
X77565500Y-72958000D01*
X28575000Y-49000000D02*
X28575000Y-50925000D01*
X77565500Y-72958000D02*
X77565500Y-77167619D01*
X73733119Y-81000000D02*
X73000000Y-81000000D01*
X45750000Y-27000000D02*
X46500000Y-27000000D01*
X71000000Y-41500000D02*
X63500000Y-34000000D01*
X63500000Y-34000000D02*
X59100000Y-34000000D01*
X79688664Y-46837500D02*
X74351164Y-41500000D01*
X28040000Y-60580000D02*
X28460000Y-61000000D01*
X77565500Y-77167619D02*
X73733119Y-81000000D01*
X90822500Y-46837500D02*
X80000000Y-46837500D01*
X59100000Y-34000000D02*
X56100000Y-31000000D01*
X28040000Y-56500000D02*
X28040000Y-60580000D01*
X74351164Y-41500000D02*
X71000000Y-41500000D01*
D10*
%TO.N,+9V*%
X22960000Y-60425000D02*
X22385000Y-61000000D01*
X22960000Y-56500000D02*
X22960000Y-60425000D01*
%TO.N,/BMS_RL*%
X77835000Y-39997500D02*
X80000000Y-42162500D01*
X38525000Y-57000000D02*
X38525000Y-58270000D01*
X38525000Y-58270000D02*
X38525000Y-59540000D01*
X39815000Y-62100000D02*
X38525000Y-60810000D01*
X58232692Y-61828038D02*
X57960730Y-62100000D01*
X76000000Y-50500000D02*
X71151471Y-50500000D01*
X57960730Y-62100000D02*
X39815000Y-62100000D01*
X85000000Y-42500000D02*
X80337500Y-42500000D01*
X64143776Y-61828038D02*
X58232692Y-61828038D01*
X38525000Y-60810000D02*
X38525000Y-59540000D01*
X66500000Y-59471814D02*
X64143776Y-61828038D01*
X71151471Y-50500000D02*
X66500000Y-55151471D01*
X66500000Y-55151471D02*
X66500000Y-59471814D01*
X76000000Y-44500000D02*
X76000000Y-50500000D01*
%TO.N,/IMD_RL*%
X72950000Y-78500000D02*
X72950000Y-77230000D01*
X76340000Y-76660000D02*
X73110000Y-76660000D01*
X72960000Y-61500000D02*
X70875000Y-63585000D01*
X72950000Y-77230000D02*
X72950000Y-76500000D01*
X70875000Y-70942500D02*
X72500000Y-72567500D01*
X73110000Y-76660000D02*
X72950000Y-76500000D01*
X72950000Y-74690000D02*
X72500000Y-74240000D01*
X72950000Y-75960000D02*
X72950000Y-74690000D01*
X70875000Y-63585000D02*
X70875000Y-70942500D01*
X72950000Y-76500000D02*
X72950000Y-75960000D01*
X72500000Y-74240000D02*
X72500000Y-72567500D01*
%TO.N,Net-(D5-K)*%
X56100000Y-34500000D02*
X59675000Y-34500000D01*
X65175000Y-44349001D02*
X65175000Y-40000000D01*
X59675000Y-34500000D02*
X65175000Y-40000000D01*
X66310000Y-45484001D02*
X65175000Y-44349001D01*
%TO.N,/LATCH_RL*%
X60500000Y-40000000D02*
X60500000Y-43674001D01*
X60500000Y-43674001D02*
X58690000Y-45484001D01*
X55475000Y-49405000D02*
X55475000Y-48135000D01*
X55475000Y-48135000D02*
X55475000Y-46865000D01*
X55475000Y-46865000D02*
X55475000Y-45595000D01*
X58690000Y-45484001D02*
X55585999Y-45484001D01*
%TO.N,/SH_RESET*%
X68500000Y-43500000D02*
X67944001Y-42944001D01*
X67944001Y-42944001D02*
X66310000Y-42944001D01*
%TO.N,Net-(D7-A)*%
X86450000Y-27000000D02*
X90325000Y-27000000D01*
X86450000Y-30810000D02*
X86450000Y-29540000D01*
X95940000Y-27500000D02*
X91175000Y-27500000D01*
X91175000Y-27500000D02*
X90500000Y-26825000D01*
X86450000Y-28270000D02*
X86450000Y-29540000D01*
X86450000Y-27000000D02*
X86450000Y-28270000D01*
%TO.N,/Shutdown_Measure*%
X96685500Y-88174500D02*
X96685500Y-41685500D01*
X96685500Y-41685500D02*
X92000000Y-37000000D01*
X92000000Y-37000000D02*
X90000000Y-37000000D01*
X79120000Y-105740000D02*
X96685500Y-88174500D01*
D55*
%TO.N,/HVIL*%
X131000000Y-38000000D02*
X130612500Y-37612500D01*
X132750000Y-24500000D02*
X132750000Y-29750000D01*
X132750000Y-29750000D02*
X131500000Y-31000000D01*
X130612500Y-37612500D02*
X130612500Y-36612500D01*
X130000000Y-32500000D02*
X131500000Y-31000000D01*
X130000000Y-36000000D02*
X130000000Y-32500000D01*
X130612500Y-36612500D02*
X130000000Y-36000000D01*
D10*
%TO.N,/Current_Vout*%
X34550000Y-90190000D02*
X34550000Y-91460000D01*
X43490000Y-89490000D02*
X44000000Y-90000000D01*
X34550000Y-90190000D02*
X35240000Y-89500000D01*
X32512978Y-90190000D02*
X34550000Y-90190000D01*
X20600000Y-86665685D02*
X21034315Y-87100000D01*
X44000000Y-90000000D02*
X44000000Y-91000000D01*
X39624314Y-89500000D02*
X39634314Y-89490000D01*
X39634314Y-89490000D02*
X43490000Y-89490000D01*
X21034315Y-87100000D02*
X27500000Y-87100000D01*
X20600000Y-38810000D02*
X20600000Y-86665685D01*
X29661489Y-87338511D02*
X32512978Y-90190000D01*
X22660000Y-36750000D02*
X20600000Y-38810000D01*
X35240000Y-89500000D02*
X39624314Y-89500000D01*
%TO.N,/BMS_LED_Control*%
X68500000Y-33500000D02*
X69942500Y-33500000D01*
X25100000Y-37900000D02*
X25000000Y-38000000D01*
X24010000Y-40600000D02*
X25160000Y-41750000D01*
X25000000Y-38000000D02*
X24783654Y-38000000D01*
X72000000Y-33500000D02*
X73270000Y-33500000D01*
X54300000Y-37168630D02*
X53568630Y-37900000D01*
X24783654Y-38000000D02*
X24010000Y-38773654D01*
X73270000Y-33500000D02*
X74540000Y-33500000D01*
X53568630Y-37900000D02*
X25100000Y-37900000D01*
X24010000Y-38773654D02*
X24010000Y-40600000D01*
X70000000Y-33557500D02*
X71942500Y-33557500D01*
X74540000Y-33500000D02*
X75810000Y-33500000D01*
%TO.N,Net-(CR1-G)*%
X65500000Y-77730000D02*
X66270000Y-78500000D01*
X66270000Y-78500000D02*
X68000000Y-78500000D01*
%TO.N,Net-(CR3-G)*%
X43500000Y-55000000D02*
X43500000Y-56975000D01*
%TO.N,/IMD_LED_Control*%
X71460000Y-54050000D02*
X72730000Y-54050000D01*
X69500000Y-54000000D02*
X71410000Y-54000000D01*
X67250000Y-55250000D02*
X68500000Y-54000000D01*
X72730000Y-54050000D02*
X74000000Y-54050000D01*
X74000000Y-54050000D02*
X75270000Y-54050000D01*
X68500000Y-54000000D02*
X69500000Y-54000000D01*
%TO.N,Net-(CR4-G)*%
X75810000Y-38450000D02*
X76702500Y-37557500D01*
X76702500Y-37557500D02*
X77835000Y-37557500D01*
%TO.N,/Current_Vref*%
X21000000Y-40910000D02*
X21000000Y-86500000D01*
X33534448Y-92060000D02*
X38900000Y-92060000D01*
X43000000Y-94000000D02*
X44000000Y-95000000D01*
X38900000Y-92060000D02*
X39500000Y-91460000D01*
X42890000Y-89890000D02*
X43000000Y-90000000D01*
X43000000Y-90000000D02*
X43000000Y-94000000D01*
X21000000Y-86500000D02*
X27974448Y-86500000D01*
X39800000Y-89890000D02*
X42890000Y-89890000D01*
X22660000Y-39250000D02*
X21000000Y-40910000D01*
X39500000Y-90190000D02*
X39800000Y-89890000D01*
X39500000Y-91460000D02*
X39500000Y-90190000D01*
X27974448Y-86500000D02*
X33534448Y-92060000D01*
%TO.N,/Charge_State*%
X27850000Y-81850000D02*
X24650000Y-81850000D01*
X29500000Y-83500000D02*
X27850000Y-81850000D01*
X24650000Y-81850000D02*
X23500000Y-83000000D01*
%TO.N,/CAN_H1*%
X35475000Y-75580000D02*
X33055000Y-78000000D01*
X24850000Y-76850000D02*
X26000000Y-78000000D01*
X26000000Y-73000000D02*
X24850000Y-74150000D01*
X24850000Y-74150000D02*
X24850000Y-76850000D01*
X33055000Y-78000000D02*
X26000000Y-78000000D01*
%TO.N,/CAN_L1*%
X32500000Y-75500000D02*
X26000000Y-75500000D01*
X32500000Y-74000000D02*
X32500000Y-75500000D01*
X35475000Y-73040000D02*
X33015000Y-75500000D01*
X33015000Y-75500000D02*
X32500000Y-75500000D01*
%TO.N,/CAN_L_RES1*%
X26000000Y-70500000D02*
X31000000Y-70500000D01*
X31000000Y-70500000D02*
X32500000Y-72000000D01*
%TO.N,/MISO*%
X116750000Y-108215422D02*
X116750000Y-106650000D01*
X117034578Y-108500000D02*
X123000000Y-108500000D01*
X116750000Y-108215422D02*
X117034578Y-108500000D01*
%TO.N,/Iso SPI/ICMP*%
X111000000Y-102000000D02*
X112000000Y-101000000D01*
X111000000Y-104500000D02*
X111000000Y-102000000D01*
X115657410Y-101000000D02*
X116250000Y-101592590D01*
X112000000Y-101000000D02*
X115657410Y-101000000D01*
X116250000Y-101592590D02*
X116250000Y-102350000D01*
%TO.N,/Iso SPI/IBIAS*%
X115400000Y-102000000D02*
X115750000Y-102350000D01*
X113000000Y-102000000D02*
X115400000Y-102000000D01*
%TO.N,/Iso SPI/isoSPI_+*%
X112675000Y-98584744D02*
X113090256Y-99000000D01*
X113675000Y-96000000D02*
X112675000Y-97000000D01*
X118250000Y-101592590D02*
X118250000Y-102350000D01*
X112675000Y-97000000D02*
X112675000Y-98584744D01*
X113675000Y-96000000D02*
X113675000Y-94055000D01*
X113090256Y-99000000D02*
X115657410Y-99000000D01*
X113675000Y-94055000D02*
X114710000Y-93020000D01*
X115657410Y-99000000D02*
X118250000Y-101592590D01*
%TO.N,Net-(L1-Pad1)*%
X120000000Y-75500000D02*
X119790000Y-75710000D01*
X126000000Y-75500000D02*
X120930000Y-75500000D01*
X120930000Y-75500000D02*
X120305000Y-74875000D01*
X119790000Y-75710000D02*
X119790000Y-78730000D01*
X120000000Y-75180000D02*
X120000000Y-75500000D01*
%TO.N,Net-(L1-Pad3)*%
X116625000Y-72875000D02*
X114710000Y-74790000D01*
X125125000Y-72875000D02*
X120305000Y-72875000D01*
X114710000Y-74790000D02*
X114710000Y-78730000D01*
X125500000Y-72500000D02*
X125125000Y-72875000D01*
X120305000Y-72875000D02*
X116625000Y-72875000D01*
%TO.N,/Iso SPI/extIsoSPI_P*%
X133000000Y-71500000D02*
X137820000Y-71500000D01*
X137820000Y-71500000D02*
X140070000Y-73750000D01*
X129000000Y-71500000D02*
X133000000Y-71500000D01*
X133000000Y-73500000D02*
X133000000Y-71500000D01*
X128000000Y-72500000D02*
X129000000Y-71500000D01*
%TO.N,/Iso SPI/extIsoSPI_N*%
X133000000Y-78000000D02*
X133000000Y-75500000D01*
X128000000Y-75500000D02*
X139320000Y-75500000D01*
%TO.N,/IMD_FAULT_12V*%
X39750000Y-25004214D02*
X39750000Y-23500000D01*
X44675786Y-29930000D02*
X39750000Y-25004214D01*
X45500000Y-29930000D02*
X44675786Y-29930000D01*
%TO.N,/IMD_Status*%
X47500000Y-31930000D02*
X45500000Y-31930000D01*
%TO.N,/GLV Voltage*%
X67895000Y-86105000D02*
X71000000Y-83000000D01*
X71000000Y-83000000D02*
X71000000Y-81000000D01*
X67895000Y-99185000D02*
X67895000Y-86105000D01*
X61340000Y-105740000D02*
X67895000Y-99185000D01*
%TO.N,/CAN1_TD*%
X46500000Y-73000000D02*
X44565000Y-73000000D01*
%TO.N,/Shutdown_ACC_BMS_TP*%
X85000000Y-75160000D02*
X85000000Y-60280000D01*
X86500000Y-76660000D02*
X85000000Y-75160000D01*
%TO.N,Net-(CR2-G)*%
X43150000Y-48710000D02*
X48515552Y-48710000D01*
X49210552Y-49405000D02*
X50525000Y-49405000D01*
X48515552Y-48710000D02*
X49210552Y-49405000D01*
X42550000Y-49310000D02*
X43150000Y-48710000D01*
%TO.N,Net-(U12-Q)*%
X63270000Y-72180000D02*
X63270000Y-73154999D01*
X56960000Y-73500000D02*
X55730000Y-74730000D01*
X63270000Y-73154999D02*
X62924999Y-73500000D01*
X62924999Y-73500000D02*
X56960000Y-73500000D01*
%TO.N,Net-(U12-THR)*%
X56500000Y-84500000D02*
X56500000Y-83120000D01*
X56500000Y-83120000D02*
X55730000Y-82350000D01*
X55730000Y-83080000D02*
X55730000Y-78000000D01*
X58500000Y-84500000D02*
X56500000Y-84500000D01*
X55730000Y-78000000D02*
X58270000Y-75460000D01*
%TO.N,Net-(CR5-G)*%
X75270000Y-59000000D02*
X75270000Y-61190000D01*
D55*
%TO.N,Net-(D8-A)*%
X132500000Y-36000000D02*
X132500000Y-38000000D01*
X131500000Y-35000000D02*
X132500000Y-36000000D01*
%TO.N,/TS-*%
X135250000Y-24500000D02*
X135250000Y-29325000D01*
X133575000Y-31000000D02*
X133575000Y-35000000D01*
X133575000Y-35000000D02*
X133575000Y-36500000D01*
X135250000Y-29325000D02*
X133575000Y-31000000D01*
X139180000Y-36500000D02*
X133575000Y-36500000D01*
X133575000Y-37575000D02*
X134000000Y-38000000D01*
X141250000Y-34430000D02*
X139180000Y-36500000D01*
X133575000Y-36500000D02*
X133575000Y-37575000D01*
D10*
%TO.N,/Temp_Sense_GND*%
X33769044Y-28500000D02*
X34500000Y-28500000D01*
X23960000Y-30450000D02*
X22660000Y-31750000D01*
X31819044Y-30450000D02*
X33769044Y-28500000D01*
X30275000Y-30450000D02*
X31819044Y-30450000D01*
X30275000Y-30450000D02*
X23960000Y-30450000D01*
%TO.N,/Temp_Sense_One_Wire*%
X22660000Y-29250000D02*
X23810000Y-28100000D01*
X29875000Y-28100000D02*
X30275000Y-28500000D01*
X23810000Y-28100000D02*
X29875000Y-28100000D01*
%TO.N,/Raw_Curr_Out*%
X34550000Y-92730000D02*
X32270000Y-92730000D01*
X31000000Y-93000000D02*
X32000000Y-93000000D01*
%TO.N,/Raw_Curr_VRef*%
X36765552Y-93400000D02*
X33534448Y-93400000D01*
X33034448Y-93900000D02*
X29220000Y-93900000D01*
X29220000Y-93900000D02*
X25070000Y-89750000D01*
X39500000Y-92730000D02*
X37435552Y-92730000D01*
X33534448Y-93400000D02*
X33034448Y-93900000D01*
X37435552Y-92730000D02*
X36765552Y-93400000D01*
D55*
%TO.N,/IR+_12V*%
X90500000Y-31500000D02*
X93500000Y-34500000D01*
D10*
X85012224Y-31500000D02*
X90500000Y-31500000D01*
X71600000Y-22145000D02*
X73000000Y-23545000D01*
X68000000Y-23545000D02*
X69400000Y-22145000D01*
X84045000Y-30532776D02*
X85012224Y-31500000D01*
D55*
X93500000Y-35000000D02*
X95940000Y-35000000D01*
D10*
X69400000Y-22145000D02*
X71600000Y-22145000D01*
D55*
X92000000Y-35000000D02*
X93500000Y-35000000D01*
D10*
X73000000Y-23545000D02*
X84045000Y-23545000D01*
D55*
X93500000Y-34500000D02*
X93500000Y-35000000D01*
D10*
X84045000Y-23545000D02*
X84045000Y-30532776D01*
%TO.N,/IR+_GND*%
X62115000Y-27500000D02*
X60845000Y-27500000D01*
X60000000Y-27500000D02*
X60845000Y-27500000D01*
X65500000Y-23545000D02*
X65500000Y-26655000D01*
X65500000Y-26655000D02*
X64655000Y-27500000D01*
X63385000Y-27500000D02*
X62115000Y-27500000D01*
X64655000Y-27500000D02*
X63385000Y-27500000D01*
D57*
%TO.N,Net-(J8-Pad2)*%
X124250000Y-27430000D02*
X116010000Y-27430000D01*
D10*
%TO.N,Net-(Q2-G)*%
X81150000Y-31160000D02*
X81150000Y-33500000D01*
X81500000Y-30810000D02*
X81150000Y-31160000D01*
%TO.N,/Precharge_Control*%
X82420000Y-33500000D02*
X82420000Y-34474999D01*
X82420000Y-34474999D02*
X82119999Y-34775000D01*
%TO.N,/Amp_Curr_Sensor*%
X45500000Y-101950000D02*
X45500000Y-99500000D01*
X46500000Y-108000000D02*
X64160000Y-108000000D01*
X45500000Y-107000000D02*
X46500000Y-108000000D01*
X45500000Y-101950000D02*
X45500000Y-107000000D01*
X64160000Y-108000000D02*
X66420000Y-105740000D01*
%TO.N,Net-(R4-Pad2)*%
X39500000Y-97810000D02*
X39799999Y-98109999D01*
X40500000Y-98109999D02*
X42890001Y-98109999D01*
X39799999Y-98109999D02*
X40500000Y-98109999D01*
X43500000Y-98719998D02*
X42890001Y-98109999D01*
X42890001Y-98109999D02*
X44000000Y-97000000D01*
X43500000Y-99500000D02*
X43500000Y-98719998D01*
%TO.N,Net-(U5A--)*%
X40040000Y-96000000D02*
X39500000Y-96540000D01*
X42000000Y-96000000D02*
X40040000Y-96000000D01*
X42000000Y-96000000D02*
X42000000Y-97000000D01*
X42000000Y-95000000D02*
X42000000Y-96000000D01*
%TO.N,Net-(U5A-+)*%
X40474999Y-95270000D02*
X41000000Y-94744999D01*
X39500000Y-95270000D02*
X40474999Y-95270000D01*
X41000000Y-94000000D02*
X42000000Y-93000000D01*
X42000000Y-91000000D02*
X42000000Y-93000000D01*
X41000000Y-94744999D02*
X41000000Y-94000000D01*
%TO.N,Net-(R26-Pad2)*%
X60500000Y-72180000D02*
X62000000Y-72180000D01*
X60475000Y-72205000D02*
X60500000Y-72180000D01*
X57810000Y-72205000D02*
X59810000Y-72205000D01*
X59810000Y-72205000D02*
X60475000Y-72205000D01*
%TO.N,/IMD_DELAY*%
X63500000Y-75730000D02*
X65500000Y-75730000D01*
X49509448Y-48805000D02*
X51540552Y-48805000D01*
X51800000Y-56800000D02*
X56500000Y-61500000D01*
X42550000Y-44777756D02*
X44852756Y-42475000D01*
X44852756Y-42475000D02*
X48072244Y-42475000D01*
X64540000Y-74690000D02*
X64540000Y-72180000D01*
X42550000Y-45500000D02*
X42550000Y-44777756D01*
X63500000Y-75730000D02*
X64540000Y-74690000D01*
X48072244Y-42475000D02*
X48775000Y-43177756D01*
X51800000Y-49064448D02*
X51800000Y-56800000D01*
X48775000Y-43177756D02*
X48775000Y-48070552D01*
X51540552Y-48805000D02*
X51800000Y-49064448D01*
X48775000Y-48070552D02*
X49509448Y-48805000D01*
%TO.N,/TSSI_TP*%
X39500000Y-51850000D02*
X42550000Y-51850000D01*
%TO.N,/BMS_CS*%
X117750000Y-106650000D02*
X117750000Y-107407410D01*
X118242590Y-107900000D02*
X118500000Y-107900000D01*
X117750000Y-107407410D02*
X118242590Y-107900000D01*
%TO.N,/CLK*%
X117250000Y-107755938D02*
X117394062Y-107900000D01*
X117250000Y-106650000D02*
X117250000Y-107755938D01*
%TO.N,Net-(U16-Pad1)*%
X38225000Y-52819999D02*
X38525001Y-53120000D01*
X42550000Y-48040000D02*
X41575001Y-48040000D01*
X38225000Y-51509448D02*
X38225000Y-52819999D01*
X41575001Y-48040000D02*
X41000000Y-48615001D01*
X38484448Y-51250000D02*
X38225000Y-51509448D01*
X40445552Y-51250000D02*
X38484448Y-51250000D01*
X38525001Y-53120000D02*
X39500000Y-53120000D01*
X41000000Y-48615001D02*
X41000000Y-50695552D01*
X41000000Y-50695552D02*
X40445552Y-51250000D01*
D57*
%TO.N,Net-(J8-Pad1)*%
X126750000Y-27430000D02*
X119180000Y-35000000D01*
X119180000Y-35000000D02*
X112440000Y-35000000D01*
%TD*%
M02*
