%TF.GenerationSoftware,KiCad,Pcbnew,9.0.0*%
%TF.CreationDate,2025-03-11T01:30:40-07:00*%
%TF.ProjectId,TelemMainV3,54656c65-6d4d-4616-996e-56332e6b6963,3.0*%
%TF.SameCoordinates,Original*%
%TF.FileFunction,Paste,Top*%
%TF.FilePolarity,Positive*%
%FSLAX46Y46*%
G04 Gerber Fmt 4.6, Leading zero omitted, Abs format (unit mm)*
G04 Created by KiCad (PCBNEW 9.0.0) date 2025-03-11 01:30:40*
%MOMM*%
%LPD*%
G01*
G04 APERTURE LIST*
G04 Aperture macros list*
%AMRoundRect*
0 Rectangle with rounded corners*
0 $1 Rounding radius*
0 $2 $3 $4 $5 $6 $7 $8 $9 X,Y pos of 4 corners*
0 Add a 4 corners polygon primitive as box body*
4,1,4,$2,$3,$4,$5,$6,$7,$8,$9,$2,$3,0*
0 Add four circle primitives for the rounded corners*
1,1,$1+$1,$2,$3*
1,1,$1+$1,$4,$5*
1,1,$1+$1,$6,$7*
1,1,$1+$1,$8,$9*
0 Add four rect primitives between the rounded corners*
20,1,$1+$1,$2,$3,$4,$5,0*
20,1,$1+$1,$4,$5,$6,$7,0*
20,1,$1+$1,$6,$7,$8,$9,0*
20,1,$1+$1,$8,$9,$2,$3,0*%
G04 Aperture macros list end*
%ADD10RoundRect,0.250000X-0.450000X0.325000X-0.450000X-0.325000X0.450000X-0.325000X0.450000X0.325000X0*%
%ADD11RoundRect,0.250000X0.450000X-0.350000X0.450000X0.350000X-0.450000X0.350000X-0.450000X-0.350000X0*%
%ADD12RoundRect,0.249999X-0.512501X-1.075001X0.512501X-1.075001X0.512501X1.075001X-0.512501X1.075001X0*%
%ADD13RoundRect,0.249999X4.150001X4.550001X-4.150001X4.550001X-4.150001X-4.550001X4.150001X-4.550001X0*%
%ADD14RoundRect,0.162500X-1.012500X-0.162500X1.012500X-0.162500X1.012500X0.162500X-1.012500X0.162500X0*%
%ADD15RoundRect,0.250000X0.350000X0.450000X-0.350000X0.450000X-0.350000X-0.450000X0.350000X-0.450000X0*%
%ADD16RoundRect,0.250000X-0.337500X-0.475000X0.337500X-0.475000X0.337500X0.475000X-0.337500X0.475000X0*%
%ADD17RoundRect,0.250000X-0.350000X-0.450000X0.350000X-0.450000X0.350000X0.450000X-0.350000X0.450000X0*%
%ADD18RoundRect,0.250000X-0.475000X0.337500X-0.475000X-0.337500X0.475000X-0.337500X0.475000X0.337500X0*%
%ADD19RoundRect,0.150000X0.825000X0.150000X-0.825000X0.150000X-0.825000X-0.150000X0.825000X-0.150000X0*%
%ADD20RoundRect,0.250000X-0.450000X0.262500X-0.450000X-0.262500X0.450000X-0.262500X0.450000X0.262500X0*%
%ADD21RoundRect,0.250000X0.475000X-0.337500X0.475000X0.337500X-0.475000X0.337500X-0.475000X-0.337500X0*%
%ADD22R,0.300000X0.800000*%
%ADD23R,0.400000X0.800000*%
%ADD24RoundRect,0.250000X0.337500X0.475000X-0.337500X0.475000X-0.337500X-0.475000X0.337500X-0.475000X0*%
G04 APERTURE END LIST*
D10*
%TO.C,D4*%
X115917200Y-108975000D03*
X115917200Y-111025000D03*
%TD*%
D11*
%TO.C,R14*%
X120500000Y-115500000D03*
X120500000Y-113500000D03*
%TD*%
%TO.C,R15*%
X116417200Y-113296800D03*
X116417200Y-115296800D03*
%TD*%
D10*
%TO.C,D3*%
X120417200Y-111525000D03*
X120417200Y-109475000D03*
%TD*%
D12*
%TO.C,D1*%
X115825000Y-118000000D03*
X120500000Y-118000000D03*
%TD*%
D13*
%TO.C,C9*%
X87250000Y-66000000D03*
X100750000Y-66000000D03*
%TD*%
D14*
%TO.C,U4*%
X207782000Y-98870000D03*
X207782000Y-101410000D03*
X207782000Y-103950000D03*
X207782000Y-106490000D03*
X198732000Y-106490000D03*
X198732000Y-103950000D03*
X198732000Y-101410000D03*
X198732000Y-98870000D03*
%TD*%
D15*
%TO.C,R6*%
X201257000Y-73180000D03*
X199257000Y-73180000D03*
%TD*%
D16*
%TO.C,C14*%
X199219500Y-76990000D03*
X201294500Y-76990000D03*
%TD*%
D15*
%TO.C,R12*%
X204757000Y-81180000D03*
X206757000Y-81180000D03*
%TD*%
D17*
%TO.C,R13*%
X202693000Y-81180000D03*
X200693000Y-81180000D03*
%TD*%
D15*
%TO.C,R8*%
X204270200Y-86680000D03*
X202270200Y-86680000D03*
%TD*%
D17*
%TO.C,R7*%
X198257000Y-86680000D03*
X200257000Y-86680000D03*
%TD*%
D18*
%TO.C,C8*%
X201378400Y-92907500D03*
X201378400Y-90832500D03*
%TD*%
D17*
%TO.C,R5*%
X205500000Y-73000000D03*
X203500000Y-73000000D03*
%TD*%
D19*
%TO.C,U6*%
X199282000Y-67990000D03*
X199282000Y-66720000D03*
X199282000Y-65450000D03*
X199282000Y-64180000D03*
X199282000Y-62910000D03*
X199282000Y-61640000D03*
X199282000Y-60370000D03*
X204232000Y-60370000D03*
X204232000Y-61640000D03*
X204232000Y-62910000D03*
X204232000Y-64180000D03*
X204232000Y-65450000D03*
X204232000Y-66720000D03*
X204232000Y-67990000D03*
%TD*%
D18*
%TO.C,C7*%
X202257000Y-111642500D03*
X202257000Y-113717500D03*
%TD*%
D20*
%TO.C,R11*%
X138040000Y-109377500D03*
X138040000Y-107552500D03*
%TD*%
D21*
%TO.C,C5*%
X138007000Y-111605000D03*
X138007000Y-113680000D03*
%TD*%
D22*
%TO.C,J5*%
X165750000Y-138720000D03*
X165250000Y-138720000D03*
X164750000Y-138720000D03*
X164250000Y-138720000D03*
X163750000Y-138720000D03*
X163250000Y-138720000D03*
D23*
X166750000Y-136220000D03*
X150250000Y-136220000D03*
D22*
X162750000Y-138720000D03*
X162250000Y-138720000D03*
X161750000Y-138720000D03*
X161250000Y-138720000D03*
X160750000Y-138720000D03*
X160250000Y-138720000D03*
X159750000Y-138720000D03*
X159250000Y-138720000D03*
X158750000Y-138720000D03*
X158250000Y-138720000D03*
X157750000Y-138720000D03*
X157250000Y-138720000D03*
X156750000Y-138720000D03*
X156250000Y-138720000D03*
X155750000Y-138720000D03*
X155250000Y-138720000D03*
X154750000Y-138720000D03*
X154250000Y-138720000D03*
X153750000Y-138720000D03*
X153250000Y-138720000D03*
X152750000Y-138720000D03*
X152250000Y-138720000D03*
X151750000Y-138720000D03*
X151250000Y-138720000D03*
%TD*%
D24*
%TO.C,C4*%
X120307000Y-62971000D03*
X118232000Y-62971000D03*
%TD*%
%TO.C,C12*%
X115778500Y-79842900D03*
X113703500Y-79842900D03*
%TD*%
D21*
%TO.C,C11*%
X115757000Y-77680000D03*
X115757000Y-75605000D03*
%TD*%
D11*
%TO.C,R1*%
X123790600Y-131131200D03*
X123790600Y-129131200D03*
%TD*%
D24*
%TO.C,C3*%
X117540500Y-65260000D03*
X115465500Y-65260000D03*
%TD*%
D16*
%TO.C,C1*%
X111465500Y-65260000D03*
X113540500Y-65260000D03*
%TD*%
D11*
%TO.C,R2*%
X123790600Y-126610000D03*
X123790600Y-124610000D03*
%TD*%
D21*
%TO.C,C13*%
X204917000Y-129717500D03*
X204917000Y-127642500D03*
%TD*%
D16*
%TO.C,C2*%
X114232000Y-62971000D03*
X116307000Y-62971000D03*
%TD*%
M02*
