%TF.GenerationSoftware,KiCad,Pcbnew,9.0.0*%
%TF.CreationDate,2025-03-11T12:16:19-07:00*%
%TF.ProjectId,TelemMainV3,54656c65-6d4d-4616-996e-56332e6b6963,3.0*%
%TF.SameCoordinates,Original*%
%TF.FileFunction,Soldermask,Top*%
%TF.FilePolarity,Negative*%
%FSLAX46Y46*%
G04 Gerber Fmt 4.6, Leading zero omitted, Abs format (unit mm)*
G04 Created by KiCad (PCBNEW 9.0.0) date 2025-03-11 12:16:19*
%MOMM*%
%LPD*%
G01*
G04 APERTURE LIST*
G04 Aperture macros list*
%AMRoundRect*
0 Rectangle with rounded corners*
0 $1 Rounding radius*
0 $2 $3 $4 $5 $6 $7 $8 $9 X,Y pos of 4 corners*
0 Add a 4 corners polygon primitive as box body*
4,1,4,$2,$3,$4,$5,$6,$7,$8,$9,$2,$3,0*
0 Add four circle primitives for the rounded corners*
1,1,$1+$1,$2,$3*
1,1,$1+$1,$4,$5*
1,1,$1+$1,$6,$7*
1,1,$1+$1,$8,$9*
0 Add four rect primitives between the rounded corners*
20,1,$1+$1,$2,$3,$4,$5,0*
20,1,$1+$1,$4,$5,$6,$7,0*
20,1,$1+$1,$6,$7,$8,$9,0*
20,1,$1+$1,$8,$9,$2,$3,0*%
G04 Aperture macros list end*
%ADD10RoundRect,0.250000X-0.450000X0.325000X-0.450000X-0.325000X0.450000X-0.325000X0.450000X0.325000X0*%
%ADD11RoundRect,0.101600X0.838200X-0.838200X0.838200X0.838200X-0.838200X0.838200X-0.838200X-0.838200X0*%
%ADD12C,1.879600*%
%ADD13C,4.203200*%
%ADD14RoundRect,0.250000X0.350000X0.450000X-0.350000X0.450000X-0.350000X-0.450000X0.350000X-0.450000X0*%
%ADD15RoundRect,0.250000X0.450000X-0.350000X0.450000X0.350000X-0.450000X0.350000X-0.450000X-0.350000X0*%
%ADD16RoundRect,0.250000X-0.475000X0.337500X-0.475000X-0.337500X0.475000X-0.337500X0.475000X0.337500X0*%
%ADD17RoundRect,0.250000X-0.350000X-0.450000X0.350000X-0.450000X0.350000X0.450000X-0.350000X0.450000X0*%
%ADD18C,3.500000*%
%ADD19RoundRect,0.102000X0.700000X0.700000X-0.700000X0.700000X-0.700000X-0.700000X0.700000X-0.700000X0*%
%ADD20C,1.604000*%
%ADD21RoundRect,0.250000X0.337500X0.475000X-0.337500X0.475000X-0.337500X-0.475000X0.337500X-0.475000X0*%
%ADD22RoundRect,0.250000X0.475000X-0.337500X0.475000X0.337500X-0.475000X0.337500X-0.475000X-0.337500X0*%
%ADD23C,3.430000*%
%ADD24RoundRect,0.250000X0.950000X-0.950000X0.950000X0.950000X-0.950000X0.950000X-0.950000X-0.950000X0*%
%ADD25C,2.400000*%
%ADD26RoundRect,0.150000X0.825000X0.150000X-0.825000X0.150000X-0.825000X-0.150000X0.825000X-0.150000X0*%
%ADD27R,1.905000X2.000000*%
%ADD28O,1.905000X2.000000*%
%ADD29RoundRect,0.250000X-0.450000X0.262500X-0.450000X-0.262500X0.450000X-0.262500X0.450000X0.262500X0*%
%ADD30C,2.790000*%
%ADD31RoundRect,0.250000X-0.950000X0.950000X-0.950000X-0.950000X0.950000X-0.950000X0.950000X0.950000X0*%
%ADD32RoundRect,0.250000X-0.337500X-0.475000X0.337500X-0.475000X0.337500X0.475000X-0.337500X0.475000X0*%
%ADD33RoundRect,0.249999X-0.512501X-1.075001X0.512501X-1.075001X0.512501X1.075001X-0.512501X1.075001X0*%
%ADD34RoundRect,0.102000X-0.765000X-0.765000X0.765000X-0.765000X0.765000X0.765000X-0.765000X0.765000X0*%
%ADD35C,1.734000*%
%ADD36C,1.300000*%
%ADD37RoundRect,0.250000X0.600000X0.600000X-0.600000X0.600000X-0.600000X-0.600000X0.600000X-0.600000X0*%
%ADD38C,1.700000*%
%ADD39RoundRect,0.102000X0.150000X0.400000X-0.150000X0.400000X-0.150000X-0.400000X0.150000X-0.400000X0*%
%ADD40RoundRect,0.102000X0.200000X0.400000X-0.200000X0.400000X-0.200000X-0.400000X0.200000X-0.400000X0*%
%ADD41RoundRect,0.249999X4.150001X4.550001X-4.150001X4.550001X-4.150001X-4.550001X4.150001X-4.550001X0*%
%ADD42RoundRect,0.162500X-1.012500X-0.162500X1.012500X-0.162500X1.012500X0.162500X-1.012500X0.162500X0*%
G04 APERTURE END LIST*
D10*
%TO.C,D4*%
X115917200Y-108975000D03*
X115917200Y-111025000D03*
%TD*%
D11*
%TO.C,U8*%
X93332000Y-103000000D03*
D12*
X95872000Y-103000000D03*
X98412000Y-103000000D03*
X100952000Y-103000000D03*
X103492000Y-103000000D03*
X106032000Y-103000000D03*
X108572000Y-103000000D03*
X111112000Y-103000000D03*
X113652000Y-103000000D03*
X116192000Y-103000000D03*
D13*
X88252000Y-85220000D03*
X88252000Y-103000000D03*
X121272000Y-85220000D03*
X121272000Y-103000000D03*
%TD*%
D14*
%TO.C,R12*%
X206757000Y-81180000D03*
X204757000Y-81180000D03*
%TD*%
D15*
%TO.C,R15*%
X116417200Y-115296800D03*
X116417200Y-113296800D03*
%TD*%
%TO.C,R14*%
X120500000Y-115500000D03*
X120500000Y-113500000D03*
%TD*%
D14*
%TO.C,R8*%
X204270200Y-86680000D03*
X202270200Y-86680000D03*
%TD*%
%TO.C,R6*%
X201257000Y-73180000D03*
X199257000Y-73180000D03*
%TD*%
D16*
%TO.C,C7*%
X202257000Y-111642500D03*
X202257000Y-113717500D03*
%TD*%
D17*
%TO.C,R13*%
X200693000Y-81180000D03*
X202693000Y-81180000D03*
%TD*%
D18*
%TO.C,REF\u002A\u002A*%
X228950000Y-57000000D03*
%TD*%
D19*
%TO.C,U5*%
X105500000Y-134250000D03*
D20*
X105500000Y-132250000D03*
X105500000Y-130250000D03*
X105500000Y-128250000D03*
X105500000Y-126250000D03*
X105500000Y-124250000D03*
X105500000Y-122250000D03*
X105500000Y-120250000D03*
X105500000Y-118250000D03*
X105500000Y-116250000D03*
X83500000Y-116250000D03*
X83500000Y-118250000D03*
X83500000Y-120250000D03*
X83500000Y-122250000D03*
X83500000Y-124250000D03*
X83500000Y-126250000D03*
X83500000Y-128250000D03*
X83500000Y-130250000D03*
X83500000Y-132250000D03*
X83500000Y-134250000D03*
%TD*%
D21*
%TO.C,C4*%
X120307000Y-62971000D03*
X118232000Y-62971000D03*
%TD*%
%TO.C,C12*%
X115778500Y-79842900D03*
X113703500Y-79842900D03*
%TD*%
D18*
%TO.C,REF\u002A\u002A*%
X65500000Y-135052000D03*
%TD*%
D22*
%TO.C,C11*%
X115757000Y-77680000D03*
X115757000Y-75605000D03*
%TD*%
D23*
%TO.C,J3*%
X68000000Y-103000000D03*
X68000000Y-85220000D03*
D24*
X80700000Y-83610000D03*
D25*
X80700000Y-87810000D03*
X80700000Y-92010000D03*
X80700000Y-96210000D03*
X80700000Y-100410000D03*
X80700000Y-104610000D03*
X74350000Y-104610000D03*
X74350000Y-100410000D03*
X74350000Y-96210000D03*
X74350000Y-92010000D03*
X74350000Y-87810000D03*
X74350000Y-83610000D03*
%TD*%
D26*
%TO.C,U6*%
X204232000Y-67990000D03*
X204232000Y-66720000D03*
X204232000Y-65450000D03*
X204232000Y-64180000D03*
X204232000Y-62910000D03*
X204232000Y-61640000D03*
X204232000Y-60370000D03*
X199282000Y-60370000D03*
X199282000Y-61640000D03*
X199282000Y-62910000D03*
X199282000Y-64180000D03*
X199282000Y-65450000D03*
X199282000Y-66720000D03*
X199282000Y-67990000D03*
%TD*%
D15*
%TO.C,R1*%
X123790600Y-131131200D03*
X123790600Y-129131200D03*
%TD*%
D27*
%TO.C,U1*%
X114177000Y-70125000D03*
D28*
X116717000Y-70125000D03*
X119257000Y-70125000D03*
%TD*%
D29*
%TO.C,R11*%
X138040000Y-107552500D03*
X138040000Y-109377500D03*
%TD*%
D27*
%TO.C,U2*%
X114677000Y-60180000D03*
D28*
X117217000Y-60180000D03*
X119757000Y-60180000D03*
%TD*%
D30*
%TO.C,J1*%
X212650000Y-83100000D03*
X225000000Y-96300000D03*
X212650000Y-109500000D03*
D31*
X212650000Y-102600000D03*
D25*
X212650000Y-98400000D03*
X212650000Y-94200000D03*
X212650000Y-90000000D03*
X219000000Y-90000000D03*
X219000000Y-94200000D03*
X219000000Y-98400000D03*
X219000000Y-102600000D03*
%TD*%
D17*
%TO.C,R7*%
X198257000Y-86680000D03*
X200257000Y-86680000D03*
%TD*%
D16*
%TO.C,C8*%
X201378400Y-90832500D03*
X201378400Y-92907500D03*
%TD*%
D21*
%TO.C,C3*%
X117540500Y-65260000D03*
X115465500Y-65260000D03*
%TD*%
D32*
%TO.C,C1*%
X111465500Y-65260000D03*
X113540500Y-65260000D03*
%TD*%
D10*
%TO.C,D3*%
X120417200Y-109475000D03*
X120417200Y-111525000D03*
%TD*%
D15*
%TO.C,R2*%
X123790600Y-126610000D03*
X123790600Y-124610000D03*
%TD*%
D22*
%TO.C,C5*%
X138007000Y-113680000D03*
X138007000Y-111605000D03*
%TD*%
D18*
%TO.C,REF\u002A\u002A*%
X228950000Y-135052000D03*
%TD*%
D22*
%TO.C,C13*%
X204917000Y-129717500D03*
X204917000Y-127642500D03*
%TD*%
D32*
%TO.C,C2*%
X114232000Y-62971000D03*
X116307000Y-62971000D03*
%TD*%
D33*
%TO.C,D1*%
X115825000Y-118000000D03*
X120500000Y-118000000D03*
%TD*%
D34*
%TO.C,U3*%
X128547000Y-85285000D03*
D35*
X131087000Y-85285000D03*
X128547000Y-87825000D03*
X131087000Y-87825000D03*
X128547000Y-90365000D03*
X131087000Y-90365000D03*
X128547000Y-92905000D03*
X131087000Y-92905000D03*
X128547000Y-95445000D03*
X131087000Y-95445000D03*
X128547000Y-97985000D03*
X131087000Y-97985000D03*
X128547000Y-100525000D03*
X131087000Y-100525000D03*
X128547000Y-103065000D03*
X131087000Y-103065000D03*
X128547000Y-105605000D03*
X131087000Y-105605000D03*
X128547000Y-108145000D03*
X131087000Y-108145000D03*
X128547000Y-110685000D03*
X131087000Y-110685000D03*
X128547000Y-113225000D03*
X131087000Y-113225000D03*
X128547000Y-115765000D03*
X131087000Y-115765000D03*
X128547000Y-118305000D03*
X131087000Y-118305000D03*
X128547000Y-120845000D03*
X131087000Y-120845000D03*
X128547000Y-123385000D03*
X131087000Y-123385000D03*
X128547000Y-125925000D03*
X131087000Y-125925000D03*
X128547000Y-128465000D03*
X131087000Y-128465000D03*
X128547000Y-131005000D03*
X131087000Y-131005000D03*
D34*
X189507000Y-85285000D03*
D35*
X192047000Y-85285000D03*
X189507000Y-87825000D03*
X192047000Y-87825000D03*
X189507000Y-90365000D03*
X192047000Y-90365000D03*
X189507000Y-92905000D03*
X192047000Y-92905000D03*
X189507000Y-95445000D03*
X192047000Y-95445000D03*
X189507000Y-97985000D03*
X192047000Y-97985000D03*
X189507000Y-100525000D03*
X192047000Y-100525000D03*
X189507000Y-103065000D03*
X192047000Y-103065000D03*
X189507000Y-105605000D03*
X192047000Y-105605000D03*
X189507000Y-108145000D03*
X192047000Y-108145000D03*
X189507000Y-110685000D03*
X192047000Y-110685000D03*
X189507000Y-113225000D03*
X192047000Y-113225000D03*
X189507000Y-115765000D03*
X192047000Y-115765000D03*
X189507000Y-118305000D03*
X192047000Y-118305000D03*
X189507000Y-120845000D03*
X192047000Y-120845000D03*
X189507000Y-123385000D03*
X192047000Y-123385000D03*
X189507000Y-125925000D03*
X192047000Y-125925000D03*
X189507000Y-128465000D03*
X192047000Y-128465000D03*
X189507000Y-131005000D03*
X192047000Y-131005000D03*
%TD*%
D32*
%TO.C,C14*%
X199219500Y-76990000D03*
X201294500Y-76990000D03*
%TD*%
D36*
%TO.C,J4*%
X202757000Y-124680000D03*
D37*
X201417000Y-128430000D03*
D38*
X201417000Y-125930000D03*
X201417000Y-123430000D03*
X201417000Y-120930000D03*
X201417000Y-118430000D03*
X198917000Y-128430000D03*
X198917000Y-125930000D03*
X198917000Y-123430000D03*
X198917000Y-120930000D03*
X198917000Y-118430000D03*
%TD*%
D18*
%TO.C,REF\u002A\u002A*%
X65500000Y-57000000D03*
%TD*%
D39*
%TO.C,J5*%
X165750000Y-138720000D03*
X165250000Y-138720000D03*
X164750000Y-138720000D03*
X164250000Y-138720000D03*
X163750000Y-138720000D03*
X163250000Y-138720000D03*
X162750000Y-138720000D03*
X162250000Y-138720000D03*
X161750000Y-138720000D03*
X161250000Y-138720000D03*
X160750000Y-138720000D03*
X160250000Y-138720000D03*
X159750000Y-138720000D03*
X159250000Y-138720000D03*
X158750000Y-138720000D03*
X158250000Y-138720000D03*
X157750000Y-138720000D03*
X157250000Y-138720000D03*
X156750000Y-138720000D03*
X156250000Y-138720000D03*
X155750000Y-138720000D03*
X155250000Y-138720000D03*
X154750000Y-138720000D03*
X154250000Y-138720000D03*
X153750000Y-138720000D03*
X153250000Y-138720000D03*
X152750000Y-138720000D03*
X152250000Y-138720000D03*
X151750000Y-138720000D03*
X151250000Y-138720000D03*
D40*
X166750000Y-136220000D03*
X150250000Y-136220000D03*
%TD*%
D17*
%TO.C,R5*%
X203500000Y-73000000D03*
X205500000Y-73000000D03*
%TD*%
D41*
%TO.C,C9*%
X100750000Y-66000000D03*
X87250000Y-66000000D03*
%TD*%
D42*
%TO.C,U4*%
X198732000Y-98870000D03*
X198732000Y-101410000D03*
X198732000Y-103950000D03*
X198732000Y-106490000D03*
X207782000Y-106490000D03*
X207782000Y-103950000D03*
X207782000Y-101410000D03*
X207782000Y-98870000D03*
%TD*%
M02*
