%TF.GenerationSoftware,KiCad,Pcbnew,9.0.0*%
%TF.CreationDate,2025-03-11T12:16:19-07:00*%
%TF.ProjectId,TelemMainV3,54656c65-6d4d-4616-996e-56332e6b6963,3.0*%
%TF.SameCoordinates,Original*%
%TF.FileFunction,Soldermask,Bot*%
%TF.FilePolarity,Negative*%
%FSLAX46Y46*%
G04 Gerber Fmt 4.6, Leading zero omitted, Abs format (unit mm)*
G04 Created by KiCad (PCBNEW 9.0.0) date 2025-03-11 12:16:19*
%MOMM*%
%LPD*%
G01*
G04 APERTURE LIST*
G04 Aperture macros list*
%AMRoundRect*
0 Rectangle with rounded corners*
0 $1 Rounding radius*
0 $2 $3 $4 $5 $6 $7 $8 $9 X,Y pos of 4 corners*
0 Add a 4 corners polygon primitive as box body*
4,1,4,$2,$3,$4,$5,$6,$7,$8,$9,$2,$3,0*
0 Add four circle primitives for the rounded corners*
1,1,$1+$1,$2,$3*
1,1,$1+$1,$4,$5*
1,1,$1+$1,$6,$7*
1,1,$1+$1,$8,$9*
0 Add four rect primitives between the rounded corners*
20,1,$1+$1,$2,$3,$4,$5,0*
20,1,$1+$1,$4,$5,$6,$7,0*
20,1,$1+$1,$6,$7,$8,$9,0*
20,1,$1+$1,$8,$9,$2,$3,0*%
G04 Aperture macros list end*
%ADD10R,1.676400X1.676400*%
%ADD11C,1.676400*%
%ADD12C,4.000000*%
%ADD13C,3.500000*%
%ADD14R,1.400000X1.400000*%
%ADD15C,1.400000*%
%ADD16C,3.430000*%
%ADD17RoundRect,0.250000X0.950000X-0.950000X0.950000X0.950000X-0.950000X0.950000X-0.950000X-0.950000X0*%
%ADD18C,2.400000*%
%ADD19R,1.905000X2.000000*%
%ADD20O,1.905000X2.000000*%
%ADD21C,2.790000*%
%ADD22RoundRect,0.250000X-0.950000X0.950000X-0.950000X-0.950000X0.950000X-0.950000X0.950000X0.950000X0*%
%ADD23R,1.530000X1.530000*%
%ADD24C,1.530000*%
%ADD25C,1.300000*%
%ADD26RoundRect,0.250000X0.600000X0.600000X-0.600000X0.600000X-0.600000X-0.600000X0.600000X-0.600000X0*%
%ADD27C,1.700000*%
G04 APERTURE END LIST*
D10*
%TO.C,U8*%
X93332000Y-103000000D03*
D11*
X95872000Y-103000000D03*
X98412000Y-103000000D03*
X100952000Y-103000000D03*
X103492000Y-103000000D03*
X106032000Y-103000000D03*
X108572000Y-103000000D03*
X111112000Y-103000000D03*
X113652000Y-103000000D03*
X116192000Y-103000000D03*
D12*
X88252000Y-85220000D03*
X88252000Y-103000000D03*
X121272000Y-85220000D03*
X121272000Y-103000000D03*
%TD*%
D13*
%TO.C,REF\u002A\u002A*%
X228950000Y-57000000D03*
%TD*%
D14*
%TO.C,U5*%
X105500000Y-134250000D03*
D15*
X105500000Y-132250000D03*
X105500000Y-130250000D03*
X105500000Y-128250000D03*
X105500000Y-126250000D03*
X105500000Y-124250000D03*
X105500000Y-122250000D03*
X105500000Y-120250000D03*
X105500000Y-118250000D03*
X105500000Y-116250000D03*
X83500000Y-116250000D03*
X83500000Y-118250000D03*
X83500000Y-120250000D03*
X83500000Y-122250000D03*
X83500000Y-124250000D03*
X83500000Y-126250000D03*
X83500000Y-128250000D03*
X83500000Y-130250000D03*
X83500000Y-132250000D03*
X83500000Y-134250000D03*
%TD*%
D13*
%TO.C,REF\u002A\u002A*%
X65500000Y-135052000D03*
%TD*%
D16*
%TO.C,J3*%
X68000000Y-103000000D03*
X68000000Y-85220000D03*
D17*
X80700000Y-83610000D03*
D18*
X80700000Y-87810000D03*
X80700000Y-92010000D03*
X80700000Y-96210000D03*
X80700000Y-100410000D03*
X80700000Y-104610000D03*
X74350000Y-104610000D03*
X74350000Y-100410000D03*
X74350000Y-96210000D03*
X74350000Y-92010000D03*
X74350000Y-87810000D03*
X74350000Y-83610000D03*
%TD*%
D19*
%TO.C,U1*%
X114177000Y-70125000D03*
D20*
X116717000Y-70125000D03*
X119257000Y-70125000D03*
%TD*%
D19*
%TO.C,U2*%
X114677000Y-60180000D03*
D20*
X117217000Y-60180000D03*
X119757000Y-60180000D03*
%TD*%
D21*
%TO.C,J1*%
X212650000Y-83100000D03*
X225000000Y-96300000D03*
X212650000Y-109500000D03*
D22*
X212650000Y-102600000D03*
D18*
X212650000Y-98400000D03*
X212650000Y-94200000D03*
X212650000Y-90000000D03*
X219000000Y-90000000D03*
X219000000Y-94200000D03*
X219000000Y-98400000D03*
X219000000Y-102600000D03*
%TD*%
D13*
%TO.C,REF\u002A\u002A*%
X228950000Y-135052000D03*
%TD*%
D23*
%TO.C,U3*%
X128547000Y-85285000D03*
D24*
X131087000Y-85285000D03*
X128547000Y-87825000D03*
X131087000Y-87825000D03*
X128547000Y-90365000D03*
X131087000Y-90365000D03*
X128547000Y-92905000D03*
X131087000Y-92905000D03*
X128547000Y-95445000D03*
X131087000Y-95445000D03*
X128547000Y-97985000D03*
X131087000Y-97985000D03*
X128547000Y-100525000D03*
X131087000Y-100525000D03*
X128547000Y-103065000D03*
X131087000Y-103065000D03*
X128547000Y-105605000D03*
X131087000Y-105605000D03*
X128547000Y-108145000D03*
X131087000Y-108145000D03*
X128547000Y-110685000D03*
X131087000Y-110685000D03*
X128547000Y-113225000D03*
X131087000Y-113225000D03*
X128547000Y-115765000D03*
X131087000Y-115765000D03*
X128547000Y-118305000D03*
X131087000Y-118305000D03*
X128547000Y-120845000D03*
X131087000Y-120845000D03*
X128547000Y-123385000D03*
X131087000Y-123385000D03*
X128547000Y-125925000D03*
X131087000Y-125925000D03*
X128547000Y-128465000D03*
X131087000Y-128465000D03*
X128547000Y-131005000D03*
X131087000Y-131005000D03*
D23*
X189507000Y-85285000D03*
D24*
X192047000Y-85285000D03*
X189507000Y-87825000D03*
X192047000Y-87825000D03*
X189507000Y-90365000D03*
X192047000Y-90365000D03*
X189507000Y-92905000D03*
X192047000Y-92905000D03*
X189507000Y-95445000D03*
X192047000Y-95445000D03*
X189507000Y-97985000D03*
X192047000Y-97985000D03*
X189507000Y-100525000D03*
X192047000Y-100525000D03*
X189507000Y-103065000D03*
X192047000Y-103065000D03*
X189507000Y-105605000D03*
X192047000Y-105605000D03*
X189507000Y-108145000D03*
X192047000Y-108145000D03*
X189507000Y-110685000D03*
X192047000Y-110685000D03*
X189507000Y-113225000D03*
X192047000Y-113225000D03*
X189507000Y-115765000D03*
X192047000Y-115765000D03*
X189507000Y-118305000D03*
X192047000Y-118305000D03*
X189507000Y-120845000D03*
X192047000Y-120845000D03*
X189507000Y-123385000D03*
X192047000Y-123385000D03*
X189507000Y-125925000D03*
X192047000Y-125925000D03*
X189507000Y-128465000D03*
X192047000Y-128465000D03*
X189507000Y-131005000D03*
X192047000Y-131005000D03*
%TD*%
D25*
%TO.C,J4*%
X202757000Y-124680000D03*
D26*
X201417000Y-128430000D03*
D27*
X201417000Y-125930000D03*
X201417000Y-123430000D03*
X201417000Y-120930000D03*
X201417000Y-118430000D03*
X198917000Y-128430000D03*
X198917000Y-125930000D03*
X198917000Y-123430000D03*
X198917000Y-120930000D03*
X198917000Y-118430000D03*
%TD*%
D13*
%TO.C,REF\u002A\u002A*%
X65500000Y-57000000D03*
%TD*%
M02*
