%TF.GenerationSoftware,KiCad,Pcbnew,9.0.0*%
%TF.CreationDate,2025-03-11T12:16:19-07:00*%
%TF.ProjectId,TelemMainV3,54656c65-6d4d-4616-996e-56332e6b6963,3.0*%
%TF.SameCoordinates,Original*%
%TF.FileFunction,Copper,L1,Top*%
%TF.FilePolarity,Positive*%
%FSLAX46Y46*%
G04 Gerber Fmt 4.6, Leading zero omitted, Abs format (unit mm)*
G04 Created by KiCad (PCBNEW 9.0.0) date 2025-03-11 12:16:19*
%MOMM*%
%LPD*%
G01*
G04 APERTURE LIST*
G04 Aperture macros list*
%AMRoundRect*
0 Rectangle with rounded corners*
0 $1 Rounding radius*
0 $2 $3 $4 $5 $6 $7 $8 $9 X,Y pos of 4 corners*
0 Add a 4 corners polygon primitive as box body*
4,1,4,$2,$3,$4,$5,$6,$7,$8,$9,$2,$3,0*
0 Add four circle primitives for the rounded corners*
1,1,$1+$1,$2,$3*
1,1,$1+$1,$4,$5*
1,1,$1+$1,$6,$7*
1,1,$1+$1,$8,$9*
0 Add four rect primitives between the rounded corners*
20,1,$1+$1,$2,$3,$4,$5,0*
20,1,$1+$1,$4,$5,$6,$7,0*
20,1,$1+$1,$6,$7,$8,$9,0*
20,1,$1+$1,$8,$9,$2,$3,0*%
G04 Aperture macros list end*
%TA.AperFunction,SMDPad,CuDef*%
%ADD10RoundRect,0.250000X-0.450000X0.325000X-0.450000X-0.325000X0.450000X-0.325000X0.450000X0.325000X0*%
%TD*%
%TA.AperFunction,ComponentPad*%
%ADD11R,1.676400X1.676400*%
%TD*%
%TA.AperFunction,ComponentPad*%
%ADD12C,1.676400*%
%TD*%
%TA.AperFunction,ComponentPad*%
%ADD13C,4.000000*%
%TD*%
%TA.AperFunction,SMDPad,CuDef*%
%ADD14RoundRect,0.250000X0.350000X0.450000X-0.350000X0.450000X-0.350000X-0.450000X0.350000X-0.450000X0*%
%TD*%
%TA.AperFunction,SMDPad,CuDef*%
%ADD15RoundRect,0.250000X0.450000X-0.350000X0.450000X0.350000X-0.450000X0.350000X-0.450000X-0.350000X0*%
%TD*%
%TA.AperFunction,SMDPad,CuDef*%
%ADD16RoundRect,0.250000X-0.475000X0.337500X-0.475000X-0.337500X0.475000X-0.337500X0.475000X0.337500X0*%
%TD*%
%TA.AperFunction,SMDPad,CuDef*%
%ADD17RoundRect,0.250000X-0.350000X-0.450000X0.350000X-0.450000X0.350000X0.450000X-0.350000X0.450000X0*%
%TD*%
%TA.AperFunction,ComponentPad*%
%ADD18R,1.400000X1.400000*%
%TD*%
%TA.AperFunction,ComponentPad*%
%ADD19C,1.400000*%
%TD*%
%TA.AperFunction,SMDPad,CuDef*%
%ADD20RoundRect,0.250000X0.337500X0.475000X-0.337500X0.475000X-0.337500X-0.475000X0.337500X-0.475000X0*%
%TD*%
%TA.AperFunction,SMDPad,CuDef*%
%ADD21RoundRect,0.250000X0.475000X-0.337500X0.475000X0.337500X-0.475000X0.337500X-0.475000X-0.337500X0*%
%TD*%
%TA.AperFunction,ComponentPad*%
%ADD22RoundRect,0.250000X0.950000X-0.950000X0.950000X0.950000X-0.950000X0.950000X-0.950000X-0.950000X0*%
%TD*%
%TA.AperFunction,ComponentPad*%
%ADD23C,2.400000*%
%TD*%
%TA.AperFunction,SMDPad,CuDef*%
%ADD24RoundRect,0.150000X0.825000X0.150000X-0.825000X0.150000X-0.825000X-0.150000X0.825000X-0.150000X0*%
%TD*%
%TA.AperFunction,ComponentPad*%
%ADD25R,1.905000X2.000000*%
%TD*%
%TA.AperFunction,ComponentPad*%
%ADD26O,1.905000X2.000000*%
%TD*%
%TA.AperFunction,SMDPad,CuDef*%
%ADD27RoundRect,0.250000X-0.450000X0.262500X-0.450000X-0.262500X0.450000X-0.262500X0.450000X0.262500X0*%
%TD*%
%TA.AperFunction,ComponentPad*%
%ADD28RoundRect,0.250000X-0.950000X0.950000X-0.950000X-0.950000X0.950000X-0.950000X0.950000X0.950000X0*%
%TD*%
%TA.AperFunction,SMDPad,CuDef*%
%ADD29RoundRect,0.250000X-0.337500X-0.475000X0.337500X-0.475000X0.337500X0.475000X-0.337500X0.475000X0*%
%TD*%
%TA.AperFunction,SMDPad,CuDef*%
%ADD30RoundRect,0.249999X-0.512501X-1.075001X0.512501X-1.075001X0.512501X1.075001X-0.512501X1.075001X0*%
%TD*%
%TA.AperFunction,ComponentPad*%
%ADD31R,1.530000X1.530000*%
%TD*%
%TA.AperFunction,ComponentPad*%
%ADD32C,1.530000*%
%TD*%
%TA.AperFunction,ComponentPad*%
%ADD33RoundRect,0.250000X0.600000X0.600000X-0.600000X0.600000X-0.600000X-0.600000X0.600000X-0.600000X0*%
%TD*%
%TA.AperFunction,ComponentPad*%
%ADD34C,1.700000*%
%TD*%
%TA.AperFunction,SMDPad,CuDef*%
%ADD35R,0.300000X0.800000*%
%TD*%
%TA.AperFunction,SMDPad,CuDef*%
%ADD36R,0.400000X0.800000*%
%TD*%
%TA.AperFunction,SMDPad,CuDef*%
%ADD37RoundRect,0.249999X4.150001X4.550001X-4.150001X4.550001X-4.150001X-4.550001X4.150001X-4.550001X0*%
%TD*%
%TA.AperFunction,SMDPad,CuDef*%
%ADD38RoundRect,0.162500X-1.012500X-0.162500X1.012500X-0.162500X1.012500X0.162500X-1.012500X0.162500X0*%
%TD*%
%TA.AperFunction,ViaPad*%
%ADD39C,0.600000*%
%TD*%
%TA.AperFunction,Conductor*%
%ADD40C,0.200000*%
%TD*%
%TA.AperFunction,Conductor*%
%ADD41C,0.150000*%
%TD*%
G04 APERTURE END LIST*
D10*
%TO.P,D4,1,K*%
%TO.N,GND*%
X115917200Y-108975000D03*
%TO.P,D4,2,A*%
%TO.N,Net-(D4-A)*%
X115917200Y-111025000D03*
%TD*%
D11*
%TO.P,U8,1,VIN*%
%TO.N,+5V*%
X93332000Y-103000000D03*
D12*
%TO.P,U8,2,3V3*%
%TO.N,unconnected-(U8-3V3-Pad2)*%
X95872000Y-103000000D03*
%TO.P,U8,3,GND*%
%TO.N,GND*%
X98412000Y-103000000D03*
%TO.P,U8,4,SCL*%
%TO.N,IMU SCL*%
X100952000Y-103000000D03*
%TO.P,U8,5,SDA*%
%TO.N,IMU SDA*%
X103492000Y-103000000D03*
%TO.P,U8,6,GINT*%
%TO.N,IMU GINT*%
X106032000Y-103000000D03*
%TO.P,U8,7,GRDY*%
%TO.N,IMU GRDY*%
X108572000Y-103000000D03*
%TO.P,U8,8,LINT1*%
%TO.N,IMU LINT1*%
X111112000Y-103000000D03*
%TO.P,U8,9,LINT2*%
%TO.N,IMU LINT2*%
X113652000Y-103000000D03*
%TO.P,U8,10,LRDY*%
%TO.N,IMU LRDY*%
X116192000Y-103000000D03*
D13*
%TO.P,U8,GND,GND2*%
%TO.N,GND*%
X88252000Y-85220000D03*
X88252000Y-103000000D03*
X121272000Y-85220000D03*
X121272000Y-103000000D03*
%TD*%
D14*
%TO.P,R12,1*%
%TO.N,Net-(U6C--)*%
X206757000Y-81180000D03*
%TO.P,R12,2*%
%TO.N,Steering Sensor 3V3*%
X204757000Y-81180000D03*
%TD*%
D15*
%TO.P,R15,1*%
%TO.N,+12V*%
X116417200Y-115296800D03*
%TO.P,R15,2*%
%TO.N,Net-(D4-A)*%
X116417200Y-113296800D03*
%TD*%
%TO.P,R14,1*%
%TO.N,+12VIN*%
X120500000Y-115500000D03*
%TO.P,R14,2*%
%TO.N,Net-(D3-A)*%
X120500000Y-113500000D03*
%TD*%
D14*
%TO.P,R8,1*%
%TO.N,GND*%
X204270200Y-86680000D03*
%TO.P,R8,2*%
%TO.N,Brake Sensor F 3V3*%
X202270200Y-86680000D03*
%TD*%
%TO.P,R6,1*%
%TO.N,GND*%
X201257000Y-73180000D03*
%TO.P,R6,2*%
%TO.N,Brake Sensor R 3V3*%
X199257000Y-73180000D03*
%TD*%
D16*
%TO.P,C7,1*%
%TO.N,GND*%
X202257000Y-111642500D03*
%TO.P,C7,2*%
%TO.N,+5V*%
X202257000Y-113717500D03*
%TD*%
D17*
%TO.P,R13,1*%
%TO.N,GND*%
X200693000Y-81180000D03*
%TO.P,R13,2*%
%TO.N,Steering Sensor 3V3*%
X202693000Y-81180000D03*
%TD*%
D18*
%TO.P,U5,1,VCC*%
%TO.N,+3V3*%
X105500000Y-134250000D03*
D19*
%TO.P,U5,2,DOUT/DIO13*%
%TO.N,unconnected-(U5-DOUT{slash}DIO13-Pad2)*%
X105500000Y-132250000D03*
%TO.P,U5,3,DIN/NCONFIG/DIO14*%
%TO.N,unconnected-(U5-DIN{slash}NCONFIG{slash}DIO14-Pad3)*%
X105500000Y-130250000D03*
%TO.P,U5,4,DIO12/SPI_MISO*%
%TO.N,Radio MISO1*%
X105500000Y-128250000D03*
%TO.P,U5,5,~{RESET}*%
%TO.N,Radio Reset*%
X105500000Y-126250000D03*
%TO.P,U5,6,DIO10/PWM0*%
%TO.N,unconnected-(U5-DIO10{slash}PWM0-Pad6)*%
X105500000Y-124250000D03*
%TO.P,U5,7,DIO11/PWM1*%
%TO.N,unconnected-(U5-DIO11{slash}PWM1-Pad7)*%
X105500000Y-122250000D03*
%TO.P,U5,8*%
%TO.N,N/C*%
X105500000Y-120250000D03*
%TO.P,U5,9,NDTR/SLEEP_RQ/DIO8*%
%TO.N,unconnected-(U5-NDTR{slash}SLEEP_RQ{slash}DIO8-Pad9)*%
X105500000Y-118250000D03*
%TO.P,U5,10,GND*%
%TO.N,GND*%
X105500000Y-116250000D03*
%TO.P,U5,11,DIO4/SPI_MOSI*%
%TO.N,Radio MOSI1*%
X83500000Y-116250000D03*
%TO.P,U5,12,NCTS/DIO7*%
%TO.N,unconnected-(U5-NCTS{slash}DIO7-Pad12)*%
X83500000Y-118250000D03*
%TO.P,U5,13,ON_NSLEEP/DIO9*%
%TO.N,unconnected-(U5-ON_NSLEEP{slash}DIO9-Pad13)*%
X83500000Y-120250000D03*
%TO.P,U5,14,VREF*%
%TO.N,unconnected-(U5-VREF-Pad14)*%
X83500000Y-122250000D03*
%TO.P,U5,15,ASSOCIATE/DIO5*%
%TO.N,unconnected-(U5-ASSOCIATE{slash}DIO5-Pad15)*%
X83500000Y-124250000D03*
%TO.P,U5,16,NRTS/DIO6*%
%TO.N,unconnected-(U5-NRTS{slash}DIO6-Pad16)*%
X83500000Y-126250000D03*
%TO.P,U5,17,AD3/DIO3/SPI_NSSEL*%
%TO.N,Radio CS1*%
X83500000Y-128250000D03*
%TO.P,U5,18,AD2/DIO2/SPI_CLK*%
%TO.N,Radio SCK1*%
X83500000Y-130250000D03*
%TO.P,U5,19,AD1/DIO1/SPI_NATTN*%
%TO.N,Radio ATTN*%
X83500000Y-132250000D03*
%TO.P,U5,20,AD0/DIO0*%
%TO.N,unconnected-(U5-AD0{slash}DIO0-Pad20)*%
X83500000Y-134250000D03*
%TD*%
D20*
%TO.P,C4,1*%
%TO.N,+9V*%
X120307000Y-62971000D03*
%TO.P,C4,2*%
%TO.N,GND*%
X118232000Y-62971000D03*
%TD*%
%TO.P,C12,1*%
%TO.N,+3V3*%
X115778500Y-79842900D03*
%TO.P,C12,2*%
%TO.N,GND*%
X113703500Y-79842900D03*
%TD*%
D21*
%TO.P,C11,1*%
%TO.N,+3V3*%
X115757000Y-77680000D03*
%TO.P,C11,2*%
%TO.N,GND*%
X115757000Y-75605000D03*
%TD*%
D22*
%TO.P,J3,1,Pin_1*%
%TO.N,GND*%
X80700000Y-83610000D03*
D23*
%TO.P,J3,2,Pin_2*%
%TO.N,+12VIN*%
X80700000Y-87810000D03*
%TO.P,J3,3,Pin_3*%
%TO.N,+3V3*%
X80700000Y-92010000D03*
%TO.P,J3,4,Pin_4*%
%TO.N,Steering Sensor*%
X80700000Y-96210000D03*
%TO.P,J3,5,Pin_5*%
%TO.N,Brake Sensor F*%
X80700000Y-100410000D03*
%TO.P,J3,6,Pin_6*%
%TO.N,Brake Sensor B*%
X80700000Y-104610000D03*
%TO.P,J3,7,Pin_7*%
%TO.N,Acc Intake Temp*%
X74350000Y-104610000D03*
%TO.P,J3,8,Pin_8*%
%TO.N,Acc Exhaust Temp*%
X74350000Y-100410000D03*
%TO.P,J3,9,Pin_9*%
%TO.N,Acc Intake Pressure*%
X74350000Y-96210000D03*
%TO.P,J3,10,Pin_10*%
%TO.N,Acc Intake Flow Rate*%
X74350000Y-92010000D03*
%TO.P,J3,11,Pin_11*%
%TO.N,GND*%
X74350000Y-87810000D03*
%TO.P,J3,12,Pin_12*%
%TO.N,unconnected-(J3-Pin_12-Pad12)*%
X74350000Y-83610000D03*
%TD*%
D24*
%TO.P,U6,1*%
%TO.N,Net-(U6A--)*%
X204232000Y-67990000D03*
%TO.P,U6,2,-*%
X204232000Y-66720000D03*
%TO.P,U6,3,+*%
%TO.N,Brake Sensor F*%
X204232000Y-65450000D03*
%TO.P,U6,4,V+*%
%TO.N,+5V*%
X204232000Y-64180000D03*
%TO.P,U6,5,+*%
%TO.N,Brake Sensor B*%
X204232000Y-62910000D03*
%TO.P,U6,6,-*%
%TO.N,Net-(U6B--)*%
X204232000Y-61640000D03*
%TO.P,U6,7*%
X204232000Y-60370000D03*
%TO.P,U6,8*%
%TO.N,Net-(U6C--)*%
X199282000Y-60370000D03*
%TO.P,U6,9,-*%
X199282000Y-61640000D03*
%TO.P,U6,10,+*%
%TO.N,Steering Sensor*%
X199282000Y-62910000D03*
%TO.P,U6,11,V-*%
%TO.N,GND*%
X199282000Y-64180000D03*
%TO.P,U6,12,+*%
%TO.N,unconnected-(U6D-+-Pad12)*%
X199282000Y-65450000D03*
%TO.P,U6,13,-*%
%TO.N,unconnected-(U6D---Pad13)*%
X199282000Y-66720000D03*
%TO.P,U6,14*%
%TO.N,unconnected-(U6-Pad14)*%
X199282000Y-67990000D03*
%TD*%
D15*
%TO.P,R1,1*%
%TO.N,GND*%
X123790600Y-131131200D03*
%TO.P,R1,2*%
%TO.N,Net-(U3A-PC2)*%
X123790600Y-129131200D03*
%TD*%
D25*
%TO.P,U1,1,VI*%
%TO.N,+12V*%
X114177000Y-70125000D03*
D26*
%TO.P,U1,2,GND*%
%TO.N,GND*%
X116717000Y-70125000D03*
%TO.P,U1,3,VO*%
%TO.N,+5V*%
X119257000Y-70125000D03*
%TD*%
D27*
%TO.P,R11,1*%
%TO.N,+3V3*%
X138040000Y-107552500D03*
%TO.P,R11,2*%
%TO.N,INT*%
X138040000Y-109377500D03*
%TD*%
D25*
%TO.P,U2,1,VI*%
%TO.N,+12V*%
X114677000Y-60180000D03*
D26*
%TO.P,U2,2,GND*%
%TO.N,GND*%
X117217000Y-60180000D03*
%TO.P,U2,3,VO*%
%TO.N,+9V*%
X119757000Y-60180000D03*
%TD*%
D28*
%TO.P,J1,1,Pin_1*%
%TO.N,CAN1_L*%
X212650000Y-102600000D03*
D23*
%TO.P,J1,2,Pin_2*%
X212650000Y-98400000D03*
%TO.P,J1,3,Pin_3*%
%TO.N,CAN1_H*%
X212650000Y-94200000D03*
%TO.P,J1,4,Pin_4*%
X212650000Y-90000000D03*
%TO.P,J1,5,Pin_5*%
%TO.N,unconnected-(J1-Pin_5-Pad5)*%
X219000000Y-90000000D03*
%TO.P,J1,6,Pin_6*%
%TO.N,unconnected-(J1-Pin_6-Pad6)*%
X219000000Y-94200000D03*
%TO.P,J1,7,Pin_7*%
%TO.N,unconnected-(J1-Pin_7-Pad7)*%
X219000000Y-98400000D03*
%TO.P,J1,8,Pin_8*%
%TO.N,unconnected-(J1-Pin_8-Pad8)*%
X219000000Y-102600000D03*
%TD*%
D17*
%TO.P,R7,1*%
%TO.N,Net-(U6A--)*%
X198257000Y-86680000D03*
%TO.P,R7,2*%
%TO.N,Brake Sensor F 3V3*%
X200257000Y-86680000D03*
%TD*%
D16*
%TO.P,C8,1*%
%TO.N,GND*%
X201378400Y-90832500D03*
%TO.P,C8,2*%
%TO.N,+3V3*%
X201378400Y-92907500D03*
%TD*%
D20*
%TO.P,C3,1*%
%TO.N,+5V*%
X117540500Y-65260000D03*
%TO.P,C3,2*%
%TO.N,GND*%
X115465500Y-65260000D03*
%TD*%
D29*
%TO.P,C1,1*%
%TO.N,+12V*%
X111465500Y-65260000D03*
%TO.P,C1,2*%
%TO.N,GND*%
X113540500Y-65260000D03*
%TD*%
D10*
%TO.P,D3,1,K*%
%TO.N,GND*%
X120417200Y-109475000D03*
%TO.P,D3,2,A*%
%TO.N,Net-(D3-A)*%
X120417200Y-111525000D03*
%TD*%
D15*
%TO.P,R2,1*%
%TO.N,Net-(U3A-PC2)*%
X123790600Y-126610000D03*
%TO.P,R2,2*%
%TO.N,+12VIN*%
X123790600Y-124610000D03*
%TD*%
D21*
%TO.P,C5,1*%
%TO.N,+9V*%
X138007000Y-113680000D03*
%TO.P,C5,2*%
%TO.N,GND*%
X138007000Y-111605000D03*
%TD*%
%TO.P,C13,1*%
%TO.N,+3V3*%
X204917000Y-129717500D03*
%TO.P,C13,2*%
%TO.N,GND*%
X204917000Y-127642500D03*
%TD*%
D29*
%TO.P,C2,1*%
%TO.N,+12V*%
X114232000Y-62971000D03*
%TO.P,C2,2*%
%TO.N,GND*%
X116307000Y-62971000D03*
%TD*%
D30*
%TO.P,D1,1,K*%
%TO.N,+12V*%
X115825000Y-118000000D03*
%TO.P,D1,2,A*%
%TO.N,+12VIN*%
X120500000Y-118000000D03*
%TD*%
D31*
%TO.P,U3,CN7_1,PC10*%
%TO.N,Dash SCK3*%
X128547000Y-85285000D03*
D32*
%TO.P,U3,CN7_2,PC11*%
%TO.N,Dash MISO3*%
X131087000Y-85285000D03*
%TO.P,U3,CN7_3,PC12*%
%TO.N,Dash MOSI3*%
X128547000Y-87825000D03*
%TO.P,U3,CN7_4,PD2*%
%TO.N,Dash CS3*%
X131087000Y-87825000D03*
%TO.P,U3,CN7_5,VDD*%
%TO.N,+3V3*%
X128547000Y-90365000D03*
%TO.P,U3,CN7_6,E5V*%
%TO.N,unconnected-(U3A-E5V-PadCN7_6)*%
X131087000Y-90365000D03*
%TO.P,U3,CN7_7,BOOT0*%
%TO.N,unconnected-(U3A-BOOT0-PadCN7_7)*%
X128547000Y-92905000D03*
%TO.P,U3,CN7_8,CN7_GND*%
%TO.N,GND*%
X131087000Y-92905000D03*
%TO.P,U3,CN7_9,NC*%
%TO.N,unconnected-(U3A-NC-PadCN7_9)*%
X128547000Y-95445000D03*
%TO.P,U3,CN7_10,NC*%
%TO.N,unconnected-(U3A-NC-PadCN7_10)*%
X131087000Y-95445000D03*
%TO.P,U3,CN7_11,NC*%
%TO.N,unconnected-(U3A-NC-PadCN7_11)*%
X128547000Y-97985000D03*
%TO.P,U3,CN7_12,CN7_IOREF*%
%TO.N,unconnected-(U3A-CN7_IOREF-PadCN7_12)*%
X131087000Y-97985000D03*
%TO.P,U3,CN7_13,PA13*%
%TO.N,IMU LRDY*%
X128547000Y-100525000D03*
%TO.P,U3,CN7_14,CN7_RESET*%
%TO.N,unconnected-(U3A-CN7_RESET-PadCN7_14)*%
X131087000Y-100525000D03*
%TO.P,U3,CN7_15,PA14*%
%TO.N,IMU LINT2*%
X128547000Y-103065000D03*
%TO.P,U3,CN7_16,CN7_+3V3*%
%TO.N,+3V3*%
X131087000Y-103065000D03*
%TO.P,U3,CN7_17,PA15*%
%TO.N,IMU LINT1*%
X128547000Y-105605000D03*
%TO.P,U3,CN7_18,CN7_+5V*%
%TO.N,unconnected-(U3A-CN7_+5V-PadCN7_18)*%
X131087000Y-105605000D03*
%TO.P,U3,CN7_19,CN7_GND__1*%
%TO.N,GND*%
X128547000Y-108145000D03*
%TO.P,U3,CN7_20,CN7_GND__2*%
X131087000Y-108145000D03*
%TO.P,U3,CN7_21,PB7*%
%TO.N,PD*%
X128547000Y-110685000D03*
%TO.P,U3,CN7_22,CN7_GND__3*%
%TO.N,GND*%
X131087000Y-110685000D03*
%TO.P,U3,CN7_23,PC13*%
%TO.N,INT*%
X128547000Y-113225000D03*
%TO.P,U3,CN7_24,CN7_VIN*%
%TO.N,+9V*%
X131087000Y-113225000D03*
%TO.P,U3,CN7_25,PC14*%
%TO.N,unconnected-(U3A-PC14-PadCN7_25)*%
X128547000Y-115765000D03*
%TO.P,U3,CN7_26,NC*%
%TO.N,unconnected-(U3A-NC-PadCN7_26)*%
X131087000Y-115765000D03*
%TO.P,U3,CN7_27,PC15*%
%TO.N,unconnected-(U3A-PC15-PadCN7_27)*%
X128547000Y-118305000D03*
%TO.P,U3,CN7_28,PA0*%
%TO.N,Acc Intake Flow Rate*%
X131087000Y-118305000D03*
%TO.P,U3,CN7_29,PH0*%
%TO.N,IMU GRDY*%
X128547000Y-120845000D03*
%TO.P,U3,CN7_30,PA1*%
%TO.N,Acc Intake Pressure*%
X131087000Y-120845000D03*
%TO.P,U3,CN7_31,PH1*%
%TO.N,IMU GINT*%
X128547000Y-123385000D03*
%TO.P,U3,CN7_32,PA4*%
%TO.N,Acc Exhaust Temp*%
X131087000Y-123385000D03*
%TO.P,U3,CN7_33,VBAT*%
%TO.N,unconnected-(U3A-VBAT-PadCN7_33)*%
X128547000Y-125925000D03*
%TO.P,U3,CN7_34,PB0*%
%TO.N,Acc Intake Temp*%
X131087000Y-125925000D03*
%TO.P,U3,CN7_35,PC2*%
%TO.N,Net-(U3A-PC2)*%
X128547000Y-128465000D03*
%TO.P,U3,CN7_36,PC1/PB9*%
%TO.N,Brake Sensor F 3V3*%
X131087000Y-128465000D03*
%TO.P,U3,CN7_37,PC3*%
%TO.N,unconnected-(U3A-PC3-PadCN7_37)*%
X128547000Y-131005000D03*
%TO.P,U3,CN7_38,PC0/PB8*%
%TO.N,Brake Sensor R 3V3*%
X131087000Y-131005000D03*
D31*
%TO.P,U3,CN10_1,PC9*%
%TO.N,unconnected-(U3B-PC9-PadCN10_1)*%
X189507000Y-85285000D03*
D32*
%TO.P,U3,CN10_2,PC8*%
%TO.N,Radio CS1*%
X192047000Y-85285000D03*
%TO.P,U3,CN10_3,PB8*%
%TO.N,CAN1_RX*%
X189507000Y-87825000D03*
%TO.P,U3,CN10_4,PC6*%
%TO.N,unconnected-(U3B-PC6-PadCN10_4)*%
X192047000Y-87825000D03*
%TO.P,U3,CN10_5,PB9*%
%TO.N,CAN1_TX*%
X189507000Y-90365000D03*
%TO.P,U3,CN10_6,PC5*%
%TO.N,Steering Sensor 3V3*%
X192047000Y-90365000D03*
%TO.P,U3,CN10_7,AVDD*%
%TO.N,unconnected-(U3B-AVDD-PadCN10_7)*%
X189507000Y-92905000D03*
%TO.P,U3,CN10_8,U5V*%
%TO.N,unconnected-(U3B-U5V-PadCN10_8)*%
X192047000Y-92905000D03*
%TO.P,U3,CN10_9,CN10_GND*%
%TO.N,GND*%
X189507000Y-95445000D03*
%TO.P,U3,CN10_10,NC*%
%TO.N,unconnected-(U3B-NC-PadCN10_10)*%
X192047000Y-95445000D03*
%TO.P,U3,CN10_11,PA5*%
%TO.N,Radio SCK1*%
X189507000Y-97985000D03*
%TO.P,U3,CN10_12,PA12*%
%TO.N,unconnected-(U3B-PA12-PadCN10_12)*%
X192047000Y-97985000D03*
%TO.P,U3,CN10_13,PA6*%
%TO.N,Radio MISO1*%
X189507000Y-100525000D03*
%TO.P,U3,CN10_14,PA11*%
%TO.N,unconnected-(U3B-PA11-PadCN10_14)*%
X192047000Y-100525000D03*
%TO.P,U3,CN10_15,PA7*%
%TO.N,Radio MOSI1*%
X189507000Y-103065000D03*
%TO.P,U3,CN10_16,PB12*%
%TO.N,SD CS2*%
X192047000Y-103065000D03*
%TO.P,U3,CN10_17,PB6*%
%TO.N,unconnected-(U3B-PB6-PadCN10_17)*%
X189507000Y-105605000D03*
%TO.P,U3,CN10_18,NC*%
%TO.N,unconnected-(U3B-NC-PadCN10_18)*%
X192047000Y-105605000D03*
%TO.P,U3,CN10_19,PC7*%
%TO.N,Radio Reset*%
X189507000Y-108145000D03*
%TO.P,U3,CN10_20,CN10_GND__1*%
%TO.N,GND*%
X192047000Y-108145000D03*
%TO.P,U3,CN10_21,PA9*%
%TO.N,Radio ATTN*%
X189507000Y-110685000D03*
%TO.P,U3,CN10_22,PB2*%
%TO.N,unconnected-(U3B-PB2-PadCN10_22)*%
X192047000Y-110685000D03*
%TO.P,U3,CN10_23,PA8*%
%TO.N,unconnected-(U3B-PA8-PadCN10_23)*%
X189507000Y-113225000D03*
%TO.P,U3,CN10_24,PB1*%
%TO.N,SD Card Detect T{slash}F*%
X192047000Y-113225000D03*
%TO.P,U3,CN10_25,PB10*%
%TO.N,IMU SCL*%
X189507000Y-115765000D03*
%TO.P,U3,CN10_26,PB15*%
%TO.N,SD MOSI2*%
X192047000Y-115765000D03*
%TO.P,U3,CN10_27,PB4*%
%TO.N,unconnected-(U3B-PB4-PadCN10_27)*%
X189507000Y-118305000D03*
%TO.P,U3,CN10_28,PB14*%
%TO.N,SD MISO2*%
X192047000Y-118305000D03*
%TO.P,U3,CN10_29,PB5*%
%TO.N,unconnected-(U3B-PB5-PadCN10_29)*%
X189507000Y-120845000D03*
%TO.P,U3,CN10_30,PB13*%
%TO.N,SD SCK2*%
X192047000Y-120845000D03*
%TO.P,U3,CN10_31,PB3*%
%TO.N,IMU SDA*%
X189507000Y-123385000D03*
%TO.P,U3,CN10_32,AGND*%
%TO.N,GND*%
X192047000Y-123385000D03*
%TO.P,U3,CN10_33,PA10*%
%TO.N,unconnected-(U3B-PA10-PadCN10_33)*%
X189507000Y-125925000D03*
%TO.P,U3,CN10_34,PC4*%
%TO.N,unconnected-(U3B-PC4-PadCN10_34)*%
X192047000Y-125925000D03*
%TO.P,U3,CN10_35,PA2*%
%TO.N,unconnected-(U3B-PA2-PadCN10_35)*%
X189507000Y-128465000D03*
%TO.P,U3,CN10_36,NC*%
%TO.N,unconnected-(U3B-NC-PadCN10_36)*%
X192047000Y-128465000D03*
%TO.P,U3,CN10_37,PA3*%
%TO.N,unconnected-(U3B-PA3-PadCN10_37)*%
X189507000Y-131005000D03*
%TO.P,U3,CN10_38,NC*%
%TO.N,unconnected-(U3B-NC-PadCN10_38)*%
X192047000Y-131005000D03*
%TD*%
D29*
%TO.P,C14,1*%
%TO.N,+5V*%
X199219500Y-76990000D03*
%TO.P,C14,2*%
%TO.N,GND*%
X201294500Y-76990000D03*
%TD*%
D33*
%TO.P,J4,1,Pin_1*%
%TO.N,+3V3*%
X201417000Y-128430000D03*
D34*
%TO.P,J4,2,Pin_2*%
%TO.N,GND*%
X201417000Y-125930000D03*
%TO.P,J4,3,Pin_3*%
%TO.N,SD SCK2*%
X201417000Y-123430000D03*
%TO.P,J4,4,Pin_4*%
%TO.N,SD MISO2*%
X201417000Y-120930000D03*
%TO.P,J4,5,Pin_5*%
%TO.N,SD MOSI2*%
X201417000Y-118430000D03*
%TO.P,J4,6,Pin_6*%
%TO.N,SD CS2*%
X198917000Y-128430000D03*
%TO.P,J4,7,Pin_7*%
%TO.N,unconnected-(J4-Pin_7-Pad7)*%
X198917000Y-125930000D03*
%TO.P,J4,8,Pin_8*%
%TO.N,unconnected-(J4-Pin_8-Pad8)*%
X198917000Y-123430000D03*
%TO.P,J4,9,Pin_9*%
%TO.N,SD Card Detect T{slash}F*%
X198917000Y-120930000D03*
%TO.P,J4,10*%
%TO.N,N/C*%
X198917000Y-118430000D03*
%TD*%
D35*
%TO.P,J5,1,1*%
%TO.N,GND*%
X165750000Y-138720000D03*
%TO.P,J5,2,2*%
%TO.N,+3V3*%
X165250000Y-138720000D03*
%TO.P,J5,3,3*%
X164750000Y-138720000D03*
%TO.P,J5,4,4*%
%TO.N,GND*%
X164250000Y-138720000D03*
%TO.P,J5,5,5*%
%TO.N,+3V3*%
X163750000Y-138720000D03*
%TO.P,J5,6,6*%
X163250000Y-138720000D03*
%TO.P,J5,7,7*%
%TO.N,GND*%
X162750000Y-138720000D03*
%TO.P,J5,8,8*%
%TO.N,Dash SCK3*%
X162250000Y-138720000D03*
%TO.P,J5,9,9*%
%TO.N,GND*%
X161750000Y-138720000D03*
%TO.P,J5,10,10*%
%TO.N,Dash MOSI3*%
X161250000Y-138720000D03*
%TO.P,J5,11,11*%
%TO.N,GND*%
X160750000Y-138720000D03*
%TO.P,J5,12,12*%
%TO.N,Dash MISO3*%
X160250000Y-138720000D03*
%TO.P,J5,13,13*%
%TO.N,GND*%
X159750000Y-138720000D03*
%TO.P,J5,14,14*%
%TO.N,unconnected-(J5-Pad14)*%
X159250000Y-138720000D03*
%TO.P,J5,15,15*%
%TO.N,GND*%
X158750000Y-138720000D03*
%TO.P,J5,16,16*%
%TO.N,unconnected-(J5-Pad16)*%
X158250000Y-138720000D03*
%TO.P,J5,17,17*%
%TO.N,GND*%
X157750000Y-138720000D03*
%TO.P,J5,18,18*%
%TO.N,Dash CS3*%
X157250000Y-138720000D03*
%TO.P,J5,19,19*%
%TO.N,GND*%
X156750000Y-138720000D03*
%TO.P,J5,20,20*%
%TO.N,INT*%
X156250000Y-138720000D03*
%TO.P,J5,21,21*%
%TO.N,unconnected-(J5-Pad21)*%
X155750000Y-138720000D03*
%TO.P,J5,22,22*%
%TO.N,PD*%
X155250000Y-138720000D03*
%TO.P,J5,23,23*%
%TO.N,unconnected-(J5-Pad23)*%
X154750000Y-138720000D03*
%TO.P,J5,24,24*%
%TO.N,GND*%
X154250000Y-138720000D03*
%TO.P,J5,25,25*%
%TO.N,+5V*%
X153750000Y-138720000D03*
%TO.P,J5,26,26*%
X153250000Y-138720000D03*
%TO.P,J5,27,27*%
%TO.N,GND*%
X152750000Y-138720000D03*
%TO.P,J5,28,28*%
%TO.N,+5V*%
X152250000Y-138720000D03*
%TO.P,J5,29,29*%
X151750000Y-138720000D03*
%TO.P,J5,30,30*%
%TO.N,GND*%
X151250000Y-138720000D03*
D36*
%TO.P,J5,SH1*%
%TO.N,N/C*%
X166750000Y-136220000D03*
%TO.P,J5,SH2*%
X150250000Y-136220000D03*
%TD*%
D17*
%TO.P,R5,1*%
%TO.N,Net-(U6B--)*%
X203500000Y-73000000D03*
%TO.P,R5,2*%
%TO.N,Brake Sensor R 3V3*%
X205500000Y-73000000D03*
%TD*%
D37*
%TO.P,C9,1*%
%TO.N,+12V*%
X100750000Y-66000000D03*
%TO.P,C9,2*%
%TO.N,GND*%
X87250000Y-66000000D03*
%TD*%
D38*
%TO.P,U4,1,VCC1*%
%TO.N,+3V3*%
X198732000Y-98870000D03*
%TO.P,U4,2,RXD*%
%TO.N,CAN1_RX*%
X198732000Y-101410000D03*
%TO.P,U4,3,TXD*%
%TO.N,CAN1_TX*%
X198732000Y-103950000D03*
%TO.P,U4,4,GND1*%
%TO.N,GND*%
X198732000Y-106490000D03*
%TO.P,U4,5,GND2*%
X207782000Y-106490000D03*
%TO.P,U4,6,CANL*%
%TO.N,CAN1_L*%
X207782000Y-103950000D03*
%TO.P,U4,7,CANH*%
%TO.N,CAN1_H*%
X207782000Y-101410000D03*
%TO.P,U4,8,VCC2*%
%TO.N,+5V*%
X207782000Y-98870000D03*
%TD*%
D39*
%TO.N,GND*%
X200500000Y-72000000D03*
X154650000Y-137819998D03*
X122500000Y-132500000D03*
X156500000Y-137000000D03*
X164833265Y-137515265D03*
X82000000Y-60500000D03*
X208000000Y-108000000D03*
X166500000Y-138000000D03*
X159500000Y-137500000D03*
X201000000Y-63500000D03*
X117000000Y-107500000D03*
X202500000Y-90000000D03*
X119500000Y-108000000D03*
X163209383Y-137489743D03*
X152500000Y-137500000D03*
X204000000Y-111000000D03*
X136500000Y-111000000D03*
X198500000Y-107500000D03*
X82500000Y-72000000D03*
X200500000Y-79500000D03*
X206000000Y-86000000D03*
X118000000Y-75000000D03*
X161850000Y-136750000D03*
X160850000Y-136000000D03*
X150500000Y-138000000D03*
%TO.N,+12V*%
X115000000Y-94000000D03*
X116000000Y-95500000D03*
X104500000Y-79500000D03*
X113500000Y-110000000D03*
X107500000Y-82000000D03*
X114500000Y-111000000D03*
%TO.N,+5V*%
X115000000Y-74000000D03*
X201000000Y-75500000D03*
X209500000Y-98500000D03*
X186500000Y-118000000D03*
X94000000Y-108000000D03*
X164000000Y-135000000D03*
X201500000Y-71980000D03*
X210000000Y-103500000D03*
X208000000Y-77500000D03*
X200000000Y-114000000D03*
X153500000Y-137500000D03*
X98500000Y-126000000D03*
X99000000Y-135500000D03*
X99500000Y-114000000D03*
X205000000Y-111500000D03*
X207000000Y-111500000D03*
%TO.N,+9V*%
X124500000Y-81500000D03*
X133000000Y-112000000D03*
X123500000Y-74000000D03*
X123500000Y-71500000D03*
X126000000Y-90500000D03*
%TO.N,+3V3*%
X138500000Y-122500000D03*
X125500000Y-83500000D03*
X196500000Y-99500000D03*
X196075735Y-101424265D03*
X158500000Y-136000000D03*
X101000000Y-88000000D03*
X163500000Y-136500000D03*
X140000000Y-119500000D03*
X96000000Y-88000000D03*
%TO.N,Acc Intake Flow Rate*%
X102012000Y-107500000D03*
X108000000Y-112500000D03*
X126500000Y-113900000D03*
X111500000Y-112000000D03*
%TO.N,Brake Sensor F*%
X206000000Y-66000000D03*
X193500000Y-70500000D03*
%TO.N,Acc Intake Temp*%
X108000000Y-127500000D03*
X103500000Y-127274000D03*
X121000000Y-127500000D03*
X84750000Y-125750000D03*
X86000000Y-127000000D03*
%TO.N,Acc Intake Pressure*%
X122500000Y-123000000D03*
X108500000Y-120000000D03*
X101500000Y-112000000D03*
X126000000Y-123500000D03*
X111000000Y-120500000D03*
X99500000Y-110000000D03*
%TO.N,Acc Exhaust Temp*%
X83000000Y-107000000D03*
X101000000Y-107000000D03*
%TO.N,Brake Sensor F 3V3*%
X155500000Y-109000000D03*
X140500000Y-124000000D03*
X160000000Y-106000000D03*
X142082315Y-122417685D03*
X179000000Y-91000000D03*
X195000000Y-88000000D03*
%TO.N,Brake Sensor R 3V3*%
X179000000Y-89500000D03*
X156500000Y-110000000D03*
X141666685Y-124833315D03*
X160500000Y-107000000D03*
X181500000Y-88000000D03*
X143082315Y-123417685D03*
%TO.N,Steering Sensor 3V3*%
X194000000Y-89000000D03*
%TO.N,IMU GINT*%
X106924265Y-105924265D03*
X108750000Y-115250000D03*
X110157200Y-116500000D03*
%TO.N,IMU LINT2*%
X124000000Y-99400000D03*
%TO.N,+12VIN*%
X93000000Y-91000000D03*
X112500000Y-111000000D03*
X108000000Y-107500000D03*
X104500000Y-105000000D03*
X96190137Y-92190137D03*
X114000000Y-112000000D03*
%TO.N,IMU LRDY*%
X126000000Y-102000000D03*
X122000000Y-100000000D03*
%TO.N,IMU GRDY*%
X124000000Y-107500000D03*
%TO.N,INT*%
X134000000Y-111000000D03*
%TO.N,Radio ATTN*%
X87624265Y-134724265D03*
X149582315Y-129917685D03*
X163500000Y-124500000D03*
X147424265Y-133424265D03*
X160598000Y-125000000D03*
%TO.N,Radio CS1*%
X181500000Y-91500000D03*
X148916685Y-132083315D03*
X150148002Y-130483372D03*
X183000000Y-90000000D03*
X160000000Y-127500000D03*
X164400000Y-125261682D03*
%TO.N,Radio Reset*%
X147000000Y-130500000D03*
X159500000Y-124500000D03*
X164000000Y-122500000D03*
X148814939Y-129150309D03*
%TO.N,IMU SDA*%
X115500000Y-97500000D03*
X162002826Y-108982939D03*
X149000000Y-96500000D03*
X166000000Y-109000000D03*
X124000000Y-96500000D03*
X179500000Y-119000000D03*
X111000000Y-97000000D03*
%TD*%
D40*
%TO.N,GND*%
X115917200Y-108582800D02*
X117000000Y-107500000D01*
X82000000Y-60750000D02*
X87250000Y-66000000D01*
X163209383Y-137489743D02*
X162750000Y-137949126D01*
X156500000Y-137000000D02*
X156750000Y-137250000D01*
X115917200Y-108975000D02*
X115917200Y-108582800D01*
X162750000Y-137949126D02*
X162750000Y-138720000D01*
X137105000Y-111605000D02*
X136500000Y-111000000D01*
X82500000Y-72000000D02*
X82500000Y-70750000D01*
X158318000Y-137500000D02*
X159500000Y-137500000D01*
X118232000Y-61195000D02*
X117217000Y-60180000D01*
X123790600Y-131131200D02*
X123790600Y-131209400D01*
X200500000Y-80987000D02*
X200693000Y-81180000D01*
X200500000Y-79500000D02*
X200500000Y-79000000D01*
X160750000Y-136100000D02*
X160750000Y-138720000D01*
X201294500Y-78205500D02*
X201294500Y-76990000D01*
X164250000Y-138098530D02*
X164833265Y-137515265D01*
X115757000Y-75605000D02*
X117395000Y-75605000D01*
X152750000Y-138720000D02*
X152750000Y-137750000D01*
X201417000Y-125930000D02*
X203129500Y-127642500D01*
X160850000Y-136000000D02*
X160750000Y-136100000D01*
X200320000Y-64180000D02*
X201000000Y-63500000D01*
X161850000Y-136750000D02*
X161750000Y-136850000D01*
X201667500Y-90832500D02*
X202500000Y-90000000D01*
X115465500Y-65260000D02*
X115465500Y-63812500D01*
X198732000Y-106490000D02*
X198732000Y-107268000D01*
X205320000Y-86680000D02*
X206000000Y-86000000D01*
X165750000Y-138068000D02*
X165750000Y-138720000D01*
X120417200Y-109475000D02*
X119500000Y-108557800D01*
X161750000Y-136850000D02*
X161750000Y-138720000D01*
X158750000Y-138068000D02*
X159318000Y-137500000D01*
X207782000Y-107782000D02*
X208000000Y-108000000D01*
X82500000Y-70750000D02*
X87250000Y-66000000D01*
X199282000Y-64180000D02*
X200320000Y-64180000D01*
X166500000Y-138000000D02*
X166318000Y-137818000D01*
X117395000Y-75605000D02*
X118000000Y-75000000D01*
X118232000Y-62971000D02*
X118232000Y-61195000D01*
X201378400Y-90832500D02*
X201667500Y-90832500D01*
X200500000Y-79000000D02*
X201294500Y-78205500D01*
X203129500Y-127642500D02*
X204917000Y-127642500D01*
X152750000Y-137750000D02*
X152500000Y-137500000D01*
X201257000Y-72757000D02*
X201257000Y-73180000D01*
X166318000Y-137818000D02*
X166000000Y-137818000D01*
X154250000Y-138219998D02*
X154650000Y-137819998D01*
X204000000Y-111000000D02*
X202899500Y-111000000D01*
X198732000Y-107268000D02*
X198500000Y-107500000D01*
X113703500Y-77658500D02*
X115757000Y-75605000D01*
X157750000Y-138068000D02*
X158318000Y-137500000D01*
X150500000Y-138000000D02*
X150530000Y-138000000D01*
X116307000Y-62971000D02*
X118232000Y-62971000D01*
X204270200Y-86680000D02*
X205320000Y-86680000D01*
X156750000Y-137250000D02*
X156750000Y-138720000D01*
X113540500Y-65260000D02*
X115465500Y-65260000D01*
X154250000Y-138720000D02*
X154250000Y-138219998D01*
X150530000Y-138000000D02*
X151250000Y-138720000D01*
X115465500Y-63812500D02*
X116307000Y-62971000D01*
X200500000Y-72000000D02*
X201257000Y-72757000D01*
X119500000Y-108557800D02*
X119500000Y-108000000D01*
X113703500Y-79842900D02*
X113703500Y-77658500D01*
X138007000Y-111605000D02*
X137105000Y-111605000D01*
X159750000Y-138720000D02*
X159750000Y-137750000D01*
X200500000Y-79500000D02*
X200500000Y-80987000D01*
X159318000Y-137500000D02*
X159500000Y-137500000D01*
X123790600Y-131209400D02*
X122500000Y-132500000D01*
X207782000Y-106490000D02*
X207782000Y-107782000D01*
X159750000Y-137750000D02*
X159500000Y-137500000D01*
X157750000Y-138720000D02*
X157750000Y-138068000D01*
X202899500Y-111000000D02*
X202257000Y-111642500D01*
X158750000Y-138720000D02*
X158750000Y-138068000D01*
X82000000Y-60500000D02*
X82000000Y-60750000D01*
X164250000Y-138720000D02*
X164250000Y-138098530D01*
X166000000Y-137818000D02*
X165750000Y-138068000D01*
%TO.N,+12V*%
X113754500Y-62971000D02*
X114232000Y-62971000D01*
X113500000Y-110000000D02*
X112512800Y-109012800D01*
X111465500Y-65260000D02*
X101490000Y-65260000D01*
X116417200Y-115296800D02*
X115717200Y-115296800D01*
X104500000Y-79500000D02*
X113875000Y-70125000D01*
X114232000Y-60625000D02*
X114677000Y-60180000D01*
X114067100Y-111000000D02*
X114500000Y-111000000D01*
X115000000Y-84500000D02*
X115000000Y-94000000D01*
X111465500Y-65260000D02*
X113754500Y-62971000D01*
X113500000Y-83000000D02*
X108500000Y-83000000D01*
X108500000Y-83000000D02*
X107500000Y-82000000D01*
X113500000Y-83000000D02*
X115000000Y-84500000D01*
X101490000Y-65260000D02*
X100750000Y-66000000D01*
X115717200Y-115296800D02*
X113283550Y-112863150D01*
X114232000Y-62971000D02*
X114232000Y-60625000D01*
X111465500Y-65260000D02*
X111465500Y-67413500D01*
X114000000Y-97500000D02*
X116000000Y-95500000D01*
X113283550Y-112863150D02*
X113283550Y-111783550D01*
X113875000Y-70125000D02*
X114177000Y-70125000D01*
X112512800Y-109012800D02*
X112512800Y-98987200D01*
X113283550Y-111783550D02*
X114067100Y-111000000D01*
X115825000Y-115889000D02*
X116417200Y-115296800D01*
X111465500Y-67413500D02*
X114177000Y-70125000D01*
X112512800Y-98987200D02*
X114000000Y-97500000D01*
X115825000Y-118000000D02*
X115825000Y-115889000D01*
%TO.N,+5V*%
X151750000Y-138720000D02*
X151750000Y-137250000D01*
X210000000Y-108500000D02*
X210000000Y-103500000D01*
X201500000Y-71980000D02*
X202000000Y-71480000D01*
X119257000Y-70125000D02*
X119257000Y-66976500D01*
X153750000Y-138720000D02*
X153250000Y-138720000D01*
X119257000Y-66976500D02*
X117540500Y-65260000D01*
X202000000Y-65497932D02*
X203317932Y-64180000D01*
X202782500Y-113717500D02*
X205000000Y-111500000D01*
X93332000Y-94199744D02*
X112155744Y-75376000D01*
X112155744Y-75376000D02*
X113624000Y-75376000D01*
X208152000Y-98500000D02*
X207782000Y-98870000D01*
X98500000Y-115000000D02*
X99500000Y-114000000D01*
X94000000Y-107000000D02*
X93332000Y-106332000D01*
X153750000Y-137750000D02*
X153750000Y-138720000D01*
X153500000Y-137500000D02*
X152899000Y-136899000D01*
X200782500Y-113717500D02*
X202257000Y-113717500D01*
X203317932Y-64180000D02*
X204232000Y-64180000D01*
X113624000Y-75376000D02*
X115000000Y-74000000D01*
X153750000Y-137750000D02*
X153500000Y-137500000D01*
X151750000Y-137250000D02*
X100750000Y-137250000D01*
X202000000Y-71480000D02*
X202000000Y-65497932D01*
X94000000Y-108000000D02*
X94000000Y-107000000D01*
X207000000Y-111500000D02*
X210000000Y-108500000D01*
X100750000Y-137250000D02*
X99000000Y-135500000D01*
X207782000Y-98870000D02*
X207782000Y-77718000D01*
X152101000Y-136899000D02*
X151750000Y-137250000D01*
X202257000Y-113717500D02*
X202782500Y-113717500D01*
X152250000Y-138720000D02*
X151750000Y-138720000D01*
X152899000Y-136899000D02*
X152101000Y-136899000D01*
X200709500Y-75500000D02*
X201000000Y-75500000D01*
X200500000Y-114000000D02*
X200782500Y-113717500D01*
X200000000Y-114000000D02*
X200500000Y-114000000D01*
X199219500Y-76990000D02*
X200709500Y-75500000D01*
X98500000Y-126000000D02*
X98500000Y-115000000D01*
X93332000Y-103000000D02*
X93332000Y-94199744D01*
X93332000Y-106332000D02*
X93332000Y-103000000D01*
X169500000Y-135000000D02*
X186500000Y-118000000D01*
X209500000Y-98500000D02*
X208152000Y-98500000D01*
X164000000Y-135000000D02*
X169500000Y-135000000D01*
X207782000Y-77718000D02*
X208000000Y-77500000D01*
%TO.N,+9V*%
X123500000Y-74000000D02*
X123500000Y-80500000D01*
X119757000Y-60180000D02*
X119757000Y-62421000D01*
X135180000Y-113680000D02*
X138007000Y-113680000D01*
X126000000Y-90500000D02*
X126000000Y-101150057D01*
X120307000Y-68307000D02*
X123500000Y-71500000D01*
X126000000Y-101150057D02*
X125399000Y-101751057D01*
X123500000Y-80500000D02*
X124500000Y-81500000D01*
X133000000Y-112000000D02*
X133500000Y-112000000D01*
X125399000Y-109044552D02*
X128354448Y-112000000D01*
X120307000Y-62971000D02*
X120307000Y-68307000D01*
X128354448Y-112000000D02*
X128829552Y-112000000D01*
X128829552Y-112000000D02*
X130054552Y-113225000D01*
X130054552Y-113225000D02*
X131087000Y-113225000D01*
X125399000Y-101751057D02*
X125399000Y-109044552D01*
X133500000Y-112000000D02*
X135180000Y-113680000D01*
X119757000Y-62421000D02*
X120307000Y-62971000D01*
%TO.N,+3V3*%
X154816100Y-136000000D02*
X158500000Y-136000000D01*
X105500000Y-134250000D02*
X126809552Y-134250000D01*
X131044448Y-127000000D02*
X134000000Y-127000000D01*
X205943000Y-128215160D02*
X205627160Y-128531000D01*
X165082208Y-136914265D02*
X165167943Y-137000000D01*
X138040000Y-107552500D02*
X140000000Y-109512500D01*
X197130000Y-98870000D02*
X198732000Y-98870000D01*
X164232265Y-137266322D02*
X164584322Y-136914265D01*
X164232265Y-137232265D02*
X164232265Y-137266322D01*
X114131100Y-80868900D02*
X114276160Y-80868900D01*
X164232265Y-137267735D02*
X164232265Y-137266322D01*
X163250000Y-138720000D02*
X163750000Y-138720000D01*
X201518000Y-128531000D02*
X201417000Y-128430000D01*
X201378400Y-96085600D02*
X201378400Y-92907500D01*
X130000000Y-101978000D02*
X130000000Y-91818000D01*
X163750000Y-138720000D02*
X163750000Y-137750000D01*
X165167943Y-137000000D02*
X165500000Y-137000000D01*
X165250000Y-138720000D02*
X164750000Y-138720000D01*
X114000000Y-81000000D02*
X114131100Y-80868900D01*
X165500000Y-137698473D02*
X165500000Y-137000000D01*
X115778500Y-79842900D02*
X121842900Y-79842900D01*
X192847000Y-137000000D02*
X201417000Y-128430000D01*
X134000000Y-127000000D02*
X138500000Y-122500000D01*
X114276160Y-80868900D02*
X114592000Y-80553060D01*
X203601000Y-108101000D02*
X205943000Y-110443000D01*
X115778500Y-77701500D02*
X115757000Y-77680000D01*
X196500000Y-99500000D02*
X197130000Y-98870000D01*
X204917000Y-129717500D02*
X202704500Y-129717500D01*
X107098844Y-81000000D02*
X114000000Y-81000000D01*
X131087000Y-103065000D02*
X130000000Y-101978000D01*
X130000000Y-131059552D02*
X130000000Y-128044448D01*
X165250000Y-137948473D02*
X165500000Y-137698473D01*
X205627160Y-128531000D02*
X201518000Y-128531000D01*
X80700000Y-92010000D02*
X92839943Y-92010000D01*
X196075735Y-101424265D02*
X195000000Y-102500000D01*
X130000000Y-91818000D02*
X128547000Y-90365000D01*
X195000000Y-104849943D02*
X198251057Y-108101000D01*
X114592000Y-80553060D02*
X114592000Y-80408000D01*
X96000000Y-88849943D02*
X96000000Y-88000000D01*
X163750000Y-137750000D02*
X164232265Y-137267735D01*
X115157100Y-79842900D02*
X115778500Y-79842900D01*
X114592000Y-80408000D02*
X115157100Y-79842900D01*
X135574500Y-107552500D02*
X131087000Y-103065000D01*
X138040000Y-107552500D02*
X135574500Y-107552500D01*
X163500000Y-136500000D02*
X164232265Y-137232265D01*
X92839943Y-92010000D02*
X96000000Y-88849943D01*
X198251057Y-108101000D02*
X203601000Y-108101000D01*
X202704500Y-129717500D02*
X201417000Y-128430000D01*
X126809552Y-134250000D02*
X130000000Y-131059552D01*
X140000000Y-119500000D02*
X140000000Y-121183900D01*
X195000000Y-102500000D02*
X195000000Y-104849943D01*
X140000000Y-121183900D02*
X154816100Y-136000000D01*
X130000000Y-128044448D02*
X131044448Y-127000000D01*
X121842900Y-79842900D02*
X125500000Y-83500000D01*
X101000000Y-87098844D02*
X107098844Y-81000000D01*
X165500000Y-137000000D02*
X192847000Y-137000000D01*
X198732000Y-98732000D02*
X201378400Y-96085600D01*
X140000000Y-109512500D02*
X140000000Y-119500000D01*
X165250000Y-138720000D02*
X165250000Y-137948473D01*
X115778500Y-79842900D02*
X115778500Y-77701500D01*
X198732000Y-98870000D02*
X198732000Y-98732000D01*
X205943000Y-110443000D02*
X205943000Y-128215160D01*
X101000000Y-88000000D02*
X101000000Y-87098844D01*
X164584322Y-136914265D02*
X165082208Y-136914265D01*
D41*
%TO.N,Acc Intake Flow Rate*%
X99261412Y-109424000D02*
X99036412Y-109649000D01*
X99738588Y-109424000D02*
X99261412Y-109424000D01*
X128224000Y-114724000D02*
X129224000Y-114724000D01*
X108000000Y-112500000D02*
X108500000Y-112000000D01*
X102012000Y-107500000D02*
X101662588Y-107500000D01*
X129224000Y-114724000D02*
X130046000Y-115546000D01*
X101662588Y-107500000D02*
X99738588Y-109424000D01*
X108500000Y-112000000D02*
X111500000Y-112000000D01*
X83651620Y-109649000D02*
X76000000Y-101997380D01*
X99036412Y-109649000D02*
X83651620Y-109649000D01*
X127400000Y-113900000D02*
X128224000Y-114724000D01*
X130046000Y-117264000D02*
X131087000Y-118305000D01*
X76000000Y-101997380D02*
X76000000Y-93660000D01*
X130046000Y-115546000D02*
X130046000Y-117264000D01*
X126500000Y-113900000D02*
X127400000Y-113900000D01*
X76000000Y-93660000D02*
X74350000Y-92010000D01*
%TO.N,Brake Sensor F*%
X205450000Y-65450000D02*
X206000000Y-66000000D01*
X113121531Y-73063881D02*
X118576806Y-73063881D01*
X80700000Y-100410000D02*
X85775412Y-100410000D01*
X191500000Y-72500000D02*
X193500000Y-70500000D01*
X121000000Y-72500000D02*
X191500000Y-72500000D01*
X119065687Y-72575000D02*
X120925000Y-72575000D01*
X204232000Y-65450000D02*
X205450000Y-65450000D01*
X85775412Y-100410000D02*
X113121531Y-73063881D01*
X120925000Y-72575000D02*
X121000000Y-72500000D01*
X118576806Y-73063881D02*
X119065687Y-72575000D01*
%TO.N,Brake Sensor B*%
X82390000Y-104610000D02*
X80700000Y-104610000D01*
X118431418Y-73414881D02*
X117585119Y-73414881D01*
X118927806Y-73209269D02*
X118722194Y-73414881D01*
X120779612Y-72926000D02*
X119211075Y-72926000D01*
X201500000Y-64000000D02*
X202590000Y-62910000D01*
X112000000Y-74681800D02*
X112000000Y-75000000D01*
X191996388Y-72500000D02*
X196353612Y-72500000D01*
X121145388Y-72851000D02*
X191645388Y-72851000D01*
X121070388Y-72926000D02*
X120779612Y-72926000D01*
X118722195Y-73414881D02*
X118431418Y-73414881D01*
X118927806Y-73209270D02*
X118927806Y-73209269D01*
X191645388Y-72851000D02*
X191996388Y-72500000D01*
X201500000Y-67353612D02*
X201500000Y-64000000D01*
X117585119Y-73414881D02*
X113266919Y-73414881D01*
X119211075Y-72926000D02*
X118927806Y-73209270D01*
X113266919Y-73414881D02*
X112000000Y-74681800D01*
X112000000Y-75000000D02*
X82390000Y-104610000D01*
X196353612Y-72500000D02*
X201500000Y-67353612D01*
X121070388Y-72926000D02*
X121145388Y-72851000D01*
X121070388Y-72926000D02*
X121070389Y-72926000D01*
X202590000Y-62910000D02*
X204232000Y-62910000D01*
X118722194Y-73414881D02*
X118722195Y-73414881D01*
D40*
%TO.N,CAN1_H*%
X212650000Y-94200000D02*
X211149000Y-95701000D01*
X212650000Y-90000000D02*
X212650000Y-94200000D01*
X211149000Y-98043000D02*
X207782000Y-101410000D01*
X211149000Y-95701000D02*
X211149000Y-98043000D01*
D41*
%TO.N,Acc Intake Temp*%
X121000000Y-127500000D02*
X108000000Y-127500000D01*
X86274000Y-127274000D02*
X86000000Y-127000000D01*
X83095727Y-125226000D02*
X74350000Y-116480273D01*
X84750000Y-125750000D02*
X84226000Y-125226000D01*
X74350000Y-116480273D02*
X74350000Y-104610000D01*
X103500000Y-127274000D02*
X86274000Y-127274000D01*
X84226000Y-125226000D02*
X83095727Y-125226000D01*
D40*
%TO.N,CAN1_L*%
X212650000Y-102600000D02*
X209132000Y-102600000D01*
X209132000Y-102600000D02*
X207782000Y-103950000D01*
X212650000Y-98400000D02*
X212650000Y-102600000D01*
D41*
%TO.N,Acc Intake Pressure*%
X104685412Y-112000000D02*
X109000000Y-116314588D01*
X72874000Y-101046620D02*
X81827380Y-110000000D01*
X81827380Y-110000000D02*
X99500000Y-110000000D01*
X113500000Y-123000000D02*
X122500000Y-123000000D01*
X74350000Y-96210000D02*
X72874000Y-97686000D01*
X109000000Y-116314588D02*
X109000000Y-119500000D01*
X129588000Y-122344000D02*
X131087000Y-120845000D01*
X101500000Y-112000000D02*
X104685412Y-112000000D01*
X72874000Y-97686000D02*
X72874000Y-101046620D01*
X126000000Y-123500000D02*
X127156000Y-122344000D01*
X109000000Y-119500000D02*
X108500000Y-120000000D01*
X111000000Y-120500000D02*
X113500000Y-123000000D01*
X127156000Y-122344000D02*
X129588000Y-122344000D01*
%TO.N,Steering Sensor*%
X120779611Y-72224000D02*
X120854612Y-72149000D01*
X120854612Y-72149000D02*
X188351000Y-72149000D01*
X112689024Y-73000000D02*
X112976143Y-72712881D01*
X197590000Y-62910000D02*
X199282000Y-62910000D01*
X112500000Y-73000000D02*
X112689024Y-73000000D01*
X89290000Y-96210000D02*
X112500000Y-73000000D01*
X118431418Y-72712881D02*
X118714687Y-72429611D01*
X188351000Y-72149000D02*
X197590000Y-62910000D01*
X118714687Y-72429611D02*
X118714687Y-72429612D01*
X112976143Y-72712881D02*
X118431418Y-72712881D01*
X118920299Y-72224000D02*
X120779611Y-72224000D01*
X118714687Y-72429612D02*
X118920299Y-72224000D01*
X80700000Y-96210000D02*
X89290000Y-96210000D01*
%TO.N,Acc Exhaust Temp*%
X85000000Y-109000000D02*
X99000000Y-109000000D01*
X83000000Y-107000000D02*
X85000000Y-109000000D01*
X99000000Y-109000000D02*
X101000000Y-107000000D01*
D40*
%TO.N,Brake Sensor F 3V3*%
X177196815Y-91803185D02*
X163000000Y-106000000D01*
X198937000Y-88000000D02*
X200257000Y-86680000D01*
X200257000Y-86680000D02*
X202270200Y-86680000D01*
X179000000Y-91000000D02*
X178196815Y-91803185D01*
X195000000Y-88000000D02*
X198937000Y-88000000D01*
X131087000Y-128465000D02*
X136035000Y-128465000D01*
X178196815Y-91803185D02*
X177196815Y-91803185D01*
X142082315Y-122417685D02*
X155500000Y-109000000D01*
X136035000Y-128465000D02*
X140500000Y-124000000D01*
X163000000Y-106000000D02*
X160000000Y-106000000D01*
%TO.N,Brake Sensor R 3V3*%
X200258000Y-74181000D02*
X204319000Y-74181000D01*
X199257000Y-73180000D02*
X200258000Y-74181000D01*
X134643280Y-131005000D02*
X131087000Y-131005000D01*
X160500000Y-107000000D02*
X164500000Y-107000000D01*
X140814965Y-124833315D02*
X134643280Y-131005000D01*
X180000000Y-90500000D02*
X179000000Y-89500000D01*
X196320000Y-73180000D02*
X199257000Y-73180000D01*
X204319000Y-74181000D02*
X205500000Y-73000000D01*
X141666685Y-124833315D02*
X140814965Y-124833315D01*
X180000000Y-91500000D02*
X180000000Y-90500000D01*
X164500000Y-107000000D02*
X180000000Y-91500000D01*
X143082315Y-123417685D02*
X156500000Y-110000000D01*
X181500000Y-88000000D02*
X196320000Y-73180000D01*
%TO.N,SD Card Detect T{slash}F*%
X192371000Y-119371000D02*
X191605448Y-119371000D01*
X193930000Y-120930000D02*
X192371000Y-119371000D01*
X191605448Y-119371000D02*
X190981000Y-118746552D01*
X190981000Y-114291000D02*
X192047000Y-113225000D01*
X190981000Y-118746552D02*
X190981000Y-114291000D01*
X198917000Y-120930000D02*
X193930000Y-120930000D01*
%TO.N,CAN1_TX*%
X197536000Y-102036000D02*
X198732000Y-103232000D01*
X190981000Y-91839000D02*
X192488552Y-91839000D01*
X193500000Y-92850448D02*
X193500000Y-96412900D01*
X197523010Y-102036000D02*
X197536000Y-102036000D01*
X193500000Y-96745100D02*
X193500000Y-98000000D01*
X197256000Y-101756000D02*
X197256000Y-101768990D01*
X193500000Y-98000000D02*
X197256000Y-101756000D01*
X197256000Y-101768990D02*
X197523010Y-102036000D01*
X198732000Y-103232000D02*
X198732000Y-103950000D01*
X192488552Y-91839000D02*
X193500000Y-92850448D01*
X189507000Y-90365000D02*
X190981000Y-91839000D01*
X193500000Y-96412900D02*
X193500000Y-96745100D01*
%TO.N,CAN1_RX*%
X193901000Y-93016548D02*
X193901000Y-92684348D01*
X193901000Y-96246800D02*
X193901000Y-93016548D01*
X193901000Y-96579000D02*
X193901000Y-96246800D01*
X193901000Y-97833900D02*
X193901000Y-96911200D01*
X198732000Y-101410000D02*
X197477100Y-101410000D01*
X193901000Y-92684348D02*
X193901000Y-90711448D01*
X197422100Y-101355000D02*
X193901000Y-97833900D01*
X193901000Y-90711448D02*
X192189552Y-89000000D01*
X192189552Y-89000000D02*
X190682000Y-89000000D01*
X197477100Y-101410000D02*
X197422100Y-101355000D01*
X190682000Y-89000000D02*
X189507000Y-87825000D01*
X193901000Y-96911200D02*
X193901000Y-96579000D01*
%TO.N,Net-(U6B--)*%
X205179968Y-64849000D02*
X206000000Y-64028968D01*
X205508000Y-60596132D02*
X205281868Y-60370000D01*
X204578968Y-61640000D02*
X204232000Y-61640000D01*
X206000000Y-64028968D02*
X206000000Y-63061032D01*
X203500000Y-73000000D02*
X202956000Y-72456000D01*
X202956000Y-65109032D02*
X203216032Y-64849000D01*
X206000000Y-63061032D02*
X205508000Y-62569032D01*
X205508000Y-62569032D02*
X204578968Y-61640000D01*
X202956000Y-72456000D02*
X202956000Y-65109032D01*
X203216032Y-64849000D02*
X205179968Y-64849000D01*
X205281868Y-60370000D02*
X204232000Y-60370000D01*
X205508000Y-62569032D02*
X205508000Y-60596132D01*
%TO.N,Net-(U6A--)*%
X206121000Y-69879000D02*
X204232000Y-67990000D01*
X205856000Y-74230160D02*
X206401000Y-73685160D01*
X198257000Y-86680000D02*
X202756000Y-82181000D01*
X204232000Y-66720000D02*
X206121000Y-68609000D01*
X202756000Y-82181000D02*
X205540160Y-82181000D01*
X205856000Y-81865160D02*
X205856000Y-74230160D01*
X206401000Y-70159000D02*
X206121000Y-69879000D01*
X206121000Y-68609000D02*
X206121000Y-69879000D01*
X206401000Y-73685160D02*
X206401000Y-70159000D01*
X205540160Y-82181000D02*
X205856000Y-81865160D01*
%TO.N,Steering Sensor 3V3*%
X194000000Y-85500000D02*
X196000000Y-83500000D01*
X204757000Y-81180000D02*
X202693000Y-81180000D01*
X194000000Y-89000000D02*
X194000000Y-85500000D01*
X196000000Y-83500000D02*
X200373000Y-83500000D01*
X200373000Y-83500000D02*
X202693000Y-81180000D01*
%TO.N,IMU GINT*%
X110157200Y-116500000D02*
X110157200Y-123657200D01*
X107000000Y-107598530D02*
X107000000Y-113500000D01*
X110157200Y-123657200D02*
X112011000Y-125511000D01*
X112011000Y-125511000D02*
X126421000Y-125511000D01*
X106924265Y-107522795D02*
X107000000Y-107598530D01*
X126421000Y-125511000D02*
X128547000Y-123385000D01*
X106924265Y-105924265D02*
X106924265Y-107522795D01*
X107000000Y-113500000D02*
X108750000Y-115250000D01*
%TO.N,IMU LINT2*%
X124000000Y-99400000D02*
X122102000Y-99400000D01*
X117152000Y-99500000D02*
X113652000Y-103000000D01*
X121751057Y-99399000D02*
X121650057Y-99500000D01*
X121650057Y-99500000D02*
X117152000Y-99500000D01*
X122101000Y-99399000D02*
X121751057Y-99399000D01*
X122102000Y-99400000D02*
X122101000Y-99399000D01*
%TO.N,+12VIN*%
X103880927Y-105000000D02*
X104500000Y-105000000D01*
X83890000Y-91000000D02*
X93000000Y-91000000D01*
X114000000Y-112000000D02*
X114000000Y-112465760D01*
X102352800Y-98352800D02*
X102352800Y-103471873D01*
X115930040Y-114395800D02*
X119395800Y-114395800D01*
X111500000Y-111000000D02*
X112500000Y-111000000D01*
X102352800Y-103471873D02*
X103880927Y-105000000D01*
X80700000Y-87810000D02*
X83890000Y-91000000D01*
X119395800Y-114395800D02*
X120500000Y-115500000D01*
X123790600Y-124610000D02*
X123790600Y-121290600D01*
X120500000Y-118000000D02*
X120500000Y-115500000D01*
X123790600Y-121290600D02*
X120500000Y-118000000D01*
X114000000Y-112465760D02*
X115930040Y-114395800D01*
X108000000Y-107500000D02*
X111500000Y-111000000D01*
X96190137Y-92190137D02*
X102352800Y-98352800D01*
%TO.N,Net-(U3A-PC2)*%
X123790600Y-126610000D02*
X126692000Y-126610000D01*
X126692000Y-126610000D02*
X128547000Y-128465000D01*
X123790600Y-129131200D02*
X123790600Y-126610000D01*
%TO.N,IMU LRDY*%
X119192000Y-100000000D02*
X122000000Y-100000000D01*
X116192000Y-103000000D02*
X119192000Y-100000000D01*
X126000000Y-102000000D02*
X127072000Y-102000000D01*
X127072000Y-102000000D02*
X128547000Y-100525000D01*
%TO.N,IMU GRDY*%
X124000000Y-116298000D02*
X128547000Y-120845000D01*
X124000000Y-107500000D02*
X124000000Y-116298000D01*
%TO.N,SD MOSI2*%
X198752000Y-115765000D02*
X192047000Y-115765000D01*
X201417000Y-118430000D02*
X198752000Y-115765000D01*
%TO.N,SD CS2*%
X189473448Y-122319000D02*
X188441000Y-121286552D01*
X188441000Y-112559000D02*
X189249000Y-111751000D01*
X198917000Y-128430000D02*
X192806000Y-122319000D01*
X192806000Y-122319000D02*
X189473448Y-122319000D01*
X188441000Y-121286552D02*
X188441000Y-112559000D01*
X190981000Y-104131000D02*
X192047000Y-103065000D01*
X190981000Y-110718552D02*
X190981000Y-104131000D01*
X189249000Y-111751000D02*
X189948552Y-111751000D01*
X189948552Y-111751000D02*
X190981000Y-110718552D01*
%TO.N,SD SCK2*%
X200266000Y-122279000D02*
X201417000Y-123430000D01*
X193481000Y-122279000D02*
X200266000Y-122279000D01*
X192047000Y-120845000D02*
X193481000Y-122279000D01*
%TO.N,SD MISO2*%
X193521000Y-119779000D02*
X192047000Y-118305000D01*
X200266000Y-119779000D02*
X193521000Y-119779000D01*
X201417000Y-120930000D02*
X200266000Y-119779000D01*
%TO.N,INT*%
X139033000Y-110370500D02*
X138040000Y-109377500D01*
X156250000Y-138720000D02*
X156250000Y-138001000D01*
X156250000Y-138001000D02*
X139033000Y-120784000D01*
X135622500Y-109377500D02*
X138040000Y-109377500D01*
X134000000Y-111000000D02*
X135622500Y-109377500D01*
X139033000Y-120784000D02*
X139033000Y-110370500D01*
%TO.N,Dash SCK3*%
X130233000Y-83599000D02*
X128547000Y-85285000D01*
X162250000Y-137250000D02*
X162500000Y-137000000D01*
X162500000Y-112432900D02*
X133666100Y-83599000D01*
X133666100Y-83599000D02*
X130233000Y-83599000D01*
X162250000Y-138720000D02*
X162250000Y-137250000D01*
X162500000Y-137000000D02*
X162500000Y-112432900D01*
%TO.N,Radio SCK1*%
X83500000Y-130250000D02*
X83500000Y-129251000D01*
X109043873Y-104139200D02*
X109711200Y-103471873D01*
X117833703Y-92666297D02*
X118466603Y-92666297D01*
X84501000Y-128664628D02*
X84501000Y-127835372D01*
X118466603Y-92666297D02*
X128335900Y-82797000D01*
X128335900Y-82797000D02*
X174319000Y-82797000D01*
X107860800Y-104139200D02*
X109043873Y-104139200D01*
X83914628Y-129251000D02*
X84501000Y-128664628D01*
X84332814Y-127667186D02*
X107860800Y-104139200D01*
X110500000Y-101000000D02*
X110500000Y-100000000D01*
X84501000Y-127835372D02*
X84332814Y-127667186D01*
X109711200Y-101788800D02*
X110500000Y-101000000D01*
X83500000Y-129251000D02*
X83914628Y-129251000D01*
X110500000Y-100000000D02*
X117833703Y-92666297D01*
X174319000Y-82797000D02*
X189507000Y-97985000D01*
X109711200Y-103471873D02*
X109711200Y-101788800D01*
%TO.N,Dash CS3*%
X159948000Y-136899000D02*
X159948000Y-136515043D01*
X160924028Y-129424029D02*
X161198000Y-129150057D01*
X161198000Y-113198000D02*
X135825000Y-87825000D01*
X135825000Y-87825000D02*
X131087000Y-87825000D01*
X159251057Y-136899000D02*
X159948000Y-136899000D01*
X158151900Y-137099000D02*
X159051057Y-137099000D01*
X159848000Y-135584957D02*
X160434957Y-134998000D01*
X157349000Y-138019000D02*
X157349000Y-137901900D01*
X157349000Y-137901900D02*
X158151900Y-137099000D01*
X157299000Y-138671000D02*
X157299000Y-138019000D01*
X160924028Y-134998000D02*
X160924028Y-129424029D01*
X157299000Y-138019000D02*
X157349000Y-138019000D01*
X157250000Y-138720000D02*
X157299000Y-138671000D01*
X161198000Y-129150057D02*
X161198000Y-113198000D01*
X160434957Y-134998000D02*
X160924028Y-134998000D01*
X159848000Y-136415043D02*
X159848000Y-135584957D01*
X159948000Y-136515043D02*
X159848000Y-136415043D01*
X159051057Y-137099000D02*
X159251057Y-136899000D01*
%TO.N,Dash MISO3*%
X160249000Y-136248943D02*
X160249000Y-135751057D01*
X134217900Y-85285000D02*
X131087000Y-85285000D01*
X161599000Y-135748000D02*
X161599000Y-112666100D01*
X160349000Y-136348943D02*
X160249000Y-136248943D01*
X160250000Y-138720000D02*
X160299000Y-138671000D01*
X160349000Y-138019000D02*
X160349000Y-136348943D01*
X160249000Y-135751057D02*
X160601057Y-135399000D01*
X160299000Y-138019000D02*
X160349000Y-138019000D01*
X161447943Y-135748000D02*
X161599000Y-135748000D01*
X161098943Y-135399000D02*
X161447943Y-135748000D01*
X160299000Y-138671000D02*
X160299000Y-138019000D01*
X160601057Y-135399000D02*
X161098943Y-135399000D01*
X161599000Y-112666100D02*
X134217900Y-85285000D01*
%TO.N,Radio MISO1*%
X188469674Y-97514774D02*
X188441000Y-97543448D01*
X122225106Y-105301000D02*
X123573000Y-103953106D01*
X105500000Y-128250000D02*
X109557200Y-124192800D01*
X109557200Y-114942800D02*
X114940520Y-109559480D01*
X128502000Y-83198000D02*
X174152900Y-83198000D01*
X116399000Y-107251057D02*
X116751057Y-106899000D01*
X189507000Y-99051000D02*
X189507000Y-100525000D01*
X115833900Y-108099000D02*
X116399000Y-107533900D01*
X125000000Y-99500000D02*
X125000000Y-86700000D01*
X114916200Y-108414840D02*
X115232040Y-108099000D01*
X125000000Y-86700000D02*
X128502000Y-83198000D01*
X123573000Y-102046894D02*
X123013053Y-101486947D01*
X109557200Y-124192800D02*
X109557200Y-114942800D01*
X123013053Y-101486947D02*
X125000000Y-99500000D01*
X189065448Y-99051000D02*
X189507000Y-99051000D01*
X123573000Y-103953106D02*
X123573000Y-102046894D01*
X114916200Y-109535160D02*
X114916200Y-108414840D01*
X117248943Y-106899000D02*
X117424972Y-107075028D01*
X116751057Y-106899000D02*
X117248943Y-106899000D01*
X114940520Y-109559480D02*
X114916200Y-109535160D01*
X188441000Y-98426552D02*
X189065448Y-99051000D01*
X117424972Y-107075028D02*
X119758947Y-104741053D01*
X188441000Y-97543448D02*
X188441000Y-98426552D01*
X116399000Y-107533900D02*
X116399000Y-107251057D01*
X115232040Y-108099000D02*
X115833900Y-108099000D01*
X174152900Y-83198000D02*
X188469674Y-97514774D01*
X119758947Y-104741053D02*
X120318894Y-105301000D01*
X120318894Y-105301000D02*
X122225106Y-105301000D01*
%TO.N,Radio ATTN*%
X149582315Y-129917685D02*
X152500000Y-127000000D01*
X102365800Y-134500000D02*
X87848530Y-134500000D01*
X147424265Y-133424265D02*
X146348530Y-134500000D01*
X173841000Y-126351000D02*
X189507000Y-110685000D01*
X87848530Y-134500000D02*
X87624265Y-134724265D01*
X159500000Y-127000000D02*
X160500000Y-126000000D01*
X163149000Y-125998943D02*
X163501057Y-126351000D01*
X144134200Y-134500000D02*
X142332200Y-136302000D01*
X160500000Y-126000000D02*
X160500000Y-125098000D01*
X163500000Y-124500000D02*
X163149000Y-124851000D01*
X163501057Y-126351000D02*
X173841000Y-126351000D01*
X104167800Y-136302000D02*
X102365800Y-134500000D01*
X146348530Y-134500000D02*
X144134200Y-134500000D01*
X142332200Y-136302000D02*
X104167800Y-136302000D01*
X160500000Y-125098000D02*
X160598000Y-125000000D01*
X152500000Y-127000000D02*
X159500000Y-127000000D01*
X163149000Y-124851000D02*
X163149000Y-125998943D01*
%TO.N,PD*%
X155250000Y-138720000D02*
X155250000Y-137568100D01*
X138632000Y-119132000D02*
X131251000Y-111751000D01*
X129613000Y-111751000D02*
X128547000Y-110685000D01*
X138632000Y-120950100D02*
X138632000Y-119132000D01*
X138632000Y-120950100D02*
X155250000Y-137568100D01*
X131251000Y-111751000D02*
X129613000Y-111751000D01*
%TO.N,Radio CS1*%
X148101055Y-132083315D02*
X147916685Y-132083315D01*
X87500000Y-134000000D02*
X86000000Y-135500000D01*
X86000000Y-135500000D02*
X83334372Y-135500000D01*
X150148002Y-130483372D02*
X150516628Y-130483372D01*
X190832000Y-86500000D02*
X192047000Y-85285000D01*
X144067100Y-134000000D02*
X142166100Y-135901000D01*
X148102055Y-132082315D02*
X148101055Y-132083315D01*
X104333900Y-135901000D02*
X102432900Y-134000000D01*
X142166100Y-135901000D02*
X104333900Y-135901000D01*
X162901000Y-123051057D02*
X164400000Y-124550057D01*
X181500000Y-91500000D02*
X162500000Y-110500000D01*
X162500000Y-111865800D02*
X162901000Y-112266800D01*
X83334372Y-135500000D02*
X82499000Y-134664628D01*
X164400000Y-124550057D02*
X164400000Y-125261682D01*
X150516628Y-130483372D02*
X153500000Y-127500000D01*
X183000000Y-90000000D02*
X186500000Y-86500000D01*
X153500000Y-127500000D02*
X160000000Y-127500000D01*
X148916685Y-132083315D02*
X148600941Y-132083315D01*
X102432900Y-134000000D02*
X87500000Y-134000000D01*
X162901000Y-112266800D02*
X162901000Y-123051057D01*
X146000000Y-134000000D02*
X144067100Y-134000000D01*
X147916685Y-132083315D02*
X146000000Y-134000000D01*
X82499000Y-129251000D02*
X83500000Y-128250000D01*
X82499000Y-134664628D02*
X82499000Y-129251000D01*
X186500000Y-86500000D02*
X190832000Y-86500000D01*
X148599941Y-132082315D02*
X148102055Y-132082315D01*
X148600941Y-132083315D02*
X148599941Y-132082315D01*
X162500000Y-110500000D02*
X162500000Y-111865800D01*
%TO.N,Radio Reset*%
X104000000Y-127750000D02*
X105500000Y-126250000D01*
X187500000Y-112000000D02*
X177000000Y-122500000D01*
X157500000Y-126500000D02*
X159500000Y-124500000D01*
X147000000Y-130500000D02*
X142000000Y-135500000D01*
X177000000Y-122500000D02*
X164000000Y-122500000D01*
X104500000Y-135500000D02*
X104000000Y-135000000D01*
X142000000Y-135500000D02*
X104500000Y-135500000D01*
X148814939Y-129150309D02*
X149349691Y-129150309D01*
X149349691Y-129150309D02*
X152000000Y-126500000D01*
X189507000Y-108145000D02*
X187500000Y-110152000D01*
X104000000Y-135000000D02*
X104000000Y-127750000D01*
X152000000Y-126500000D02*
X157500000Y-126500000D01*
X187500000Y-110152000D02*
X187500000Y-112000000D01*
%TO.N,Dash MOSI3*%
X161601057Y-136149000D02*
X162000000Y-136149000D01*
X161250000Y-138720000D02*
X161250000Y-136502057D01*
X162000000Y-136149000D02*
X162000000Y-112500000D01*
X130000000Y-86372000D02*
X128547000Y-87825000D01*
X133500000Y-84000000D02*
X130500000Y-84000000D01*
X162000000Y-112500000D02*
X133500000Y-84000000D01*
X130500000Y-84000000D02*
X130000000Y-84500000D01*
X130000000Y-84500000D02*
X130000000Y-86372000D01*
X161249000Y-136501057D02*
X161601057Y-136149000D01*
X161250000Y-136502057D02*
X161249000Y-136501057D01*
%TO.N,Radio MOSI1*%
X128169800Y-82396000D02*
X174485100Y-82396000D01*
X190573000Y-101999000D02*
X189507000Y-103065000D01*
X190573000Y-97543448D02*
X190573000Y-101999000D01*
X174485100Y-82396000D02*
X187034652Y-94945552D01*
X110099000Y-99833900D02*
X117667603Y-92265297D01*
X117667603Y-92265297D02*
X118300503Y-92265297D01*
X118300503Y-92265297D02*
X128169800Y-82396000D01*
X110099000Y-100833900D02*
X110099000Y-99833900D01*
X109043873Y-101860800D02*
X109310200Y-102127126D01*
X94654673Y-116250000D02*
X107432800Y-103471873D01*
X83500000Y-116250000D02*
X94654673Y-116250000D01*
X187034652Y-94945552D02*
X187500000Y-94945552D01*
X107432800Y-102528127D02*
X108100127Y-101860800D01*
X109310200Y-102127126D02*
X109310200Y-101622700D01*
X109310200Y-101622700D02*
X110099000Y-100833900D01*
X189948552Y-96919000D02*
X190573000Y-97543448D01*
X108100127Y-101860800D02*
X109043873Y-101860800D01*
X187500000Y-94945552D02*
X189473448Y-96919000D01*
X107432800Y-103471873D02*
X107432800Y-102528127D01*
X189473448Y-96919000D02*
X189948552Y-96919000D01*
%TO.N,IMU SDA*%
X149000000Y-96500000D02*
X161500000Y-109000000D01*
X176000000Y-119000000D02*
X179500000Y-119000000D01*
X115500000Y-97500000D02*
X116500000Y-96500000D01*
X103492000Y-103000000D02*
X109492000Y-97000000D01*
X116500000Y-96500000D02*
X124000000Y-96500000D01*
X161500000Y-109000000D02*
X162000000Y-109000000D01*
X166000000Y-109000000D02*
X176000000Y-119000000D01*
X109492000Y-97000000D02*
X111000000Y-97000000D01*
%TO.N,Net-(D3-A)*%
X120500000Y-111607800D02*
X120417200Y-111525000D01*
X120500000Y-113500000D02*
X120500000Y-111607800D01*
%TO.N,Net-(D4-A)*%
X116417200Y-113296800D02*
X116417200Y-111525000D01*
X116417200Y-111525000D02*
X115917200Y-111025000D01*
%TO.N,Net-(U6C--)*%
X199282000Y-61640000D02*
X199282000Y-60370000D01*
X205247968Y-59769000D02*
X199883000Y-59769000D01*
X206757000Y-81180000D02*
X206802000Y-81135000D01*
X206802000Y-81135000D02*
X206802000Y-61323032D01*
X199883000Y-59769000D02*
X199282000Y-60370000D01*
X206802000Y-61323032D02*
X205247968Y-59769000D01*
%TD*%
M02*
