M48
; DRILL file {KiCad 9.0.0} date 2025-03-11T12:16:27-0700
; FORMAT={-:-/ absolute / inch / decimal}
; #@! TF.CreationDate,2025-03-11T12:16:27-07:00
; #@! TF.GenerationSoftware,Kicad,Pcbnew,9.0.0
; #@! TF.FileFunction,Plated,1,2,PTH
FMAT,2
INCH
; #@! TA.AperFunction,Plated,PTH,ViaDrill
T1C0.0118
; #@! TA.AperFunction,Plated,PTH,ComponentDrill
T2C0.0315
; #@! TA.AperFunction,Plated,PTH,ComponentDrill
T3C0.0394
; #@! TA.AperFunction,Plated,PTH,ComponentDrill
T4C0.0402
; #@! TA.AperFunction,Plated,PTH,ComponentDrill
T5C0.0433
; #@! TA.AperFunction,Plated,PTH,ComponentDrill
T6C0.0472
; #@! TA.AperFunction,Plated,PTH,ComponentDrill
T7C0.0984
%
G90
G05
T1
X3.2283Y-2.3819
X3.248Y-2.8346
X3.2677Y-4.2126
X3.3366Y-4.9508
X3.3858Y-5.0
X3.4498Y-5.3041
X3.6614Y-3.5827
X3.7008Y-4.252
X3.7795Y-3.4646
X3.787Y-3.6295
X3.878Y-4.9606
X3.8976Y-5.3346
X3.9173Y-4.3307
X3.9173Y-4.4882
X3.9764Y-3.4646
X3.9764Y-4.2126
X3.9961Y-4.4094
X4.0162Y-4.2323
X4.0748Y-5.0108
X4.1142Y-3.1299
X4.1142Y-4.1339
X4.2096Y-4.1702
X4.2323Y-3.2283
X4.252Y-4.2323
X4.252Y-4.4291
X4.252Y-5.0197
X4.2717Y-4.7244
X4.2815Y-4.5374
X4.3369Y-4.5866
X4.3701Y-3.8189
X4.3701Y-4.7441
X4.3898Y-4.4094
X4.4291Y-4.3701
X4.4685Y-4.3307
X4.4882Y-4.4094
X4.5079Y-4.3701
X4.5276Y-2.9134
X4.5276Y-3.7008
X4.5472Y-3.8386
X4.5669Y-3.7598
X4.6063Y-4.2323
X4.6457Y-2.9528
X4.7047Y-4.252
X4.7638Y-5.0197
X4.8031Y-3.937
X4.8228Y-4.8425
X4.8228Y-5.2165
X4.8622Y-2.815
X4.8622Y-2.9134
X4.8819Y-3.7992
X4.8819Y-3.9134
X4.8819Y-4.2323
X4.9016Y-3.2087
X4.9409Y-3.2874
X4.9606Y-3.563
X4.9606Y-4.0157
X4.9606Y-4.8622
X4.9803Y-4.4843
X5.2362Y-4.4094
X5.2756Y-4.3701
X5.374Y-4.3701
X5.4528Y-4.8228
X5.5118Y-4.7047
X5.5315Y-4.8819
X5.5774Y-4.9147
X5.5938Y-4.8196
X5.6332Y-4.859
X5.7874Y-5.1378
X5.8041Y-5.2529
X5.8589Y-5.0847
X5.8629Y-5.2001
X5.8661Y-3.7992
X5.8891Y-5.1149
X5.9113Y-5.1371
X5.9252Y-5.4331
X6.0039Y-5.4134
X6.0433Y-5.4134
X6.0886Y-5.426
X6.122Y-4.2913
X6.1614Y-4.3307
X6.1614Y-5.3937
X6.2402Y-5.3543
X6.2795Y-4.9016
X6.2795Y-5.4134
X6.2992Y-4.1732
X6.2992Y-5.0197
X6.3189Y-4.2126
X6.3228Y-4.9213
X6.3327Y-5.3543
X6.372Y-5.3839
X6.3781Y-4.2907
X6.4256Y-5.413
X6.437Y-4.9016
X6.437Y-5.374
X6.4567Y-4.8228
X6.4567Y-5.315
X6.4724Y-4.9316
X6.4895Y-5.414
X6.5354Y-4.2913
X6.5551Y-5.4331
X7.0472Y-3.5236
X7.0472Y-3.5827
X7.0669Y-4.685
X7.1457Y-3.4646
X7.1457Y-3.6024
X7.2047Y-3.5433
X7.3425Y-4.6457
X7.6181Y-2.7756
X7.6378Y-3.5039
X7.6772Y-3.4646
X7.7195Y-3.9931
X7.7362Y-3.9173
X7.815Y-4.2323
X7.874Y-4.4882
X7.8937Y-2.8346
X7.8937Y-3.1299
X7.9134Y-2.5
X7.9134Y-2.9724
X7.9331Y-2.8339
X7.9724Y-3.5433
X8.0315Y-4.3701
X8.0709Y-4.3898
X8.1102Y-2.5984
X8.1102Y-3.3858
X8.1496Y-4.3898
X8.189Y-3.0512
X8.189Y-4.252
X8.248Y-3.878
X8.2677Y-4.0748
T2
X3.2874Y-4.5768
X3.2874Y-4.6555
X3.2874Y-4.7343
X3.2874Y-4.813
X3.2874Y-4.8917
X3.2874Y-4.9705
X3.2874Y-5.0492
X3.2874Y-5.128
X3.2874Y-5.2067
X3.2874Y-5.2854
X4.1535Y-4.5768
X4.1535Y-4.6555
X4.1535Y-4.7343
X4.1535Y-4.813
X4.1535Y-4.8917
X4.1535Y-4.9705
X4.1535Y-5.0492
X4.1535Y-5.128
X4.1535Y-5.2067
X4.1535Y-5.2854
T3
X3.6745Y-4.0551
X3.7745Y-4.0551
X3.8745Y-4.0551
X3.9745Y-4.0551
X4.0745Y-4.0551
X4.1745Y-4.0551
X4.2745Y-4.0551
X4.3745Y-4.0551
X4.4745Y-4.0551
X4.5745Y-4.0551
T4
X5.0609Y-3.3577
X5.0609Y-3.4577
X5.0609Y-3.5577
X5.0609Y-3.6577
X5.0609Y-3.7577
X5.0609Y-3.8577
X5.0609Y-3.9577
X5.0609Y-4.0577
X5.0609Y-4.1577
X5.0609Y-4.2577
X5.0609Y-4.3577
X5.0609Y-4.4577
X5.0609Y-4.5577
X5.0609Y-4.6577
X5.0609Y-4.7577
X5.0609Y-4.8577
X5.0609Y-4.9577
X5.0609Y-5.0577
X5.0609Y-5.1577
X5.1609Y-3.3577
X5.1609Y-3.4577
X5.1609Y-3.5577
X5.1609Y-3.6577
X5.1609Y-3.7577
X5.1609Y-3.8577
X5.1609Y-3.9577
X5.1609Y-4.0577
X5.1609Y-4.1577
X5.1609Y-4.2577
X5.1609Y-4.3577
X5.1609Y-4.4577
X5.1609Y-4.5577
X5.1609Y-4.6577
X5.1609Y-4.7577
X5.1609Y-4.8577
X5.1609Y-4.9577
X5.1609Y-5.0577
X5.1609Y-5.1577
X7.4609Y-3.3577
X7.4609Y-3.4577
X7.4609Y-3.5577
X7.4609Y-3.6577
X7.4609Y-3.7577
X7.4609Y-3.8577
X7.4609Y-3.9577
X7.4609Y-4.0577
X7.4609Y-4.1577
X7.4609Y-4.2577
X7.4609Y-4.3577
X7.4609Y-4.4577
X7.4609Y-4.5577
X7.4609Y-4.6577
X7.4609Y-4.7577
X7.4609Y-4.8577
X7.4609Y-4.9577
X7.4609Y-5.0577
X7.4609Y-5.1577
X7.5609Y-3.3577
X7.5609Y-3.4577
X7.5609Y-3.5577
X7.5609Y-3.6577
X7.5609Y-3.7577
X7.5609Y-3.8577
X7.5609Y-3.9577
X7.5609Y-4.0577
X7.5609Y-4.1577
X7.5609Y-4.2577
X7.5609Y-4.3577
X7.5609Y-4.4577
X7.5609Y-4.5577
X7.5609Y-4.6577
X7.5609Y-4.7577
X7.5609Y-4.8577
X7.5609Y-4.9577
X7.5609Y-5.0577
X7.5609Y-5.1577
T5
X4.4952Y-2.7608
X4.5148Y-2.3693
X4.5952Y-2.7608
X4.6148Y-2.3693
X4.6952Y-2.7608
X4.7148Y-2.3693
T6
X2.9272Y-3.2917
X2.9272Y-3.4571
X2.9272Y-3.6224
X2.9272Y-3.7878
X2.9272Y-3.9531
X2.9272Y-4.1185
X3.1772Y-3.2917
X3.1772Y-3.4571
X3.1772Y-3.6224
X3.1772Y-3.7878
X3.1772Y-3.9531
X3.1772Y-4.1185
X7.8314Y-4.6626
X7.8314Y-4.761
X7.8314Y-4.8594
X7.8314Y-4.9579
X7.8314Y-5.0563
X7.9298Y-4.6626
X7.9298Y-4.761
X7.9298Y-4.8594
X7.9298Y-4.9579
X7.9298Y-5.0563
X8.372Y-3.5433
X8.372Y-3.7087
X8.372Y-3.874
X8.372Y-4.0394
X8.622Y-3.5433
X8.622Y-3.7087
X8.622Y-3.874
X8.622Y-4.0394
T7
X3.4745Y-3.3551
X3.4745Y-4.0551
X4.7745Y-3.3551
X4.7745Y-4.0551
M30
