M48
; DRILL file {KiCad 8.0.5} date 2025-05-02T16:49:56-0700
; FORMAT={-:-/ absolute / inch / decimal}
; #@! TF.CreationDate,2025-05-02T16:49:56-07:00
; #@! TF.GenerationSoftware,Kicad,Pcbnew,8.0.5
; #@! TF.FileFunction,Plated,1,2,PTH
FMAT,2
INCH
; #@! TA.AperFunction,Plated,PTH,ViaDrill
T1C0.0118
; #@! TA.AperFunction,Plated,PTH,ComponentDrill
T2C0.0276
; #@! TA.AperFunction,Plated,PTH,ComponentDrill
T3C0.0394
; #@! TA.AperFunction,Plated,PTH,ComponentDrill
T4C0.0472
; #@! TA.AperFunction,Plated,PTH,ComponentDrill
T5C0.0512
%
G90
G05
T1
X6.4973Y-3.922
X6.6345Y-4.0748
X6.6445Y-3.6348
X6.6763Y-3.9666
X6.7945Y-3.8403
X6.9845Y-3.464
X6.9845Y-4.147
T2
X6.4268Y-2.8176
X6.4268Y-3.1168
T3
X5.2941Y-3.344
X5.5795Y-3.7848
X6.555Y-3.55
X6.734Y-2.728
X7.037Y-3.718
X7.3118Y-3.3735
X7.489Y-3.9247
T4
X4.4487Y-3.4216
X4.4487Y-3.52
X4.4487Y-3.6184
X4.5185Y-4.0428
X4.5185Y-4.3775
X4.7568Y-2.9517
X4.8552Y-2.9517
X5.4004Y-4.0428
X5.4004Y-4.3775
X5.7469Y-4.483
X5.8453Y-4.483
X7.0284Y-2.9407
X7.1268Y-2.9407
X7.2252Y-2.9407
X7.3236Y-2.9407
T5
X5.4355Y-2.8176
X5.4355Y-3.1176
X5.6355Y-2.8176
X5.6355Y-3.1176
X5.8355Y-2.8176
X5.8355Y-3.1176
M30
