%TF.GenerationSoftware,KiCad,Pcbnew,8.0.5*%
%TF.CreationDate,2025-05-02T16:49:58-07:00*%
%TF.ProjectId,Discharge,44697363-6861-4726-9765-2e6b69636164,rev?*%
%TF.SameCoordinates,Original*%
%TF.FileFunction,Profile,NP*%
%FSLAX46Y46*%
G04 Gerber Fmt 4.6, Leading zero omitted, Abs format (unit mm)*
G04 Created by KiCad (PCBNEW 8.0.5) date 2025-05-02 16:49:58*
%MOMM*%
%LPD*%
G01*
G04 APERTURE LIST*
%TA.AperFunction,Profile*%
%ADD10C,0.050000*%
%TD*%
%TA.AperFunction,Profile*%
%ADD11C,0.100000*%
%TD*%
G04 APERTURE END LIST*
D10*
X160572200Y-80875400D02*
G75*
G02*
X156572200Y-80875400I-2000000J0D01*
G01*
D11*
X108305400Y-113309400D02*
G75*
G02*
X105105400Y-113309400I-1600000J0D01*
G01*
X105105400Y-113309400D02*
G75*
G02*
X108305400Y-113309400I1600000J0D01*
G01*
X193065200Y-113309400D02*
G75*
G02*
X189865200Y-113309400I-1600000J0D01*
G01*
X189865200Y-113309400D02*
G75*
G02*
X193065200Y-113309400I1600000J0D01*
G01*
D10*
X156604200Y-86813000D02*
G75*
G02*
X160604200Y-86813000I2000000J0D01*
G01*
X160572200Y-80875400D02*
X160572200Y-71875400D01*
X156572200Y-71875400D02*
G75*
G02*
X160572200Y-71875400I2000000J0D01*
G01*
X156521400Y-112452400D02*
X156521400Y-103452400D01*
X160604200Y-95813000D02*
G75*
G02*
X156604200Y-95813000I-2000000J0D01*
G01*
X156572200Y-80875400D02*
X156572200Y-71875400D01*
X160521400Y-112452400D02*
G75*
G02*
X156521400Y-112452400I-2000000J0D01*
G01*
D11*
X108305400Y-67640200D02*
G75*
G02*
X105105400Y-67640200I-1600000J0D01*
G01*
X105105400Y-67640200D02*
G75*
G02*
X108305400Y-67640200I1600000J0D01*
G01*
D10*
X103740643Y-64728600D02*
X194187300Y-64728600D01*
X194187300Y-116460800D01*
X103740643Y-116460800D01*
X103740643Y-64728600D01*
D11*
X193065200Y-67640200D02*
G75*
G02*
X189865200Y-67640200I-1600000J0D01*
G01*
X189865200Y-67640200D02*
G75*
G02*
X193065200Y-67640200I1600000J0D01*
G01*
D10*
X160604200Y-95813000D02*
X160604200Y-86813000D01*
X156521400Y-103452400D02*
G75*
G02*
X160521400Y-103452400I2000000J0D01*
G01*
X156604200Y-95813000D02*
X156604200Y-86813000D01*
X160521400Y-112452400D02*
X160521400Y-103452400D01*
M02*
