%TF.GenerationSoftware,KiCad,Pcbnew,8.0.5*%
%TF.CreationDate,2025-05-04T14:56:43-07:00*%
%TF.ProjectId,Discharge,44697363-6861-4726-9765-2e6b69636164,rev?*%
%TF.SameCoordinates,Original*%
%TF.FileFunction,Copper,L1,Top*%
%TF.FilePolarity,Positive*%
%FSLAX46Y46*%
G04 Gerber Fmt 4.6, Leading zero omitted, Abs format (unit mm)*
G04 Created by KiCad (PCBNEW 8.0.5) date 2025-05-04 14:56:43*
%MOMM*%
%LPD*%
G01*
G04 APERTURE LIST*
G04 Aperture macros list*
%AMRoundRect*
0 Rectangle with rounded corners*
0 $1 Rounding radius*
0 $2 $3 $4 $5 $6 $7 $8 $9 X,Y pos of 4 corners*
0 Add a 4 corners polygon primitive as box body*
4,1,4,$2,$3,$4,$5,$6,$7,$8,$9,$2,$3,0*
0 Add four circle primitives for the rounded corners*
1,1,$1+$1,$2,$3*
1,1,$1+$1,$4,$5*
1,1,$1+$1,$6,$7*
1,1,$1+$1,$8,$9*
0 Add four rect primitives between the rounded corners*
20,1,$1+$1,$2,$3,$4,$5,0*
20,1,$1+$1,$4,$5,$6,$7,0*
20,1,$1+$1,$6,$7,$8,$9,0*
20,1,$1+$1,$8,$9,$2,$3,0*%
%AMFreePoly0*
4,1,22,0.945671,0.830970,1.026777,0.776777,1.080970,0.695671,1.100000,0.600000,1.100000,-0.600000,1.080970,-0.695671,1.026777,-0.776777,0.945671,-0.830970,0.850000,-0.850000,-0.450000,-0.850000,-0.545671,-0.830970,-0.626777,-0.776777,-1.026777,-0.376777,-1.080970,-0.295671,-1.100000,-0.200000,-1.100000,0.600000,-1.080970,0.695671,-1.026777,0.776777,-0.945671,0.830970,-0.850000,0.850000,
0.850000,0.850000,0.945671,0.830970,0.945671,0.830970,$1*%
%AMFreePoly1*
4,1,9,5.362500,-0.866500,1.237500,-0.866500,1.237500,-0.450000,-1.237500,-0.450000,-1.237500,0.450000,1.237500,0.450000,1.237500,0.866500,5.362500,0.866500,5.362500,-0.866500,5.362500,-0.866500,$1*%
G04 Aperture macros list end*
%TA.AperFunction,Conductor*%
%ADD10C,0.200000*%
%TD*%
%TA.AperFunction,ComponentPad*%
%ADD11C,2.400000*%
%TD*%
%TA.AperFunction,ComponentPad*%
%ADD12O,2.400000X2.400000*%
%TD*%
%TA.AperFunction,ComponentPad*%
%ADD13C,2.000000*%
%TD*%
%TA.AperFunction,ComponentPad*%
%ADD14RoundRect,0.250000X0.600000X-0.850000X0.600000X0.850000X-0.600000X0.850000X-0.600000X-0.850000X0*%
%TD*%
%TA.AperFunction,ComponentPad*%
%ADD15O,1.700000X2.200000*%
%TD*%
%TA.AperFunction,ComponentPad*%
%ADD16FreePoly0,90.000000*%
%TD*%
%TA.AperFunction,SMDPad,CuDef*%
%ADD17R,1.981200X0.558800*%
%TD*%
%TA.AperFunction,SMDPad,CuDef*%
%ADD18RoundRect,0.250000X0.475000X-0.337500X0.475000X0.337500X-0.475000X0.337500X-0.475000X-0.337500X0*%
%TD*%
%TA.AperFunction,ComponentPad*%
%ADD19FreePoly0,180.000000*%
%TD*%
%TA.AperFunction,ComponentPad*%
%ADD20O,2.200000X1.700000*%
%TD*%
%TA.AperFunction,SMDPad,CuDef*%
%ADD21RoundRect,0.200000X-0.400000X-0.200000X0.400000X-0.200000X0.400000X0.200000X-0.400000X0.200000X0*%
%TD*%
%TA.AperFunction,ComponentPad*%
%ADD22R,1.400000X1.400000*%
%TD*%
%TA.AperFunction,ComponentPad*%
%ADD23C,1.400000*%
%TD*%
%TA.AperFunction,SMDPad,CuDef*%
%ADD24RoundRect,0.250000X0.337500X0.475000X-0.337500X0.475000X-0.337500X-0.475000X0.337500X-0.475000X0*%
%TD*%
%TA.AperFunction,SMDPad,CuDef*%
%ADD25R,1.200000X1.200000*%
%TD*%
%TA.AperFunction,SMDPad,CuDef*%
%ADD26RoundRect,0.250000X-0.262500X-0.450000X0.262500X-0.450000X0.262500X0.450000X-0.262500X0.450000X0*%
%TD*%
%TA.AperFunction,SMDPad,CuDef*%
%ADD27RoundRect,0.250000X0.450000X-0.350000X0.450000X0.350000X-0.450000X0.350000X-0.450000X-0.350000X0*%
%TD*%
%TA.AperFunction,SMDPad,CuDef*%
%ADD28RoundRect,0.225000X0.225000X-0.925000X0.225000X0.925000X-0.225000X0.925000X-0.225000X-0.925000X0*%
%TD*%
%TA.AperFunction,SMDPad,CuDef*%
%ADD29FreePoly1,90.000000*%
%TD*%
%TA.AperFunction,ComponentPad*%
%ADD30FreePoly0,270.000000*%
%TD*%
%TA.AperFunction,SMDPad,CuDef*%
%ADD31RoundRect,0.225000X-0.925000X-0.225000X0.925000X-0.225000X0.925000X0.225000X-0.925000X0.225000X0*%
%TD*%
%TA.AperFunction,SMDPad,CuDef*%
%ADD32FreePoly1,0.000000*%
%TD*%
%TA.AperFunction,SMDPad,CuDef*%
%ADD33RoundRect,0.237500X-0.250000X-0.237500X0.250000X-0.237500X0.250000X0.237500X-0.250000X0.237500X0*%
%TD*%
%TA.AperFunction,SMDPad,CuDef*%
%ADD34RoundRect,0.250000X-0.475000X0.337500X-0.475000X-0.337500X0.475000X-0.337500X0.475000X0.337500X0*%
%TD*%
%TA.AperFunction,SMDPad,CuDef*%
%ADD35RoundRect,0.250000X-1.075000X0.425000X-1.075000X-0.425000X1.075000X-0.425000X1.075000X0.425000X0*%
%TD*%
%TA.AperFunction,ViaPad*%
%ADD36C,0.600000*%
%TD*%
%TA.AperFunction,Conductor*%
%ADD37C,0.500000*%
%TD*%
%TA.AperFunction,Conductor*%
%ADD38C,1.000000*%
%TD*%
G04 APERTURE END LIST*
%TO.N,Net-(U2-VI)*%
D10*
X168503600Y-76813400D02*
X175590200Y-76813400D01*
X175590200Y-85979000D01*
X168503600Y-85979000D01*
X168503600Y-76813400D01*
%TD*%
D11*
%TO.P,R2,1*%
%TO.N,/TSMP+*%
X137170498Y-111187843D03*
D12*
%TO.P,R2,2*%
%TO.N,/TS+*%
X114770498Y-111187843D03*
%TD*%
D13*
%TO.P,TP1,1,1*%
%TO.N,/IR Final*%
X171043600Y-69291200D03*
%TD*%
D14*
%TO.P,J3,1,Pin_1*%
%TO.N,12v*%
X178520400Y-74693800D03*
D15*
%TO.P,J3,2,Pin_2*%
%TO.N,GLV*%
X181020400Y-74693800D03*
%TO.P,J3,3,Pin_3*%
%TO.N,/RTM*%
X183520400Y-74693800D03*
%TO.P,J3,4,Pin_4*%
%TO.N,/IR Final*%
X186020400Y-74693800D03*
%TD*%
D16*
%TO.P,J4,1,Pin_1*%
%TO.N,/Discharge-*%
X120822400Y-74973200D03*
D15*
%TO.P,J4,2,Pin_2*%
%TO.N,/Discharge+*%
X123322400Y-74973200D03*
%TD*%
D17*
%TO.P,U1,1,GND*%
%TO.N,GLV*%
X166649400Y-99618800D03*
%TO.P,U1,2,TRIG*%
%TO.N,Net-(U1-THRES)*%
X166649400Y-100888800D03*
%TO.P,U1,3,OUT*%
%TO.N,/RTM*%
X166649400Y-102158800D03*
%TO.P,U1,4,RESET*%
%TO.N,/5V*%
X166649400Y-103428800D03*
%TO.P,U1,5,CONT*%
%TO.N,unconnected-(U1-CONT-Pad5)*%
X171577000Y-103428800D03*
%TO.P,U1,6,THRES*%
%TO.N,Net-(U1-THRES)*%
X171577000Y-102158800D03*
%TO.P,U1,7,DISCH*%
%TO.N,Net-(U1-DISCH)*%
X171577000Y-100888800D03*
%TO.P,U1,8,VCC*%
%TO.N,/5V*%
X171577000Y-99618800D03*
%TD*%
D11*
%TO.P,R4,1*%
%TO.N,/TS-*%
X114770498Y-102687843D03*
D12*
%TO.P,R4,2*%
%TO.N,/TSMP-*%
X137170498Y-102687843D03*
%TD*%
D13*
%TO.P,TP2,1,1*%
%TO.N,/5V*%
X178739800Y-94437200D03*
%TD*%
D18*
%TO.P,C2,1*%
%TO.N,/5V*%
X173850498Y-99711343D03*
%TO.P,C2,2*%
%TO.N,GLV*%
X173850498Y-97636343D03*
%TD*%
D19*
%TO.P,J1,1,Pin_1*%
%TO.N,/TS-*%
X112997000Y-91908000D03*
D20*
%TO.P,J1,2,Pin_2*%
%TO.N,unconnected-(J1-Pin_2-Pad2)*%
X112997000Y-89408000D03*
%TO.P,J1,3,Pin_3*%
%TO.N,/TS+*%
X112997000Y-86908000D03*
%TD*%
D21*
%TO.P,U4,1,1*%
%TO.N,Net-(R3-Pad2)*%
X155473000Y-89662000D03*
%TO.P,U4,3,3*%
%TO.N,/TS-*%
X155473000Y-92202000D03*
%TO.P,U4,4,4*%
%TO.N,Net-(U2-VI)*%
X161773000Y-92202000D03*
%TO.P,U4,5*%
%TO.N,N/C*%
X161773000Y-90932000D03*
%TO.P,U4,6,6*%
%TO.N,12v*%
X161773000Y-89662000D03*
%TD*%
D22*
%TO.P,K1,1*%
%TO.N,/IR Final*%
X163240498Y-71567843D03*
D13*
%TO.P,K1,4*%
%TO.N,unconnected-(K1-Pad4)*%
X148220498Y-71567843D03*
%TO.P,K1,6*%
%TO.N,unconnected-(K1-Pad6)*%
X143140498Y-71567843D03*
%TO.P,K1,8*%
%TO.N,unconnected-(K1-Pad8)*%
X138060498Y-71567843D03*
%TO.P,K1,9*%
%TO.N,unconnected-(K1-Pad9)*%
X138060498Y-79187843D03*
%TO.P,K1,11*%
%TO.N,/Discharge-*%
X143140498Y-79187843D03*
%TO.P,K1,13*%
%TO.N,/Discharge+*%
X148220498Y-79187843D03*
D23*
%TO.P,K1,16*%
%TO.N,GLV*%
X163240498Y-79167843D03*
%TD*%
D24*
%TO.P,C4,1*%
%TO.N,Net-(U3-VO)*%
X134129600Y-93243400D03*
%TO.P,C4,2*%
%TO.N,/TS-*%
X132054600Y-93243400D03*
%TD*%
D25*
%TO.P,D1,1,K*%
%TO.N,/TS+*%
X122809000Y-88087200D03*
%TO.P,D1,2,A*%
%TO.N,Net-(D1-A)*%
X125609000Y-88087200D03*
%TD*%
D13*
%TO.P,TP6,1,1*%
%TO.N,Net-(D1-A)*%
X134470498Y-84937843D03*
%TD*%
D26*
%TO.P,R5,1*%
%TO.N,Net-(U1-DISCH)*%
X180303998Y-98165843D03*
%TO.P,R5,2*%
%TO.N,/5V*%
X182128998Y-98165843D03*
%TD*%
D24*
%TO.P,C5,1*%
%TO.N,Net-(U2-VI)*%
X172093998Y-92323843D03*
%TO.P,C5,2*%
%TO.N,GLV*%
X170018998Y-92323843D03*
%TD*%
D13*
%TO.P,TP3,1,1*%
%TO.N,/RTM*%
X185720498Y-85687843D03*
%TD*%
D27*
%TO.P,R1,1*%
%TO.N,Net-(U1-THRES)*%
X181025800Y-102166300D03*
%TO.P,R1,2*%
%TO.N,Net-(U1-DISCH)*%
X181025800Y-100166300D03*
%TD*%
D18*
%TO.P,C6,1*%
%TO.N,/5V*%
X175882498Y-90059343D03*
%TO.P,C6,2*%
%TO.N,GLV*%
X175882498Y-87984343D03*
%TD*%
%TO.P,C1,1*%
%TO.N,GLV*%
X176225200Y-105333800D03*
%TO.P,C1,2*%
%TO.N,Net-(U1-THRES)*%
X176225200Y-103258800D03*
%TD*%
D13*
%TO.P,TP4,1,1*%
%TO.N,Net-(U2-VI)*%
X166497000Y-90170000D03*
%TD*%
D28*
%TO.P,U2,1,GND*%
%TO.N,GLV*%
X170597100Y-89881600D03*
D29*
%TO.P,U2,2,VI*%
%TO.N,Net-(U2-VI)*%
X172097100Y-89794100D03*
D28*
%TO.P,U2,3,VO*%
%TO.N,/5V*%
X173597100Y-89881600D03*
%TD*%
D30*
%TO.P,J2,1,Pin_1*%
%TO.N,/TSMP-*%
X148470498Y-113867843D03*
D15*
%TO.P,J2,2,Pin_2*%
%TO.N,/TSMP+*%
X145970498Y-113867843D03*
%TD*%
D31*
%TO.P,U3,1,GND*%
%TO.N,/TS-*%
X137072200Y-87831800D03*
D32*
%TO.P,U3,2,VI*%
%TO.N,Net-(D1-A)*%
X137159700Y-89331800D03*
D31*
%TO.P,U3,3,VO*%
%TO.N,Net-(U3-VO)*%
X137072200Y-90831800D03*
%TD*%
D33*
%TO.P,R3,1*%
%TO.N,Net-(U3-VO)*%
X150220498Y-96187843D03*
%TO.P,R3,2*%
%TO.N,Net-(R3-Pad2)*%
X152045498Y-96187843D03*
%TD*%
D13*
%TO.P,TP5,1,1*%
%TO.N,GLV*%
X190220498Y-99687843D03*
%TD*%
D34*
%TO.P,C3,1*%
%TO.N,Net-(D1-A)*%
X129794000Y-87938700D03*
%TO.P,C3,2*%
%TO.N,/TS-*%
X129794000Y-90013700D03*
%TD*%
D35*
%TO.P,D2,1,K*%
%TO.N,/IR Final*%
X166992498Y-68737843D03*
%TO.P,D2,2,A*%
%TO.N,GLV*%
X166992498Y-73237843D03*
%TD*%
D13*
%TO.P,TP7,1,1*%
%TO.N,Net-(U3-VO)*%
X141720498Y-96133843D03*
%TD*%
D36*
%TO.N,GLV*%
X168770498Y-92323843D03*
X177406498Y-87984343D03*
X177406498Y-105333800D03*
X165031541Y-99618800D03*
X172580498Y-97543800D03*
%TO.N,/5V*%
X169578003Y-100751348D03*
X168516498Y-103499843D03*
%TD*%
D37*
%TO.N,Net-(U1-THRES)*%
X168630600Y-102158800D02*
X171577000Y-102158800D01*
X178147720Y-103258800D02*
X179327720Y-102078800D01*
X176225200Y-103258800D02*
X178147720Y-103258800D01*
X175125200Y-102158800D02*
X176225200Y-103258800D01*
X179327720Y-102078800D02*
X181025800Y-102078800D01*
X167360600Y-100888800D02*
X168630600Y-102158800D01*
X171577000Y-102158800D02*
X175125200Y-102158800D01*
D38*
%TO.N,Net-(D1-A)*%
X125609000Y-88087200D02*
X129645500Y-88087200D01*
X138887200Y-89331800D02*
X137159700Y-89331800D01*
X138811000Y-85013800D02*
X139928600Y-86131400D01*
X129967900Y-87938700D02*
X132892800Y-85013800D01*
X132892800Y-85013800D02*
X138811000Y-85013800D01*
X139928600Y-86131400D02*
X139928600Y-88290400D01*
X139928600Y-88290400D02*
X138887200Y-89331800D01*
X129645500Y-88087200D02*
X129794000Y-87938700D01*
D37*
%TO.N,Net-(U1-DISCH)*%
X171577000Y-100888800D02*
X180390800Y-100888800D01*
X181025800Y-98887645D02*
X180303998Y-98165843D01*
X181025800Y-100166300D02*
X181025800Y-98887645D01*
X180390800Y-100888800D02*
X181025800Y-100253800D01*
%TO.N,Net-(U3-VO)*%
X135915400Y-93243400D02*
X134129600Y-93243400D01*
X134129600Y-94150000D02*
X136167443Y-96187843D01*
X136167443Y-96187843D02*
X150220498Y-96187843D01*
X137072200Y-90831800D02*
X137072200Y-92086600D01*
X137072200Y-92086600D02*
X135915400Y-93243400D01*
X134129600Y-94150000D02*
X134129600Y-93243400D01*
D38*
%TO.N,/TS+*%
X122809000Y-88087200D02*
X114176200Y-88087200D01*
X110246800Y-86908000D02*
X109296200Y-87858600D01*
X112997000Y-86908000D02*
X110246800Y-86908000D01*
X109296200Y-105713545D02*
X114770498Y-111187843D01*
X114176200Y-88087200D02*
X112997000Y-86908000D01*
X109296200Y-87858600D02*
X109296200Y-105713545D01*
%TO.N,/TSMP-*%
X148620498Y-107587843D02*
X143720498Y-102687843D01*
X148620498Y-113717843D02*
X148620498Y-107587843D01*
X143720498Y-102687843D02*
X137170498Y-102687843D01*
%TO.N,/TS-*%
X127749700Y-92058000D02*
X129794000Y-90013700D01*
D37*
X132054600Y-93243400D02*
X132054600Y-92274300D01*
X154025600Y-93649400D02*
X154025600Y-96875600D01*
D38*
X113157000Y-101074345D02*
X114770498Y-102687843D01*
X133579156Y-87831800D02*
X137072200Y-87831800D01*
D37*
X132054600Y-96951800D02*
X133731000Y-98628200D01*
X132054600Y-93243400D02*
X132054600Y-96951800D01*
X152273000Y-98628200D02*
X154025600Y-96875600D01*
X133731000Y-98628200D02*
X152273000Y-98628200D01*
X132054600Y-92274300D02*
X129794000Y-90013700D01*
D38*
X131397256Y-90013700D02*
X133579156Y-87831800D01*
X129794000Y-90013700D02*
X131397256Y-90013700D01*
D37*
X155473000Y-92202000D02*
X154025600Y-93649400D01*
D38*
X113157000Y-92068000D02*
X113157000Y-101074345D01*
X113147000Y-92058000D02*
X127749700Y-92058000D01*
%TO.N,/TSMP+*%
X139850498Y-113867843D02*
X145970498Y-113867843D01*
X137170498Y-111187843D02*
X139850498Y-113867843D01*
%TO.N,/Discharge-*%
X135220498Y-76687843D02*
X140640498Y-76687843D01*
X122487601Y-78708300D02*
X120672400Y-76893099D01*
X122487601Y-78708300D02*
X133200041Y-78708300D01*
X133200041Y-78708300D02*
X135220498Y-76687843D01*
X140640498Y-76687843D02*
X143140498Y-79187843D01*
X120672400Y-76893099D02*
X120672400Y-75123200D01*
%TO.N,/Discharge+*%
X123322400Y-74973200D02*
X144005855Y-74973200D01*
X144005855Y-74973200D02*
X148220498Y-79187843D01*
D37*
%TO.N,GLV*%
X166649400Y-98254941D02*
X166649400Y-99618800D01*
X168724400Y-97543800D02*
X173757955Y-97543800D01*
D38*
X163240498Y-79167843D02*
X163240498Y-74993843D01*
D37*
X180962498Y-90291843D02*
X183782550Y-93111895D01*
X183782550Y-93111895D02*
X183782550Y-102203791D01*
X168770498Y-97497702D02*
X168724400Y-97543800D01*
X180652541Y-105333800D02*
X176225200Y-105333800D01*
X181791741Y-108116600D02*
X168177250Y-108116600D01*
X170597100Y-91745741D02*
X170018998Y-92323843D01*
X170018998Y-92323843D02*
X168770498Y-92323843D01*
X168724400Y-97543800D02*
X167360541Y-97543800D01*
X183782550Y-102203791D02*
X180652541Y-105333800D01*
X167360541Y-97543800D02*
X166649400Y-98254941D01*
D38*
X164996498Y-73237843D02*
X166992498Y-73237843D01*
D37*
X164470498Y-100179843D02*
X165031541Y-99618800D01*
X180940998Y-87984343D02*
X175882498Y-87984343D01*
X168770498Y-92323843D02*
X168770498Y-97497702D01*
X170597100Y-89881600D02*
X170597100Y-91745741D01*
D38*
X179189873Y-72562843D02*
X181020400Y-74393370D01*
D37*
X180962498Y-74751702D02*
X180962498Y-88005843D01*
D38*
X167667498Y-72562843D02*
X179189873Y-72562843D01*
D37*
X180962498Y-88005843D02*
X180940998Y-87984343D01*
X180962498Y-88005843D02*
X180962498Y-90291843D01*
D38*
X166992498Y-73237843D02*
X167667498Y-72562843D01*
D37*
X164470498Y-104409848D02*
X164470498Y-100179843D01*
D38*
X163240498Y-74993843D02*
X164996498Y-73237843D01*
D37*
X190220498Y-99687843D02*
X181791741Y-108116600D01*
D38*
X181020400Y-74393370D02*
X181020400Y-74693800D01*
D37*
X168177250Y-108116600D02*
X164470498Y-104409848D01*
X165031541Y-99618800D02*
X166649400Y-99618800D01*
D38*
%TO.N,/IR Final*%
X180617800Y-69291200D02*
X186020400Y-74693800D01*
X163240498Y-71567843D02*
X164162498Y-71567843D01*
X164162498Y-71567843D02*
X166992498Y-68737843D01*
X171043600Y-69291200D02*
X180617800Y-69291200D01*
X166992498Y-68737843D02*
X170490243Y-68737843D01*
X170490243Y-68737843D02*
X171043600Y-69291200D01*
%TO.N,12v*%
X168366541Y-74693800D02*
X178520400Y-74693800D01*
X166230498Y-85204502D02*
X166230498Y-76829843D01*
X166230498Y-76829843D02*
X168366541Y-74693800D01*
X161773000Y-89662000D02*
X166230498Y-85204502D01*
D37*
%TO.N,/RTM*%
X185720498Y-84687843D02*
X183520400Y-82487745D01*
X165208800Y-102699400D02*
X165749400Y-102158800D01*
X183520400Y-82487745D02*
X183520400Y-74693800D01*
X165749400Y-102158800D02*
X166649400Y-102158800D01*
X165208800Y-104158200D02*
X165208800Y-102699400D01*
X180542550Y-107416600D02*
X185720498Y-102238652D01*
X185720498Y-85687843D02*
X185720498Y-84687843D01*
X168467200Y-107416600D02*
X180542550Y-107416600D01*
X185720498Y-102238652D02*
X185720498Y-85687843D01*
X168467200Y-107416600D02*
X165208800Y-104158200D01*
%TO.N,Net-(U2-VI)*%
X172097100Y-89794100D02*
X172097100Y-92320741D01*
X168385400Y-88281600D02*
X166497000Y-90170000D01*
X171107928Y-88281600D02*
X168385400Y-88281600D01*
X172097100Y-89270772D02*
X171107928Y-88281600D01*
X164465000Y-92202000D02*
X161773000Y-92202000D01*
X166497000Y-90170000D02*
X164465000Y-92202000D01*
X172097100Y-92320741D02*
X172093998Y-92323843D01*
%TO.N,Net-(R3-Pad2)*%
X152069800Y-90068400D02*
X152069800Y-96230770D01*
X152476200Y-89662000D02*
X152069800Y-90068400D01*
X155473000Y-89662000D02*
X152476200Y-89662000D01*
%TO.N,/5V*%
X175882498Y-91579898D02*
X178739800Y-94437200D01*
X168516498Y-103499843D02*
X166720443Y-103499843D01*
X169578003Y-100751348D02*
X170710551Y-99618800D01*
X166720443Y-103499843D02*
X166649400Y-103428800D01*
X170710551Y-99618800D02*
X171577000Y-99618800D01*
X175882498Y-90059343D02*
X175882498Y-91579898D01*
X176098200Y-99618800D02*
X171577000Y-99618800D01*
X175882498Y-91579898D02*
X182128998Y-97826398D01*
X173597100Y-89881600D02*
X175704755Y-89881600D01*
X178739800Y-94437200D02*
X178739800Y-96977200D01*
X178739800Y-96977200D02*
X176098200Y-99618800D01*
%TD*%
%TA.AperFunction,Conductor*%
%TO.N,Net-(U2-VI)*%
G36*
X175533239Y-76713985D02*
G01*
X175578994Y-76766789D01*
X175590200Y-76818300D01*
X175590200Y-85772343D01*
X175570515Y-85839382D01*
X175517711Y-85885137D01*
X175466200Y-85896343D01*
X175320106Y-85896343D01*
X175210955Y-85902473D01*
X175210954Y-85902473D01*
X175210943Y-85902474D01*
X174953175Y-85951246D01*
X174953165Y-85951249D01*
X174893741Y-85972042D01*
X174852787Y-85979000D01*
X168627600Y-85979000D01*
X168560561Y-85959315D01*
X168514806Y-85906511D01*
X168503600Y-85855000D01*
X168503600Y-77437237D01*
X168523285Y-77370198D01*
X168539919Y-77349556D01*
X169158856Y-76730619D01*
X169220179Y-76697134D01*
X169246537Y-76694300D01*
X175466200Y-76694300D01*
X175533239Y-76713985D01*
G37*
%TD.AperFunction*%
%TD*%
%TA.AperFunction,Conductor*%
%TO.N,Net-(D1-A)*%
G36*
X133450860Y-80707186D02*
G01*
X136115498Y-81677843D01*
X137833039Y-81680443D01*
X137848383Y-81681420D01*
X137903180Y-81688343D01*
X137903182Y-81688343D01*
X138217816Y-81688343D01*
X138267242Y-81682099D01*
X138282921Y-81681124D01*
X142604612Y-81687667D01*
X142671620Y-81707453D01*
X142691431Y-81723318D01*
X142720498Y-81751943D01*
X147926530Y-81672317D01*
X147943925Y-81673277D01*
X148063180Y-81688343D01*
X148377814Y-81688343D01*
X148377816Y-81688343D01*
X148377821Y-81688342D01*
X148377825Y-81688342D01*
X148405087Y-81684897D01*
X148577534Y-81663112D01*
X148591152Y-81662151D01*
X150055431Y-81639755D01*
X150122760Y-81658412D01*
X150169317Y-81710510D01*
X150181321Y-81762924D01*
X150255884Y-93088715D01*
X150236642Y-93155882D01*
X150184140Y-93201984D01*
X150133173Y-93213524D01*
X139380367Y-93325049D01*
X139313127Y-93306061D01*
X139266827Y-93253734D01*
X139255083Y-93201667D01*
X139250615Y-92295585D01*
X139269968Y-92228450D01*
X139286928Y-92207296D01*
X139310986Y-92183239D01*
X139467540Y-91969489D01*
X139589629Y-91734347D01*
X139674394Y-91483323D01*
X139719846Y-91222302D01*
X139722700Y-91162753D01*
X139722699Y-90500848D01*
X139719846Y-90441298D01*
X139674394Y-90180277D01*
X139589629Y-89929253D01*
X139498700Y-89754124D01*
X139467542Y-89694113D01*
X139310990Y-89480366D01*
X139310986Y-89480361D01*
X139272430Y-89441805D01*
X139238945Y-89380482D01*
X139236114Y-89354744D01*
X139235894Y-89310302D01*
X139255247Y-89243171D01*
X139272212Y-89222013D01*
X139272358Y-89221867D01*
X139310986Y-89183239D01*
X139467540Y-88969489D01*
X139589629Y-88734347D01*
X139674394Y-88483323D01*
X139719846Y-88222302D01*
X139722700Y-88162753D01*
X139722699Y-87500848D01*
X139719846Y-87441298D01*
X139674394Y-87180277D01*
X139589629Y-86929253D01*
X139504528Y-86765349D01*
X139467542Y-86694113D01*
X139310990Y-86480366D01*
X139310986Y-86480361D01*
X139257564Y-86426939D01*
X139224079Y-86365616D01*
X139221247Y-86339875D01*
X139220498Y-86187843D01*
X139020597Y-86187843D01*
X138953558Y-86168158D01*
X138947328Y-86163881D01*
X138909886Y-86136457D01*
X138674751Y-86014373D01*
X138674750Y-86014372D01*
X138674747Y-86014371D01*
X138423723Y-85929606D01*
X138162702Y-85884154D01*
X138151536Y-85883618D01*
X138103166Y-85881300D01*
X138103153Y-85881300D01*
X137538495Y-85881300D01*
X137506403Y-85877075D01*
X137504588Y-85876588D01*
X137463316Y-85865530D01*
X137419862Y-85859809D01*
X137203327Y-85831300D01*
X137203320Y-85831300D01*
X135906348Y-85831300D01*
X135839309Y-85811615D01*
X135793554Y-85758811D01*
X135783610Y-85689653D01*
X135792792Y-85657490D01*
X135894085Y-85426560D01*
X135955110Y-85185581D01*
X135955112Y-85185572D01*
X135975639Y-84937848D01*
X135975639Y-84937837D01*
X135955112Y-84690113D01*
X135955110Y-84690104D01*
X135894085Y-84449125D01*
X135794229Y-84221473D01*
X135693932Y-84067959D01*
X134953460Y-84808431D01*
X134936423Y-84744850D01*
X134870597Y-84630836D01*
X134777505Y-84537744D01*
X134663491Y-84471918D01*
X134599908Y-84454880D01*
X135340555Y-83714233D01*
X135340554Y-83714232D01*
X135293727Y-83677786D01*
X135075112Y-83559478D01*
X135075101Y-83559473D01*
X134839991Y-83478759D01*
X134594791Y-83437843D01*
X134346205Y-83437843D01*
X134101004Y-83478759D01*
X133865894Y-83559473D01*
X133865888Y-83559475D01*
X133647259Y-83677792D01*
X133600440Y-83714231D01*
X133600440Y-83714233D01*
X134341088Y-84454880D01*
X134277505Y-84471918D01*
X134163491Y-84537744D01*
X134070399Y-84630836D01*
X134004573Y-84744850D01*
X133987535Y-84808433D01*
X133247062Y-84067959D01*
X133146765Y-84221475D01*
X133046910Y-84449125D01*
X132985885Y-84690104D01*
X132985883Y-84690113D01*
X132965357Y-84937837D01*
X132965357Y-84937848D01*
X132985883Y-85185572D01*
X132985885Y-85185581D01*
X133046910Y-85426560D01*
X133146765Y-85654211D01*
X133176788Y-85700164D01*
X133196976Y-85767054D01*
X133177795Y-85834239D01*
X133125336Y-85880389D01*
X133105073Y-85887760D01*
X132948904Y-85929606D01*
X132948903Y-85929605D01*
X132934738Y-85933401D01*
X132934727Y-85933405D01*
X132692465Y-86033753D01*
X132692455Y-86033758D01*
X132465350Y-86164877D01*
X132462254Y-86166946D01*
X132395577Y-86187823D01*
X132393365Y-86187843D01*
X124193864Y-86187843D01*
X124130391Y-86170366D01*
X124070272Y-86134543D01*
X123838625Y-86044153D01*
X123838615Y-86044150D01*
X123595238Y-85993119D01*
X123595235Y-85993118D01*
X123491850Y-85986700D01*
X123491842Y-85986700D01*
X122126158Y-85986700D01*
X122126149Y-85986700D01*
X122022764Y-85993118D01*
X122022761Y-85993119D01*
X121779384Y-86044150D01*
X121779378Y-86044152D01*
X121720788Y-86067015D01*
X121692079Y-86078217D01*
X121647005Y-86086700D01*
X116343674Y-86086700D01*
X116276635Y-86067015D01*
X116230880Y-86014211D01*
X116219675Y-85963154D01*
X116200954Y-80852297D01*
X116220393Y-80785186D01*
X116273029Y-80739238D01*
X116324953Y-80727843D01*
X129200477Y-80727843D01*
X129200498Y-80727843D01*
X130058196Y-80708830D01*
X130060944Y-80708800D01*
X133331160Y-80708800D01*
X133331161Y-80708800D01*
X133392234Y-80700759D01*
X133450860Y-80707186D01*
G37*
%TD.AperFunction*%
%TD*%
M02*
