%TF.GenerationSoftware,KiCad,Pcbnew,8.0.5*%
%TF.CreationDate,2025-05-04T14:56:43-07:00*%
%TF.ProjectId,Discharge,44697363-6861-4726-9765-2e6b69636164,rev?*%
%TF.SameCoordinates,Original*%
%TF.FileFunction,Copper,L2,Bot*%
%TF.FilePolarity,Positive*%
%FSLAX46Y46*%
G04 Gerber Fmt 4.6, Leading zero omitted, Abs format (unit mm)*
G04 Created by KiCad (PCBNEW 8.0.5) date 2025-05-04 14:56:43*
%MOMM*%
%LPD*%
G01*
G04 APERTURE LIST*
G04 Aperture macros list*
%AMRoundRect*
0 Rectangle with rounded corners*
0 $1 Rounding radius*
0 $2 $3 $4 $5 $6 $7 $8 $9 X,Y pos of 4 corners*
0 Add a 4 corners polygon primitive as box body*
4,1,4,$2,$3,$4,$5,$6,$7,$8,$9,$2,$3,0*
0 Add four circle primitives for the rounded corners*
1,1,$1+$1,$2,$3*
1,1,$1+$1,$4,$5*
1,1,$1+$1,$6,$7*
1,1,$1+$1,$8,$9*
0 Add four rect primitives between the rounded corners*
20,1,$1+$1,$2,$3,$4,$5,0*
20,1,$1+$1,$4,$5,$6,$7,0*
20,1,$1+$1,$6,$7,$8,$9,0*
20,1,$1+$1,$8,$9,$2,$3,0*%
%AMFreePoly0*
4,1,22,0.945671,0.830970,1.026777,0.776777,1.080970,0.695671,1.100000,0.600000,1.100000,-0.600000,1.080970,-0.695671,1.026777,-0.776777,0.945671,-0.830970,0.850000,-0.850000,-0.450000,-0.850000,-0.545671,-0.830970,-0.626777,-0.776777,-1.026777,-0.376777,-1.080970,-0.295671,-1.100000,-0.200000,-1.100000,0.600000,-1.080970,0.695671,-1.026777,0.776777,-0.945671,0.830970,-0.850000,0.850000,
0.850000,0.850000,0.945671,0.830970,0.945671,0.830970,$1*%
G04 Aperture macros list end*
%TA.AperFunction,NonConductor*%
%ADD10C,0.200000*%
%TD*%
%TA.AperFunction,ComponentPad*%
%ADD11C,2.400000*%
%TD*%
%TA.AperFunction,ComponentPad*%
%ADD12O,2.400000X2.400000*%
%TD*%
%TA.AperFunction,ComponentPad*%
%ADD13C,2.000000*%
%TD*%
%TA.AperFunction,ComponentPad*%
%ADD14RoundRect,0.250000X0.600000X-0.850000X0.600000X0.850000X-0.600000X0.850000X-0.600000X-0.850000X0*%
%TD*%
%TA.AperFunction,ComponentPad*%
%ADD15O,1.700000X2.200000*%
%TD*%
%TA.AperFunction,ComponentPad*%
%ADD16FreePoly0,90.000000*%
%TD*%
%TA.AperFunction,ComponentPad*%
%ADD17FreePoly0,180.000000*%
%TD*%
%TA.AperFunction,ComponentPad*%
%ADD18O,2.200000X1.700000*%
%TD*%
%TA.AperFunction,ComponentPad*%
%ADD19R,1.400000X1.400000*%
%TD*%
%TA.AperFunction,ComponentPad*%
%ADD20C,1.400000*%
%TD*%
%TA.AperFunction,ComponentPad*%
%ADD21FreePoly0,270.000000*%
%TD*%
%TA.AperFunction,ViaPad*%
%ADD22C,0.600000*%
%TD*%
%TA.AperFunction,Conductor*%
%ADD23C,0.500000*%
%TD*%
G04 APERTURE END LIST*
D10*
X160970498Y-64728600D02*
X194187300Y-64728600D01*
X194187300Y-116437843D01*
X160970498Y-116437843D01*
X160970498Y-64728600D01*
D11*
%TO.P,R2,1*%
%TO.N,/TSMP+*%
X137170498Y-111187843D03*
D12*
%TO.P,R2,2*%
%TO.N,/TS+*%
X114770498Y-111187843D03*
%TD*%
D13*
%TO.P,TP1,1,1*%
%TO.N,/IR Final*%
X171043600Y-69291200D03*
%TD*%
D14*
%TO.P,J3,1,Pin_1*%
%TO.N,12v*%
X178520400Y-74693800D03*
D15*
%TO.P,J3,2,Pin_2*%
%TO.N,GLV*%
X181020400Y-74693800D03*
%TO.P,J3,3,Pin_3*%
%TO.N,/RTM*%
X183520400Y-74693800D03*
%TO.P,J3,4,Pin_4*%
%TO.N,/IR Final*%
X186020400Y-74693800D03*
%TD*%
D16*
%TO.P,J4,1,Pin_1*%
%TO.N,/Discharge-*%
X120822400Y-74973200D03*
D15*
%TO.P,J4,2,Pin_2*%
%TO.N,/Discharge+*%
X123322400Y-74973200D03*
%TD*%
D11*
%TO.P,R4,1*%
%TO.N,/TS-*%
X114770498Y-102687843D03*
D12*
%TO.P,R4,2*%
%TO.N,/TSMP-*%
X137170498Y-102687843D03*
%TD*%
D13*
%TO.P,TP2,1,1*%
%TO.N,/5V*%
X178739800Y-94437200D03*
%TD*%
D17*
%TO.P,J1,1,Pin_1*%
%TO.N,/TS-*%
X112997000Y-91908000D03*
D18*
%TO.P,J1,2,Pin_2*%
%TO.N,unconnected-(J1-Pin_2-Pad2)*%
X112997000Y-89408000D03*
%TO.P,J1,3,Pin_3*%
%TO.N,/TS+*%
X112997000Y-86908000D03*
%TD*%
D19*
%TO.P,K1,1*%
%TO.N,/IR Final*%
X163240498Y-71567843D03*
D13*
%TO.P,K1,4*%
%TO.N,unconnected-(K1-Pad4)*%
X148220498Y-71567843D03*
%TO.P,K1,6*%
%TO.N,unconnected-(K1-Pad6)*%
X143140498Y-71567843D03*
%TO.P,K1,8*%
%TO.N,unconnected-(K1-Pad8)*%
X138060498Y-71567843D03*
%TO.P,K1,9*%
%TO.N,unconnected-(K1-Pad9)*%
X138060498Y-79187843D03*
%TO.P,K1,11*%
%TO.N,/Discharge-*%
X143140498Y-79187843D03*
%TO.P,K1,13*%
%TO.N,/Discharge+*%
X148220498Y-79187843D03*
D20*
%TO.P,K1,16*%
%TO.N,GLV*%
X163240498Y-79167843D03*
%TD*%
D13*
%TO.P,TP6,1,1*%
%TO.N,Net-(D1-A)*%
X134470498Y-84937843D03*
%TD*%
%TO.P,TP3,1,1*%
%TO.N,/RTM*%
X185720498Y-85687843D03*
%TD*%
%TO.P,TP4,1,1*%
%TO.N,Net-(U2-VI)*%
X166497000Y-90170000D03*
%TD*%
D21*
%TO.P,J2,1,Pin_1*%
%TO.N,/TSMP-*%
X148470498Y-113867843D03*
D15*
%TO.P,J2,2,Pin_2*%
%TO.N,/TSMP+*%
X145970498Y-113867843D03*
%TD*%
D13*
%TO.P,TP5,1,1*%
%TO.N,GLV*%
X190220498Y-99687843D03*
%TD*%
%TO.P,TP7,1,1*%
%TO.N,Net-(U3-VO)*%
X141720498Y-96133843D03*
%TD*%
D22*
%TO.N,GLV*%
X168770498Y-92323843D03*
X177406498Y-87984343D03*
X177406498Y-105333800D03*
X165031541Y-99618800D03*
X172580498Y-97543800D03*
%TO.N,/5V*%
X169578003Y-100751348D03*
X168516498Y-103499843D03*
%TD*%
D23*
%TO.N,GLV*%
X190220498Y-99687843D02*
X181020400Y-90487745D01*
X181020400Y-90487745D02*
X181020400Y-74693800D01*
%TO.N,/5V*%
X169578003Y-100751348D02*
X169578003Y-102438338D01*
X169578003Y-102438338D02*
X168516498Y-103499843D01*
%TD*%
%TA.AperFunction,Conductor*%
%TO.N,GLV*%
G36*
X191107980Y-65348785D02*
G01*
X191153735Y-65401589D01*
X191163679Y-65470747D01*
X191134654Y-65534303D01*
X191075876Y-65572077D01*
X191057829Y-65575944D01*
X191036842Y-65578829D01*
X191036835Y-65578830D01*
X190829061Y-65637045D01*
X190760142Y-65656356D01*
X190760139Y-65656356D01*
X190760136Y-65656358D01*
X190760135Y-65656358D01*
X190496582Y-65770834D01*
X190251053Y-65920144D01*
X190028150Y-66101489D01*
X189832012Y-66311499D01*
X189666298Y-66546264D01*
X189534094Y-66801406D01*
X189437867Y-67072162D01*
X189437866Y-67072165D01*
X189379401Y-67353519D01*
X189359792Y-67640200D01*
X189379401Y-67926880D01*
X189437866Y-68208234D01*
X189437867Y-68208237D01*
X189534094Y-68478993D01*
X189534093Y-68478993D01*
X189666298Y-68734135D01*
X189832012Y-68968900D01*
X189901579Y-69043387D01*
X190028147Y-69178908D01*
X190251053Y-69360255D01*
X190454142Y-69483757D01*
X190496582Y-69509565D01*
X190683437Y-69590726D01*
X190760142Y-69624044D01*
X191036842Y-69701571D01*
X191287120Y-69735971D01*
X191321521Y-69740700D01*
X191321522Y-69740700D01*
X191608879Y-69740700D01*
X191639570Y-69736481D01*
X191893558Y-69701571D01*
X192170258Y-69624044D01*
X192283215Y-69574979D01*
X192433817Y-69509565D01*
X192433820Y-69509563D01*
X192433825Y-69509561D01*
X192679347Y-69360255D01*
X192902253Y-69178908D01*
X193098389Y-68968898D01*
X193264101Y-68734136D01*
X193352702Y-68563143D01*
X193401023Y-68512677D01*
X193468957Y-68496345D01*
X193534936Y-68519334D01*
X193578013Y-68574344D01*
X193586800Y-68620192D01*
X193586800Y-112329407D01*
X193567115Y-112396446D01*
X193514311Y-112442201D01*
X193445153Y-112452145D01*
X193381597Y-112423120D01*
X193352702Y-112386455D01*
X193264101Y-112215464D01*
X193098387Y-111980699D01*
X193019754Y-111896505D01*
X192902253Y-111770692D01*
X192679347Y-111589345D01*
X192679346Y-111589344D01*
X192433817Y-111440034D01*
X192170263Y-111325558D01*
X192170261Y-111325557D01*
X192170258Y-111325556D01*
X192040778Y-111289277D01*
X191893564Y-111248030D01*
X191893559Y-111248029D01*
X191893558Y-111248029D01*
X191751218Y-111228464D01*
X191608879Y-111208900D01*
X191608878Y-111208900D01*
X191321522Y-111208900D01*
X191321521Y-111208900D01*
X191036842Y-111248029D01*
X191036835Y-111248030D01*
X190829061Y-111306245D01*
X190760142Y-111325556D01*
X190760139Y-111325556D01*
X190760136Y-111325558D01*
X190760135Y-111325558D01*
X190496582Y-111440034D01*
X190251053Y-111589344D01*
X190028150Y-111770689D01*
X189832012Y-111980699D01*
X189666298Y-112215464D01*
X189534094Y-112470606D01*
X189437867Y-112741362D01*
X189437866Y-112741365D01*
X189379401Y-113022719D01*
X189359792Y-113309400D01*
X189379401Y-113596080D01*
X189437866Y-113877434D01*
X189437867Y-113877437D01*
X189534094Y-114148193D01*
X189534093Y-114148193D01*
X189666298Y-114403335D01*
X189832012Y-114638100D01*
X189917123Y-114729231D01*
X190028147Y-114848108D01*
X190112135Y-114916437D01*
X190251053Y-115029455D01*
X190496582Y-115178765D01*
X190683437Y-115259926D01*
X190760142Y-115293244D01*
X191036842Y-115370771D01*
X191287120Y-115405171D01*
X191321521Y-115409900D01*
X191321522Y-115409900D01*
X191608879Y-115409900D01*
X191639570Y-115405681D01*
X191893558Y-115370771D01*
X192170258Y-115293244D01*
X192283215Y-115244179D01*
X192433817Y-115178765D01*
X192433820Y-115178763D01*
X192433825Y-115178761D01*
X192679347Y-115029455D01*
X192902253Y-114848108D01*
X193098389Y-114638098D01*
X193264101Y-114403336D01*
X193352702Y-114232343D01*
X193401023Y-114181877D01*
X193468957Y-114165545D01*
X193534936Y-114188534D01*
X193578013Y-114243544D01*
X193586800Y-114289392D01*
X193586800Y-115713343D01*
X193567115Y-115780382D01*
X193514311Y-115826137D01*
X193462800Y-115837343D01*
X161694998Y-115837343D01*
X161627959Y-115817658D01*
X161582204Y-115764854D01*
X161570998Y-115713343D01*
X161570998Y-103499839D01*
X167710933Y-103499839D01*
X167710933Y-103499846D01*
X167731128Y-103679092D01*
X167731129Y-103679097D01*
X167790709Y-103849366D01*
X167792930Y-103852900D01*
X167886682Y-104002105D01*
X168014236Y-104129659D01*
X168166976Y-104225632D01*
X168337243Y-104285211D01*
X168337248Y-104285212D01*
X168516494Y-104305408D01*
X168516498Y-104305408D01*
X168516502Y-104305408D01*
X168695747Y-104285212D01*
X168695750Y-104285211D01*
X168695753Y-104285211D01*
X168866020Y-104225632D01*
X169018760Y-104129659D01*
X169146314Y-104002105D01*
X169242287Y-103849365D01*
X169242288Y-103849361D01*
X169245309Y-103843089D01*
X169247153Y-103843977D01*
X169269803Y-103807904D01*
X170160955Y-102916754D01*
X170210189Y-102843067D01*
X170243087Y-102793833D01*
X170299661Y-102657251D01*
X170328503Y-102512256D01*
X170328503Y-101051320D01*
X170335461Y-101010365D01*
X170355919Y-100951900D01*
X170363371Y-100930603D01*
X170383568Y-100751348D01*
X170363371Y-100572093D01*
X170303792Y-100401826D01*
X170207819Y-100249086D01*
X170080265Y-100121532D01*
X170026807Y-100087942D01*
X169927526Y-100025559D01*
X169757257Y-99965979D01*
X169757252Y-99965978D01*
X169578007Y-99945783D01*
X169577999Y-99945783D01*
X169398753Y-99965978D01*
X169398748Y-99965979D01*
X169228479Y-100025559D01*
X169075740Y-100121532D01*
X168948187Y-100249085D01*
X168852214Y-100401824D01*
X168792634Y-100572093D01*
X168792633Y-100572098D01*
X168772438Y-100751344D01*
X168772438Y-100751351D01*
X168792633Y-100930597D01*
X168792634Y-100930602D01*
X168820545Y-101010365D01*
X168827503Y-101051320D01*
X168827503Y-102076107D01*
X168807818Y-102143146D01*
X168791184Y-102163788D01*
X168208435Y-102746536D01*
X168172374Y-102769205D01*
X168173254Y-102771031D01*
X168166976Y-102774054D01*
X168014235Y-102870027D01*
X167886682Y-102997580D01*
X167790709Y-103150319D01*
X167731129Y-103320588D01*
X167731128Y-103320593D01*
X167710933Y-103499839D01*
X161570998Y-103499839D01*
X161570998Y-99687837D01*
X188715357Y-99687837D01*
X188715357Y-99687848D01*
X188735883Y-99935572D01*
X188735885Y-99935581D01*
X188796910Y-100176560D01*
X188896764Y-100404207D01*
X188997062Y-100557725D01*
X189737535Y-99817252D01*
X189754573Y-99880836D01*
X189820399Y-99994850D01*
X189913491Y-100087942D01*
X190027505Y-100153768D01*
X190091088Y-100170805D01*
X189350440Y-100911452D01*
X189397266Y-100947898D01*
X189397268Y-100947899D01*
X189615883Y-101066207D01*
X189615894Y-101066212D01*
X189851004Y-101146926D01*
X190096205Y-101187843D01*
X190344791Y-101187843D01*
X190589991Y-101146926D01*
X190825101Y-101066212D01*
X190825112Y-101066207D01*
X191043726Y-100947900D01*
X191043729Y-100947898D01*
X191090554Y-100911452D01*
X190349907Y-100170805D01*
X190413491Y-100153768D01*
X190527505Y-100087942D01*
X190620597Y-99994850D01*
X190686423Y-99880836D01*
X190703460Y-99817252D01*
X191443932Y-100557725D01*
X191544229Y-100404212D01*
X191644085Y-100176560D01*
X191705110Y-99935581D01*
X191705112Y-99935572D01*
X191725639Y-99687848D01*
X191725639Y-99687837D01*
X191705112Y-99440113D01*
X191705110Y-99440104D01*
X191644085Y-99199125D01*
X191544229Y-98971473D01*
X191443932Y-98817959D01*
X190703460Y-99558432D01*
X190686423Y-99494850D01*
X190620597Y-99380836D01*
X190527505Y-99287744D01*
X190413491Y-99221918D01*
X190349908Y-99204880D01*
X191090555Y-98464233D01*
X191090554Y-98464232D01*
X191043727Y-98427786D01*
X190825112Y-98309478D01*
X190825101Y-98309473D01*
X190589991Y-98228759D01*
X190344791Y-98187843D01*
X190096205Y-98187843D01*
X189851004Y-98228759D01*
X189615894Y-98309473D01*
X189615888Y-98309475D01*
X189397259Y-98427792D01*
X189350440Y-98464231D01*
X189350440Y-98464233D01*
X190091088Y-99204880D01*
X190027505Y-99221918D01*
X189913491Y-99287744D01*
X189820399Y-99380836D01*
X189754573Y-99494850D01*
X189737535Y-99558432D01*
X188997062Y-98817959D01*
X188896765Y-98971475D01*
X188796910Y-99199125D01*
X188735885Y-99440104D01*
X188735883Y-99440113D01*
X188715357Y-99687837D01*
X161570998Y-99687837D01*
X161570998Y-94437194D01*
X177234157Y-94437194D01*
X177234157Y-94437205D01*
X177254690Y-94685012D01*
X177254692Y-94685024D01*
X177315736Y-94926081D01*
X177415626Y-95153806D01*
X177551633Y-95361982D01*
X177551636Y-95361985D01*
X177720056Y-95544938D01*
X177916291Y-95697674D01*
X178134990Y-95816028D01*
X178370186Y-95896771D01*
X178615465Y-95937700D01*
X178864135Y-95937700D01*
X179109414Y-95896771D01*
X179344610Y-95816028D01*
X179563309Y-95697674D01*
X179759544Y-95544938D01*
X179927964Y-95361985D01*
X180063973Y-95153807D01*
X180163863Y-94926081D01*
X180224908Y-94685021D01*
X180245443Y-94437200D01*
X180224908Y-94189379D01*
X180163863Y-93948319D01*
X180063973Y-93720593D01*
X179927966Y-93512417D01*
X179906357Y-93488944D01*
X179759544Y-93329462D01*
X179563309Y-93176726D01*
X179563307Y-93176725D01*
X179563306Y-93176724D01*
X179344611Y-93058372D01*
X179344602Y-93058369D01*
X179109416Y-92977629D01*
X178864135Y-92936700D01*
X178615465Y-92936700D01*
X178370183Y-92977629D01*
X178134997Y-93058369D01*
X178134988Y-93058372D01*
X177916293Y-93176724D01*
X177720057Y-93329461D01*
X177551633Y-93512417D01*
X177415626Y-93720593D01*
X177315736Y-93948318D01*
X177254692Y-94189375D01*
X177254690Y-94189387D01*
X177234157Y-94437194D01*
X161570998Y-94437194D01*
X161570998Y-90169994D01*
X164991357Y-90169994D01*
X164991357Y-90170005D01*
X165011890Y-90417812D01*
X165011892Y-90417824D01*
X165072936Y-90658881D01*
X165172826Y-90886606D01*
X165308833Y-91094782D01*
X165308836Y-91094785D01*
X165477256Y-91277738D01*
X165673491Y-91430474D01*
X165892190Y-91548828D01*
X166127386Y-91629571D01*
X166372665Y-91670500D01*
X166621335Y-91670500D01*
X166866614Y-91629571D01*
X167101810Y-91548828D01*
X167320509Y-91430474D01*
X167516744Y-91277738D01*
X167685164Y-91094785D01*
X167821173Y-90886607D01*
X167921063Y-90658881D01*
X167982108Y-90417821D01*
X168002643Y-90170000D01*
X167982108Y-89922179D01*
X167921063Y-89681119D01*
X167821173Y-89453393D01*
X167685166Y-89245217D01*
X167663557Y-89221744D01*
X167516744Y-89062262D01*
X167320509Y-88909526D01*
X167320507Y-88909525D01*
X167320506Y-88909524D01*
X167101811Y-88791172D01*
X167101802Y-88791169D01*
X166866616Y-88710429D01*
X166621335Y-88669500D01*
X166372665Y-88669500D01*
X166127383Y-88710429D01*
X165892197Y-88791169D01*
X165892188Y-88791172D01*
X165673493Y-88909524D01*
X165477257Y-89062261D01*
X165308833Y-89245217D01*
X165172826Y-89453393D01*
X165072936Y-89681118D01*
X165011892Y-89922175D01*
X165011890Y-89922187D01*
X164991357Y-90169994D01*
X161570998Y-90169994D01*
X161570998Y-85687837D01*
X184214855Y-85687837D01*
X184214855Y-85687848D01*
X184235388Y-85935655D01*
X184235390Y-85935667D01*
X184296434Y-86176724D01*
X184396324Y-86404449D01*
X184532331Y-86612625D01*
X184532334Y-86612628D01*
X184700754Y-86795581D01*
X184896989Y-86948317D01*
X185115688Y-87066671D01*
X185350884Y-87147414D01*
X185596163Y-87188343D01*
X185844833Y-87188343D01*
X186090112Y-87147414D01*
X186325308Y-87066671D01*
X186544007Y-86948317D01*
X186740242Y-86795581D01*
X186908662Y-86612628D01*
X187044671Y-86404450D01*
X187144561Y-86176724D01*
X187205606Y-85935664D01*
X187205607Y-85935655D01*
X187226141Y-85687848D01*
X187226141Y-85687837D01*
X187205607Y-85440030D01*
X187205605Y-85440018D01*
X187144561Y-85198961D01*
X187044671Y-84971236D01*
X186908664Y-84763060D01*
X186822267Y-84669208D01*
X186740242Y-84580105D01*
X186544007Y-84427369D01*
X186544005Y-84427368D01*
X186544004Y-84427367D01*
X186325309Y-84309015D01*
X186325300Y-84309012D01*
X186090114Y-84228272D01*
X185844833Y-84187343D01*
X185596163Y-84187343D01*
X185350881Y-84228272D01*
X185115695Y-84309012D01*
X185115686Y-84309015D01*
X184896991Y-84427367D01*
X184700755Y-84580104D01*
X184532331Y-84763060D01*
X184396324Y-84971236D01*
X184296434Y-85198961D01*
X184235390Y-85440018D01*
X184235388Y-85440030D01*
X184214855Y-85687837D01*
X161570998Y-85687837D01*
X161570998Y-80174722D01*
X162587170Y-80174722D01*
X162587170Y-80174723D01*
X162703319Y-80246640D01*
X162703320Y-80246641D01*
X162910693Y-80326977D01*
X163129305Y-80367843D01*
X163351691Y-80367843D01*
X163570307Y-80326976D01*
X163777666Y-80246644D01*
X163777679Y-80246638D01*
X163893824Y-80174722D01*
X163240499Y-79521396D01*
X163240498Y-79521396D01*
X162587170Y-80174722D01*
X161570998Y-80174722D01*
X161570998Y-79167842D01*
X162035357Y-79167842D01*
X162035357Y-79167843D01*
X162055876Y-79389282D01*
X162116738Y-79603193D01*
X162215867Y-79802271D01*
X162231635Y-79823151D01*
X162231636Y-79823151D01*
X162886945Y-79167843D01*
X162840867Y-79121765D01*
X162890498Y-79121765D01*
X162890498Y-79213921D01*
X162914350Y-79302938D01*
X162960428Y-79382748D01*
X163025593Y-79447913D01*
X163105403Y-79493991D01*
X163194420Y-79517843D01*
X163286576Y-79517843D01*
X163375593Y-79493991D01*
X163455403Y-79447913D01*
X163520568Y-79382748D01*
X163566646Y-79302938D01*
X163590498Y-79213921D01*
X163590498Y-79167842D01*
X163594051Y-79167842D01*
X163594051Y-79167843D01*
X164249359Y-79823151D01*
X164265129Y-79802268D01*
X164265131Y-79802265D01*
X164364257Y-79603193D01*
X164425119Y-79389282D01*
X164445639Y-79167843D01*
X164445639Y-79167842D01*
X164425119Y-78946403D01*
X164364257Y-78732492D01*
X164265133Y-78533423D01*
X164265128Y-78533415D01*
X164249358Y-78512533D01*
X163594051Y-79167842D01*
X163590498Y-79167842D01*
X163590498Y-79121765D01*
X163566646Y-79032748D01*
X163520568Y-78952938D01*
X163455403Y-78887773D01*
X163375593Y-78841695D01*
X163286576Y-78817843D01*
X163194420Y-78817843D01*
X163105403Y-78841695D01*
X163025593Y-78887773D01*
X162960428Y-78952938D01*
X162914350Y-79032748D01*
X162890498Y-79121765D01*
X162840867Y-79121765D01*
X162231636Y-78512534D01*
X162231635Y-78512534D01*
X162215866Y-78533417D01*
X162116738Y-78732492D01*
X162055876Y-78946403D01*
X162035357Y-79167842D01*
X161570998Y-79167842D01*
X161570998Y-78160962D01*
X162587169Y-78160962D01*
X163240498Y-78814290D01*
X163240499Y-78814290D01*
X163893825Y-78160962D01*
X163777676Y-78089045D01*
X163777675Y-78089044D01*
X163570302Y-78008708D01*
X163351691Y-77967843D01*
X163129305Y-77967843D01*
X162910693Y-78008708D01*
X162703322Y-78089043D01*
X162703321Y-78089044D01*
X162587169Y-78160962D01*
X161570998Y-78160962D01*
X161570998Y-73793783D01*
X177169900Y-73793783D01*
X177169900Y-75593801D01*
X177169901Y-75593818D01*
X177180400Y-75696596D01*
X177180401Y-75696599D01*
X177205100Y-75771134D01*
X177235586Y-75863134D01*
X177327688Y-76012456D01*
X177451744Y-76136512D01*
X177601066Y-76228614D01*
X177767603Y-76283799D01*
X177870391Y-76294300D01*
X179170408Y-76294299D01*
X179273197Y-76283799D01*
X179439734Y-76228614D01*
X179589056Y-76136512D01*
X179713112Y-76012456D01*
X179805214Y-75863134D01*
X179805214Y-75863131D01*
X179808848Y-75857241D01*
X179860795Y-75810516D01*
X179929758Y-75799293D01*
X179993840Y-75827136D01*
X180002068Y-75834656D01*
X180140935Y-75973523D01*
X180140940Y-75973527D01*
X180312842Y-76098420D01*
X180502182Y-76194895D01*
X180704271Y-76260557D01*
X180770400Y-76271031D01*
X180770400Y-75242282D01*
X180788809Y-75252911D01*
X180941409Y-75293800D01*
X181099391Y-75293800D01*
X181251991Y-75252911D01*
X181270400Y-75242282D01*
X181270400Y-76271030D01*
X181289811Y-76267956D01*
X181359104Y-76276910D01*
X181412557Y-76321906D01*
X181423771Y-76342977D01*
X181472383Y-76460340D01*
X181472390Y-76460353D01*
X181570935Y-76607834D01*
X181570938Y-76607838D01*
X181696361Y-76733261D01*
X181696365Y-76733264D01*
X181843846Y-76831809D01*
X181843859Y-76831816D01*
X181966763Y-76882723D01*
X182007734Y-76899694D01*
X182007736Y-76899694D01*
X182007741Y-76899696D01*
X182181704Y-76934299D01*
X182181707Y-76934300D01*
X182181709Y-76934300D01*
X182359093Y-76934300D01*
X182359094Y-76934299D01*
X182417082Y-76922764D01*
X182533058Y-76899696D01*
X182533061Y-76899694D01*
X182533066Y-76899694D01*
X182696947Y-76831813D01*
X182844435Y-76733264D01*
X182969864Y-76607835D01*
X183068413Y-76460347D01*
X183116832Y-76343453D01*
X183160673Y-76289049D01*
X183226967Y-76266984D01*
X183250789Y-76268431D01*
X183414113Y-76294300D01*
X183414114Y-76294300D01*
X183626686Y-76294300D01*
X183626687Y-76294300D01*
X183836643Y-76261046D01*
X184038812Y-76195357D01*
X184228216Y-76098851D01*
X184250189Y-76082886D01*
X184400186Y-75973909D01*
X184400188Y-75973906D01*
X184400192Y-75973904D01*
X184550504Y-75823592D01*
X184670083Y-75659004D01*
X184725411Y-75616340D01*
X184795024Y-75610361D01*
X184856820Y-75642966D01*
X184870713Y-75658999D01*
X184972642Y-75799293D01*
X184990296Y-75823592D01*
X185140613Y-75973909D01*
X185312579Y-76098848D01*
X185312581Y-76098849D01*
X185312584Y-76098851D01*
X185501988Y-76195357D01*
X185704157Y-76261046D01*
X185914113Y-76294300D01*
X185914114Y-76294300D01*
X186126686Y-76294300D01*
X186126687Y-76294300D01*
X186336643Y-76261046D01*
X186538812Y-76195357D01*
X186728216Y-76098851D01*
X186750189Y-76082886D01*
X186900186Y-75973909D01*
X186900188Y-75973906D01*
X186900192Y-75973904D01*
X187050504Y-75823592D01*
X187050506Y-75823588D01*
X187050509Y-75823586D01*
X187175448Y-75651620D01*
X187175447Y-75651620D01*
X187175451Y-75651616D01*
X187271957Y-75462212D01*
X187337646Y-75260043D01*
X187370900Y-75050087D01*
X187370900Y-74337513D01*
X187337646Y-74127557D01*
X187271957Y-73925388D01*
X187175451Y-73735984D01*
X187175449Y-73735981D01*
X187175448Y-73735979D01*
X187050509Y-73564013D01*
X186900186Y-73413690D01*
X186728220Y-73288751D01*
X186538814Y-73192244D01*
X186538813Y-73192243D01*
X186538812Y-73192243D01*
X186336643Y-73126554D01*
X186336641Y-73126553D01*
X186336640Y-73126553D01*
X186175357Y-73101008D01*
X186126687Y-73093300D01*
X185914113Y-73093300D01*
X185865442Y-73101008D01*
X185704160Y-73126553D01*
X185501985Y-73192244D01*
X185312579Y-73288751D01*
X185140613Y-73413690D01*
X184990294Y-73564009D01*
X184990290Y-73564014D01*
X184870718Y-73728593D01*
X184815389Y-73771259D01*
X184745775Y-73777238D01*
X184683980Y-73744633D01*
X184670082Y-73728593D01*
X184550509Y-73564014D01*
X184550505Y-73564009D01*
X184400186Y-73413690D01*
X184228220Y-73288751D01*
X184038814Y-73192244D01*
X184038813Y-73192243D01*
X184038812Y-73192243D01*
X183836643Y-73126554D01*
X183836641Y-73126553D01*
X183836640Y-73126553D01*
X183675357Y-73101008D01*
X183626687Y-73093300D01*
X183414113Y-73093300D01*
X183365442Y-73101008D01*
X183204160Y-73126553D01*
X183001985Y-73192244D01*
X182812579Y-73288751D01*
X182640613Y-73413690D01*
X182490294Y-73564009D01*
X182490290Y-73564014D01*
X182370408Y-73729018D01*
X182315078Y-73771684D01*
X182245465Y-73777663D01*
X182183670Y-73745057D01*
X182169772Y-73729018D01*
X182050127Y-73564340D01*
X182050123Y-73564335D01*
X181899864Y-73414076D01*
X181899859Y-73414072D01*
X181727957Y-73289179D01*
X181538615Y-73192703D01*
X181336524Y-73127041D01*
X181270400Y-73116568D01*
X181270400Y-74145317D01*
X181251991Y-74134689D01*
X181099391Y-74093800D01*
X180941409Y-74093800D01*
X180788809Y-74134689D01*
X180770400Y-74145317D01*
X180770400Y-73116568D01*
X180770399Y-73116568D01*
X180704275Y-73127041D01*
X180502184Y-73192703D01*
X180312842Y-73289179D01*
X180140941Y-73414071D01*
X180002068Y-73552944D01*
X179940745Y-73586428D01*
X179871053Y-73581444D01*
X179815120Y-73539572D01*
X179808848Y-73530358D01*
X179713112Y-73375144D01*
X179589057Y-73251089D01*
X179589056Y-73251088D01*
X179439734Y-73158986D01*
X179273197Y-73103801D01*
X179273195Y-73103800D01*
X179170410Y-73093300D01*
X177870398Y-73093300D01*
X177870381Y-73093301D01*
X177767603Y-73103800D01*
X177767600Y-73103801D01*
X177601068Y-73158985D01*
X177601063Y-73158987D01*
X177451742Y-73251089D01*
X177327689Y-73375142D01*
X177235587Y-73524463D01*
X177235585Y-73524468D01*
X177230580Y-73539572D01*
X177180401Y-73691003D01*
X177180401Y-73691004D01*
X177180400Y-73691004D01*
X177169900Y-73793783D01*
X161570998Y-73793783D01*
X161570998Y-70819978D01*
X162039998Y-70819978D01*
X162039998Y-72315713D01*
X162039999Y-72315719D01*
X162046406Y-72375326D01*
X162096700Y-72510171D01*
X162096704Y-72510178D01*
X162182950Y-72625387D01*
X162182953Y-72625390D01*
X162298162Y-72711636D01*
X162298169Y-72711640D01*
X162433015Y-72761934D01*
X162433014Y-72761934D01*
X162439942Y-72762678D01*
X162492625Y-72768343D01*
X163988370Y-72768342D01*
X164047981Y-72761934D01*
X164182829Y-72711639D01*
X164298044Y-72625389D01*
X164384294Y-72510174D01*
X164434589Y-72375326D01*
X164440998Y-72315716D01*
X164440997Y-70819971D01*
X164434589Y-70760360D01*
X164431012Y-70750770D01*
X164384295Y-70625514D01*
X164384291Y-70625507D01*
X164298045Y-70510298D01*
X164298042Y-70510295D01*
X164182833Y-70424049D01*
X164182826Y-70424045D01*
X164047980Y-70373751D01*
X164047981Y-70373751D01*
X163988381Y-70367344D01*
X163988379Y-70367343D01*
X163988371Y-70367343D01*
X163988362Y-70367343D01*
X162492627Y-70367343D01*
X162492621Y-70367344D01*
X162433014Y-70373751D01*
X162298169Y-70424045D01*
X162298162Y-70424049D01*
X162182953Y-70510295D01*
X162182950Y-70510298D01*
X162096704Y-70625507D01*
X162096700Y-70625514D01*
X162046406Y-70760360D01*
X162043037Y-70791700D01*
X162039999Y-70819966D01*
X162039998Y-70819978D01*
X161570998Y-70819978D01*
X161570998Y-69291194D01*
X169537957Y-69291194D01*
X169537957Y-69291205D01*
X169558490Y-69539012D01*
X169558492Y-69539024D01*
X169619536Y-69780081D01*
X169719426Y-70007806D01*
X169855433Y-70215982D01*
X169855436Y-70215985D01*
X170023856Y-70398938D01*
X170220091Y-70551674D01*
X170438790Y-70670028D01*
X170673986Y-70750771D01*
X170919265Y-70791700D01*
X171167935Y-70791700D01*
X171413214Y-70750771D01*
X171648410Y-70670028D01*
X171867109Y-70551674D01*
X172063344Y-70398938D01*
X172231764Y-70215985D01*
X172367773Y-70007807D01*
X172467663Y-69780081D01*
X172528708Y-69539021D01*
X172531149Y-69509561D01*
X172549243Y-69291205D01*
X172549243Y-69291194D01*
X172528709Y-69043387D01*
X172528707Y-69043375D01*
X172467663Y-68802318D01*
X172367773Y-68574593D01*
X172231766Y-68366417D01*
X172210157Y-68342944D01*
X172063344Y-68183462D01*
X171867109Y-68030726D01*
X171867107Y-68030725D01*
X171867106Y-68030724D01*
X171648411Y-67912372D01*
X171648402Y-67912369D01*
X171413216Y-67831629D01*
X171167935Y-67790700D01*
X170919265Y-67790700D01*
X170673983Y-67831629D01*
X170438797Y-67912369D01*
X170438788Y-67912372D01*
X170220093Y-68030724D01*
X170023857Y-68183461D01*
X169855433Y-68366417D01*
X169719426Y-68574593D01*
X169619536Y-68802318D01*
X169558492Y-69043375D01*
X169558490Y-69043387D01*
X169537957Y-69291194D01*
X161570998Y-69291194D01*
X161570998Y-65453100D01*
X161590683Y-65386061D01*
X161643487Y-65340306D01*
X161694998Y-65329100D01*
X191040941Y-65329100D01*
X191107980Y-65348785D01*
G37*
%TD.AperFunction*%
%TD*%
M02*
