M48
; DRILL file {KiCad 8.0.4} date 2025-02-24T12:53:39-0800
; FORMAT={-:-/ absolute / inch / decimal}
; #@! TF.CreationDate,2025-02-24T12:53:39-08:00
; #@! TF.GenerationSoftware,Kicad,Pcbnew,8.0.4
; #@! TF.FileFunction,Plated,1,2,PTH
FMAT,2
INCH
; #@! TA.AperFunction,Plated,PTH,ViaDrill
T1C0.0118
; #@! TA.AperFunction,Plated,PTH,ComponentDrill
T2C0.0315
; #@! TA.AperFunction,Plated,PTH,ComponentDrill
T3C0.0394
; #@! TA.AperFunction,Plated,PTH,ComponentDrill
T4C0.0402
; #@! TA.AperFunction,Plated,PTH,ComponentDrill
T5C0.0430
; #@! TA.AperFunction,Plated,PTH,ComponentDrill
T6C0.0433
; #@! TA.AperFunction,Plated,PTH,ComponentDrill
T7C0.0450
; #@! TA.AperFunction,Plated,PTH,ComponentDrill
T8C0.0472
; #@! TA.AperFunction,Plated,PTH,ComponentDrill
T9C0.0512
%
G90
G05
T1
X0.925Y-3.225
X1.125Y-2.025
X1.225Y-2.075
X1.25Y-2.275
X1.275Y-3.225
X1.325Y-3.1
X1.37Y-2.92
X1.375Y-2.825
X1.425Y-2.825
X1.43Y-2.92
X1.5Y-3.05
X1.525Y-3.225
X1.525Y-3.625
X1.55Y-2.525
X1.55Y-3.075
X1.55Y-3.525
X1.6Y-3.025
X1.775Y-3.15
X1.802Y-1.548
X1.8026Y-2.8276
X1.825Y-1.825
X1.85Y-1.15
X1.85Y-3.525
X1.875Y-2.425
X1.875Y-2.65
X1.9Y-3.05
X1.925Y-1.225
X1.925Y-2.55
X1.95Y-2.625
X1.95Y-2.725
X1.975Y-3.15
X2.0Y-1.3
X2.0Y-1.575
X2.075Y-3.125
X2.1Y-2.0
X2.1Y-2.35
X2.1Y-3.5
X2.125Y-2.05
X2.15Y-2.675
X2.15Y-3.125
X2.175Y-1.4
X2.175Y-2.85
X2.175Y-3.5
X2.2Y-3.1
X2.2Y-3.425
X2.3Y-2.05
X2.308Y-3.267
X2.325Y-3.6
X2.35Y-1.425
X2.425Y-3.025
X2.525Y-1.55
X2.55Y-3.075
X2.625Y-1.125
X2.625Y-1.325
X2.7Y-2.85
X2.7556Y-2.3306
X2.8Y-2.375
X2.85Y-1.5
X2.975Y-2.5
X3.0Y-2.2
X3.0Y-3.025
X3.025Y-1.325
X3.05Y-2.0
X3.125Y-1.275
X3.125Y-1.4
X3.1542Y-1.9958
X3.2Y-1.38
X3.2Y-1.425
X3.225Y-1.85
X3.2342Y-1.6592
X3.25Y-1.225
X3.275Y-2.3
X3.275Y-2.425
X3.275Y-2.5
X3.375Y-1.6
X3.375Y-2.85
X3.375Y-3.075
X3.45Y-2.325
X3.5Y-2.375
X3.625Y-0.95
X3.675Y-2.1
X3.8Y-3.05
X3.875Y-1.65
X3.9Y-1.75
X3.9Y-1.975
X3.9Y-2.5
X4.675Y-4.25
X4.8Y-4.3
X4.8681Y-4.2561
X4.91Y-4.15
X4.95Y-4.15
X5.0Y-4.125
X5.025Y-3.9
X5.225Y-4.025
T2
X2.7246Y-1.4246
X2.7246Y-1.5246
X2.7246Y-1.6246
X2.7246Y-1.7246
X3.0246Y-1.4246
X3.0246Y-1.5246
X3.0246Y-1.6246
X3.0246Y-1.7246
T3
X3.7843Y-1.1059
X3.7843Y-1.4012
X5.4Y-3.125
X5.775Y-3.15
T4
X1.025Y-1.525
X1.025Y-1.625
X1.025Y-1.725
X1.025Y-1.825
X1.025Y-1.925
X1.025Y-2.025
X1.025Y-2.125
X1.025Y-2.225
X1.025Y-2.325
X1.025Y-2.425
X1.025Y-2.525
X1.025Y-2.625
X1.025Y-2.725
X1.025Y-2.825
X1.025Y-2.925
X1.625Y-1.525
X1.625Y-1.625
X1.625Y-1.725
X1.625Y-1.825
X1.625Y-1.925
X1.625Y-2.025
X1.625Y-2.125
X1.625Y-2.225
X1.625Y-2.325
X1.625Y-2.425
X1.625Y-2.525
X1.625Y-2.625
X1.625Y-2.725
X1.625Y-2.825
X1.625Y-2.925
T5
X2.375Y-2.4815
X2.375Y-2.5815
X2.675Y-1.8815
X2.675Y-2.1815
X2.675Y-2.4815
X2.675Y-2.5815
T6
X1.475Y-3.8116
X1.475Y-3.9116
X1.475Y-4.0116
X1.7622Y-3.8116
X1.7622Y-3.9116
X1.7622Y-4.0116
T7
X1.8Y-1.925
X1.8Y-2.225
X1.8Y-2.625
X2.2Y-1.925
X2.2Y-2.225
X2.2Y-2.625
X2.7995Y-2.45
X2.7995Y-2.85
X3.0995Y-2.45
X3.0995Y-2.85
X3.4995Y-2.45
X3.4995Y-2.85
T8
X1.0266Y-3.275
X1.0266Y-3.3734
X1.0266Y-3.4719
X1.0266Y-3.5703
X1.0266Y-3.6687
X1.0266Y-3.7671
X1.0266Y-3.8656
X1.0266Y-3.964
X1.125Y-3.275
X1.125Y-3.3734
X1.125Y-3.4719
X1.125Y-3.5703
X1.125Y-3.6687
X1.125Y-3.7671
X1.125Y-3.8656
X1.125Y-3.964
X1.8524Y-1.0187
X1.9508Y-1.0187
X2.0492Y-1.0187
X2.1476Y-1.0187
X2.2289Y-3.8238
X2.2289Y-3.9222
X2.3274Y-3.8238
X2.3274Y-3.9222
X2.4008Y-1.0187
X2.4258Y-3.8238
X2.4258Y-3.9222
X2.4992Y-1.0187
X2.5242Y-3.8238
X2.5242Y-3.9222
X2.6226Y-3.8238
X2.6226Y-3.9222
X2.7211Y-3.8238
X2.7211Y-3.9222
X2.7524Y-1.0187
X2.8508Y-1.0187
X2.9492Y-1.0187
X3.0476Y-1.0187
X3.3008Y-1.0187
X3.3992Y-1.0187
X3.4976Y-1.0187
X4.8508Y-1.1
X4.9492Y-1.1
X5.1758Y-0.9937
X5.2742Y-0.9937
X5.6187Y-2.9008
X5.6187Y-2.9992
X5.6508Y-1.375
X5.7492Y-1.375
T9
X4.4339Y-1.4012
X4.5717Y-1.1059
M30
