%TF.GenerationSoftware,KiCad,Pcbnew,8.0.3*%
%TF.CreationDate,2025-03-11T00:39:16-07:00*%
%TF.ProjectId,Accumulator_Board,41636375-6d75-46c6-9174-6f725f426f61,3.2*%
%TF.SameCoordinates,Original*%
%TF.FileFunction,Soldermask,Top*%
%TF.FilePolarity,Negative*%
%FSLAX46Y46*%
G04 Gerber Fmt 4.6, Leading zero omitted, Abs format (unit mm)*
G04 Created by KiCad (PCBNEW 8.0.3) date 2025-03-11 00:39:16*
%MOMM*%
%LPD*%
G01*
G04 APERTURE LIST*
G04 Aperture macros list*
%AMRoundRect*
0 Rectangle with rounded corners*
0 $1 Rounding radius*
0 $2 $3 $4 $5 $6 $7 $8 $9 X,Y pos of 4 corners*
0 Add a 4 corners polygon primitive as box body*
4,1,4,$2,$3,$4,$5,$6,$7,$8,$9,$2,$3,0*
0 Add four circle primitives for the rounded corners*
1,1,$1+$1,$2,$3*
1,1,$1+$1,$4,$5*
1,1,$1+$1,$6,$7*
1,1,$1+$1,$8,$9*
0 Add four rect primitives between the rounded corners*
20,1,$1+$1,$2,$3,$4,$5,0*
20,1,$1+$1,$4,$5,$6,$7,0*
20,1,$1+$1,$6,$7,$8,$9,0*
20,1,$1+$1,$8,$9,$2,$3,0*%
%AMFreePoly0*
4,1,22,0.945671,0.830970,1.026777,0.776777,1.080970,0.695671,1.100000,0.600000,1.100000,-0.600000,1.080970,-0.695671,1.026777,-0.776777,0.945671,-0.830970,0.850000,-0.850000,-0.450000,-0.850000,-0.545671,-0.830970,-0.626777,-0.776777,-1.026777,-0.376777,-1.080970,-0.295671,-1.100000,-0.200000,-1.100000,0.600000,-1.080970,0.695671,-1.026777,0.776777,-0.945671,0.830970,-0.850000,0.850000,
0.850000,0.850000,0.945671,0.830970,0.945671,0.830970,$1*%
G04 Aperture macros list end*
%ADD10C,0.000000*%
%ADD11C,1.300000*%
%ADD12RoundRect,0.250000X0.600000X0.600000X-0.600000X0.600000X-0.600000X-0.600000X0.600000X-0.600000X0*%
%ADD13C,1.700000*%
%ADD14RoundRect,0.249999X-0.512501X-1.075001X0.512501X-1.075001X0.512501X1.075001X-0.512501X1.075001X0*%
%ADD15RoundRect,0.250000X0.450000X-0.350000X0.450000X0.350000X-0.450000X0.350000X-0.450000X-0.350000X0*%
%ADD16RoundRect,0.102000X-0.765000X-0.765000X0.765000X-0.765000X0.765000X0.765000X-0.765000X0.765000X0*%
%ADD17C,1.734000*%
%ADD18FreePoly0,180.000000*%
%ADD19O,2.200000X1.700000*%
%ADD20RoundRect,0.250000X0.350000X0.450000X-0.350000X0.450000X-0.350000X-0.450000X0.350000X-0.450000X0*%
%ADD21RoundRect,0.250000X0.337500X0.475000X-0.337500X0.475000X-0.337500X-0.475000X0.337500X-0.475000X0*%
%ADD22RoundRect,0.250000X-0.350000X-0.450000X0.350000X-0.450000X0.350000X0.450000X-0.350000X0.450000X0*%
%ADD23RoundRect,0.150000X-0.150000X0.825000X-0.150000X-0.825000X0.150000X-0.825000X0.150000X0.825000X0*%
%ADD24C,2.000000*%
%ADD25RoundRect,0.249999X0.512501X1.075001X-0.512501X1.075001X-0.512501X-1.075001X0.512501X-1.075001X0*%
%ADD26RoundRect,0.250000X-0.450000X0.350000X-0.450000X-0.350000X0.450000X-0.350000X0.450000X0.350000X0*%
%ADD27RoundRect,0.249999X1.075001X-0.512501X1.075001X0.512501X-1.075001X0.512501X-1.075001X-0.512501X0*%
%ADD28RoundRect,0.250000X0.600000X-0.850000X0.600000X0.850000X-0.600000X0.850000X-0.600000X-0.850000X0*%
%ADD29O,1.700000X2.200000*%
%ADD30C,3.200000*%
%ADD31R,0.533400X1.397000*%
%ADD32C,1.608074*%
%ADD33RoundRect,0.250000X-0.475000X0.337500X-0.475000X-0.337500X0.475000X-0.337500X0.475000X0.337500X0*%
%ADD34C,1.651000*%
%ADD35R,2.000000X1.905000*%
%ADD36O,2.000000X1.905000*%
%ADD37RoundRect,0.150000X-0.825000X-0.150000X0.825000X-0.150000X0.825000X0.150000X-0.825000X0.150000X0*%
%ADD38RoundRect,0.150000X0.825000X0.150000X-0.825000X0.150000X-0.825000X-0.150000X0.825000X-0.150000X0*%
%ADD39RoundRect,0.250000X0.475000X-0.337500X0.475000X0.337500X-0.475000X0.337500X-0.475000X-0.337500X0*%
%ADD40FreePoly0,90.000000*%
%ADD41RoundRect,0.250000X-0.337500X-0.475000X0.337500X-0.475000X0.337500X0.475000X-0.337500X0.475000X0*%
%ADD42RoundRect,0.075000X0.075000X-0.650000X0.075000X0.650000X-0.075000X0.650000X-0.075000X-0.650000X0*%
%ADD43RoundRect,0.625000X-0.625000X-0.625000X0.625000X-0.625000X0.625000X0.625000X-0.625000X0.625000X0*%
%ADD44C,2.800000*%
%ADD45C,2.500000*%
%ADD46R,1.600000X1.600000*%
%ADD47O,1.600000X1.600000*%
%ADD48RoundRect,0.100000X0.712500X0.100000X-0.712500X0.100000X-0.712500X-0.100000X0.712500X-0.100000X0*%
%ADD49R,1.200000X1.200000*%
%ADD50RoundRect,0.162500X1.012500X0.162500X-1.012500X0.162500X-1.012500X-0.162500X1.012500X-0.162500X0*%
%ADD51FreePoly0,270.000000*%
%ADD52R,1.020000X1.890000*%
%ADD53RoundRect,0.250000X0.600000X-0.600000X0.600000X0.600000X-0.600000X0.600000X-0.600000X-0.600000X0*%
G04 APERTURE END LIST*
D10*
%TO.C,U15*%
G36*
X132346700Y-40576500D02*
G01*
X132880100Y-41084500D01*
X132880100Y-43751500D01*
X131279900Y-43751500D01*
X131279900Y-41084500D01*
X131813300Y-40576500D01*
X131813300Y-40055800D01*
X132346700Y-40055800D01*
X132346700Y-40576500D01*
G37*
%TD*%
D11*
%TO.C,J11*%
X29915000Y-91935000D03*
D12*
X28575000Y-100685000D03*
D13*
X28575000Y-98185000D03*
X28575000Y-95685000D03*
X28575000Y-93185000D03*
X28575000Y-90685000D03*
X28575000Y-88185000D03*
X28575000Y-85685000D03*
X28575000Y-83185000D03*
X26075000Y-100685000D03*
X26075000Y-98185000D03*
X26075000Y-95685000D03*
X26075000Y-93185000D03*
X26075000Y-90685000D03*
X26075000Y-88185000D03*
X26075000Y-85685000D03*
X26075000Y-83185000D03*
%TD*%
D14*
%TO.C,D5*%
X63702500Y-69215000D03*
X68377500Y-69215000D03*
%TD*%
D15*
%TO.C,R3*%
X57785000Y-39100000D03*
X57785000Y-37100000D03*
%TD*%
D16*
%TO.C,U2*%
X26035000Y-38735000D03*
D17*
X26035000Y-41275000D03*
X26035000Y-43815000D03*
X26035000Y-46355000D03*
X26035000Y-48895000D03*
X26035000Y-51435000D03*
X26035000Y-53975000D03*
X26035000Y-56515000D03*
X26035000Y-59055000D03*
X26035000Y-61595000D03*
X26035000Y-64135000D03*
X26035000Y-66675000D03*
X26035000Y-69215000D03*
X26035000Y-71755000D03*
X26035000Y-74295000D03*
D16*
X41275000Y-38735000D03*
D17*
X41275000Y-41275000D03*
X41275000Y-43815000D03*
X41275000Y-46355000D03*
X41275000Y-48895000D03*
X41275000Y-51435000D03*
X41275000Y-53975000D03*
X41275000Y-56515000D03*
X41275000Y-59055000D03*
X41275000Y-61595000D03*
X41275000Y-64135000D03*
X41275000Y-66675000D03*
X41275000Y-69215000D03*
X41275000Y-71755000D03*
X41275000Y-74295000D03*
%TD*%
D15*
%TO.C,R28*%
X92075000Y-74025000D03*
X92075000Y-72025000D03*
%TD*%
D11*
%TO.C,J5*%
X144055000Y-74930000D03*
D18*
X142715000Y-76180000D03*
D19*
X142715000Y-73680000D03*
%TD*%
D20*
%TO.C,R15*%
X138795000Y-73025000D03*
X136795000Y-73025000D03*
%TD*%
D21*
%TO.C,C10*%
X45487500Y-105918000D03*
X43412500Y-105918000D03*
%TD*%
D22*
%TO.C,R32*%
X45990000Y-69850000D03*
X47990000Y-69850000D03*
%TD*%
D23*
%TO.C,CR4*%
X94615000Y-77535000D03*
X93345000Y-77535000D03*
X92075000Y-77535000D03*
X90805000Y-77535000D03*
X90805000Y-82485000D03*
X92075000Y-82485000D03*
X93345000Y-82485000D03*
X94615000Y-82485000D03*
%TD*%
D24*
%TO.C,TP2*%
X137160000Y-79375000D03*
%TD*%
D15*
%TO.C,R36*%
X38100000Y-64992000D03*
X38100000Y-62992000D03*
%TD*%
%TO.C,R27*%
X96520000Y-43545000D03*
X96520000Y-41545000D03*
%TD*%
D20*
%TO.C,R7*%
X51165000Y-45161200D03*
X49165000Y-45161200D03*
%TD*%
D21*
%TO.C,C5*%
X122322500Y-107950000D03*
X120247500Y-107950000D03*
%TD*%
D22*
%TO.C,R9*%
X47260000Y-32385000D03*
X49260000Y-32385000D03*
%TD*%
%TO.C,R11*%
X120285000Y-102870000D03*
X122285000Y-102870000D03*
%TD*%
D25*
%TO.C,D6*%
X63297500Y-80645000D03*
X58622500Y-80645000D03*
%TD*%
D26*
%TO.C,R14*%
X133985000Y-73295000D03*
X133985000Y-75295000D03*
%TD*%
D22*
%TO.C,R6*%
X44720000Y-45110400D03*
X46720000Y-45110400D03*
%TD*%
D27*
%TO.C,D7*%
X91440000Y-35357500D03*
X91440000Y-30682500D03*
%TD*%
D11*
%TO.C,J7*%
X73660000Y-27215000D03*
D28*
X69910000Y-25875000D03*
D29*
X72410000Y-25875000D03*
X74910000Y-25875000D03*
X77410000Y-25875000D03*
%TD*%
D30*
%TO.C,REF\u002A\u002A*%
X27305000Y-107315000D03*
%TD*%
D31*
%TO.C,U15*%
X133580000Y-39649400D03*
X132080000Y-39649400D03*
X130580000Y-39649400D03*
%TD*%
D32*
%TO.C,K4*%
X67945000Y-65571000D03*
X67945000Y-63031000D03*
X67945000Y-55411000D03*
X67945000Y-47791000D03*
X60325000Y-63031000D03*
X60325000Y-65571000D03*
%TD*%
D33*
%TO.C,C17*%
X66675000Y-40237500D03*
X66675000Y-42312500D03*
%TD*%
D20*
%TO.C,R33*%
X55610000Y-77470000D03*
X53610000Y-77470000D03*
%TD*%
D34*
%TO.C,K3*%
X55880000Y-66675000D03*
X55880000Y-56515000D03*
X55880000Y-48895000D03*
X45720000Y-48895000D03*
X45720000Y-56515000D03*
X45720000Y-66675000D03*
%TD*%
D35*
%TO.C,U9*%
X44760000Y-101895000D03*
D36*
X44760000Y-99355000D03*
X44760000Y-96815000D03*
%TD*%
D37*
%TO.C,CR5*%
X45785000Y-73660000D03*
X45785000Y-74930000D03*
X45785000Y-76200000D03*
X45785000Y-77470000D03*
X50735000Y-77470000D03*
X50735000Y-76200000D03*
X50735000Y-74930000D03*
X50735000Y-73660000D03*
%TD*%
D26*
%TO.C,R29*%
X87630000Y-80915000D03*
X87630000Y-82915000D03*
%TD*%
D38*
%TO.C,CR1*%
X63435000Y-76835000D03*
X63435000Y-75565000D03*
X63435000Y-74295000D03*
X63435000Y-73025000D03*
X58485000Y-73025000D03*
X58485000Y-74295000D03*
X58485000Y-75565000D03*
X58485000Y-76835000D03*
%TD*%
D27*
%TO.C,D2*%
X92075000Y-69647500D03*
X92075000Y-64972500D03*
%TD*%
D20*
%TO.C,R18*%
X68945000Y-31115000D03*
X66945000Y-31115000D03*
%TD*%
D15*
%TO.C,R21*%
X88900000Y-44815000D03*
X88900000Y-42815000D03*
%TD*%
D39*
%TO.C,C22*%
X99060000Y-48027500D03*
X99060000Y-45952500D03*
%TD*%
D11*
%TO.C,J6*%
X62230000Y-27215000D03*
D40*
X60980000Y-25875000D03*
D29*
X63480000Y-25875000D03*
%TD*%
D41*
%TO.C,C6*%
X129137500Y-102235000D03*
X131212500Y-102235000D03*
%TD*%
D15*
%TO.C,R5*%
X55245000Y-43130000D03*
X55245000Y-41130000D03*
%TD*%
D20*
%TO.C,R16*%
X138795000Y-74930000D03*
X136795000Y-74930000D03*
%TD*%
%TO.C,R12*%
X122285000Y-105410000D03*
X120285000Y-105410000D03*
%TD*%
D34*
%TO.C,K1*%
X88887300Y-62230000D03*
X78727300Y-62230000D03*
X71107300Y-62230000D03*
X71107300Y-72390000D03*
X78727300Y-72390000D03*
X88887300Y-72390000D03*
%TD*%
D11*
%TO.C,J4*%
X50800000Y-27215000D03*
D28*
X47050000Y-25875000D03*
D29*
X49550000Y-25875000D03*
X52050000Y-25875000D03*
X54550000Y-25875000D03*
%TD*%
D11*
%TO.C,J1*%
X85090000Y-27215000D03*
D40*
X83840000Y-25875000D03*
D29*
X86340000Y-25875000D03*
X88840000Y-25875000D03*
%TD*%
D42*
%TO.C,U8*%
X123980000Y-106925000D03*
X124480000Y-106925000D03*
X124980000Y-106925000D03*
X125480000Y-106925000D03*
X125980000Y-106925000D03*
X126480000Y-106925000D03*
X126980000Y-106925000D03*
X127480000Y-106925000D03*
X127480000Y-102625000D03*
X126980000Y-102625000D03*
X126480000Y-102625000D03*
X125980000Y-102625000D03*
X125480000Y-102625000D03*
X124980000Y-102625000D03*
X124480000Y-102625000D03*
X123980000Y-102625000D03*
%TD*%
D41*
%TO.C,C18*%
X82147500Y-40005000D03*
X84222500Y-40005000D03*
%TD*%
D38*
%TO.C,CR3*%
X85660000Y-59055000D03*
X85660000Y-57785000D03*
X85660000Y-56515000D03*
X85660000Y-55245000D03*
X80710000Y-55245000D03*
X80710000Y-56515000D03*
X80710000Y-57785000D03*
X80710000Y-59055000D03*
%TD*%
D20*
%TO.C,R30*%
X83550000Y-52705000D03*
X81550000Y-52705000D03*
%TD*%
D43*
%TO.C,K2*%
X96784000Y-35560000D03*
D44*
X113284000Y-35560000D03*
X116784000Y-28060000D03*
D45*
X96784000Y-28060000D03*
%TD*%
D38*
%TO.C,CR2*%
X78040000Y-59055000D03*
X78040000Y-57785000D03*
X78040000Y-56515000D03*
X78040000Y-55245000D03*
X73090000Y-55245000D03*
X73090000Y-56515000D03*
X73090000Y-57785000D03*
X73090000Y-59055000D03*
%TD*%
D22*
%TO.C,R10*%
X125365000Y-109855000D03*
X127365000Y-109855000D03*
%TD*%
D33*
%TO.C,C1*%
X35052000Y-87608500D03*
X35052000Y-89683500D03*
%TD*%
D37*
%TO.C,U7*%
X80075000Y-41910000D03*
X80075000Y-43180000D03*
X80075000Y-44450000D03*
X80075000Y-45720000D03*
X80075000Y-46990000D03*
X80075000Y-48260000D03*
X80075000Y-49530000D03*
X85025000Y-49530000D03*
X85025000Y-48260000D03*
X85025000Y-46990000D03*
X85025000Y-45720000D03*
X85025000Y-44450000D03*
X85025000Y-43180000D03*
X85025000Y-41910000D03*
%TD*%
D14*
%TO.C,D4*%
X51002500Y-69850000D03*
X55677500Y-69850000D03*
%TD*%
D39*
%TO.C,C9*%
X99060000Y-57552500D03*
X99060000Y-55477500D03*
%TD*%
D23*
%TO.C,Q1*%
X99060000Y-65470000D03*
X97790000Y-65470000D03*
X96520000Y-65470000D03*
X95250000Y-65470000D03*
X95250000Y-70420000D03*
X96520000Y-70420000D03*
X97790000Y-70420000D03*
X99060000Y-70420000D03*
%TD*%
D33*
%TO.C,C8*%
X125730000Y-96752500D03*
X125730000Y-98827500D03*
%TD*%
D41*
%TO.C,C11*%
X36046500Y-105918000D03*
X38121500Y-105918000D03*
%TD*%
D15*
%TO.C,R35*%
X38100000Y-68945000D03*
X38100000Y-66945000D03*
%TD*%
D37*
%TO.C,Q2*%
X83250000Y-32385000D03*
X83250000Y-33655000D03*
X83250000Y-34925000D03*
X83250000Y-36195000D03*
X88200000Y-36195000D03*
X88200000Y-34925000D03*
X88200000Y-33655000D03*
X88200000Y-32385000D03*
%TD*%
D33*
%TO.C,C2*%
X52324000Y-86338500D03*
X52324000Y-88413500D03*
%TD*%
D37*
%TO.C,U16*%
X91505000Y-55245000D03*
X91505000Y-56515000D03*
X91505000Y-57785000D03*
X91505000Y-59055000D03*
X91505000Y-60325000D03*
X91505000Y-61595000D03*
X91505000Y-62865000D03*
X96455000Y-62865000D03*
X96455000Y-61595000D03*
X96455000Y-60325000D03*
X96455000Y-59055000D03*
X96455000Y-57785000D03*
X96455000Y-56515000D03*
X96455000Y-55245000D03*
%TD*%
D15*
%TO.C,R1*%
X32258000Y-86598000D03*
X32258000Y-84598000D03*
%TD*%
D20*
%TO.C,R2*%
X30845000Y-41275000D03*
X28845000Y-41275000D03*
%TD*%
D38*
%TO.C,U5*%
X52690000Y-43130000D03*
X52690000Y-41860000D03*
X52690000Y-40590000D03*
X52690000Y-39320000D03*
X52690000Y-38050000D03*
X52690000Y-36780000D03*
X52690000Y-35510000D03*
X47740000Y-35510000D03*
X47740000Y-36780000D03*
X47740000Y-38050000D03*
X47740000Y-39320000D03*
X47740000Y-40590000D03*
X47740000Y-41860000D03*
X47740000Y-43130000D03*
%TD*%
D46*
%TO.C,U12*%
X76825000Y-43805000D03*
D47*
X76825000Y-41265000D03*
X76825000Y-38725000D03*
X76825000Y-36185000D03*
X69205000Y-36185000D03*
X69205000Y-38725000D03*
X69205000Y-41265000D03*
X69205000Y-43805000D03*
%TD*%
D11*
%TO.C,J10*%
X132715000Y-26580000D03*
D40*
X131465000Y-25240000D03*
D29*
X133965000Y-25240000D03*
%TD*%
D26*
%TO.C,R19*%
X88900000Y-47895000D03*
X88900000Y-49895000D03*
%TD*%
D48*
%TO.C,U6*%
X70692500Y-91780000D03*
X70692500Y-91130000D03*
X70692500Y-90480000D03*
X70692500Y-89830000D03*
X66467500Y-89830000D03*
X66467500Y-90480000D03*
X66467500Y-91130000D03*
X66467500Y-91780000D03*
%TD*%
D30*
%TO.C,REF\u002A\u002A*%
X144145000Y-106045000D03*
%TD*%
D26*
%TO.C,R4*%
X57785000Y-41130000D03*
X57785000Y-43130000D03*
%TD*%
D49*
%TO.C,D8*%
X139830000Y-36830000D03*
X137030000Y-36830000D03*
%TD*%
D15*
%TO.C,R8*%
X55245000Y-39100000D03*
X55245000Y-37100000D03*
%TD*%
D33*
%TO.C,C14*%
X49022000Y-96752500D03*
X49022000Y-98827500D03*
%TD*%
D15*
%TO.C,R22*%
X60960000Y-70215000D03*
X60960000Y-68215000D03*
%TD*%
D35*
%TO.C,U10*%
X37465000Y-101895000D03*
D36*
X37465000Y-99355000D03*
X37465000Y-96815000D03*
%TD*%
D37*
%TO.C,U4*%
X91440000Y-45720000D03*
X91440000Y-46990000D03*
X91440000Y-48260000D03*
X91440000Y-49530000D03*
X91440000Y-50800000D03*
X91440000Y-52070000D03*
X91440000Y-53340000D03*
X96390000Y-53340000D03*
X96390000Y-52070000D03*
X96390000Y-50800000D03*
X96390000Y-49530000D03*
X96390000Y-48260000D03*
X96390000Y-46990000D03*
X96390000Y-45720000D03*
%TD*%
D26*
%TO.C,R26*%
X93980000Y-41545000D03*
X93980000Y-43545000D03*
%TD*%
D50*
%TO.C,U1*%
X48975000Y-89662000D03*
X48975000Y-87122000D03*
X48975000Y-84582000D03*
X48975000Y-82042000D03*
X39925000Y-82042000D03*
X39925000Y-84582000D03*
X39925000Y-87122000D03*
X39925000Y-89662000D03*
%TD*%
D39*
%TO.C,C23*%
X138430000Y-31115000D03*
X138430000Y-29040000D03*
%TD*%
D11*
%TO.C,J8*%
X124460000Y-26600000D03*
D51*
X125710000Y-27940000D03*
D29*
X123210000Y-27940000D03*
%TD*%
D33*
%TO.C,C7*%
X129540000Y-96752500D03*
X129540000Y-98827500D03*
%TD*%
%TO.C,C20*%
X64135000Y-35792500D03*
X64135000Y-37867500D03*
%TD*%
D20*
%TO.C,R17*%
X72755000Y-33020000D03*
X70755000Y-33020000D03*
%TD*%
D24*
%TO.C,TP1*%
X146685000Y-80010000D03*
%TD*%
D26*
%TO.C,R13*%
X123190000Y-96790000D03*
X123190000Y-98790000D03*
%TD*%
D30*
%TO.C,REF\u002A\u002A*%
X144780000Y-25400000D03*
%TD*%
%TO.C,REF\u002A\u002A*%
X26670000Y-26035000D03*
%TD*%
D15*
%TO.C,R20*%
X91440000Y-43545000D03*
X91440000Y-41545000D03*
%TD*%
D22*
%TO.C,R31*%
X66310000Y-73660000D03*
X68310000Y-73660000D03*
%TD*%
D11*
%TO.C,J9*%
X144780000Y-33585000D03*
D51*
X146030000Y-34925000D03*
D29*
X143530000Y-34925000D03*
%TD*%
D15*
%TO.C,R23*%
X66675000Y-37830000D03*
X66675000Y-35830000D03*
%TD*%
D33*
%TO.C,C13*%
X32258000Y-96752500D03*
X32258000Y-98827500D03*
%TD*%
D41*
%TO.C,C24*%
X131677500Y-31750000D03*
X133752500Y-31750000D03*
%TD*%
D52*
%TO.C,L1*%
X128905000Y-79215000D03*
X126365000Y-79215000D03*
X123825000Y-79215000D03*
X123825000Y-93505000D03*
X126365000Y-93505000D03*
X128905000Y-93505000D03*
%TD*%
D11*
%TO.C,J2*%
X62865000Y-100965000D03*
D53*
X56615000Y-99625000D03*
D13*
X59115000Y-99625000D03*
X61615000Y-99625000D03*
X64115000Y-99625000D03*
X66615000Y-99625000D03*
X69115000Y-99625000D03*
X56615000Y-97125000D03*
X59115000Y-97125000D03*
X61615000Y-97125000D03*
X64115000Y-97125000D03*
X66615000Y-97125000D03*
X69115000Y-97125000D03*
%TD*%
M02*
