%TF.GenerationSoftware,KiCad,Pcbnew,8.0.3*%
%TF.CreationDate,2025-03-11T00:39:16-07:00*%
%TF.ProjectId,Accumulator_Board,41636375-6d75-46c6-9174-6f725f426f61,3.2*%
%TF.SameCoordinates,Original*%
%TF.FileFunction,Soldermask,Bot*%
%TF.FilePolarity,Negative*%
%FSLAX46Y46*%
G04 Gerber Fmt 4.6, Leading zero omitted, Abs format (unit mm)*
G04 Created by KiCad (PCBNEW 8.0.3) date 2025-03-11 00:39:16*
%MOMM*%
%LPD*%
G01*
G04 APERTURE LIST*
G04 Aperture macros list*
%AMRoundRect*
0 Rectangle with rounded corners*
0 $1 Rounding radius*
0 $2 $3 $4 $5 $6 $7 $8 $9 X,Y pos of 4 corners*
0 Add a 4 corners polygon primitive as box body*
4,1,4,$2,$3,$4,$5,$6,$7,$8,$9,$2,$3,0*
0 Add four circle primitives for the rounded corners*
1,1,$1+$1,$2,$3*
1,1,$1+$1,$4,$5*
1,1,$1+$1,$6,$7*
1,1,$1+$1,$8,$9*
0 Add four rect primitives between the rounded corners*
20,1,$1+$1,$2,$3,$4,$5,0*
20,1,$1+$1,$4,$5,$6,$7,0*
20,1,$1+$1,$6,$7,$8,$9,0*
20,1,$1+$1,$8,$9,$2,$3,0*%
%AMFreePoly0*
4,1,22,0.945671,0.830970,1.026777,0.776777,1.080970,0.695671,1.100000,0.600000,1.100000,-0.600000,1.080970,-0.695671,1.026777,-0.776777,0.945671,-0.830970,0.850000,-0.850000,-0.450000,-0.850000,-0.545671,-0.830970,-0.626777,-0.776777,-1.026777,-0.376777,-1.080970,-0.295671,-1.100000,-0.200000,-1.100000,0.600000,-1.080970,0.695671,-1.026777,0.776777,-0.945671,0.830970,-0.850000,0.850000,
0.850000,0.850000,0.945671,0.830970,0.945671,0.830970,$1*%
G04 Aperture macros list end*
%ADD10C,1.300000*%
%ADD11RoundRect,0.250000X0.600000X0.600000X-0.600000X0.600000X-0.600000X-0.600000X0.600000X-0.600000X0*%
%ADD12C,1.700000*%
%ADD13RoundRect,0.102000X-0.765000X-0.765000X0.765000X-0.765000X0.765000X0.765000X-0.765000X0.765000X0*%
%ADD14C,1.734000*%
%ADD15FreePoly0,180.000000*%
%ADD16O,2.200000X1.700000*%
%ADD17C,2.000000*%
%ADD18RoundRect,0.250000X0.600000X-0.850000X0.600000X0.850000X-0.600000X0.850000X-0.600000X-0.850000X0*%
%ADD19O,1.700000X2.200000*%
%ADD20C,3.200000*%
%ADD21C,1.608074*%
%ADD22C,1.651000*%
%ADD23R,2.000000X1.905000*%
%ADD24O,2.000000X1.905000*%
%ADD25FreePoly0,90.000000*%
%ADD26RoundRect,0.625000X-0.625000X-0.625000X0.625000X-0.625000X0.625000X0.625000X-0.625000X0.625000X0*%
%ADD27C,2.800000*%
%ADD28C,2.500000*%
%ADD29R,1.600000X1.600000*%
%ADD30O,1.600000X1.600000*%
%ADD31FreePoly0,270.000000*%
%ADD32RoundRect,0.250000X0.600000X-0.600000X0.600000X0.600000X-0.600000X0.600000X-0.600000X-0.600000X0*%
G04 APERTURE END LIST*
D10*
%TO.C,J11*%
X29915000Y-91935000D03*
D11*
X28575000Y-100685000D03*
D12*
X28575000Y-98185000D03*
X28575000Y-95685000D03*
X28575000Y-93185000D03*
X28575000Y-90685000D03*
X28575000Y-88185000D03*
X28575000Y-85685000D03*
X28575000Y-83185000D03*
X26075000Y-100685000D03*
X26075000Y-98185000D03*
X26075000Y-95685000D03*
X26075000Y-93185000D03*
X26075000Y-90685000D03*
X26075000Y-88185000D03*
X26075000Y-85685000D03*
X26075000Y-83185000D03*
%TD*%
D13*
%TO.C,U2*%
X26035000Y-38735000D03*
D14*
X26035000Y-41275000D03*
X26035000Y-43815000D03*
X26035000Y-46355000D03*
X26035000Y-48895000D03*
X26035000Y-51435000D03*
X26035000Y-53975000D03*
X26035000Y-56515000D03*
X26035000Y-59055000D03*
X26035000Y-61595000D03*
X26035000Y-64135000D03*
X26035000Y-66675000D03*
X26035000Y-69215000D03*
X26035000Y-71755000D03*
X26035000Y-74295000D03*
D13*
X41275000Y-38735000D03*
D14*
X41275000Y-41275000D03*
X41275000Y-43815000D03*
X41275000Y-46355000D03*
X41275000Y-48895000D03*
X41275000Y-51435000D03*
X41275000Y-53975000D03*
X41275000Y-56515000D03*
X41275000Y-59055000D03*
X41275000Y-61595000D03*
X41275000Y-64135000D03*
X41275000Y-66675000D03*
X41275000Y-69215000D03*
X41275000Y-71755000D03*
X41275000Y-74295000D03*
%TD*%
D10*
%TO.C,J5*%
X144055000Y-74930000D03*
D15*
X142715000Y-76180000D03*
D16*
X142715000Y-73680000D03*
%TD*%
D17*
%TO.C,TP2*%
X137160000Y-79375000D03*
%TD*%
D10*
%TO.C,J7*%
X73660000Y-27215000D03*
D18*
X69910000Y-25875000D03*
D19*
X72410000Y-25875000D03*
X74910000Y-25875000D03*
X77410000Y-25875000D03*
%TD*%
D20*
%TO.C,REF\u002A\u002A*%
X27305000Y-107315000D03*
%TD*%
D21*
%TO.C,K4*%
X67945000Y-65571000D03*
X67945000Y-63031000D03*
X67945000Y-55411000D03*
X67945000Y-47791000D03*
X60325000Y-63031000D03*
X60325000Y-65571000D03*
%TD*%
D22*
%TO.C,K3*%
X55880000Y-66675000D03*
X55880000Y-56515000D03*
X55880000Y-48895000D03*
X45720000Y-48895000D03*
X45720000Y-56515000D03*
X45720000Y-66675000D03*
%TD*%
D23*
%TO.C,U9*%
X44760000Y-101895000D03*
D24*
X44760000Y-99355000D03*
X44760000Y-96815000D03*
%TD*%
D10*
%TO.C,J6*%
X62230000Y-27215000D03*
D25*
X60980000Y-25875000D03*
D19*
X63480000Y-25875000D03*
%TD*%
D22*
%TO.C,K1*%
X88887300Y-62230000D03*
X78727300Y-62230000D03*
X71107300Y-62230000D03*
X71107300Y-72390000D03*
X78727300Y-72390000D03*
X88887300Y-72390000D03*
%TD*%
D10*
%TO.C,J4*%
X50800000Y-27215000D03*
D18*
X47050000Y-25875000D03*
D19*
X49550000Y-25875000D03*
X52050000Y-25875000D03*
X54550000Y-25875000D03*
%TD*%
D10*
%TO.C,J1*%
X85090000Y-27215000D03*
D25*
X83840000Y-25875000D03*
D19*
X86340000Y-25875000D03*
X88840000Y-25875000D03*
%TD*%
D26*
%TO.C,K2*%
X96784000Y-35560000D03*
D27*
X113284000Y-35560000D03*
X116784000Y-28060000D03*
D28*
X96784000Y-28060000D03*
%TD*%
D29*
%TO.C,U12*%
X76825000Y-43805000D03*
D30*
X76825000Y-41265000D03*
X76825000Y-38725000D03*
X76825000Y-36185000D03*
X69205000Y-36185000D03*
X69205000Y-38725000D03*
X69205000Y-41265000D03*
X69205000Y-43805000D03*
%TD*%
D10*
%TO.C,J10*%
X132715000Y-26580000D03*
D25*
X131465000Y-25240000D03*
D19*
X133965000Y-25240000D03*
%TD*%
D20*
%TO.C,REF\u002A\u002A*%
X144145000Y-106045000D03*
%TD*%
D23*
%TO.C,U10*%
X37465000Y-101895000D03*
D24*
X37465000Y-99355000D03*
X37465000Y-96815000D03*
%TD*%
D10*
%TO.C,J8*%
X124460000Y-26600000D03*
D31*
X125710000Y-27940000D03*
D19*
X123210000Y-27940000D03*
%TD*%
D17*
%TO.C,TP1*%
X146685000Y-80010000D03*
%TD*%
D20*
%TO.C,REF\u002A\u002A*%
X144780000Y-25400000D03*
%TD*%
%TO.C,REF\u002A\u002A*%
X26670000Y-26035000D03*
%TD*%
D10*
%TO.C,J9*%
X144780000Y-33585000D03*
D31*
X146030000Y-34925000D03*
D19*
X143530000Y-34925000D03*
%TD*%
D10*
%TO.C,J2*%
X62865000Y-100965000D03*
D32*
X56615000Y-99625000D03*
D12*
X59115000Y-99625000D03*
X61615000Y-99625000D03*
X64115000Y-99625000D03*
X66615000Y-99625000D03*
X69115000Y-99625000D03*
X56615000Y-97125000D03*
X59115000Y-97125000D03*
X61615000Y-97125000D03*
X64115000Y-97125000D03*
X66615000Y-97125000D03*
X69115000Y-97125000D03*
%TD*%
M02*
